<?xml version="1.0" encoding="UTF-8" standalone="no"?><svg xmlns="http://www.w3.org/2000/svg" xmlns:xlink="http://www.w3.org/1999/xlink" clip-rule="evenodd" stroke-miterlimit="4.00" viewBox="0 0 368 184"><desc>SVG generated by Keynote</desc><defs><pattern id="3D4F6B2C-B57E-4CC3-ABE3-20BFC4DB4D56" patternUnits="userSpaceOnUse" width="359" height="359" viewBox="0 0 359 359" patternTransform="matrix(0.835655, 0.000000, 0.000000, -0.835655, 5.442017, 181.500000)"><image xlink:href="84434E688D1C1A095E59AD06E39CC6B9.jpeg" width="359.00" height="359.00"></image></pattern><pattern id="1B7C350E-34CB-4C12-B2C3-CD83AFEB145F" patternUnits="userSpaceOnUse" width="359" height="359" viewBox="0 0 359 359" patternTransform="matrix(0.835655, 0.000000, 0.000000, -0.835655, 4.442017, 43.500000)"><image xlink:href="../../2420BDA3-9A90-476C-A2EF-D1F049066CDE/assets/84434E688D1C1A095E59AD06E39CC6B9.jpeg" width="359.00" height="359.00"></image></pattern></defs><g transform="matrix(1.00, 0.00, -0.00, -1.00, 0.0, 184.0)"><g><clipPath id="clip-22"><path d="M 1.4 138.5 L 367.9 138.5 L 367.9 183.5 L 1.4 183.5 Z M 1.4 138.5 "></path></clipPath><g clip-path="url(#clip-22)"><image xlink:href="C24F651C91875165DC0AE6C7EAA0D19D.png" width="364.00" height="43.00" transform="matrix(1.00, 0.00, -0.00, -1.00, 2.4, 182.5)" opacity="0.50"></image></g></g><g><clipPath id="clip-23"><path d="M 5.4 181.5 L 363.9 181.5 L 363.9 144.5 L 5.4 144.5 Z M 5.4 181.5 "></path></clipPath><g clip-path="url(#clip-23)"><g><clipPath id="clip-24"><path d="M 1.4 138.5 L 367.9 138.5 L 367.9 183.5 L 1.4 183.5 Z M 1.4 138.5 "></path></clipPath><g clip-path="url(#clip-24)"><path d="M 5.4 144.5 L 363.9 144.5 L 363.9 181.5 L 5.4 181.5 Z M 5.4 144.5 " fill="url(#3D4F6B2C-B57E-4CC3-ABE3-20BFC4DB4D56)"></path><path d="M 5.4 181.5 L 363.9 181.5 L 363.9 144.5 L 5.4 144.5 Z M 5.4 181.5 " fill="#FF2A05" fill-opacity="0.50"></path></g></g></g></g><g><clipPath id="clip-25"><path d="M 3.4 142.5 L 365.9 142.5 L 365.9 183.5 L 3.4 183.5 Z M 3.4 142.5 "></path></clipPath><g clip-path="url(#clip-25)"><text xml:space="preserve" font-family="Helvetica-Light" font-size="24.0" fill="#FEFFFE" transform="matrix(1.00, 0.00, -0.00, -1.00, 24.0, 154.0)">M</text><text xml:space="preserve" font-family="Helvetica-Light" font-size="24.0" fill="#FEFFFE" transform="matrix(1.00, 0.00, -0.00, -1.00, 44.0, 154.0)">o</text><text xml:space="preserve" font-family="Helvetica-Light" font-size="24.0" fill="#FEFFFE" transform="matrix(1.00, 0.00, -0.00, -1.00, 57.3, 154.0)">d</text><text xml:space="preserve" font-family="Helvetica-Light" font-size="24.0" fill="#FEFFFE" transform="matrix(1.00, 0.00, -0.00, -1.00, 72.0, 154.0)">e</text><text xml:space="preserve" font-family="Helvetica-Light" font-size="24.0" fill="#FEFFFE" transform="matrix(1.00, 0.00, -0.00, -1.00, 85.3, 154.0)">l</text><text xml:space="preserve" font-family="Helvetica-Light" font-size="24.0" fill="#FEFFFE" transform="matrix(1.00, 0.00, -0.00, -1.00, 90.7, 154.0)"> </text><text xml:space="preserve" font-family="Helvetica-Light" font-size="24.0" fill="#FEFFFE" transform="matrix(1.00, 0.00, -0.00, -1.00, 97.3, 154.0)">i</text><text xml:space="preserve" font-family="Helvetica-Light" font-size="24.0" fill="#FEFFFE" transform="matrix(1.00, 0.00, -0.00, -1.00, 102.7, 154.0)">n</text><text xml:space="preserve" font-family="Helvetica-Light" font-size="24.0" fill="#FEFFFE" transform="matrix(1.00, 0.00, -0.00, -1.00, 116.0, 154.0)"> </text><text xml:space="preserve" font-family="Helvetica-Light" font-size="24.0" fill="#FEFFFE" transform="matrix(1.00, 0.00, -0.00, -1.00, 122.7, 154.0)">M</text><text xml:space="preserve" font-family="Helvetica-Light" font-size="24.0" fill="#FEFFFE" transform="matrix(1.00, 0.00, -0.00, -1.00, 142.7, 154.0)">o</text><text xml:space="preserve" font-family="Helvetica-Light" font-size="24.0" fill="#FEFFFE" transform="matrix(1.00, 0.00, -0.00, -1.00, 156.0, 154.0)">n</text><text xml:space="preserve" font-family="Helvetica-Light" font-size="24.0" fill="#FEFFFE" transform="matrix(1.00, 0.00, -0.00, -1.00, 169.4, 154.0)">o</text><text xml:space="preserve" font-family="Helvetica-Light" font-size="24.0" fill="#FEFFFE" transform="matrix(1.00, 0.00, -0.00, -1.00, 182.7, 154.0)">i</text><text xml:space="preserve" font-family="Helvetica-Light" font-size="24.0" fill="#FEFFFE" transform="matrix(1.00, 0.00, -0.00, -1.00, 188.0, 154.0)">d</text><text xml:space="preserve" font-family="Helvetica-Light" font-size="24.0" fill="#FEFFFE" transform="matrix(1.00, 0.00, -0.00, -1.00, 202.7, 154.0)">a</text><text xml:space="preserve" font-family="Helvetica-Light" font-size="24.0" fill="#FEFFFE" transform="matrix(1.00, 0.00, -0.00, -1.00, 216.0, 154.0)">l</text><text xml:space="preserve" font-family="Helvetica-Light" font-size="24.0" fill="#FEFFFE" transform="matrix(1.00, 0.00, -0.00, -1.00, 221.4, 154.0)"> </text><text xml:space="preserve" font-family="Helvetica-Light" font-size="24.0" fill="#FEFFFE" transform="matrix(1.00, 0.00, -0.00, -1.00, 228.0, 154.0)">C</text><text xml:space="preserve" font-family="Helvetica-Light" font-size="24.0" fill="#FEFFFE" transform="matrix(1.00, 0.00, -0.00, -1.00, 245.4, 154.0)">a</text><text xml:space="preserve" font-family="Helvetica-Light" font-size="24.0" fill="#FEFFFE" transform="matrix(1.00, 0.00, -0.00, -1.00, 258.7, 154.0)">t</text><text xml:space="preserve" font-family="Helvetica-Light" font-size="24.0" fill="#FEFFFE" transform="matrix(1.00, 0.00, -0.00, -1.00, 265.4, 154.0)">e</text><text xml:space="preserve" font-family="Helvetica-Light" font-size="24.0" fill="#FEFFFE" transform="matrix(1.00, 0.00, -0.00, -1.00, 278.7, 154.0)">g</text><text xml:space="preserve" font-family="Helvetica-Light" font-size="24.0" fill="#FEFFFE" transform="matrix(1.00, 0.00, -0.00, -1.00, 293.4, 154.0)">o</text><text xml:space="preserve" font-family="Helvetica-Light" font-size="24.0" fill="#FEFFFE" transform="matrix(1.00, 0.00, -0.00, -1.00, 306.7, 154.0)">r</text><text xml:space="preserve" font-family="Helvetica-Light" font-size="24.0" fill="#FEFFFE" transform="matrix(1.00, 0.00, -0.00, -1.00, 314.7, 154.0)">i</text><text xml:space="preserve" font-family="Helvetica-Light" font-size="24.0" fill="#FEFFFE" transform="matrix(1.00, 0.00, -0.00, -1.00, 320.1, 154.0)">e</text><text xml:space="preserve" font-family="Helvetica-Light" font-size="24.0" fill="#FEFFFE" transform="matrix(1.00, 0.00, -0.00, -1.00, 333.4, 154.0)">s</text></g></g><g><clipPath id="clip-26"><path d="M 0.4 0.5 L 366.9 0.5 L 366.9 45.5 L 0.4 45.5 Z M 0.4 0.5 "></path></clipPath><g clip-path="url(#clip-26)"><image xlink:href="../../2420BDA3-9A90-476C-A2EF-D1F049066CDE/assets/C24F651C91875165DC0AE6C7EAA0D19D.png" width="364.00" height="43.00" transform="matrix(1.00, 0.00, -0.00, -1.00, 1.4, 44.5)" opacity="0.50"></image></g></g><g><clipPath id="clip-27"><path d="M 4.4 43.5 L 362.9 43.5 L 362.9 6.5 L 4.4 6.5 Z M 4.4 43.5 "></path></clipPath><g clip-path="url(#clip-27)"><g><clipPath id="clip-28"><path d="M 0.4 0.5 L 366.9 0.5 L 366.9 45.5 L 0.4 45.5 Z M 0.4 0.5 "></path></clipPath><g clip-path="url(#clip-28)"><path d="M 4.4 6.5 L 362.9 6.5 L 362.9 43.5 L 4.4 43.5 Z M 4.4 6.5 " fill="url(#1B7C350E-34CB-4C12-B2C3-CD83AFEB145F)"></path><path d="M 4.4 43.5 L 362.9 43.5 L 362.9 6.5 L 4.4 6.5 Z M 4.4 43.5 " fill="#FF2A05" fill-opacity="0.50"></path></g></g></g></g><g><clipPath id="clip-29"><path d="M 2.4 4.5 L 364.9 4.5 L 364.9 45.5 L 2.4 45.5 Z M 2.4 4.5 "></path></clipPath><g clip-path="url(#clip-29)"><text xml:space="preserve" font-family="Helvetica-Light" font-size="24.0" fill="#FEFFFE" transform="matrix(1.00, 0.00, -0.00, -1.00, 54.0, 16.0)">M</text><text xml:space="preserve" font-family="Helvetica-Light" font-size="24.0" fill="#FEFFFE" transform="matrix(1.00, 0.00, -0.00, -1.00, 74.0, 16.0)">o</text><text xml:space="preserve" font-family="Helvetica-Light" font-size="24.0" fill="#FEFFFE" transform="matrix(1.00, 0.00, -0.00, -1.00, 87.3, 16.0)">d</text><text xml:space="preserve" font-family="Helvetica-Light" font-size="24.0" fill="#FEFFFE" transform="matrix(1.00, 0.00, -0.00, -1.00, 102.0, 16.0)">e</text><text xml:space="preserve" font-family="Helvetica-Light" font-size="24.0" fill="#FEFFFE" transform="matrix(1.00, 0.00, -0.00, -1.00, 115.3, 16.0)">l</text><text xml:space="preserve" font-family="Helvetica-Light" font-size="24.0" fill="#FEFFFE" transform="matrix(1.00, 0.00, -0.00, -1.00, 120.7, 16.0)">e</text><text xml:space="preserve" font-family="Helvetica-Light" font-size="24.0" fill="#FEFFFE" transform="matrix(1.00, 0.00, -0.00, -1.00, 134.0, 16.0)">d</text><text xml:space="preserve" font-family="Helvetica-Light" font-size="24.0" fill="#FEFFFE" transform="matrix(1.00, 0.00, -0.00, -1.00, 148.7, 16.0)"> </text><text xml:space="preserve" font-family="Helvetica-Light" font-size="24.0" fill="#FEFFFE" transform="matrix(1.00, 0.00, -0.00, -1.00, 155.4, 16.0)">i</text><text xml:space="preserve" font-family="Helvetica-Light" font-size="24.0" fill="#FEFFFE" transform="matrix(1.00, 0.00, -0.00, -1.00, 160.7, 16.0)">n</text><text xml:space="preserve" font-family="Helvetica-Light" font-size="24.0" fill="#FEFFFE" transform="matrix(1.00, 0.00, -0.00, -1.00, 174.0, 16.0)"> </text><text xml:space="preserve" font-family="Helvetica-Light" font-size="24.0" fill="#FEFFFE" transform="matrix(1.00, 0.00, -0.00, -1.00, 180.7, 16.0)">L</text><text xml:space="preserve" font-family="Helvetica-Light" font-size="24.0" fill="#FEFFFE" transform="matrix(1.00, 0.00, -0.00, -1.00, 194.0, 16.0)">i</text><text xml:space="preserve" font-family="Helvetica-Light" font-size="24.0" fill="#FEFFFE" transform="matrix(1.00, 0.00, -0.00, -1.00, 199.4, 16.0)">n</text><text xml:space="preserve" font-family="Helvetica-Light" font-size="24.0" fill="#FEFFFE" transform="matrix(1.00, 0.00, -0.00, -1.00, 212.7, 16.0)">e</text><text xml:space="preserve" font-family="Helvetica-Light" font-size="24.0" fill="#FEFFFE" transform="matrix(1.00, 0.00, -0.00, -1.00, 226.1, 16.0)">a</text><text xml:space="preserve" font-family="Helvetica-Light" font-size="24.0" fill="#FEFFFE" transform="matrix(1.00, 0.00, -0.00, -1.00, 239.4, 16.0)">r</text><text xml:space="preserve" font-family="Helvetica-Light" font-size="24.0" fill="#FEFFFE" transform="matrix(1.00, 0.00, -0.00, -1.00, 247.4, 16.0)"> </text><text xml:space="preserve" font-family="Helvetica-Light" font-size="24.0" fill="#FEFFFE" transform="matrix(1.00, 0.00, -0.00, -1.00, 254.1, 16.0)">L</text><text xml:space="preserve" font-family="Helvetica-Light" font-size="24.0" fill="#FEFFFE" transform="matrix(1.00, 0.00, -0.00, -1.00, 267.4, 16.0)">o</text><text xml:space="preserve" font-family="Helvetica-Light" font-size="24.0" fill="#FEFFFE" transform="matrix(1.00, 0.00, -0.00, -1.00, 280.8, 16.0)">g</text><text xml:space="preserve" font-family="Helvetica-Light" font-size="24.0" fill="#FEFFFE" transform="matrix(1.00, 0.00, -0.00, -1.00, 295.4, 16.0)">i</text><text xml:space="preserve" font-family="Helvetica-Light" font-size="24.0" fill="#FEFFFE" transform="matrix(1.00, 0.00, -0.00, -1.00, 300.7, 16.0)">c</text></g></g><g><clipPath id="clip-30"><path d="M 197.2 129.4 L 197.2 43.7 L 170.1 43.7 L 170.1 129.4 Z M 197.2 129.4 "></path></clipPath><g clip-path="url(#clip-30)"><path d="M 182.2 92.7 C 182.3 92.9 182.1 93.7 182.3 93.9 M 182.2 92.7 C 181.1 93.4 181.0 94.7 180.8 96.4 C 180.8 98.4 181.8 96.4 182.3 96.6 C 182.7 99.1 181.9 99.1 180.7 98.7 C 181.5 99.7 180.1 102.5 181.6 102.0 C 181.6 97.9 182.0 104.8 182.8 101.4 C 183.0 101.0 183.4 102.0 183.4 102.4 C 184.0 101.3 184.8 103.2 185.2 101.4 C 186.1 101.2 185.7 101.5 186.5 100.3 C 186.6 99.8 186.2 100.1 186.0 100.1 C 184.9 99.9 186.6 98.7 185.9 97.8 C 187.4 96.9 185.7 96.1 185.1 96.8 C 185.3 96.0 186.8 95.0 185.7 94.1 C 186.4 93.6 186.0 91.3 185.1 92.7 C 184.5 93.7 184.1 92.6 183.7 92.4 C 183.4 92.8 183.9 94.2 183.6 94.4 C 183.4 94.0 182.9 92.2 182.9 94.1 C 182.4 93.5 182.1 94.4 182.2 92.7 C 182.2 92.7 182.2 92.7 182.2 92.7 Z M 181.4 99.4 C 181.0 99.4 181.4 98.8 181.4 99.4 C 181.4 99.4 181.4 99.4 181.4 99.4 Z M 186.4 94.8 C 186.1 94.8 186.5 94.2 186.4 94.8 C 186.4 94.8 186.4 94.8 186.4 94.8 Z M 186.1 99.8 C 185.7 99.8 186.1 99.1 186.1 99.8 C 186.1 99.8 186.1 99.8 186.1 99.8 Z M 181.6 97.7 C 181.9 96.6 182.1 98.6 181.8 98.7 C 181.8 98.5 181.3 97.9 181.6 97.7 C 181.6 97.7 181.6 97.7 181.6 97.7 Z M 183.8 97.5 C 183.7 97.4 183.6 97.0 184.0 97.1 C 184.1 97.3 183.9 97.6 183.8 97.5 C 183.8 97.5 183.8 97.5 183.8 97.5 Z M 182.2 102.8 C 182.1 102.7 182.1 102.3 182.4 102.3 C 182.5 102.6 182.4 102.9 182.2 102.8 C 182.2 102.8 182.2 102.8 182.2 102.8 Z M 182.6 96.5 C 182.7 96.2 183.0 96.1 183.1 96.4 C 182.9 96.6 182.8 97.3 182.6 96.5 C 182.6 96.5 182.6 96.5 182.6 96.5 Z M 181.3 94.8 C 181.5 93.9 182.1 95.7 181.9 95.7 C 181.7 96.0 181.0 95.3 181.3 94.8 C 181.3 94.8 181.3 94.8 181.3 94.8 Z M 183.1 95.9 C 183.3 95.2 183.4 96.3 183.1 95.9 C 183.1 95.9 183.1 95.9 183.1 95.9 Z M 185.1 102.1 C 185.3 101.4 185.3 102.4 185.1 102.1 C 185.1 102.1 185.1 102.1 185.1 102.1 Z M 186.2 98.2 C 186.4 97.5 186.5 98.5 186.2 98.2 C 186.2 98.2 186.2 98.2 186.2 98.2 Z M 182.4 99.6 C 182.3 100.9 181.4 99.8 182.4 99.6 C 182.4 99.6 182.4 99.6 182.4 99.6 Z M 181.3 92.7 C 181.2 94.0 180.3 92.9 181.3 92.7 C 181.3 92.7 181.3 92.7 181.3 92.7 Z M 181.6 71.8 C 181.4 70.6 180.2 75.2 181.6 73.4 C 182.9 72.9 182.8 76.0 181.6 75.2 C 181.5 76.2 181.4 76.2 182.0 76.7 C 181.1 76.8 180.6 79.0 181.1 79.8 C 181.9 80.2 181.2 78.3 182.0 79.6 C 182.3 82.3 182.9 79.4 183.9 80.4 C 183.9 80.5 183.4 80.6 183.7 80.8 C 184.6 80.9 185.3 79.4 186.0 80.1 C 185.9 79.7 186.9 77.7 186.1 78.5 C 185.2 78.8 187.1 76.4 185.7 76.6 C 186.4 75.9 185.4 75.2 186.2 74.6 C 186.4 74.1 185.6 74.1 185.4 74.2 C 184.8 74.2 187.0 73.6 185.8 72.8 C 186.1 72.8 186.0 70.6 185.5 72.2 C 185.6 71.7 185.9 69.2 184.6 70.6 C 184.0 72.3 183.2 68.7 183.1 70.8 C 183.0 72.4 183.3 72.7 182.6 71.5 C 182.6 71.2 182.5 69.3 181.9 70.9 C 182.1 71.2 182.0 72.0 181.6 71.8 C 181.6 71.8 181.6 71.8 181.6 71.8 Z M 183.5 71.4 C 183.6 72.3 183.0 71.5 183.5 71.4 C 183.5 71.4 183.5 71.4 183.5 71.4 Z M 186.5 74.7 C 186.6 75.6 186.0 74.8 186.5 74.7 C 186.5 74.7 186.5 74.7 186.5 74.7 Z M 181.3 74.6 C 181.7 75.1 180.3 75.2 181.3 74.6 C 181.3 74.6 181.3 74.6 181.3 74.6 Z M 185.4 73.2 C 185.4 73.3 185.3 73.0 185.2 72.9 C 185.3 72.9 185.4 73.1 185.4 73.2 C 185.4 73.2 185.4 73.2 185.4 73.2 Z M 181.3 76.2 C 181.9 77.5 180.2 76.4 181.3 76.2 C 181.3 76.2 181.3 76.2 181.3 76.2 Z M 182.6 78.9 C 183.9 79.1 182.3 80.3 182.6 78.9 C 182.6 78.9 182.6 78.9 182.6 78.9 Z M 185.6 77.0 C 185.3 76.8 185.8 76.8 185.6 77.0 C 185.6 77.0 185.6 77.0 185.6 77.0 Z M 185.8 71.0 C 185.5 70.8 185.9 70.8 185.8 71.0 C 185.8 71.0 185.8 71.0 185.8 71.0 Z M 185.5 78.7 C 185.0 78.6 185.7 78.2 185.5 78.7 C 185.5 78.7 185.5 78.7 185.5 78.7 Z M 181.8 74.9 C 180.7 73.6 183.4 73.3 181.8 74.9 C 181.8 74.9 181.8 74.9 181.8 74.9 Z M 181.7 72.6 C 181.5 71.8 182.4 72.8 182.2 73.2 C 182.1 73.1 181.8 72.8 181.7 72.6 C 181.7 72.6 181.7 72.6 181.7 72.6 Z M 181.9 76.2 C 181.4 75.3 182.2 75.4 181.9 76.2 C 181.9 76.2 181.9 76.2 181.9 76.2 Z M 181.3 74.0 C 181.5 73.6 181.5 74.4 181.3 74.0 C 181.3 74.0 181.3 74.0 181.3 74.0 Z M 180.8 77.9 C 180.9 77.4 180.9 78.2 180.8 77.9 C 180.8 77.9 180.8 77.9 180.8 77.9 Z M 181.1 71.6 C 181.3 71.2 181.3 71.9 181.1 71.6 C 181.1 71.6 181.1 71.6 181.1 71.6 Z M 181.5 77.5 C 182.0 77.6 183.1 76.4 182.2 78.6 C 181.8 79.0 181.1 78.1 181.5 77.5 C 181.5 77.5 181.5 77.5 181.5 77.5 Z M 182.2 91.7 C 180.7 93.5 183.4 93.1 183.9 93.2 C 184.6 93.4 185.1 93.2 185.6 92.8 C 187.3 92.4 183.8 92.2 185.5 92.0 C 187.8 91.5 183.5 91.4 185.9 91.2 C 186.5 91.3 186.0 90.6 185.9 90.7 C 187.0 90.3 185.0 89.8 184.8 89.8 C 185.1 89.6 187.2 89.6 185.6 88.9 C 185.1 88.3 187.2 88.1 185.7 88.2 C 187.4 87.8 185.3 87.9 185.8 87.5 C 186.7 87.2 184.4 87.5 186.1 87.0 C 184.8 86.8 187.1 87.2 186.1 85.9 C 185.9 86.5 185.0 85.2 185.9 85.5 C 186.9 85.9 185.5 84.8 186.1 84.2 C 185.6 84.0 184.4 83.3 185.7 83.4 C 187.3 82.8 184.8 82.8 186.1 82.5 C 186.6 82.3 185.4 82.2 185.5 82.0 C 186.5 81.8 185.9 81.6 186.1 80.8 C 186.6 79.0 183.6 80.5 183.3 79.9 C 182.8 79.8 179.6 80.7 182.0 80.3 C 181.4 80.5 183.9 81.9 181.2 81.2 C 182.3 81.7 180.1 81.1 181.4 82.2 C 183.3 80.7 182.1 83.9 181.2 82.4 C 180.7 82.7 180.8 83.3 181.3 82.9 C 182.9 82.7 180.5 83.9 182.5 83.3 C 182.0 84.2 183.8 84.0 182.5 84.2 C 180.3 84.4 183.1 84.2 182.5 84.7 C 182.4 85.7 179.9 84.9 181.6 85.6 C 180.5 86.6 182.5 85.8 182.8 86.2 C 184.4 86.3 181.6 87.3 181.4 86.4 C 182.3 86.9 180.7 86.5 181.7 87.0 C 183.1 86.6 180.2 87.6 181.3 87.5 C 181.7 87.9 182.5 87.7 182.6 87.8 C 182.6 88.5 181.2 88.3 182.2 88.4 C 182.8 88.6 180.9 88.9 181.4 89.0 C 181.5 88.3 182.9 89.5 182.1 89.6 C 182.0 89.2 180.3 89.8 181.4 90.1 C 184.5 89.7 180.6 90.6 181.7 90.9 C 183.4 90.7 181.9 92.4 181.1 91.7 C 181.2 91.8 182.2 91.7 182.2 91.7 M 181.7 89.2 C 181.8 88.6 182.0 89.7 181.7 89.2 M 181.2 89.2 C 181.8 88.9 180.8 89.7 181.0 89.1 C 181.0 89.1 181.2 89.2 181.2 89.2 M 181.1 86.9 C 181.6 87.0 180.9 87.2 181.1 86.9 M 182.2 86.5 C 182.7 86.1 182.3 87.0 182.2 86.5 M 181.9 81.4 C 184.4 81.9 180.4 82.0 181.9 81.4 M 181.3 84.8 C 181.7 85.4 180.3 84.5 181.3 84.8 M 182.0 84.9 C 182.4 85.2 181.4 85.0 182.0 84.9 M 181.9 82.4 C 181.9 82.3 181.9 82.3 181.9 82.4 C 181.9 82.4 181.9 82.4 181.9 82.4 Z M 181.9 80.9 C 181.9 80.9 181.9 80.9 181.9 80.9 C 181.9 80.9 181.9 80.9 181.9 80.9 Z M 182.1 83.8 C 181.5 84.3 181.9 83.1 182.1 83.8 C 182.1 83.8 182.1 83.8 182.1 83.8 Z M 185.8 81.6 C 185.9 81.6 185.9 81.6 185.8 81.6 C 185.8 81.6 185.8 81.6 185.8 81.6 Z M 182.8 89.6 C 182.9 89.6 182.9 89.6 182.8 89.6 C 182.8 89.6 182.8 89.6 182.8 89.6 Z M 181.9 91.3 C 182.2 91.3 181.6 91.6 181.9 91.3 C 181.9 91.3 181.9 91.3 181.9 91.3 Z M 184.8 92.7 C 184.8 92.7 184.8 92.7 184.8 92.7 C 184.8 92.7 184.8 92.7 184.8 92.7 Z M 184.2 90.2 C 184.2 90.2 184.2 90.2 184.2 90.2 C 184.2 90.2 184.2 90.2 184.2 90.2 Z M 182.3 89.9 C 180.9 90.2 182.6 89.3 182.3 89.9 C 182.3 89.9 182.3 89.9 182.3 89.9 Z M 185.7 84.4 C 185.1 84.4 185.9 84.0 185.7 84.4 C 185.7 84.4 185.7 84.4 185.7 84.4 Z M 182.8 86.4 C 182.4 86.3 182.9 86.1 182.8 86.4 C 182.8 86.4 182.8 86.4 182.8 86.4 Z M 180.9 87.3 C 180.5 87.3 181.0 87.1 180.9 87.3 C 180.9 87.3 180.9 87.3 180.9 87.3 Z M 181.5 91.3 C 181.4 91.2 181.4 91.2 181.5 91.3 C 181.5 91.3 181.5 91.3 181.5 91.3 Z M 182.5 90.7 C 181.2 91.1 183.3 90.0 182.5 90.7 C 182.5 90.7 182.5 90.7 182.5 90.7 Z M 182.9 91.4 C 183.4 91.1 182.7 91.9 182.9 91.4 M 184.9 91.0 C 184.4 90.4 187.3 91.4 184.9 91.0 C 184.9 91.0 184.9 91.0 184.9 91.0 Z M 185.5 88.3 C 185.5 88.3 185.5 88.3 185.5 88.3 C 185.5 88.3 185.5 88.3 185.5 88.3 Z M 181.6 88.6 C 181.7 88.2 181.9 88.9 181.6 88.6 C 181.6 88.6 181.6 88.6 181.6 88.6 Z M 181.3 92.6 C 181.4 92.1 181.6 92.9 181.3 92.6 C 181.3 92.6 181.3 92.6 181.3 92.6 Z M 184.2 86.8 C 184.0 86.1 184.9 87.3 184.2 86.8 C 184.2 86.8 184.2 86.8 184.2 86.8 Z M 182.6 84.1 C 182.7 84.1 182.7 84.1 182.6 84.1 C 182.6 84.1 182.6 84.1 182.6 84.1 Z M 182.1 83.6 C 182.1 83.6 182.1 83.6 182.1 83.6 C 182.1 83.6 182.1 83.6 182.1 83.6 Z M 183.5 81.5 C 183.5 81.4 183.5 81.4 183.5 81.5 C 183.5 81.5 183.5 81.5 183.5 81.5 Z M 181.5 83.1 C 181.5 83.1 181.5 83.1 181.5 83.1 C 181.5 83.1 181.5 83.1 181.5 83.1 Z M 181.8 81.7 C 181.9 81.6 181.9 81.6 181.8 81.7 C 181.8 81.7 181.8 81.7 181.8 81.7 Z M 180.7 81.9 C 180.7 81.8 180.7 81.8 180.7 81.9 C 180.7 81.9 180.7 81.9 180.7 81.9 Z M 186.5 85.1 C 186.5 85.1 186.5 85.1 186.5 85.1 C 186.5 85.1 186.5 85.1 186.5 85.1 Z M 181.0 90.5 C 181.1 90.4 181.1 90.4 181.0 90.5 C 181.0 90.5 181.0 90.5 181.0 90.5 Z M 182.3 81.8 C 182.4 81.8 182.4 81.8 182.3 81.8 C 182.3 81.8 182.3 81.8 182.3 81.8 Z M 183.4 85.4 C 184.5 85.3 181.9 85.7 183.3 85.3 C 183.4 85.3 183.2 85.4 183.4 85.4 M 185.2 84.9 C 185.3 84.9 185.3 84.9 185.2 84.9 C 185.2 84.9 185.2 84.9 185.2 84.9 Z M 185.9 86.5 C 186.0 86.5 186.0 86.5 185.9 86.5 C 185.9 86.5 185.9 86.5 185.9 86.5 Z M 181.2 83.4 C 180.6 83.4 181.7 83.0 181.3 83.4 M 185.4 81.5 C 184.8 81.5 185.9 81.1 185.5 81.5 M 181.7 93.1 C 182.2 93.1 181.5 93.4 181.7 93.1 M 186.5 86.9 C 187.0 86.9 186.3 87.2 186.5 86.9 M 185.1 86.1 C 184.5 86.2 185.6 85.7 185.1 86.2 M 185.4 82.6 C 185.4 82.5 185.4 82.5 185.4 82.6 C 185.4 82.6 185.4 82.6 185.4 82.6 Z M 181.7 87.9 C 181.7 87.9 181.7 87.9 181.7 87.9 C 181.7 87.9 181.7 87.9 181.7 87.9 Z M 183.1 85.9 C 182.2 86.2 183.6 85.6 183.1 85.9 M 183.2 88.5 C 182.2 88.9 183.6 87.9 183.2 88.5 M 185.7 80.6 C 184.4 81.0 186.4 80.3 185.7 80.6 M 182.5 82.8 C 181.2 83.2 183.2 82.5 182.5 82.8 M 182.3 87.5 C 181.6 87.6 182.7 87.1 182.3 87.5 M 181.6 92.0 C 181.5 92.5 181.1 91.5 181.6 92.0 M 185.4 83.6 C 185.5 83.6 185.5 83.6 185.4 83.6 C 185.4 83.6 185.4 83.6 185.4 83.6 Z M 186.6 90.7 C 186.6 90.7 186.6 90.7 186.6 90.7 C 186.6 90.7 186.6 90.7 186.6 90.7 Z M 181.5 80.0 C 181.5 80.0 181.5 80.0 181.5 80.0 C 181.5 80.0 181.5 80.0 181.5 80.0 Z M 183.1 83.1 C 183.1 83.0 183.1 83.0 183.1 83.1 C 183.1 83.1 183.1 83.1 183.1 83.1 Z M 181.3 80.9 C 181.4 80.9 181.4 80.9 181.3 80.9 C 181.3 80.9 181.3 80.9 181.3 80.9 Z M 184.1 84.4 C 184.1 84.4 184.1 84.4 184.1 84.4 C 184.1 84.4 184.1 84.4 184.1 84.4 Z M 180.8 84.7 C 180.8 84.7 180.8 84.7 180.8 84.7 C 180.8 84.7 180.8 84.7 180.8 84.7 Z M 182.2 86.2 C 182.2 86.2 182.2 86.2 182.2 86.2 C 182.2 86.2 182.2 86.2 182.2 86.2 Z M 181.0 84.0 C 180.8 83.1 182.1 84.5 181.0 84.0 C 181.0 84.0 181.0 84.0 181.0 84.0 Z M 184.3 85.6 C 184.4 85.6 184.4 85.6 184.3 85.6 C 184.3 85.6 184.3 85.6 184.3 85.6 Z M 182.0 85.7 C 181.0 85.1 183.6 85.4 182.0 85.7 M 181.2 88.2 C 180.7 88.0 182.0 88.1 181.2 88.2 M 185.5 89.2 C 185.6 89.2 185.6 89.2 185.5 89.2 C 185.5 89.2 185.5 89.2 185.5 89.2 Z M 185.2 88.9 C 185.2 88.9 185.2 88.9 185.2 88.9 C 185.2 88.9 185.2 88.9 185.2 88.9 Z M 181.0 88.8 C 181.0 88.8 181.0 88.8 181.0 88.8 C 181.0 88.8 181.0 88.8 181.0 88.8 Z M 186.4 88.9 C 186.5 88.9 186.5 88.9 186.4 88.9 C 186.4 88.9 186.4 88.9 186.4 88.9 Z M 180.8 85.0 C 180.9 85.0 180.9 85.0 180.8 85.0 C 180.8 85.0 180.8 85.0 180.8 85.0 Z M 180.8 80.5 C 180.8 80.4 180.8 80.4 180.8 80.5 C 180.8 80.5 180.8 80.5 180.8 80.5 Z M 185.1 91.9 C 185.1 91.9 185.1 91.9 185.1 91.9 C 185.1 91.9 185.1 91.9 185.1 91.9 Z M 182.2 84.6 C 182.2 84.6 182.2 84.6 182.2 84.6 C 182.2 84.6 182.2 84.6 182.2 84.6 Z M 185.3 89.8 C 185.4 89.8 185.4 89.8 185.3 89.8 C 185.3 89.8 185.3 89.8 185.3 89.8 Z M 181.9 84.9 C 181.9 84.9 181.9 84.9 181.9 84.9 C 181.9 84.9 181.9 84.9 181.9 84.9 Z M 185.7 83.8 C 185.7 83.8 185.7 83.8 185.7 83.8 C 185.7 83.8 185.7 83.8 185.7 83.8 Z M 186.5 82.8 C 186.5 82.8 186.5 82.8 186.5 82.8 C 186.5 82.8 186.5 82.8 186.5 82.8 Z M 183.4 83.9 C 183.4 83.8 183.4 83.8 183.4 83.9 C 183.4 83.9 183.4 83.9 183.4 83.9 Z M 183.9 90.2 C 182.8 92.0 183.4 88.7 183.9 90.2 M 183.7 83.5 C 183.4 84.8 182.4 82.5 183.7 83.5 C 183.3 83.4 183.6 83.5 183.7 83.5 " fill="#EB5C56"></path><path d="M 180.3 72.6 C 180.3 72.5 180.2 72.1 180.3 72.0 C 179.8 71.9 179.2 72.6 178.6 71.9 C 178.3 71.7 177.5 69.9 177.1 70.3 C 177.3 70.8 177.6 70.4 177.3 71.0 C 177.0 71.5 176.4 70.6 176.2 70.4 C 176.0 70.2 175.7 70.4 175.5 70.2 C 175.0 69.8 174.3 69.5 173.9 68.9 C 173.8 68.7 174.7 66.7 173.5 67.2 C 173.0 67.4 172.7 67.6 172.6 66.8 C 172.5 66.5 172.6 66.2 172.9 66.1 C 172.7 65.7 172.5 65.4 172.5 64.9 C 172.3 65.1 172.3 65.1 172.1 65.2 C 172.0 64.3 171.9 63.6 171.8 62.7 C 171.7 62.1 171.8 61.8 171.2 61.7 C 171.1 61.3 171.4 61.1 171.6 60.8 C 171.6 60.2 171.9 60.1 171.5 59.7 C 171.2 59.5 171.1 58.9 171.6 58.8 C 172.2 58.7 172.0 57.3 172.3 56.8 C 172.2 56.9 172.0 57.0 171.9 57.0 C 172.1 56.4 172.3 56.0 172.1 55.3 C 171.9 54.7 173.0 54.5 173.5 54.5 C 173.8 53.9 174.1 53.8 173.6 53.2 C 173.9 52.6 176.0 52.9 175.3 51.9 C 175.3 52.0 175.2 52.1 175.1 52.2 C 174.7 51.8 174.3 51.1 175.1 51.4 C 175.9 51.7 176.0 50.1 176.7 49.8 C 176.9 50.0 176.4 51.2 176.4 51.5 C 177.0 51.1 177.4 50.8 177.6 50.4 C 178.2 50.2 177.8 49.4 178.3 49.5 C 178.6 49.3 178.9 49.0 179.3 48.9 C 179.7 48.8 180.3 48.3 180.7 48.5 C 181.2 48.8 181.0 49.7 181.8 48.9 C 182.5 48.2 183.3 48.1 184.4 48.2 C 184.4 48.4 183.9 48.7 184.2 48.9 C 184.5 49.2 185.0 49.3 185.4 49.4 C 185.5 49.2 185.4 49.1 185.1 49.0 C 185.7 49.1 186.2 49.2 186.7 49.4 C 187.3 49.1 186.2 48.8 186.2 48.5 C 186.1 47.7 187.4 49.1 187.4 49.1 C 187.6 49.2 188.4 49.3 188.7 49.5 C 188.9 49.5 189.9 50.0 189.8 50.1 C 189.5 50.7 190.5 51.4 190.8 50.7 C 191.3 51.0 191.6 51.1 191.9 51.9 C 192.1 52.8 192.2 53.0 192.5 53.8 C 193.2 53.7 193.8 53.9 194.3 54.7 C 194.4 54.8 194.8 55.3 194.5 55.4 C 193.9 55.4 194.3 55.9 194.6 56.2 C 194.8 56.6 195.2 56.8 195.4 57.2 C 195.4 57.4 195.2 57.7 195.2 58.0 C 195.4 58.6 195.4 58.8 195.3 59.3 C 195.2 59.8 195.8 60.0 196.1 60.3 C 195.4 60.6 194.9 61.5 195.0 62.1 C 195.1 62.6 195.7 62.5 195.9 63.0 C 196.0 63.3 194.7 64.4 194.5 64.2 C 194.5 64.6 194.4 64.9 194.3 65.3 C 194.1 65.6 194.4 65.7 194.4 65.8 C 194.3 66.3 193.9 67.4 193.5 67.7 C 192.9 68.0 192.9 67.6 192.5 68.1 C 192.2 68.6 191.9 68.6 192.2 69.0 C 192.1 69.2 190.5 69.9 190.6 70.2 C 190.7 70.2 190.8 70.1 190.9 70.0 L 191.0 70.2 C 190.6 70.4 190.8 70.7 190.6 70.9 C 190.4 71.1 190.1 71.3 189.8 71.4 C 189.6 71.5 189.4 71.1 189.2 71.2 C 188.8 71.3 188.7 71.7 188.4 71.8 C 188.3 71.9 185.9 72.7 185.4 72.9 L 180.3 72.6 Z M 179.9 49.7 C 179.6 49.6 179.2 49.8 179.0 50.0 L 179.9 49.7 Z M 179.5 50.8 C 179.7 50.7 179.8 50.7 179.7 50.8 C 179.6 50.8 179.6 50.9 179.7 50.9 C 179.7 50.8 179.7 50.8 179.7 50.8 C 179.8 50.7 180.0 50.5 180.0 50.5 C 179.8 50.6 179.7 50.7 179.5 50.8 Z M 184.1 50.8 C 184.0 50.6 182.9 50.3 182.8 50.6 L 183.1 50.5 C 183.3 50.6 184.0 51.0 184.1 50.8 Z M 180.7 51.1 C 180.9 51.0 181.0 50.9 181.0 50.8 C 181.0 50.8 180.4 51.1 180.7 51.1 Z M 183.6 70.1 C 183.5 70.0 183.4 69.9 183.3 69.9 C 183.6 70.4 182.9 70.4 182.7 70.3 C 182.7 70.5 182.7 70.8 182.8 71.0 C 182.8 70.9 182.9 70.9 182.9 70.9 C 182.9 70.9 182.9 70.9 183.0 70.9 C 183.2 71.0 183.5 70.8 183.6 70.6 C 183.4 70.4 183.2 70.2 183.6 70.1 Z M 184.5 69.4 C 184.2 69.5 183.6 69.6 183.9 68.8 C 183.9 68.8 183.9 68.8 183.9 68.7 C 183.7 68.8 183.5 68.9 183.4 69.1 C 183.3 69.4 183.5 69.7 183.8 69.8 C 183.8 69.8 183.8 69.8 183.8 69.8 C 183.8 69.8 183.8 69.8 183.8 69.8 C 183.9 69.8 183.9 69.9 184.0 69.9 C 184.0 69.9 184.1 69.9 184.2 70.0 C 184.3 69.9 184.4 69.7 184.5 69.4 Z M 181.5 69.5 C 181.5 69.4 182.8 69.8 183.2 69.8 C 182.9 69.8 182.7 69.6 182.5 69.5 C 182.2 69.5 181.5 69.1 181.5 69.5 Z M 182.5 68.6 C 182.6 68.6 182.7 68.5 182.8 68.6 C 182.9 68.6 183.5 69.2 183.2 69.1 C 183.0 69.1 182.8 69.1 182.6 69.1 C 182.6 69.2 182.6 69.2 182.6 69.3 C 182.9 69.5 183.5 69.4 183.5 68.9 C 183.5 68.3 182.7 68.2 182.5 68.6 Z M 184.3 68.4 C 184.3 68.4 184.3 68.5 184.3 68.5 C 184.5 68.4 184.7 68.4 184.9 68.4 C 184.9 68.4 184.9 68.3 184.8 68.3 C 184.7 68.3 184.5 68.3 184.3 68.3 C 184.3 68.4 184.3 68.4 184.3 68.4 Z M 182.8 72.1 C 182.8 72.1 182.7 72.1 182.7 72.1 C 182.6 72.1 182.5 72.1 182.5 72.0 C 182.4 72.3 182.3 72.6 182.5 72.8 C 183.0 72.8 182.9 72.4 182.8 72.1 Z M 179.5 70.0 C 179.2 69.7 178.9 69.7 178.5 69.8 C 178.7 70.2 179.1 70.1 179.5 70.0 Z M 177.2 69.8 C 177.4 69.9 177.6 70.0 177.8 70.0 C 178.0 70.2 177.6 69.1 177.2 69.8 Z M 180.5 69.5 C 180.3 68.9 180.1 69.2 179.7 69.1 C 179.9 69.3 180.2 69.5 180.5 69.5 Z M 177.6 69.2 L 177.3 68.9 C 177.2 68.8 177.1 68.7 176.9 68.7 C 176.9 68.7 177.6 69.2 177.6 69.2 Z M 175.2 68.1 C 175.3 68.3 175.4 68.5 175.6 68.6 C 176.0 68.2 175.5 67.7 175.1 67.7 C 175.1 67.8 175.1 68.0 175.2 68.1 Z M 176.8 67.7 C 176.8 67.8 176.9 67.7 176.8 67.9 C 176.9 67.9 177.0 68.0 177.0 68.0 C 177.0 67.9 176.9 67.4 176.8 67.7 Z M 176.3 67.2 L 176.0 67.1 C 176.0 67.3 176.1 67.4 176.3 67.2 Z M 177.2 67.0 C 177.2 67.1 177.3 67.2 177.4 67.2 C 177.0 67.3 177.9 68.0 177.9 67.4 C 177.9 67.3 177.4 66.9 177.2 67.0 Z M 176.4 66.2 C 176.5 66.3 176.8 66.8 177.0 66.4 L 176.9 66.4 C 176.7 66.3 176.7 66.1 176.4 66.2 Z M 175.2 66.1 C 175.4 66.2 175.3 65.3 175.2 65.2 C 175.1 65.4 175.1 65.5 175.2 65.6 C 175.1 65.8 175.1 66.0 175.2 66.1 Z M 174.4 65.5 C 174.3 65.2 174.3 65.0 174.6 65.4 C 174.6 65.2 174.6 65.0 174.6 64.9 C 174.4 64.9 174.2 65.4 173.8 65.3 C 173.8 65.4 173.8 65.5 173.8 65.7 L 174.4 65.5 Z M 172.9 64.8 C 173.0 65.0 173.0 65.1 173.1 65.3 C 173.7 66.1 173.2 64.5 172.9 64.8 Z M 175.1 64.5 C 175.3 64.6 175.4 65.0 175.6 65.2 C 175.9 64.7 175.7 65.0 175.8 64.5 C 175.7 64.5 175.1 64.1 175.1 64.5 Z M 176.9 64.2 C 177.1 64.1 177.1 64.0 177.0 63.9 C 176.9 64.2 176.6 63.5 176.9 64.2 Z M 173.4 63.1 C 173.4 63.0 173.4 63.0 173.4 62.9 C 173.3 62.7 173.2 62.5 173.1 62.3 C 173.2 62.6 173.2 62.8 173.4 63.1 Z M 175.6 62.2 L 175.5 61.9 C 175.0 62.1 175.1 62.2 175.6 62.2 Z M 174.2 61.6 C 174.2 61.9 174.3 62.0 174.6 62.0 C 174.4 61.9 174.4 61.7 174.2 61.6 Z M 173.2 62.0 C 173.7 62.0 173.5 61.6 173.4 61.4 C 173.1 61.4 173.0 61.8 173.2 62.0 Z M 172.1 60.5 L 172.3 60.6 C 172.2 60.5 172.2 60.4 172.2 60.3 L 172.1 60.5 Z M 172.6 59.4 C 172.6 59.6 172.7 59.9 172.7 60.2 L 172.8 60.6 C 173.1 60.1 172.9 59.8 173.0 59.5 C 173.0 59.3 172.8 59.2 172.6 59.4 Z M 174.1 60.1 C 174.2 60.0 173.7 60.4 174.1 60.4 C 174.3 60.3 174.3 60.2 174.1 60.1 Z M 174.6 60.2 C 174.9 59.8 175.0 59.6 174.8 59.2 C 174.6 59.5 174.4 59.9 174.6 60.2 Z M 173.3 59.4 C 173.4 59.3 173.4 59.1 173.4 58.9 C 173.2 59.0 173.1 59.2 173.3 59.4 Z M 176.2 59.6 L 176.7 59.7 C 176.7 59.3 176.8 59.1 176.3 58.7 C 176.3 59.0 176.3 59.3 176.2 59.6 Z M 175.0 58.1 L 175.0 58.2 C 175.2 58.1 175.2 57.9 175.0 57.7 L 175.0 58.1 Z M 176.2 57.6 C 176.3 57.6 176.6 57.3 176.1 57.3 C 176.1 57.3 176.1 57.6 176.2 57.6 Z M 173.8 56.5 C 174.1 56.6 174.3 56.0 173.9 55.9 C 173.8 56.0 173.9 56.4 173.8 56.5 Z M 177.3 55.9 C 177.5 56.0 177.6 56.0 177.6 55.8 C 177.5 55.7 177.5 55.7 177.4 55.8 L 177.3 55.9 Z M 176.8 55.0 C 176.4 54.9 176.2 55.6 176.1 55.7 C 176.4 55.7 176.8 55.2 176.8 55.0 Z M 178.9 55.1 C 178.8 55.1 178.7 55.2 178.7 55.2 C 178.9 55.3 179.0 55.4 178.9 55.1 Z M 174.1 55.5 L 174.1 55.7 C 174.3 55.7 174.4 55.7 174.5 55.6 C 174.4 55.5 174.3 55.5 174.1 55.5 Z M 173.9 54.6 C 174.0 54.6 174.0 54.7 174.1 54.8 C 174.2 54.5 174.1 54.5 173.9 54.6 Z M 174.7 54.4 C 174.7 54.6 174.7 54.8 174.5 54.9 C 174.2 55.7 176.3 55.3 175.3 54.8 C 175.5 54.4 175.9 54.2 176.0 53.8 C 175.3 53.6 175.8 55.2 174.7 54.4 Z M 179.4 54.7 L 179.3 54.7 C 179.4 54.7 179.4 54.7 179.4 54.7 Z M 178.1 54.5 C 178.2 54.6 178.5 54.1 178.5 54.1 C 178.3 54.0 178.1 54.3 178.1 54.5 Z M 177.6 54.2 C 177.8 54.4 178.1 54.4 178.1 54.1 C 177.9 54.0 177.8 54.1 177.6 54.2 Z M 184.8 53.7 L 185.0 53.7 C 185.0 53.7 184.7 53.5 184.8 53.7 Z M 178.7 53.2 C 178.2 53.2 179.3 54.0 179.2 53.1 C 179.0 53.3 179.0 53.2 178.7 53.2 Z M 187.3 52.9 C 187.3 52.9 187.7 52.9 187.7 52.9 C 187.7 52.8 187.4 52.6 187.3 52.9 Z M 186.4 52.6 C 186.0 52.5 185.8 52.5 185.4 52.4 C 185.6 52.9 186.0 52.7 186.4 52.6 Z M 183.1 52.2 C 183.0 52.2 182.8 52.2 182.7 52.2 L 182.8 51.9 C 183.1 51.8 182.5 51.8 182.4 51.9 C 182.4 51.8 182.4 51.8 182.4 51.8 C 182.3 51.9 182.3 51.9 182.4 51.9 C 182.5 52.2 182.9 52.5 183.1 52.2 Z M 186.1 51.8 C 186.0 52.2 186.7 51.9 186.7 51.8 C 186.6 51.8 186.1 51.8 186.1 51.8 Z M 187.3 51.3 L 187.3 51.4 C 187.6 51.7 187.5 51.5 187.3 51.3 Z M 188.2 51.8 C 188.0 51.7 187.9 52.0 188.1 52.1 L 188.2 52.2 C 188.3 52.0 188.3 51.9 188.2 51.8 Z M 183.5 52.2 C 183.7 52.5 183.8 52.5 183.8 52.3 C 183.7 52.2 183.7 52.1 183.5 52.2 Z M 190.4 52.5 L 190.2 52.3 L 190.0 52.3 C 190.0 52.3 190.3 52.5 190.4 52.5 Z M 190.1 52.4 C 189.9 52.5 189.7 52.6 189.6 52.8 C 189.8 52.8 190.2 52.8 189.9 53.1 C 190.6 53.5 190.7 52.6 190.1 52.4 Z M 187.7 53.3 C 187.6 53.1 187.4 53.4 187.3 53.6 C 187.6 53.7 187.6 53.5 187.7 53.3 Z M 188.8 53.8 C 188.6 53.9 188.4 53.8 188.2 53.7 C 188.1 54.0 188.6 54.0 188.8 53.8 Z M 191.8 54.6 C 191.7 54.7 191.3 55.0 191.3 55.0 C 191.2 55.1 191.7 55.3 191.9 55.4 C 192.0 55.2 192.3 54.5 191.8 54.6 Z M 190.9 55.3 C 190.0 55.6 190.3 54.9 189.9 54.5 C 189.4 55.0 189.7 56.0 190.2 55.6 C 190.5 55.6 190.8 55.6 190.9 55.3 Z M 192.4 55.5 C 192.0 55.8 192.4 56.1 192.6 56.3 C 192.9 56.7 193.0 55.7 192.4 55.5 Z M 191.2 55.8 C 190.9 55.6 190.9 56.1 190.6 56.0 C 190.6 56.2 190.9 56.5 191.0 56.5 C 191.0 56.4 191.1 56.0 191.2 55.8 Z M 188.7 55.9 L 188.8 56.0 C 188.9 55.9 188.9 55.9 188.7 55.9 Z M 190.4 57.2 C 190.4 57.1 190.4 57.0 190.3 56.9 C 190.0 56.9 190.3 57.2 190.4 57.2 Z M 191.7 57.8 C 191.7 57.5 191.5 57.2 191.3 57.2 C 191.4 57.4 191.5 57.6 191.7 57.8 Z M 192.9 57.1 C 192.7 57.3 192.9 57.8 193.1 58.0 C 193.0 57.8 193.1 57.0 192.9 57.1 Z M 191.9 58.5 C 191.6 58.9 191.4 59.7 191.9 59.9 C 192.0 60.3 192.2 59.6 192.1 59.5 C 192.1 59.2 192.5 58.7 191.9 58.5 Z M 192.4 59.1 C 192.3 59.2 192.3 59.3 192.3 59.4 C 192.7 59.0 192.4 59.0 192.4 59.1 Z M 194.0 59.4 C 193.7 59.3 193.3 59.6 193.5 59.9 C 194.0 60.2 194.1 59.9 194.0 59.4 Z M 193.0 60.0 C 193.0 59.9 193.0 59.5 193.0 59.5 C 192.8 59.8 192.9 59.9 192.8 60.2 C 192.9 59.9 192.9 59.9 193.0 60.0 Z M 192.4 61.1 L 192.4 61.1 C 192.4 61.0 192.4 61.0 192.4 60.9 L 192.4 61.1 C 192.4 61.1 192.4 61.2 192.4 61.1 Z M 193.8 61.9 C 193.8 61.8 193.5 61.5 193.3 61.5 C 193.2 61.7 193.2 61.9 193.1 62.1 C 193.4 62.1 193.6 62.1 193.8 61.9 Z M 191.2 61.8 C 191.4 61.7 191.4 61.6 191.5 61.5 C 191.3 61.5 191.2 61.6 191.2 61.8 Z M 192.2 62.5 C 192.3 62.0 192.5 61.8 191.7 61.6 C 191.5 61.9 191.5 62.3 191.5 62.6 C 191.6 62.8 191.8 63.0 191.9 63.1 C 192.2 63.1 192.2 62.7 192.2 62.5 Z M 193.7 63.6 C 192.9 63.3 193.1 64.9 193.7 63.6 L 193.7 63.6 Z M 190.9 63.8 C 190.9 63.9 190.9 64.0 190.9 64.1 C 190.9 64.0 190.9 63.9 190.9 63.8 Z M 192.3 64.2 C 192.0 64.2 191.6 64.3 191.4 64.6 C 191.8 64.5 192.7 64.8 192.3 64.2 Z M 192.9 65.7 C 193.2 65.5 192.7 64.9 192.8 64.9 C 192.6 65.3 192.3 65.5 192.5 66.1 C 192.7 65.9 192.8 66.1 192.9 65.7 Z M 191.2 64.8 C 190.7 65.1 190.5 65.5 190.1 65.8 C 190.1 66.0 190.2 66.1 190.3 66.3 C 190.9 66.0 191.0 65.3 191.2 64.8 Z M 189.5 65.3 C 189.6 65.2 189.7 65.0 189.6 64.8 C 189.5 64.8 189.5 65.3 189.5 65.3 Z M 190.9 66.3 L 190.6 66.5 C 190.7 66.6 190.9 66.4 190.9 66.3 Z M 189.3 66.6 C 189.5 66.4 189.6 66.6 189.8 66.5 C 189.6 66.2 189.5 66.4 189.4 66.4 C 189.2 66.4 188.6 67.1 189.2 67.4 C 189.6 67.6 190.0 66.5 189.3 66.6 Z M 185.6 67.4 C 185.8 67.3 185.8 66.9 186.0 66.9 C 186.1 66.9 186.4 66.9 186.5 66.9 C 186.9 67.0 186.8 67.3 187.1 67.0 C 187.2 67.0 187.3 66.9 187.3 66.9 C 187.0 66.5 187.2 66.3 187.5 66.1 C 187.8 65.9 188.3 65.9 188.5 65.4 C 188.7 64.9 188.9 65.5 189.0 65.3 C 189.2 65.1 189.3 64.9 189.5 64.8 C 189.2 64.6 188.8 64.6 188.8 64.2 C 189.2 64.1 189.2 63.5 189.6 63.3 C 190.2 63.0 189.7 62.5 189.9 62.0 C 190.0 61.7 190.2 61.4 189.8 61.2 C 190.0 61.2 190.1 60.6 190.1 60.5 C 190.4 60.0 189.8 59.4 189.7 59.1 C 189.7 58.9 189.8 58.7 189.8 58.5 C 189.8 58.1 189.5 58.2 189.3 58.0 C 189.3 57.9 188.5 56.9 188.6 56.9 C 188.8 56.7 188.3 56.3 188.2 56.2 C 188.1 56.1 187.9 56.0 187.8 55.8 C 187.7 55.6 187.3 55.8 187.2 55.6 C 187.2 55.3 186.5 54.8 186.5 54.8 C 186.0 55.3 186.1 54.2 185.9 54.1 C 185.8 54.1 185.7 54.2 185.6 54.3 C 185.3 54.5 185.3 54.1 185.0 54.3 C 184.8 54.6 184.6 54.9 184.6 54.2 C 184.3 54.5 184.4 54.0 184.2 53.9 C 184.1 53.8 183.7 54.1 183.6 54.1 C 183.4 54.1 183.3 53.8 183.0 53.9 C 182.8 54.0 182.9 54.5 182.7 54.1 C 182.3 53.5 182.3 54.2 182.0 54.3 C 181.9 54.8 181.3 53.8 181.3 54.5 C 181.2 54.3 180.9 53.9 181.0 54.5 C 180.4 53.7 180.8 55.0 180.7 54.9 C 180.5 54.8 180.4 54.7 180.1 54.7 C 179.8 54.6 180.2 55.1 179.7 55.0 C 179.3 54.8 179.1 56.6 178.3 55.5 C 178.2 55.7 178.1 55.9 177.9 56.0 C 178.2 56.0 178.6 55.6 178.8 56.2 C 179.0 56.5 178.8 56.7 178.4 56.4 C 178.3 56.3 177.2 56.7 177.3 57.1 C 177.3 57.2 177.3 57.3 177.4 57.4 C 177.6 57.8 177.4 57.7 177.4 58.0 C 177.5 58.3 176.9 58.1 177.2 58.3 C 176.5 57.9 176.8 58.6 177.1 58.7 C 176.8 58.6 177.1 58.7 177.1 58.8 C 177.2 58.9 176.6 58.8 176.7 58.9 C 176.7 59.1 177.2 59.3 177.2 59.4 C 177.2 59.4 176.9 59.4 176.9 59.4 C 176.9 59.4 177.1 59.7 177.1 59.7 C 177.1 59.9 176.8 60.0 176.8 60.3 C 176.7 60.5 176.5 61.5 176.1 61.5 C 176.2 62.0 176.2 62.5 176.9 62.8 C 177.2 62.9 177.7 63.5 177.8 63.7 C 177.5 63.9 177.6 63.5 177.3 63.6 C 177.1 63.7 177.7 63.9 177.4 64.3 C 177.1 64.7 177.2 64.8 177.5 65.0 C 177.6 65.3 177.4 65.1 177.2 65.3 C 177.2 65.3 177.4 65.9 177.6 65.6 C 177.7 65.4 177.7 64.6 178.0 64.8 C 178.4 65.1 178.8 65.5 178.9 66.0 C 179.2 66.1 179.4 66.7 179.8 66.6 C 179.9 66.6 180.2 66.5 180.2 66.5 C 180.3 66.6 180.4 66.9 180.5 67.0 C 180.8 67.1 181.0 67.1 181.2 67.1 C 181.5 67.1 182.2 67.6 182.5 67.3 C 182.3 67.7 182.2 67.8 182.2 67.8 C 182.2 67.8 182.3 67.8 182.3 67.8 C 182.3 67.9 182.3 67.9 182.3 67.9 C 182.3 67.9 182.4 68.0 182.5 68.1 C 182.4 68.2 182.3 68.2 182.2 68.2 C 182.2 68.2 182.2 68.3 182.2 68.3 C 182.5 68.5 183.0 68.3 182.9 67.9 C 183.1 67.9 183.2 67.9 183.4 67.9 C 183.4 68.1 183.3 68.3 183.3 68.3 C 183.4 68.2 183.5 68.0 183.5 67.9 C 183.6 67.9 183.7 67.9 183.7 67.9 C 183.8 67.8 183.8 67.7 183.9 67.6 C 184.1 67.5 184.4 67.6 184.6 67.6 C 184.3 67.4 184.8 67.4 184.9 67.4 C 185.2 67.6 185.3 67.5 185.6 67.4 Z M 188.4 67.5 C 188.5 67.8 188.7 67.9 188.9 68.0 C 189.1 67.7 188.6 67.5 188.4 67.5 Z M 191.0 68.0 C 191.0 68.2 191.6 68.2 191.5 67.9 C 191.4 67.9 191.1 67.9 191.0 68.0 Z M 192.6 67.8 C 192.5 67.7 191.8 67.8 191.9 68.1 C 192.0 68.3 192.6 67.8 192.6 67.8 Z M 190.7 68.7 C 190.8 68.6 191.0 68.4 190.8 68.2 C 190.7 68.3 190.5 68.7 190.5 68.9 L 190.7 68.7 Z M 188.8 68.9 C 188.6 68.6 188.5 68.7 188.3 69.0 C 188.5 68.7 188.6 69.2 188.8 68.9 Z M 187.9 68.7 C 188.1 68.6 188.1 68.4 188.1 68.2 C 188.1 67.8 187.8 68.0 187.7 68.2 C 187.4 68.3 187.6 68.7 187.5 69.1 C 187.7 69.0 187.9 68.8 187.9 68.7 Z M 187.9 69.9 C 188.3 68.7 187.8 70.1 187.8 69.7 C 187.8 70.0 187.2 70.0 187.2 70.6 C 187.6 70.5 187.8 70.3 187.9 69.9 Z M 187.9 69.9 " fill="#EB5C56"></path><path d="M 187.0 100.5 C 187.0 100.6 187.1 101.0 187.0 101.1 C 187.6 101.2 188.1 100.5 188.7 101.2 C 189.0 101.4 189.8 103.2 190.2 102.9 C 190.0 102.3 189.7 102.7 190.0 102.2 C 190.3 101.6 190.9 102.5 191.1 102.7 C 191.3 103.0 191.6 102.7 191.8 102.9 C 192.3 103.3 193.0 103.6 193.4 104.2 C 193.5 104.4 192.7 106.4 193.8 105.9 C 194.4 105.7 194.6 105.6 194.8 106.3 C 194.8 106.6 194.7 106.9 194.4 107.0 C 194.6 107.4 194.9 107.8 194.9 108.2 C 195.0 108.0 195.1 108.1 195.2 107.9 C 195.3 108.8 195.4 109.6 195.5 110.4 C 195.6 111.1 195.5 111.3 196.2 111.4 C 196.2 111.9 195.9 112.0 195.7 112.4 C 195.7 112.9 195.4 113.1 195.9 113.4 C 196.2 113.6 196.2 114.2 195.7 114.3 C 195.1 114.4 195.3 115.8 195.0 116.3 C 195.1 116.2 195.3 116.2 195.4 116.1 C 195.2 116.8 195.1 117.1 195.3 117.8 C 195.5 118.5 194.3 118.6 193.8 118.6 C 193.6 119.3 193.2 119.3 193.8 119.9 C 193.4 120.5 191.4 120.3 192.1 121.3 C 192.1 121.1 192.1 121.0 192.2 120.9 C 192.6 121.3 193.1 122.0 192.2 121.7 C 191.4 121.4 191.4 123.1 190.6 123.3 C 190.5 123.1 191.0 121.9 190.9 121.6 C 190.4 122.1 190.0 122.3 189.7 122.7 C 189.1 123.0 189.5 123.7 189.0 123.6 C 188.7 123.8 188.4 124.1 188.0 124.2 C 187.7 124.3 187.0 124.8 186.6 124.6 C 186.1 124.3 186.3 123.4 185.5 124.2 C 184.8 125.0 184.0 125.0 183.0 125.0 C 183.0 124.7 183.4 124.4 183.1 124.2 C 182.8 123.9 182.4 123.8 181.9 123.8 C 181.9 123.9 182.0 124.0 182.2 124.1 C 181.6 124.0 181.2 123.9 180.6 123.7 C 180.0 124.0 181.1 124.3 181.2 124.6 C 181.2 125.4 179.9 124.0 180.0 124.0 C 179.8 123.9 178.9 123.8 178.6 123.6 C 178.4 123.6 177.4 123.2 177.5 123.0 C 177.9 122.4 176.9 121.7 176.5 122.4 C 176.0 122.1 175.7 122.0 175.5 121.2 C 175.2 120.3 175.1 120.1 174.8 119.4 C 174.2 119.4 173.5 119.2 173.0 118.5 C 173.0 118.4 172.5 117.8 172.8 117.8 C 173.4 117.7 173.0 117.3 172.8 116.9 C 172.5 116.6 172.1 116.3 172.0 116.0 C 171.9 115.7 172.2 115.5 172.1 115.1 C 172.0 114.6 172.0 114.3 172.0 113.8 C 172.1 113.3 171.5 113.1 171.3 112.8 C 171.9 112.5 172.4 111.7 172.3 111.0 C 172.2 110.5 171.6 110.6 171.5 110.1 C 171.4 109.8 172.7 108.7 172.8 109.0 C 172.8 108.5 172.9 108.2 173.1 107.8 C 173.2 107.5 173.0 107.4 173.0 107.3 C 173.0 106.8 173.4 105.7 173.9 105.4 C 174.4 105.2 174.5 105.5 174.8 105.0 C 175.2 104.5 175.4 104.6 175.1 104.1 C 175.2 103.9 176.9 103.2 176.7 102.9 C 176.6 102.9 176.5 103.0 176.4 103.1 L 176.3 103.0 C 176.7 102.7 176.5 102.4 176.7 102.2 C 177.0 102.0 177.3 101.9 177.5 101.7 C 177.8 101.6 177.9 102.0 178.2 101.9 C 178.5 101.8 178.6 101.5 178.9 101.3 C 179.0 101.2 181.4 100.4 182.0 100.3 L 187.0 100.5 Z M 187.5 123.4 C 187.7 123.5 188.1 123.3 188.3 123.1 L 187.5 123.4 Z M 187.8 122.4 C 187.6 122.5 187.6 122.4 187.7 122.3 C 187.7 122.3 187.7 122.3 187.7 122.3 C 187.7 122.3 187.7 122.3 187.7 122.3 C 187.5 122.4 187.3 122.6 187.3 122.6 C 187.5 122.5 187.7 122.4 187.8 122.4 Z M 183.2 122.3 C 183.3 122.6 184.5 122.8 184.6 122.6 L 184.2 122.6 C 184.1 122.5 183.3 122.1 183.2 122.3 Z M 186.6 122.1 C 186.5 122.1 186.4 122.2 186.3 122.3 C 186.3 122.3 186.9 122.0 186.6 122.1 Z M 183.8 103.0 C 183.8 103.1 183.9 103.2 184.0 103.2 C 183.8 102.8 184.5 102.8 184.7 102.8 C 184.7 102.6 184.6 102.4 184.5 102.2 C 184.5 102.2 184.4 102.2 184.4 102.3 C 184.4 102.3 184.4 102.2 184.4 102.2 C 184.1 102.2 183.9 102.3 183.8 102.5 C 184.0 102.8 184.1 102.9 183.8 103.0 Z M 182.8 103.7 C 183.1 103.7 183.8 103.5 183.4 104.3 C 183.4 104.4 183.4 104.4 183.4 104.4 C 183.7 104.4 183.9 104.2 183.9 104.0 C 184.0 103.7 183.8 103.4 183.6 103.3 C 183.5 103.3 183.5 103.3 183.5 103.3 C 183.5 103.3 183.5 103.3 183.5 103.3 C 183.4 103.3 183.4 103.3 183.3 103.2 C 183.3 103.2 183.2 103.2 183.2 103.2 C 183.0 103.3 182.9 103.4 182.8 103.7 Z M 185.9 103.6 C 185.9 103.7 184.6 103.3 184.2 103.3 C 184.4 103.4 184.6 103.5 184.9 103.6 C 185.2 103.6 185.9 104.0 185.9 103.6 Z M 184.9 104.5 C 184.7 104.6 184.6 104.6 184.5 104.6 C 184.4 104.5 183.8 103.9 184.2 104.0 C 184.4 104.0 184.6 104.0 184.8 104.0 C 184.7 103.9 184.7 103.9 184.7 103.8 C 184.4 103.6 183.9 103.8 183.9 104.2 C 183.9 104.8 184.6 104.9 184.9 104.5 Z M 183.0 104.7 C 183.0 104.7 183.0 104.7 183.0 104.7 C 182.8 104.7 182.6 104.7 182.5 104.7 C 182.5 104.8 182.5 104.8 182.5 104.8 C 182.6 104.8 182.8 104.8 183.0 104.8 C 183.0 104.8 183.0 104.7 183.0 104.7 Z M 184.6 101.0 C 184.6 101.0 184.6 101.0 184.6 101.0 C 184.7 101.1 184.8 101.1 184.9 101.1 C 185.0 100.9 185.0 100.5 184.8 100.3 C 184.4 100.3 184.4 100.7 184.6 101.0 Z M 187.8 103.1 C 188.1 103.4 188.4 103.5 188.8 103.4 C 188.7 102.9 188.3 103.0 187.8 103.1 Z M 190.1 103.4 C 190.0 103.2 189.8 103.1 189.6 103.1 C 189.3 102.9 189.8 104.0 190.1 103.4 Z M 186.9 103.6 C 187.1 104.2 187.2 104.0 187.6 104.1 C 187.4 103.8 187.2 103.7 186.9 103.6 Z M 189.7 104.0 L 190.0 104.2 C 190.1 104.4 190.2 104.4 190.4 104.4 C 190.4 104.4 189.7 103.9 189.7 104.0 Z M 192.1 105.0 C 192.0 104.8 191.9 104.6 191.7 104.5 C 191.3 104.9 191.8 105.5 192.3 105.5 C 192.3 105.3 192.2 105.2 192.1 105.0 Z M 190.6 105.4 C 190.5 105.3 190.4 105.5 190.6 105.3 C 190.5 105.2 190.4 105.1 190.3 105.1 C 190.4 105.2 190.4 105.7 190.6 105.4 Z M 191.0 105.9 L 191.3 106.0 C 191.4 105.8 191.3 105.7 191.0 105.9 Z M 190.2 106.2 C 190.2 106.0 190.1 105.9 189.9 105.9 C 190.3 105.8 189.4 105.1 189.4 105.7 C 189.4 105.8 190.0 106.2 190.2 106.2 Z M 190.9 106.9 C 190.8 106.8 190.5 106.4 190.3 106.8 L 190.5 106.7 C 190.6 106.8 190.7 107.0 190.9 106.9 Z M 192.2 107.0 C 191.9 107.0 192.1 107.8 192.2 107.9 C 192.2 107.8 192.2 107.6 192.2 107.5 C 192.2 107.4 192.2 107.1 192.2 107.0 Z M 192.9 107.6 C 193.0 107.9 193.1 108.1 192.8 107.8 C 192.8 107.9 192.8 108.1 192.8 108.2 C 193.0 108.3 193.1 107.7 193.6 107.8 C 193.5 107.7 193.5 107.6 193.5 107.5 L 192.9 107.6 Z M 194.4 108.4 C 194.3 108.2 194.3 108.0 194.2 107.8 C 193.7 107.0 194.1 108.6 194.4 108.4 Z M 192.3 108.6 C 192.1 108.5 191.9 108.1 191.8 107.9 C 191.5 108.4 191.7 108.1 191.6 108.6 C 191.6 108.7 192.3 109.0 192.3 108.6 Z M 190.4 109.0 C 190.3 109.1 190.3 109.1 190.4 109.2 C 190.4 108.9 190.7 109.7 190.4 109.0 Z M 194.0 110.1 C 193.9 110.1 193.9 110.2 194.0 110.2 C 194.0 110.4 194.1 110.6 194.2 110.8 C 194.2 110.5 194.1 110.3 194.0 110.1 Z M 191.8 110.9 L 191.9 111.2 C 192.3 111.0 192.3 110.9 191.8 110.9 Z M 193.1 111.5 C 193.1 111.3 193.0 111.1 192.8 111.1 C 192.9 111.2 192.9 111.4 193.1 111.5 Z M 194.1 111.1 C 193.6 111.1 193.8 111.5 193.9 111.7 C 194.3 111.7 194.3 111.3 194.1 111.1 Z M 195.3 112.7 L 195.1 112.5 C 195.1 112.6 195.1 112.7 195.1 112.8 L 195.3 112.7 Z M 194.7 113.8 C 194.7 113.5 194.7 113.2 194.6 112.9 L 194.5 112.5 C 194.2 113.0 194.4 113.4 194.4 113.6 C 194.3 113.8 194.5 113.9 194.7 113.8 Z M 193.2 113.1 C 193.2 113.1 193.6 112.7 193.2 112.7 C 193.1 112.8 193.1 112.9 193.2 113.1 Z M 192.8 112.9 C 192.4 113.3 192.4 113.5 192.5 113.9 C 192.7 113.7 192.9 113.3 192.8 112.9 Z M 194.0 113.7 C 194.0 113.8 193.9 114.1 193.9 114.3 C 194.2 114.1 194.3 113.9 194.0 113.7 Z M 191.2 113.6 L 190.7 113.5 C 190.6 113.8 190.6 114.0 191.0 114.4 C 191.0 114.1 191.1 113.9 191.2 113.6 Z M 192.3 115.0 L 192.3 114.9 C 192.2 115.0 192.2 115.3 192.3 115.5 L 192.3 115.0 Z M 191.2 115.5 C 191.0 115.5 190.8 115.8 191.2 115.8 C 191.2 115.8 191.3 115.5 191.2 115.5 Z M 193.5 116.7 C 193.2 116.5 193.1 117.1 193.4 117.2 C 193.5 117.1 193.4 116.8 193.5 116.7 Z M 190.0 117.2 C 189.8 117.1 189.7 117.1 189.8 117.3 C 189.8 117.4 189.9 117.4 189.9 117.3 L 190.0 117.2 Z M 190.5 118.2 C 190.9 118.3 191.1 117.6 191.2 117.4 C 190.9 117.4 190.6 117.9 190.5 118.2 Z M 188.5 118.1 C 188.5 118.0 188.7 117.9 188.7 117.9 C 188.5 117.8 188.3 117.7 188.5 118.1 Z M 193.2 117.6 L 193.2 117.4 C 193.1 117.4 192.9 117.4 192.8 117.5 C 192.9 117.6 193.0 117.6 193.2 117.6 Z M 193.4 118.5 C 193.4 118.5 193.3 118.4 193.2 118.4 C 193.2 118.6 193.3 118.7 193.4 118.5 Z M 192.6 118.7 C 192.6 118.5 192.7 118.3 192.9 118.2 C 193.2 117.4 191.0 117.8 192.1 118.4 C 191.8 118.8 191.5 118.9 191.3 119.3 C 192.1 119.6 191.5 117.9 192.6 118.7 Z M 188.0 118.4 L 188.0 118.4 C 187.9 118.4 187.9 118.4 188.0 118.4 Z M 189.2 118.6 C 189.2 118.5 188.8 119.0 188.8 119.0 C 189.1 119.2 189.2 118.8 189.2 118.6 Z M 189.7 118.9 C 189.5 118.7 189.3 118.7 189.3 119.0 C 189.4 119.1 189.5 119.0 189.7 118.9 Z M 182.6 119.4 L 182.3 119.4 C 182.4 119.4 182.6 119.6 182.6 119.4 Z M 188.6 119.9 C 189.1 119.9 188.0 119.1 188.1 120.0 C 188.4 119.8 188.4 119.9 188.6 119.9 Z M 180.1 120.3 C 180.0 120.2 179.6 120.2 179.6 120.2 C 179.7 120.3 180.0 120.5 180.1 120.3 Z M 181.0 120.5 C 181.3 120.6 181.6 120.6 181.9 120.7 C 181.8 120.3 181.3 120.5 181.0 120.5 Z M 184.2 121.0 C 184.4 120.9 184.5 121.0 184.6 120.9 L 184.5 121.2 C 184.2 121.4 184.8 121.3 185.0 121.3 C 185.0 121.3 185.0 121.3 185.0 121.3 C 185.0 121.3 185.0 121.3 185.0 121.3 C 184.9 120.9 184.4 120.6 184.2 121.0 Z M 181.3 121.3 C 181.4 120.9 180.7 121.2 180.7 121.4 C 180.7 121.4 181.2 121.3 181.3 121.3 Z M 180.0 121.8 L 180.0 121.8 C 179.7 121.5 179.8 121.6 180.0 121.8 Z M 179.1 121.4 C 179.3 121.4 179.4 121.1 179.2 121.0 L 179.1 120.9 C 179.0 121.1 179.0 121.2 179.1 121.4 Z M 183.8 121.0 C 183.6 120.6 183.5 120.6 183.5 120.8 C 183.6 120.9 183.7 121.0 183.8 121.0 Z M 176.9 120.7 L 177.1 120.8 L 177.4 120.9 C 177.3 120.8 177.0 120.6 176.9 120.7 Z M 177.3 120.7 C 177.4 120.6 177.7 120.5 177.7 120.3 C 177.5 120.4 177.1 120.3 177.4 120.0 C 176.7 119.6 176.7 120.5 177.3 120.7 Z M 179.6 119.8 C 179.8 120.0 179.9 119.7 180.0 119.5 C 179.8 119.5 179.8 119.6 179.6 119.8 Z M 178.5 119.3 C 178.7 119.3 179.0 119.3 179.1 119.4 C 179.3 119.1 178.7 119.1 178.5 119.3 Z M 175.6 118.5 C 175.6 118.5 176.0 118.1 176.1 118.1 C 176.1 118.0 175.6 117.8 175.5 117.7 C 175.3 117.9 175.0 118.7 175.6 118.5 Z M 176.4 117.9 C 177.4 117.5 177.1 118.2 177.5 118.6 C 177.9 118.1 177.6 117.2 177.1 117.5 C 176.8 117.5 176.6 117.5 176.4 117.9 Z M 174.9 117.6 C 175.3 117.3 175.0 117.0 174.7 116.9 C 174.5 116.4 174.4 117.4 174.9 117.6 Z M 176.2 117.3 C 176.5 117.6 176.5 117.0 176.7 117.1 C 176.7 117.0 176.5 116.7 176.3 116.6 C 176.3 116.7 176.3 117.1 176.2 117.3 Z M 178.7 117.3 L 178.6 117.1 C 178.4 117.2 178.4 117.2 178.7 117.3 Z M 176.9 115.9 C 176.9 116.0 177.0 116.1 177.0 116.2 C 177.3 116.2 177.0 115.9 176.9 115.9 Z M 175.7 115.4 C 175.6 115.6 175.8 115.9 176.0 115.9 C 175.9 115.7 175.8 115.5 175.7 115.4 Z M 174.4 116.0 C 174.7 115.8 174.4 115.3 174.2 115.1 C 174.3 115.3 174.2 116.1 174.4 116.0 Z M 175.5 114.6 C 175.8 114.3 176.0 113.4 175.5 113.2 C 175.4 112.9 175.2 113.5 175.2 113.6 C 175.3 113.9 174.8 114.4 175.5 114.6 Z M 175.0 114.0 C 175.0 113.9 175.0 113.8 175.0 113.8 C 174.7 114.1 175.0 114.2 175.0 114.0 Z M 173.3 113.7 C 173.6 113.8 174.0 113.6 173.9 113.2 C 173.3 112.9 173.2 113.2 173.3 113.7 Z M 174.4 113.2 C 174.3 113.2 174.3 113.6 174.3 113.6 C 174.5 113.4 174.4 113.2 174.6 112.9 C 174.5 113.2 174.4 113.2 174.4 113.2 Z M 175.0 112.0 L 175.0 112.0 C 174.9 112.1 174.9 112.2 174.9 112.2 L 175.0 112.0 C 175.0 112.0 175.0 111.9 175.0 112.0 Z M 173.5 111.2 C 173.6 111.4 173.8 111.7 174.0 111.6 C 174.1 111.5 174.1 111.3 174.2 111.1 C 173.9 111.0 173.7 111.1 173.5 111.2 Z M 176.1 111.3 C 176.0 111.4 175.9 111.5 175.9 111.6 C 176.1 111.7 176.1 111.6 176.1 111.3 Z M 175.1 110.6 C 175.0 111.1 174.9 111.3 175.7 111.6 C 175.9 111.2 175.8 110.8 175.8 110.5 C 175.7 110.3 175.6 110.2 175.4 110.0 C 175.2 110.0 175.1 110.5 175.1 110.6 Z M 173.7 109.6 C 174.5 109.8 174.3 108.2 173.7 109.6 L 173.7 109.6 Z M 176.4 109.3 C 176.5 109.2 176.5 109.1 176.4 109.0 C 176.4 109.1 176.4 109.2 176.4 109.3 Z M 175.0 109.0 C 175.4 109.0 175.8 108.8 175.9 108.6 C 175.5 108.6 174.6 108.4 175.0 109.0 Z M 174.4 107.4 C 174.1 107.6 174.6 108.2 174.5 108.2 C 174.8 107.8 175.1 107.6 174.9 107.0 C 174.6 107.2 174.6 107.1 174.4 107.4 Z M 176.2 108.3 C 176.6 108.0 176.8 107.6 177.2 107.3 C 177.2 107.1 177.1 107.0 177.0 106.8 C 176.4 107.1 176.3 107.8 176.2 108.3 Z M 177.9 107.8 C 177.7 107.9 177.7 108.1 177.7 108.3 C 177.8 108.4 177.8 107.8 177.9 107.8 Z M 176.4 106.8 L 176.8 106.6 C 176.6 106.5 176.5 106.7 176.4 106.8 Z M 178.0 106.6 C 177.9 106.7 177.7 106.5 177.6 106.6 C 177.8 106.9 177.8 106.7 177.9 106.7 C 178.1 106.8 178.7 106.1 178.1 105.8 C 177.7 105.6 177.4 106.6 178.0 106.6 Z M 181.8 105.7 C 181.5 105.8 181.6 106.2 181.3 106.2 C 181.2 106.3 181.0 106.2 180.9 106.2 C 180.5 106.1 180.5 105.8 180.2 106.1 C 180.2 106.1 180.0 106.2 180.0 106.2 C 180.4 106.7 180.2 106.8 179.9 107.0 C 179.5 107.2 179.0 107.3 178.9 107.7 C 178.6 108.2 178.5 107.6 178.3 107.8 C 178.2 108.0 178.0 108.2 177.8 108.3 C 178.1 108.5 178.5 108.6 178.5 108.9 C 178.1 109.1 178.2 109.6 177.7 109.8 C 177.2 110.1 177.6 110.6 177.4 111.2 C 177.3 111.4 177.2 111.7 177.5 111.9 C 177.3 111.9 177.2 112.5 177.2 112.6 C 176.9 113.1 177.5 113.7 177.6 114.1 C 177.6 114.2 177.5 114.5 177.5 114.7 C 177.5 115.0 177.8 115.0 178.0 115.1 C 178.1 115.3 178.8 116.2 178.8 116.2 C 178.5 116.4 179.0 116.8 179.1 116.9 C 179.3 117.0 179.4 117.1 179.5 117.3 C 179.7 117.5 180.0 117.3 180.1 117.5 C 180.1 117.8 180.9 118.3 180.9 118.3 C 181.3 117.8 181.3 119.0 181.5 119.0 C 181.6 119.0 181.7 118.9 181.8 118.8 C 182.0 118.6 182.1 119.1 182.3 118.9 C 182.6 118.6 182.7 118.2 182.7 118.9 C 183.0 118.7 182.9 119.1 183.2 119.2 C 183.2 119.3 183.7 119.0 183.7 119.1 C 183.9 119.0 184.1 119.3 184.3 119.2 C 184.5 119.1 184.4 118.6 184.6 119.0 C 185.0 119.7 185.1 118.9 185.4 118.8 C 185.4 118.4 186.0 119.3 186.0 118.6 C 186.1 118.8 186.4 119.2 186.3 118.7 C 186.9 119.4 186.6 118.2 186.6 118.2 C 186.9 118.4 186.9 118.4 187.2 118.5 C 187.5 118.5 187.2 118.0 187.6 118.2 C 188.1 118.3 188.2 116.5 189.0 117.6 C 189.1 117.4 189.2 117.3 189.4 117.1 C 189.1 117.1 188.7 117.5 188.5 117.0 C 188.4 116.6 188.6 116.5 189.0 116.7 C 189.0 116.8 190.2 116.4 190.0 116.0 C 190.1 115.9 190.0 115.8 189.9 115.7 C 189.7 115.3 190.0 115.5 189.9 115.2 C 189.9 114.9 190.5 115.0 190.1 114.8 C 190.8 115.2 190.6 114.5 190.2 114.5 C 190.5 114.5 190.2 114.4 190.2 114.3 C 190.2 114.3 190.7 114.3 190.7 114.2 C 190.7 114.1 190.1 113.9 190.1 113.8 C 190.1 113.7 190.4 113.8 190.4 113.7 C 190.4 113.7 190.2 113.5 190.2 113.4 C 190.2 113.2 190.6 113.1 190.6 112.9 C 190.6 112.6 190.8 111.7 191.2 111.7 C 191.1 111.1 191.2 110.7 190.4 110.4 C 190.1 110.2 189.6 109.6 189.6 109.4 C 189.9 109.3 189.8 109.6 190.0 109.6 C 190.2 109.4 189.6 109.2 190.0 108.8 C 190.3 108.4 190.1 108.4 189.9 108.2 C 189.7 107.9 190.0 108.0 190.2 107.8 C 190.2 107.8 189.9 107.2 189.7 107.5 C 189.6 107.7 189.6 108.5 189.3 108.3 C 189.0 108.0 188.6 107.6 188.4 107.2 C 188.1 107.0 187.9 106.5 187.6 106.5 C 187.5 106.6 187.1 106.6 187.1 106.6 C 187.0 106.5 187.0 106.2 186.8 106.1 C 186.6 106.0 186.3 106.1 186.1 106.1 C 185.8 106.1 185.1 105.6 184.8 105.9 C 185.1 105.5 185.1 105.4 185.1 105.3 C 185.1 105.3 185.1 105.3 185.1 105.3 C 185.1 105.3 185.1 105.2 185.1 105.2 C 185.0 105.2 184.9 105.1 184.8 105.0 C 184.9 105.0 185.0 104.9 185.1 104.9 C 185.1 104.9 185.1 104.9 185.1 104.8 C 184.8 104.7 184.4 104.9 184.4 105.2 C 184.3 105.2 184.1 105.2 183.9 105.2 C 184.0 105.1 184.0 104.8 184.0 104.8 C 183.9 105.0 183.8 105.1 183.8 105.2 C 183.7 105.2 183.7 105.2 183.6 105.2 C 183.6 105.3 183.5 105.4 183.5 105.5 C 183.3 105.6 183.0 105.5 182.8 105.5 C 183.0 105.7 182.5 105.8 182.4 105.7 C 182.2 105.6 182.0 105.6 181.8 105.7 Z M 178.9 105.6 C 178.8 105.4 178.7 105.2 178.5 105.2 C 178.2 105.4 178.7 105.7 178.9 105.6 Z M 176.3 105.1 C 176.4 104.9 175.8 104.9 175.9 105.2 C 176.0 105.2 176.2 105.2 176.3 105.1 Z M 174.7 105.4 C 174.9 105.4 175.5 105.3 175.4 105.0 C 175.4 104.9 174.8 105.3 174.7 105.4 Z M 176.7 104.4 C 176.5 104.5 176.3 104.7 176.6 104.9 C 176.7 104.8 176.9 104.4 176.9 104.2 L 176.7 104.4 Z M 178.6 104.2 C 178.7 104.6 178.9 104.4 179.1 104.1 C 178.8 104.4 178.7 104.0 178.6 104.2 Z M 179.4 104.5 C 179.3 104.6 179.2 104.7 179.2 104.9 C 179.2 105.3 179.5 105.2 179.6 105.0 C 179.9 104.8 179.7 104.4 179.8 104.1 C 179.6 104.1 179.5 104.3 179.4 104.5 Z M 179.4 103.2 C 179.1 104.5 179.5 103.0 179.5 103.5 C 179.5 103.1 180.1 103.2 180.1 102.5 C 179.8 102.6 179.6 102.9 179.4 103.2 Z M 179.4 103.2 " fill="#EB5C56"></path></g></g></g></svg>