<?xml version="1.0" encoding="UTF-8" standalone="no"?><svg xmlns="http://www.w3.org/2000/svg" xmlns:xlink="http://www.w3.org/1999/xlink" clip-rule="evenodd" stroke-miterlimit="4.00" viewBox="0 0 1024 768"><desc>SVG generated by Keynote</desc><defs></defs><g transform="matrix(1.00, 0.00, -0.00, -1.00, 0.0, 768.0)"><path d="M 0.0 768.0 L 1024.0 768.0 L 1024.0 0.0 L 0.0 0.0 Z M 0.0 768.0 " fill="#FEFFFF"></path><text xml:space="preserve" font-family="Helvetica-Light" font-size="83.0" fill="#000000" transform="matrix(1.00, 0.00, -0.00, -1.00, 307.0, 353.0)">T</text><text xml:space="preserve" font-family="Helvetica-Light" font-size="83.0" fill="#000000" transform="matrix(1.00, 0.00, -0.00, -1.00, 353.1, 353.0)">h</text><text xml:space="preserve" font-family="Helvetica-Light" font-size="83.0" fill="#000000" transform="matrix(1.00, 0.00, -0.00, -1.00, 399.3, 353.0)">a</text><text xml:space="preserve" font-family="Helvetica-Light" font-size="83.0" fill="#000000" transform="matrix(1.00, 0.00, -0.00, -1.00, 445.4, 353.0)">n</text><text xml:space="preserve" font-family="Helvetica-Light" font-size="83.0" fill="#000000" transform="matrix(1.00, 0.00, -0.00, -1.00, 491.6, 353.0)">k</text><text xml:space="preserve" font-family="Helvetica-Light" font-size="83.0" fill="#000000" transform="matrix(1.00, 0.00, -0.00, -1.00, 533.1, 353.0)"> </text><text xml:space="preserve" font-family="Helvetica-Light" font-size="83.0" fill="#000000" transform="matrix(1.00, 0.00, -0.00, -1.00, 556.2, 353.0)">y</text><text xml:space="preserve" font-family="Helvetica-Light" font-size="83.0" fill="#000000" transform="matrix(1.00, 0.00, -0.00, -1.00, 597.7, 353.0)">o</text><text xml:space="preserve" font-family="Helvetica-Light" font-size="83.0" fill="#000000" transform="matrix(1.00, 0.00, -0.00, -1.00, 643.8, 353.0)">u</text><text xml:space="preserve" font-family="Helvetica-Light" font-size="83.0" fill="#000000" transform="matrix(1.00, 0.00, -0.00, -1.00, 690.0, 353.0)">!</text><text xml:space="preserve" font-family="Helvetica-Light" font-size="18.0" fill="#000000" transform="matrix(1.00, 0.00, -0.00, -1.00, 501.0, 18.0)">2</text><text xml:space="preserve" font-family="Helvetica-Light" font-size="18.0" fill="#000000" transform="matrix(1.00, 0.00, -0.00, -1.00, 511.0, 18.0)">7</text></g></svg>