<?xml version="1.0" encoding="UTF-8" standalone="no"?><svg xmlns="http://www.w3.org/2000/svg" xmlns:xlink="http://www.w3.org/1999/xlink" clip-rule="evenodd" stroke-miterlimit="4.00" viewBox="0 0 385 54"><desc>SVG generated by Keynote</desc><defs></defs><g transform="matrix(1.00, 0.00, -0.00, -1.00, 0.0, 54.0)"><g><clipPath id="clip-18"><path d="M 81.9 9.6 L 0.0 9.6 L 0.0 39.4 L 81.9 39.4 Z M 81.9 9.6 "></path></clipPath><g clip-path="url(#clip-18)"><path d="M 67.5 26.0 C 67.8 25.8 68.5 26.1 68.7 25.9 M 67.5 26.0 C 68.2 27.1 69.5 27.2 71.3 27.4 C 73.2 27.4 71.2 26.4 71.5 25.9 C 73.9 25.5 73.9 26.3 73.6 27.5 C 74.5 26.7 77.4 28.1 76.8 26.6 C 72.8 26.6 79.6 26.2 76.3 25.4 C 75.9 25.2 76.9 24.8 77.2 24.8 C 76.1 24.1 78.0 23.4 76.2 23.0 C 76.0 22.0 76.3 22.5 75.2 21.7 C 74.7 21.6 74.9 21.9 74.9 22.2 C 74.8 23.3 73.6 21.6 72.6 22.2 C 71.8 20.8 70.9 22.5 71.6 23.1 C 70.8 22.9 69.8 21.4 68.9 22.5 C 68.5 21.8 66.2 22.2 67.5 23.1 C 68.5 23.7 67.4 24.1 67.3 24.5 C 67.6 24.8 69.0 24.3 69.2 24.6 C 68.8 24.8 67.0 25.3 68.9 25.3 C 68.3 25.8 69.2 26.1 67.5 26.0 C 67.5 26.0 67.5 26.0 67.5 26.0 Z M 74.3 26.8 C 74.3 27.2 73.6 26.8 74.3 26.8 C 74.3 26.8 74.3 26.8 74.3 26.8 Z M 69.7 21.7 C 69.7 22.1 69.0 21.7 69.7 21.7 C 69.7 21.7 69.7 21.7 69.7 21.7 Z M 74.6 22.1 C 74.6 22.5 74.0 22.1 74.6 22.1 C 74.6 22.1 74.6 22.1 74.6 22.1 Z M 72.5 26.6 C 71.5 26.3 73.4 26.0 73.6 26.4 C 73.3 26.4 72.8 26.9 72.5 26.6 C 72.5 26.6 72.5 26.6 72.5 26.6 Z M 72.4 24.4 C 72.3 24.5 71.8 24.6 71.9 24.2 C 72.2 24.1 72.5 24.2 72.4 24.4 C 72.4 24.4 72.4 24.4 72.4 24.4 Z M 77.7 25.9 C 77.6 26.1 77.1 26.1 77.2 25.7 C 77.5 25.6 77.7 25.8 77.7 25.9 C 77.7 25.9 77.7 25.9 77.7 25.9 Z M 71.3 25.6 C 71.0 25.5 70.9 25.2 71.3 25.1 C 71.4 25.3 72.2 25.3 71.3 25.6 C 71.3 25.6 71.3 25.6 71.3 25.6 Z M 69.6 26.8 C 68.7 26.6 70.5 26.1 70.5 26.3 C 70.8 26.5 70.1 27.1 69.6 26.8 C 69.6 26.8 69.6 26.8 69.6 26.8 Z M 70.8 25.1 C 70.1 24.9 71.1 24.8 70.8 25.1 C 70.8 25.1 70.8 25.1 70.8 25.1 Z M 76.9 23.1 C 76.2 22.9 77.3 22.8 76.9 23.1 C 76.9 23.1 76.9 23.1 76.9 23.1 Z M 73.0 21.9 C 72.3 21.8 73.3 21.7 73.0 21.9 C 73.0 21.9 73.0 21.9 73.0 21.9 Z M 74.5 25.8 C 75.8 25.8 74.7 26.8 74.5 25.8 C 74.5 25.8 74.5 25.8 74.5 25.8 Z M 67.6 26.9 C 68.9 27.0 67.7 27.9 67.6 26.9 C 67.6 26.9 67.6 26.9 67.6 26.9 Z M 23.6 26.6 C 22.4 26.8 27.0 28.0 25.2 26.6 C 24.7 25.3 27.9 25.4 27.0 26.6 C 28.0 26.7 28.0 26.8 28.5 26.2 C 28.6 27.1 30.8 27.6 31.6 27.1 C 32.1 26.3 30.1 27.0 31.4 26.2 C 34.1 25.9 31.2 25.3 32.2 24.3 C 32.3 24.3 32.4 24.8 32.6 24.5 C 32.7 23.5 31.2 22.9 31.9 22.2 C 31.5 22.3 29.5 21.3 30.3 22.1 C 30.6 23.0 28.2 21.0 28.4 22.5 C 27.7 21.8 27.0 22.8 26.4 21.9 C 25.9 21.8 25.9 22.5 26.0 22.7 C 26.0 23.4 25.4 21.2 24.6 22.4 C 24.6 22.1 22.4 22.2 24.0 22.7 C 23.6 22.6 21.0 22.3 22.4 23.6 C 24.1 24.2 20.5 25.0 22.6 25.1 C 24.2 25.2 24.5 24.9 23.3 25.6 C 23.0 25.5 21.1 25.7 22.7 26.3 C 23.0 26.1 23.8 26.2 23.6 26.6 C 23.6 26.6 23.6 26.6 23.6 26.6 Z M 23.2 24.6 C 24.1 24.6 23.3 25.1 23.2 24.6 C 23.2 24.6 23.2 24.6 23.2 24.6 Z M 26.5 21.6 C 27.4 21.6 26.6 22.2 26.5 21.6 C 26.5 21.6 26.5 21.6 26.5 21.6 Z M 26.4 26.9 C 26.9 26.5 27.0 27.9 26.4 26.9 C 26.4 26.9 26.4 26.9 26.4 26.9 Z M 25.0 22.7 C 25.1 22.7 24.9 22.9 24.7 23.0 C 24.7 22.9 24.9 22.8 25.0 22.7 C 25.0 22.7 25.0 22.7 25.0 22.7 Z M 28.0 26.9 C 29.3 26.3 28.2 28.0 28.0 26.9 C 28.0 26.9 28.0 26.9 28.0 26.9 Z M 30.7 25.6 C 30.9 24.2 32.1 25.9 30.7 25.6 C 30.7 25.6 30.7 25.6 30.7 25.6 Z M 28.8 22.6 C 28.6 22.9 28.6 22.4 28.8 22.6 C 28.8 22.6 28.8 22.6 28.8 22.6 Z M 22.9 22.4 C 22.6 22.7 22.6 22.2 22.9 22.4 C 22.9 22.4 22.9 22.4 22.9 22.4 Z M 30.5 22.7 C 30.4 23.2 30.0 22.5 30.5 22.7 C 30.5 22.7 30.5 22.7 30.5 22.7 Z M 26.7 26.4 C 25.4 27.5 25.2 24.8 26.7 26.4 C 26.7 26.4 26.7 26.4 26.7 26.4 Z M 24.4 26.5 C 23.6 26.7 24.6 25.8 25.0 26.0 C 24.9 26.1 24.6 26.4 24.4 26.5 C 24.4 26.5 24.4 26.5 24.4 26.5 Z M 28.0 26.2 C 27.1 26.8 27.2 26.0 28.0 26.2 C 28.0 26.2 28.0 26.2 28.0 26.2 Z M 25.8 26.8 C 25.4 26.7 26.2 26.7 25.8 26.8 C 25.8 26.8 25.8 26.8 25.8 26.8 Z M 29.7 27.4 C 29.3 27.3 30.0 27.2 29.7 27.4 C 29.7 27.4 29.7 27.4 29.7 27.4 Z M 23.4 27.0 C 23.0 26.9 23.7 26.9 23.4 27.0 C 23.4 27.0 23.4 27.0 23.4 27.0 Z M 29.3 26.7 C 29.4 26.2 28.2 25.1 30.4 26.0 C 30.8 26.4 29.9 27.1 29.3 26.7 C 29.3 26.7 29.3 26.7 29.3 26.7 Z M 64.1 26.0 C 69.0 27.5 67.8 24.8 68.1 24.3 C 68.7 23.6 68.1 23.1 67.1 22.6 C 66.1 20.9 65.6 24.4 64.8 22.7 C 63.5 20.4 63.3 24.7 62.8 22.3 C 63.0 21.6 61.1 22.1 61.2 22.3 C 60.3 21.2 58.9 23.2 58.9 23.4 C 58.2 23.1 58.2 21.0 56.2 22.6 C 54.7 23.1 54.0 21.0 54.4 22.5 C 53.3 20.8 53.6 22.9 52.5 22.4 C 51.7 21.5 52.5 23.8 51.1 22.1 C 50.5 23.4 51.8 21.1 48.0 22.1 C 49.8 22.2 46.2 23.2 46.9 22.3 C 48.2 21.3 45.1 22.7 43.4 22.1 C 42.9 22.6 40.9 23.8 41.2 22.5 C 39.4 20.9 39.4 23.4 38.7 22.1 C 38.1 21.6 37.8 22.7 37.4 22.7 C 36.8 21.7 36.2 22.3 34.0 22.1 C 29.2 21.6 33.3 24.6 31.5 24.9 C 31.2 25.3 33.8 28.6 32.8 26.1 C 33.1 26.8 37.1 24.3 35.1 27.0 C 36.6 25.9 34.8 28.1 37.8 26.8 C 33.7 24.9 42.5 26.0 38.5 26.9 C 39.2 27.5 40.9 27.4 39.7 26.9 C 39.2 25.2 42.5 27.7 40.9 25.6 C 43.4 26.2 42.8 24.4 43.5 25.7 C 44.1 27.9 43.3 25.1 44.6 25.7 C 47.6 25.8 45.3 28.3 47.1 26.6 C 50.1 27.7 47.8 25.6 48.8 25.4 C 49.1 23.8 51.8 26.5 49.6 26.7 C 50.7 25.9 49.8 27.5 51.1 26.5 C 50.1 25.1 52.9 28.0 52.4 26.9 C 53.7 26.5 53.0 25.7 53.4 25.6 C 55.2 25.6 54.6 27.0 55.0 26.0 C 55.4 25.4 56.3 27.2 56.5 26.8 C 54.6 26.7 58.0 25.3 58.2 26.0 C 57.1 26.2 58.8 27.9 59.5 26.8 C 58.6 23.7 61.1 27.6 61.9 26.5 C 61.2 24.8 66.0 26.3 64.2 27.1 C 64.3 26.9 64.1 26.0 64.1 26.0 M 57.0 26.5 C 55.5 26.4 58.7 26.2 57.0 26.5 M 57.1 27.0 C 56.4 26.4 58.5 27.4 57.0 27.2 C 57.0 27.2 57.2 27.0 57.1 27.0 M 50.8 27.1 C 51.0 26.6 51.7 27.3 50.8 27.1 M 49.6 26.0 C 48.6 25.5 51.0 25.9 49.6 26.0 M 35.7 26.3 C 37.1 23.8 37.2 27.8 35.7 26.3 M 44.9 26.9 C 46.6 26.5 44.3 27.9 44.9 26.9 M 45.4 26.2 C 46.2 25.8 45.6 26.8 45.4 26.2 M 38.4 26.3 C 38.3 26.3 38.3 26.3 38.4 26.3 C 38.4 26.3 38.4 26.3 38.4 26.3 Z M 34.3 26.3 C 34.2 26.3 34.2 26.3 34.3 26.3 C 34.3 26.3 34.3 26.3 34.3 26.3 Z M 42.4 26.1 C 43.6 26.7 40.3 26.3 42.4 26.1 C 42.4 26.1 42.4 26.1 42.4 26.1 Z M 36.2 22.4 C 36.3 22.3 36.3 22.3 36.2 22.4 C 36.2 22.4 36.2 22.4 36.2 22.4 Z M 58.2 25.4 C 58.3 25.3 58.3 25.3 58.2 25.4 C 58.2 25.4 58.2 25.4 58.2 25.4 Z M 62.9 26.3 C 62.8 26.0 63.8 26.6 62.9 26.3 C 62.9 26.3 62.9 26.3 62.9 26.3 Z M 66.7 23.4 C 66.8 23.4 66.8 23.4 66.7 23.4 C 66.7 23.4 66.7 23.4 66.7 23.4 Z M 59.8 24.0 C 59.9 24.0 59.9 24.0 59.8 24.0 C 59.8 24.0 59.8 24.0 59.8 24.0 Z M 59.1 25.9 C 59.9 27.3 57.4 25.5 59.1 25.9 C 59.1 25.9 59.1 25.9 59.1 25.9 Z M 43.9 22.5 C 43.9 23.1 42.9 22.3 43.9 22.5 C 43.9 22.5 43.9 22.5 43.9 22.5 Z M 49.4 25.4 C 49.2 25.7 48.8 25.3 49.4 25.4 C 49.4 25.4 49.4 25.4 49.4 25.4 Z M 52.0 27.3 C 51.8 27.7 51.3 27.2 52.0 27.3 C 52.0 27.3 52.0 27.3 52.0 27.3 Z M 62.8 26.7 C 62.7 26.8 62.7 26.8 62.8 26.7 C 62.8 26.7 62.8 26.7 62.8 26.7 Z M 61.2 25.7 C 62.3 27.0 59.4 24.9 61.2 25.7 C 61.2 25.7 61.2 25.7 61.2 25.7 Z M 63.1 25.3 C 62.5 24.8 64.7 25.5 63.1 25.3 M 62.0 23.2 C 60.6 23.8 63.3 20.9 62.0 23.2 C 62.0 23.2 62.0 23.2 62.0 23.2 Z M 54.8 22.7 C 54.7 22.7 54.7 22.7 54.8 22.7 C 54.8 22.7 54.8 22.7 54.8 22.7 Z M 55.6 26.6 C 54.3 26.5 56.4 26.3 55.6 26.6 C 55.6 26.6 55.6 26.6 55.6 26.6 Z M 66.4 26.9 C 65.2 26.8 67.2 26.6 66.4 26.9 C 66.4 26.9 66.4 26.9 66.4 26.9 Z M 50.6 24.0 C 48.6 24.2 51.9 23.3 50.6 24.0 C 50.6 24.0 50.6 24.0 50.6 24.0 Z M 43.1 25.5 C 43.0 25.5 43.0 25.5 43.1 25.5 C 43.1 25.5 43.1 25.5 43.1 25.5 Z M 41.7 26.1 C 41.6 26.1 41.6 26.1 41.7 26.1 C 41.7 26.1 41.7 26.1 41.7 26.1 Z M 35.9 24.7 C 35.8 24.7 35.8 24.7 35.9 24.7 C 35.9 24.7 35.9 24.7 35.9 24.7 Z M 40.4 26.7 C 40.4 26.7 40.4 26.7 40.4 26.7 C 40.4 26.7 40.4 26.7 40.4 26.7 Z M 36.4 26.4 C 36.3 26.3 36.3 26.3 36.4 26.4 C 36.4 26.4 36.4 26.4 36.4 26.4 Z M 36.9 27.5 C 36.9 27.5 36.9 27.5 36.9 27.5 C 36.9 27.5 36.9 27.5 36.9 27.5 Z M 45.9 21.7 C 45.8 21.7 45.8 21.7 45.9 21.7 C 45.9 21.7 45.9 21.7 45.9 21.7 Z M 60.6 27.2 C 60.5 27.0 60.5 27.0 60.6 27.2 C 60.6 27.2 60.6 27.2 60.6 27.2 Z M 36.7 25.9 C 36.7 25.8 36.7 25.8 36.7 25.9 C 36.7 25.9 36.7 25.9 36.7 25.9 Z M 46.6 24.8 C 46.5 23.7 47.4 26.3 46.3 24.9 C 46.4 24.8 46.6 25.0 46.6 24.8 M 45.2 22.9 C 45.3 22.9 45.3 22.9 45.2 22.9 C 45.2 22.9 45.2 22.9 45.2 22.9 Z M 49.7 22.2 C 49.8 22.2 49.8 22.2 49.7 22.2 C 49.7 22.2 49.7 22.2 49.7 22.2 Z M 41.1 26.9 C 41.3 27.6 40.0 26.5 41.3 26.9 M 35.8 22.7 C 36.0 23.4 34.7 22.3 36.0 22.7 M 67.8 26.5 C 68.0 26.0 68.7 26.7 67.8 26.5 M 50.7 21.6 C 50.9 21.2 51.5 21.9 50.7 21.6 M 48.6 23.1 C 48.8 23.7 47.5 22.6 48.8 23.1 M 38.9 22.8 C 38.8 22.8 38.8 22.8 38.9 22.8 C 38.9 22.8 38.9 22.8 38.9 22.8 Z M 53.6 26.5 C 53.6 26.4 53.6 26.4 53.6 26.5 C 53.6 26.5 53.6 26.5 53.6 26.5 Z M 48.2 25.1 C 48.9 26.0 47.2 24.6 48.2 25.1 M 55.2 24.9 C 56.3 26.0 53.5 24.6 55.2 24.9 M 33.5 22.5 C 34.7 23.8 32.6 21.8 33.5 22.5 M 39.5 25.7 C 40.7 27.0 38.6 25.0 39.5 25.7 M 52.5 25.9 C 52.6 26.6 51.3 25.5 52.5 25.9 M 65.0 26.6 C 66.1 26.7 63.5 27.1 65.0 26.6 M 41.8 22.7 C 41.8 22.7 41.8 22.7 41.8 22.7 C 41.8 22.7 41.8 22.7 41.8 22.7 Z M 61.2 21.6 C 61.2 21.6 61.2 21.6 61.2 21.6 C 61.2 21.6 61.2 21.6 61.2 21.6 Z M 31.9 26.7 C 31.9 26.7 31.9 26.7 31.9 26.7 C 31.9 26.7 31.9 26.7 31.9 26.7 Z M 40.2 25.1 C 40.2 25.0 40.2 25.0 40.2 25.1 C 40.2 25.1 40.2 25.1 40.2 25.1 Z M 34.3 26.9 C 34.2 26.8 34.2 26.8 34.3 26.9 C 34.3 26.9 34.3 26.9 34.3 26.9 Z M 44.0 24.1 C 44.0 24.1 44.0 24.1 44.0 24.1 C 44.0 24.1 44.0 24.1 44.0 24.1 Z M 44.8 27.4 C 44.7 27.4 44.7 27.4 44.8 27.4 C 44.8 27.4 44.8 27.4 44.8 27.4 Z M 48.9 26.0 C 48.9 26.0 48.9 26.0 48.9 26.0 C 48.9 26.0 48.9 26.0 48.9 26.0 Z M 42.9 27.2 C 40.4 27.4 44.1 26.1 42.9 27.2 C 42.9 27.2 42.9 27.2 42.9 27.2 Z M 47.1 23.9 C 47.1 23.8 47.1 23.8 47.1 23.9 C 47.1 23.9 47.1 23.9 47.1 23.9 Z M 47.5 26.2 C 45.9 27.1 46.7 24.6 47.5 26.2 M 54.4 27.0 C 53.9 27.5 54.1 26.2 54.4 27.0 M 57.1 22.7 C 57.1 22.6 57.1 22.6 57.1 22.7 C 57.1 22.7 57.1 22.7 57.1 22.7 Z M 56.4 23.0 C 56.3 22.9 56.3 22.9 56.4 23.0 C 56.4 23.0 56.4 23.0 56.4 23.0 Z M 56.0 27.2 C 56.0 27.2 56.0 27.2 56.0 27.2 C 56.0 27.2 56.0 27.2 56.0 27.2 Z M 56.3 21.7 C 56.2 21.7 56.2 21.7 56.3 21.7 C 56.3 21.7 56.3 21.7 56.3 21.7 Z M 45.7 27.3 C 45.7 27.3 45.7 27.3 45.7 27.3 C 45.7 27.3 45.7 27.3 45.7 27.3 Z M 33.1 27.4 C 33.0 27.4 33.0 27.4 33.1 27.4 C 33.1 27.4 33.1 27.4 33.1 27.4 Z M 64.6 23.1 C 64.6 23.1 64.6 23.1 64.6 23.1 C 64.6 23.1 64.6 23.1 64.6 23.1 Z M 44.4 26.0 C 44.4 26.0 44.4 26.0 44.4 26.0 C 44.4 26.0 44.4 26.0 44.4 26.0 Z M 58.9 22.8 C 58.9 22.8 58.9 22.8 58.9 22.8 C 58.9 22.8 58.9 22.8 58.9 22.8 Z M 45.2 26.3 C 45.2 26.3 45.2 26.3 45.2 26.3 C 45.2 26.3 45.2 26.3 45.2 26.3 Z M 42.2 22.5 C 42.2 22.5 42.2 22.5 42.2 22.5 C 42.2 22.5 42.2 22.5 42.2 22.5 Z M 39.5 21.7 C 39.5 21.7 39.5 21.7 39.5 21.7 C 39.5 21.7 39.5 21.7 39.5 21.7 Z M 42.4 24.8 C 42.4 24.7 42.4 24.7 42.4 24.8 C 42.4 24.8 42.4 24.8 42.4 24.8 Z M 59.8 24.3 C 64.8 25.4 55.8 24.8 59.8 24.3 M 41.6 24.5 C 45.1 24.8 38.8 25.8 41.6 24.5 C 41.2 24.8 41.5 24.5 41.6 24.5 " fill="#EB5C56"></path><path d="M 23.2 11.3 C 23.3 10.7 24.8 10.2 23.8 11.2 C 23.7 11.3 23.1 11.5 23.2 11.3 Z M 20.8 12.7 C 20.9 12.5 21.1 12.5 21.3 12.5 C 21.8 12.8 20.1 13.0 20.8 12.7 Z M 24.6 11.1 C 24.6 11.0 25.4 10.5 25.3 10.7 C 25.2 11.0 24.5 11.1 24.6 11.1 Z M 19.2 14.9 C 19.1 14.7 19.9 14.2 20.1 14.2 C 20.6 14.3 19.4 15.3 19.2 14.9 Z M 25.7 18.9 C 25.7 19.0 25.7 19.1 25.8 19.1 C 25.7 19.1 25.7 19.0 25.7 18.9 Z M 7.7 21.0 C 7.8 20.9 8.3 20.9 8.3 21.1 C 8.3 21.4 7.3 21.4 7.7 21.0 Z M 26.2 34.7 C 26.2 34.7 26.4 34.4 26.5 34.5 C 26.6 34.7 26.4 34.8 26.2 34.7 Z M 26.5 34.7 C 26.7 34.6 26.8 35.0 26.6 34.9 C 26.4 34.9 26.3 34.8 26.5 34.7 Z M 13.7 31.4 C 13.6 31.3 13.5 31.3 13.6 31.3 C 13.7 31.2 13.9 31.4 13.7 31.4 Z M 14.2 31.3 C 14.4 31.2 14.5 31.6 14.3 31.6 C 14.0 31.5 13.9 31.4 14.2 31.3 Z M 15.9 33.8 C 15.8 33.8 15.7 33.8 15.9 33.7 C 16.0 33.7 16.1 33.9 15.9 33.8 Z M 26.9 28.2 C 26.9 28.3 26.8 28.8 26.6 28.8 C 26.4 28.7 26.7 28.0 26.9 28.2 Z M 27.0 28.9 C 27.2 28.8 27.2 29.2 27.0 29.1 C 26.9 29.0 26.8 28.9 27.0 28.9 Z M 26.6 26.9 C 26.3 26.9 26.3 26.3 26.4 26.2 C 26.5 26.0 26.5 25.8 26.6 25.6 C 26.7 25.6 26.9 26.9 26.6 26.9 Z M 26.3 22.6 C 26.4 22.6 26.5 22.7 26.4 22.9 C 26.3 23.1 26.2 22.6 26.3 22.6 Z M 26.5 25.0 C 26.6 25.0 26.7 25.1 26.6 25.3 C 26.5 25.5 26.4 25.0 26.5 25.0 Z M 14.4 17.1 C 14.2 17.0 14.9 16.7 15.0 16.7 C 15.0 16.7 14.8 16.9 15.0 16.9 C 15.2 16.8 15.1 17.5 14.4 17.1 Z M 19.5 13.5 C 19.6 13.5 19.7 13.5 19.7 13.7 C 19.7 13.7 19.2 13.8 19.5 13.5 Z M 15.6 17.3 C 15.5 17.2 15.7 17.2 15.7 17.2 C 15.8 17.3 15.6 17.4 15.6 17.3 Z M 15.2 17.7 C 15.4 17.6 15.8 17.6 15.8 17.8 C 15.8 18.1 14.8 18.0 15.2 17.7 Z M 13.5 17.3 C 13.7 17.2 13.7 17.2 13.6 17.3 C 13.6 17.4 13.5 17.3 13.5 17.3 Z M 16.4 15.2 C 16.6 15.1 16.6 15.1 16.5 15.2 C 16.5 15.3 16.4 15.2 16.4 15.2 Z M 12.3 18.5 C 12.3 18.5 12.5 18.0 12.9 18.3 C 13.3 18.7 12.3 18.5 12.3 18.5 Z M 10.4 20.3 C 10.6 20.2 10.6 20.4 10.4 20.4 C 10.2 20.4 10.3 20.3 10.4 20.3 Z M 10.1 21.4 C 9.7 21.5 9.5 21.4 9.9 21.3 C 10.3 21.1 10.4 21.4 10.1 21.4 Z M 10.4 21.0 C 10.4 21.1 10.3 21.2 10.2 21.1 C 10.2 21.0 10.3 21.0 10.4 21.0 Z M 11.9 19.4 C 12.0 19.2 12.3 19.3 12.1 19.5 C 11.8 19.8 11.8 19.7 11.9 19.4 Z M 26.8 16.7 C 26.8 16.6 27.0 16.6 27.1 16.7 C 27.2 16.8 26.9 16.9 26.8 16.7 Z M 25.9 25.9 C 26.0 25.7 26.0 25.8 26.0 26.1 C 25.9 26.3 25.7 26.0 25.9 25.9 Z M 25.4 31.6 C 25.5 31.5 25.6 31.6 25.5 31.9 C 25.4 32.1 25.3 31.8 25.4 31.6 Z M 25.9 23.5 C 26.0 23.5 26.4 24.1 26.0 24.4 C 25.6 24.8 25.5 23.7 25.9 23.5 Z M 21.3 17.9 C 21.2 17.7 21.4 17.8 21.4 17.8 C 21.3 18.0 21.3 18.0 21.3 17.9 Z M 25.2 24.8 C 25.1 24.7 25.4 24.7 25.5 24.8 C 25.6 24.9 25.3 25.0 25.2 24.8 Z M 25.7 30.6 C 25.9 30.4 26.2 30.5 26.3 30.7 C 26.7 31.1 26.3 31.5 26.0 31.8 C 25.8 32.1 25.7 30.7 25.7 30.6 Z M 25.9 15.4 C 25.9 15.5 25.8 15.6 25.8 15.7 C 25.9 15.8 25.9 15.9 25.8 16.0 C 25.9 16.6 26.4 16.9 26.5 17.3 C 26.9 18.1 25.8 18.4 25.7 18.9 C 25.7 18.8 25.7 18.7 25.6 18.6 C 25.3 18.4 25.4 20.4 25.5 20.5 C 25.7 22.3 26.0 20.2 26.6 20.2 C 26.9 20.2 26.2 21.3 26.2 21.4 C 25.9 22.0 26.5 22.1 26.2 22.5 C 26.1 22.7 24.8 23.4 25.0 23.6 C 25.2 23.8 25.0 24.3 25.0 24.5 C 25.0 24.8 25.1 25.4 25.5 25.1 C 25.9 24.8 26.2 24.8 25.9 25.2 C 25.7 25.5 24.9 27.5 25.8 27.4 C 25.9 27.4 26.2 27.0 26.2 27.0 C 26.4 27.5 26.1 29.2 26.5 29.6 C 27.4 30.5 26.0 29.4 25.7 29.8 C 25.3 30.6 25.0 31.0 25.1 32.0 C 25.2 32.2 25.2 33.2 25.7 32.7 C 26.1 32.4 26.3 32.6 26.4 32.1 C 26.9 32.7 26.0 33.1 26.2 33.3 C 26.4 33.5 26.6 33.1 26.6 33.5 C 26.5 34.1 26.6 33.9 26.1 34.0 C 26.0 34.0 25.9 34.5 25.9 34.5 C 25.8 34.5 25.8 34.5 25.7 34.5 C 25.8 35.0 26.7 35.7 26.5 35.8 C 26.3 36.0 25.7 35.7 25.5 35.7 C 25.5 35.7 25.5 35.8 25.5 35.8 C 25.5 36.0 25.9 36.5 25.8 36.6 C 25.7 36.6 24.9 36.3 25.1 36.5 C 25.4 36.7 25.1 37.8 24.8 37.8 C 24.6 37.9 23.4 38.1 23.3 38.3 C 23.3 38.5 22.7 38.1 22.5 38.1 C 22.4 38.0 22.2 37.5 22.2 37.4 C 22.1 37.3 21.7 37.2 21.7 37.2 C 21.7 37.2 21.4 37.2 21.1 37.0 C 20.8 36.8 20.6 36.4 20.3 36.1 C 19.9 35.7 19.6 35.8 19.2 35.7 C 18.8 35.5 18.8 34.6 18.5 34.4 C 18.2 34.1 17.9 34.6 17.5 34.4 C 17.0 34.1 16.9 33.9 17.0 33.9 C 17.2 33.9 17.2 33.7 17.0 33.6 C 16.9 33.5 16.5 33.1 16.3 33.0 C 16.0 33.0 17.1 34.2 15.5 33.2 C 14.7 32.7 14.5 31.8 14.7 31.9 C 15.3 32.3 14.5 30.7 14.4 31.0 C 14.2 31.2 12.9 30.4 12.9 31.0 C 13.0 31.2 11.5 30.5 11.3 30.3 C 11.2 30.1 10.5 29.9 10.6 29.3 C 10.6 29.1 9.5 29.2 9.3 29.1 C 9.1 29.0 8.1 28.2 8.0 28.0 C 7.8 27.8 8.3 28.0 8.6 28.2 C 8.8 28.4 9.0 28.8 9.2 28.8 C 9.5 28.9 9.2 28.5 8.9 28.3 C 8.7 28.1 8.7 27.8 8.5 27.6 C 8.4 27.6 8.2 27.5 8.0 27.3 C 7.9 27.3 7.8 27.2 7.8 27.3 C 7.7 27.5 7.8 27.6 7.7 27.7 C 7.6 27.7 7.4 27.7 7.1 27.5 C 6.7 27.3 6.5 27.1 6.1 26.7 C 5.7 26.3 5.6 26.4 5.2 26.3 C 4.9 26.1 4.7 25.9 4.7 25.8 C 4.7 25.7 5.2 25.9 5.3 25.8 C 5.3 25.7 5.1 25.2 4.9 25.1 C 4.1 24.6 5.2 24.2 4.4 23.7 C 4.0 23.3 4.7 23.4 5.1 23.3 C 5.0 23.2 5.0 23.1 5.4 22.8 C 5.3 22.7 5.9 22.5 6.1 22.3 C 6.3 22.2 7.2 21.4 6.7 22.0 C 6.7 22.1 6.7 22.1 6.6 22.2 C 6.6 22.2 6.6 22.2 6.7 22.2 C 6.7 22.2 6.6 22.8 6.6 22.8 C 6.6 22.8 6.7 22.2 6.7 22.2 C 6.9 22.3 7.1 22.4 7.2 22.4 C 7.3 22.4 7.3 22.3 7.3 22.2 C 7.3 22.2 7.3 22.2 7.3 22.2 C 7.3 22.2 7.3 22.2 7.3 22.1 C 7.2 22.0 7.3 22.0 7.4 21.9 C 7.7 21.5 8.7 21.3 9.1 21.2 C 8.7 22.7 10.3 21.7 10.8 21.2 C 11.2 20.8 10.6 19.7 10.3 19.9 C 10.7 19.6 10.9 19.8 11.2 20.0 C 11.1 20.0 12.0 20.4 11.9 20.4 C 13.0 20.2 12.3 19.4 12.5 19.2 C 12.6 18.9 12.9 18.7 13.2 18.5 C 13.4 18.3 13.0 18.2 13.1 18.0 C 13.1 17.4 14.3 17.9 14.5 17.8 C 14.4 18.0 14.1 18.2 14.0 18.5 C 14.2 18.0 14.7 18.5 14.9 18.4 C 15.2 18.4 15.5 18.1 15.8 17.9 C 16.3 17.6 16.8 17.2 17.2 16.8 C 17.0 16.8 15.9 16.7 15.8 16.7 C 16.0 16.6 16.6 16.4 16.2 16.2 C 15.5 15.7 17.0 15.3 17.2 15.2 C 17.9 14.8 18.2 13.7 19.3 14.1 C 19.3 14.1 18.4 14.9 18.5 14.9 C 19.1 15.4 19.5 15.5 20.2 15.0 C 20.3 14.9 21.0 13.8 20.9 13.8 C 21.0 13.9 19.2 13.1 20.3 13.0 C 20.5 13.0 20.3 13.5 20.6 13.4 C 21.0 13.4 21.3 13.0 21.7 12.9 C 21.7 12.9 22.4 12.7 22.4 12.7 C 22.4 12.4 22.3 12.1 22.4 11.9 C 22.5 11.7 22.9 11.7 23.0 11.9 C 23.0 11.9 23.0 12.0 23.0 12.0 C 23.1 12.0 23.2 12.0 23.2 12.1 C 23.3 12.1 23.4 12.0 23.6 12.0 C 23.7 12.1 23.5 12.2 23.3 12.2 C 23.3 12.3 23.3 12.4 23.4 12.5 C 23.6 12.3 23.9 12.1 23.9 12.0 C 24.2 11.4 24.0 11.3 25.0 11.4 C 25.8 11.5 26.3 13.4 26.1 14.5 C 26.1 14.7 26.1 15.0 25.9 15.4 Z M 7.7 26.7 C 7.7 26.7 7.7 26.7 7.7 26.7 C 7.8 26.6 7.9 26.5 7.9 26.4 C 7.7 26.2 7.9 26.7 7.6 26.5 C 7.4 26.3 7.4 26.4 7.7 26.7 Z M 7.9 24.1 C 7.6 24.0 7.7 24.1 7.8 24.3 C 7.8 24.2 7.8 24.1 7.9 24.1 Z M 7.3 23.0 C 7.1 23.3 7.8 23.4 8.3 23.0 C 7.8 22.9 7.5 22.9 7.3 23.0 Z M 7.8 22.1 C 7.9 22.1 7.9 22.2 7.9 22.3 C 7.9 22.4 8.2 22.1 8.2 22.2 C 8.2 22.4 8.0 22.7 8.2 22.7 C 8.3 22.6 8.4 22.6 8.5 22.6 C 8.5 22.6 8.5 22.5 8.5 22.5 C 8.6 22.2 8.1 22.0 7.8 22.1 Z M 9.6 26.8 C 9.4 26.8 9.5 26.9 9.6 26.9 C 9.8 27.0 9.8 26.8 9.6 26.8 Z M 10.9 28.9 C 10.8 28.7 10.6 28.6 10.7 28.8 C 10.7 29.1 11.0 29.1 10.9 28.9 Z M 13.7 25.9 C 13.6 25.9 13.7 25.9 13.8 26.0 C 14.0 26.0 13.9 25.8 13.7 25.9 Z M 13.9 23.7 C 14.0 23.6 13.8 23.4 13.7 23.5 C 13.7 23.7 13.8 23.9 13.9 23.7 Z M 13.6 28.6 C 13.8 28.6 13.8 28.5 13.6 28.5 C 13.4 28.5 13.5 28.6 13.6 28.6 Z M 13.2 25.7 C 13.3 25.9 13.4 25.9 13.5 25.8 C 13.5 25.8 13.5 25.6 13.3 25.5 C 13.1 25.4 13.0 25.5 13.2 25.7 Z M 13.0 23.9 C 13.5 23.6 13.4 23.4 12.8 23.9 C 12.3 24.3 12.7 24.1 13.0 23.9 Z M 12.0 30.3 C 12.0 30.2 11.6 30.1 11.6 30.1 C 11.6 30.1 12.3 30.7 12.0 30.3 Z M 13.2 19.1 C 13.0 19.2 13.0 19.4 13.3 19.3 C 13.6 19.2 13.4 19.0 13.2 19.1 Z M 14.2 19.9 C 13.8 19.6 13.4 19.7 13.4 19.7 C 13.5 19.8 13.5 20.1 13.5 20.3 C 13.2 20.6 12.6 20.4 12.4 20.9 C 12.2 21.4 13.0 21.0 13.1 20.9 C 13.0 21.0 13.0 21.1 13.0 21.2 C 13.2 21.3 13.3 21.2 13.4 21.1 C 13.4 20.9 14.7 20.3 14.2 19.9 Z M 14.2 25.1 C 14.0 24.9 13.8 25.1 13.9 25.3 C 14.1 25.5 14.3 25.7 14.4 25.6 C 14.4 25.6 14.4 25.1 14.2 25.1 Z M 14.4 26.6 C 14.2 26.7 14.2 26.8 14.4 26.8 C 14.8 27.0 14.6 26.6 14.4 26.6 Z M 17.3 33.4 C 17.5 33.4 17.2 33.2 17.2 33.3 C 17.1 33.4 17.2 33.4 17.3 33.4 Z M 17.2 30.7 C 17.7 30.8 17.3 30.4 17.2 30.4 C 17.1 30.4 17.0 30.7 17.2 30.7 Z M 15.7 29.2 C 15.9 29.2 15.7 29.0 15.6 29.0 C 15.4 29.0 15.6 29.1 15.7 29.2 Z M 15.5 28.1 C 15.7 28.2 15.6 27.9 15.4 27.9 C 15.3 27.9 15.3 28.1 15.5 28.1 Z M 16.3 19.5 C 16.3 19.5 16.4 19.9 16.6 19.6 C 16.7 19.2 16.8 19.2 16.3 19.5 Z M 15.6 22.6 C 15.3 22.8 15.1 23.0 15.4 23.9 C 15.6 24.7 15.8 24.4 16.0 23.9 C 16.1 23.3 16.5 24.8 16.7 23.8 C 16.8 23.3 15.8 22.4 15.6 22.6 Z M 17.1 28.1 C 16.8 27.5 16.0 27.7 16.4 28.0 C 16.9 28.4 17.3 28.5 17.1 28.1 Z M 17.1 28.4 C 17.0 28.4 17.0 28.5 17.2 28.6 C 17.3 28.6 17.3 28.4 17.1 28.4 Z M 16.7 15.7 C 15.9 16.5 17.2 16.5 17.2 16.5 C 18.3 16.1 17.5 15.0 16.7 15.7 Z M 25.3 34.0 C 25.3 34.0 25.3 34.0 25.3 33.9 C 25.3 33.9 25.3 33.9 25.3 33.9 C 25.2 33.7 25.0 34.1 25.0 34.1 C 25.1 34.2 25.2 34.1 25.3 34.0 Z M 25.6 28.5 C 25.5 28.8 25.6 28.9 25.7 29.1 C 26.2 29.0 26.2 27.3 25.3 28.0 C 25.2 28.1 24.5 29.1 24.9 29.2 C 25.1 29.3 25.6 28.0 25.6 28.5 Z M 24.9 30.3 C 24.9 29.6 24.2 30.8 24.5 30.7 C 24.7 30.6 24.8 30.5 24.9 30.3 Z M 23.3 35.1 C 23.7 36.0 25.0 35.9 24.3 34.5 C 23.6 33.1 23.1 33.0 23.3 33.7 C 23.5 34.4 22.8 33.9 23.3 35.1 Z M 23.4 28.0 C 24.3 28.2 24.0 27.7 23.3 27.5 C 23.2 27.4 22.8 27.9 23.4 28.0 Z M 23.2 26.0 C 23.3 25.7 23.3 25.8 23.1 25.9 C 22.9 26.1 23.1 26.3 23.2 26.0 Z M 22.0 36.6 C 22.2 36.9 22.5 37.1 22.3 37.1 C 22.1 37.2 22.2 37.2 22.4 37.4 C 22.6 37.7 22.6 37.2 22.5 37.0 C 22.5 36.8 21.9 36.2 22.0 36.6 Z M 18.9 28.9 C 19.0 29.0 18.9 28.8 18.8 28.8 C 18.7 28.7 18.7 28.8 18.9 28.9 Z M 17.8 21.3 C 17.8 21.3 17.9 21.6 18.0 21.4 C 18.1 21.2 18.1 21.2 17.8 21.3 Z M 18.2 15.3 C 18.0 15.4 18.4 15.5 18.4 15.8 C 18.4 15.9 18.2 15.7 18.1 15.7 C 18.2 15.7 18.3 16.5 18.6 16.0 C 18.7 15.8 18.6 14.9 18.2 15.3 Z M 19.1 26.8 C 18.8 26.5 18.6 27.8 18.3 27.6 C 18.1 27.3 18.0 27.5 18.3 27.8 C 18.6 28.0 19.4 27.2 19.1 26.8 Z M 19.3 30.0 C 19.3 29.8 18.6 29.3 18.8 29.6 C 18.9 30.0 19.3 30.2 19.1 30.2 C 18.9 30.2 19.0 30.3 19.1 30.5 C 19.3 30.7 19.3 30.2 19.3 30.0 Z M 19.5 35.4 C 19.5 35.3 19.1 35.1 19.2 35.4 C 19.3 35.5 19.6 35.5 19.5 35.4 Z M 19.9 20.5 C 19.8 20.7 19.8 20.8 20.1 20.5 C 20.3 20.3 20.0 20.2 19.9 20.5 Z M 20.4 34.9 C 20.1 34.6 20.3 35.1 20.1 34.9 C 19.9 34.7 19.8 34.8 20.1 35.1 C 20.4 35.4 20.7 35.3 20.4 34.9 Z M 20.7 15.6 C 20.7 15.7 20.8 15.9 20.9 15.8 C 21.0 15.6 20.7 15.4 20.7 15.6 Z M 21.5 17.6 C 21.4 17.6 21.3 17.6 21.2 17.7 C 19.9 18.6 22.3 17.9 21.5 17.6 Z M 21.3 20.7 C 21.2 20.3 21.0 20.8 21.0 20.8 C 21.1 20.8 21.2 20.8 21.3 20.7 Z M 21.3 24.1 C 21.5 24.2 21.4 23.8 21.3 23.9 C 21.1 23.9 21.2 24.0 21.3 24.1 Z M 21.9 13.1 C 21.7 13.1 21.8 13.3 21.9 13.2 C 22.0 13.2 22.1 13.0 21.9 13.1 Z M 22.0 21.6 C 22.0 21.5 21.9 21.5 22.0 21.7 C 22.0 21.8 22.1 21.6 22.0 21.6 Z M 22.1 31.9 C 22.0 31.8 21.9 31.7 21.8 31.6 C 21.6 31.7 21.6 32.4 21.4 32.4 C 21.3 32.4 21.3 32.4 21.3 32.4 C 21.3 32.4 21.3 32.4 21.3 32.4 C 21.2 32.4 21.1 32.3 21.2 32.2 C 21.1 32.2 21.1 32.0 21.1 31.9 C 20.9 32.1 20.7 32.4 20.9 32.5 C 21.1 32.7 21.5 32.8 21.9 32.7 C 22.0 32.6 22.0 32.5 22.1 32.3 C 22.0 32.3 22.0 32.3 22.0 32.3 C 21.8 32.2 21.7 32.0 21.8 32.0 C 22.0 32.0 22.1 32.1 22.1 32.1 C 22.1 32.0 22.1 32.0 22.1 31.9 Z M 22.5 22.9 C 22.4 22.6 22.3 22.8 22.2 23.1 C 22.1 23.4 22.6 23.1 22.5 22.9 Z M 22.2 13.5 C 22.3 13.6 22.3 13.7 22.4 13.7 C 22.4 13.7 22.4 13.6 22.4 13.6 C 22.5 13.4 22.5 13.2 22.5 13.0 C 22.3 13.0 22.2 13.2 22.2 13.5 Z M 23.2 16.4 C 23.2 16.4 23.2 15.1 23.0 15.3 C 22.5 15.7 22.1 15.2 22.3 16.1 C 22.4 16.5 23.0 16.8 23.1 17.3 C 23.6 19.5 23.7 16.7 23.8 16.1 C 23.8 16.0 23.3 16.6 23.2 16.4 Z M 23.9 19.3 C 24.1 19.4 24.3 19.1 24.3 18.9 C 24.2 18.4 23.6 19.2 23.9 19.3 Z M 24.2 13.2 C 24.2 13.2 24.1 13.2 24.1 13.2 C 24.1 13.3 24.2 13.3 24.2 13.3 C 24.2 13.3 24.2 13.2 24.2 13.2 Z M 24.4 11.7 C 23.8 12.2 25.0 12.2 25.2 12.1 C 25.7 11.9 24.8 11.4 24.4 11.7 Z M 24.9 17.7 C 24.9 18.1 26.1 18.6 26.1 17.8 C 26.0 17.1 25.0 16.7 24.9 17.7 Z M 26.5 22.2 C 26.4 22.1 26.6 21.6 26.8 21.9 C 26.9 22.0 26.6 22.3 26.5 22.2 Z M 27.2 15.5 C 27.2 15.6 27.1 15.4 27.1 15.4 C 27.3 15.3 27.3 15.3 27.2 15.5 Z M 26.3 16.1 C 26.4 15.9 26.4 15.6 26.5 15.4 C 26.6 15.3 26.7 15.7 26.7 15.8 C 26.6 16.0 26.3 16.0 26.3 16.1 Z M 26.2 19.7 C 26.3 19.5 26.3 19.8 26.3 20.0 C 26.3 20.1 26.1 19.9 26.2 19.7 Z M 26.5 18.9 C 26.4 19.0 26.3 18.9 26.3 18.7 C 26.3 18.5 26.5 18.7 26.5 18.9 Z M 25.8 20.4 C 25.6 20.0 25.6 19.4 25.9 19.5 C 26.1 19.5 26.0 21.1 25.8 20.4 Z M 25.8 20.4 " fill="#EB5C56"></path></g></g><g><clipPath id="clip-19"><path d="M 71.5 -3.1 L 388.5 -3.1 L 388.5 57.9 L 71.5 57.9 Z M 71.5 -3.1 "></path></clipPath><g clip-path="url(#clip-19)"><text xml:space="preserve" font-family="Helvetica-Light" font-size="36.0" fill="#000000" transform="matrix(1.00, 0.00, -0.00, -1.00, 81.0, 14.0)">i</text><text xml:space="preserve" font-family="Helvetica-Light" font-size="36.0" fill="#000000" transform="matrix(1.00, 0.00, -0.00, -1.00, 89.0, 14.0)">n</text><text xml:space="preserve" font-family="Helvetica-Light" font-size="36.0" fill="#000000" transform="matrix(1.00, 0.00, -0.00, -1.00, 109.0, 14.0)">t</text><text xml:space="preserve" font-family="Helvetica-Light" font-size="36.0" fill="#000000" transform="matrix(1.00, 0.00, -0.00, -1.00, 119.0, 14.0)">e</text><text xml:space="preserve" font-family="Helvetica-Light" font-size="36.0" fill="#000000" transform="matrix(1.00, 0.00, -0.00, -1.00, 139.0, 14.0)">r</text><text xml:space="preserve" font-family="Helvetica-Light" font-size="36.0" fill="#000000" transform="matrix(1.00, 0.00, -0.00, -1.00, 151.0, 14.0)">a</text><text xml:space="preserve" font-family="Helvetica-Light" font-size="36.0" fill="#000000" transform="matrix(1.00, 0.00, -0.00, -1.00, 171.0, 14.0)">c</text><text xml:space="preserve" font-family="Helvetica-Light" font-size="36.0" fill="#000000" transform="matrix(1.00, 0.00, -0.00, -1.00, 191.1, 14.0)">t</text><text xml:space="preserve" font-family="Helvetica-Light" font-size="36.0" fill="#000000" transform="matrix(1.00, 0.00, -0.00, -1.00, 201.1, 14.0)">i</text><text xml:space="preserve" font-family="Helvetica-Light" font-size="36.0" fill="#000000" transform="matrix(1.00, 0.00, -0.00, -1.00, 209.1, 14.0)">n</text><text xml:space="preserve" font-family="Helvetica-Light" font-size="36.0" fill="#000000" transform="matrix(1.00, 0.00, -0.00, -1.00, 229.1, 14.0)">g</text><text xml:space="preserve" font-family="Helvetica-Light" font-size="36.0" fill="#000000" transform="matrix(1.00, 0.00, -0.00, -1.00, 251.1, 14.0)"> </text><text xml:space="preserve" font-family="Helvetica-Light" font-size="36.0" fill="#000000" transform="matrix(1.00, 0.00, -0.00, -1.00, 261.1, 14.0)">p</text><text xml:space="preserve" font-family="Helvetica-Light" font-size="36.0" fill="#000000" transform="matrix(1.00, 0.00, -0.00, -1.00, 283.1, 14.0)">a</text><text xml:space="preserve" font-family="Helvetica-Light" font-size="36.0" fill="#000000" transform="matrix(1.00, 0.00, -0.00, -1.00, 303.1, 14.0)">r</text><text xml:space="preserve" font-family="Helvetica-Light" font-size="36.0" fill="#000000" transform="matrix(1.00, 0.00, -0.00, -1.00, 315.1, 14.0)">a</text><text xml:space="preserve" font-family="Helvetica-Light" font-size="36.0" fill="#000000" transform="matrix(1.00, 0.00, -0.00, -1.00, 335.1, 14.0)">l</text><text xml:space="preserve" font-family="Helvetica-Light" font-size="36.0" fill="#000000" transform="matrix(1.00, 0.00, -0.00, -1.00, 343.1, 14.0)">l</text><text xml:space="preserve" font-family="Helvetica-Light" font-size="36.0" fill="#000000" transform="matrix(1.00, 0.00, -0.00, -1.00, 351.1, 14.0)">e</text><text xml:space="preserve" font-family="Helvetica-Light" font-size="36.0" fill="#000000" transform="matrix(1.00, 0.00, -0.00, -1.00, 371.1, 14.0)">l</text></g></g></g></svg>