<?xml version="1.0" encoding="UTF-8" standalone="no"?><svg xmlns="http://www.w3.org/2000/svg" xmlns:xlink="http://www.w3.org/1999/xlink" clip-rule="evenodd" stroke-miterlimit="4.00" viewBox="0 0 1024 768"><desc>SVG generated by Keynote</desc><defs></defs><g transform="matrix(1.00, 0.00, -0.00, -1.00, 0.0, 768.0)"><path d="M 0.0 768.0 L 1024.0 768.0 L 1024.0 0.0 L 0.0 0.0 Z M 0.0 768.0 " fill="#FEFFFF"></path><text xml:space="preserve" font-family="Helvetica-Light" font-size="80.0" fill="#000000" transform="matrix(1.00, 0.00, -0.00, -1.00, 53.0, 691.0)">L</text><text xml:space="preserve" font-family="Helvetica-Light" font-size="80.0" fill="#000000" transform="matrix(1.00, 0.00, -0.00, -1.00, 97.5, 691.0)">a</text><text xml:space="preserve" font-family="Helvetica-Light" font-size="80.0" fill="#000000" transform="matrix(1.00, 0.00, -0.00, -1.00, 142.0, 691.0)">m</text><text xml:space="preserve" font-family="Helvetica-Light" font-size="80.0" fill="#000000" transform="matrix(1.00, 0.00, -0.00, -1.00, 208.6, 691.0)">b</text><text xml:space="preserve" font-family="Helvetica-Light" font-size="80.0" fill="#000000" transform="matrix(1.00, 0.00, -0.00, -1.00, 257.5, 691.0)">e</text><text xml:space="preserve" font-family="Helvetica-Light" font-size="80.0" fill="#000000" transform="matrix(1.00, 0.00, -0.00, -1.00, 302.0, 691.0)">k</text><text xml:space="preserve" font-family="Helvetica-Light" font-size="80.0" fill="#000000" transform="matrix(1.00, 0.00, -0.00, -1.00, 342.0, 691.0)"> </text><text xml:space="preserve" font-family="Helvetica-Light" font-size="80.0" fill="#000000" transform="matrix(1.00, 0.00, -0.00, -1.00, 364.2, 691.0)">C</text><text xml:space="preserve" font-family="Helvetica-Light" font-size="80.0" fill="#000000" transform="matrix(1.00, 0.00, -0.00, -1.00, 422.0, 691.0)">a</text><text xml:space="preserve" font-family="Helvetica-Light" font-size="80.0" fill="#000000" transform="matrix(1.00, 0.00, -0.00, -1.00, 466.4, 691.0)">l</text><text xml:space="preserve" font-family="Helvetica-Light" font-size="80.0" fill="#000000" transform="matrix(1.00, 0.00, -0.00, -1.00, 484.2, 691.0)">c</text><text xml:space="preserve" font-family="Helvetica-Light" font-size="80.0" fill="#000000" transform="matrix(1.00, 0.00, -0.00, -1.00, 528.7, 691.0)">u</text><text xml:space="preserve" font-family="Helvetica-Light" font-size="80.0" fill="#000000" transform="matrix(1.00, 0.00, -0.00, -1.00, 573.2, 691.0)">l</text><text xml:space="preserve" font-family="Helvetica-Light" font-size="80.0" fill="#000000" transform="matrix(1.00, 0.00, -0.00, -1.00, 590.9, 691.0)">u</text><text xml:space="preserve" font-family="Helvetica-Light" font-size="80.0" fill="#000000" transform="matrix(1.00, 0.00, -0.00, -1.00, 635.4, 691.0)">s</text><path d="M 46.6 634.8 C 46.4 634.9 46.2 634.4 45.7 634.3 C 45.1 634.1 44.4 634.1 44.5 634.4 C 44.7 634.7 44.9 634.9 44.6 635.3 C 44.3 635.7 43.9 636.4 44.3 636.7 C 44.7 637.0 46.3 637.7 46.8 637.3 C 47.3 636.9 47.4 636.8 47.8 636.5 C 48.2 636.3 47.9 637.1 47.9 637.1 C 47.9 637.1 48.8 637.2 49.4 637.2 C 50.0 637.3 50.8 637.3 50.8 637.2 C 50.9 637.1 51.1 636.8 51.1 636.8 C 51.1 636.8 51.5 637.1 51.9 637.2 C 52.4 637.3 52.2 637.1 52.2 636.9 C 52.1 636.7 51.5 636.2 51.7 636.2 C 51.9 636.2 52.5 637.0 52.9 637.1 C 53.2 637.1 53.9 637.1 53.9 637.1 C 53.9 637.1 53.9 636.6 53.9 636.5 C 54.0 636.4 54.7 636.4 54.7 636.5 C 54.8 636.7 54.7 637.2 55.1 637.2 C 56.2 637.3 56.1 636.4 56.2 636.4 C 56.3 636.4 56.3 637.0 56.5 637.1 C 56.8 637.3 59.0 637.1 59.2 637.0 C 59.3 636.8 60.0 637.4 60.4 637.0 C 60.7 636.6 60.8 636.5 60.8 636.3 C 60.9 636.2 61.3 635.6 61.6 635.8 C 61.7 636.1 60.9 636.9 61.1 637.1 C 61.4 637.3 62.8 637.3 63.0 637.1 C 63.4 636.8 63.5 636.2 63.7 636.2 C 63.9 636.2 64.7 637.0 64.7 636.9 C 64.8 636.7 64.9 636.0 64.9 635.9 C 64.9 635.8 65.2 634.5 65.0 634.4 C 64.8 634.2 64.0 633.7 64.1 634.1 C 64.2 634.4 64.4 634.9 64.1 635.0 C 63.8 635.2 63.6 635.2 63.6 635.1 C 63.5 635.0 63.7 634.8 63.2 634.6 C 62.7 634.3 62.9 634.0 62.5 634.1 C 62.0 634.1 61.6 634.2 61.6 634.4 C 61.7 634.7 61.2 635.1 60.9 635.1 C 60.5 635.1 61.1 634.5 60.0 634.2 C 59.0 634.0 58.3 633.9 58.0 634.2 C 57.7 634.4 57.7 635.1 57.2 634.8 C 56.7 634.5 56.9 634.3 56.3 634.3 C 55.6 634.3 55.3 634.9 54.9 634.9 C 54.5 635.0 54.4 634.9 54.4 634.9 C 54.4 634.9 54.6 634.1 53.6 634.1 C 52.7 634.0 52.5 633.9 52.7 634.5 C 52.9 635.1 52.1 635.2 52.1 634.8 C 52.1 634.4 51.5 634.1 51.2 634.1 C 50.8 634.0 50.7 635.0 50.6 635.1 C 50.5 635.1 50.1 635.0 50.2 634.7 C 50.4 634.4 50.0 634.3 49.7 634.2 C 49.4 634.1 48.5 634.2 48.5 634.3 C 48.5 634.5 49.0 635.2 48.4 634.9 C 47.8 634.5 47.6 634.0 47.1 634.0 C 46.5 634.1 47.0 634.7 46.6 634.8 C 46.6 634.8 46.6 634.8 46.6 634.8 Z M 65.4 634.0 C 64.3 634.1 65.0 636.7 65.4 637.2 C 65.8 637.8 66.5 637.4 67.2 637.5 C 67.9 637.6 67.6 636.8 68.0 636.6 C 68.4 636.3 68.3 636.9 68.5 637.2 C 68.6 637.6 69.7 637.3 70.3 637.3 C 70.9 637.4 71.6 636.5 72.1 636.4 C 72.6 636.4 71.7 636.0 72.6 636.0 C 73.5 636.1 73.0 636.6 72.0 636.8 C 71.0 637.1 72.4 637.3 73.0 637.4 C 73.6 637.5 74.5 637.1 75.0 637.2 C 75.4 637.2 74.9 636.6 75.5 636.6 C 76.2 636.6 75.9 637.3 76.5 637.4 C 77.2 637.5 77.1 636.9 77.5 636.7 C 77.8 636.6 77.7 636.9 78.0 637.0 C 78.3 637.1 78.8 637.2 79.4 637.1 C 80.0 636.9 79.8 636.8 80.1 636.7 C 80.4 636.7 80.9 636.7 80.9 636.7 C 81.0 636.9 81.0 637.1 81.0 637.3 C 81.0 637.3 82.2 637.4 82.5 637.4 C 82.9 637.5 83.6 637.2 83.4 637.1 C 83.2 636.9 84.0 636.5 84.2 636.6 C 84.3 636.7 84.9 637.0 85.3 637.1 C 85.7 637.3 85.6 635.6 85.6 635.3 C 85.6 635.1 85.8 634.2 85.5 634.1 C 85.1 634.0 84.9 634.3 84.9 634.1 C 85.0 633.8 83.9 634.1 83.7 634.1 C 83.4 634.1 83.0 634.7 83.0 634.7 C 83.0 634.7 82.7 635.2 82.3 635.2 C 81.8 635.2 81.7 634.2 81.7 634.2 C 81.7 634.2 81.1 634.0 80.5 634.0 C 80.0 634.1 79.3 634.9 79.2 635.1 C 79.1 635.3 79.1 634.5 78.7 634.4 C 78.3 634.3 77.7 634.1 77.6 634.1 C 77.4 634.2 77.1 634.7 77.1 634.7 C 77.1 634.7 76.4 635.0 76.2 635.0 C 76.0 635.0 76.3 634.2 76.3 634.2 C 76.3 634.2 74.8 634.0 74.4 634.0 C 74.1 633.9 73.6 634.1 73.4 634.1 C 73.2 634.2 72.8 635.2 72.5 635.1 C 72.1 635.0 72.8 634.5 72.5 634.4 C 72.1 634.3 71.5 634.1 71.3 634.1 C 71.2 634.1 70.9 634.4 70.6 634.5 C 70.4 634.5 70.0 635.2 69.5 635.2 C 69.1 635.2 68.8 634.8 68.7 634.7 C 68.5 634.6 68.4 634.0 68.0 633.9 C 67.7 633.9 67.9 634.4 67.6 634.4 C 67.2 634.4 67.2 634.8 66.9 634.7 C 66.5 634.6 66.8 633.9 66.4 634.0 C 66.2 634.0 66.4 634.0 65.4 634.0 C 65.4 634.0 65.4 634.0 65.4 634.0 Z M 86.3 634.2 C 85.9 633.8 85.4 634.2 85.5 634.6 C 85.5 635.0 85.7 636.0 85.5 636.2 C 85.4 636.5 84.8 637.2 85.6 637.3 C 86.5 637.5 86.7 637.2 86.7 637.0 C 86.7 636.7 86.9 635.7 87.1 635.8 C 87.3 635.9 87.6 636.2 87.6 636.3 C 87.7 636.5 88.0 637.4 88.4 637.3 C 88.8 637.2 89.2 636.9 89.2 636.9 C 89.4 636.9 89.7 636.9 89.9 636.8 C 89.9 636.8 90.4 637.4 90.9 637.3 C 91.4 637.2 91.9 637.2 92.2 637.2 C 92.6 637.3 92.9 637.2 93.0 636.9 C 93.0 636.7 93.5 635.9 93.5 635.9 C 93.5 635.9 94.0 635.6 94.3 635.8 C 94.5 635.9 94.5 636.4 94.5 636.6 C 94.4 636.7 94.5 637.2 94.8 637.3 C 95.2 637.4 96.7 637.9 96.9 637.6 C 97.2 637.3 97.1 636.9 97.3 636.8 C 97.4 636.7 98.4 636.7 98.5 636.9 C 98.6 637.2 98.5 637.7 98.8 637.6 C 99.1 637.6 99.7 637.7 99.7 637.6 C 99.7 637.4 99.9 637.3 99.9 637.0 C 99.9 636.7 100.5 636.5 100.6 636.4 C 100.7 636.2 101.2 636.2 101.2 636.2 C 101.4 636.3 101.6 636.5 101.8 636.7 C 101.8 636.7 101.4 637.2 101.3 637.3 C 101.1 637.3 101.4 637.7 101.5 637.7 C 101.7 637.8 102.8 637.7 102.8 637.7 C 102.8 637.3 102.9 636.9 102.9 636.5 C 103.1 636.4 103.4 636.4 103.7 636.3 C 103.7 636.3 103.6 637.6 104.1 637.6 C 104.6 637.6 105.2 637.6 105.2 637.6 C 105.2 637.6 105.8 637.1 105.9 637.1 C 106.1 637.0 106.1 635.8 106.1 635.8 C 106.1 635.4 106.0 634.9 106.0 634.4 C 106.0 634.4 105.4 634.0 105.0 634.2 C 104.7 634.3 105.0 634.9 104.9 635.1 C 104.8 635.3 104.3 635.5 104.3 635.5 C 104.1 635.3 103.8 635.0 103.6 634.8 C 103.6 634.8 103.4 634.5 103.2 634.3 C 102.9 634.1 102.1 633.9 101.9 634.0 C 101.7 634.1 101.4 634.4 101.1 634.7 C 100.8 634.9 100.9 635.3 100.6 635.0 C 100.2 634.7 100.0 634.3 99.9 634.3 C 99.7 634.3 98.9 634.8 98.9 634.8 C 98.7 634.9 98.5 635.0 98.3 635.1 C 98.3 635.1 97.8 635.3 97.7 635.0 C 97.6 634.8 96.5 635.1 96.5 635.1 C 96.5 635.1 96.6 634.2 96.3 634.1 C 96.0 634.0 95.5 633.8 95.1 633.9 C 94.6 634.1 94.3 634.9 94.3 634.9 C 94.1 634.6 94.0 634.4 93.8 634.2 C 93.4 634.2 93.0 634.1 92.5 634.1 C 92.5 634.1 91.5 634.1 91.5 634.2 C 91.5 634.4 91.7 635.1 91.6 635.3 C 91.5 635.5 91.0 635.7 91.0 635.5 C 90.9 635.2 90.4 634.6 90.4 634.6 C 90.4 634.6 90.0 634.2 89.7 634.1 C 89.5 634.1 89.0 634.3 88.9 634.4 C 88.8 634.6 88.3 635.1 88.3 635.1 C 88.2 634.9 88.1 634.7 87.9 634.4 C 87.9 634.4 87.1 634.8 86.3 634.2 C 86.3 634.2 86.3 634.2 86.3 634.2 Z M 106.4 634.0 C 105.4 634.1 106.1 636.7 106.5 637.2 C 106.9 637.8 107.6 637.4 108.2 637.5 C 108.9 637.6 108.7 636.8 109.1 636.6 C 109.5 636.3 109.4 636.9 109.5 637.2 C 109.7 637.6 110.8 637.3 111.4 637.3 C 112.0 637.4 112.7 636.5 113.2 636.4 C 113.7 636.4 112.8 636.0 113.7 636.0 C 114.6 636.1 114.1 636.6 113.1 636.8 C 112.0 637.1 113.5 637.3 114.1 637.4 C 114.6 637.5 115.6 637.1 116.1 637.2 C 116.5 637.2 115.9 636.6 116.6 636.6 C 117.3 636.6 116.9 637.3 117.6 637.4 C 118.3 637.5 118.2 636.9 118.5 636.7 C 118.9 636.6 118.8 636.9 119.1 637.0 C 119.4 637.1 119.8 637.2 120.5 637.1 C 121.1 636.9 120.9 636.8 121.2 636.7 C 121.5 636.7 122.0 636.7 122.0 636.7 C 122.0 636.9 122.1 637.1 122.1 637.3 C 122.1 637.3 123.3 637.4 123.6 637.4 C 123.9 637.5 124.7 637.2 124.5 637.1 C 124.3 636.9 125.1 636.5 125.2 636.6 C 125.4 636.7 126.0 637.0 126.4 637.1 C 126.8 637.3 126.7 635.6 126.7 635.3 C 126.7 635.1 126.9 634.2 126.6 634.1 C 126.2 634.0 125.9 634.3 126.0 634.1 C 126.0 633.8 125.0 634.1 124.7 634.1 C 124.4 634.1 124.1 634.7 124.1 634.7 C 124.1 634.7 123.8 635.2 123.4 635.2 C 122.9 635.2 122.7 634.2 122.7 634.2 C 122.7 634.2 122.2 634.0 121.6 634.0 C 121.0 634.1 120.4 634.9 120.3 635.1 C 120.2 635.3 120.2 634.5 119.8 634.4 C 119.4 634.3 118.8 634.1 118.6 634.1 C 118.5 634.2 118.2 634.7 118.2 634.7 C 118.2 634.7 117.4 635.0 117.3 635.0 C 117.1 635.0 117.4 634.2 117.4 634.2 C 117.4 634.2 115.8 634.0 115.5 634.0 C 115.2 633.9 114.7 634.1 114.5 634.1 C 114.2 634.2 113.9 635.2 113.6 635.1 C 113.2 635.0 113.9 634.5 113.6 634.4 C 113.2 634.3 112.6 634.1 112.4 634.1 C 112.2 634.1 112.0 634.4 111.7 634.5 C 111.4 634.5 111.0 635.2 110.6 635.2 C 110.1 635.2 109.9 634.8 109.7 634.7 C 109.6 634.6 109.4 634.0 109.1 633.9 C 108.7 633.9 109.0 634.4 108.6 634.4 C 108.3 634.4 108.3 634.8 108.0 634.7 C 107.6 634.6 107.8 633.9 107.4 634.0 C 107.3 634.0 107.4 634.0 106.4 634.0 C 106.4 634.0 106.4 634.0 106.4 634.0 Z M 127.4 634.2 C 126.9 633.8 126.5 634.2 126.5 634.6 C 126.6 635.0 126.8 636.0 126.6 636.2 C 126.4 636.5 125.8 637.2 126.7 637.3 C 127.6 637.5 127.8 637.2 127.8 637.0 C 127.8 636.7 127.9 635.7 128.2 635.8 C 128.4 635.9 128.6 636.2 128.7 636.3 C 128.7 636.5 129.1 637.4 129.5 637.3 C 129.9 637.2 130.3 636.9 130.3 636.9 C 130.5 636.9 130.7 636.9 130.9 636.8 C 130.9 636.8 131.5 637.4 132.0 637.3 C 132.4 637.2 133.0 637.2 133.3 637.2 C 133.7 637.3 134.0 637.2 134.1 636.9 C 134.1 636.7 134.6 635.9 134.6 635.9 C 134.6 635.9 135.1 635.6 135.3 635.8 C 135.6 635.9 135.6 636.4 135.6 636.6 C 135.5 636.7 135.6 637.2 135.9 637.3 C 136.3 637.4 137.8 637.9 138.0 637.6 C 138.2 637.3 138.2 636.9 138.3 636.8 C 138.5 636.7 139.5 636.7 139.6 636.9 C 139.7 637.2 139.6 637.7 139.9 637.6 C 140.2 637.6 140.8 637.7 140.8 637.6 C 140.8 637.4 141.0 637.3 141.0 637.0 C 141.0 636.7 141.6 636.5 141.7 636.4 C 141.8 636.2 142.3 636.2 142.3 636.2 C 142.5 636.3 142.6 636.5 142.8 636.7 C 142.8 636.7 142.5 637.2 142.3 637.3 C 142.2 637.3 142.4 637.7 142.6 637.7 C 142.8 637.8 143.9 637.7 143.9 637.7 C 143.9 637.3 143.9 636.9 143.9 636.5 C 144.2 636.4 144.5 636.4 144.8 636.3 C 144.8 636.3 144.6 637.6 145.2 637.6 C 145.7 637.6 146.3 637.6 146.3 637.6 C 146.3 637.6 146.9 637.1 147.0 637.1 C 147.1 637.0 147.2 635.8 147.2 635.8 C 147.1 635.4 147.1 634.9 147.1 634.4 C 147.1 634.4 146.4 634.0 146.1 634.2 C 145.7 634.3 146.0 634.9 146.0 635.1 C 145.9 635.3 145.4 635.5 145.4 635.5 C 145.2 635.3 144.9 635.0 144.7 634.8 C 144.7 634.8 144.5 634.5 144.2 634.3 C 144.0 634.1 143.2 633.9 143.0 634.0 C 142.7 634.1 142.5 634.4 142.2 634.7 C 141.9 634.9 142.0 635.3 141.6 635.0 C 141.3 634.7 141.1 634.3 140.9 634.3 C 140.8 634.3 140.0 634.8 140.0 634.8 C 139.8 634.9 139.6 635.0 139.4 635.1 C 139.4 635.1 138.8 635.3 138.7 635.0 C 138.7 634.8 137.5 635.1 137.5 635.1 C 137.5 635.1 137.6 634.2 137.4 634.1 C 137.1 634.0 136.6 633.8 136.1 633.9 C 135.7 634.1 135.3 634.9 135.3 634.9 C 135.2 634.6 135.0 634.4 134.9 634.2 C 134.5 634.2 134.0 634.1 133.6 634.1 C 133.6 634.1 132.6 634.1 132.6 634.2 C 132.6 634.4 132.7 635.1 132.7 635.3 C 132.6 635.5 132.1 635.7 132.0 635.5 C 132.0 635.2 131.5 634.6 131.5 634.6 C 131.5 634.6 131.1 634.2 130.8 634.1 C 130.5 634.1 130.1 634.3 130.0 634.4 C 129.8 634.6 129.4 635.1 129.4 635.1 C 129.3 634.9 129.1 634.7 129.0 634.4 C 129.0 634.4 128.2 634.8 127.4 634.2 C 127.4 634.2 127.4 634.2 127.4 634.2 Z M 147.5 634.0 C 146.5 634.1 147.1 636.7 147.5 637.2 C 147.9 637.8 148.6 637.4 149.3 637.5 C 150.0 637.6 149.8 636.8 150.2 636.6 C 150.6 636.3 150.4 636.9 150.6 637.2 C 150.8 637.6 151.8 637.3 152.5 637.3 C 153.1 637.4 153.8 636.5 154.3 636.4 C 154.8 636.4 153.8 636.0 154.7 636.0 C 155.7 636.1 155.2 636.6 154.2 636.8 C 153.1 637.1 154.6 637.3 155.1 637.4 C 155.7 637.5 156.7 637.1 157.1 637.2 C 157.6 637.2 157.0 636.6 157.7 636.6 C 158.3 636.6 158.0 637.3 158.7 637.4 C 159.3 637.5 159.3 636.9 159.6 636.7 C 159.9 636.6 159.9 636.9 160.2 637.0 C 160.4 637.1 160.9 637.2 161.5 637.1 C 162.2 636.9 162.0 636.8 162.3 636.7 C 162.6 636.7 163.1 636.7 163.1 636.7 C 163.1 636.9 163.1 637.1 163.2 637.3 C 163.2 637.3 164.3 637.4 164.7 637.4 C 165.0 637.5 165.8 637.2 165.6 637.1 C 165.4 636.9 166.1 636.5 166.3 636.6 C 166.5 636.7 167.1 637.0 167.5 637.1 C 167.9 637.3 167.7 635.6 167.7 635.3 C 167.7 635.1 168.0 634.2 167.6 634.1 C 167.3 634.0 167.0 634.3 167.1 634.1 C 167.1 633.8 166.1 634.1 165.8 634.1 C 165.5 634.1 165.2 634.7 165.2 634.7 C 165.2 634.7 164.9 635.2 164.4 635.2 C 164.0 635.2 163.8 634.2 163.8 634.2 C 163.8 634.2 163.2 634.0 162.7 634.0 C 162.1 634.1 161.5 634.9 161.4 635.1 C 161.2 635.3 161.3 634.5 160.9 634.4 C 160.5 634.3 159.9 634.1 159.7 634.1 C 159.5 634.2 159.2 634.7 159.2 634.7 C 159.2 634.7 158.5 635.0 158.3 635.0 C 158.2 635.0 158.5 634.2 158.5 634.2 C 158.5 634.2 156.9 634.0 156.6 634.0 C 156.3 633.9 155.8 634.1 155.5 634.1 C 155.3 634.2 155.0 635.2 154.6 635.1 C 154.3 635.0 155.0 634.5 154.6 634.4 C 154.3 634.3 153.7 634.1 153.5 634.1 C 153.3 634.1 153.1 634.4 152.8 634.5 C 152.5 634.5 152.1 635.2 151.7 635.2 C 151.2 635.2 151.0 634.8 150.8 634.7 C 150.6 634.6 150.5 634.0 150.2 633.9 C 149.8 633.9 150.1 634.4 149.7 634.4 C 149.4 634.4 149.4 634.8 149.0 634.7 C 148.7 634.6 148.9 633.9 148.5 634.0 C 148.3 634.0 148.5 634.0 147.5 634.0 C 147.5 634.0 147.5 634.0 147.5 634.0 Z M 169.8 634.8 C 169.6 634.9 169.4 634.4 168.9 634.3 C 168.3 634.1 167.6 634.1 167.7 634.4 C 167.9 634.7 168.1 634.9 167.8 635.3 C 167.5 635.7 167.2 636.4 167.5 636.7 C 167.9 637.0 169.5 637.7 170.0 637.3 C 170.5 636.9 170.7 636.8 171.0 636.5 C 171.4 636.3 171.1 637.1 171.1 637.1 C 171.1 637.1 172.0 637.2 172.6 637.2 C 173.3 637.3 174.0 637.3 174.0 637.2 C 174.1 637.1 174.4 636.8 174.4 636.8 C 174.4 636.8 174.7 637.1 175.1 637.2 C 175.6 637.3 175.4 637.1 175.4 636.9 C 175.3 636.7 174.7 636.2 175.0 636.2 C 175.1 636.2 175.7 637.0 176.1 637.1 C 176.4 637.1 177.1 637.1 177.1 637.1 C 177.1 637.1 177.1 636.6 177.1 636.5 C 177.2 636.4 177.9 636.4 178.0 636.5 C 178.0 636.7 177.9 637.2 178.3 637.2 C 179.4 637.3 179.3 636.4 179.4 636.4 C 179.5 636.4 179.5 637.0 179.8 637.1 C 180.0 637.3 182.3 637.1 182.4 637.0 C 182.5 636.8 183.2 637.4 183.6 637.0 C 183.9 636.6 184.0 636.5 184.1 636.3 C 184.1 636.2 184.6 635.6 184.8 635.8 C 185.0 636.1 184.1 636.9 184.4 637.1 C 184.6 637.3 186.0 637.3 186.3 637.1 C 186.6 636.8 186.7 636.2 186.9 636.2 C 187.1 636.2 187.9 637.0 188.0 636.9 C 188.0 636.7 188.1 636.0 188.1 635.9 C 188.1 635.8 188.4 634.5 188.2 634.4 C 188.1 634.2 187.2 633.7 187.3 634.1 C 187.4 634.4 187.6 634.9 187.3 635.0 C 187.0 635.2 186.9 635.2 186.8 635.1 C 186.7 635.0 186.9 634.8 186.4 634.6 C 185.9 634.3 186.2 634.0 185.7 634.1 C 185.2 634.1 184.8 634.2 184.9 634.4 C 184.9 634.7 184.4 635.1 184.1 635.1 C 183.7 635.1 184.3 634.5 183.3 634.2 C 182.2 634.0 181.5 633.9 181.3 634.2 C 180.9 634.4 180.9 635.1 180.4 634.8 C 179.9 634.5 180.2 634.3 179.5 634.3 C 178.8 634.3 178.6 634.9 178.1 634.9 C 177.7 635.0 177.6 634.9 177.6 634.9 C 177.6 634.9 177.8 634.1 176.8 634.1 C 175.9 634.0 175.7 633.9 175.9 634.5 C 176.1 635.1 175.4 635.2 175.3 634.8 C 175.3 634.4 174.7 634.1 174.4 634.1 C 174.0 634.0 174.0 635.0 173.8 635.1 C 173.7 635.1 173.3 635.0 173.5 634.7 C 173.6 634.4 173.2 634.3 172.9 634.2 C 172.6 634.1 171.7 634.2 171.8 634.3 C 171.8 634.5 172.2 635.2 171.6 634.9 C 171.0 634.5 170.8 634.0 170.3 634.0 C 169.7 634.1 170.2 634.7 169.8 634.8 C 169.8 634.8 169.8 634.8 169.8 634.8 Z M 189.0 634.2 C 188.5 633.8 188.1 634.2 188.2 634.6 C 188.2 635.0 188.4 636.0 188.2 636.2 C 188.0 636.5 187.5 637.2 188.3 637.3 C 189.2 637.5 189.4 637.2 189.4 637.0 C 189.4 636.7 189.5 635.7 189.8 635.8 C 190.0 635.9 190.2 636.2 190.3 636.3 C 190.4 636.5 190.7 637.4 191.1 637.3 C 191.5 637.2 191.9 636.9 191.9 636.9 C 192.1 636.9 192.3 636.9 192.6 636.8 C 192.6 636.8 193.1 637.4 193.6 637.3 C 194.1 637.2 194.6 637.2 194.9 637.2 C 195.3 637.3 195.6 637.2 195.7 636.9 C 195.7 636.7 196.2 635.9 196.2 635.9 C 196.2 635.9 196.7 635.6 196.9 635.8 C 197.2 635.9 197.2 636.4 197.2 636.6 C 197.1 636.7 197.2 637.2 197.5 637.3 C 197.9 637.4 199.4 637.9 199.6 637.6 C 199.8 637.3 199.8 636.9 199.9 636.8 C 200.1 636.7 201.1 636.7 201.2 636.9 C 201.3 637.2 201.2 637.7 201.5 637.6 C 201.8 637.6 202.4 637.7 202.4 637.6 C 202.4 637.4 202.6 637.3 202.6 637.0 C 202.6 636.7 203.2 636.5 203.3 636.4 C 203.4 636.2 203.9 636.2 203.9 636.2 C 204.1 636.3 204.3 636.5 204.5 636.7 C 204.5 636.7 204.1 637.2 203.9 637.3 C 203.8 637.3 204.1 637.7 204.2 637.7 C 204.4 637.8 205.5 637.7 205.5 637.7 C 205.5 637.3 205.5 636.9 205.6 636.5 C 205.8 636.4 206.1 636.4 206.4 636.3 C 206.4 636.3 206.2 637.6 206.8 637.6 C 207.3 637.6 207.9 637.6 207.9 637.6 C 207.9 637.6 208.5 637.1 208.6 637.1 C 208.7 637.0 208.8 635.8 208.8 635.8 C 208.8 635.4 208.7 634.9 208.7 634.4 C 208.7 634.4 208.0 634.0 207.7 634.2 C 207.4 634.3 207.6 634.9 207.6 635.1 C 207.5 635.3 207.0 635.5 207.0 635.5 C 206.8 635.3 206.5 635.0 206.3 634.8 C 206.3 634.8 206.1 634.5 205.9 634.3 C 205.6 634.1 204.8 633.9 204.6 634.0 C 204.3 634.1 204.1 634.4 203.8 634.7 C 203.5 634.9 203.6 635.3 203.2 635.0 C 202.9 634.7 202.7 634.3 202.5 634.3 C 202.4 634.3 201.6 634.8 201.6 634.8 C 201.4 634.9 201.2 635.0 201.0 635.1 C 201.0 635.1 200.4 635.3 200.4 635.0 C 200.3 634.8 199.1 635.1 199.1 635.1 C 199.1 635.1 199.3 634.2 199.0 634.1 C 198.7 634.0 198.2 633.8 197.7 633.9 C 197.3 634.1 196.9 634.9 196.9 634.9 C 196.8 634.6 196.7 634.4 196.5 634.2 C 196.1 634.2 195.6 634.1 195.2 634.1 C 195.2 634.1 194.2 634.1 194.2 634.2 C 194.2 634.4 194.3 635.1 194.3 635.3 C 194.2 635.5 193.7 635.7 193.6 635.5 C 193.6 635.2 193.1 634.6 193.1 634.6 C 193.1 634.6 192.7 634.2 192.4 634.1 C 192.1 634.1 191.7 634.3 191.6 634.4 C 191.4 634.6 191.0 635.1 191.0 635.1 C 190.9 634.9 190.7 634.7 190.6 634.4 C 190.6 634.4 189.8 634.8 189.0 634.2 C 189.0 634.2 189.0 634.2 189.0 634.2 Z M 209.1 634.0 C 208.1 634.1 208.8 636.7 209.2 637.2 C 209.6 637.8 210.2 637.4 210.9 637.5 C 211.6 637.6 211.4 636.8 211.8 636.6 C 212.2 636.3 212.0 636.9 212.2 637.2 C 212.4 637.6 213.4 637.3 214.1 637.3 C 214.7 637.4 215.4 636.5 215.9 636.4 C 216.4 636.4 215.4 636.0 216.3 636.0 C 217.3 636.1 216.8 636.6 215.8 636.8 C 214.7 637.1 216.2 637.3 216.7 637.4 C 217.3 637.5 218.3 637.1 218.7 637.2 C 219.2 637.2 218.6 636.6 219.3 636.6 C 219.9 636.6 219.6 637.3 220.3 637.4 C 221.0 637.5 220.9 636.9 221.2 636.7 C 221.6 636.6 221.5 636.9 221.8 637.0 C 222.1 637.1 222.5 637.2 223.1 637.1 C 223.8 636.9 223.6 636.8 223.9 636.7 C 224.2 636.7 224.7 636.7 224.7 636.7 C 224.7 636.9 224.8 637.1 224.8 637.3 C 224.8 637.3 225.9 637.4 226.3 637.4 C 226.6 637.5 227.4 637.2 227.2 637.1 C 227.0 636.9 227.8 636.5 227.9 636.6 C 228.1 636.7 228.7 637.0 229.1 637.1 C 229.5 637.3 229.4 635.6 229.4 635.3 C 229.4 635.1 229.6 634.2 229.2 634.1 C 228.9 634.0 228.6 634.3 228.7 634.1 C 228.7 633.8 227.7 634.1 227.4 634.1 C 227.1 634.1 226.8 634.7 226.8 634.7 C 226.8 634.7 226.5 635.2 226.0 635.2 C 225.6 635.2 225.4 634.2 225.4 634.2 C 225.4 634.2 224.8 634.0 224.3 634.0 C 223.7 634.1 223.1 634.9 223.0 635.1 C 222.8 635.3 222.9 634.5 222.5 634.4 C 222.1 634.3 221.5 634.1 221.3 634.1 C 221.1 634.2 220.9 634.7 220.9 634.7 C 220.9 634.7 220.1 635.0 219.9 635.0 C 219.8 635.0 220.1 634.2 220.1 634.2 C 220.1 634.2 218.5 634.0 218.2 634.0 C 217.9 633.9 217.4 634.1 217.1 634.1 C 216.9 634.2 216.6 635.2 216.2 635.1 C 215.9 635.0 216.6 634.5 216.2 634.4 C 215.9 634.3 215.3 634.1 215.1 634.1 C 214.9 634.1 214.7 634.4 214.4 634.5 C 214.1 634.5 213.7 635.2 213.3 635.2 C 212.8 635.2 212.6 634.8 212.4 634.7 C 212.2 634.6 212.1 634.0 211.8 633.9 C 211.4 633.9 211.7 634.4 211.3 634.4 C 211.0 634.4 211.0 634.8 210.6 634.7 C 210.3 634.6 210.5 633.9 210.1 634.0 C 210.0 634.0 210.1 634.0 209.1 634.0 C 209.1 634.0 209.1 634.0 209.1 634.0 Z M 230.1 634.2 C 229.6 633.8 229.2 634.2 229.2 634.6 C 229.3 635.0 229.5 636.0 229.3 636.2 C 229.1 636.5 228.5 637.2 229.4 637.3 C 230.3 637.5 230.4 637.2 230.4 637.0 C 230.4 636.7 230.6 635.7 230.8 635.8 C 231.1 635.9 231.3 636.2 231.4 636.3 C 231.4 636.5 231.8 637.4 232.2 637.3 C 232.6 637.2 233.0 636.9 233.0 636.9 C 233.2 636.9 233.4 636.9 233.6 636.8 C 233.6 636.8 234.2 637.4 234.7 637.3 C 235.1 637.2 235.6 637.2 236.0 637.2 C 236.3 637.3 236.7 637.2 236.7 636.9 C 236.8 636.7 237.3 635.9 237.3 635.9 C 237.3 635.9 237.8 635.6 238.0 635.8 C 238.2 635.9 238.3 636.4 238.2 636.6 C 238.2 636.7 238.2 637.2 238.6 637.3 C 238.9 637.4 240.4 637.9 240.7 637.6 C 240.9 637.3 240.8 636.9 241.0 636.8 C 241.2 636.7 242.2 636.7 242.3 636.9 C 242.4 637.2 242.3 637.7 242.6 637.6 C 242.9 637.6 243.5 637.7 243.5 637.6 C 243.5 637.4 243.6 637.3 243.7 637.0 C 243.7 636.7 244.3 636.5 244.4 636.4 C 244.5 636.2 245.0 636.2 245.0 636.2 C 245.1 636.3 245.3 636.5 245.5 636.7 C 245.5 636.7 245.2 637.2 245.0 637.3 C 244.8 637.3 245.1 637.7 245.3 637.7 C 245.5 637.8 246.6 637.7 246.6 637.7 C 246.6 637.3 246.6 636.9 246.6 636.5 C 246.9 636.4 247.2 636.4 247.4 636.3 C 247.4 636.3 247.3 637.6 247.8 637.6 C 248.4 637.6 249.0 637.6 249.0 637.6 C 249.0 637.6 249.5 637.1 249.7 637.1 C 249.8 637.0 249.9 635.8 249.9 635.8 C 249.8 635.4 249.8 634.9 249.8 634.4 C 249.8 634.4 249.1 634.0 248.8 634.2 C 248.4 634.3 248.7 634.9 248.7 635.1 C 248.6 635.3 248.1 635.5 248.1 635.5 C 247.8 635.3 247.6 635.0 247.4 634.8 C 247.4 634.8 247.1 634.5 246.9 634.3 C 246.7 634.1 245.9 633.9 245.6 634.0 C 245.4 634.1 245.2 634.4 244.9 634.7 C 244.6 634.9 244.7 635.3 244.3 635.0 C 244.0 634.7 243.8 634.3 243.6 634.3 C 243.5 634.3 242.7 634.8 242.7 634.8 C 242.5 634.9 242.3 635.0 242.1 635.1 C 242.1 635.1 241.5 635.3 241.4 635.0 C 241.4 634.8 240.2 635.1 240.2 635.1 C 240.2 635.1 240.3 634.2 240.0 634.1 C 239.8 634.0 239.3 633.8 238.8 633.9 C 238.4 634.1 238.0 634.9 238.0 634.9 C 237.9 634.6 237.7 634.4 237.6 634.2 C 237.1 634.2 236.7 634.1 236.3 634.1 C 236.3 634.1 235.3 634.1 235.3 634.2 C 235.3 634.4 235.4 635.1 235.4 635.3 C 235.3 635.5 234.8 635.7 234.7 635.5 C 234.7 635.2 234.2 634.6 234.2 634.6 C 234.2 634.6 233.8 634.2 233.5 634.1 C 233.2 634.1 232.8 634.3 232.6 634.4 C 232.5 634.6 232.1 635.1 232.1 635.1 C 231.9 634.9 231.8 634.7 231.7 634.4 C 231.7 634.4 230.9 634.8 230.1 634.2 C 230.1 634.2 230.1 634.2 230.1 634.2 Z M 250.2 634.0 C 249.2 634.1 249.8 636.7 250.2 637.2 C 250.6 637.8 251.3 637.4 252.0 637.5 C 252.7 637.6 252.5 636.8 252.9 636.6 C 253.3 636.3 253.1 636.9 253.3 637.2 C 253.5 637.6 254.5 637.3 255.1 637.3 C 255.8 637.4 256.4 636.5 257.0 636.4 C 257.5 636.4 256.5 636.0 257.4 636.0 C 258.3 636.1 257.9 636.6 256.8 636.8 C 255.8 637.1 257.2 637.3 257.8 637.4 C 258.4 637.5 259.4 637.1 259.8 637.2 C 260.3 637.2 259.7 636.6 260.4 636.6 C 261.0 636.6 260.7 637.3 261.4 637.4 C 262.0 637.5 261.9 636.9 262.3 636.7 C 262.6 636.6 262.6 636.9 262.8 637.0 C 263.1 637.1 263.6 637.2 264.2 637.1 C 264.8 636.9 264.7 636.8 265.0 636.7 C 265.2 636.7 265.8 636.7 265.8 636.7 C 265.8 636.9 265.8 637.1 265.9 637.3 C 265.9 637.3 267.0 637.4 267.3 637.4 C 267.7 637.5 268.5 637.2 268.3 637.1 C 268.1 636.9 268.8 636.5 269.0 636.6 C 269.2 636.7 269.7 637.0 270.1 637.1 C 270.5 637.3 270.4 635.6 270.4 635.3 C 270.4 635.1 270.7 634.2 270.3 634.1 C 270.0 634.0 269.7 634.3 269.7 634.1 C 269.8 633.8 268.8 634.1 268.5 634.1 C 268.2 634.1 267.9 634.7 267.9 634.7 C 267.9 634.7 267.6 635.2 267.1 635.2 C 266.7 635.2 266.5 634.2 266.5 634.2 C 266.5 634.2 265.9 634.0 265.4 634.0 C 264.8 634.1 264.2 634.9 264.0 635.1 C 263.9 635.3 263.9 634.5 263.5 634.4 C 263.1 634.3 262.6 634.1 262.4 634.1 C 262.2 634.2 261.9 634.7 261.9 634.7 C 261.9 634.7 261.2 635.0 261.0 635.0 C 260.8 635.0 261.1 634.2 261.1 634.2 C 261.1 634.2 259.6 634.0 259.3 634.0 C 258.9 633.9 258.4 634.1 258.2 634.1 C 258.0 634.2 257.6 635.2 257.3 635.1 C 257.0 635.0 257.6 634.5 257.3 634.4 C 257.0 634.3 256.3 634.1 256.2 634.1 C 256.0 634.1 255.8 634.4 255.5 634.5 C 255.2 634.5 254.8 635.2 254.3 635.2 C 253.9 635.2 253.7 634.8 253.5 634.7 C 253.3 634.6 253.2 634.0 252.8 633.9 C 252.5 633.9 252.7 634.4 252.4 634.4 C 252.1 634.4 252.1 634.8 251.7 634.7 C 251.4 634.6 251.6 633.9 251.2 634.0 C 251.0 634.0 251.2 634.0 250.2 634.0 C 250.2 634.0 250.2 634.0 250.2 634.0 Z M 271.2 634.2 C 270.7 633.8 270.2 634.2 270.3 634.6 C 270.4 635.0 270.5 636.0 270.4 636.2 C 270.2 636.5 269.6 637.2 270.5 637.3 C 271.3 637.5 271.5 637.2 271.5 637.0 C 271.5 636.7 271.7 635.7 271.9 635.8 C 272.1 635.9 272.4 636.2 272.4 636.3 C 272.5 636.5 272.8 637.4 273.3 637.3 C 273.7 637.2 274.1 636.9 274.1 636.9 C 274.3 636.9 274.5 636.9 274.7 636.8 C 274.7 636.8 275.3 637.4 275.7 637.3 C 276.2 637.2 276.7 637.2 277.1 637.2 C 277.4 637.3 277.8 637.2 277.8 636.9 C 277.9 636.7 278.3 635.9 278.3 635.9 C 278.3 635.9 278.9 635.6 279.1 635.8 C 279.3 635.9 279.4 636.4 279.3 636.6 C 279.3 636.7 279.3 637.2 279.7 637.3 C 280.0 637.4 281.5 637.9 281.7 637.6 C 282.0 637.3 281.9 636.9 282.1 636.8 C 282.3 636.7 283.3 636.7 283.3 636.9 C 283.4 637.2 283.4 637.7 283.7 637.6 C 283.9 637.6 284.5 637.7 284.5 637.6 C 284.5 637.4 284.7 637.3 284.7 637.0 C 284.8 636.7 285.3 636.5 285.4 636.4 C 285.6 636.2 286.0 636.2 286.0 636.2 C 286.2 636.3 286.4 636.5 286.6 636.7 C 286.6 636.7 286.3 637.2 286.1 637.3 C 285.9 637.3 286.2 637.7 286.4 637.7 C 286.5 637.8 287.6 637.7 287.6 637.7 C 287.7 637.3 287.7 636.9 287.7 636.5 C 288.0 636.4 288.2 636.4 288.5 636.3 C 288.5 636.3 288.4 637.6 288.9 637.6 C 289.4 637.6 290.1 637.6 290.1 637.6 C 290.1 637.6 290.6 637.1 290.7 637.1 C 290.9 637.0 290.9 635.8 290.9 635.8 C 290.9 635.4 290.9 634.9 290.8 634.4 C 290.8 634.4 290.2 634.0 289.8 634.2 C 289.5 634.3 289.8 634.9 289.7 635.1 C 289.7 635.3 289.2 635.5 289.2 635.5 C 288.9 635.3 288.7 635.0 288.4 634.8 C 288.4 634.8 288.2 634.5 288.0 634.3 C 287.8 634.1 287.0 633.9 286.7 634.0 C 286.5 634.1 286.3 634.4 286.0 634.7 C 285.7 634.9 285.7 635.3 285.4 635.0 C 285.0 634.7 284.9 634.3 284.7 634.3 C 284.5 634.3 283.8 634.8 283.8 634.8 C 283.6 634.9 283.4 635.0 283.1 635.1 C 283.1 635.1 282.6 635.3 282.5 635.0 C 282.4 634.8 281.3 635.1 281.3 635.1 C 281.3 635.1 281.4 634.2 281.1 634.1 C 280.8 634.0 280.4 633.8 279.9 633.9 C 279.4 634.1 279.1 634.9 279.1 634.9 C 278.9 634.6 278.8 634.4 278.7 634.2 C 278.2 634.2 277.8 634.1 277.4 634.1 C 277.4 634.1 276.4 634.1 276.4 634.2 C 276.4 634.4 276.5 635.1 276.4 635.3 C 276.4 635.5 275.9 635.7 275.8 635.5 C 275.7 635.2 275.3 634.6 275.3 634.6 C 275.3 634.6 274.9 634.2 274.6 634.1 C 274.3 634.1 273.8 634.3 273.7 634.4 C 273.6 634.6 273.1 635.1 273.1 635.1 C 273.0 634.9 272.9 634.7 272.8 634.4 C 272.8 634.4 272.0 634.8 271.2 634.2 C 271.2 634.2 271.2 634.2 271.2 634.2 Z M 291.3 634.0 C 290.2 634.1 290.9 636.7 291.3 637.2 C 291.7 637.8 292.4 637.4 293.1 637.5 C 293.8 637.6 293.5 636.8 293.9 636.6 C 294.3 636.3 294.2 636.9 294.4 637.2 C 294.5 637.6 295.6 637.3 296.2 637.3 C 296.8 637.4 297.5 636.5 298.0 636.4 C 298.5 636.4 297.6 636.0 298.5 636.0 C 299.4 636.1 299.0 636.6 297.9 636.8 C 296.9 637.1 298.3 637.3 298.9 637.4 C 299.5 637.5 300.4 637.1 300.9 637.2 C 301.3 637.2 300.8 636.6 301.4 636.6 C 302.1 636.6 301.8 637.3 302.4 637.4 C 303.1 637.5 303.0 636.9 303.4 636.7 C 303.7 636.6 303.6 636.9 303.9 637.0 C 304.2 637.1 304.7 637.2 305.3 637.1 C 305.9 636.9 305.7 636.8 306.0 636.7 C 306.3 636.7 306.8 636.7 306.8 636.7 C 306.9 636.9 306.9 637.1 306.9 637.3 C 306.9 637.3 308.1 637.4 308.4 637.4 C 308.8 637.5 309.5 637.2 309.3 637.1 C 309.1 636.9 309.9 636.5 310.1 636.6 C 310.2 636.7 310.8 637.0 311.2 637.1 C 311.6 637.3 311.5 635.6 311.5 635.3 C 311.5 635.1 311.7 634.2 311.4 634.1 C 311.0 634.0 310.8 634.3 310.8 634.1 C 310.9 633.8 309.8 634.1 309.6 634.1 C 309.3 634.1 308.9 634.7 308.9 634.7 C 308.9 634.7 308.7 635.2 308.2 635.2 C 307.7 635.2 307.6 634.2 307.6 634.2 C 307.6 634.2 307.0 634.0 306.4 634.0 C 305.9 634.1 305.2 634.9 305.1 635.1 C 305.0 635.3 305.0 634.5 304.6 634.4 C 304.2 634.3 303.6 634.1 303.5 634.1 C 303.3 634.2 303.0 634.7 303.0 634.7 C 303.0 634.7 302.3 635.0 302.1 635.0 C 301.9 635.0 302.2 634.2 302.2 634.2 C 302.2 634.2 300.7 634.0 300.3 634.0 C 300.0 633.9 299.5 634.1 299.3 634.1 C 299.1 634.2 298.7 635.2 298.4 635.1 C 298.0 635.0 298.7 634.5 298.4 634.4 C 298.0 634.3 297.4 634.1 297.2 634.1 C 297.1 634.1 296.8 634.4 296.6 634.5 C 296.3 634.5 295.9 635.2 295.4 635.2 C 295.0 635.2 294.7 634.8 294.6 634.7 C 294.4 634.6 294.3 634.0 293.9 633.9 C 293.6 633.9 293.8 634.4 293.5 634.4 C 293.1 634.4 293.1 634.8 292.8 634.7 C 292.4 634.6 292.7 633.9 292.3 634.0 C 292.1 634.0 292.3 634.0 291.3 634.0 C 291.3 634.0 291.3 634.0 291.3 634.0 Z M 313.6 634.8 C 313.4 634.9 313.2 634.4 312.6 634.3 C 312.1 634.1 311.4 634.1 311.5 634.4 C 311.6 634.7 311.8 634.9 311.5 635.3 C 311.2 635.7 310.9 636.4 311.3 636.7 C 311.7 637.0 313.3 637.7 313.8 637.3 C 314.3 636.9 314.4 636.8 314.8 636.5 C 315.2 636.3 314.9 637.1 314.9 637.1 C 314.9 637.1 315.8 637.2 316.4 637.2 C 317.0 637.3 317.7 637.3 317.8 637.2 C 317.9 637.1 318.1 636.8 318.1 636.8 C 318.1 636.8 318.4 637.1 318.9 637.2 C 319.4 637.3 319.2 637.1 319.1 636.9 C 319.1 636.7 318.5 636.2 318.7 636.2 C 318.9 636.2 319.5 637.0 319.8 637.1 C 320.2 637.1 320.9 637.1 320.9 637.1 C 320.9 637.1 320.8 636.6 320.9 636.5 C 321.0 636.4 321.7 636.4 321.7 636.5 C 321.8 636.7 321.7 637.2 322.1 637.2 C 323.2 637.3 323.0 636.4 323.2 636.4 C 323.2 636.4 323.2 637.0 323.5 637.1 C 323.8 637.3 326.0 637.1 326.1 637.0 C 326.2 636.8 327.0 637.4 327.3 637.0 C 327.7 636.6 327.8 636.5 327.8 636.3 C 327.9 636.2 328.3 635.6 328.5 635.8 C 328.7 636.1 327.9 636.9 328.1 637.1 C 328.4 637.3 329.8 637.3 330.0 637.1 C 330.4 636.8 330.5 636.2 330.6 636.2 C 330.8 636.2 331.6 637.0 331.7 636.9 C 331.8 636.7 331.9 636.0 331.9 635.9 C 331.9 635.8 332.1 634.5 332.0 634.4 C 331.8 634.2 331.0 633.7 331.1 634.1 C 331.2 634.4 331.4 634.9 331.1 635.0 C 330.8 635.2 330.6 635.2 330.5 635.1 C 330.5 635.0 330.6 634.8 330.1 634.6 C 329.7 634.3 329.9 634.0 329.5 634.1 C 329.0 634.1 328.6 634.2 328.6 634.4 C 328.7 634.7 328.2 635.1 327.8 635.1 C 327.5 635.1 328.1 634.5 327.0 634.2 C 326.0 634.0 325.3 633.9 325.0 634.2 C 324.7 634.4 324.6 635.1 324.1 634.8 C 323.7 634.5 323.9 634.3 323.2 634.3 C 322.6 634.3 322.3 634.9 321.9 634.9 C 321.5 635.0 321.3 634.9 321.3 634.9 C 321.3 634.9 321.6 634.1 320.6 634.1 C 319.6 634.0 319.4 633.9 319.6 634.5 C 319.8 635.1 319.1 635.2 319.1 634.8 C 319.0 634.4 318.5 634.1 318.1 634.1 C 317.8 634.0 317.7 635.0 317.6 635.1 C 317.4 635.1 317.1 635.0 317.2 634.7 C 317.4 634.4 317.0 634.3 316.7 634.2 C 316.4 634.1 315.5 634.2 315.5 634.3 C 315.5 634.5 316.0 635.2 315.4 634.9 C 314.8 634.5 314.6 634.0 314.0 634.0 C 313.5 634.1 314.0 634.7 313.6 634.8 C 313.6 634.8 313.6 634.8 313.6 634.8 Z M 332.8 634.2 C 332.3 633.8 331.9 634.2 331.9 634.6 C 332.0 635.0 332.1 636.0 332.0 636.2 C 331.8 636.5 331.2 637.2 332.1 637.3 C 332.9 637.5 333.1 637.2 333.1 637.0 C 333.1 636.7 333.3 635.7 333.5 635.8 C 333.8 635.9 334.0 636.2 334.1 636.3 C 334.1 636.5 334.4 637.4 334.9 637.3 C 335.3 637.2 335.7 636.9 335.7 636.9 C 335.9 636.9 336.1 636.9 336.3 636.8 C 336.3 636.8 336.9 637.4 337.3 637.3 C 337.8 637.2 338.3 637.2 338.7 637.2 C 339.0 637.3 339.4 637.2 339.4 636.9 C 339.5 636.7 339.9 635.9 339.9 635.9 C 339.9 635.9 340.5 635.6 340.7 635.8 C 340.9 635.9 341.0 636.4 340.9 636.6 C 340.9 636.7 340.9 637.2 341.3 637.3 C 341.6 637.4 343.1 637.9 343.4 637.6 C 343.6 637.3 343.5 636.9 343.7 636.8 C 343.9 636.7 344.9 636.7 345.0 636.9 C 345.0 637.2 345.0 637.7 345.3 637.6 C 345.6 637.6 346.1 637.7 346.1 637.6 C 346.1 637.4 346.3 637.3 346.3 637.0 C 346.4 636.7 346.9 636.5 347.1 636.4 C 347.2 636.2 347.6 636.2 347.6 636.2 C 347.8 636.3 348.0 636.5 348.2 636.7 C 348.2 636.7 347.9 637.2 347.7 637.3 C 347.5 637.3 347.8 637.7 348.0 637.7 C 348.2 637.8 349.3 637.7 349.3 637.7 C 349.3 637.3 349.3 636.9 349.3 636.5 C 349.6 636.4 349.8 636.4 350.1 636.3 C 350.1 636.3 350.0 637.6 350.5 637.6 C 351.0 637.6 351.7 637.6 351.7 637.6 C 351.7 637.6 352.2 637.1 352.4 637.1 C 352.5 637.0 352.6 635.8 352.6 635.8 C 352.5 635.4 352.5 634.9 352.4 634.4 C 352.4 634.4 351.8 634.0 351.5 634.2 C 351.1 634.3 351.4 634.9 351.3 635.1 C 351.3 635.3 350.8 635.5 350.8 635.5 C 350.5 635.3 350.3 635.0 350.0 634.8 C 350.0 634.8 349.8 634.5 349.6 634.3 C 349.4 634.1 348.6 633.9 348.3 634.0 C 348.1 634.1 347.9 634.4 347.6 634.7 C 347.3 634.9 347.3 635.3 347.0 635.0 C 346.7 634.7 346.5 634.3 346.3 634.3 C 346.1 634.3 345.4 634.8 345.4 634.8 C 345.2 634.9 345.0 635.0 344.7 635.1 C 344.7 635.1 344.2 635.3 344.1 635.0 C 344.0 634.8 342.9 635.1 342.9 635.1 C 342.9 635.1 343.0 634.2 342.7 634.1 C 342.4 634.0 342.0 633.8 341.5 633.9 C 341.0 634.1 340.7 634.9 340.7 634.9 C 340.6 634.6 340.4 634.4 340.3 634.2 C 339.8 634.2 339.4 634.1 339.0 634.1 C 339.0 634.1 338.0 634.1 338.0 634.2 C 338.0 634.4 338.1 635.1 338.0 635.3 C 338.0 635.5 337.5 635.7 337.4 635.5 C 337.3 635.2 336.9 634.6 336.9 634.6 C 336.9 634.6 336.5 634.2 336.2 634.1 C 335.9 634.1 335.4 634.3 335.3 634.4 C 335.2 634.6 334.7 635.1 334.7 635.1 C 334.6 634.9 334.5 634.7 334.4 634.4 C 334.4 634.4 333.6 634.8 332.8 634.2 C 332.8 634.2 332.8 634.2 332.8 634.2 Z M 352.9 634.0 C 351.8 634.1 352.5 636.7 352.9 637.2 C 353.3 637.8 354.0 637.4 354.7 637.5 C 355.4 637.6 355.1 636.8 355.5 636.6 C 355.9 636.3 355.8 636.9 356.0 637.2 C 356.1 637.6 357.2 637.3 357.8 637.3 C 358.5 637.4 359.1 636.5 359.6 636.4 C 360.1 636.4 359.2 636.0 360.1 636.0 C 361.0 636.1 360.6 636.6 359.5 636.8 C 358.5 637.1 359.9 637.3 360.5 637.4 C 361.1 637.5 362.0 637.1 362.5 637.2 C 363.0 637.2 362.4 636.6 363.0 636.6 C 363.7 636.6 363.4 637.3 364.0 637.4 C 364.7 637.5 364.6 636.9 365.0 636.7 C 365.3 636.6 365.2 636.9 365.5 637.0 C 365.8 637.1 366.3 637.2 366.9 637.1 C 367.5 636.9 367.4 636.8 367.6 636.7 C 367.9 636.7 368.4 636.7 368.4 636.7 C 368.5 636.9 368.5 637.1 368.5 637.3 C 368.5 637.3 369.7 637.4 370.0 637.4 C 370.4 637.5 371.2 637.2 370.9 637.1 C 370.7 636.9 371.5 636.5 371.7 636.6 C 371.9 636.7 372.4 637.0 372.8 637.1 C 373.2 637.3 373.1 635.6 373.1 635.3 C 373.1 635.1 373.3 634.2 373.0 634.1 C 372.7 634.0 372.4 634.3 372.4 634.1 C 372.5 633.8 371.5 634.1 371.2 634.1 C 370.9 634.1 370.5 634.7 370.5 634.7 C 370.5 634.7 370.3 635.2 369.8 635.2 C 369.3 635.2 369.2 634.2 369.2 634.2 C 369.2 634.2 368.6 634.0 368.0 634.0 C 367.5 634.1 366.8 634.9 366.7 635.1 C 366.6 635.3 366.6 634.5 366.2 634.4 C 365.8 634.3 365.2 634.1 365.1 634.1 C 364.9 634.2 364.6 634.7 364.6 634.7 C 364.6 634.7 363.9 635.0 363.7 635.0 C 363.5 635.0 363.8 634.2 363.8 634.2 C 363.8 634.2 362.3 634.0 362.0 634.0 C 361.6 633.9 361.1 634.1 360.9 634.1 C 360.7 634.2 360.3 635.2 360.0 635.1 C 359.6 635.0 360.3 634.5 360.0 634.4 C 359.6 634.3 359.0 634.1 358.9 634.1 C 358.7 634.1 358.5 634.4 358.2 634.5 C 357.9 634.5 357.5 635.2 357.0 635.2 C 356.6 635.2 356.3 634.8 356.2 634.7 C 356.0 634.6 355.9 634.0 355.5 633.9 C 355.2 633.9 355.4 634.4 355.1 634.4 C 354.7 634.4 354.7 634.8 354.4 634.7 C 354.1 634.6 354.3 633.9 353.9 634.0 C 353.7 634.0 353.9 634.0 352.9 634.0 C 352.9 634.0 352.9 634.0 352.9 634.0 Z M 373.8 634.2 C 373.4 633.8 372.9 634.2 373.0 634.6 C 373.0 635.0 373.2 636.0 373.0 636.2 C 372.9 636.5 372.3 637.2 373.2 637.3 C 374.0 637.5 374.2 637.2 374.2 637.0 C 374.2 636.7 374.4 635.7 374.6 635.8 C 374.8 635.9 375.1 636.2 375.1 636.3 C 375.2 636.5 375.5 637.4 375.9 637.3 C 376.4 637.2 376.7 636.9 376.7 636.9 C 377.0 636.9 377.2 636.9 377.4 636.8 C 377.4 636.8 378.0 637.4 378.4 637.3 C 378.9 637.2 379.4 637.2 379.8 637.2 C 380.1 637.3 380.4 637.2 380.5 636.9 C 380.6 636.7 381.0 635.9 381.0 635.9 C 381.0 635.9 381.5 635.6 381.8 635.8 C 382.0 635.9 382.1 636.4 382.0 636.6 C 381.9 636.7 382.0 637.2 382.3 637.3 C 382.7 637.4 384.2 637.9 384.4 637.6 C 384.7 637.3 384.6 636.9 384.8 636.8 C 384.9 636.7 385.9 636.7 386.0 636.9 C 386.1 637.2 386.1 637.7 386.3 637.6 C 386.6 637.6 387.2 637.7 387.2 637.6 C 387.2 637.4 387.4 637.3 387.4 637.0 C 387.4 636.7 388.0 636.5 388.1 636.4 C 388.2 636.2 388.7 636.2 388.7 636.2 C 388.9 636.3 389.1 636.5 389.3 636.7 C 389.3 636.7 388.9 637.2 388.8 637.3 C 388.6 637.3 388.9 637.7 389.1 637.7 C 389.2 637.8 390.3 637.7 390.3 637.7 C 390.3 637.3 390.4 636.9 390.4 636.5 C 390.7 636.4 390.9 636.4 391.2 636.3 C 391.2 636.3 391.1 637.6 391.6 637.6 C 392.1 637.6 392.8 637.6 392.8 637.6 C 392.8 637.6 393.3 637.1 393.4 637.1 C 393.6 637.0 393.6 635.8 393.6 635.8 C 393.6 635.4 393.5 634.9 393.5 634.4 C 393.5 634.4 392.9 634.0 392.5 634.2 C 392.2 634.3 392.5 634.9 392.4 635.1 C 392.4 635.3 391.8 635.5 391.8 635.5 C 391.6 635.3 391.4 635.0 391.1 634.8 C 391.1 634.8 390.9 634.5 390.7 634.3 C 390.4 634.1 389.6 633.9 389.4 634.0 C 389.2 634.1 388.9 634.4 388.7 634.7 C 388.4 634.9 388.4 635.3 388.1 635.0 C 387.7 634.7 387.6 634.3 387.4 634.3 C 387.2 634.3 386.5 634.8 386.5 634.8 C 386.2 634.9 386.0 635.0 385.8 635.1 C 385.8 635.1 385.3 635.3 385.2 635.0 C 385.1 634.8 384.0 635.1 384.0 635.1 C 384.0 635.1 384.1 634.2 383.8 634.1 C 383.5 634.0 383.0 633.8 382.6 633.9 C 382.1 634.1 381.8 634.9 381.8 634.9 C 381.6 634.6 381.5 634.4 381.3 634.2 C 380.9 634.2 380.5 634.1 380.0 634.1 C 380.0 634.1 379.1 634.1 379.1 634.2 C 379.1 634.4 379.2 635.1 379.1 635.3 C 379.1 635.5 378.5 635.7 378.5 635.5 C 378.4 635.2 378.0 634.6 378.0 634.6 C 378.0 634.6 377.6 634.2 377.3 634.1 C 377.0 634.1 376.5 634.3 376.4 634.4 C 376.3 634.6 375.8 635.1 375.8 635.1 C 375.7 634.9 375.6 634.7 375.4 634.4 C 375.4 634.4 374.7 634.8 373.8 634.2 C 373.8 634.2 373.8 634.2 373.8 634.2 Z M 395.7 634.8 C 395.5 634.9 395.3 634.4 394.8 634.3 C 394.2 634.1 393.5 634.1 393.7 634.4 C 393.8 634.7 394.0 634.9 393.7 635.3 C 393.4 635.7 393.1 636.4 393.4 636.7 C 393.8 637.0 395.4 637.7 395.9 637.3 C 396.4 636.9 396.6 636.8 396.9 636.5 C 397.3 636.3 397.1 637.1 397.1 637.1 C 397.1 637.1 397.9 637.2 398.5 637.2 C 399.2 637.3 399.9 637.3 400.0 637.2 C 400.0 637.1 400.3 636.8 400.3 636.8 C 400.3 636.8 400.6 637.1 401.1 637.2 C 401.5 637.3 401.4 637.1 401.3 636.9 C 401.2 636.7 400.6 636.2 400.9 636.2 C 401.1 636.2 401.6 637.0 402.0 637.1 C 402.3 637.1 403.0 637.1 403.0 637.1 C 403.0 637.1 403.0 636.6 403.0 636.5 C 403.1 636.4 403.8 636.4 403.9 636.5 C 403.9 636.7 403.8 637.2 404.2 637.2 C 405.4 637.3 405.2 636.4 405.3 636.4 C 405.4 636.4 405.4 637.0 405.7 637.1 C 405.9 637.3 408.2 637.1 408.3 637.0 C 408.4 636.8 409.1 637.4 409.5 637.0 C 409.8 636.6 409.9 636.5 410.0 636.3 C 410.0 636.2 410.5 635.6 410.7 635.8 C 410.9 636.1 410.0 636.9 410.3 637.1 C 410.5 637.3 411.9 637.3 412.2 637.1 C 412.5 636.8 412.6 636.2 412.8 636.2 C 413.0 636.2 413.8 637.0 413.9 636.9 C 413.9 636.7 414.0 636.0 414.0 635.9 C 414.0 635.8 414.3 634.5 414.1 634.4 C 414.0 634.2 413.1 633.7 413.2 634.1 C 413.3 634.4 413.5 634.9 413.2 635.0 C 412.9 635.2 412.8 635.2 412.7 635.1 C 412.6 635.0 412.8 634.8 412.3 634.6 C 411.8 634.3 412.1 634.0 411.6 634.1 C 411.1 634.1 410.7 634.2 410.8 634.4 C 410.8 634.7 410.3 635.1 410.0 635.1 C 409.6 635.1 410.2 634.5 409.2 634.2 C 408.1 634.0 407.4 633.9 407.2 634.2 C 406.9 634.4 406.8 635.1 406.3 634.8 C 405.8 634.5 406.1 634.3 405.4 634.3 C 404.7 634.3 404.5 634.9 404.0 634.9 C 403.6 635.0 403.5 634.9 403.5 634.9 C 403.5 634.9 403.7 634.1 402.7 634.1 C 401.8 634.0 401.6 633.9 401.8 634.5 C 402.0 635.1 401.3 635.2 401.2 634.8 C 401.2 634.4 400.6 634.1 400.3 634.1 C 400.0 634.0 399.9 635.0 399.7 635.1 C 399.6 635.1 399.2 635.0 399.4 634.7 C 399.5 634.4 399.1 634.3 398.8 634.2 C 398.5 634.1 397.6 634.2 397.7 634.3 C 397.7 634.5 398.1 635.2 397.5 634.9 C 396.9 634.5 396.7 634.0 396.2 634.0 C 395.6 634.1 396.1 634.7 395.7 634.8 C 395.7 634.8 395.7 634.8 395.7 634.8 Z M 414.9 634.2 C 414.4 633.8 414.0 634.2 414.1 634.6 C 414.1 635.0 414.3 636.0 414.1 636.2 C 413.9 636.5 413.4 637.2 414.2 637.3 C 415.1 637.5 415.3 637.2 415.3 637.0 C 415.3 636.7 415.4 635.7 415.7 635.8 C 415.9 635.9 416.1 636.2 416.2 636.3 C 416.3 636.5 416.6 637.4 417.0 637.3 C 417.4 637.2 417.8 636.9 417.8 636.9 C 418.0 636.9 418.2 636.9 418.5 636.8 C 418.5 636.8 419.0 637.4 419.5 637.3 C 420.0 637.2 420.5 637.2 420.8 637.2 C 421.2 637.3 421.5 637.2 421.6 636.9 C 421.6 636.7 422.1 635.9 422.1 635.9 C 422.1 635.9 422.6 635.6 422.8 635.8 C 423.1 635.9 423.1 636.4 423.1 636.6 C 423.0 636.7 423.1 637.2 423.4 637.3 C 423.8 637.4 425.3 637.9 425.5 637.6 C 425.7 637.3 425.7 636.9 425.9 636.8 C 426.0 636.7 427.0 636.7 427.1 636.9 C 427.2 637.2 427.1 637.7 427.4 637.6 C 427.7 637.6 428.3 637.7 428.3 637.6 C 428.3 637.4 428.5 637.3 428.5 637.0 C 428.5 636.7 429.1 636.5 429.2 636.4 C 429.3 636.2 429.8 636.2 429.8 636.2 C 430.0 636.3 430.2 636.5 430.4 636.7 C 430.4 636.7 430.0 637.2 429.8 637.3 C 429.7 637.3 430.0 637.7 430.1 637.7 C 430.3 637.8 431.4 637.7 431.4 637.7 C 431.4 637.3 431.4 636.9 431.5 636.5 C 431.7 636.4 432.0 636.4 432.3 636.3 C 432.3 636.3 432.2 637.6 432.7 637.6 C 433.2 637.6 433.8 637.6 433.8 637.6 C 433.8 637.6 434.4 637.1 434.5 637.1 C 434.6 637.0 434.7 635.8 434.7 635.8 C 434.7 635.4 434.6 634.9 434.6 634.4 C 434.6 634.4 433.9 634.0 433.6 634.2 C 433.3 634.3 433.5 634.9 433.5 635.1 C 433.4 635.3 432.9 635.5 432.9 635.5 C 432.7 635.3 432.4 635.0 432.2 634.8 C 432.2 634.8 432.0 634.5 431.8 634.3 C 431.5 634.1 430.7 633.9 430.5 634.0 C 430.2 634.1 430.0 634.4 429.7 634.7 C 429.4 634.9 429.5 635.3 429.2 635.0 C 428.8 634.7 428.6 634.3 428.5 634.3 C 428.3 634.3 427.5 634.8 427.5 634.8 C 427.3 634.9 427.1 635.0 426.9 635.1 C 426.9 635.1 426.3 635.3 426.3 635.0 C 426.2 634.8 425.0 635.1 425.0 635.1 C 425.0 635.1 425.2 634.2 424.9 634.1 C 424.6 634.0 424.1 633.8 423.7 633.9 C 423.2 634.1 422.8 634.9 422.8 634.9 C 422.7 634.6 422.6 634.4 422.4 634.2 C 422.0 634.2 421.6 634.1 421.1 634.1 C 421.1 634.1 420.1 634.1 420.1 634.2 C 420.1 634.4 420.2 635.1 420.2 635.3 C 420.1 635.5 419.6 635.7 419.5 635.5 C 419.5 635.2 419.0 634.6 419.0 634.6 C 419.0 634.6 418.6 634.2 418.3 634.1 C 418.0 634.1 417.6 634.3 417.5 634.4 C 417.4 634.6 416.9 635.1 416.9 635.1 C 416.8 634.9 416.6 634.7 416.5 634.4 C 416.5 634.4 415.7 634.8 414.9 634.2 C 414.9 634.2 414.9 634.2 414.9 634.2 Z M 436.8 634.8 C 436.6 634.9 436.4 634.4 435.9 634.3 C 435.3 634.1 434.6 634.1 434.7 634.4 C 434.9 634.7 435.1 634.9 434.8 635.3 C 434.5 635.7 434.1 636.4 434.5 636.7 C 434.9 637.0 436.5 637.7 437.0 637.3 C 437.5 636.9 437.6 636.8 438.0 636.5 C 438.4 636.3 438.1 637.1 438.1 637.1 C 438.1 637.1 439.0 637.2 439.6 637.2 C 440.2 637.3 441.0 637.3 441.0 637.2 C 441.1 637.1 441.3 636.8 441.3 636.8 C 441.3 636.8 441.7 637.1 442.1 637.2 C 442.6 637.3 442.4 637.1 442.4 636.9 C 442.3 636.7 441.7 636.2 441.9 636.2 C 442.1 636.2 442.7 637.0 443.1 637.1 C 443.4 637.1 444.1 637.1 444.1 637.1 C 444.1 637.1 444.0 636.6 444.1 636.5 C 444.2 636.4 444.9 636.4 444.9 636.5 C 445.0 636.7 444.9 637.2 445.3 637.2 C 446.4 637.3 446.3 636.4 446.4 636.4 C 446.5 636.4 446.5 637.0 446.7 637.1 C 447.0 637.3 449.2 637.1 449.4 637.0 C 449.5 636.8 450.2 637.4 450.6 637.0 C 450.9 636.6 451.0 636.5 451.0 636.3 C 451.1 636.2 451.5 635.6 451.7 635.8 C 451.9 636.1 451.1 636.9 451.3 637.1 C 451.6 637.3 453.0 637.3 453.2 637.1 C 453.6 636.8 453.7 636.2 453.9 636.2 C 454.1 636.2 454.9 637.0 454.9 636.9 C 455.0 636.7 455.1 636.0 455.1 635.9 C 455.1 635.8 455.4 634.5 455.2 634.4 C 455.0 634.2 454.2 633.7 454.3 634.1 C 454.4 634.4 454.6 634.9 454.3 635.0 C 454.0 635.2 453.8 635.2 453.8 635.1 C 453.7 635.0 453.9 634.8 453.4 634.6 C 452.9 634.3 453.1 634.0 452.7 634.1 C 452.2 634.1 451.8 634.2 451.8 634.4 C 451.9 634.7 451.4 635.1 451.1 635.1 C 450.7 635.1 451.3 634.5 450.2 634.2 C 449.2 634.0 448.5 633.9 448.2 634.2 C 447.9 634.4 447.9 635.1 447.4 634.8 C 446.9 634.5 447.1 634.3 446.5 634.3 C 445.8 634.3 445.5 634.9 445.1 634.9 C 444.7 635.0 444.6 634.9 444.6 634.9 C 444.6 634.9 444.8 634.1 443.8 634.1 C 442.9 634.0 442.7 633.9 442.9 634.5 C 443.1 635.1 442.3 635.2 442.3 634.8 C 442.3 634.4 441.7 634.1 441.4 634.1 C 441.0 634.0 440.9 635.0 440.8 635.1 C 440.7 635.1 440.3 635.0 440.4 634.7 C 440.6 634.4 440.2 634.3 439.9 634.2 C 439.6 634.1 438.7 634.2 438.7 634.3 C 438.7 634.5 439.2 635.2 438.6 634.9 C 438.0 634.5 437.8 634.0 437.2 634.0 C 436.7 634.1 437.2 634.7 436.8 634.8 C 436.8 634.8 436.8 634.8 436.8 634.8 Z M 456.0 634.2 C 455.5 633.8 455.1 634.2 455.1 634.6 C 455.2 635.0 455.4 636.0 455.2 636.2 C 455.0 636.5 454.4 637.2 455.3 637.3 C 456.2 637.5 456.3 637.2 456.3 637.0 C 456.3 636.7 456.5 635.7 456.8 635.8 C 457.0 635.9 457.2 636.2 457.3 636.3 C 457.3 636.5 457.7 637.4 458.1 637.3 C 458.5 637.2 458.9 636.9 458.9 636.9 C 459.1 636.9 459.3 636.9 459.5 636.8 C 459.5 636.8 460.1 637.4 460.6 637.3 C 461.0 637.2 461.5 637.2 461.9 637.2 C 462.2 637.3 462.6 637.2 462.6 636.9 C 462.7 636.7 463.2 635.9 463.2 635.9 C 463.2 635.9 463.7 635.6 463.9 635.8 C 464.1 635.9 464.2 636.4 464.1 636.6 C 464.1 636.7 464.1 637.2 464.5 637.3 C 464.8 637.4 466.3 637.9 466.6 637.6 C 466.8 637.3 466.8 636.9 466.9 636.8 C 467.1 636.7 468.1 636.7 468.2 636.9 C 468.3 637.2 468.2 637.7 468.5 637.6 C 468.8 637.6 469.4 637.7 469.4 637.6 C 469.4 637.4 469.5 637.3 469.6 637.0 C 469.6 636.7 470.2 636.5 470.3 636.4 C 470.4 636.2 470.9 636.2 470.9 636.2 C 471.0 636.3 471.2 636.5 471.4 636.7 C 471.4 636.7 471.1 637.2 470.9 637.3 C 470.7 637.3 471.0 637.7 471.2 637.7 C 471.4 637.8 472.5 637.7 472.5 637.7 C 472.5 637.3 472.5 636.9 472.5 636.5 C 472.8 636.4 473.1 636.4 473.3 636.3 C 473.3 636.3 473.2 637.6 473.7 637.6 C 474.3 637.6 474.9 637.6 474.9 637.6 C 474.9 637.6 475.4 637.1 475.6 637.1 C 475.7 637.0 475.8 635.8 475.8 635.8 C 475.7 635.4 475.7 634.9 475.7 634.4 C 475.7 634.4 475.0 634.0 474.7 634.2 C 474.3 634.3 474.6 634.9 474.6 635.1 C 474.5 635.3 474.0 635.5 474.0 635.5 C 473.7 635.3 473.5 635.0 473.3 634.8 C 473.3 634.8 473.1 634.5 472.8 634.3 C 472.6 634.1 471.8 633.9 471.6 634.0 C 471.3 634.1 471.1 634.4 470.8 634.7 C 470.5 634.9 470.6 635.3 470.2 635.0 C 469.9 634.7 469.7 634.3 469.5 634.3 C 469.4 634.3 468.6 634.8 468.6 634.8 C 468.4 634.9 468.2 635.0 468.0 635.1 C 468.0 635.1 467.4 635.3 467.3 635.0 C 467.3 634.8 466.1 635.1 466.1 635.1 C 466.1 635.1 466.2 634.2 465.9 634.1 C 465.7 634.0 465.2 633.8 464.7 633.9 C 464.3 634.1 463.9 634.9 463.9 634.9 C 463.8 634.6 463.6 634.4 463.5 634.2 C 463.1 634.2 462.6 634.1 462.2 634.1 C 462.2 634.1 461.2 634.1 461.2 634.2 C 461.2 634.4 461.3 635.1 461.3 635.3 C 461.2 635.5 460.7 635.7 460.6 635.5 C 460.6 635.2 460.1 634.6 460.1 634.6 C 460.1 634.6 459.7 634.2 459.4 634.1 C 459.1 634.1 458.7 634.3 458.5 634.4 C 458.4 634.6 458.0 635.1 458.0 635.1 C 457.8 634.9 457.7 634.7 457.6 634.4 C 457.6 634.4 456.8 634.8 456.0 634.2 C 456.0 634.2 456.0 634.2 456.0 634.2 Z M 477.9 634.8 C 477.7 634.9 477.5 634.4 476.9 634.3 C 476.4 634.1 475.7 634.1 475.8 634.4 C 475.9 634.7 476.1 634.9 475.8 635.3 C 475.5 635.7 475.2 636.4 475.6 636.7 C 476.0 637.0 477.6 637.7 478.1 637.3 C 478.5 636.9 478.7 636.8 479.1 636.5 C 479.4 636.3 479.2 637.1 479.2 637.1 C 479.2 637.1 480.0 637.2 480.7 637.2 C 481.3 637.3 482.0 637.3 482.1 637.2 C 482.2 637.1 482.4 636.8 482.4 636.8 C 482.4 636.8 482.7 637.1 483.2 637.2 C 483.7 637.3 483.5 637.1 483.4 636.9 C 483.4 636.7 482.8 636.2 483.0 636.2 C 483.2 636.2 483.8 637.0 484.1 637.1 C 484.5 637.1 485.2 637.1 485.2 637.1 C 485.2 637.1 485.1 636.6 485.2 636.5 C 485.3 636.4 486.0 636.4 486.0 636.5 C 486.1 636.7 486.0 637.2 486.3 637.2 C 487.5 637.3 487.3 636.4 487.4 636.4 C 487.5 636.4 487.5 637.0 487.8 637.1 C 488.1 637.3 490.3 637.1 490.4 637.0 C 490.5 636.8 491.3 637.4 491.6 637.0 C 492.0 636.6 492.1 636.5 492.1 636.3 C 492.2 636.2 492.6 635.6 492.8 635.8 C 493.0 636.1 492.1 636.9 492.4 637.1 C 492.7 637.3 494.1 637.3 494.3 637.1 C 494.6 636.8 494.7 636.2 494.9 636.2 C 495.1 636.2 495.9 637.0 496.0 636.9 C 496.1 636.7 496.2 636.0 496.2 635.9 C 496.2 635.8 496.4 634.5 496.3 634.4 C 496.1 634.2 495.3 633.7 495.4 634.1 C 495.5 634.4 495.7 634.9 495.4 635.0 C 495.1 635.2 494.9 635.2 494.8 635.1 C 494.8 635.0 494.9 634.8 494.4 634.6 C 493.9 634.3 494.2 634.0 493.7 634.1 C 493.3 634.1 492.9 634.2 492.9 634.4 C 492.9 634.7 492.5 635.1 492.1 635.1 C 491.8 635.1 492.4 634.5 491.3 634.2 C 490.3 634.0 489.6 633.9 489.3 634.2 C 489.0 634.4 488.9 635.1 488.4 634.8 C 487.9 634.5 488.2 634.3 487.5 634.3 C 486.9 634.3 486.6 634.9 486.2 634.9 C 485.8 635.0 485.6 634.9 485.6 634.9 C 485.6 634.9 485.9 634.1 484.9 634.1 C 483.9 634.0 483.7 633.9 483.9 634.5 C 484.1 635.1 483.4 635.2 483.4 634.8 C 483.3 634.4 482.8 634.1 482.4 634.1 C 482.1 634.0 482.0 635.0 481.9 635.1 C 481.7 635.1 481.3 635.0 481.5 634.7 C 481.7 634.4 481.3 634.3 481.0 634.2 C 480.7 634.1 479.8 634.2 479.8 634.3 C 479.8 634.5 480.2 635.2 479.6 634.9 C 479.1 634.5 478.9 634.0 478.3 634.0 C 477.8 634.1 478.3 634.7 477.9 634.8 C 477.9 634.8 477.9 634.8 477.9 634.8 Z M 496.6 634.0 C 495.6 634.1 496.3 636.7 496.7 637.2 C 497.1 637.8 497.8 637.4 498.4 637.5 C 499.1 637.6 498.9 636.8 499.3 636.6 C 499.7 636.3 499.6 636.9 499.7 637.2 C 499.9 637.6 500.9 637.3 501.6 637.3 C 502.2 637.4 502.9 636.5 503.4 636.4 C 503.9 636.4 502.9 636.0 503.9 636.0 C 504.8 636.1 504.3 636.6 503.3 636.8 C 502.2 637.1 503.7 637.3 504.3 637.4 C 504.8 637.5 505.8 637.1 506.3 637.2 C 506.7 637.2 506.1 636.6 506.8 636.6 C 507.5 636.6 507.1 637.3 507.8 637.4 C 508.5 637.5 508.4 636.9 508.7 636.7 C 509.1 636.6 509.0 636.9 509.3 637.0 C 509.6 637.1 510.0 637.2 510.7 637.1 C 511.3 636.9 511.1 636.8 511.4 636.7 C 511.7 636.7 512.2 636.7 512.2 636.7 C 512.2 636.9 512.3 637.1 512.3 637.3 C 512.3 637.3 513.4 637.4 513.8 637.4 C 514.1 637.5 514.9 637.2 514.7 637.1 C 514.5 636.9 515.3 636.5 515.4 636.6 C 515.6 636.7 516.2 637.0 516.6 637.1 C 517.0 637.3 516.9 635.6 516.9 635.3 C 516.9 635.1 517.1 634.2 516.8 634.1 C 516.4 634.0 516.1 634.3 516.2 634.1 C 516.2 633.8 515.2 634.1 514.9 634.1 C 514.6 634.1 514.3 634.7 514.3 634.7 C 514.3 634.7 514.0 635.2 513.6 635.2 C 513.1 635.2 512.9 634.2 512.9 634.2 C 512.9 634.2 512.4 634.0 511.8 634.0 C 511.2 634.1 510.6 634.9 510.5 635.1 C 510.4 635.3 510.4 634.5 510.0 634.4 C 509.6 634.3 509.0 634.1 508.8 634.1 C 508.7 634.2 508.4 634.7 508.4 634.7 C 508.4 634.7 507.6 635.0 507.5 635.0 C 507.3 635.0 507.6 634.2 507.6 634.2 C 507.6 634.2 506.0 634.0 505.7 634.0 C 505.4 633.9 504.9 634.1 504.6 634.1 C 504.4 634.2 504.1 635.2 503.7 635.1 C 503.4 635.0 504.1 634.5 503.7 634.4 C 503.4 634.3 502.8 634.1 502.6 634.1 C 502.4 634.1 502.2 634.4 501.9 634.5 C 501.6 634.5 501.2 635.2 500.8 635.2 C 500.3 635.2 500.1 634.8 499.9 634.7 C 499.8 634.6 499.6 634.0 499.3 633.9 C 498.9 633.9 499.2 634.4 498.8 634.4 C 498.5 634.4 498.5 634.8 498.2 634.7 C 497.8 634.6 498.0 633.9 497.6 634.0 C 497.5 634.0 497.6 634.0 496.6 634.0 C 496.6 634.0 496.6 634.0 496.6 634.0 Z M 517.6 634.2 C 517.1 633.8 516.7 634.2 516.7 634.6 C 516.8 635.0 517.0 636.0 516.8 636.2 C 516.6 636.5 516.0 637.2 516.9 637.3 C 517.8 637.5 518.0 637.2 518.0 637.0 C 518.0 636.7 518.1 635.7 518.4 635.8 C 518.6 635.9 518.8 636.2 518.9 636.3 C 518.9 636.5 519.3 637.4 519.7 637.3 C 520.1 637.2 520.5 636.9 520.5 636.9 C 520.7 636.9 520.9 636.9 521.1 636.8 C 521.1 636.8 521.7 637.4 522.2 637.3 C 522.6 637.2 523.2 637.2 523.5 637.2 C 523.9 637.3 524.2 637.2 524.3 636.9 C 524.3 636.7 524.8 635.9 524.8 635.9 C 524.8 635.9 525.3 635.6 525.5 635.8 C 525.8 635.9 525.8 636.4 525.8 636.6 C 525.7 636.7 525.8 637.2 526.1 637.3 C 526.5 637.4 528.0 637.9 528.2 637.6 C 528.4 637.3 528.4 636.9 528.5 636.8 C 528.7 636.7 529.7 636.7 529.8 636.9 C 529.9 637.2 529.8 637.7 530.1 637.6 C 530.4 637.6 531.0 637.7 531.0 637.6 C 531.0 637.4 531.2 637.3 531.2 637.0 C 531.2 636.7 531.8 636.5 531.9 636.4 C 532.0 636.2 532.5 636.2 532.5 636.2 C 532.7 636.3 532.8 636.5 533.0 636.7 C 533.0 636.7 532.7 637.2 532.5 637.3 C 532.4 637.3 532.6 637.7 532.8 637.7 C 533.0 637.8 534.1 637.7 534.1 637.7 C 534.1 637.3 534.1 636.9 534.1 636.5 C 534.4 636.4 534.7 636.4 535.0 636.3 C 535.0 636.3 534.8 637.6 535.4 637.6 C 535.9 637.6 536.5 637.6 536.5 637.6 C 536.5 637.6 537.1 637.1 537.2 637.1 C 537.3 637.0 537.4 635.8 537.4 635.8 C 537.3 635.4 537.3 634.9 537.3 634.4 C 537.3 634.4 536.6 634.0 536.3 634.2 C 535.9 634.3 536.2 634.9 536.2 635.1 C 536.1 635.3 535.6 635.5 535.6 635.5 C 535.4 635.3 535.1 635.0 534.9 634.8 C 534.9 634.8 534.7 634.5 534.4 634.3 C 534.2 634.1 533.4 633.9 533.2 634.0 C 532.9 634.1 532.7 634.4 532.4 634.7 C 532.1 634.9 532.2 635.3 531.8 635.0 C 531.5 634.7 531.3 634.3 531.1 634.3 C 531.0 634.3 530.2 634.8 530.2 634.8 C 530.0 634.9 529.8 635.0 529.6 635.1 C 529.6 635.1 529.0 635.3 528.9 635.0 C 528.9 634.8 527.7 635.1 527.7 635.1 C 527.7 635.1 527.8 634.2 527.6 634.1 C 527.3 634.0 526.8 633.8 526.3 633.9 C 525.9 634.1 525.5 634.9 525.5 634.9 C 525.4 634.6 525.2 634.4 525.1 634.2 C 524.7 634.2 524.2 634.1 523.8 634.1 C 523.8 634.1 522.8 634.1 522.8 634.2 C 522.8 634.4 522.9 635.1 522.9 635.3 C 522.8 635.5 522.3 635.7 522.2 635.5 C 522.2 635.2 521.7 634.6 521.7 634.6 C 521.7 634.6 521.3 634.2 521.0 634.1 C 520.7 634.1 520.3 634.3 520.1 634.4 C 520.0 634.6 519.6 635.1 519.6 635.1 C 519.4 634.9 519.3 634.7 519.2 634.4 C 519.2 634.4 518.4 634.8 517.6 634.2 C 517.6 634.2 517.6 634.2 517.6 634.2 Z M 539.5 634.8 C 539.3 634.9 539.1 634.4 538.5 634.3 C 538.0 634.1 537.3 634.1 537.4 634.4 C 537.5 634.7 537.7 634.9 537.4 635.3 C 537.1 635.7 536.8 636.4 537.2 636.7 C 537.6 637.0 539.2 637.7 539.7 637.3 C 540.2 636.9 540.3 636.8 540.7 636.5 C 541.1 636.3 540.8 637.1 540.8 637.1 C 540.8 637.1 541.7 637.2 542.3 637.2 C 542.9 637.3 543.6 637.3 543.7 637.2 C 543.8 637.1 544.0 636.8 544.0 636.8 C 544.0 636.8 544.3 637.1 544.8 637.2 C 545.3 637.3 545.1 637.1 545.0 636.9 C 545.0 636.7 544.4 636.2 544.6 636.2 C 544.8 636.2 545.4 637.0 545.7 637.1 C 546.1 637.1 546.8 637.1 546.8 637.1 C 546.8 637.1 546.7 636.6 546.8 636.5 C 546.9 636.4 547.6 636.4 547.6 636.5 C 547.7 636.7 547.6 637.2 548.0 637.2 C 549.1 637.3 548.9 636.4 549.1 636.4 C 549.2 636.4 549.1 637.0 549.4 637.1 C 549.7 637.3 551.9 637.1 552.0 637.0 C 552.2 636.8 552.9 637.4 553.2 637.0 C 553.6 636.6 553.7 636.5 553.7 636.3 C 553.8 636.2 554.2 635.6 554.4 635.8 C 554.6 636.1 553.8 636.9 554.0 637.1 C 554.3 637.3 555.7 637.3 555.9 637.1 C 556.3 636.8 556.4 636.2 556.6 636.2 C 556.7 636.2 557.5 637.0 557.6 636.9 C 557.7 636.7 557.8 636.0 557.8 635.9 C 557.8 635.8 558.0 634.5 557.9 634.4 C 557.7 634.2 556.9 633.7 557.0 634.1 C 557.1 634.4 557.3 634.9 557.0 635.0 C 556.7 635.2 556.5 635.2 556.5 635.1 C 556.4 635.0 556.6 634.8 556.1 634.6 C 555.6 634.3 555.8 634.0 555.4 634.1 C 554.9 634.1 554.5 634.2 554.5 634.4 C 554.6 634.7 554.1 635.1 553.7 635.1 C 553.4 635.1 554.0 634.5 552.9 634.2 C 551.9 634.0 551.2 633.9 550.9 634.2 C 550.6 634.4 550.5 635.1 550.0 634.8 C 549.6 634.5 549.8 634.3 549.2 634.3 C 548.5 634.3 548.2 634.9 547.8 634.9 C 547.4 635.0 547.2 634.9 547.2 634.9 C 547.2 634.9 547.5 634.1 546.5 634.1 C 545.5 634.0 545.3 633.9 545.5 634.5 C 545.7 635.1 545.0 635.2 545.0 634.8 C 544.9 634.4 544.4 634.1 544.0 634.1 C 543.7 634.0 543.6 635.0 543.5 635.1 C 543.3 635.1 543.0 635.0 543.1 634.7 C 543.3 634.4 542.9 634.3 542.6 634.2 C 542.3 634.1 541.4 634.2 541.4 634.3 C 541.4 634.5 541.9 635.2 541.3 634.9 C 540.7 634.5 540.5 634.0 539.9 634.0 C 539.4 634.1 539.9 634.7 539.5 634.8 C 539.5 634.8 539.5 634.8 539.5 634.8 Z M 558.2 634.0 C 557.2 634.1 557.9 636.7 558.3 637.2 C 558.7 637.8 559.4 637.4 560.1 637.5 C 560.7 637.6 560.5 636.8 560.9 636.6 C 561.3 636.3 561.2 636.9 561.3 637.2 C 561.5 637.6 562.6 637.3 563.2 637.3 C 563.8 637.4 564.5 636.5 565.0 636.4 C 565.5 636.4 564.6 636.0 565.5 636.0 C 566.4 636.1 565.9 636.6 564.9 636.8 C 563.8 637.1 565.3 637.3 565.9 637.4 C 566.4 637.5 567.4 637.1 567.9 637.2 C 568.3 637.2 567.8 636.6 568.4 636.6 C 569.1 636.6 568.7 637.3 569.4 637.4 C 570.1 637.5 570.0 636.9 570.3 636.7 C 570.7 636.6 570.6 636.9 570.9 637.0 C 571.2 637.1 571.6 637.2 572.3 637.1 C 572.9 636.9 572.7 636.8 573.0 636.7 C 573.3 636.7 573.8 636.7 573.8 636.7 C 573.8 636.9 573.9 637.1 573.9 637.3 C 573.9 637.3 575.1 637.4 575.4 637.4 C 575.7 637.5 576.5 637.2 576.3 637.1 C 576.1 636.9 576.9 636.5 577.0 636.6 C 577.2 636.7 577.8 637.0 578.2 637.1 C 578.6 637.3 578.5 635.6 578.5 635.3 C 578.5 635.1 578.7 634.2 578.4 634.1 C 578.0 634.0 577.7 634.3 577.8 634.1 C 577.8 633.8 576.8 634.1 576.5 634.1 C 576.3 634.1 575.9 634.7 575.9 634.7 C 575.9 634.7 575.6 635.2 575.2 635.2 C 574.7 635.2 574.5 634.2 574.5 634.2 C 574.5 634.2 574.0 634.0 573.4 634.0 C 572.8 634.1 572.2 634.9 572.1 635.1 C 572.0 635.3 572.0 634.5 571.6 634.4 C 571.2 634.3 570.6 634.1 570.4 634.1 C 570.3 634.2 570.0 634.7 570.0 634.7 C 570.0 634.7 569.2 635.0 569.1 635.0 C 568.9 635.0 569.2 634.2 569.2 634.2 C 569.2 634.2 567.6 634.0 567.3 634.0 C 567.0 633.9 566.5 634.1 566.3 634.1 C 566.0 634.2 565.7 635.2 565.4 635.1 C 565.0 635.0 565.7 634.5 565.4 634.4 C 565.0 634.3 564.4 634.1 564.2 634.1 C 564.0 634.1 563.8 634.4 563.5 634.5 C 563.2 634.5 562.8 635.2 562.4 635.2 C 561.9 635.2 561.7 634.8 561.5 634.7 C 561.4 634.6 561.2 634.0 560.9 633.9 C 560.5 633.9 560.8 634.4 560.5 634.4 C 560.1 634.4 560.1 634.8 559.8 634.7 C 559.4 634.6 559.6 633.9 559.3 634.0 C 559.1 634.0 559.3 634.0 558.2 634.0 C 558.2 634.0 558.2 634.0 558.2 634.0 Z M 580.6 634.8 C 580.4 634.9 580.2 634.4 579.6 634.3 C 579.0 634.1 578.3 634.1 578.5 634.4 C 578.6 634.7 578.8 634.9 578.5 635.3 C 578.2 635.7 577.9 636.4 578.3 636.7 C 578.7 637.0 580.2 637.7 580.7 637.3 C 581.2 636.9 581.4 636.8 581.8 636.5 C 582.1 636.3 581.9 637.1 581.9 637.1 C 581.9 637.1 582.7 637.2 583.4 637.2 C 584.0 637.3 584.7 637.3 584.8 637.2 C 584.8 637.1 585.1 636.8 585.1 636.8 C 585.1 636.8 585.4 637.1 585.9 637.2 C 586.3 637.3 586.2 637.1 586.1 636.9 C 586.0 636.7 585.5 636.2 585.7 636.2 C 585.9 636.2 586.5 637.0 586.8 637.1 C 587.1 637.1 587.9 637.1 587.9 637.1 C 587.9 637.1 587.8 636.6 587.9 636.5 C 587.9 636.4 588.7 636.4 588.7 636.5 C 588.7 636.7 588.7 637.2 589.0 637.2 C 590.2 637.3 590.0 636.4 590.1 636.4 C 590.2 636.4 590.2 637.0 590.5 637.1 C 590.8 637.3 593.0 637.1 593.1 637.0 C 593.2 636.8 594.0 637.4 594.3 637.0 C 594.6 636.6 594.7 636.5 594.8 636.3 C 594.9 636.2 595.3 635.6 595.5 635.8 C 595.7 636.1 594.8 636.9 595.1 637.1 C 595.4 637.3 596.8 637.3 597.0 637.1 C 597.3 636.8 597.4 636.2 597.6 636.2 C 597.8 636.2 598.6 637.0 598.7 636.9 C 598.8 636.7 598.9 636.0 598.9 635.9 C 598.9 635.8 599.1 634.5 598.9 634.4 C 598.8 634.2 597.9 633.7 598.0 634.1 C 598.2 634.4 598.4 634.9 598.1 635.0 C 597.8 635.2 597.6 635.2 597.5 635.1 C 597.5 635.0 597.6 634.8 597.1 634.6 C 596.6 634.3 596.9 634.0 596.4 634.1 C 596.0 634.1 595.5 634.2 595.6 634.4 C 595.6 634.7 595.1 635.1 594.8 635.1 C 594.5 635.1 595.0 634.5 594.0 634.2 C 592.9 634.0 592.3 633.9 592.0 634.2 C 591.7 634.4 591.6 635.1 591.1 634.8 C 590.6 634.5 590.9 634.3 590.2 634.3 C 589.6 634.3 589.3 634.9 588.9 634.9 C 588.4 635.0 588.3 634.9 588.3 634.9 C 588.3 634.9 588.5 634.1 587.6 634.1 C 586.6 634.0 586.4 633.9 586.6 634.5 C 586.8 635.1 586.1 635.2 586.1 634.8 C 586.0 634.4 585.4 634.1 585.1 634.1 C 584.8 634.0 584.7 635.0 584.6 635.1 C 584.4 635.1 584.0 635.0 584.2 634.7 C 584.3 634.4 584.0 634.3 583.7 634.2 C 583.4 634.1 582.5 634.2 582.5 634.3 C 582.5 634.5 582.9 635.2 582.3 634.9 C 581.7 634.5 581.6 634.0 581.0 634.0 C 580.4 634.1 580.9 634.7 580.6 634.8 C 580.6 634.8 580.6 634.8 580.6 634.8 Z M 599.8 634.2 C 599.3 633.8 598.8 634.2 598.9 634.6 C 598.9 635.0 599.1 636.0 598.9 636.2 C 598.8 636.5 598.2 637.2 599.1 637.3 C 599.9 637.5 600.1 637.2 600.1 637.0 C 600.1 636.7 600.3 635.7 600.5 635.8 C 600.7 635.9 601.0 636.2 601.0 636.3 C 601.1 636.5 601.4 637.4 601.8 637.3 C 602.3 637.2 602.6 636.9 602.6 636.9 C 602.9 636.9 603.1 636.9 603.3 636.8 C 603.3 636.8 603.9 637.4 604.3 637.3 C 604.8 637.2 605.3 637.2 605.7 637.2 C 606.0 637.3 606.3 637.2 606.4 636.9 C 606.5 636.7 606.9 635.9 606.9 635.9 C 606.9 635.9 607.4 635.6 607.7 635.8 C 607.9 635.9 608.0 636.4 607.9 636.6 C 607.9 636.7 607.9 637.2 608.2 637.3 C 608.6 637.4 610.1 637.9 610.3 637.6 C 610.6 637.3 610.5 636.9 610.7 636.8 C 610.9 636.7 611.9 636.7 611.9 636.9 C 612.0 637.2 612.0 637.7 612.2 637.6 C 612.5 637.6 613.1 637.7 613.1 637.6 C 613.1 637.4 613.3 637.3 613.3 637.0 C 613.3 636.7 613.9 636.5 614.0 636.4 C 614.2 636.2 614.6 636.2 614.6 636.2 C 614.8 636.3 615.0 636.5 615.2 636.7 C 615.2 636.7 614.8 637.2 614.7 637.3 C 614.5 637.3 614.8 637.7 615.0 637.7 C 615.1 637.8 616.2 637.7 616.2 637.7 C 616.3 637.3 616.3 636.9 616.3 636.5 C 616.6 636.4 616.8 636.4 617.1 636.3 C 617.1 636.3 617.0 637.6 617.5 637.6 C 618.0 637.6 618.7 637.6 618.7 637.6 C 618.7 637.6 619.2 637.1 619.3 637.1 C 619.5 637.0 619.5 635.8 619.5 635.8 C 619.5 635.4 619.5 634.9 619.4 634.4 C 619.4 634.4 618.8 634.0 618.4 634.2 C 618.1 634.3 618.4 634.9 618.3 635.1 C 618.3 635.3 617.7 635.5 617.7 635.5 C 617.5 635.3 617.3 635.0 617.0 634.8 C 617.0 634.8 616.8 634.5 616.6 634.3 C 616.4 634.1 615.5 633.9 615.3 634.0 C 615.1 634.1 614.8 634.4 614.6 634.7 C 614.3 634.9 614.3 635.3 614.0 635.0 C 613.6 634.7 613.5 634.3 613.3 634.3 C 613.1 634.3 612.4 634.8 612.4 634.8 C 612.1 634.9 611.9 635.0 611.7 635.1 C 611.7 635.1 611.2 635.3 611.1 635.0 C 611.0 634.8 609.9 635.1 609.9 635.1 C 609.9 635.1 610.0 634.2 609.7 634.1 C 609.4 634.0 608.9 633.8 608.5 633.9 C 608.0 634.1 607.7 634.9 607.7 634.9 C 607.5 634.6 607.4 634.4 607.2 634.2 C 606.8 634.2 606.4 634.1 605.9 634.1 C 605.9 634.1 605.0 634.1 605.0 634.2 C 605.0 634.4 605.1 635.1 605.0 635.3 C 605.0 635.5 604.4 635.7 604.4 635.5 C 604.3 635.2 603.9 634.6 603.9 634.6 C 603.9 634.6 603.5 634.2 603.2 634.1 C 602.9 634.1 602.4 634.3 602.3 634.4 C 602.2 634.6 601.7 635.1 601.7 635.1 C 601.6 634.9 601.5 634.7 601.3 634.4 C 601.3 634.4 600.6 634.8 599.8 634.2 C 599.8 634.2 599.8 634.2 599.8 634.2 Z M 619.8 634.0 C 618.8 634.1 619.5 636.7 619.9 637.2 C 620.3 637.8 621.0 637.4 621.7 637.5 C 622.3 637.6 622.1 636.8 622.5 636.6 C 622.9 636.3 622.8 636.9 622.9 637.2 C 623.1 637.6 624.2 637.3 624.8 637.3 C 625.4 637.4 626.1 636.5 626.6 636.4 C 627.1 636.4 626.2 636.0 627.1 636.0 C 628.0 636.1 627.5 636.6 626.5 636.8 C 625.4 637.1 626.9 637.3 627.5 637.4 C 628.1 637.5 629.0 637.1 629.5 637.2 C 629.9 637.2 629.4 636.6 630.0 636.6 C 630.7 636.6 630.3 637.3 631.0 637.4 C 631.7 637.5 631.6 636.9 631.9 636.7 C 632.3 636.6 632.2 636.9 632.5 637.0 C 632.8 637.1 633.2 637.2 633.9 637.1 C 634.5 636.9 634.3 636.8 634.6 636.7 C 634.9 636.7 635.4 636.7 635.4 636.7 C 635.4 636.9 635.5 637.1 635.5 637.3 C 635.5 637.3 636.7 637.4 637.0 637.4 C 637.3 637.5 638.1 637.2 637.9 637.1 C 637.7 636.9 638.5 636.5 638.7 636.6 C 638.8 636.7 639.4 637.0 639.8 637.1 C 640.2 637.3 640.1 635.6 640.1 635.3 C 640.1 635.1 640.3 634.2 640.0 634.1 C 639.6 634.0 639.3 634.3 639.4 634.1 C 639.5 633.8 638.4 634.1 638.1 634.1 C 637.9 634.1 637.5 634.7 637.5 634.7 C 637.5 634.7 637.2 635.2 636.8 635.2 C 636.3 635.2 636.2 634.2 636.2 634.2 C 636.2 634.2 635.6 634.0 635.0 634.0 C 634.4 634.1 633.8 634.9 633.7 635.1 C 633.6 635.3 633.6 634.5 633.2 634.4 C 632.8 634.3 632.2 634.1 632.0 634.1 C 631.9 634.2 631.6 634.7 631.6 634.7 C 631.6 634.7 630.8 635.0 630.7 635.0 C 630.5 635.0 630.8 634.2 630.8 634.2 C 630.8 634.2 629.2 634.0 628.9 634.0 C 628.6 633.9 628.1 634.1 627.9 634.1 C 627.6 634.2 627.3 635.2 627.0 635.1 C 626.6 635.0 627.3 634.5 627.0 634.4 C 626.6 634.3 626.0 634.1 625.8 634.1 C 625.7 634.1 625.4 634.4 625.1 634.5 C 624.9 634.5 624.5 635.2 624.0 635.2 C 623.5 635.2 623.3 634.8 623.1 634.7 C 623.0 634.6 622.9 634.0 622.5 633.9 C 622.1 633.9 622.4 634.4 622.1 634.4 C 621.7 634.4 621.7 634.8 621.4 634.7 C 621.0 634.6 621.2 633.9 620.9 634.0 C 620.7 634.0 620.9 634.0 619.8 634.0 C 619.8 634.0 619.8 634.0 619.8 634.0 Z M 640.8 634.2 C 640.3 633.8 639.9 634.2 640.0 634.6 C 640.0 635.0 640.2 636.0 640.0 636.2 C 639.8 636.5 639.3 637.2 640.1 637.3 C 641.0 637.5 641.2 637.2 641.2 637.0 C 641.2 636.7 641.3 635.7 641.6 635.8 C 641.8 635.9 642.0 636.2 642.1 636.3 C 642.2 636.5 642.5 637.4 642.9 637.3 C 643.3 637.2 643.7 636.9 643.7 636.9 C 643.9 636.9 644.1 636.9 644.4 636.8 C 644.4 636.8 644.9 637.4 645.4 637.3 C 645.9 637.2 646.4 637.2 646.7 637.2 C 647.1 637.3 647.4 637.2 647.5 636.9 C 647.5 636.7 648.0 635.9 648.0 635.9 C 648.0 635.9 648.5 635.6 648.7 635.8 C 649.0 635.9 649.0 636.4 649.0 636.6 C 648.9 636.7 649.0 637.2 649.3 637.3 C 649.7 637.4 651.2 637.9 651.4 637.6 C 651.6 637.3 651.6 636.9 651.8 636.8 C 651.9 636.7 652.9 636.7 653.0 636.9 C 653.1 637.2 653.0 637.7 653.3 637.6 C 653.6 637.6 654.2 637.7 654.2 637.6 C 654.2 637.4 654.4 637.3 654.4 637.0 C 654.4 636.7 655.0 636.5 655.1 636.4 C 655.2 636.2 655.7 636.2 655.7 636.2 C 655.9 636.3 656.1 636.5 656.3 636.7 C 656.3 636.7 655.9 637.2 655.7 637.3 C 655.6 637.3 655.9 637.7 656.0 637.7 C 656.2 637.8 657.3 637.7 657.3 637.7 C 657.3 637.3 657.3 636.9 657.4 636.5 C 657.6 636.4 657.9 636.4 658.2 636.3 C 658.2 636.3 658.1 637.6 658.6 637.6 C 659.1 637.6 659.7 637.6 659.7 637.6 C 659.7 637.6 660.3 637.1 660.4 637.1 C 660.5 637.0 660.6 635.8 660.6 635.8 C 660.6 635.4 660.5 634.9 660.5 634.4 C 660.5 634.4 659.8 634.0 659.5 634.2 C 659.2 634.3 659.4 634.9 659.4 635.1 C 659.3 635.3 658.8 635.5 658.8 635.5 C 658.6 635.3 658.3 635.0 658.1 634.8 C 658.1 634.8 657.9 634.5 657.7 634.3 C 657.4 634.1 656.6 633.9 656.4 634.0 C 656.1 634.1 655.9 634.4 655.6 634.7 C 655.3 634.9 655.4 635.3 655.1 635.0 C 654.7 634.7 654.5 634.3 654.4 634.3 C 654.2 634.3 653.4 634.8 653.4 634.8 C 653.2 634.9 653.0 635.0 652.8 635.1 C 652.8 635.1 652.2 635.3 652.2 635.0 C 652.1 634.8 650.9 635.1 650.9 635.1 C 650.9 635.1 651.1 634.2 650.8 634.1 C 650.5 634.0 650.0 633.8 649.6 633.9 C 649.1 634.1 648.7 634.9 648.7 634.9 C 648.6 634.6 648.5 634.4 648.3 634.2 C 647.9 634.2 647.5 634.1 647.0 634.1 C 647.0 634.1 646.0 634.1 646.0 634.2 C 646.0 634.4 646.1 635.1 646.1 635.3 C 646.0 635.5 645.5 635.7 645.5 635.5 C 645.4 635.2 644.9 634.6 644.9 634.6 C 644.9 634.6 644.5 634.2 644.2 634.1 C 643.9 634.1 643.5 634.3 643.4 634.4 C 643.3 634.6 642.8 635.1 642.8 635.1 C 642.7 634.9 642.5 634.7 642.4 634.4 C 642.4 634.4 641.6 634.8 640.8 634.2 C 640.8 634.2 640.8 634.2 640.8 634.2 Z M 660.9 634.0 C 659.9 634.1 660.6 636.7 661.0 637.2 C 661.4 637.8 662.1 637.4 662.7 637.5 C 663.4 637.6 663.2 636.8 663.6 636.6 C 664.0 636.3 663.9 636.9 664.0 637.2 C 664.2 637.6 665.2 637.3 665.9 637.3 C 666.5 637.4 667.2 636.5 667.7 636.4 C 668.2 636.4 667.2 636.0 668.2 636.0 C 669.1 636.1 668.6 636.6 667.6 636.8 C 666.5 637.1 668.0 637.3 668.6 637.4 C 669.1 637.5 670.1 637.1 670.5 637.2 C 671.0 637.2 670.4 636.6 671.1 636.6 C 671.8 636.6 671.4 637.3 672.1 637.4 C 672.8 637.5 672.7 636.9 673.0 636.7 C 673.4 636.6 673.3 636.9 673.6 637.0 C 673.9 637.1 674.3 637.2 674.9 637.1 C 675.6 636.9 675.4 636.8 675.7 636.7 C 676.0 636.7 676.5 636.7 676.5 636.7 C 676.5 636.9 676.6 637.1 676.6 637.3 C 676.6 637.3 677.7 637.4 678.1 637.4 C 678.4 637.5 679.2 637.2 679.0 637.1 C 678.8 636.9 679.6 636.5 679.7 636.6 C 679.9 636.7 680.5 637.0 680.9 637.1 C 681.3 637.3 681.2 635.6 681.2 635.3 C 681.2 635.1 681.4 634.2 681.1 634.1 C 680.7 634.0 680.4 634.3 680.5 634.1 C 680.5 633.8 679.5 634.1 679.2 634.1 C 678.9 634.1 678.6 634.7 678.6 634.7 C 678.6 634.7 678.3 635.2 677.9 635.2 C 677.4 635.2 677.2 634.2 677.2 634.2 C 677.2 634.2 676.7 634.0 676.1 634.0 C 675.5 634.1 674.9 634.9 674.8 635.1 C 674.7 635.3 674.7 634.5 674.3 634.4 C 673.9 634.3 673.3 634.1 673.1 634.1 C 672.9 634.2 672.7 634.7 672.7 634.7 C 672.7 634.7 671.9 635.0 671.7 635.0 C 671.6 635.0 671.9 634.2 671.9 634.2 C 671.9 634.2 670.3 634.0 670.0 634.0 C 669.7 633.9 669.2 634.1 668.9 634.1 C 668.7 634.2 668.4 635.2 668.0 635.1 C 667.7 635.0 668.4 634.5 668.0 634.4 C 667.7 634.3 667.1 634.1 666.9 634.1 C 666.7 634.1 666.5 634.4 666.2 634.5 C 665.9 634.5 665.5 635.2 665.1 635.2 C 664.6 635.2 664.4 634.8 664.2 634.7 C 664.1 634.6 663.9 634.0 663.6 633.9 C 663.2 633.9 663.5 634.4 663.1 634.4 C 662.8 634.4 662.8 634.8 662.5 634.7 C 662.1 634.6 662.3 633.9 661.9 634.0 C 661.8 634.0 661.9 634.0 660.9 634.0 C 660.9 634.0 660.9 634.0 660.9 634.0 Z M 683.3 634.8 C 683.0 634.9 682.9 634.4 682.3 634.3 C 681.7 634.1 681.0 634.1 681.2 634.4 C 681.3 634.7 681.5 634.9 681.2 635.3 C 680.9 635.7 680.6 636.4 681.0 636.7 C 681.4 637.0 682.9 637.7 683.4 637.3 C 683.9 636.9 684.1 636.8 684.5 636.5 C 684.8 636.3 684.6 637.1 684.6 637.1 C 684.6 637.1 685.4 637.2 686.0 637.2 C 686.7 637.3 687.4 637.3 687.5 637.2 C 687.5 637.1 687.8 636.8 687.8 636.8 C 687.8 636.8 688.1 637.1 688.6 637.2 C 689.0 637.3 688.9 637.1 688.8 636.9 C 688.7 636.7 688.2 636.2 688.4 636.2 C 688.6 636.2 689.2 637.0 689.5 637.1 C 689.8 637.1 690.6 637.1 690.6 637.1 C 690.6 637.1 690.5 636.6 690.6 636.5 C 690.6 636.4 691.3 636.4 691.4 636.5 C 691.4 636.7 691.3 637.2 691.7 637.2 C 692.9 637.3 692.7 636.4 692.8 636.4 C 692.9 636.4 692.9 637.0 693.2 637.1 C 693.4 637.3 695.7 637.1 695.8 637.0 C 695.9 636.8 696.7 637.4 697.0 637.0 C 697.3 636.6 697.4 636.5 697.5 636.3 C 697.6 636.2 698.0 635.6 698.2 635.8 C 698.4 636.1 697.5 636.9 697.8 637.1 C 698.0 637.3 699.4 637.3 699.7 637.1 C 700.0 636.8 700.1 636.2 700.3 636.2 C 700.5 636.2 701.3 637.0 701.4 636.9 C 701.4 636.7 701.5 636.0 701.5 635.9 C 701.5 635.8 701.8 634.5 701.6 634.4 C 701.5 634.2 700.6 633.7 700.7 634.1 C 700.8 634.4 701.0 634.9 700.7 635.0 C 700.4 635.2 700.3 635.2 700.2 635.1 C 700.1 635.0 700.3 634.8 699.8 634.6 C 699.3 634.3 699.6 634.0 699.1 634.1 C 698.6 634.1 698.2 634.2 698.3 634.4 C 698.3 634.7 697.8 635.1 697.5 635.1 C 697.2 635.1 697.7 634.5 696.7 634.2 C 695.6 634.0 695.0 633.9 694.7 634.2 C 694.4 634.4 694.3 635.1 693.8 634.8 C 693.3 634.5 693.6 634.3 692.9 634.3 C 692.2 634.3 692.0 634.9 691.5 634.9 C 691.1 635.0 691.0 634.9 691.0 634.9 C 691.0 634.9 691.2 634.1 690.3 634.1 C 689.3 634.0 689.1 633.9 689.3 634.5 C 689.5 635.1 688.8 635.2 688.7 634.8 C 688.7 634.4 688.1 634.1 687.8 634.1 C 687.5 634.0 687.4 635.0 687.2 635.1 C 687.1 635.1 686.7 635.0 686.9 634.7 C 687.0 634.4 686.6 634.3 686.3 634.2 C 686.0 634.1 685.2 634.2 685.2 634.3 C 685.2 634.5 685.6 635.2 685.0 634.9 C 684.4 634.5 684.3 634.0 683.7 634.0 C 683.1 634.1 683.6 634.7 683.3 634.8 C 683.3 634.8 683.3 634.8 683.3 634.8 Z M 702.4 634.2 C 702.0 633.8 701.5 634.2 701.6 634.6 C 701.6 635.0 701.8 636.0 701.6 636.2 C 701.5 636.5 700.9 637.2 701.7 637.3 C 702.6 637.5 702.8 637.2 702.8 637.0 C 702.8 636.7 703.0 635.7 703.2 635.8 C 703.4 635.9 703.6 636.2 703.7 636.3 C 703.8 636.5 704.1 637.4 704.5 637.3 C 704.9 637.2 705.3 636.9 705.3 636.9 C 705.5 636.9 705.8 636.9 706.0 636.8 C 706.0 636.8 706.5 637.4 707.0 637.3 C 707.5 637.2 708.0 637.2 708.3 637.2 C 708.7 637.3 709.0 637.2 709.1 636.9 C 709.1 636.7 709.6 635.9 709.6 635.9 C 709.6 635.9 710.1 635.6 710.4 635.8 C 710.6 635.9 710.6 636.4 710.6 636.6 C 710.5 636.7 710.6 637.2 710.9 637.3 C 711.3 637.4 712.8 637.9 713.0 637.6 C 713.3 637.3 713.2 636.9 713.4 636.8 C 713.5 636.7 714.5 636.7 714.6 636.9 C 714.7 637.2 714.6 637.7 714.9 637.6 C 715.2 637.6 715.8 637.7 715.8 637.6 C 715.8 637.4 716.0 637.3 716.0 637.0 C 716.0 636.7 716.6 636.5 716.7 636.4 C 716.8 636.2 717.3 636.2 717.3 636.2 C 717.5 636.3 717.7 636.5 717.9 636.7 C 717.9 636.7 717.5 637.2 717.4 637.3 C 717.2 637.3 717.5 637.7 717.6 637.7 C 717.8 637.8 718.9 637.7 718.9 637.7 C 718.9 637.3 719.0 636.9 719.0 636.5 C 719.2 636.4 719.5 636.4 719.8 636.3 C 719.8 636.3 719.7 637.6 720.2 637.6 C 720.7 637.6 721.3 637.6 721.3 637.6 C 721.3 637.6 721.9 637.1 722.0 637.1 C 722.2 637.0 722.2 635.8 722.2 635.8 C 722.2 635.4 722.1 634.9 722.1 634.4 C 722.1 634.4 721.5 634.0 721.1 634.2 C 720.8 634.3 721.1 634.9 721.0 635.1 C 720.9 635.3 720.4 635.5 720.4 635.5 C 720.2 635.3 719.9 635.0 719.7 634.8 C 719.7 634.8 719.5 634.5 719.3 634.3 C 719.0 634.1 718.2 633.9 718.0 634.0 C 717.8 634.1 717.5 634.4 717.2 634.7 C 716.9 634.9 717.0 635.3 716.7 635.0 C 716.3 634.7 716.1 634.3 716.0 634.3 C 715.8 634.3 715.0 634.8 715.0 634.8 C 714.8 634.9 714.6 635.0 714.4 635.1 C 714.4 635.1 713.9 635.3 713.8 635.0 C 713.7 634.8 712.6 635.1 712.6 635.1 C 712.6 635.1 712.7 634.2 712.4 634.1 C 712.1 634.0 711.6 633.8 711.2 633.9 C 710.7 634.1 710.4 634.9 710.4 634.9 C 710.2 634.6 710.1 634.4 709.9 634.2 C 709.5 634.2 709.1 634.1 708.6 634.1 C 708.6 634.1 707.6 634.1 707.6 634.2 C 707.6 634.4 707.8 635.1 707.7 635.3 C 707.6 635.5 707.1 635.7 707.1 635.5 C 707.0 635.2 706.5 634.6 706.5 634.6 C 706.5 634.6 706.1 634.2 705.8 634.1 C 705.6 634.1 705.1 634.3 705.0 634.4 C 704.9 634.6 704.4 635.1 704.4 635.1 C 704.3 634.9 704.2 634.7 704.0 634.4 C 704.0 634.4 703.2 634.8 702.4 634.2 C 702.4 634.2 702.4 634.2 702.4 634.2 Z M 722.5 634.0 C 721.5 634.1 722.2 636.7 722.6 637.2 C 723.0 637.8 723.7 637.4 724.3 637.5 C 725.0 637.6 724.8 636.8 725.2 636.6 C 725.6 636.3 725.5 636.9 725.6 637.2 C 725.8 637.6 726.9 637.3 727.5 637.3 C 728.1 637.4 728.8 636.5 729.3 636.4 C 729.8 636.4 728.9 636.0 729.8 636.0 C 730.7 636.1 730.2 636.6 729.2 636.8 C 728.1 637.1 729.6 637.3 730.2 637.4 C 730.7 637.5 731.7 637.1 732.2 637.2 C 732.6 637.2 732.0 636.6 732.7 636.6 C 733.4 636.6 733.0 637.3 733.7 637.4 C 734.4 637.5 734.3 636.9 734.6 636.7 C 735.0 636.6 734.9 636.9 735.2 637.0 C 735.5 637.1 735.9 637.2 736.6 637.1 C 737.2 636.9 737.0 636.8 737.3 636.7 C 737.6 636.7 738.1 636.7 738.1 636.7 C 738.1 636.9 738.2 637.1 738.2 637.3 C 738.2 637.3 739.4 637.4 739.7 637.4 C 740.0 637.5 740.8 637.2 740.6 637.1 C 740.4 636.9 741.2 636.5 741.3 636.6 C 741.5 636.7 742.1 637.0 742.5 637.1 C 742.9 637.3 742.8 635.6 742.8 635.3 C 742.8 635.1 743.0 634.2 742.7 634.1 C 742.3 634.0 742.0 634.3 742.1 634.1 C 742.1 633.8 741.1 634.1 740.8 634.1 C 740.5 634.1 740.2 634.7 740.2 634.7 C 740.2 634.7 739.9 635.2 739.5 635.2 C 739.0 635.2 738.8 634.2 738.8 634.2 C 738.8 634.2 738.3 634.0 737.7 634.0 C 737.1 634.1 736.5 634.9 736.4 635.1 C 736.3 635.3 736.3 634.5 735.9 634.4 C 735.5 634.3 734.9 634.1 734.7 634.1 C 734.6 634.2 734.3 634.7 734.3 634.7 C 734.3 634.7 733.5 635.0 733.4 635.0 C 733.2 635.0 733.5 634.2 733.5 634.2 C 733.5 634.2 731.9 634.0 731.6 634.0 C 731.3 633.9 730.8 634.1 730.6 634.1 C 730.3 634.2 730.0 635.2 729.6 635.1 C 729.3 635.0 730.0 634.5 729.6 634.4 C 729.3 634.3 728.7 634.1 728.5 634.1 C 728.3 634.1 728.1 634.4 727.8 634.5 C 727.5 634.5 727.1 635.2 726.7 635.2 C 726.2 635.2 726.0 634.8 725.8 634.7 C 725.7 634.6 725.5 634.0 725.2 633.9 C 724.8 633.9 725.1 634.4 724.7 634.4 C 724.4 634.4 724.4 634.8 724.1 634.7 C 723.7 634.6 723.9 633.9 723.5 634.0 C 723.4 634.0 723.5 634.0 722.5 634.0 C 722.5 634.0 722.5 634.0 722.5 634.0 Z M 743.5 634.2 C 743.0 633.8 742.6 634.2 742.6 634.6 C 742.7 635.0 742.9 636.0 742.7 636.2 C 742.5 636.5 741.9 637.2 742.8 637.3 C 743.7 637.5 743.9 637.2 743.9 637.0 C 743.9 636.7 744.0 635.7 744.3 635.8 C 744.5 635.9 744.7 636.2 744.8 636.3 C 744.8 636.5 745.2 637.4 745.6 637.3 C 746.0 637.2 746.4 636.9 746.4 636.9 C 746.6 636.9 746.8 636.9 747.0 636.8 C 747.0 636.8 747.6 637.4 748.1 637.3 C 748.5 637.2 749.1 637.2 749.4 637.2 C 749.8 637.3 750.1 637.2 750.2 636.9 C 750.2 636.7 750.7 635.9 750.7 635.9 C 750.7 635.9 751.2 635.6 751.4 635.8 C 751.7 635.9 751.7 636.4 751.7 636.6 C 751.6 636.7 751.7 637.2 752.0 637.3 C 752.4 637.4 753.9 637.9 754.1 637.6 C 754.3 637.3 754.3 636.9 754.4 636.8 C 754.6 636.7 755.6 636.7 755.7 636.9 C 755.8 637.2 755.7 637.7 756.0 637.6 C 756.3 637.6 756.9 637.7 756.9 637.6 C 756.9 637.4 757.1 637.3 757.1 637.0 C 757.1 636.7 757.7 636.5 757.8 636.4 C 757.9 636.2 758.4 636.2 758.4 636.2 C 758.6 636.3 758.7 636.5 758.9 636.7 C 758.9 636.7 758.6 637.2 758.4 637.3 C 758.3 637.3 758.5 637.7 758.7 637.7 C 758.9 637.8 760.0 637.7 760.0 637.7 C 760.0 637.3 760.0 636.9 760.0 636.5 C 760.3 636.4 760.6 636.4 760.9 636.3 C 760.9 636.3 760.7 637.6 761.3 637.6 C 761.8 637.6 762.4 637.6 762.4 637.6 C 762.4 637.6 763.0 637.1 763.1 637.1 C 763.2 637.0 763.3 635.8 763.3 635.8 C 763.2 635.4 763.2 634.9 763.2 634.4 C 763.2 634.4 762.5 634.0 762.2 634.2 C 761.8 634.3 762.1 634.9 762.1 635.1 C 762.0 635.3 761.5 635.5 761.5 635.5 C 761.3 635.3 761.0 635.0 760.8 634.8 C 760.8 634.8 760.6 634.5 760.3 634.3 C 760.1 634.1 759.3 633.9 759.1 634.0 C 758.8 634.1 758.6 634.4 758.3 634.7 C 758.0 634.9 758.1 635.3 757.7 635.0 C 757.4 634.7 757.2 634.3 757.0 634.3 C 756.9 634.3 756.1 634.8 756.1 634.8 C 755.9 634.9 755.7 635.0 755.5 635.1 C 755.5 635.1 754.9 635.3 754.8 635.0 C 754.8 634.8 753.6 635.1 753.6 635.1 C 753.6 635.1 753.7 634.2 753.5 634.1 C 753.2 634.0 752.7 633.8 752.2 633.9 C 751.8 634.1 751.4 634.9 751.4 634.9 C 751.3 634.6 751.1 634.4 751.0 634.2 C 750.6 634.2 750.1 634.1 749.7 634.1 C 749.7 634.1 748.7 634.1 748.7 634.2 C 748.7 634.4 748.8 635.1 748.8 635.3 C 748.7 635.5 748.2 635.7 748.1 635.5 C 748.1 635.2 747.6 634.6 747.6 634.6 C 747.6 634.6 747.2 634.2 746.9 634.1 C 746.6 634.1 746.2 634.3 746.1 634.4 C 745.9 634.6 745.5 635.1 745.5 635.1 C 745.4 634.9 745.2 634.7 745.1 634.4 C 745.1 634.4 744.3 634.8 743.5 634.2 C 743.5 634.2 743.5 634.2 743.5 634.2 Z M 763.6 634.0 C 762.6 634.1 763.2 636.7 763.6 637.2 C 764.0 637.8 764.7 637.4 765.4 637.5 C 766.1 637.6 765.9 636.8 766.3 636.6 C 766.7 636.3 766.5 636.9 766.7 637.2 C 766.9 637.6 767.9 637.3 768.6 637.3 C 769.2 637.4 769.9 636.5 770.4 636.4 C 770.9 636.4 769.9 636.0 770.8 636.0 C 771.8 636.1 771.3 636.6 770.2 636.8 C 769.2 637.1 770.7 637.3 771.2 637.4 C 771.8 637.5 772.8 637.1 773.2 637.2 C 773.7 637.2 773.1 636.6 773.8 636.6 C 774.4 636.6 774.1 637.3 774.8 637.4 C 775.4 637.5 775.4 636.9 775.7 636.7 C 776.0 636.6 776.0 636.9 776.3 637.0 C 776.5 637.1 777.0 637.2 777.6 637.1 C 778.3 636.9 778.1 636.8 778.4 636.7 C 778.7 636.7 779.2 636.7 779.2 636.7 C 779.2 636.9 779.2 637.1 779.3 637.3 C 779.3 637.3 780.4 637.4 780.8 637.4 C 781.1 637.5 781.9 637.2 781.7 637.1 C 781.5 636.9 782.2 636.5 782.4 636.6 C 782.6 636.7 783.2 637.0 783.6 637.1 C 784.0 637.3 783.8 635.6 783.8 635.3 C 783.8 635.1 784.1 634.2 783.7 634.1 C 783.4 634.0 783.1 634.3 783.2 634.1 C 783.2 633.8 782.2 634.1 781.9 634.1 C 781.6 634.1 781.3 634.7 781.3 634.7 C 781.3 634.7 781.0 635.2 780.5 635.2 C 780.1 635.2 779.9 634.2 779.9 634.2 C 779.9 634.2 779.3 634.0 778.8 634.0 C 778.2 634.1 777.6 634.9 777.5 635.1 C 777.3 635.3 777.4 634.5 777.0 634.4 C 776.6 634.3 776.0 634.1 775.8 634.1 C 775.6 634.2 775.3 634.7 775.3 634.7 C 775.3 634.7 774.6 635.0 774.4 635.0 C 774.3 635.0 774.6 634.2 774.6 634.2 C 774.6 634.2 773.0 634.0 772.7 634.0 C 772.4 633.9 771.9 634.1 771.6 634.1 C 771.4 634.2 771.1 635.2 770.7 635.1 C 770.4 635.0 771.1 634.5 770.7 634.4 C 770.4 634.3 769.8 634.1 769.6 634.1 C 769.4 634.1 769.2 634.4 768.9 634.5 C 768.6 634.5 768.2 635.2 767.8 635.2 C 767.3 635.2 767.1 634.8 766.9 634.7 C 766.7 634.6 766.6 634.0 766.3 633.9 C 765.9 633.9 766.2 634.4 765.8 634.4 C 765.5 634.4 765.5 634.8 765.1 634.7 C 764.8 634.6 765.0 633.9 764.6 634.0 C 764.4 634.0 764.6 634.0 763.6 634.0 C 763.6 634.0 763.6 634.0 763.6 634.0 Z M 785.9 634.8 C 785.7 634.9 785.5 634.4 785.0 634.3 C 784.4 634.1 783.7 634.1 783.8 634.4 C 784.0 634.7 784.2 634.9 783.9 635.3 C 783.6 635.7 783.2 636.4 783.6 636.7 C 784.0 637.0 785.6 637.7 786.1 637.3 C 786.6 636.9 786.8 636.8 787.1 636.5 C 787.5 636.3 787.2 637.1 787.2 637.1 C 787.2 637.1 788.1 637.2 788.7 637.2 C 789.4 637.3 790.1 637.3 790.1 637.2 C 790.2 637.1 790.5 636.8 790.5 636.8 C 790.5 636.8 790.8 637.1 791.2 637.2 C 791.7 637.3 791.5 637.1 791.5 636.9 C 791.4 636.7 790.8 636.2 791.0 636.2 C 791.2 636.2 791.8 637.0 792.2 637.1 C 792.5 637.1 793.2 637.1 793.2 637.1 C 793.2 637.1 793.2 636.6 793.2 636.5 C 793.3 636.4 794.0 636.4 794.1 636.5 C 794.1 636.7 794.0 637.2 794.4 637.2 C 795.5 637.3 795.4 636.4 795.5 636.4 C 795.6 636.4 795.6 637.0 795.9 637.1 C 796.1 637.3 798.4 637.1 798.5 637.0 C 798.6 636.8 799.3 637.4 799.7 637.0 C 800.0 636.6 800.1 636.5 800.2 636.3 C 800.2 636.2 800.7 635.6 800.9 635.8 C 801.1 636.1 800.2 636.9 800.5 637.1 C 800.7 637.3 802.1 637.3 802.4 637.1 C 802.7 636.8 802.8 636.2 803.0 636.2 C 803.2 636.2 804.0 637.0 804.1 636.9 C 804.1 636.7 804.2 636.0 804.2 635.9 C 804.2 635.8 804.5 634.5 804.3 634.4 C 804.1 634.2 803.3 633.7 803.4 634.1 C 803.5 634.4 803.7 634.9 803.4 635.0 C 803.1 635.2 803.0 635.2 802.9 635.1 C 802.8 635.0 803.0 634.8 802.5 634.6 C 802.0 634.3 802.3 634.0 801.8 634.1 C 801.3 634.1 800.9 634.2 801.0 634.4 C 801.0 634.7 800.5 635.1 800.2 635.1 C 799.8 635.1 800.4 634.5 799.4 634.2 C 798.3 634.0 797.6 633.9 797.3 634.2 C 797.0 634.4 797.0 635.1 796.5 634.8 C 796.0 634.5 796.3 634.3 795.6 634.3 C 794.9 634.3 794.7 634.9 794.2 634.9 C 793.8 635.0 793.7 634.9 793.7 634.9 C 793.7 634.9 793.9 634.1 792.9 634.1 C 792.0 634.0 791.8 633.9 792.0 634.5 C 792.2 635.1 791.5 635.2 791.4 634.8 C 791.4 634.4 790.8 634.1 790.5 634.1 C 790.1 634.0 790.1 635.0 789.9 635.1 C 789.8 635.1 789.4 635.0 789.5 634.7 C 789.7 634.4 789.3 634.3 789.0 634.2 C 788.7 634.1 787.8 634.2 787.9 634.3 C 787.9 634.5 788.3 635.2 787.7 634.9 C 787.1 634.5 786.9 634.0 786.4 634.0 C 785.8 634.1 786.3 634.7 785.9 634.8 C 785.9 634.8 785.9 634.8 785.9 634.8 Z M 805.1 634.2 C 804.6 633.8 804.2 634.2 804.3 634.6 C 804.3 635.0 804.5 636.0 804.3 636.2 C 804.1 636.5 803.6 637.2 804.4 637.3 C 805.3 637.5 805.5 637.2 805.5 637.0 C 805.5 636.7 805.6 635.7 805.9 635.8 C 806.1 635.9 806.3 636.2 806.4 636.3 C 806.5 636.5 806.8 637.4 807.2 637.3 C 807.6 637.2 808.0 636.9 808.0 636.9 C 808.2 636.9 808.4 636.9 808.7 636.8 C 808.7 636.8 809.2 637.4 809.7 637.3 C 810.2 637.2 810.7 637.2 811.0 637.2 C 811.4 637.3 811.7 637.2 811.8 636.9 C 811.8 636.7 812.3 635.9 812.3 635.9 C 812.3 635.9 812.8 635.6 813.0 635.8 C 813.3 635.9 813.3 636.4 813.3 636.6 C 813.2 636.7 813.3 637.2 813.6 637.3 C 814.0 637.4 815.5 637.9 815.7 637.6 C 815.9 637.3 815.9 636.9 816.0 636.8 C 816.2 636.7 817.2 636.7 817.3 636.9 C 817.4 637.2 817.3 637.7 817.6 637.6 C 817.9 637.6 818.5 637.7 818.5 637.6 C 818.5 637.4 818.7 637.3 818.7 637.0 C 818.7 636.7 819.3 636.5 819.4 636.4 C 819.5 636.2 820.0 636.2 820.0 636.2 C 820.2 636.3 820.4 636.5 820.6 636.7 C 820.6 636.7 820.2 637.2 820.0 637.3 C 819.9 637.3 820.1 637.7 820.3 637.7 C 820.5 637.8 821.6 637.7 821.6 637.7 C 821.6 637.3 821.6 636.9 821.7 636.5 C 821.9 636.4 822.2 636.4 822.5 636.3 C 822.5 636.3 822.3 637.6 822.9 637.6 C 823.4 637.6 824.0 637.6 824.0 637.6 C 824.0 637.6 824.6 637.1 824.7 637.1 C 824.8 637.0 824.9 635.8 824.9 635.8 C 824.9 635.4 824.8 634.9 824.8 634.4 C 824.8 634.4 824.1 634.0 823.8 634.2 C 823.4 634.3 823.7 634.9 823.7 635.1 C 823.6 635.3 823.1 635.5 823.1 635.5 C 822.9 635.3 822.6 635.0 822.4 634.8 C 822.4 634.8 822.2 634.5 821.9 634.3 C 821.7 634.1 820.9 633.9 820.7 634.0 C 820.4 634.1 820.2 634.4 819.9 634.7 C 819.6 634.9 819.7 635.3 819.3 635.0 C 819.0 634.7 818.8 634.3 818.6 634.3 C 818.5 634.3 817.7 634.8 817.7 634.8 C 817.5 634.9 817.3 635.0 817.1 635.1 C 817.1 635.1 816.5 635.3 816.5 635.0 C 816.4 634.8 815.2 635.1 815.2 635.1 C 815.2 635.1 815.4 634.2 815.1 634.1 C 814.8 634.0 814.3 633.8 813.8 633.9 C 813.4 634.1 813.0 634.9 813.0 634.9 C 812.9 634.6 812.8 634.4 812.6 634.2 C 812.2 634.2 811.7 634.1 811.3 634.1 C 811.3 634.1 810.3 634.1 810.3 634.2 C 810.3 634.4 810.4 635.1 810.4 635.3 C 810.3 635.5 809.8 635.7 809.7 635.5 C 809.7 635.2 809.2 634.6 809.2 634.6 C 809.2 634.6 808.8 634.2 808.5 634.1 C 808.2 634.1 807.8 634.3 807.7 634.4 C 807.5 634.6 807.1 635.1 807.1 635.1 C 807.0 634.9 806.8 634.7 806.7 634.4 C 806.7 634.4 805.9 634.8 805.1 634.2 C 805.1 634.2 805.1 634.2 805.1 634.2 Z M 827.0 634.8 C 826.8 634.9 826.6 634.4 826.0 634.3 C 825.5 634.1 824.8 634.1 824.9 634.4 C 825.0 634.7 825.3 634.9 825.0 635.3 C 824.7 635.7 824.3 636.4 824.7 636.7 C 825.1 637.0 826.7 637.7 827.2 637.3 C 827.7 636.9 827.8 636.8 828.2 636.5 C 828.6 636.3 828.3 637.1 828.3 637.1 C 828.3 637.1 829.2 637.2 829.8 637.2 C 830.4 637.3 831.2 637.3 831.2 637.2 C 831.3 637.1 831.5 636.8 831.5 636.8 C 831.5 636.8 831.9 637.1 832.3 637.2 C 832.8 637.3 832.6 637.1 832.5 636.9 C 832.5 636.7 831.9 636.2 832.1 636.2 C 832.3 636.2 832.9 637.0 833.3 637.1 C 833.6 637.1 834.3 637.1 834.3 637.1 C 834.3 637.1 834.2 636.6 834.3 636.5 C 834.4 636.4 835.1 636.4 835.1 636.5 C 835.2 636.7 835.1 637.2 835.5 637.2 C 836.6 637.3 836.5 636.4 836.6 636.4 C 836.7 636.4 836.7 637.0 836.9 637.1 C 837.2 637.3 839.4 637.1 839.6 637.0 C 839.7 636.8 840.4 637.4 840.7 637.0 C 841.1 636.6 841.2 636.5 841.2 636.3 C 841.3 636.2 841.7 635.6 841.9 635.8 C 842.1 636.1 841.3 636.9 841.5 637.1 C 841.8 637.3 843.2 637.3 843.4 637.1 C 843.8 636.8 843.9 636.2 844.1 636.2 C 844.3 636.2 845.1 637.0 845.1 636.9 C 845.2 636.7 845.3 636.0 845.3 635.9 C 845.3 635.8 845.6 634.5 845.4 634.4 C 845.2 634.2 844.4 633.7 844.5 634.1 C 844.6 634.4 844.8 634.9 844.5 635.0 C 844.2 635.2 844.0 635.2 844.0 635.1 C 843.9 635.0 844.1 634.8 843.6 634.6 C 843.1 634.3 843.3 634.0 842.9 634.1 C 842.4 634.1 842.0 634.2 842.0 634.4 C 842.1 634.7 841.6 635.1 841.2 635.1 C 840.9 635.1 841.5 634.5 840.4 634.2 C 839.4 634.0 838.7 633.9 838.4 634.2 C 838.1 634.4 838.1 635.1 837.6 634.8 C 837.1 634.5 837.3 634.3 836.7 634.3 C 836.0 634.3 835.7 634.9 835.3 634.9 C 834.9 635.0 834.8 634.9 834.8 634.9 C 834.8 634.9 835.0 634.1 834.0 634.1 C 833.1 634.0 832.8 633.9 833.1 634.5 C 833.3 635.1 832.5 635.2 832.5 634.8 C 832.5 634.4 831.9 634.1 831.6 634.1 C 831.2 634.0 831.1 635.0 831.0 635.1 C 830.9 635.1 830.5 635.0 830.6 634.7 C 830.8 634.4 830.4 634.3 830.1 634.2 C 829.8 634.1 828.9 634.2 828.9 634.3 C 828.9 634.5 829.4 635.2 828.8 634.9 C 828.2 634.5 828.0 634.0 827.4 634.0 C 826.9 634.1 827.4 634.7 827.0 634.8 C 827.0 634.8 827.0 634.8 827.0 634.8 Z M 845.7 634.0 C 844.7 634.1 845.4 636.7 845.8 637.2 C 846.2 637.8 846.9 637.4 847.6 637.5 C 848.3 637.6 848.0 636.8 848.4 636.6 C 848.8 636.3 848.7 636.9 848.9 637.2 C 849.0 637.6 850.1 637.3 850.7 637.3 C 851.3 637.4 852.0 636.5 852.5 636.4 C 853.0 636.4 852.1 636.0 853.0 636.0 C 853.9 636.1 853.4 636.6 852.4 636.8 C 851.3 637.1 852.8 637.3 853.4 637.4 C 854.0 637.5 854.9 637.1 855.4 637.2 C 855.8 637.2 855.3 636.6 855.9 636.6 C 856.6 636.6 856.3 637.3 856.9 637.4 C 857.6 637.5 857.5 636.9 857.9 636.7 C 858.2 636.6 858.1 636.9 858.4 637.0 C 858.7 637.1 859.1 637.2 859.8 637.1 C 860.4 636.9 860.2 636.8 860.5 636.7 C 860.8 636.7 861.3 636.7 861.3 636.7 C 861.4 636.9 861.4 637.1 861.4 637.3 C 861.4 637.3 862.6 637.4 862.9 637.4 C 863.3 637.5 864.0 637.2 863.8 637.1 C 863.6 636.9 864.4 636.5 864.6 636.6 C 864.7 636.7 865.3 637.0 865.7 637.1 C 866.1 637.3 866.0 635.6 866.0 635.3 C 866.0 635.1 866.2 634.2 865.9 634.1 C 865.5 634.0 865.3 634.3 865.3 634.1 C 865.4 633.8 864.3 634.1 864.1 634.1 C 863.8 634.1 863.4 634.7 863.4 634.7 C 863.4 634.7 863.1 635.2 862.7 635.2 C 862.2 635.2 862.1 634.2 862.1 634.2 C 862.1 634.2 861.5 634.0 860.9 634.0 C 860.3 634.1 859.7 634.9 859.6 635.1 C 859.5 635.3 859.5 634.5 859.1 634.4 C 858.7 634.3 858.1 634.1 857.9 634.1 C 857.8 634.2 857.5 634.7 857.5 634.7 C 857.5 634.7 856.7 635.0 856.6 635.0 C 856.4 635.0 856.7 634.2 856.7 634.2 C 856.7 634.2 855.1 634.0 854.8 634.0 C 854.5 633.9 854.0 634.1 853.8 634.1 C 853.5 634.2 853.2 635.2 852.9 635.1 C 852.5 635.0 853.2 634.5 852.9 634.4 C 852.5 634.3 851.9 634.1 851.7 634.1 C 851.6 634.1 851.3 634.4 851.0 634.5 C 850.8 634.5 850.4 635.2 849.9 635.2 C 849.5 635.2 849.2 634.8 849.1 634.7 C 848.9 634.6 848.8 634.0 848.4 633.9 C 848.0 633.9 848.3 634.4 848.0 634.4 C 847.6 634.4 847.6 634.8 847.3 634.7 C 846.9 634.6 847.1 633.9 846.8 634.0 C 846.6 634.0 846.8 634.0 845.7 634.0 C 845.7 634.0 845.7 634.0 845.7 634.0 Z M 866.7 634.2 C 866.2 633.8 865.8 634.2 865.9 634.6 C 865.9 635.0 866.1 636.0 865.9 636.2 C 865.7 636.5 865.2 637.2 866.0 637.3 C 866.9 637.5 867.1 637.2 867.1 637.0 C 867.1 636.7 867.3 635.7 867.5 635.8 C 867.7 635.9 867.9 636.2 868.0 636.3 C 868.1 636.5 868.4 637.4 868.8 637.3 C 869.2 637.2 869.6 636.9 869.6 636.9 C 869.8 636.9 870.0 636.9 870.3 636.8 C 870.3 636.8 870.8 637.4 871.3 637.3 C 871.8 637.2 872.3 637.2 872.6 637.2 C 873.0 637.3 873.3 637.2 873.4 636.9 C 873.4 636.7 873.9 635.9 873.9 635.9 C 873.9 635.9 874.4 635.6 874.6 635.8 C 874.9 635.9 874.9 636.4 874.9 636.6 C 874.8 636.7 874.9 637.2 875.2 637.3 C 875.6 637.4 877.1 637.9 877.3 637.6 C 877.5 637.3 877.5 636.9 877.7 636.8 C 877.8 636.7 878.8 636.7 878.9 636.9 C 879.0 637.2 878.9 637.7 879.2 637.6 C 879.5 637.6 880.1 637.7 880.1 637.6 C 880.1 637.4 880.3 637.3 880.3 637.0 C 880.3 636.7 880.9 636.5 881.0 636.4 C 881.1 636.2 881.6 636.2 881.6 636.2 C 881.8 636.3 882.0 636.5 882.2 636.7 C 882.2 636.7 881.8 637.2 881.6 637.3 C 881.5 637.3 881.8 637.7 881.9 637.7 C 882.1 637.8 883.2 637.7 883.2 637.7 C 883.2 637.3 883.2 636.9 883.3 636.5 C 883.5 636.4 883.8 636.4 884.1 636.3 C 884.1 636.3 884.0 637.6 884.5 637.6 C 885.0 637.6 885.6 637.6 885.6 637.6 C 885.6 637.6 886.2 637.1 886.3 637.1 C 886.4 637.0 886.5 635.8 886.5 635.8 C 886.5 635.4 886.4 634.9 886.4 634.4 C 886.4 634.4 885.7 634.0 885.4 634.2 C 885.1 634.3 885.3 634.9 885.3 635.1 C 885.2 635.3 884.7 635.5 884.7 635.5 C 884.5 635.3 884.2 635.0 884.0 634.8 C 884.0 634.8 883.8 634.5 883.6 634.3 C 883.3 634.1 882.5 633.9 882.3 634.0 C 882.1 634.1 881.8 634.4 881.5 634.7 C 881.2 634.9 881.3 635.3 881.0 635.0 C 880.6 634.7 880.4 634.3 880.3 634.3 C 880.1 634.3 879.3 634.8 879.3 634.8 C 879.1 634.9 878.9 635.0 878.7 635.1 C 878.7 635.1 878.1 635.3 878.1 635.0 C 878.0 634.8 876.8 635.1 876.8 635.1 C 876.8 635.1 877.0 634.2 876.7 634.1 C 876.4 634.0 875.9 633.8 875.5 633.9 C 875.0 634.1 874.6 634.9 874.6 634.9 C 874.5 634.6 874.4 634.4 874.2 634.2 C 873.8 634.2 873.4 634.1 872.9 634.1 C 872.9 634.1 871.9 634.1 871.9 634.2 C 871.9 634.4 872.0 635.1 872.0 635.3 C 871.9 635.5 871.4 635.7 871.4 635.5 C 871.3 635.2 870.8 634.6 870.8 634.6 C 870.8 634.6 870.4 634.2 870.1 634.1 C 869.8 634.1 869.4 634.3 869.3 634.4 C 869.2 634.6 868.7 635.1 868.7 635.1 C 868.6 634.9 868.5 634.7 868.3 634.4 C 868.3 634.4 867.5 634.8 866.7 634.2 C 866.7 634.2 866.7 634.2 866.7 634.2 Z M 888.6 634.8 C 888.4 634.9 888.2 634.4 887.7 634.3 C 887.1 634.1 886.4 634.1 886.5 634.4 C 886.7 634.7 886.9 634.9 886.6 635.3 C 886.3 635.7 885.9 636.4 886.3 636.7 C 886.7 637.0 888.3 637.7 888.8 637.3 C 889.3 636.9 889.4 636.8 889.8 636.5 C 890.2 636.3 889.9 637.1 889.9 637.1 C 889.9 637.1 890.8 637.2 891.4 637.2 C 892.0 637.3 892.8 637.3 892.8 637.2 C 892.9 637.1 893.1 636.8 893.1 636.8 C 893.1 636.8 893.5 637.1 893.9 637.2 C 894.4 637.3 894.2 637.1 894.2 636.9 C 894.1 636.7 893.5 636.2 893.7 636.2 C 893.9 636.2 894.5 637.0 894.9 637.1 C 895.2 637.1 895.9 637.1 895.9 637.1 C 895.9 637.1 895.9 636.6 895.9 636.5 C 896.0 636.4 896.7 636.4 896.7 636.5 C 896.8 636.7 896.7 637.2 897.1 637.2 C 898.2 637.3 898.1 636.4 898.2 636.4 C 898.3 636.4 898.3 637.0 898.5 637.1 C 898.8 637.3 901.0 637.1 901.2 637.0 C 901.3 636.8 902.0 637.4 902.4 637.0 C 902.7 636.6 902.8 636.5 902.8 636.3 C 902.9 636.2 903.3 635.6 903.6 635.8 C 903.8 636.1 902.9 636.9 903.1 637.1 C 903.4 637.3 904.8 637.3 905.0 637.1 C 905.4 636.8 905.5 636.2 905.7 636.2 C 905.9 636.2 906.7 637.0 906.7 636.9 C 906.8 636.7 906.9 636.0 906.9 635.9 C 906.9 635.8 907.2 634.5 907.0 634.4 C 906.8 634.2 906.0 633.7 906.1 634.1 C 906.2 634.4 906.4 634.9 906.1 635.0 C 905.8 635.2 905.6 635.2 905.6 635.1 C 905.5 635.0 905.7 634.8 905.2 634.6 C 904.7 634.3 904.9 634.0 904.5 634.1 C 904.0 634.1 903.6 634.2 903.6 634.4 C 903.7 634.7 903.2 635.1 902.9 635.1 C 902.5 635.1 903.1 634.5 902.0 634.2 C 901.0 634.0 900.3 633.9 900.0 634.2 C 899.7 634.4 899.7 635.1 899.2 634.8 C 898.7 634.5 899.0 634.3 898.3 634.3 C 897.6 634.3 897.3 634.9 896.9 634.9 C 896.5 635.0 896.4 634.9 896.4 634.9 C 896.4 634.9 896.6 634.1 895.6 634.1 C 894.7 634.0 894.5 633.9 894.7 634.5 C 894.9 635.1 894.1 635.2 894.1 634.8 C 894.1 634.4 893.5 634.1 893.2 634.1 C 892.8 634.0 892.7 635.0 892.6 635.1 C 892.5 635.1 892.1 635.0 892.2 634.7 C 892.4 634.4 892.0 634.3 891.7 634.2 C 891.4 634.1 890.5 634.2 890.5 634.3 C 890.5 634.5 891.0 635.2 890.4 634.9 C 889.8 634.5 889.6 634.0 889.1 634.0 C 888.5 634.1 889.0 634.7 888.6 634.8 C 888.6 634.8 888.6 634.8 888.6 634.8 Z M 907.8 634.2 C 907.3 633.8 906.9 634.2 906.9 634.6 C 907.0 635.0 907.2 636.0 907.0 636.2 C 906.8 636.5 906.2 637.2 907.1 637.3 C 908.0 637.5 908.2 637.2 908.2 637.0 C 908.2 636.7 908.3 635.7 908.6 635.8 C 908.8 635.9 909.0 636.2 909.1 636.3 C 909.1 636.5 909.5 637.4 909.9 637.3 C 910.3 637.2 910.7 636.9 910.7 636.9 C 910.9 636.9 911.1 636.9 911.3 636.8 C 911.3 636.8 911.9 637.4 912.4 637.3 C 912.8 637.2 913.4 637.2 913.7 637.2 C 914.0 637.3 914.4 637.2 914.5 636.9 C 914.5 636.7 915.0 635.9 915.0 635.9 C 915.0 635.9 915.5 635.6 915.7 635.8 C 916.0 635.9 916.0 636.4 916.0 636.6 C 915.9 636.7 916.0 637.2 916.3 637.3 C 916.7 637.4 918.2 637.9 918.4 637.6 C 918.6 637.3 918.6 636.9 918.7 636.8 C 918.9 636.7 919.9 636.7 920.0 636.9 C 920.1 637.2 920.0 637.7 920.3 637.6 C 920.6 637.6 921.2 637.7 921.2 637.6 C 921.2 637.4 921.3 637.3 921.4 637.0 C 921.4 636.7 922.0 636.5 922.1 636.4 C 922.2 636.2 922.7 636.2 922.7 636.2 C 922.9 636.3 923.0 636.5 923.2 636.7 C 923.2 636.7 922.9 637.2 922.7 637.3 C 922.5 637.3 922.8 637.7 923.0 637.7 C 923.2 637.8 924.3 637.7 924.3 637.7 C 924.3 637.3 924.3 636.9 924.3 636.5 C 924.6 636.4 924.9 636.4 925.2 636.3 C 925.2 636.3 925.0 637.6 925.6 637.6 C 926.1 637.6 926.7 637.6 926.7 637.6 C 926.7 637.6 927.3 637.1 927.4 637.1 C 927.5 637.0 927.6 635.8 927.6 635.8 C 927.5 635.4 927.5 634.9 927.5 634.4 C 927.5 634.4 926.8 634.0 926.5 634.2 C 926.1 634.3 926.4 634.9 926.4 635.1 C 926.3 635.3 925.8 635.5 925.8 635.5 C 925.6 635.3 925.3 635.0 925.1 634.8 C 925.1 634.8 924.9 634.5 924.6 634.3 C 924.4 634.1 923.6 633.9 923.4 634.0 C 923.1 634.1 922.9 634.4 922.6 634.7 C 922.3 634.9 922.4 635.3 922.0 635.0 C 921.7 634.7 921.5 634.3 921.3 634.3 C 921.2 634.3 920.4 634.8 920.4 634.8 C 920.2 634.9 920.0 635.0 919.8 635.1 C 919.8 635.1 919.2 635.3 919.1 635.0 C 919.1 634.8 917.9 635.1 917.9 635.1 C 917.9 635.1 918.0 634.2 917.7 634.1 C 917.5 634.0 917.0 633.8 916.5 633.9 C 916.1 634.1 915.7 634.9 915.7 634.9 C 915.6 634.6 915.4 634.4 915.3 634.2 C 914.9 634.2 914.4 634.1 914.0 634.1 C 914.0 634.1 913.0 634.1 913.0 634.2 C 913.0 634.4 913.1 635.1 913.1 635.3 C 913.0 635.5 912.5 635.7 912.4 635.5 C 912.4 635.2 911.9 634.6 911.9 634.6 C 911.9 634.6 911.5 634.2 911.2 634.1 C 910.9 634.1 910.5 634.3 910.3 634.4 C 910.2 634.6 909.8 635.1 909.8 635.1 C 909.6 634.9 909.5 634.7 909.4 634.4 C 909.4 634.4 908.6 634.8 907.8 634.2 C 907.8 634.2 907.8 634.2 907.8 634.2 Z M 927.9 634.0 C 926.9 634.1 927.5 636.7 927.9 637.2 C 928.3 637.8 929.0 637.4 929.7 637.5 C 930.4 637.6 930.2 636.8 930.6 636.6 C 931.0 636.3 930.8 636.9 931.0 637.2 C 931.2 637.6 932.2 637.3 932.9 637.3 C 933.5 637.4 934.2 636.5 934.7 636.4 C 935.2 636.4 934.2 636.0 935.1 636.0 C 936.0 636.1 935.6 636.6 934.5 636.8 C 933.5 637.1 935.0 637.3 935.5 637.4 C 936.1 637.5 937.1 637.1 937.5 637.2 C 938.0 637.2 937.4 636.6 938.1 636.6 C 938.7 636.6 938.4 637.3 939.1 637.4 C 939.7 637.5 939.7 636.9 940.0 636.7 C 940.3 636.6 940.3 636.9 940.6 637.0 C 940.8 637.1 941.3 637.2 941.9 637.1 C 942.5 636.9 942.4 636.8 942.7 636.7 C 942.9 636.7 943.5 636.7 943.5 636.7 C 943.5 636.9 943.5 637.1 943.6 637.3 C 943.6 637.3 944.7 637.4 945.1 637.4 C 945.4 637.5 946.2 637.2 946.0 637.1 C 945.8 636.9 946.5 636.5 946.7 636.6 C 946.9 636.7 947.5 637.0 947.9 637.1 C 948.2 637.3 948.1 635.6 948.1 635.3 C 948.1 635.1 948.4 634.2 948.0 634.1 C 947.7 634.0 947.4 634.3 947.5 634.1 C 947.5 633.8 946.5 634.1 946.2 634.1 C 945.9 634.1 945.6 634.7 945.6 634.7 C 945.6 634.7 945.3 635.2 944.8 635.2 C 944.4 635.2 944.2 634.2 944.2 634.2 C 944.2 634.2 943.6 634.0 943.1 634.0 C 942.5 634.1 941.9 634.9 941.8 635.1 C 941.6 635.3 941.7 634.5 941.3 634.4 C 940.9 634.3 940.3 634.1 940.1 634.1 C 939.9 634.2 939.6 634.7 939.6 634.7 C 939.6 634.7 938.9 635.0 938.7 635.0 C 938.6 635.0 938.8 634.2 938.8 634.2 C 938.8 634.2 937.3 634.0 937.0 634.0 C 936.7 633.9 936.1 634.1 935.9 634.1 C 935.7 634.2 935.4 635.2 935.0 635.1 C 934.7 635.0 935.4 634.5 935.0 634.4 C 934.7 634.3 934.0 634.1 933.9 634.1 C 933.7 634.1 933.5 634.4 933.2 634.5 C 932.9 634.5 932.5 635.2 932.0 635.2 C 931.6 635.2 931.4 634.8 931.2 634.7 C 931.0 634.6 930.9 634.0 930.6 633.9 C 930.2 633.9 930.5 634.4 930.1 634.4 C 929.8 634.4 929.8 634.8 929.4 634.7 C 929.1 634.6 929.3 633.9 928.9 634.0 C 928.7 634.0 928.9 634.0 927.9 634.0 C 927.9 634.0 927.9 634.0 927.9 634.0 Z M 927.9 634.0 " fill="#000000"></path><image xlink:href="F7D67F5D5B153A4CDCBCB265E61EF5C3.png" width="960.00" height="386.00" transform="matrix(1.07, 0.00, -0.00, -1.07, 0.0, 630.0)"></image><text xml:space="preserve" font-family="Helvetica-Light" font-size="18.0" fill="#000000" transform="matrix(1.00, 0.00, -0.00, -1.00, 506.0, 18.0)">5</text></g></svg>