<?xml version="1.0" encoding="UTF-8" standalone="no"?><svg xmlns="http://www.w3.org/2000/svg" xmlns:xlink="http://www.w3.org/1999/xlink" clip-rule="evenodd" stroke-miterlimit="4.00" viewBox="0 0 844 51"><desc>SVG generated by Keynote</desc><defs></defs><g transform="matrix(1.00, 0.00, -0.00, -1.00, 0.0, 51.0)"><g><clipPath id="clip-88"><path d="M 82.3 8.6 L 0.3 8.6 L 0.3 38.3 L 82.3 38.3 Z M 82.3 8.6 "></path></clipPath><g clip-path="url(#clip-88)"><path d="M 67.8 25.0 C 68.1 24.8 68.8 25.0 69.0 24.9 M 67.8 25.0 C 68.5 26.1 69.9 26.1 71.6 26.3 C 73.5 26.4 71.5 25.3 71.8 24.9 C 74.3 24.4 74.3 25.2 73.9 26.4 C 74.9 25.6 77.7 27.0 77.1 25.5 C 73.1 25.5 79.9 25.2 76.6 24.3 C 76.2 24.1 77.2 23.7 77.6 23.7 C 76.5 23.1 78.4 22.4 76.6 21.9 C 76.3 21.0 76.6 21.4 75.5 20.7 C 75.0 20.6 75.2 20.9 75.3 21.1 C 75.1 22.2 73.9 20.5 73.0 21.2 C 72.1 19.8 71.2 21.4 72.0 22.0 C 71.1 21.9 70.1 20.4 69.3 21.4 C 68.8 20.7 66.5 21.2 67.9 22.1 C 68.9 22.6 67.8 23.1 67.6 23.4 C 67.9 23.7 69.3 23.3 69.5 23.5 C 69.1 23.8 67.3 24.3 69.2 24.2 C 68.6 24.7 69.6 25.0 67.8 25.0 C 67.8 25.0 67.8 25.0 67.8 25.0 Z M 74.6 25.8 C 74.6 26.2 74.0 25.8 74.6 25.8 C 74.6 25.8 74.6 25.8 74.6 25.8 Z M 70.0 20.7 C 70.0 21.1 69.3 20.7 70.0 20.7 C 70.0 20.7 70.0 20.7 70.0 20.7 Z M 74.9 21.1 C 75.0 21.5 74.3 21.1 74.9 21.1 C 74.9 21.1 74.9 21.1 74.9 21.1 Z M 72.8 25.5 C 71.8 25.2 73.7 25.0 73.9 25.4 C 73.7 25.3 73.1 25.9 72.8 25.5 C 72.8 25.5 72.8 25.5 72.8 25.5 Z M 72.7 23.3 C 72.6 23.5 72.2 23.5 72.2 23.1 C 72.5 23.0 72.8 23.2 72.7 23.3 C 72.7 23.3 72.7 23.3 72.7 23.3 Z M 78.0 24.9 C 77.9 25.0 77.5 25.1 77.5 24.7 C 77.8 24.6 78.1 24.8 78.0 24.9 C 78.0 24.9 78.0 24.9 78.0 24.9 Z M 71.6 24.5 C 71.4 24.5 71.3 24.1 71.6 24.1 C 71.7 24.2 72.5 24.3 71.6 24.5 C 71.6 24.5 71.6 24.5 71.6 24.5 Z M 70.0 25.8 C 69.1 25.6 70.9 25.0 70.9 25.2 C 71.1 25.5 70.5 26.1 70.0 25.8 C 70.0 25.8 70.0 25.8 70.0 25.8 Z M 71.1 24.0 C 70.4 23.8 71.4 23.7 71.1 24.0 C 71.1 24.0 71.1 24.0 71.1 24.0 Z M 77.3 22.1 C 76.5 21.9 77.6 21.8 77.3 22.1 C 77.3 22.1 77.3 22.1 77.3 22.1 Z M 73.4 20.9 C 72.6 20.7 73.7 20.6 73.4 20.9 C 73.4 20.9 73.4 20.9 73.4 20.9 Z M 74.8 24.8 C 76.1 24.8 75.0 25.7 74.8 24.8 C 74.8 24.8 74.8 24.8 74.8 24.8 Z M 67.9 25.9 C 69.2 25.9 68.1 26.8 67.9 25.9 C 67.9 25.9 67.9 25.9 67.9 25.9 Z M 23.9 25.5 C 22.7 25.7 27.3 27.0 25.6 25.5 C 25.1 24.3 28.2 24.4 27.4 25.5 C 28.3 25.7 28.3 25.7 28.8 25.1 C 29.0 26.1 31.2 26.5 31.9 26.0 C 32.4 25.3 30.5 25.9 31.7 25.1 C 34.4 24.9 31.5 24.3 32.5 23.2 C 32.7 23.2 32.7 23.7 33.0 23.5 C 33.0 22.5 31.5 21.9 32.2 21.1 C 31.8 21.3 29.8 20.2 30.6 21.1 C 30.9 22.0 28.5 20.0 28.7 21.5 C 28.0 20.8 27.3 21.7 26.7 20.9 C 26.2 20.7 26.2 21.5 26.3 21.7 C 26.4 22.4 25.7 20.1 25.0 21.4 C 24.9 21.0 22.7 21.1 24.3 21.7 C 23.9 21.6 21.4 21.3 22.7 22.6 C 24.4 23.2 20.9 23.9 22.9 24.0 C 24.5 24.1 24.8 23.9 23.6 24.6 C 23.3 24.5 21.5 24.6 23.0 25.2 C 23.4 25.0 24.1 25.2 23.9 25.5 C 23.9 25.5 23.9 25.5 23.9 25.5 Z M 23.6 23.6 C 24.5 23.5 23.6 24.1 23.6 23.6 C 23.6 23.6 23.6 23.6 23.6 23.6 Z M 26.9 20.6 C 27.8 20.5 26.9 21.1 26.9 20.6 C 26.9 20.6 26.9 20.6 26.9 20.6 Z M 26.7 25.9 C 27.2 25.5 27.3 26.9 26.7 25.9 C 26.7 25.9 26.7 25.9 26.7 25.9 Z M 25.3 21.7 C 25.4 21.7 25.2 21.9 25.0 22.0 C 25.0 21.9 25.3 21.7 25.3 21.7 C 25.3 21.7 25.3 21.7 25.3 21.7 Z M 28.3 25.9 C 29.6 25.2 28.5 26.9 28.3 25.9 C 28.3 25.9 28.3 25.9 28.3 25.9 Z M 31.0 24.6 C 31.2 23.2 32.4 24.9 31.0 24.6 C 31.0 24.6 31.0 24.6 31.0 24.6 Z M 29.1 21.6 C 28.9 21.9 28.9 21.4 29.1 21.6 C 29.1 21.6 29.1 21.6 29.1 21.6 Z M 23.2 21.4 C 22.9 21.7 22.9 21.2 23.2 21.4 C 23.2 21.4 23.2 21.4 23.2 21.4 Z M 30.8 21.7 C 30.7 22.2 30.3 21.4 30.8 21.7 C 30.8 21.7 30.8 21.7 30.8 21.7 Z M 27.0 25.3 C 25.7 26.4 25.5 23.7 27.0 25.3 C 27.0 25.3 27.0 25.3 27.0 25.3 Z M 24.8 25.4 C 23.9 25.7 24.9 24.7 25.3 24.9 C 25.3 25.0 24.9 25.4 24.8 25.4 C 24.8 25.4 24.8 25.4 24.8 25.4 Z M 28.3 25.2 C 27.5 25.7 27.5 24.9 28.3 25.2 C 28.3 25.2 28.3 25.2 28.3 25.2 Z M 26.1 25.8 C 25.7 25.7 26.5 25.7 26.1 25.8 C 26.1 25.8 26.1 25.8 26.1 25.8 Z M 30.0 26.3 C 29.6 26.2 30.4 26.2 30.0 26.3 C 30.0 26.3 30.0 26.3 30.0 26.3 Z M 23.7 26.0 C 23.3 25.9 24.1 25.9 23.7 26.0 C 23.7 26.0 23.7 26.0 23.7 26.0 Z M 29.6 25.6 C 29.8 25.1 28.6 24.0 30.7 25.0 C 31.1 25.3 30.2 26.0 29.6 25.6 C 29.6 25.6 29.6 25.6 29.6 25.6 Z M 64.4 24.9 C 69.4 26.5 68.2 23.8 68.4 23.3 C 69.1 22.5 68.4 22.1 67.4 21.6 C 66.4 19.9 65.9 23.3 65.1 21.6 C 63.8 19.4 63.7 23.6 63.1 21.2 C 63.3 20.6 61.4 21.1 61.5 21.3 C 60.6 20.1 59.2 22.1 59.2 22.4 C 58.6 22.0 58.5 19.9 56.5 21.5 C 55.0 22.1 54.3 20.0 54.8 21.4 C 53.6 19.8 54.0 21.9 52.9 21.3 C 52.1 20.4 52.8 22.7 51.4 21.0 C 50.8 22.4 52.1 20.1 48.3 21.1 C 50.1 21.2 46.5 22.2 47.2 21.2 C 48.5 20.3 45.5 21.6 43.7 21.0 C 43.3 21.5 41.2 22.8 41.6 21.4 C 39.8 19.8 39.7 22.4 39.0 21.1 C 38.4 20.5 38.2 21.7 37.8 21.6 C 37.1 20.6 36.6 21.3 34.4 21.0 C 29.5 20.5 33.6 23.5 31.8 23.8 C 31.5 24.3 34.2 27.5 33.1 25.1 C 33.5 25.8 37.4 23.3 35.4 25.9 C 36.9 24.9 35.1 27.0 38.1 25.7 C 34.0 23.9 42.9 25.0 38.9 25.9 C 39.5 26.4 41.2 26.3 40.0 25.9 C 39.5 24.2 42.8 26.7 41.2 24.6 C 43.7 25.2 43.1 23.3 43.8 24.6 C 44.4 26.8 43.7 24.0 45.0 24.7 C 48.0 24.7 45.6 27.2 47.5 25.6 C 50.4 26.7 48.1 24.6 49.1 24.3 C 49.4 22.8 52.1 25.5 49.9 25.7 C 51.1 24.9 50.1 26.4 51.4 25.5 C 50.4 24.0 53.2 27.0 52.8 25.8 C 54.0 25.5 53.4 24.6 53.7 24.6 C 55.5 24.6 55.0 26.0 55.3 24.9 C 55.7 24.4 56.6 26.2 56.8 25.7 C 55.0 25.7 58.3 24.2 58.5 25.0 C 57.4 25.1 59.1 26.9 59.8 25.8 C 58.9 22.6 61.4 26.6 62.3 25.4 C 61.5 23.7 66.3 25.2 64.5 26.0 C 64.6 25.9 64.4 24.9 64.4 24.9 M 57.4 25.5 C 55.8 25.3 59.0 25.1 57.4 25.5 M 57.4 25.9 C 56.8 25.4 58.9 26.4 57.3 26.1 C 57.3 26.1 57.5 26.0 57.4 25.9 M 51.2 26.0 C 51.3 25.5 52.0 26.3 51.2 26.0 M 49.9 24.9 C 48.9 24.5 51.3 24.9 49.9 24.9 M 36.1 25.3 C 37.5 22.7 37.5 26.7 36.1 25.3 M 45.2 25.8 C 46.9 25.5 44.7 26.9 45.2 25.8 M 45.7 25.2 C 46.5 24.7 45.9 25.7 45.7 25.2 M 38.7 25.3 C 38.6 25.2 38.6 25.2 38.7 25.3 C 38.7 25.3 38.7 25.3 38.7 25.3 Z M 34.6 25.2 C 34.6 25.2 34.6 25.2 34.6 25.2 C 34.6 25.2 34.6 25.2 34.6 25.2 Z M 42.7 25.0 C 44.0 25.6 40.6 25.2 42.7 25.0 C 42.7 25.0 42.7 25.0 42.7 25.0 Z M 36.6 21.3 C 36.6 21.3 36.6 21.3 36.6 21.3 C 36.6 21.3 36.6 21.3 36.6 21.3 Z M 58.6 24.3 C 58.6 24.3 58.6 24.3 58.6 24.3 C 58.6 24.3 58.6 24.3 58.6 24.3 Z M 63.2 25.3 C 63.2 24.9 64.1 25.6 63.2 25.3 C 63.2 25.3 63.2 25.3 63.2 25.3 Z M 67.0 22.3 C 67.1 22.3 67.1 22.3 67.0 22.3 C 67.0 22.3 67.0 22.3 67.0 22.3 Z M 60.1 23.0 C 60.2 22.9 60.2 22.9 60.1 23.0 C 60.1 23.0 60.1 23.0 60.1 23.0 Z M 59.5 24.9 C 60.2 26.3 57.7 24.5 59.5 24.9 C 59.5 24.9 59.5 24.9 59.5 24.9 Z M 44.3 21.5 C 44.2 22.1 43.2 21.2 44.3 21.5 C 44.3 21.5 44.3 21.5 44.3 21.5 Z M 49.8 24.4 C 49.6 24.7 49.1 24.2 49.8 24.4 C 49.8 24.4 49.8 24.4 49.8 24.4 Z M 52.3 26.3 C 52.1 26.6 51.7 26.1 52.3 26.3 C 52.3 26.3 52.3 26.3 52.3 26.3 Z M 63.2 25.7 C 63.1 25.8 63.1 25.8 63.2 25.7 C 63.2 25.7 63.2 25.7 63.2 25.7 Z M 61.5 24.6 C 62.6 25.9 59.7 23.9 61.5 24.6 C 61.5 24.6 61.5 24.6 61.5 24.6 Z M 63.5 24.2 C 62.8 23.7 65.0 24.4 63.5 24.2 M 62.3 22.2 C 60.9 22.8 63.6 19.8 62.3 22.2 C 62.3 22.2 62.3 22.2 62.3 22.2 Z M 55.1 21.7 C 55.0 21.6 55.0 21.6 55.1 21.7 C 55.1 21.7 55.1 21.7 55.1 21.7 Z M 55.9 25.5 C 54.6 25.5 56.7 25.2 55.9 25.5 C 55.9 25.5 55.9 25.5 55.9 25.5 Z M 66.7 25.8 C 65.5 25.8 67.5 25.5 66.7 25.8 C 66.7 25.8 66.7 25.8 66.7 25.8 Z M 50.9 23.0 C 48.9 23.2 52.2 22.2 50.9 23.0 C 50.9 23.0 50.9 23.0 50.9 23.0 Z M 43.4 24.5 C 43.3 24.5 43.3 24.5 43.4 24.5 C 43.4 24.5 43.4 24.5 43.4 24.5 Z M 42.0 25.0 C 42.0 25.0 42.0 25.0 42.0 25.0 C 42.0 25.0 42.0 25.0 42.0 25.0 Z M 36.2 23.7 C 36.1 23.6 36.1 23.6 36.2 23.7 C 36.2 23.7 36.2 23.7 36.2 23.7 Z M 40.7 25.7 C 40.7 25.6 40.7 25.6 40.7 25.7 C 40.7 25.7 40.7 25.7 40.7 25.7 Z M 36.7 25.3 C 36.6 25.3 36.6 25.3 36.7 25.3 C 36.7 25.3 36.7 25.3 36.7 25.3 Z M 37.3 26.5 C 37.2 26.4 37.2 26.4 37.3 26.5 C 37.3 26.5 37.3 26.5 37.3 26.5 Z M 46.2 20.7 C 46.2 20.6 46.2 20.6 46.2 20.7 C 46.2 20.7 46.2 20.7 46.2 20.7 Z M 60.9 26.1 C 60.8 26.0 60.8 26.0 60.9 26.1 C 60.9 26.1 60.9 26.1 60.9 26.1 Z M 37.0 24.8 C 37.0 24.8 37.0 24.8 37.0 24.8 C 37.0 24.8 37.0 24.8 37.0 24.8 Z M 46.9 23.8 C 46.8 22.6 47.7 25.3 46.6 23.8 C 46.7 23.8 46.9 23.9 46.9 23.8 M 45.6 21.9 C 45.6 21.9 45.6 21.9 45.6 21.9 C 45.6 21.9 45.6 21.9 45.6 21.9 Z M 50.0 21.2 C 50.1 21.2 50.1 21.2 50.0 21.2 C 50.0 21.2 50.0 21.2 50.0 21.2 Z M 41.4 25.9 C 41.6 26.5 40.3 25.4 41.6 25.9 M 36.1 21.7 C 36.3 22.3 35.0 21.2 36.3 21.7 M 68.2 25.4 C 68.3 24.9 69.0 25.7 68.2 25.4 M 51.0 20.6 C 51.2 20.1 51.9 20.9 51.0 20.6 M 48.9 22.0 C 49.1 22.7 47.8 21.5 49.1 22.0 M 39.2 21.7 C 39.1 21.7 39.1 21.7 39.2 21.7 C 39.2 21.7 39.2 21.7 39.2 21.7 Z M 54.0 25.4 C 53.9 25.4 53.9 25.4 54.0 25.4 C 54.0 25.4 54.0 25.4 54.0 25.4 Z M 48.5 24.1 C 49.3 24.9 47.5 23.5 48.5 24.1 M 55.6 23.9 C 56.6 25.0 53.8 23.5 55.6 23.9 M 33.8 21.4 C 35.0 22.7 32.9 20.7 33.8 21.4 M 39.8 24.7 C 41.0 26.0 38.9 24.0 39.8 24.7 M 52.9 24.9 C 52.9 25.5 51.7 24.5 52.9 24.9 M 65.3 25.5 C 66.5 25.6 63.8 26.0 65.3 25.5 M 42.2 21.7 C 42.1 21.6 42.1 21.6 42.2 21.7 C 42.2 21.7 42.2 21.7 42.2 21.7 Z M 61.6 20.6 C 61.5 20.5 61.5 20.5 61.6 20.6 C 61.6 20.6 61.6 20.6 61.6 20.6 Z M 32.3 25.7 C 32.2 25.6 32.2 25.6 32.3 25.7 C 32.3 25.7 32.3 25.7 32.3 25.7 Z M 40.6 24.1 C 40.5 24.0 40.5 24.0 40.6 24.1 C 40.6 24.1 40.6 24.1 40.6 24.1 Z M 34.6 25.9 C 34.5 25.8 34.5 25.8 34.6 25.9 C 34.6 25.9 34.6 25.9 34.6 25.9 Z M 44.3 23.1 C 44.3 23.0 44.3 23.0 44.3 23.1 C 44.3 23.1 44.3 23.1 44.3 23.1 Z M 45.1 26.4 C 45.1 26.3 45.1 26.3 45.1 26.4 C 45.1 26.4 45.1 26.4 45.1 26.4 Z M 49.2 25.0 C 49.2 24.9 49.2 24.9 49.2 25.0 C 49.2 25.0 49.2 25.0 49.2 25.0 Z M 43.2 26.1 C 40.7 26.3 44.5 25.0 43.2 26.1 C 43.2 26.1 43.2 26.1 43.2 26.1 Z M 47.5 22.8 C 47.5 22.8 47.5 22.8 47.5 22.8 C 47.5 22.8 47.5 22.8 47.5 22.8 Z M 47.8 25.2 C 46.3 26.1 47.0 23.6 47.8 25.2 M 54.7 25.9 C 54.2 26.4 54.5 25.2 54.7 25.9 M 57.4 21.6 C 57.4 21.5 57.4 21.5 57.4 21.6 C 57.4 21.6 57.4 21.6 57.4 21.6 Z M 56.7 21.9 C 56.6 21.9 56.6 21.9 56.7 21.9 C 56.7 21.9 56.7 21.9 56.7 21.9 Z M 56.4 26.1 C 56.3 26.1 56.3 26.1 56.4 26.1 C 56.4 26.1 56.4 26.1 56.4 26.1 Z M 56.6 20.7 C 56.5 20.7 56.5 20.7 56.6 20.7 C 56.6 20.7 56.6 20.7 56.6 20.7 Z M 46.0 26.3 C 46.0 26.3 46.0 26.3 46.0 26.3 C 46.0 26.3 46.0 26.3 46.0 26.3 Z M 33.4 26.3 C 33.4 26.3 33.4 26.3 33.4 26.3 C 33.4 26.3 33.4 26.3 33.4 26.3 Z M 65.0 22.1 C 64.9 22.0 64.9 22.0 65.0 22.1 C 65.0 22.1 65.0 22.1 65.0 22.1 Z M 44.7 25.0 C 44.7 24.9 44.7 24.9 44.7 25.0 C 44.7 25.0 44.7 25.0 44.7 25.0 Z M 59.2 21.8 C 59.2 21.7 59.2 21.7 59.2 21.8 C 59.2 21.8 59.2 21.8 59.2 21.8 Z M 45.5 25.3 C 45.5 25.2 45.5 25.2 45.5 25.3 C 45.5 25.3 45.5 25.3 45.5 25.3 Z M 42.6 21.4 C 42.5 21.4 42.5 21.4 42.6 21.4 C 42.6 21.4 42.6 21.4 42.6 21.4 Z M 39.8 20.7 C 39.8 20.7 39.8 20.7 39.8 20.7 C 39.8 20.7 39.8 20.7 39.8 20.7 Z M 42.8 23.7 C 42.7 23.7 42.7 23.7 42.8 23.7 C 42.8 23.7 42.8 23.7 42.8 23.7 Z M 60.1 23.2 C 65.1 24.3 56.2 23.7 60.1 23.2 M 41.9 23.5 C 45.4 23.7 39.1 24.7 41.9 23.5 C 41.5 23.8 41.9 23.5 41.9 23.5 " fill="#EB5C56"></path><path d="M 23.5 10.2 C 23.6 9.7 25.2 9.1 24.1 10.2 C 24.0 10.2 23.4 10.4 23.5 10.2 Z M 21.1 11.6 C 21.3 11.5 21.4 11.4 21.6 11.5 C 22.1 11.8 20.5 12.0 21.1 11.6 Z M 24.9 10.0 C 24.9 9.9 25.7 9.5 25.6 9.7 C 25.6 9.9 24.9 10.1 24.9 10.0 Z M 19.5 13.8 C 19.4 13.6 20.2 13.2 20.4 13.2 C 21.0 13.2 19.7 14.3 19.5 13.8 Z M 26.1 17.9 C 26.1 18.0 26.1 18.0 26.1 18.1 C 26.1 18.0 26.0 18.0 26.1 17.9 Z M 8.0 20.0 C 8.2 19.9 8.6 19.9 8.6 20.1 C 8.6 20.4 7.6 20.3 8.0 20.0 Z M 26.5 33.7 C 26.5 33.7 26.7 33.3 26.8 33.5 C 27.0 33.6 26.7 33.8 26.5 33.7 Z M 26.8 33.7 C 27.0 33.6 27.1 33.9 26.9 33.9 C 26.7 33.8 26.6 33.7 26.8 33.7 Z M 14.0 30.3 C 13.9 30.3 13.8 30.3 14.0 30.2 C 14.1 30.2 14.2 30.4 14.0 30.3 Z M 14.5 30.3 C 14.7 30.1 14.8 30.6 14.6 30.5 C 14.4 30.4 14.3 30.4 14.5 30.3 Z M 16.3 32.8 C 16.1 32.7 16.1 32.7 16.2 32.7 C 16.3 32.6 16.4 32.8 16.3 32.8 Z M 27.2 27.2 C 27.3 27.3 27.1 27.8 27.0 27.7 C 26.7 27.7 27.0 27.0 27.2 27.2 Z M 27.3 27.8 C 27.5 27.8 27.5 28.1 27.3 28.0 C 27.2 28.0 27.1 27.9 27.3 27.8 Z M 26.9 25.8 C 26.7 25.8 26.7 25.3 26.7 25.2 C 26.8 25.0 26.8 24.8 26.9 24.6 C 27.0 24.5 27.3 25.8 26.9 25.8 Z M 26.7 21.6 C 26.8 21.6 26.8 21.6 26.7 21.8 C 26.6 22.0 26.6 21.6 26.7 21.6 Z M 26.8 24.0 C 26.9 24.0 27.0 24.0 26.9 24.2 C 26.8 24.4 26.7 24.0 26.8 24.0 Z M 14.7 16.0 C 14.5 15.9 15.2 15.7 15.3 15.7 C 15.4 15.7 15.1 15.8 15.3 15.8 C 15.5 15.8 15.4 16.4 14.7 16.0 Z M 19.8 12.5 C 19.9 12.4 20.0 12.5 20.0 12.6 C 20.0 12.7 19.5 12.8 19.8 12.5 Z M 15.9 16.3 C 15.9 16.2 16.0 16.1 16.1 16.2 C 16.1 16.2 16.0 16.3 15.9 16.3 Z M 15.6 16.6 C 15.7 16.5 16.1 16.5 16.1 16.7 C 16.1 17.0 15.1 17.0 15.6 16.6 Z M 13.8 16.2 C 14.0 16.1 14.0 16.1 13.9 16.3 C 13.9 16.4 13.8 16.2 13.8 16.2 Z M 16.7 14.1 C 16.9 14.0 16.9 14.0 16.9 14.1 C 16.8 14.3 16.7 14.1 16.7 14.1 Z M 12.6 17.5 C 12.6 17.5 12.9 17.0 13.2 17.3 C 13.6 17.7 12.6 17.5 12.6 17.5 Z M 10.7 19.2 C 10.9 19.1 10.9 19.3 10.8 19.4 C 10.6 19.4 10.6 19.3 10.7 19.2 Z M 10.4 20.4 C 10.1 20.5 9.8 20.4 10.2 20.2 C 10.6 20.0 10.7 20.4 10.4 20.4 Z M 10.7 20.0 C 10.7 20.1 10.6 20.1 10.5 20.1 C 10.5 20.0 10.6 19.9 10.7 20.0 Z M 12.2 18.4 C 12.3 18.1 12.6 18.2 12.4 18.5 C 12.2 18.7 12.1 18.6 12.2 18.4 Z M 27.1 15.7 C 27.1 15.6 27.3 15.6 27.4 15.7 C 27.5 15.8 27.2 15.9 27.1 15.7 Z M 26.2 24.8 C 26.3 24.7 26.4 24.8 26.3 25.0 C 26.2 25.3 26.1 24.9 26.2 24.8 Z M 25.7 30.6 C 25.9 30.5 25.9 30.6 25.8 30.8 C 25.7 31.0 25.6 30.7 25.7 30.6 Z M 26.2 22.5 C 26.3 22.4 26.7 23.0 26.3 23.4 C 25.9 23.7 25.8 22.7 26.2 22.5 Z M 21.6 16.8 C 21.5 16.7 21.7 16.7 21.7 16.7 C 21.7 17.0 21.7 17.0 21.6 16.8 Z M 25.5 23.8 C 25.4 23.7 25.7 23.7 25.8 23.8 C 25.9 23.9 25.6 24.0 25.5 23.8 Z M 26.1 29.6 C 26.2 29.3 26.5 29.5 26.7 29.6 C 27.1 30.1 26.6 30.4 26.3 30.8 C 26.1 31.0 26.0 29.7 26.1 29.6 Z M 26.3 14.3 C 26.2 14.4 26.2 14.6 26.2 14.7 C 26.3 14.7 26.2 14.8 26.1 14.9 C 26.2 15.5 26.7 15.9 26.9 16.2 C 27.2 17.1 26.1 17.4 26.1 17.9 C 26.0 17.8 26.0 17.6 25.9 17.6 C 25.6 17.3 25.8 19.4 25.8 19.5 C 26.1 21.2 26.3 19.1 26.9 19.1 C 27.2 19.1 26.5 20.3 26.5 20.4 C 26.2 20.9 26.8 21.0 26.6 21.5 C 26.5 21.7 25.2 22.3 25.3 22.5 C 25.5 22.7 25.3 23.3 25.3 23.4 C 25.3 23.8 25.4 24.3 25.9 24.0 C 26.2 23.8 26.5 23.7 26.2 24.2 C 26.0 24.4 25.2 26.5 26.2 26.4 C 26.2 26.4 26.5 25.9 26.5 25.9 C 26.7 26.5 26.4 28.2 26.8 28.6 C 27.7 29.5 26.3 28.3 26.0 28.8 C 25.6 29.6 25.3 30.0 25.5 31.0 C 25.5 31.2 25.5 32.1 26.0 31.7 C 26.4 31.4 26.6 31.6 26.7 31.0 C 27.2 31.7 26.3 32.1 26.5 32.2 C 26.8 32.4 26.9 32.0 26.9 32.5 C 26.8 33.1 27.0 32.8 26.5 32.9 C 26.3 33.0 26.2 33.5 26.2 33.5 C 26.2 33.5 26.1 33.5 26.1 33.5 C 26.1 33.9 27.0 34.7 26.8 34.8 C 26.6 34.9 26.0 34.6 25.8 34.6 C 25.8 34.7 25.8 34.7 25.8 34.8 C 25.9 35.0 26.2 35.4 26.2 35.5 C 26.1 35.6 25.2 35.2 25.5 35.4 C 25.7 35.7 25.4 36.7 25.1 36.8 C 24.9 36.8 23.7 37.1 23.7 37.3 C 23.6 37.5 23.0 37.1 22.9 37.0 C 22.7 37.0 22.5 36.5 22.5 36.4 C 22.5 36.3 22.0 36.1 22.0 36.1 C 22.0 36.1 21.8 36.1 21.4 35.9 C 21.1 35.8 21.0 35.4 20.6 35.0 C 20.3 34.6 19.9 34.8 19.5 34.6 C 19.1 34.4 19.1 33.6 18.8 33.3 C 18.5 33.0 18.2 33.5 17.8 33.3 C 17.3 33.1 17.2 32.8 17.4 32.8 C 17.5 32.8 17.5 32.6 17.4 32.5 C 17.3 32.5 16.8 32.0 16.6 32.0 C 16.4 32.0 17.4 33.2 15.8 32.2 C 15.0 31.6 14.8 30.8 15.0 30.9 C 15.6 31.2 14.8 29.7 14.7 29.9 C 14.5 30.2 13.2 29.3 13.3 29.9 C 13.3 30.1 11.8 29.5 11.7 29.3 C 11.5 29.1 10.8 28.8 10.9 28.3 C 10.9 28.0 9.8 28.1 9.6 28.0 C 9.5 27.9 8.4 27.2 8.3 26.9 C 8.1 26.7 8.6 27.0 8.9 27.2 C 9.1 27.3 9.3 27.7 9.6 27.8 C 9.8 27.9 9.5 27.4 9.2 27.2 C 9.0 27.0 9.0 26.8 8.9 26.6 C 8.7 26.5 8.6 26.4 8.4 26.2 C 8.2 26.2 8.1 26.2 8.1 26.3 C 8.0 26.4 8.1 26.6 8.0 26.6 C 8.0 26.7 7.7 26.7 7.4 26.5 C 7.0 26.3 6.8 26.1 6.4 25.7 C 6.1 25.3 5.9 25.4 5.6 25.2 C 5.2 25.1 5.0 24.9 5.0 24.8 C 5.1 24.7 5.5 24.8 5.6 24.7 C 5.7 24.7 5.4 24.2 5.2 24.1 C 4.5 23.5 5.5 23.2 4.8 22.6 C 4.3 22.3 5.0 22.3 5.4 22.2 C 5.4 22.1 5.4 22.1 5.7 21.8 C 5.6 21.6 6.2 21.5 6.5 21.3 C 6.6 21.1 7.5 20.3 7.1 21.0 C 7.0 21.0 7.0 21.1 6.9 21.1 C 7.0 21.1 7.0 21.1 7.0 21.2 C 7.0 21.2 6.9 21.7 6.9 21.7 C 6.9 21.7 7.0 21.2 7.0 21.2 C 7.2 21.2 7.4 21.3 7.5 21.4 C 7.6 21.3 7.6 21.2 7.6 21.2 C 7.6 21.2 7.6 21.1 7.7 21.1 C 7.7 21.1 7.6 21.1 7.6 21.1 C 7.5 20.9 7.6 20.9 7.7 20.9 C 8.0 20.5 9.0 20.3 9.4 20.2 C 9.0 21.6 10.6 20.6 11.1 20.2 C 11.6 19.7 10.9 18.7 10.6 18.8 C 11.0 18.6 11.2 18.7 11.5 19.0 C 11.4 18.9 12.3 19.3 12.2 19.3 C 13.4 19.2 12.6 18.4 12.8 18.1 C 13.0 17.9 13.3 17.7 13.5 17.5 C 13.7 17.2 13.4 17.2 13.4 17.0 C 13.5 16.4 14.6 16.8 14.9 16.7 C 14.7 16.9 14.5 17.2 14.3 17.4 C 14.5 17.0 15.0 17.4 15.2 17.4 C 15.5 17.3 15.9 17.0 16.1 16.9 C 16.6 16.5 17.1 16.1 17.5 15.7 C 17.3 15.7 16.2 15.6 16.2 15.7 C 16.3 15.5 16.9 15.4 16.5 15.1 C 15.8 14.7 17.3 14.2 17.5 14.1 C 18.2 13.8 18.5 12.7 19.6 13.0 C 19.6 13.0 18.7 13.8 18.8 13.9 C 19.4 14.3 19.9 14.5 20.5 13.9 C 20.6 13.8 21.3 12.8 21.3 12.8 C 21.3 12.8 19.5 12.1 20.6 12.0 C 20.8 12.0 20.6 12.4 20.9 12.4 C 21.3 12.4 21.7 12.0 22.0 11.8 C 22.1 11.8 22.7 11.7 22.7 11.6 C 22.7 11.4 22.6 11.1 22.7 10.9 C 22.8 10.7 23.2 10.7 23.3 10.9 C 23.3 10.9 23.3 10.9 23.3 11.0 C 23.4 10.9 23.5 11.0 23.6 11.1 C 23.6 11.0 23.8 10.9 23.9 11.0 C 24.0 11.0 23.8 11.2 23.6 11.2 C 23.6 11.3 23.7 11.3 23.7 11.4 C 24.0 11.2 24.2 11.0 24.2 11.0 C 24.5 10.4 24.4 10.2 25.4 10.3 C 26.1 10.5 26.6 12.3 26.4 13.5 C 26.5 13.7 26.4 14.0 26.3 14.3 Z M 8.0 25.6 C 8.0 25.7 8.0 25.7 8.1 25.7 C 8.1 25.6 8.2 25.5 8.2 25.4 C 8.0 25.2 8.2 25.6 8.0 25.4 C 7.7 25.2 7.7 25.3 8.0 25.6 Z M 8.2 23.0 C 8.0 23.0 8.0 23.1 8.1 23.2 C 8.1 23.1 8.2 23.1 8.2 23.0 Z M 7.7 21.9 C 7.4 22.2 8.1 22.3 8.6 21.9 C 8.1 21.9 7.8 21.9 7.7 21.9 Z M 8.2 21.0 C 8.2 21.1 8.2 21.2 8.2 21.2 C 8.2 21.4 8.5 21.0 8.5 21.2 C 8.6 21.3 8.3 21.7 8.6 21.6 C 8.6 21.6 8.7 21.6 8.8 21.6 C 8.8 21.5 8.8 21.5 8.8 21.4 C 8.9 21.2 8.4 20.9 8.2 21.0 Z M 9.9 25.8 C 9.7 25.7 9.8 25.9 9.9 25.9 C 10.1 25.9 10.1 25.8 9.9 25.8 Z M 11.2 27.8 C 11.1 27.6 10.9 27.5 11.0 27.8 C 11.1 28.0 11.3 28.0 11.2 27.8 Z M 14.1 24.8 C 13.9 24.9 14.0 24.9 14.1 24.9 C 14.3 25.0 14.2 24.8 14.1 24.8 Z M 14.2 22.7 C 14.3 22.5 14.1 22.3 14.0 22.5 C 14.0 22.6 14.1 22.8 14.2 22.7 Z M 13.9 27.5 C 14.1 27.6 14.1 27.4 13.9 27.4 C 13.8 27.4 13.8 27.5 13.9 27.5 Z M 13.5 24.7 C 13.6 24.9 13.7 24.8 13.8 24.8 C 13.9 24.7 13.8 24.5 13.6 24.4 C 13.4 24.4 13.3 24.4 13.5 24.7 Z M 13.3 22.9 C 13.9 22.6 13.7 22.3 13.2 22.8 C 12.6 23.3 13.0 23.1 13.3 22.9 Z M 12.3 29.3 C 12.3 29.2 12.0 29.1 12.0 29.1 C 12.0 29.1 12.6 29.6 12.3 29.3 Z M 13.5 18.0 C 13.3 18.1 13.3 18.4 13.6 18.2 C 13.9 18.1 13.7 17.9 13.5 18.0 Z M 14.6 18.9 C 14.1 18.6 13.8 18.7 13.7 18.7 C 13.8 18.7 13.9 19.1 13.8 19.2 C 13.5 19.5 12.9 19.4 12.7 19.8 C 12.5 20.3 13.3 19.9 13.4 19.8 C 13.3 19.9 13.3 20.0 13.3 20.1 C 13.5 20.2 13.6 20.2 13.7 20.0 C 13.8 19.8 15.0 19.3 14.6 18.9 Z M 14.5 24.0 C 14.3 23.9 14.1 24.1 14.3 24.3 C 14.4 24.5 14.6 24.6 14.7 24.6 C 14.8 24.5 14.7 24.1 14.5 24.0 Z M 14.7 25.6 C 14.5 25.7 14.6 25.7 14.8 25.8 C 15.1 25.9 14.9 25.5 14.7 25.6 Z M 17.7 32.4 C 17.8 32.3 17.5 32.1 17.5 32.2 C 17.4 32.3 17.5 32.4 17.7 32.4 Z M 17.6 29.7 C 18.0 29.8 17.7 29.4 17.6 29.4 C 17.5 29.4 17.3 29.6 17.6 29.7 Z M 16.0 28.1 C 16.2 28.2 16.0 27.9 15.9 27.9 C 15.8 28.0 15.9 28.1 16.0 28.1 Z M 15.8 27.1 C 16.0 27.2 16.0 26.9 15.7 26.9 C 15.6 26.9 15.7 27.0 15.8 27.1 Z M 16.6 18.4 C 16.6 18.4 16.7 18.8 16.9 18.5 C 17.1 18.2 17.1 18.2 16.6 18.4 Z M 15.9 21.5 C 15.6 21.7 15.4 22.0 15.7 22.8 C 16.0 23.7 16.1 23.3 16.3 22.8 C 16.4 22.3 16.8 23.7 17.0 22.7 C 17.1 22.3 16.1 21.3 15.9 21.5 Z M 17.4 27.0 C 17.1 26.5 16.3 26.6 16.7 26.9 C 17.2 27.3 17.6 27.4 17.4 27.0 Z M 17.4 27.4 C 17.3 27.4 17.3 27.4 17.5 27.5 C 17.7 27.6 17.6 27.4 17.4 27.4 Z M 17.0 14.7 C 16.2 15.5 17.5 15.4 17.5 15.4 C 18.7 15.1 17.8 13.9 17.0 14.7 Z M 25.6 33.0 C 25.6 33.0 25.6 32.9 25.6 32.9 C 25.6 32.9 25.6 32.9 25.6 32.8 C 25.5 32.7 25.3 33.0 25.3 33.0 C 25.4 33.1 25.6 33.1 25.6 33.0 Z M 25.9 27.5 C 25.8 27.7 25.9 27.9 26.0 28.0 C 26.5 27.9 26.5 26.3 25.7 26.9 C 25.5 27.0 24.8 28.1 25.2 28.2 C 25.5 28.2 25.9 26.9 25.9 27.5 Z M 25.2 29.2 C 25.2 28.6 24.5 29.8 24.9 29.6 C 25.1 29.5 25.2 29.4 25.2 29.2 Z M 23.7 34.1 C 24.0 35.0 25.3 34.8 24.6 33.4 C 24.0 32.1 23.4 32.0 23.6 32.7 C 23.8 33.4 23.1 32.8 23.7 34.1 Z M 23.7 26.9 C 24.6 27.1 24.4 26.7 23.7 26.4 C 23.5 26.4 23.1 26.8 23.7 26.9 Z M 23.5 24.9 C 23.6 24.7 23.6 24.7 23.4 24.8 C 23.2 25.0 23.4 25.2 23.5 24.9 Z M 22.3 35.5 C 22.5 35.9 22.9 36.1 22.6 36.1 C 22.4 36.1 22.5 36.2 22.7 36.4 C 22.9 36.6 22.9 36.1 22.9 35.9 C 22.8 35.7 22.2 35.2 22.3 35.5 Z M 19.2 27.9 C 19.3 27.9 19.2 27.7 19.1 27.7 C 19.0 27.7 19.0 27.8 19.2 27.9 Z M 18.2 20.3 C 18.2 20.3 18.2 20.5 18.3 20.3 C 18.5 20.1 18.5 20.1 18.2 20.3 Z M 18.5 14.2 C 18.3 14.4 18.8 14.4 18.7 14.7 C 18.7 14.8 18.5 14.7 18.5 14.6 C 18.5 14.7 18.6 15.4 18.9 14.9 C 19.0 14.7 18.9 13.8 18.5 14.2 Z M 19.4 25.8 C 19.1 25.4 18.9 26.7 18.6 26.5 C 18.4 26.3 18.4 26.4 18.7 26.7 C 18.9 27.0 19.7 26.1 19.4 25.8 Z M 19.6 29.0 C 19.6 28.8 19.0 28.2 19.1 28.6 C 19.3 28.9 19.6 29.1 19.4 29.1 C 19.2 29.2 19.3 29.2 19.4 29.4 C 19.6 29.7 19.6 29.2 19.6 29.0 Z M 19.8 34.4 C 19.8 34.2 19.4 34.1 19.6 34.3 C 19.6 34.5 19.9 34.5 19.8 34.4 Z M 20.2 19.4 C 20.1 19.6 20.1 19.7 20.4 19.5 C 20.6 19.3 20.3 19.2 20.2 19.4 Z M 20.8 33.9 C 20.5 33.5 20.7 34.1 20.4 33.9 C 20.2 33.7 20.2 33.8 20.5 34.1 C 20.7 34.3 21.0 34.2 20.8 33.9 Z M 21.0 14.5 C 21.0 14.6 21.1 14.8 21.2 14.7 C 21.3 14.6 21.1 14.4 21.0 14.5 Z M 21.8 16.5 C 21.7 16.6 21.6 16.6 21.5 16.6 C 20.2 17.5 22.6 16.8 21.8 16.5 Z M 21.6 19.6 C 21.5 19.2 21.3 19.7 21.3 19.7 C 21.5 19.8 21.6 19.8 21.6 19.6 Z M 21.6 23.0 C 21.8 23.1 21.7 22.8 21.6 22.8 C 21.4 22.9 21.5 23.0 21.6 23.0 Z M 22.2 12.0 C 22.0 12.1 22.1 12.2 22.2 12.2 C 22.4 12.2 22.4 12.0 22.2 12.0 Z M 22.4 20.5 C 22.3 20.5 22.2 20.5 22.3 20.6 C 22.3 20.8 22.4 20.6 22.4 20.5 Z M 22.4 30.8 C 22.3 30.8 22.2 30.7 22.2 30.6 C 22.0 30.7 21.9 31.3 21.7 31.3 C 21.7 31.3 21.7 31.3 21.6 31.3 C 21.6 31.3 21.6 31.3 21.6 31.3 C 21.5 31.3 21.4 31.2 21.5 31.2 C 21.4 31.1 21.4 31.0 21.4 30.9 C 21.2 31.1 21.1 31.3 21.2 31.5 C 21.4 31.7 21.8 31.7 22.2 31.7 C 22.3 31.6 22.4 31.4 22.4 31.3 C 22.4 31.3 22.4 31.3 22.3 31.3 C 22.1 31.1 22.0 31.0 22.2 31.0 C 22.3 31.0 22.4 31.0 22.4 31.1 C 22.4 31.0 22.4 30.9 22.4 30.8 Z M 22.8 21.8 C 22.7 21.6 22.6 21.7 22.5 22.1 C 22.5 22.3 23.0 22.1 22.8 21.8 Z M 22.6 12.5 C 22.6 12.6 22.6 12.6 22.7 12.7 C 22.7 12.6 22.7 12.6 22.7 12.5 C 22.8 12.4 22.8 12.2 22.9 12.0 C 22.6 12.0 22.5 12.1 22.6 12.5 Z M 23.5 15.4 C 23.5 15.3 23.6 14.1 23.3 14.3 C 22.9 14.6 22.4 14.1 22.6 15.0 C 22.7 15.4 23.3 15.8 23.4 16.2 C 23.9 18.4 24.0 15.6 24.1 15.1 C 24.1 15.0 23.6 15.6 23.5 15.4 Z M 24.2 18.3 C 24.4 18.4 24.6 18.0 24.6 17.9 C 24.6 17.4 24.0 18.1 24.2 18.3 Z M 24.5 12.2 C 24.5 12.1 24.5 12.1 24.4 12.2 C 24.4 12.2 24.5 12.2 24.5 12.3 C 24.5 12.2 24.5 12.2 24.5 12.2 Z M 24.8 10.6 C 24.1 11.2 25.3 11.1 25.6 11.0 C 26.0 10.8 25.1 10.4 24.8 10.6 Z M 25.2 16.6 C 25.2 17.1 26.5 17.6 26.4 16.8 C 26.4 16.1 25.3 15.7 25.2 16.6 Z M 26.8 21.2 C 26.7 21.0 26.9 20.6 27.1 20.8 C 27.2 21.0 26.9 21.3 26.8 21.2 Z M 27.5 14.4 C 27.5 14.5 27.4 14.4 27.4 14.4 C 27.6 14.3 27.6 14.3 27.5 14.4 Z M 26.6 15.0 C 26.7 14.8 26.8 14.6 26.8 14.4 C 26.9 14.3 27.0 14.7 27.0 14.7 C 27.0 14.9 26.6 15.0 26.6 15.0 Z M 26.5 18.7 C 26.6 18.5 26.7 18.8 26.6 18.9 C 26.6 19.0 26.4 18.8 26.5 18.7 Z M 26.8 17.8 C 26.8 17.9 26.6 17.8 26.6 17.7 C 26.7 17.5 26.8 17.7 26.8 17.8 Z M 26.1 19.3 C 26.0 18.9 25.9 18.4 26.2 18.5 C 26.4 18.5 26.3 20.1 26.1 19.3 Z M 26.1 19.3 " fill="#EB5C56"></path></g></g><g><clipPath id="clip-89"><path d="M 85.6 -2.8 L 847.1 -2.8 L 847.1 53.7 L 85.6 53.7 Z M 85.6 -2.8 "></path></clipPath><g clip-path="url(#clip-89)"><text xml:space="preserve" font-family="Helvetica-Light" font-size="33.0" fill="#000000" transform="matrix(1.00, 0.00, -0.00, -1.00, 94.0, 13.0)">L</text><text xml:space="preserve" font-family="Helvetica-Light" font-size="33.0" fill="#000000" transform="matrix(1.00, 0.00, -0.00, -1.00, 112.3, 13.0)">a</text><text xml:space="preserve" font-family="Helvetica-Light" font-size="33.0" fill="#000000" transform="matrix(1.00, 0.00, -0.00, -1.00, 130.7, 13.0)">m</text><text xml:space="preserve" font-family="Helvetica-Light" font-size="33.0" fill="#000000" transform="matrix(1.00, 0.00, -0.00, -1.00, 158.2, 13.0)">b</text><text xml:space="preserve" font-family="Helvetica-Light" font-size="33.0" fill="#000000" transform="matrix(1.00, 0.00, -0.00, -1.00, 178.3, 13.0)">e</text><text xml:space="preserve" font-family="Helvetica-Light" font-size="33.0" fill="#000000" transform="matrix(1.00, 0.00, -0.00, -1.00, 196.7, 13.0)">k</text><text xml:space="preserve" font-family="Helvetica-Light" font-size="33.0" fill="#000000" transform="matrix(1.00, 0.00, -0.00, -1.00, 213.2, 13.0)"> </text><text xml:space="preserve" font-family="Helvetica-Light" font-size="33.0" fill="#000000" transform="matrix(1.00, 0.00, -0.00, -1.00, 222.4, 13.0)">C</text><text xml:space="preserve" font-family="Helvetica-Light" font-size="33.0" fill="#000000" transform="matrix(1.00, 0.00, -0.00, -1.00, 246.2, 13.0)">a</text><text xml:space="preserve" font-family="Helvetica-Light" font-size="33.0" fill="#000000" transform="matrix(1.00, 0.00, -0.00, -1.00, 264.5, 13.0)">l</text><text xml:space="preserve" font-family="Helvetica-Light" font-size="33.0" fill="#000000" transform="matrix(1.00, 0.00, -0.00, -1.00, 271.9, 13.0)">c</text><text xml:space="preserve" font-family="Helvetica-Light" font-size="33.0" fill="#000000" transform="matrix(1.00, 0.00, -0.00, -1.00, 290.2, 13.0)">u</text><text xml:space="preserve" font-family="Helvetica-Light" font-size="33.0" fill="#000000" transform="matrix(1.00, 0.00, -0.00, -1.00, 308.6, 13.0)">l</text><text xml:space="preserve" font-family="Helvetica-Light" font-size="33.0" fill="#000000" transform="matrix(1.00, 0.00, -0.00, -1.00, 315.9, 13.0)">u</text><text xml:space="preserve" font-family="Helvetica-Light" font-size="33.0" fill="#000000" transform="matrix(1.00, 0.00, -0.00, -1.00, 334.2, 13.0)">s</text><text xml:space="preserve" font-family="Helvetica-Light" font-size="33.0" fill="#000000" transform="matrix(1.00, 0.00, -0.00, -1.00, 350.7, 13.0)"> </text><text xml:space="preserve" font-family="Helvetica-Light" font-size="33.0" fill="#000000" transform="matrix(1.00, 0.00, -0.00, -1.00, 359.9, 13.0)">w</text><text xml:space="preserve" font-family="Helvetica-Light" font-size="33.0" fill="#000000" transform="matrix(1.00, 0.00, -0.00, -1.00, 383.7, 13.0)">i</text><text xml:space="preserve" font-family="Helvetica-Light" font-size="33.0" fill="#000000" transform="matrix(1.00, 0.00, -0.00, -1.00, 391.1, 13.0)">t</text><text xml:space="preserve" font-family="Helvetica-Light" font-size="33.0" fill="#000000" transform="matrix(1.00, 0.00, -0.00, -1.00, 400.2, 13.0)">h</text><text xml:space="preserve" font-family="Helvetica-Light" font-size="33.0" fill="#000000" transform="matrix(1.00, 0.00, -0.00, -1.00, 418.6, 13.0)"> </text><text xml:space="preserve" font-family="Helvetica-Light" font-size="33.0" fill="#000000" transform="matrix(1.00, 0.00, -0.00, -1.00, 427.8, 13.0)">W</text><text xml:space="preserve" font-family="Helvetica-Light" font-size="33.0" fill="#000000" transform="matrix(1.00, 0.00, -0.00, -1.00, 456.5, 13.0)">e</text><text xml:space="preserve" font-family="Helvetica-Light" font-size="33.0" fill="#000000" transform="matrix(1.00, 0.00, -0.00, -1.00, 474.9, 13.0)">a</text><text xml:space="preserve" font-family="Helvetica-Light" font-size="33.0" fill="#000000" transform="matrix(1.00, 0.00, -0.00, -1.00, 493.2, 13.0)">k</text><text xml:space="preserve" font-family="Helvetica-Light" font-size="33.0" fill="#000000" transform="matrix(1.00, 0.00, -0.00, -1.00, 509.7, 13.0)">e</text><text xml:space="preserve" font-family="Helvetica-Light" font-size="33.0" fill="#000000" transform="matrix(1.00, 0.00, -0.00, -1.00, 528.0, 13.0)">n</text><text xml:space="preserve" font-family="Helvetica-Light" font-size="33.0" fill="#000000" transform="matrix(1.00, 0.00, -0.00, -1.00, 546.4, 13.0)">i</text><text xml:space="preserve" font-family="Helvetica-Light" font-size="33.0" fill="#000000" transform="matrix(1.00, 0.00, -0.00, -1.00, 553.7, 13.0)">n</text><text xml:space="preserve" font-family="Helvetica-Light" font-size="33.0" fill="#000000" transform="matrix(1.00, 0.00, -0.00, -1.00, 572.1, 13.0)">g</text><text xml:space="preserve" font-family="Helvetica-Light" font-size="33.0" fill="#000000" transform="matrix(1.00, 0.00, -0.00, -1.00, 592.2, 13.0)"> </text><text xml:space="preserve" font-family="Helvetica-Light" font-size="33.0" fill="#000000" transform="matrix(1.00, 0.00, -0.00, -1.00, 601.4, 13.0)">a</text><text xml:space="preserve" font-family="Helvetica-Light" font-size="33.0" fill="#000000" transform="matrix(1.00, 0.00, -0.00, -1.00, 619.8, 13.0)">n</text><text xml:space="preserve" font-family="Helvetica-Light" font-size="33.0" fill="#000000" transform="matrix(1.00, 0.00, -0.00, -1.00, 638.1, 13.0)">d</text><text xml:space="preserve" font-family="Helvetica-Light" font-size="33.0" fill="#000000" transform="matrix(1.00, 0.00, -0.00, -1.00, 658.3, 13.0)"> </text><text xml:space="preserve" font-family="Helvetica-Light" font-size="33.0" fill="#000000" transform="matrix(1.00, 0.00, -0.00, -1.00, 667.4, 13.0)">C</text><text xml:space="preserve" font-family="Helvetica-Light" font-size="33.0" fill="#000000" transform="matrix(1.00, 0.00, -0.00, -1.00, 691.3, 13.0)">o</text><text xml:space="preserve" font-family="Helvetica-Light" font-size="33.0" fill="#000000" transform="matrix(1.00, 0.00, -0.00, -1.00, 709.6, 13.0)">n</text><text xml:space="preserve" font-family="Helvetica-Light" font-size="33.0" fill="#000000" transform="matrix(1.00, 0.00, -0.00, -1.00, 728.0, 13.0)">t</text><text xml:space="preserve" font-family="Helvetica-Light" font-size="33.0" fill="#000000" transform="matrix(1.00, 0.00, -0.00, -1.00, 737.1, 13.0)">r</text><text xml:space="preserve" font-family="Helvetica-Light" font-size="33.0" fill="#000000" transform="matrix(1.00, 0.00, -0.00, -1.00, 748.1, 13.0)">a</text><text xml:space="preserve" font-family="Helvetica-Light" font-size="33.0" fill="#000000" transform="matrix(1.00, 0.00, -0.00, -1.00, 766.5, 13.0)">c</text><text xml:space="preserve" font-family="Helvetica-Light" font-size="33.0" fill="#000000" transform="matrix(1.00, 0.00, -0.00, -1.00, 784.8, 13.0)">t</text><text xml:space="preserve" font-family="Helvetica-Light" font-size="33.0" fill="#000000" transform="matrix(1.00, 0.00, -0.00, -1.00, 794.0, 13.0)">i</text><text xml:space="preserve" font-family="Helvetica-Light" font-size="33.0" fill="#000000" transform="matrix(1.00, 0.00, -0.00, -1.00, 801.3, 13.0)">o</text><text xml:space="preserve" font-family="Helvetica-Light" font-size="33.0" fill="#000000" transform="matrix(1.00, 0.00, -0.00, -1.00, 819.7, 13.0)">n</text></g></g></g></svg>