<?xml version="1.0" encoding="UTF-8" standalone="no"?><svg xmlns="http://www.w3.org/2000/svg" xmlns:xlink="http://www.w3.org/1999/xlink" clip-rule="evenodd" stroke-miterlimit="4.00" viewBox="0 0 465 54"><desc>SVG generated by Keynote</desc><defs></defs><g transform="matrix(1.00, 0.00, -0.00, -1.00, 0.0, 54.0)"><g><clipPath id="clip-90"><path d="M 157.3 10.6 L 75.3 10.6 L 75.3 40.3 L 157.3 40.3 Z M 157.3 10.6 "></path></clipPath><g clip-path="url(#clip-90)"><path d="M 142.8 27.0 C 143.1 26.8 143.8 27.0 144.0 26.9 M 142.8 27.0 C 143.5 28.1 144.9 28.1 146.6 28.3 C 148.5 28.4 146.5 27.3 146.8 26.9 C 149.3 26.4 149.3 27.2 148.9 28.4 C 149.9 27.6 152.7 29.0 152.1 27.5 C 148.1 27.5 154.9 27.2 151.6 26.3 C 151.2 26.1 152.2 25.7 152.6 25.7 C 151.5 25.1 153.4 24.4 151.6 23.9 C 151.3 23.0 151.6 23.4 150.5 22.7 C 150.0 22.6 150.2 22.9 150.3 23.1 C 150.1 24.2 148.9 22.5 148.0 23.2 C 147.1 21.8 146.2 23.4 147.0 24.0 C 146.1 23.9 145.1 22.4 144.3 23.4 C 143.8 22.7 141.5 23.2 142.9 24.1 C 143.9 24.6 142.8 25.1 142.6 25.4 C 142.9 25.7 144.3 25.3 144.5 25.5 C 144.1 25.8 142.3 26.3 144.2 26.2 C 143.6 26.7 144.6 27.0 142.8 27.0 C 142.8 27.0 142.8 27.0 142.8 27.0 Z M 149.6 27.8 C 149.6 28.2 149.0 27.8 149.6 27.8 C 149.6 27.8 149.6 27.8 149.6 27.8 Z M 145.0 22.7 C 145.0 23.1 144.3 22.7 145.0 22.7 C 145.0 22.7 145.0 22.7 145.0 22.7 Z M 149.9 23.1 C 150.0 23.5 149.3 23.1 149.9 23.1 C 149.9 23.1 149.9 23.1 149.9 23.1 Z M 147.8 27.5 C 146.8 27.2 148.7 27.0 148.9 27.4 C 148.7 27.3 148.1 27.9 147.8 27.5 C 147.8 27.5 147.8 27.5 147.8 27.5 Z M 147.7 25.3 C 147.6 25.5 147.2 25.5 147.2 25.1 C 147.5 25.0 147.8 25.2 147.7 25.3 C 147.7 25.3 147.7 25.3 147.7 25.3 Z M 153.0 26.9 C 152.9 27.0 152.5 27.1 152.5 26.7 C 152.8 26.6 153.1 26.8 153.0 26.9 C 153.0 26.9 153.0 26.9 153.0 26.9 Z M 146.6 26.5 C 146.4 26.5 146.3 26.1 146.6 26.1 C 146.7 26.2 147.5 26.3 146.6 26.5 C 146.6 26.5 146.6 26.5 146.6 26.5 Z M 145.0 27.8 C 144.1 27.6 145.9 27.0 145.9 27.2 C 146.1 27.5 145.5 28.1 145.0 27.8 C 145.0 27.8 145.0 27.8 145.0 27.8 Z M 146.1 26.0 C 145.4 25.8 146.4 25.7 146.1 26.0 C 146.1 26.0 146.1 26.0 146.1 26.0 Z M 152.3 24.1 C 151.5 23.9 152.6 23.8 152.3 24.1 C 152.3 24.1 152.3 24.1 152.3 24.1 Z M 148.4 22.9 C 147.6 22.7 148.7 22.6 148.4 22.9 C 148.4 22.9 148.4 22.9 148.4 22.9 Z M 149.8 26.8 C 151.1 26.8 150.0 27.7 149.8 26.8 C 149.8 26.8 149.8 26.8 149.8 26.8 Z M 142.9 27.9 C 144.2 27.9 143.1 28.8 142.9 27.9 C 142.9 27.9 142.9 27.9 142.9 27.9 Z M 98.9 27.5 C 97.7 27.7 102.3 29.0 100.6 27.5 C 100.1 26.3 103.2 26.4 102.4 27.5 C 103.3 27.7 103.3 27.7 103.8 27.1 C 104.0 28.1 106.2 28.5 106.9 28.0 C 107.4 27.3 105.5 27.9 106.7 27.1 C 109.4 26.9 106.5 26.3 107.5 25.2 C 107.7 25.2 107.7 25.7 108.0 25.5 C 108.0 24.5 106.5 23.9 107.2 23.1 C 106.8 23.3 104.8 22.2 105.6 23.1 C 105.9 24.0 103.5 22.0 103.7 23.5 C 103.0 22.8 102.3 23.7 101.7 22.9 C 101.2 22.7 101.2 23.5 101.3 23.7 C 101.4 24.4 100.7 22.1 100.0 23.4 C 99.9 23.0 97.7 23.1 99.3 23.7 C 98.9 23.6 96.4 23.3 97.7 24.6 C 99.4 25.2 95.9 25.9 97.9 26.0 C 99.5 26.1 99.8 25.9 98.6 26.6 C 98.3 26.5 96.5 26.6 98.0 27.2 C 98.4 27.0 99.1 27.2 98.9 27.5 C 98.9 27.5 98.9 27.5 98.9 27.5 Z M 98.6 25.6 C 99.5 25.5 98.6 26.1 98.6 25.6 C 98.6 25.6 98.6 25.6 98.6 25.6 Z M 101.9 22.6 C 102.8 22.5 101.9 23.1 101.9 22.6 C 101.9 22.6 101.9 22.6 101.9 22.6 Z M 101.7 27.9 C 102.2 27.5 102.3 28.9 101.7 27.9 C 101.7 27.9 101.7 27.9 101.7 27.9 Z M 100.3 23.7 C 100.4 23.7 100.2 23.9 100.0 24.0 C 100.0 23.9 100.3 23.7 100.3 23.7 C 100.3 23.7 100.3 23.7 100.3 23.7 Z M 103.3 27.9 C 104.6 27.2 103.5 28.9 103.3 27.9 C 103.3 27.9 103.3 27.9 103.3 27.9 Z M 106.0 26.6 C 106.2 25.2 107.4 26.9 106.0 26.6 C 106.0 26.6 106.0 26.6 106.0 26.6 Z M 104.1 23.6 C 103.9 23.9 103.9 23.4 104.1 23.6 C 104.1 23.6 104.1 23.6 104.1 23.6 Z M 98.2 23.4 C 97.9 23.7 97.9 23.2 98.2 23.4 C 98.2 23.4 98.2 23.4 98.2 23.4 Z M 105.8 23.7 C 105.7 24.2 105.3 23.4 105.8 23.7 C 105.8 23.7 105.8 23.7 105.8 23.7 Z M 102.0 27.3 C 100.7 28.4 100.5 25.7 102.0 27.3 C 102.0 27.3 102.0 27.3 102.0 27.3 Z M 99.8 27.4 C 98.9 27.7 99.9 26.7 100.3 26.9 C 100.3 27.0 99.9 27.4 99.8 27.4 C 99.8 27.4 99.8 27.4 99.8 27.4 Z M 103.3 27.2 C 102.5 27.7 102.5 26.9 103.3 27.2 C 103.3 27.2 103.3 27.2 103.3 27.2 Z M 101.1 27.8 C 100.7 27.7 101.5 27.7 101.1 27.8 C 101.1 27.8 101.1 27.8 101.1 27.8 Z M 105.0 28.3 C 104.6 28.2 105.4 28.2 105.0 28.3 C 105.0 28.3 105.0 28.3 105.0 28.3 Z M 98.7 28.0 C 98.3 27.9 99.1 27.9 98.7 28.0 C 98.7 28.0 98.7 28.0 98.7 28.0 Z M 104.6 27.6 C 104.8 27.1 103.6 26.0 105.7 27.0 C 106.1 27.3 105.2 28.0 104.6 27.6 C 104.6 27.6 104.6 27.6 104.6 27.6 Z M 139.4 26.9 C 144.4 28.5 143.2 25.8 143.4 25.3 C 144.1 24.5 143.4 24.1 142.4 23.6 C 141.4 21.9 140.9 25.3 140.1 23.6 C 138.8 21.4 138.7 25.6 138.1 23.2 C 138.3 22.6 136.4 23.1 136.5 23.3 C 135.6 22.1 134.2 24.1 134.2 24.4 C 133.6 24.0 133.5 21.9 131.5 23.5 C 130.0 24.1 129.3 22.0 129.8 23.4 C 128.6 21.8 129.0 23.9 127.9 23.3 C 127.1 22.4 127.8 24.7 126.4 23.0 C 125.8 24.4 127.1 22.1 123.3 23.1 C 125.1 23.2 121.5 24.2 122.2 23.2 C 123.5 22.3 120.5 23.6 118.7 23.0 C 118.3 23.5 116.2 24.8 116.6 23.4 C 114.8 21.8 114.7 24.4 114.0 23.1 C 113.4 22.5 113.2 23.7 112.8 23.6 C 112.1 22.6 111.6 23.3 109.4 23.0 C 104.5 22.5 108.6 25.5 106.8 25.8 C 106.5 26.3 109.2 29.5 108.1 27.1 C 108.5 27.8 112.4 25.3 110.4 27.9 C 111.9 26.9 110.1 29.0 113.1 27.7 C 109.0 25.9 117.9 27.0 113.9 27.9 C 114.5 28.4 116.2 28.3 115.0 27.9 C 114.5 26.2 117.8 28.7 116.2 26.6 C 118.7 27.2 118.1 25.3 118.8 26.6 C 119.4 28.8 118.7 26.0 120.0 26.7 C 123.0 26.7 120.6 29.2 122.5 27.6 C 125.4 28.7 123.1 26.6 124.1 26.3 C 124.4 24.8 127.1 27.5 124.9 27.7 C 126.1 26.9 125.1 28.4 126.4 27.5 C 125.4 26.0 128.2 29.0 127.8 27.8 C 129.0 27.5 128.4 26.6 128.7 26.6 C 130.5 26.6 130.0 28.0 130.3 26.9 C 130.7 26.4 131.6 28.2 131.8 27.7 C 130.0 27.7 133.3 26.2 133.5 27.0 C 132.4 27.1 134.1 28.9 134.8 27.8 C 133.9 24.6 136.4 28.6 137.3 27.4 C 136.5 25.7 141.3 27.2 139.5 28.0 C 139.6 27.9 139.4 26.9 139.4 26.9 M 132.4 27.5 C 130.8 27.3 134.0 27.1 132.4 27.5 M 132.4 27.9 C 131.8 27.4 133.9 28.4 132.3 28.1 C 132.3 28.1 132.5 28.0 132.4 27.9 M 126.2 28.0 C 126.3 27.5 127.0 28.3 126.2 28.0 M 124.9 26.9 C 123.9 26.5 126.3 26.9 124.9 26.9 M 111.1 27.3 C 112.5 24.7 112.5 28.7 111.1 27.3 M 120.2 27.8 C 121.9 27.5 119.7 28.9 120.2 27.8 M 120.7 27.2 C 121.5 26.7 120.9 27.7 120.7 27.2 M 113.7 27.3 C 113.6 27.2 113.6 27.2 113.7 27.3 C 113.7 27.3 113.7 27.3 113.7 27.3 Z M 109.6 27.2 C 109.6 27.2 109.6 27.2 109.6 27.2 C 109.6 27.2 109.6 27.2 109.6 27.2 Z M 117.7 27.0 C 119.0 27.6 115.6 27.2 117.7 27.0 C 117.7 27.0 117.7 27.0 117.7 27.0 Z M 111.6 23.3 C 111.6 23.3 111.6 23.3 111.6 23.3 C 111.6 23.3 111.6 23.3 111.6 23.3 Z M 133.6 26.3 C 133.6 26.3 133.6 26.3 133.6 26.3 C 133.6 26.3 133.6 26.3 133.6 26.3 Z M 138.2 27.3 C 138.2 26.9 139.1 27.6 138.2 27.3 C 138.2 27.3 138.2 27.3 138.2 27.3 Z M 142.0 24.3 C 142.1 24.3 142.1 24.3 142.0 24.3 C 142.0 24.3 142.0 24.3 142.0 24.3 Z M 135.1 25.0 C 135.2 24.9 135.2 24.9 135.1 25.0 C 135.1 25.0 135.1 25.0 135.1 25.0 Z M 134.5 26.9 C 135.2 28.3 132.7 26.5 134.5 26.9 C 134.5 26.9 134.5 26.9 134.5 26.9 Z M 119.3 23.5 C 119.2 24.1 118.2 23.2 119.3 23.5 C 119.3 23.5 119.3 23.5 119.3 23.5 Z M 124.8 26.4 C 124.6 26.7 124.1 26.2 124.8 26.4 C 124.8 26.4 124.8 26.4 124.8 26.4 Z M 127.3 28.3 C 127.1 28.6 126.7 28.1 127.3 28.3 C 127.3 28.3 127.3 28.3 127.3 28.3 Z M 138.2 27.7 C 138.1 27.8 138.1 27.8 138.2 27.7 C 138.2 27.7 138.2 27.7 138.2 27.7 Z M 136.5 26.6 C 137.6 27.9 134.7 25.9 136.5 26.6 C 136.5 26.6 136.5 26.6 136.5 26.6 Z M 138.5 26.2 C 137.8 25.7 140.0 26.4 138.5 26.2 M 137.3 24.2 C 135.9 24.8 138.6 21.8 137.3 24.2 C 137.3 24.2 137.3 24.2 137.3 24.2 Z M 130.1 23.7 C 130.0 23.6 130.0 23.6 130.1 23.7 C 130.1 23.7 130.1 23.7 130.1 23.7 Z M 130.9 27.5 C 129.6 27.5 131.7 27.2 130.9 27.5 C 130.9 27.5 130.9 27.5 130.9 27.5 Z M 141.7 27.8 C 140.5 27.8 142.5 27.5 141.7 27.8 C 141.7 27.8 141.7 27.8 141.7 27.8 Z M 125.9 25.0 C 123.9 25.2 127.2 24.2 125.9 25.0 C 125.9 25.0 125.9 25.0 125.9 25.0 Z M 118.4 26.5 C 118.3 26.5 118.3 26.5 118.4 26.5 C 118.4 26.5 118.4 26.5 118.4 26.5 Z M 117.0 27.0 C 117.0 27.0 117.0 27.0 117.0 27.0 C 117.0 27.0 117.0 27.0 117.0 27.0 Z M 111.2 25.7 C 111.1 25.6 111.1 25.6 111.2 25.7 C 111.2 25.7 111.2 25.7 111.2 25.7 Z M 115.7 27.7 C 115.7 27.6 115.7 27.6 115.7 27.7 C 115.7 27.7 115.7 27.7 115.7 27.7 Z M 111.7 27.3 C 111.6 27.3 111.6 27.3 111.7 27.3 C 111.7 27.3 111.7 27.3 111.7 27.3 Z M 112.3 28.5 C 112.2 28.4 112.2 28.4 112.3 28.5 C 112.3 28.5 112.3 28.5 112.3 28.5 Z M 121.2 22.7 C 121.2 22.6 121.2 22.6 121.2 22.7 C 121.2 22.7 121.2 22.7 121.2 22.7 Z M 135.9 28.1 C 135.8 28.0 135.8 28.0 135.9 28.1 C 135.9 28.1 135.9 28.1 135.9 28.1 Z M 112.0 26.8 C 112.0 26.8 112.0 26.8 112.0 26.8 C 112.0 26.8 112.0 26.8 112.0 26.8 Z M 121.9 25.8 C 121.8 24.6 122.7 27.3 121.6 25.8 C 121.7 25.8 121.9 25.9 121.9 25.8 M 120.6 23.9 C 120.6 23.9 120.6 23.9 120.6 23.9 C 120.6 23.9 120.6 23.9 120.6 23.9 Z M 125.0 23.2 C 125.1 23.2 125.1 23.2 125.0 23.2 C 125.0 23.2 125.0 23.2 125.0 23.2 Z M 116.4 27.9 C 116.6 28.5 115.3 27.4 116.6 27.9 M 111.1 23.7 C 111.3 24.3 110.0 23.2 111.3 23.7 M 143.2 27.4 C 143.3 26.9 144.0 27.7 143.2 27.4 M 126.0 22.6 C 126.2 22.1 126.9 22.9 126.0 22.6 M 123.9 24.0 C 124.1 24.7 122.8 23.5 124.1 24.0 M 114.2 23.7 C 114.1 23.7 114.1 23.7 114.2 23.7 C 114.2 23.7 114.2 23.7 114.2 23.7 Z M 129.0 27.4 C 128.9 27.4 128.9 27.4 129.0 27.4 C 129.0 27.4 129.0 27.4 129.0 27.4 Z M 123.5 26.1 C 124.3 26.9 122.5 25.5 123.5 26.1 M 130.6 25.9 C 131.6 27.0 128.8 25.5 130.6 25.9 M 108.8 23.4 C 110.0 24.7 107.9 22.7 108.8 23.4 M 114.8 26.7 C 116.0 28.0 113.9 26.0 114.8 26.7 M 127.9 26.9 C 127.9 27.5 126.7 26.5 127.9 26.9 M 140.3 27.5 C 141.5 27.6 138.8 28.0 140.3 27.5 M 117.2 23.7 C 117.1 23.6 117.1 23.6 117.2 23.7 C 117.2 23.7 117.2 23.7 117.2 23.7 Z M 136.6 22.6 C 136.5 22.5 136.5 22.5 136.6 22.6 C 136.6 22.6 136.6 22.6 136.6 22.6 Z M 107.3 27.7 C 107.2 27.6 107.2 27.6 107.3 27.7 C 107.3 27.7 107.3 27.7 107.3 27.7 Z M 115.6 26.1 C 115.5 26.0 115.5 26.0 115.6 26.1 C 115.6 26.1 115.6 26.1 115.6 26.1 Z M 109.6 27.9 C 109.5 27.8 109.5 27.8 109.6 27.9 C 109.6 27.9 109.6 27.9 109.6 27.9 Z M 119.3 25.1 C 119.3 25.0 119.3 25.0 119.3 25.1 C 119.3 25.1 119.3 25.1 119.3 25.1 Z M 120.1 28.4 C 120.1 28.3 120.1 28.3 120.1 28.4 C 120.1 28.4 120.1 28.4 120.1 28.4 Z M 124.2 27.0 C 124.2 26.9 124.2 26.9 124.2 27.0 C 124.2 27.0 124.2 27.0 124.2 27.0 Z M 118.2 28.1 C 115.7 28.3 119.5 27.0 118.2 28.1 C 118.2 28.1 118.2 28.1 118.2 28.1 Z M 122.5 24.8 C 122.5 24.8 122.5 24.8 122.5 24.8 C 122.5 24.8 122.5 24.8 122.5 24.8 Z M 122.8 27.2 C 121.3 28.1 122.0 25.6 122.8 27.2 M 129.7 27.9 C 129.2 28.4 129.5 27.2 129.7 27.9 M 132.4 23.6 C 132.4 23.5 132.4 23.5 132.4 23.6 C 132.4 23.6 132.4 23.6 132.4 23.6 Z M 131.7 23.9 C 131.6 23.9 131.6 23.9 131.7 23.9 C 131.7 23.9 131.7 23.9 131.7 23.9 Z M 131.4 28.1 C 131.3 28.1 131.3 28.1 131.4 28.1 C 131.4 28.1 131.4 28.1 131.4 28.1 Z M 131.6 22.7 C 131.5 22.7 131.5 22.7 131.6 22.7 C 131.6 22.7 131.6 22.7 131.6 22.7 Z M 121.0 28.3 C 121.0 28.3 121.0 28.3 121.0 28.3 C 121.0 28.3 121.0 28.3 121.0 28.3 Z M 108.4 28.3 C 108.4 28.3 108.4 28.3 108.4 28.3 C 108.4 28.3 108.4 28.3 108.4 28.3 Z M 140.0 24.1 C 139.9 24.0 139.9 24.0 140.0 24.1 C 140.0 24.1 140.0 24.1 140.0 24.1 Z M 119.7 27.0 C 119.7 26.9 119.7 26.9 119.7 27.0 C 119.7 27.0 119.7 27.0 119.7 27.0 Z M 134.2 23.8 C 134.2 23.7 134.2 23.7 134.2 23.8 C 134.2 23.8 134.2 23.8 134.2 23.8 Z M 120.5 27.3 C 120.5 27.2 120.5 27.2 120.5 27.3 C 120.5 27.3 120.5 27.3 120.5 27.3 Z M 117.6 23.4 C 117.5 23.4 117.5 23.4 117.6 23.4 C 117.6 23.4 117.6 23.4 117.6 23.4 Z M 114.8 22.7 C 114.8 22.7 114.8 22.7 114.8 22.7 C 114.8 22.7 114.8 22.7 114.8 22.7 Z M 117.8 25.7 C 117.7 25.7 117.7 25.7 117.8 25.7 C 117.8 25.7 117.8 25.7 117.8 25.7 Z M 135.1 25.2 C 140.1 26.3 131.2 25.7 135.1 25.2 M 116.9 25.5 C 120.4 25.7 114.1 26.7 116.9 25.5 C 116.5 25.8 116.9 25.5 116.9 25.5 " fill="#EB5C56"></path><path d="M 98.5 12.2 C 98.6 11.7 100.2 11.1 99.1 12.2 C 99.0 12.2 98.4 12.4 98.5 12.2 Z M 96.1 13.6 C 96.3 13.5 96.4 13.4 96.6 13.5 C 97.1 13.8 95.5 14.0 96.1 13.6 Z M 99.9 12.0 C 99.9 11.9 100.7 11.5 100.6 11.7 C 100.6 11.9 99.9 12.1 99.9 12.0 Z M 94.5 15.8 C 94.4 15.6 95.2 15.2 95.4 15.2 C 96.0 15.2 94.7 16.3 94.5 15.8 Z M 101.1 19.9 C 101.1 20.0 101.1 20.0 101.1 20.1 C 101.1 20.0 101.0 20.0 101.1 19.9 Z M 83.0 22.0 C 83.2 21.9 83.6 21.9 83.6 22.1 C 83.6 22.4 82.6 22.3 83.0 22.0 Z M 101.5 35.7 C 101.5 35.7 101.7 35.3 101.8 35.5 C 102.0 35.6 101.7 35.8 101.5 35.7 Z M 101.8 35.7 C 102.0 35.6 102.1 35.9 101.9 35.9 C 101.7 35.8 101.6 35.7 101.8 35.7 Z M 89.0 32.3 C 88.9 32.3 88.8 32.3 89.0 32.2 C 89.1 32.2 89.2 32.4 89.0 32.3 Z M 89.5 32.3 C 89.7 32.1 89.8 32.6 89.6 32.5 C 89.4 32.4 89.3 32.4 89.5 32.3 Z M 91.3 34.8 C 91.1 34.7 91.1 34.7 91.2 34.7 C 91.3 34.6 91.4 34.8 91.3 34.8 Z M 102.2 29.2 C 102.3 29.3 102.1 29.8 102.0 29.7 C 101.7 29.7 102.0 29.0 102.2 29.2 Z M 102.3 29.8 C 102.5 29.8 102.5 30.1 102.3 30.0 C 102.2 30.0 102.1 29.9 102.3 29.8 Z M 101.9 27.8 C 101.7 27.8 101.7 27.3 101.7 27.2 C 101.8 27.0 101.8 26.8 101.9 26.6 C 102.0 26.5 102.3 27.8 101.9 27.8 Z M 101.7 23.6 C 101.8 23.6 101.8 23.6 101.7 23.8 C 101.6 24.0 101.6 23.6 101.7 23.6 Z M 101.8 26.0 C 101.9 26.0 102.0 26.0 101.9 26.2 C 101.8 26.4 101.7 26.0 101.8 26.0 Z M 89.7 18.0 C 89.5 17.9 90.2 17.7 90.3 17.7 C 90.4 17.7 90.1 17.8 90.3 17.8 C 90.5 17.8 90.4 18.4 89.7 18.0 Z M 94.8 14.5 C 94.9 14.4 95.0 14.5 95.0 14.6 C 95.0 14.7 94.5 14.8 94.8 14.5 Z M 90.9 18.3 C 90.9 18.2 91.0 18.1 91.1 18.2 C 91.1 18.2 91.0 18.3 90.9 18.3 Z M 90.6 18.6 C 90.7 18.5 91.1 18.5 91.1 18.7 C 91.1 19.0 90.1 19.0 90.6 18.6 Z M 88.8 18.2 C 89.0 18.1 89.0 18.1 88.9 18.3 C 88.9 18.4 88.8 18.2 88.8 18.2 Z M 91.7 16.1 C 91.9 16.0 91.9 16.0 91.9 16.1 C 91.8 16.3 91.7 16.1 91.7 16.1 Z M 87.6 19.5 C 87.6 19.5 87.9 19.0 88.2 19.3 C 88.6 19.7 87.6 19.5 87.6 19.5 Z M 85.7 21.2 C 85.9 21.1 85.9 21.3 85.8 21.4 C 85.6 21.4 85.6 21.3 85.7 21.2 Z M 85.4 22.4 C 85.1 22.5 84.8 22.4 85.2 22.2 C 85.6 22.0 85.7 22.4 85.4 22.4 Z M 85.7 22.0 C 85.7 22.1 85.6 22.1 85.5 22.1 C 85.5 22.0 85.6 21.9 85.7 22.0 Z M 87.2 20.4 C 87.3 20.1 87.6 20.2 87.4 20.5 C 87.2 20.7 87.1 20.6 87.2 20.4 Z M 102.1 17.7 C 102.1 17.6 102.3 17.6 102.4 17.7 C 102.5 17.8 102.2 17.9 102.1 17.7 Z M 101.2 26.8 C 101.3 26.7 101.4 26.8 101.3 27.0 C 101.2 27.3 101.1 26.9 101.2 26.8 Z M 100.7 32.6 C 100.9 32.5 100.9 32.6 100.8 32.8 C 100.7 33.0 100.6 32.7 100.7 32.6 Z M 101.2 24.5 C 101.3 24.4 101.7 25.0 101.3 25.4 C 100.9 25.7 100.8 24.7 101.2 24.5 Z M 96.6 18.8 C 96.5 18.7 96.7 18.7 96.7 18.7 C 96.7 19.0 96.7 19.0 96.6 18.8 Z M 100.5 25.8 C 100.4 25.7 100.7 25.7 100.8 25.8 C 100.9 25.9 100.6 26.0 100.5 25.8 Z M 101.1 31.6 C 101.2 31.3 101.5 31.5 101.7 31.6 C 102.1 32.1 101.6 32.4 101.3 32.8 C 101.1 33.0 101.0 31.7 101.1 31.6 Z M 101.3 16.3 C 101.2 16.4 101.2 16.6 101.2 16.7 C 101.3 16.7 101.2 16.8 101.1 16.9 C 101.2 17.5 101.7 17.9 101.9 18.2 C 102.2 19.1 101.1 19.4 101.1 19.9 C 101.0 19.8 101.0 19.6 100.9 19.6 C 100.6 19.3 100.8 21.4 100.8 21.5 C 101.1 23.2 101.3 21.1 101.9 21.1 C 102.2 21.1 101.5 22.3 101.5 22.4 C 101.2 22.9 101.8 23.0 101.6 23.5 C 101.5 23.7 100.2 24.3 100.3 24.5 C 100.5 24.7 100.3 25.3 100.3 25.4 C 100.3 25.8 100.4 26.3 100.9 26.0 C 101.2 25.8 101.5 25.7 101.2 26.2 C 101.0 26.4 100.2 28.5 101.2 28.4 C 101.2 28.4 101.5 27.9 101.5 27.9 C 101.7 28.5 101.4 30.2 101.8 30.6 C 102.7 31.5 101.3 30.3 101.0 30.8 C 100.6 31.6 100.3 32.0 100.5 33.0 C 100.5 33.2 100.5 34.1 101.0 33.7 C 101.4 33.4 101.6 33.6 101.7 33.0 C 102.2 33.7 101.3 34.1 101.5 34.2 C 101.8 34.4 101.9 34.0 101.9 34.5 C 101.8 35.1 102.0 34.8 101.5 34.9 C 101.3 35.0 101.2 35.5 101.2 35.5 C 101.2 35.5 101.1 35.5 101.1 35.5 C 101.1 35.9 102.0 36.7 101.8 36.8 C 101.6 36.9 101.0 36.6 100.8 36.6 C 100.8 36.7 100.8 36.7 100.8 36.8 C 100.9 37.0 101.2 37.4 101.2 37.5 C 101.1 37.6 100.2 37.2 100.5 37.4 C 100.7 37.7 100.4 38.7 100.1 38.8 C 99.9 38.8 98.7 39.1 98.7 39.3 C 98.6 39.5 98.0 39.1 97.9 39.0 C 97.7 39.0 97.5 38.5 97.5 38.4 C 97.5 38.3 97.0 38.1 97.0 38.1 C 97.0 38.1 96.8 38.1 96.4 37.9 C 96.1 37.8 96.0 37.4 95.6 37.0 C 95.3 36.6 94.9 36.8 94.5 36.6 C 94.1 36.4 94.1 35.6 93.8 35.3 C 93.5 35.0 93.2 35.5 92.8 35.3 C 92.3 35.1 92.2 34.8 92.4 34.8 C 92.5 34.8 92.5 34.6 92.4 34.5 C 92.3 34.5 91.8 34.0 91.6 34.0 C 91.4 34.0 92.4 35.2 90.8 34.2 C 90.0 33.6 89.8 32.8 90.0 32.9 C 90.6 33.2 89.8 31.7 89.7 31.9 C 89.5 32.2 88.2 31.3 88.3 31.9 C 88.3 32.1 86.8 31.5 86.7 31.3 C 86.5 31.1 85.8 30.8 85.9 30.3 C 85.9 30.0 84.8 30.1 84.6 30.0 C 84.5 29.9 83.4 29.2 83.3 28.9 C 83.1 28.7 83.6 29.0 83.9 29.2 C 84.1 29.3 84.3 29.7 84.6 29.8 C 84.8 29.9 84.5 29.4 84.2 29.2 C 84.0 29.0 84.0 28.8 83.9 28.6 C 83.7 28.5 83.6 28.4 83.4 28.2 C 83.2 28.2 83.1 28.2 83.1 28.3 C 83.0 28.4 83.1 28.6 83.0 28.6 C 83.0 28.7 82.7 28.7 82.4 28.5 C 82.0 28.3 81.8 28.1 81.4 27.7 C 81.1 27.3 80.9 27.4 80.6 27.2 C 80.2 27.1 80.0 26.9 80.0 26.8 C 80.1 26.7 80.5 26.8 80.6 26.7 C 80.7 26.7 80.4 26.2 80.2 26.1 C 79.5 25.5 80.5 25.2 79.8 24.6 C 79.3 24.3 80.0 24.3 80.4 24.2 C 80.4 24.1 80.4 24.1 80.7 23.8 C 80.6 23.6 81.2 23.5 81.5 23.3 C 81.6 23.1 82.5 22.3 82.1 23.0 C 82.0 23.0 82.0 23.1 81.9 23.1 C 82.0 23.1 82.0 23.1 82.0 23.2 C 82.0 23.2 81.9 23.7 81.9 23.7 C 81.9 23.7 82.0 23.2 82.0 23.2 C 82.2 23.2 82.4 23.3 82.5 23.4 C 82.6 23.3 82.6 23.2 82.6 23.2 C 82.6 23.2 82.6 23.1 82.7 23.1 C 82.7 23.1 82.6 23.1 82.6 23.1 C 82.5 22.9 82.6 22.9 82.7 22.9 C 83.0 22.5 84.0 22.3 84.4 22.2 C 84.0 23.6 85.6 22.6 86.1 22.2 C 86.6 21.7 85.9 20.7 85.6 20.8 C 86.0 20.6 86.2 20.7 86.5 21.0 C 86.4 20.9 87.3 21.3 87.2 21.3 C 88.4 21.2 87.6 20.4 87.8 20.1 C 88.0 19.9 88.3 19.7 88.5 19.5 C 88.7 19.2 88.4 19.2 88.4 19.0 C 88.5 18.4 89.6 18.8 89.9 18.7 C 89.7 18.9 89.5 19.2 89.3 19.4 C 89.5 19.0 90.0 19.4 90.2 19.4 C 90.5 19.3 90.9 19.0 91.1 18.9 C 91.6 18.5 92.1 18.1 92.5 17.7 C 92.3 17.7 91.2 17.6 91.2 17.7 C 91.3 17.5 91.9 17.4 91.5 17.1 C 90.8 16.7 92.3 16.2 92.5 16.1 C 93.2 15.8 93.5 14.7 94.6 15.0 C 94.6 15.0 93.7 15.8 93.8 15.9 C 94.4 16.3 94.9 16.5 95.5 15.9 C 95.6 15.8 96.3 14.8 96.3 14.8 C 96.3 14.8 94.5 14.1 95.6 14.0 C 95.8 14.0 95.6 14.4 95.9 14.4 C 96.3 14.4 96.7 14.0 97.0 13.8 C 97.1 13.8 97.7 13.7 97.7 13.6 C 97.7 13.4 97.6 13.1 97.7 12.9 C 97.8 12.7 98.2 12.7 98.3 12.9 C 98.3 12.9 98.3 12.9 98.3 13.0 C 98.4 12.9 98.5 13.0 98.6 13.1 C 98.6 13.0 98.8 12.9 98.9 13.0 C 99.0 13.0 98.8 13.2 98.6 13.2 C 98.6 13.3 98.7 13.3 98.7 13.4 C 99.0 13.2 99.2 13.0 99.2 13.0 C 99.5 12.4 99.4 12.2 100.4 12.3 C 101.1 12.5 101.6 14.3 101.4 15.5 C 101.5 15.7 101.4 16.0 101.3 16.3 Z M 83.0 27.6 C 83.0 27.7 83.0 27.7 83.1 27.7 C 83.1 27.6 83.2 27.5 83.2 27.4 C 83.0 27.2 83.2 27.6 83.0 27.4 C 82.7 27.2 82.7 27.3 83.0 27.6 Z M 83.2 25.0 C 83.0 25.0 83.0 25.1 83.1 25.2 C 83.1 25.1 83.2 25.1 83.2 25.0 Z M 82.7 23.9 C 82.4 24.2 83.1 24.3 83.6 23.9 C 83.1 23.9 82.8 23.9 82.7 23.9 Z M 83.2 23.0 C 83.2 23.1 83.2 23.2 83.2 23.2 C 83.2 23.4 83.5 23.0 83.5 23.2 C 83.6 23.3 83.3 23.7 83.6 23.6 C 83.6 23.6 83.7 23.6 83.8 23.6 C 83.8 23.5 83.8 23.5 83.8 23.4 C 83.9 23.2 83.4 22.9 83.2 23.0 Z M 84.9 27.8 C 84.7 27.7 84.8 27.9 84.9 27.9 C 85.1 27.9 85.1 27.8 84.9 27.8 Z M 86.2 29.8 C 86.1 29.6 85.9 29.5 86.0 29.8 C 86.1 30.0 86.3 30.0 86.2 29.8 Z M 89.1 26.8 C 88.9 26.9 89.0 26.9 89.1 26.9 C 89.3 27.0 89.2 26.8 89.1 26.8 Z M 89.2 24.7 C 89.3 24.5 89.1 24.3 89.0 24.5 C 89.0 24.6 89.1 24.8 89.2 24.7 Z M 88.9 29.5 C 89.1 29.6 89.1 29.4 88.9 29.4 C 88.8 29.4 88.8 29.5 88.9 29.5 Z M 88.5 26.7 C 88.6 26.9 88.7 26.8 88.8 26.8 C 88.9 26.7 88.8 26.5 88.6 26.4 C 88.4 26.4 88.3 26.4 88.5 26.7 Z M 88.3 24.9 C 88.9 24.6 88.7 24.3 88.2 24.8 C 87.6 25.3 88.0 25.1 88.3 24.9 Z M 87.3 31.3 C 87.3 31.2 87.0 31.1 87.0 31.1 C 87.0 31.1 87.6 31.6 87.3 31.3 Z M 88.5 20.0 C 88.3 20.1 88.3 20.4 88.6 20.2 C 88.9 20.1 88.7 19.9 88.5 20.0 Z M 89.6 20.9 C 89.1 20.6 88.8 20.7 88.7 20.7 C 88.8 20.7 88.9 21.1 88.8 21.2 C 88.5 21.5 87.9 21.4 87.7 21.8 C 87.5 22.3 88.3 21.9 88.4 21.8 C 88.3 21.9 88.3 22.0 88.3 22.1 C 88.5 22.2 88.6 22.2 88.7 22.0 C 88.8 21.8 90.0 21.3 89.6 20.9 Z M 89.5 26.0 C 89.3 25.9 89.1 26.1 89.3 26.3 C 89.4 26.5 89.6 26.6 89.7 26.6 C 89.8 26.5 89.7 26.1 89.5 26.0 Z M 89.7 27.6 C 89.5 27.7 89.6 27.7 89.8 27.8 C 90.1 27.9 89.9 27.5 89.7 27.6 Z M 92.7 34.4 C 92.8 34.3 92.5 34.1 92.5 34.2 C 92.4 34.3 92.5 34.4 92.7 34.4 Z M 92.6 31.7 C 93.0 31.8 92.7 31.4 92.6 31.4 C 92.5 31.4 92.3 31.6 92.6 31.7 Z M 91.0 30.1 C 91.2 30.2 91.0 29.9 90.9 29.9 C 90.8 30.0 90.9 30.1 91.0 30.1 Z M 90.8 29.1 C 91.0 29.2 91.0 28.9 90.7 28.9 C 90.6 28.9 90.7 29.0 90.8 29.1 Z M 91.6 20.4 C 91.6 20.4 91.7 20.8 91.9 20.5 C 92.1 20.2 92.1 20.2 91.6 20.4 Z M 90.9 23.5 C 90.6 23.7 90.4 24.0 90.7 24.8 C 91.0 25.7 91.1 25.3 91.3 24.8 C 91.4 24.3 91.8 25.7 92.0 24.7 C 92.1 24.3 91.1 23.3 90.9 23.5 Z M 92.4 29.0 C 92.1 28.5 91.3 28.6 91.7 28.9 C 92.2 29.3 92.6 29.4 92.4 29.0 Z M 92.4 29.4 C 92.3 29.4 92.3 29.4 92.5 29.5 C 92.7 29.6 92.6 29.4 92.4 29.4 Z M 92.0 16.7 C 91.2 17.4 92.5 17.4 92.5 17.4 C 93.7 17.1 92.8 15.9 92.0 16.7 Z M 100.6 35.0 C 100.6 35.0 100.6 34.9 100.6 34.9 C 100.6 34.9 100.6 34.9 100.6 34.8 C 100.5 34.7 100.3 35.0 100.3 35.0 C 100.4 35.1 100.6 35.1 100.6 35.0 Z M 100.9 29.5 C 100.8 29.7 100.9 29.9 101.0 30.0 C 101.5 29.9 101.5 28.3 100.7 28.9 C 100.5 29.0 99.8 30.1 100.2 30.2 C 100.5 30.2 100.9 28.9 100.9 29.5 Z M 100.2 31.2 C 100.2 30.6 99.5 31.8 99.9 31.6 C 100.1 31.5 100.2 31.4 100.2 31.2 Z M 98.7 36.1 C 99.0 37.0 100.3 36.8 99.6 35.4 C 99.0 34.1 98.4 34.0 98.6 34.7 C 98.8 35.4 98.1 34.8 98.7 36.1 Z M 98.7 28.9 C 99.6 29.1 99.4 28.7 98.7 28.4 C 98.5 28.4 98.1 28.8 98.7 28.9 Z M 98.5 26.9 C 98.6 26.7 98.6 26.7 98.4 26.8 C 98.2 27.0 98.4 27.2 98.5 26.9 Z M 97.3 37.5 C 97.5 37.9 97.9 38.1 97.6 38.1 C 97.4 38.1 97.5 38.2 97.7 38.4 C 97.9 38.6 97.9 38.1 97.9 37.9 C 97.8 37.7 97.2 37.2 97.3 37.5 Z M 94.2 29.9 C 94.3 29.9 94.2 29.7 94.1 29.7 C 94.0 29.7 94.0 29.8 94.2 29.9 Z M 93.2 22.3 C 93.2 22.3 93.2 22.5 93.3 22.3 C 93.5 22.1 93.5 22.1 93.2 22.3 Z M 93.5 16.2 C 93.3 16.4 93.8 16.4 93.7 16.7 C 93.7 16.8 93.5 16.7 93.5 16.6 C 93.5 16.7 93.6 17.4 93.9 16.9 C 94.0 16.7 93.9 15.8 93.5 16.2 Z M 94.4 27.8 C 94.1 27.4 93.9 28.7 93.6 28.5 C 93.4 28.3 93.4 28.4 93.7 28.7 C 93.9 29.0 94.7 28.1 94.4 27.8 Z M 94.6 31.0 C 94.6 30.8 94.0 30.2 94.1 30.6 C 94.3 30.9 94.6 31.1 94.4 31.1 C 94.2 31.2 94.3 31.2 94.4 31.4 C 94.6 31.7 94.6 31.2 94.6 31.0 Z M 94.8 36.4 C 94.8 36.2 94.4 36.1 94.6 36.3 C 94.6 36.5 94.9 36.5 94.8 36.4 Z M 95.2 21.4 C 95.1 21.6 95.1 21.7 95.4 21.5 C 95.6 21.3 95.3 21.2 95.2 21.4 Z M 95.8 35.9 C 95.5 35.5 95.7 36.1 95.4 35.9 C 95.2 35.7 95.2 35.8 95.5 36.1 C 95.7 36.3 96.0 36.2 95.8 35.9 Z M 96.0 16.5 C 96.0 16.6 96.1 16.8 96.2 16.7 C 96.3 16.6 96.1 16.4 96.0 16.5 Z M 96.8 18.5 C 96.7 18.6 96.6 18.6 96.5 18.6 C 95.2 19.5 97.6 18.8 96.8 18.5 Z M 96.6 21.6 C 96.5 21.2 96.3 21.7 96.3 21.7 C 96.5 21.8 96.6 21.8 96.6 21.6 Z M 96.6 25.0 C 96.8 25.1 96.7 24.8 96.6 24.8 C 96.4 24.9 96.5 25.0 96.6 25.0 Z M 97.2 14.0 C 97.0 14.1 97.1 14.2 97.2 14.2 C 97.4 14.2 97.4 14.0 97.2 14.0 Z M 97.4 22.5 C 97.3 22.5 97.2 22.5 97.3 22.6 C 97.3 22.8 97.4 22.6 97.4 22.5 Z M 97.4 32.8 C 97.3 32.8 97.2 32.7 97.2 32.6 C 97.0 32.7 96.9 33.3 96.7 33.3 C 96.7 33.3 96.7 33.3 96.6 33.3 C 96.6 33.3 96.6 33.3 96.6 33.3 C 96.5 33.3 96.4 33.2 96.5 33.2 C 96.4 33.1 96.4 33.0 96.4 32.9 C 96.2 33.1 96.1 33.3 96.2 33.5 C 96.4 33.7 96.8 33.7 97.2 33.7 C 97.3 33.6 97.4 33.4 97.4 33.3 C 97.4 33.3 97.4 33.3 97.3 33.3 C 97.1 33.1 97.0 33.0 97.2 33.0 C 97.3 33.0 97.4 33.0 97.4 33.1 C 97.4 33.0 97.4 32.9 97.4 32.8 Z M 97.8 23.8 C 97.7 23.6 97.6 23.7 97.5 24.1 C 97.5 24.3 98.0 24.1 97.8 23.8 Z M 97.6 14.5 C 97.6 14.6 97.6 14.6 97.7 14.7 C 97.7 14.6 97.7 14.6 97.7 14.5 C 97.8 14.4 97.8 14.2 97.9 14.0 C 97.6 14.0 97.5 14.1 97.6 14.5 Z M 98.5 17.4 C 98.5 17.3 98.6 16.1 98.3 16.3 C 97.9 16.6 97.4 16.1 97.6 17.0 C 97.7 17.4 98.3 17.8 98.4 18.2 C 98.9 20.4 99.0 17.6 99.1 17.1 C 99.1 17.0 98.6 17.6 98.5 17.4 Z M 99.2 20.3 C 99.4 20.4 99.6 20.0 99.6 19.9 C 99.6 19.4 99.0 20.1 99.2 20.3 Z M 99.5 14.2 C 99.5 14.1 99.5 14.1 99.4 14.2 C 99.4 14.2 99.5 14.2 99.5 14.3 C 99.5 14.2 99.5 14.2 99.5 14.2 Z M 99.8 12.6 C 99.1 13.2 100.3 13.1 100.6 13.0 C 101.0 12.8 100.1 12.4 99.8 12.6 Z M 100.2 18.6 C 100.2 19.1 101.5 19.6 101.4 18.8 C 101.4 18.1 100.3 17.7 100.2 18.6 Z M 101.8 23.2 C 101.7 23.0 101.9 22.6 102.1 22.8 C 102.2 23.0 101.9 23.3 101.8 23.2 Z M 102.5 16.4 C 102.5 16.5 102.4 16.4 102.4 16.4 C 102.6 16.3 102.6 16.3 102.5 16.4 Z M 101.6 17.0 C 101.7 16.8 101.8 16.6 101.8 16.4 C 101.9 16.3 102.0 16.7 102.0 16.7 C 102.0 16.9 101.6 17.0 101.6 17.0 Z M 101.5 20.7 C 101.6 20.5 101.7 20.8 101.6 20.9 C 101.6 21.0 101.4 20.8 101.5 20.7 Z M 101.8 19.8 C 101.8 19.9 101.6 19.8 101.6 19.7 C 101.7 19.5 101.8 19.7 101.8 19.8 Z M 101.1 21.3 C 101.0 20.9 100.9 20.4 101.2 20.5 C 101.4 20.5 101.3 22.1 101.1 21.3 Z M 101.1 21.3 " fill="#EB5C56"></path></g></g><g><clipPath id="clip-91"><path d="M 159.8 -3.0 L 468.9 -3.0 L 468.9 58.0 L 159.8 58.0 Z M 159.8 -3.0 "></path></clipPath><g clip-path="url(#clip-91)"><text xml:space="preserve" font-family="Helvetica-Light" font-size="36.0" fill="#000000" transform="matrix(1.00, 0.00, -0.00, -1.00, 169.0, 14.0)">I</text><text xml:space="preserve" font-family="Helvetica-Light" font-size="36.0" fill="#000000" transform="matrix(1.00, 0.00, -0.00, -1.00, 179.0, 14.0)">n</text><text xml:space="preserve" font-family="Helvetica-Light" font-size="36.0" fill="#000000" transform="matrix(1.00, 0.00, -0.00, -1.00, 199.0, 14.0)">t</text><text xml:space="preserve" font-family="Helvetica-Light" font-size="36.0" fill="#000000" transform="matrix(1.00, 0.00, -0.00, -1.00, 209.0, 14.0)">u</text><text xml:space="preserve" font-family="Helvetica-Light" font-size="36.0" fill="#000000" transform="matrix(1.00, 0.00, -0.00, -1.00, 229.0, 14.0)">i</text><text xml:space="preserve" font-family="Helvetica-Light" font-size="36.0" fill="#000000" transform="matrix(1.00, 0.00, -0.00, -1.00, 237.0, 14.0)">t</text><text xml:space="preserve" font-family="Helvetica-Light" font-size="36.0" fill="#000000" transform="matrix(1.00, 0.00, -0.00, -1.00, 247.0, 14.0)">i</text><text xml:space="preserve" font-family="Helvetica-Light" font-size="36.0" fill="#000000" transform="matrix(1.00, 0.00, -0.00, -1.00, 255.0, 14.0)">o</text><text xml:space="preserve" font-family="Helvetica-Light" font-size="36.0" fill="#000000" transform="matrix(1.00, 0.00, -0.00, -1.00, 275.1, 14.0)">n</text><text xml:space="preserve" font-family="Helvetica-Light" font-size="36.0" fill="#000000" transform="matrix(1.00, 0.00, -0.00, -1.00, 295.1, 14.0)">i</text><text xml:space="preserve" font-family="Helvetica-Light" font-size="36.0" fill="#000000" transform="matrix(1.00, 0.00, -0.00, -1.00, 303.1, 14.0)">s</text><text xml:space="preserve" font-family="Helvetica-Light" font-size="36.0" fill="#000000" transform="matrix(1.00, 0.00, -0.00, -1.00, 321.1, 14.0)">t</text><text xml:space="preserve" font-family="Helvetica-Light" font-size="36.0" fill="#000000" transform="matrix(1.00, 0.00, -0.00, -1.00, 331.1, 14.0)">i</text><text xml:space="preserve" font-family="Helvetica-Light" font-size="36.0" fill="#000000" transform="matrix(1.00, 0.00, -0.00, -1.00, 339.1, 14.0)">c</text><text xml:space="preserve" font-family="Helvetica-Light" font-size="36.0" fill="#000000" transform="matrix(1.00, 0.00, -0.00, -1.00, 359.1, 14.0)"> </text><text xml:space="preserve" font-family="Helvetica-Light" font-size="36.0" fill="#000000" transform="matrix(1.00, 0.00, -0.00, -1.00, 369.1, 14.0)">L</text><text xml:space="preserve" font-family="Helvetica-Light" font-size="36.0" fill="#000000" transform="matrix(1.00, 0.00, -0.00, -1.00, 389.1, 14.0)">o</text><text xml:space="preserve" font-family="Helvetica-Light" font-size="36.0" fill="#000000" transform="matrix(1.00, 0.00, -0.00, -1.00, 409.1, 14.0)">g</text><text xml:space="preserve" font-family="Helvetica-Light" font-size="36.0" fill="#000000" transform="matrix(1.00, 0.00, -0.00, -1.00, 431.1, 14.0)">i</text><text xml:space="preserve" font-family="Helvetica-Light" font-size="36.0" fill="#000000" transform="matrix(1.00, 0.00, -0.00, -1.00, 439.1, 14.0)">c</text></g></g><g><clipPath id="clip-92"><path d="M 1.0 14.0 L 77.7 14.0 L 77.7 46.0 L 1.0 46.0 Z M 1.0 14.0 "></path></clipPath><g clip-path="url(#clip-92)"><text xml:space="preserve" font-family="Helvetica" font-size="10.0" fill="#000000" transform="matrix(4.43, 0.00, -0.00, -4.32, -0.7, 14.5)">=</text><text xml:space="preserve" font-family="Helvetica" font-size="10.0" fill="#000000" transform="matrix(4.43, 0.00, -0.00, -4.32, 25.1, 14.5)">!</text><text xml:space="preserve" font-family="Helvetica" font-size="10.0" fill="#000000" transform="matrix(4.43, 0.00, -0.00, -4.32, 45.9, 14.5)">A</text></g></g></g></svg>