<?xml version="1.0" encoding="UTF-8" standalone="no"?><svg xmlns="http://www.w3.org/2000/svg" xmlns:xlink="http://www.w3.org/1999/xlink" clip-rule="evenodd" stroke-miterlimit="4.00" viewBox="0 0 627 54"><desc>SVG generated by Keynote</desc><defs></defs><g transform="matrix(1.00, 0.00, -0.00, -1.00, 0.0, 54.0)"><g><clipPath id="clip-82"><path d="M 82.3 10.6 L 0.3 10.6 L 0.3 40.3 L 82.3 40.3 Z M 82.3 10.6 "></path></clipPath><g clip-path="url(#clip-82)"><path d="M 67.8 27.0 C 68.1 26.8 68.8 27.0 69.0 26.9 M 67.8 27.0 C 68.5 28.1 69.9 28.1 71.6 28.3 C 73.5 28.4 71.5 27.3 71.8 26.9 C 74.3 26.4 74.3 27.2 73.9 28.4 C 74.9 27.6 77.7 29.0 77.1 27.5 C 73.1 27.5 79.9 27.2 76.6 26.3 C 76.2 26.1 77.2 25.7 77.6 25.7 C 76.5 25.1 78.4 24.4 76.6 23.9 C 76.3 23.0 76.6 23.4 75.5 22.7 C 75.0 22.6 75.2 22.9 75.3 23.1 C 75.1 24.2 73.9 22.5 73.0 23.2 C 72.1 21.8 71.2 23.4 72.0 24.0 C 71.1 23.9 70.1 22.4 69.3 23.4 C 68.8 22.7 66.5 23.2 67.9 24.1 C 68.9 24.6 67.8 25.1 67.6 25.4 C 67.9 25.7 69.3 25.3 69.5 25.5 C 69.1 25.8 67.3 26.3 69.2 26.2 C 68.6 26.7 69.6 27.0 67.8 27.0 C 67.8 27.0 67.8 27.0 67.8 27.0 Z M 74.6 27.8 C 74.6 28.2 74.0 27.8 74.6 27.8 C 74.6 27.8 74.6 27.8 74.6 27.8 Z M 70.0 22.7 C 70.0 23.1 69.3 22.7 70.0 22.7 C 70.0 22.7 70.0 22.7 70.0 22.7 Z M 74.9 23.1 C 75.0 23.5 74.3 23.1 74.9 23.1 C 74.9 23.1 74.9 23.1 74.9 23.1 Z M 72.8 27.5 C 71.8 27.2 73.7 27.0 73.9 27.4 C 73.7 27.3 73.1 27.9 72.8 27.5 C 72.8 27.5 72.8 27.5 72.8 27.5 Z M 72.7 25.3 C 72.6 25.5 72.2 25.5 72.2 25.1 C 72.5 25.0 72.8 25.2 72.7 25.3 C 72.7 25.3 72.7 25.3 72.7 25.3 Z M 78.0 26.9 C 77.9 27.0 77.5 27.1 77.5 26.7 C 77.8 26.6 78.1 26.8 78.0 26.9 C 78.0 26.9 78.0 26.9 78.0 26.9 Z M 71.6 26.5 C 71.4 26.5 71.3 26.1 71.6 26.1 C 71.7 26.2 72.5 26.3 71.6 26.5 C 71.6 26.5 71.6 26.5 71.6 26.5 Z M 70.0 27.8 C 69.1 27.6 70.9 27.0 70.9 27.2 C 71.1 27.5 70.5 28.1 70.0 27.8 C 70.0 27.8 70.0 27.8 70.0 27.8 Z M 71.1 26.0 C 70.4 25.8 71.4 25.7 71.1 26.0 C 71.1 26.0 71.1 26.0 71.1 26.0 Z M 77.3 24.1 C 76.5 23.9 77.6 23.8 77.3 24.1 C 77.3 24.1 77.3 24.1 77.3 24.1 Z M 73.4 22.9 C 72.6 22.7 73.7 22.6 73.4 22.9 C 73.4 22.9 73.4 22.9 73.4 22.9 Z M 74.8 26.8 C 76.1 26.8 75.0 27.7 74.8 26.8 C 74.8 26.8 74.8 26.8 74.8 26.8 Z M 67.9 27.9 C 69.2 27.9 68.1 28.8 67.9 27.9 C 67.9 27.9 67.9 27.9 67.9 27.9 Z M 23.9 27.5 C 22.7 27.7 27.3 29.0 25.6 27.5 C 25.1 26.3 28.2 26.4 27.4 27.5 C 28.3 27.7 28.3 27.7 28.8 27.1 C 29.0 28.1 31.2 28.5 31.9 28.0 C 32.4 27.3 30.5 27.9 31.7 27.1 C 34.4 26.9 31.5 26.3 32.5 25.2 C 32.7 25.2 32.7 25.7 33.0 25.5 C 33.0 24.5 31.5 23.9 32.2 23.1 C 31.8 23.3 29.8 22.2 30.6 23.1 C 30.9 24.0 28.5 22.0 28.7 23.5 C 28.0 22.8 27.3 23.7 26.7 22.9 C 26.2 22.7 26.2 23.5 26.3 23.7 C 26.4 24.4 25.7 22.1 25.0 23.4 C 24.9 23.0 22.7 23.1 24.3 23.7 C 23.9 23.6 21.4 23.3 22.7 24.6 C 24.4 25.2 20.9 25.9 22.9 26.0 C 24.5 26.1 24.8 25.9 23.6 26.6 C 23.3 26.5 21.5 26.6 23.0 27.2 C 23.4 27.0 24.1 27.2 23.9 27.5 C 23.9 27.5 23.9 27.5 23.9 27.5 Z M 23.6 25.6 C 24.5 25.5 23.6 26.1 23.6 25.6 C 23.6 25.6 23.6 25.6 23.6 25.6 Z M 26.9 22.6 C 27.8 22.5 26.9 23.1 26.9 22.6 C 26.9 22.6 26.9 22.6 26.9 22.6 Z M 26.7 27.9 C 27.2 27.5 27.3 28.9 26.7 27.9 C 26.7 27.9 26.7 27.9 26.7 27.9 Z M 25.3 23.7 C 25.4 23.7 25.2 23.9 25.0 24.0 C 25.0 23.9 25.3 23.7 25.3 23.7 C 25.3 23.7 25.3 23.7 25.3 23.7 Z M 28.3 27.9 C 29.6 27.2 28.5 28.9 28.3 27.9 C 28.3 27.9 28.3 27.9 28.3 27.9 Z M 31.0 26.6 C 31.2 25.2 32.4 26.9 31.0 26.6 C 31.0 26.6 31.0 26.6 31.0 26.6 Z M 29.1 23.6 C 28.9 23.9 28.9 23.4 29.1 23.6 C 29.1 23.6 29.1 23.6 29.1 23.6 Z M 23.2 23.4 C 22.9 23.7 22.9 23.2 23.2 23.4 C 23.2 23.4 23.2 23.4 23.2 23.4 Z M 30.8 23.7 C 30.7 24.2 30.3 23.4 30.8 23.7 C 30.8 23.7 30.8 23.7 30.8 23.7 Z M 27.0 27.3 C 25.7 28.4 25.5 25.7 27.0 27.3 C 27.0 27.3 27.0 27.3 27.0 27.3 Z M 24.8 27.4 C 23.9 27.7 24.9 26.7 25.3 26.9 C 25.3 27.0 24.9 27.4 24.8 27.4 C 24.8 27.4 24.8 27.4 24.8 27.4 Z M 28.3 27.2 C 27.5 27.7 27.5 26.9 28.3 27.2 C 28.3 27.2 28.3 27.2 28.3 27.2 Z M 26.1 27.8 C 25.7 27.7 26.5 27.7 26.1 27.8 C 26.1 27.8 26.1 27.8 26.1 27.8 Z M 30.0 28.3 C 29.6 28.2 30.4 28.2 30.0 28.3 C 30.0 28.3 30.0 28.3 30.0 28.3 Z M 23.7 28.0 C 23.3 27.9 24.1 27.9 23.7 28.0 C 23.7 28.0 23.7 28.0 23.7 28.0 Z M 29.6 27.6 C 29.8 27.1 28.6 26.0 30.7 27.0 C 31.1 27.3 30.2 28.0 29.6 27.6 C 29.6 27.6 29.6 27.6 29.6 27.6 Z M 64.4 26.9 C 69.4 28.5 68.2 25.8 68.4 25.3 C 69.1 24.5 68.4 24.1 67.4 23.6 C 66.4 21.9 65.9 25.3 65.1 23.6 C 63.8 21.4 63.7 25.6 63.1 23.2 C 63.3 22.6 61.4 23.1 61.5 23.3 C 60.6 22.1 59.2 24.1 59.2 24.4 C 58.6 24.0 58.5 21.9 56.5 23.5 C 55.0 24.1 54.3 22.0 54.8 23.4 C 53.6 21.8 54.0 23.9 52.9 23.3 C 52.1 22.4 52.8 24.7 51.4 23.0 C 50.8 24.4 52.1 22.1 48.3 23.1 C 50.1 23.2 46.5 24.2 47.2 23.2 C 48.5 22.3 45.5 23.6 43.7 23.0 C 43.3 23.5 41.2 24.8 41.6 23.4 C 39.8 21.8 39.7 24.4 39.0 23.1 C 38.4 22.5 38.2 23.7 37.8 23.6 C 37.1 22.6 36.6 23.3 34.4 23.0 C 29.5 22.5 33.6 25.5 31.8 25.8 C 31.5 26.3 34.2 29.5 33.1 27.1 C 33.5 27.8 37.4 25.3 35.4 27.9 C 36.9 26.9 35.1 29.0 38.1 27.7 C 34.0 25.9 42.9 27.0 38.9 27.9 C 39.5 28.4 41.2 28.3 40.0 27.9 C 39.5 26.2 42.8 28.7 41.2 26.6 C 43.7 27.2 43.1 25.3 43.8 26.6 C 44.4 28.8 43.7 26.0 45.0 26.7 C 48.0 26.7 45.6 29.2 47.5 27.6 C 50.4 28.7 48.1 26.6 49.1 26.3 C 49.4 24.8 52.1 27.5 49.9 27.7 C 51.1 26.9 50.1 28.4 51.4 27.5 C 50.4 26.0 53.2 29.0 52.8 27.8 C 54.0 27.5 53.4 26.6 53.7 26.6 C 55.5 26.6 55.0 28.0 55.3 26.9 C 55.7 26.4 56.6 28.2 56.8 27.7 C 55.0 27.7 58.3 26.2 58.5 27.0 C 57.4 27.1 59.1 28.9 59.8 27.8 C 58.9 24.6 61.4 28.6 62.3 27.4 C 61.5 25.7 66.3 27.2 64.5 28.0 C 64.6 27.9 64.4 26.9 64.4 26.9 M 57.4 27.5 C 55.8 27.3 59.0 27.1 57.4 27.5 M 57.4 27.9 C 56.8 27.4 58.9 28.4 57.3 28.1 C 57.3 28.1 57.5 28.0 57.4 27.9 M 51.2 28.0 C 51.3 27.5 52.0 28.3 51.2 28.0 M 49.9 26.9 C 48.9 26.5 51.3 26.9 49.9 26.9 M 36.1 27.3 C 37.5 24.7 37.5 28.7 36.1 27.3 M 45.2 27.8 C 46.9 27.5 44.7 28.9 45.2 27.8 M 45.7 27.2 C 46.5 26.7 45.9 27.7 45.7 27.2 M 38.7 27.3 C 38.6 27.2 38.6 27.2 38.7 27.3 C 38.7 27.3 38.7 27.3 38.7 27.3 Z M 34.6 27.2 C 34.6 27.2 34.6 27.2 34.6 27.2 C 34.6 27.2 34.6 27.2 34.6 27.2 Z M 42.7 27.0 C 44.0 27.6 40.6 27.2 42.7 27.0 C 42.7 27.0 42.7 27.0 42.7 27.0 Z M 36.6 23.3 C 36.6 23.3 36.6 23.3 36.6 23.3 C 36.6 23.3 36.6 23.3 36.6 23.3 Z M 58.6 26.3 C 58.6 26.3 58.6 26.3 58.6 26.3 C 58.6 26.3 58.6 26.3 58.6 26.3 Z M 63.2 27.3 C 63.2 26.9 64.1 27.6 63.2 27.3 C 63.2 27.3 63.2 27.3 63.2 27.3 Z M 67.0 24.3 C 67.1 24.3 67.1 24.3 67.0 24.3 C 67.0 24.3 67.0 24.3 67.0 24.3 Z M 60.1 25.0 C 60.2 24.9 60.2 24.9 60.1 25.0 C 60.1 25.0 60.1 25.0 60.1 25.0 Z M 59.5 26.9 C 60.2 28.3 57.7 26.5 59.5 26.9 C 59.5 26.9 59.5 26.9 59.5 26.9 Z M 44.3 23.5 C 44.2 24.1 43.2 23.2 44.3 23.5 C 44.3 23.5 44.3 23.5 44.3 23.5 Z M 49.8 26.4 C 49.6 26.7 49.1 26.2 49.8 26.4 C 49.8 26.4 49.8 26.4 49.8 26.4 Z M 52.3 28.3 C 52.1 28.6 51.7 28.1 52.3 28.3 C 52.3 28.3 52.3 28.3 52.3 28.3 Z M 63.2 27.7 C 63.1 27.8 63.1 27.8 63.2 27.7 C 63.2 27.7 63.2 27.7 63.2 27.7 Z M 61.5 26.6 C 62.6 27.9 59.7 25.9 61.5 26.6 C 61.5 26.6 61.5 26.6 61.5 26.6 Z M 63.5 26.2 C 62.8 25.7 65.0 26.4 63.5 26.2 M 62.3 24.2 C 60.9 24.8 63.6 21.8 62.3 24.2 C 62.3 24.2 62.3 24.2 62.3 24.2 Z M 55.1 23.7 C 55.0 23.6 55.0 23.6 55.1 23.7 C 55.1 23.7 55.1 23.7 55.1 23.7 Z M 55.9 27.5 C 54.6 27.5 56.7 27.2 55.9 27.5 C 55.9 27.5 55.9 27.5 55.9 27.5 Z M 66.7 27.8 C 65.5 27.8 67.5 27.5 66.7 27.8 C 66.7 27.8 66.7 27.8 66.7 27.8 Z M 50.9 25.0 C 48.9 25.2 52.2 24.2 50.9 25.0 C 50.9 25.0 50.9 25.0 50.9 25.0 Z M 43.4 26.5 C 43.3 26.5 43.3 26.5 43.4 26.5 C 43.4 26.5 43.4 26.5 43.4 26.5 Z M 42.0 27.0 C 42.0 27.0 42.0 27.0 42.0 27.0 C 42.0 27.0 42.0 27.0 42.0 27.0 Z M 36.2 25.7 C 36.1 25.6 36.1 25.6 36.2 25.7 C 36.2 25.7 36.2 25.7 36.2 25.7 Z M 40.7 27.7 C 40.7 27.6 40.7 27.6 40.7 27.7 C 40.7 27.7 40.7 27.7 40.7 27.7 Z M 36.7 27.3 C 36.6 27.3 36.6 27.3 36.7 27.3 C 36.7 27.3 36.7 27.3 36.7 27.3 Z M 37.3 28.5 C 37.2 28.4 37.2 28.4 37.3 28.5 C 37.3 28.5 37.3 28.5 37.3 28.5 Z M 46.2 22.7 C 46.2 22.6 46.2 22.6 46.2 22.7 C 46.2 22.7 46.2 22.7 46.2 22.7 Z M 60.9 28.1 C 60.8 28.0 60.8 28.0 60.9 28.1 C 60.9 28.1 60.9 28.1 60.9 28.1 Z M 37.0 26.8 C 37.0 26.8 37.0 26.8 37.0 26.8 C 37.0 26.8 37.0 26.8 37.0 26.8 Z M 46.9 25.8 C 46.8 24.6 47.7 27.3 46.6 25.8 C 46.7 25.8 46.9 25.9 46.9 25.8 M 45.6 23.9 C 45.6 23.9 45.6 23.9 45.6 23.9 C 45.6 23.9 45.6 23.9 45.6 23.9 Z M 50.0 23.2 C 50.1 23.2 50.1 23.2 50.0 23.2 C 50.0 23.2 50.0 23.2 50.0 23.2 Z M 41.4 27.9 C 41.6 28.5 40.3 27.4 41.6 27.9 M 36.1 23.7 C 36.3 24.3 35.0 23.2 36.3 23.7 M 68.2 27.4 C 68.3 26.9 69.0 27.7 68.2 27.4 M 51.0 22.6 C 51.2 22.1 51.9 22.9 51.0 22.6 M 48.9 24.0 C 49.1 24.7 47.8 23.5 49.1 24.0 M 39.2 23.7 C 39.1 23.7 39.1 23.7 39.2 23.7 C 39.2 23.7 39.2 23.7 39.2 23.7 Z M 54.0 27.4 C 53.9 27.4 53.9 27.4 54.0 27.4 C 54.0 27.4 54.0 27.4 54.0 27.4 Z M 48.5 26.1 C 49.3 26.9 47.5 25.5 48.5 26.1 M 55.6 25.9 C 56.6 27.0 53.8 25.5 55.6 25.9 M 33.8 23.4 C 35.0 24.7 32.9 22.7 33.8 23.4 M 39.8 26.7 C 41.0 28.0 38.9 26.0 39.8 26.7 M 52.9 26.9 C 52.9 27.5 51.7 26.5 52.9 26.9 M 65.3 27.5 C 66.5 27.6 63.8 28.0 65.3 27.5 M 42.2 23.7 C 42.1 23.6 42.1 23.6 42.2 23.7 C 42.2 23.7 42.2 23.7 42.2 23.7 Z M 61.6 22.6 C 61.5 22.5 61.5 22.5 61.6 22.6 C 61.6 22.6 61.6 22.6 61.6 22.6 Z M 32.3 27.7 C 32.2 27.6 32.2 27.6 32.3 27.7 C 32.3 27.7 32.3 27.7 32.3 27.7 Z M 40.6 26.1 C 40.5 26.0 40.5 26.0 40.6 26.1 C 40.6 26.1 40.6 26.1 40.6 26.1 Z M 34.6 27.9 C 34.5 27.8 34.5 27.8 34.6 27.9 C 34.6 27.9 34.6 27.9 34.6 27.9 Z M 44.3 25.1 C 44.3 25.0 44.3 25.0 44.3 25.1 C 44.3 25.1 44.3 25.1 44.3 25.1 Z M 45.1 28.4 C 45.1 28.3 45.1 28.3 45.1 28.4 C 45.1 28.4 45.1 28.4 45.1 28.4 Z M 49.2 27.0 C 49.2 26.9 49.2 26.9 49.2 27.0 C 49.2 27.0 49.2 27.0 49.2 27.0 Z M 43.2 28.1 C 40.7 28.3 44.5 27.0 43.2 28.1 C 43.2 28.1 43.2 28.1 43.2 28.1 Z M 47.5 24.8 C 47.5 24.8 47.5 24.8 47.5 24.8 C 47.5 24.8 47.5 24.8 47.5 24.8 Z M 47.8 27.2 C 46.3 28.1 47.0 25.6 47.8 27.2 M 54.7 27.9 C 54.2 28.4 54.5 27.2 54.7 27.9 M 57.4 23.6 C 57.4 23.5 57.4 23.5 57.4 23.6 C 57.4 23.6 57.4 23.6 57.4 23.6 Z M 56.7 23.9 C 56.6 23.9 56.6 23.9 56.7 23.9 C 56.7 23.9 56.7 23.9 56.7 23.9 Z M 56.4 28.1 C 56.3 28.1 56.3 28.1 56.4 28.1 C 56.4 28.1 56.4 28.1 56.4 28.1 Z M 56.6 22.7 C 56.5 22.7 56.5 22.7 56.6 22.7 C 56.6 22.7 56.6 22.7 56.6 22.7 Z M 46.0 28.3 C 46.0 28.3 46.0 28.3 46.0 28.3 C 46.0 28.3 46.0 28.3 46.0 28.3 Z M 33.4 28.3 C 33.4 28.3 33.4 28.3 33.4 28.3 C 33.4 28.3 33.4 28.3 33.4 28.3 Z M 65.0 24.1 C 64.9 24.0 64.9 24.0 65.0 24.1 C 65.0 24.1 65.0 24.1 65.0 24.1 Z M 44.7 27.0 C 44.7 26.9 44.7 26.9 44.7 27.0 C 44.7 27.0 44.7 27.0 44.7 27.0 Z M 59.2 23.8 C 59.2 23.7 59.2 23.7 59.2 23.8 C 59.2 23.8 59.2 23.8 59.2 23.8 Z M 45.5 27.3 C 45.5 27.2 45.5 27.2 45.5 27.3 C 45.5 27.3 45.5 27.3 45.5 27.3 Z M 42.6 23.4 C 42.5 23.4 42.5 23.4 42.6 23.4 C 42.6 23.4 42.6 23.4 42.6 23.4 Z M 39.8 22.7 C 39.8 22.7 39.8 22.7 39.8 22.7 C 39.8 22.7 39.8 22.7 39.8 22.7 Z M 42.8 25.7 C 42.7 25.7 42.7 25.7 42.8 25.7 C 42.8 25.7 42.8 25.7 42.8 25.7 Z M 60.1 25.2 C 65.1 26.3 56.2 25.7 60.1 25.2 M 41.9 25.5 C 45.4 25.7 39.1 26.7 41.9 25.5 C 41.5 25.8 41.9 25.5 41.9 25.5 " fill="#EB5C56"></path><path d="M 23.5 12.2 C 23.6 11.7 25.2 11.1 24.1 12.2 C 24.0 12.2 23.4 12.4 23.5 12.2 Z M 21.1 13.6 C 21.3 13.5 21.4 13.4 21.6 13.5 C 22.1 13.8 20.5 14.0 21.1 13.6 Z M 24.9 12.0 C 24.9 11.9 25.7 11.5 25.6 11.7 C 25.6 11.9 24.9 12.1 24.9 12.0 Z M 19.5 15.8 C 19.4 15.6 20.2 15.2 20.4 15.2 C 21.0 15.2 19.7 16.3 19.5 15.8 Z M 26.1 19.9 C 26.1 20.0 26.1 20.0 26.1 20.1 C 26.1 20.0 26.0 20.0 26.1 19.9 Z M 8.0 22.0 C 8.2 21.9 8.6 21.9 8.6 22.1 C 8.6 22.4 7.6 22.3 8.0 22.0 Z M 26.5 35.7 C 26.5 35.7 26.7 35.3 26.8 35.5 C 27.0 35.6 26.7 35.8 26.5 35.7 Z M 26.8 35.7 C 27.0 35.6 27.1 35.9 26.9 35.9 C 26.7 35.8 26.6 35.7 26.8 35.7 Z M 14.0 32.3 C 13.9 32.3 13.8 32.3 14.0 32.2 C 14.1 32.2 14.2 32.4 14.0 32.3 Z M 14.5 32.3 C 14.7 32.1 14.8 32.6 14.6 32.5 C 14.4 32.4 14.3 32.4 14.5 32.3 Z M 16.3 34.8 C 16.1 34.7 16.1 34.7 16.2 34.7 C 16.3 34.6 16.4 34.8 16.3 34.8 Z M 27.2 29.2 C 27.3 29.3 27.1 29.8 27.0 29.7 C 26.7 29.7 27.0 29.0 27.2 29.2 Z M 27.3 29.8 C 27.5 29.8 27.5 30.1 27.3 30.0 C 27.2 30.0 27.1 29.9 27.3 29.8 Z M 26.9 27.8 C 26.7 27.8 26.7 27.3 26.7 27.2 C 26.8 27.0 26.8 26.8 26.9 26.6 C 27.0 26.5 27.3 27.8 26.9 27.8 Z M 26.7 23.6 C 26.8 23.6 26.8 23.6 26.7 23.8 C 26.6 24.0 26.6 23.6 26.7 23.6 Z M 26.8 26.0 C 26.9 26.0 27.0 26.0 26.9 26.2 C 26.8 26.4 26.7 26.0 26.8 26.0 Z M 14.7 18.0 C 14.5 17.9 15.2 17.7 15.3 17.7 C 15.4 17.7 15.1 17.8 15.3 17.8 C 15.5 17.8 15.4 18.4 14.7 18.0 Z M 19.8 14.5 C 19.9 14.4 20.0 14.5 20.0 14.6 C 20.0 14.7 19.5 14.8 19.8 14.5 Z M 15.9 18.3 C 15.9 18.2 16.0 18.1 16.1 18.2 C 16.1 18.2 16.0 18.3 15.9 18.3 Z M 15.6 18.6 C 15.7 18.5 16.1 18.5 16.1 18.7 C 16.1 19.0 15.1 19.0 15.6 18.6 Z M 13.8 18.2 C 14.0 18.1 14.0 18.1 13.9 18.3 C 13.9 18.4 13.8 18.2 13.8 18.2 Z M 16.7 16.1 C 16.9 16.0 16.9 16.0 16.9 16.1 C 16.8 16.3 16.7 16.1 16.7 16.1 Z M 12.6 19.5 C 12.6 19.5 12.9 19.0 13.2 19.3 C 13.6 19.7 12.6 19.5 12.6 19.5 Z M 10.7 21.2 C 10.9 21.1 10.9 21.3 10.8 21.4 C 10.6 21.4 10.6 21.3 10.7 21.2 Z M 10.4 22.4 C 10.1 22.5 9.8 22.4 10.2 22.2 C 10.6 22.0 10.7 22.4 10.4 22.4 Z M 10.7 22.0 C 10.7 22.1 10.6 22.1 10.5 22.1 C 10.5 22.0 10.6 21.9 10.7 22.0 Z M 12.2 20.4 C 12.3 20.1 12.6 20.2 12.4 20.5 C 12.2 20.7 12.1 20.6 12.2 20.4 Z M 27.1 17.7 C 27.1 17.6 27.3 17.6 27.4 17.7 C 27.5 17.8 27.2 17.9 27.1 17.7 Z M 26.2 26.8 C 26.3 26.7 26.4 26.8 26.3 27.0 C 26.2 27.3 26.1 26.9 26.2 26.8 Z M 25.7 32.6 C 25.9 32.5 25.9 32.6 25.8 32.8 C 25.7 33.0 25.6 32.7 25.7 32.6 Z M 26.2 24.5 C 26.3 24.4 26.7 25.0 26.3 25.4 C 25.9 25.7 25.8 24.7 26.2 24.5 Z M 21.6 18.8 C 21.5 18.7 21.7 18.7 21.7 18.7 C 21.7 19.0 21.7 19.0 21.6 18.8 Z M 25.5 25.8 C 25.4 25.7 25.7 25.7 25.8 25.8 C 25.9 25.9 25.6 26.0 25.5 25.8 Z M 26.1 31.6 C 26.2 31.3 26.5 31.5 26.7 31.6 C 27.1 32.1 26.6 32.4 26.3 32.8 C 26.1 33.0 26.0 31.7 26.1 31.6 Z M 26.3 16.3 C 26.2 16.4 26.2 16.6 26.2 16.7 C 26.3 16.7 26.2 16.8 26.1 16.9 C 26.2 17.5 26.7 17.9 26.9 18.2 C 27.2 19.1 26.1 19.4 26.1 19.9 C 26.0 19.8 26.0 19.6 25.9 19.6 C 25.6 19.3 25.8 21.4 25.8 21.5 C 26.1 23.2 26.3 21.1 26.9 21.1 C 27.2 21.1 26.5 22.3 26.5 22.4 C 26.2 22.9 26.8 23.0 26.6 23.5 C 26.5 23.7 25.2 24.3 25.3 24.5 C 25.5 24.7 25.3 25.3 25.3 25.4 C 25.3 25.8 25.4 26.3 25.9 26.0 C 26.2 25.8 26.5 25.7 26.2 26.2 C 26.0 26.4 25.2 28.5 26.2 28.4 C 26.2 28.4 26.5 27.9 26.5 27.9 C 26.7 28.5 26.4 30.2 26.8 30.6 C 27.7 31.5 26.3 30.3 26.0 30.8 C 25.6 31.6 25.3 32.0 25.5 33.0 C 25.5 33.2 25.5 34.1 26.0 33.7 C 26.4 33.4 26.6 33.6 26.7 33.0 C 27.2 33.7 26.3 34.1 26.5 34.2 C 26.8 34.4 26.9 34.0 26.9 34.5 C 26.8 35.1 27.0 34.8 26.5 34.9 C 26.3 35.0 26.2 35.5 26.2 35.5 C 26.2 35.5 26.1 35.5 26.1 35.5 C 26.1 35.9 27.0 36.7 26.8 36.8 C 26.6 36.9 26.0 36.6 25.8 36.6 C 25.8 36.7 25.8 36.7 25.8 36.8 C 25.9 37.0 26.2 37.4 26.2 37.5 C 26.1 37.6 25.2 37.2 25.5 37.4 C 25.7 37.7 25.4 38.7 25.1 38.8 C 24.9 38.8 23.7 39.1 23.7 39.3 C 23.6 39.5 23.0 39.1 22.9 39.0 C 22.7 39.0 22.5 38.5 22.5 38.4 C 22.5 38.3 22.0 38.1 22.0 38.1 C 22.0 38.1 21.8 38.1 21.4 37.9 C 21.1 37.8 21.0 37.4 20.6 37.0 C 20.3 36.6 19.9 36.8 19.5 36.6 C 19.1 36.4 19.1 35.6 18.8 35.3 C 18.5 35.0 18.2 35.5 17.8 35.3 C 17.3 35.1 17.2 34.8 17.4 34.8 C 17.5 34.8 17.5 34.6 17.4 34.5 C 17.3 34.5 16.8 34.0 16.6 34.0 C 16.4 34.0 17.4 35.2 15.8 34.2 C 15.0 33.6 14.8 32.8 15.0 32.9 C 15.6 33.2 14.8 31.7 14.7 31.9 C 14.5 32.2 13.2 31.3 13.3 31.9 C 13.3 32.1 11.8 31.5 11.7 31.3 C 11.5 31.1 10.8 30.8 10.9 30.3 C 10.9 30.0 9.8 30.1 9.6 30.0 C 9.5 29.9 8.4 29.2 8.3 28.9 C 8.1 28.7 8.6 29.0 8.9 29.2 C 9.1 29.3 9.3 29.7 9.6 29.8 C 9.8 29.9 9.5 29.4 9.2 29.2 C 9.0 29.0 9.0 28.8 8.9 28.6 C 8.7 28.5 8.6 28.4 8.4 28.2 C 8.2 28.2 8.1 28.2 8.1 28.3 C 8.0 28.4 8.1 28.6 8.0 28.6 C 8.0 28.7 7.7 28.7 7.4 28.5 C 7.0 28.3 6.8 28.1 6.4 27.7 C 6.1 27.3 5.9 27.4 5.6 27.2 C 5.2 27.1 5.0 26.9 5.0 26.8 C 5.1 26.7 5.5 26.8 5.6 26.7 C 5.7 26.7 5.4 26.2 5.2 26.1 C 4.5 25.5 5.5 25.2 4.8 24.6 C 4.3 24.3 5.0 24.3 5.4 24.2 C 5.4 24.1 5.4 24.1 5.7 23.8 C 5.6 23.6 6.2 23.5 6.5 23.3 C 6.6 23.1 7.5 22.3 7.1 23.0 C 7.0 23.0 7.0 23.1 6.9 23.1 C 7.0 23.1 7.0 23.1 7.0 23.2 C 7.0 23.2 6.9 23.7 6.9 23.7 C 6.9 23.7 7.0 23.2 7.0 23.2 C 7.2 23.2 7.4 23.3 7.5 23.4 C 7.6 23.3 7.6 23.2 7.6 23.2 C 7.6 23.2 7.6 23.1 7.7 23.1 C 7.7 23.1 7.6 23.1 7.6 23.1 C 7.5 22.9 7.6 22.9 7.7 22.9 C 8.0 22.5 9.0 22.3 9.4 22.2 C 9.0 23.6 10.6 22.6 11.1 22.2 C 11.6 21.7 10.9 20.7 10.6 20.8 C 11.0 20.6 11.2 20.7 11.5 21.0 C 11.4 20.9 12.3 21.3 12.2 21.3 C 13.4 21.2 12.6 20.4 12.8 20.1 C 13.0 19.9 13.3 19.7 13.5 19.5 C 13.7 19.2 13.4 19.2 13.4 19.0 C 13.5 18.4 14.6 18.8 14.9 18.7 C 14.7 18.9 14.5 19.2 14.3 19.4 C 14.5 19.0 15.0 19.4 15.2 19.4 C 15.5 19.3 15.9 19.0 16.1 18.9 C 16.6 18.5 17.1 18.1 17.5 17.7 C 17.3 17.7 16.2 17.6 16.2 17.7 C 16.3 17.5 16.9 17.4 16.5 17.1 C 15.8 16.7 17.3 16.2 17.5 16.1 C 18.2 15.8 18.5 14.7 19.6 15.0 C 19.6 15.0 18.7 15.8 18.8 15.9 C 19.4 16.3 19.9 16.5 20.5 15.9 C 20.6 15.8 21.3 14.8 21.3 14.8 C 21.3 14.8 19.5 14.1 20.6 14.0 C 20.8 14.0 20.6 14.4 20.9 14.4 C 21.3 14.4 21.7 14.0 22.0 13.8 C 22.1 13.8 22.7 13.7 22.7 13.6 C 22.7 13.4 22.6 13.1 22.7 12.9 C 22.8 12.7 23.2 12.7 23.3 12.9 C 23.3 12.9 23.3 12.9 23.3 13.0 C 23.4 12.9 23.5 13.0 23.6 13.1 C 23.6 13.0 23.8 12.9 23.9 13.0 C 24.0 13.0 23.8 13.2 23.6 13.2 C 23.6 13.3 23.7 13.3 23.7 13.4 C 24.0 13.2 24.2 13.0 24.2 13.0 C 24.5 12.4 24.4 12.2 25.4 12.3 C 26.1 12.5 26.6 14.3 26.4 15.5 C 26.5 15.7 26.4 16.0 26.3 16.3 Z M 8.0 27.6 C 8.0 27.7 8.0 27.7 8.1 27.7 C 8.1 27.6 8.2 27.5 8.2 27.4 C 8.0 27.2 8.2 27.6 8.0 27.4 C 7.7 27.2 7.7 27.3 8.0 27.6 Z M 8.2 25.0 C 8.0 25.0 8.0 25.1 8.1 25.2 C 8.1 25.1 8.2 25.1 8.2 25.0 Z M 7.7 23.9 C 7.4 24.2 8.1 24.3 8.6 23.9 C 8.1 23.9 7.8 23.9 7.7 23.9 Z M 8.2 23.0 C 8.2 23.1 8.2 23.2 8.2 23.2 C 8.2 23.4 8.5 23.0 8.5 23.2 C 8.6 23.3 8.3 23.7 8.6 23.6 C 8.6 23.6 8.7 23.6 8.8 23.6 C 8.8 23.5 8.8 23.5 8.8 23.4 C 8.9 23.2 8.4 22.9 8.2 23.0 Z M 9.9 27.8 C 9.7 27.7 9.8 27.9 9.9 27.9 C 10.1 27.9 10.1 27.8 9.9 27.8 Z M 11.2 29.8 C 11.1 29.6 10.9 29.5 11.0 29.8 C 11.1 30.0 11.3 30.0 11.2 29.8 Z M 14.1 26.8 C 13.9 26.9 14.0 26.9 14.1 26.9 C 14.3 27.0 14.2 26.8 14.1 26.8 Z M 14.2 24.7 C 14.3 24.5 14.1 24.3 14.0 24.5 C 14.0 24.6 14.1 24.8 14.2 24.7 Z M 13.9 29.5 C 14.1 29.6 14.1 29.4 13.9 29.4 C 13.8 29.4 13.8 29.5 13.9 29.5 Z M 13.5 26.7 C 13.6 26.9 13.7 26.8 13.8 26.8 C 13.9 26.7 13.8 26.5 13.6 26.4 C 13.4 26.4 13.3 26.4 13.5 26.7 Z M 13.3 24.9 C 13.9 24.6 13.7 24.3 13.2 24.8 C 12.6 25.3 13.0 25.1 13.3 24.9 Z M 12.3 31.3 C 12.3 31.2 12.0 31.1 12.0 31.1 C 12.0 31.1 12.6 31.6 12.3 31.3 Z M 13.5 20.0 C 13.3 20.1 13.3 20.4 13.6 20.2 C 13.9 20.1 13.7 19.9 13.5 20.0 Z M 14.6 20.9 C 14.1 20.6 13.8 20.7 13.7 20.7 C 13.8 20.7 13.9 21.1 13.8 21.2 C 13.5 21.5 12.9 21.4 12.7 21.8 C 12.5 22.3 13.3 21.9 13.4 21.8 C 13.3 21.9 13.3 22.0 13.3 22.1 C 13.5 22.2 13.6 22.2 13.7 22.0 C 13.8 21.8 15.0 21.3 14.6 20.9 Z M 14.5 26.0 C 14.3 25.9 14.1 26.1 14.3 26.3 C 14.4 26.5 14.6 26.6 14.7 26.6 C 14.8 26.5 14.7 26.1 14.5 26.0 Z M 14.7 27.6 C 14.5 27.7 14.6 27.7 14.8 27.8 C 15.1 27.9 14.9 27.5 14.7 27.6 Z M 17.7 34.4 C 17.8 34.3 17.5 34.1 17.5 34.2 C 17.4 34.3 17.5 34.4 17.7 34.4 Z M 17.6 31.7 C 18.0 31.8 17.7 31.4 17.6 31.4 C 17.5 31.4 17.3 31.6 17.6 31.7 Z M 16.0 30.1 C 16.2 30.2 16.0 29.9 15.9 29.9 C 15.8 30.0 15.9 30.1 16.0 30.1 Z M 15.8 29.1 C 16.0 29.2 16.0 28.9 15.7 28.9 C 15.6 28.9 15.7 29.0 15.8 29.1 Z M 16.6 20.4 C 16.6 20.4 16.7 20.8 16.9 20.5 C 17.1 20.2 17.1 20.2 16.6 20.4 Z M 15.9 23.5 C 15.6 23.7 15.4 24.0 15.7 24.8 C 16.0 25.7 16.1 25.3 16.3 24.8 C 16.4 24.3 16.8 25.7 17.0 24.7 C 17.1 24.3 16.1 23.3 15.9 23.5 Z M 17.4 29.0 C 17.1 28.5 16.3 28.6 16.7 28.9 C 17.2 29.3 17.6 29.4 17.4 29.0 Z M 17.4 29.4 C 17.3 29.4 17.3 29.4 17.5 29.5 C 17.7 29.6 17.6 29.4 17.4 29.4 Z M 17.0 16.7 C 16.2 17.4 17.5 17.4 17.5 17.4 C 18.7 17.1 17.8 15.9 17.0 16.7 Z M 25.6 35.0 C 25.6 35.0 25.6 34.9 25.6 34.9 C 25.6 34.9 25.6 34.9 25.6 34.8 C 25.5 34.7 25.3 35.0 25.3 35.0 C 25.4 35.1 25.6 35.1 25.6 35.0 Z M 25.9 29.5 C 25.8 29.7 25.9 29.9 26.0 30.0 C 26.5 29.9 26.5 28.3 25.7 28.9 C 25.5 29.0 24.8 30.1 25.2 30.2 C 25.5 30.2 25.9 28.9 25.9 29.5 Z M 25.2 31.2 C 25.2 30.6 24.5 31.8 24.9 31.6 C 25.1 31.5 25.2 31.4 25.2 31.2 Z M 23.7 36.1 C 24.0 37.0 25.3 36.8 24.6 35.4 C 24.0 34.1 23.4 34.0 23.6 34.7 C 23.8 35.4 23.1 34.8 23.7 36.1 Z M 23.7 28.9 C 24.6 29.1 24.4 28.7 23.7 28.4 C 23.5 28.4 23.1 28.8 23.7 28.9 Z M 23.5 26.9 C 23.6 26.7 23.6 26.7 23.4 26.8 C 23.2 27.0 23.4 27.2 23.5 26.9 Z M 22.3 37.5 C 22.5 37.9 22.9 38.1 22.6 38.1 C 22.4 38.1 22.5 38.2 22.7 38.4 C 22.9 38.6 22.9 38.1 22.9 37.9 C 22.8 37.7 22.2 37.2 22.3 37.5 Z M 19.2 29.9 C 19.3 29.9 19.2 29.7 19.1 29.7 C 19.0 29.7 19.0 29.8 19.2 29.9 Z M 18.2 22.3 C 18.2 22.3 18.2 22.5 18.3 22.3 C 18.5 22.1 18.5 22.1 18.2 22.3 Z M 18.5 16.2 C 18.3 16.4 18.8 16.4 18.7 16.7 C 18.7 16.8 18.5 16.7 18.5 16.6 C 18.5 16.7 18.6 17.4 18.9 16.9 C 19.0 16.7 18.9 15.8 18.5 16.2 Z M 19.4 27.8 C 19.1 27.4 18.9 28.7 18.6 28.5 C 18.4 28.3 18.4 28.4 18.7 28.7 C 18.9 29.0 19.7 28.1 19.4 27.8 Z M 19.6 31.0 C 19.6 30.8 19.0 30.2 19.1 30.6 C 19.3 30.9 19.6 31.1 19.4 31.1 C 19.2 31.2 19.3 31.2 19.4 31.4 C 19.6 31.7 19.6 31.2 19.6 31.0 Z M 19.8 36.4 C 19.8 36.2 19.4 36.1 19.6 36.3 C 19.6 36.5 19.9 36.5 19.8 36.4 Z M 20.2 21.4 C 20.1 21.6 20.1 21.7 20.4 21.5 C 20.6 21.3 20.3 21.2 20.2 21.4 Z M 20.8 35.9 C 20.5 35.5 20.7 36.1 20.4 35.9 C 20.2 35.7 20.2 35.8 20.5 36.1 C 20.7 36.3 21.0 36.2 20.8 35.9 Z M 21.0 16.5 C 21.0 16.6 21.1 16.8 21.2 16.7 C 21.3 16.6 21.1 16.4 21.0 16.5 Z M 21.8 18.5 C 21.7 18.6 21.6 18.6 21.5 18.6 C 20.2 19.5 22.6 18.8 21.8 18.5 Z M 21.6 21.6 C 21.5 21.2 21.3 21.7 21.3 21.7 C 21.5 21.8 21.6 21.8 21.6 21.6 Z M 21.6 25.0 C 21.8 25.1 21.7 24.8 21.6 24.8 C 21.4 24.9 21.5 25.0 21.6 25.0 Z M 22.2 14.0 C 22.0 14.1 22.1 14.2 22.2 14.2 C 22.4 14.2 22.4 14.0 22.2 14.0 Z M 22.4 22.5 C 22.3 22.5 22.2 22.5 22.3 22.6 C 22.3 22.8 22.4 22.6 22.4 22.5 Z M 22.4 32.8 C 22.3 32.8 22.2 32.7 22.2 32.6 C 22.0 32.7 21.9 33.3 21.7 33.3 C 21.7 33.3 21.7 33.3 21.6 33.3 C 21.6 33.3 21.6 33.3 21.6 33.3 C 21.5 33.3 21.4 33.2 21.5 33.2 C 21.4 33.1 21.4 33.0 21.4 32.9 C 21.2 33.1 21.1 33.3 21.2 33.5 C 21.4 33.7 21.8 33.7 22.2 33.7 C 22.3 33.6 22.4 33.4 22.4 33.3 C 22.4 33.3 22.4 33.3 22.3 33.3 C 22.1 33.1 22.0 33.0 22.2 33.0 C 22.3 33.0 22.4 33.0 22.4 33.1 C 22.4 33.0 22.4 32.9 22.4 32.8 Z M 22.8 23.8 C 22.7 23.6 22.6 23.7 22.5 24.1 C 22.5 24.3 23.0 24.1 22.8 23.8 Z M 22.6 14.5 C 22.6 14.6 22.6 14.6 22.7 14.7 C 22.7 14.6 22.7 14.6 22.7 14.5 C 22.8 14.4 22.8 14.2 22.9 14.0 C 22.6 14.0 22.5 14.1 22.6 14.5 Z M 23.5 17.4 C 23.5 17.3 23.6 16.1 23.3 16.3 C 22.9 16.6 22.4 16.1 22.6 17.0 C 22.7 17.4 23.3 17.8 23.4 18.2 C 23.9 20.4 24.0 17.6 24.1 17.1 C 24.1 17.0 23.6 17.6 23.5 17.4 Z M 24.2 20.3 C 24.4 20.4 24.6 20.0 24.6 19.9 C 24.6 19.4 24.0 20.1 24.2 20.3 Z M 24.5 14.2 C 24.5 14.1 24.5 14.1 24.4 14.2 C 24.4 14.2 24.5 14.2 24.5 14.3 C 24.5 14.2 24.5 14.2 24.5 14.2 Z M 24.8 12.6 C 24.1 13.2 25.3 13.1 25.6 13.0 C 26.0 12.8 25.1 12.4 24.8 12.6 Z M 25.2 18.6 C 25.2 19.1 26.5 19.6 26.4 18.8 C 26.4 18.1 25.3 17.7 25.2 18.6 Z M 26.8 23.2 C 26.7 23.0 26.9 22.6 27.1 22.8 C 27.2 23.0 26.9 23.3 26.8 23.2 Z M 27.5 16.4 C 27.5 16.5 27.4 16.4 27.4 16.4 C 27.6 16.3 27.6 16.3 27.5 16.4 Z M 26.6 17.0 C 26.7 16.8 26.8 16.6 26.8 16.4 C 26.9 16.3 27.0 16.7 27.0 16.7 C 27.0 16.9 26.6 17.0 26.6 17.0 Z M 26.5 20.7 C 26.6 20.5 26.7 20.8 26.6 20.9 C 26.6 21.0 26.4 20.8 26.5 20.7 Z M 26.8 19.8 C 26.8 19.9 26.6 19.8 26.6 19.7 C 26.7 19.5 26.8 19.7 26.8 19.8 Z M 26.1 21.3 C 26.0 20.9 25.9 20.4 26.2 20.5 C 26.4 20.5 26.3 22.1 26.1 21.3 Z M 26.1 21.3 " fill="#EB5C56"></path></g></g><g><clipPath id="clip-83"><path d="M 85.7 -3.0 L 630.9 -3.0 L 630.9 58.0 L 85.7 58.0 Z M 85.7 -3.0 "></path></clipPath><g clip-path="url(#clip-83)"><text xml:space="preserve" font-family="Helvetica-Light" font-size="36.0" fill="#000000" transform="matrix(1.00, 0.00, -0.00, -1.00, 95.0, 14.0)">L</text><text xml:space="preserve" font-family="Helvetica-Light" font-size="36.0" fill="#000000" transform="matrix(1.00, 0.00, -0.00, -1.00, 115.0, 14.0)">a</text><text xml:space="preserve" font-family="Helvetica-Light" font-size="36.0" fill="#000000" transform="matrix(1.00, 0.00, -0.00, -1.00, 135.0, 14.0)">m</text><text xml:space="preserve" font-family="Helvetica-Light" font-size="36.0" fill="#000000" transform="matrix(1.00, 0.00, -0.00, -1.00, 165.0, 14.0)">b</text><text xml:space="preserve" font-family="Helvetica-Light" font-size="36.0" fill="#000000" transform="matrix(1.00, 0.00, -0.00, -1.00, 187.0, 14.0)">e</text><text xml:space="preserve" font-family="Helvetica-Light" font-size="36.0" fill="#000000" transform="matrix(1.00, 0.00, -0.00, -1.00, 207.0, 14.0)">k</text><text xml:space="preserve" font-family="Helvetica-Light" font-size="36.0" fill="#000000" transform="matrix(1.00, 0.00, -0.00, -1.00, 225.0, 14.0)"> </text><text xml:space="preserve" font-family="Helvetica-Light" font-size="36.0" fill="#000000" transform="matrix(1.00, 0.00, -0.00, -1.00, 235.0, 14.0)">C</text><text xml:space="preserve" font-family="Helvetica-Light" font-size="36.0" fill="#000000" transform="matrix(1.00, 0.00, -0.00, -1.00, 261.0, 14.0)">a</text><text xml:space="preserve" font-family="Helvetica-Light" font-size="36.0" fill="#000000" transform="matrix(1.00, 0.00, -0.00, -1.00, 281.0, 14.0)">l</text><text xml:space="preserve" font-family="Helvetica-Light" font-size="36.0" fill="#000000" transform="matrix(1.00, 0.00, -0.00, -1.00, 289.0, 14.0)">c</text><text xml:space="preserve" font-family="Helvetica-Light" font-size="36.0" fill="#000000" transform="matrix(1.00, 0.00, -0.00, -1.00, 309.1, 14.0)">u</text><text xml:space="preserve" font-family="Helvetica-Light" font-size="36.0" fill="#000000" transform="matrix(1.00, 0.00, -0.00, -1.00, 329.1, 14.0)">l</text><text xml:space="preserve" font-family="Helvetica-Light" font-size="36.0" fill="#000000" transform="matrix(1.00, 0.00, -0.00, -1.00, 337.1, 14.0)">u</text><text xml:space="preserve" font-family="Helvetica-Light" font-size="36.0" fill="#000000" transform="matrix(1.00, 0.00, -0.00, -1.00, 357.1, 14.0)">s</text><text xml:space="preserve" font-family="Helvetica-Light" font-size="36.0" fill="#000000" transform="matrix(1.00, 0.00, -0.00, -1.00, 375.1, 14.0)"> </text><text xml:space="preserve" font-family="Helvetica-Light" font-size="36.0" fill="#000000" transform="matrix(1.00, 0.00, -0.00, -1.00, 385.1, 14.0)">w</text><text xml:space="preserve" font-family="Helvetica-Light" font-size="36.0" fill="#000000" transform="matrix(1.00, 0.00, -0.00, -1.00, 411.1, 14.0)">i</text><text xml:space="preserve" font-family="Helvetica-Light" font-size="36.0" fill="#000000" transform="matrix(1.00, 0.00, -0.00, -1.00, 419.1, 14.0)">t</text><text xml:space="preserve" font-family="Helvetica-Light" font-size="36.0" fill="#000000" transform="matrix(1.00, 0.00, -0.00, -1.00, 429.1, 14.0)">h</text><text xml:space="preserve" font-family="Helvetica-Light" font-size="36.0" fill="#000000" transform="matrix(1.00, 0.00, -0.00, -1.00, 449.1, 14.0)"> </text><text xml:space="preserve" font-family="Helvetica-Light" font-size="36.0" fill="#000000" transform="matrix(1.00, 0.00, -0.00, -1.00, 459.1, 14.0)">E</text><text xml:space="preserve" font-family="Helvetica-Light" font-size="36.0" fill="#000000" transform="matrix(1.00, 0.00, -0.00, -1.00, 481.1, 14.0)">x</text><text xml:space="preserve" font-family="Helvetica-Light" font-size="36.0" fill="#000000" transform="matrix(1.00, 0.00, -0.00, -1.00, 499.1, 14.0)">c</text><text xml:space="preserve" font-family="Helvetica-Light" font-size="36.0" fill="#000000" transform="matrix(1.00, 0.00, -0.00, -1.00, 519.1, 14.0)">h</text><text xml:space="preserve" font-family="Helvetica-Light" font-size="36.0" fill="#000000" transform="matrix(1.00, 0.00, -0.00, -1.00, 539.1, 14.0)">a</text><text xml:space="preserve" font-family="Helvetica-Light" font-size="36.0" fill="#000000" transform="matrix(1.00, 0.00, -0.00, -1.00, 559.1, 14.0)">n</text><text xml:space="preserve" font-family="Helvetica-Light" font-size="36.0" fill="#000000" transform="matrix(1.00, 0.00, -0.00, -1.00, 579.2, 14.0)">g</text><text xml:space="preserve" font-family="Helvetica-Light" font-size="36.0" fill="#000000" transform="matrix(1.00, 0.00, -0.00, -1.00, 601.2, 14.0)">e</text></g></g></g></svg>