<?xml version="1.0" encoding="UTF-8" standalone="no"?><svg xmlns="http://www.w3.org/2000/svg" xmlns:xlink="http://www.w3.org/1999/xlink" clip-rule="evenodd" stroke-miterlimit="4.00" viewBox="0 0 694 56"><desc>SVG generated by Keynote</desc><defs></defs><g transform="matrix(1.00, 0.00, -0.00, -1.00, 0.0, 56.0)"><g><clipPath id="clip-160"><path d="M 2.0 2.0 L 693.0 2.0 L 693.0 54.0 L 2.0 54.0 Z M 2.0 2.0 "></path></clipPath><g clip-path="url(#clip-160)"><text xml:space="preserve" font-family="Helvetica" font-size="10.0" fill="#000000" transform="matrix(3.63, 0.00, -0.00, -3.61, -1.3, 11.4)">(</text><text xml:space="preserve" font-family="Helvetica" font-size="10.0" fill="#000000" transform="matrix(3.63, 0.00, -0.00, -3.61, 12.7, 11.4)">B</text><text xml:space="preserve" font-family="Helvetica" font-size="7.0" fill="#000000" transform="matrix(3.63, 0.00, -0.00, -3.61, 40.2, 6.0)">1</text><text xml:space="preserve" font-family="Helvetica" font-size="10.0" fill="#000000" transform="matrix(3.63, 0.00, -0.00, -3.61, 64.4, 11.4)">B</text><text xml:space="preserve" font-family="Helvetica" font-size="10.0" fill="#000000" transform="matrix(3.63, 0.00, -0.00, -3.61, 100.6, 11.4)">B</text><text xml:space="preserve" font-family="Helvetica" font-size="7.0" fill="#000000" transform="matrix(3.63, 0.00, -0.00, -3.61, 128.0, 6.0)">2</text><text xml:space="preserve" font-family="Helvetica" font-size="10.0" fill="#000000" transform="matrix(3.63, 0.00, -0.00, -3.61, 144.2, 11.4)">)</text><text xml:space="preserve" font-family="Helvetica" font-size="10.0" fill="#000000" transform="matrix(3.63, 0.00, -0.00, -3.61, 166.3, 11.4)">⌦</text><text xml:space="preserve" font-family="Helvetica" font-size="10.0" fill="#000000" transform="matrix(3.63, 0.00, -0.00, -3.61, 202.5, 11.4)">B</text><text xml:space="preserve" font-family="Helvetica" font-size="7.0" fill="#000000" transform="matrix(3.63, 0.00, -0.00, -3.61, 229.9, 6.0)">3</text><text xml:space="preserve" font-family="Helvetica" font-size="7.0" fill="#000000" transform="matrix(3.63, 0.00, -0.00, -3.61, 281.1, 36.1)">f</text><text xml:space="preserve" font-family="Helvetica" font-size="10.0" fill="#000000" transform="matrix(3.63, 0.00, -0.00, -3.61, 325.0, 20.4)">/</text><text xml:space="preserve" font-family="Helvetica" font-size="10.0" fill="#000000" transform="matrix(3.63, 0.00, -0.00, -3.61, 325.0, 20.4)">/</text><path d="M 0.0 0.0 L 19.5 0.0 " fill="none" stroke="#000000" stroke-width="0.40" stroke-miterlimit="0.00" stroke-linecap="round" stroke-linejoin="round" transform="matrix(3.63, 0.00, 0.00, 3.61, 254.2, 20.4)"></path><text xml:space="preserve" font-family="Helvetica" font-size="10.0" fill="#000000" transform="matrix(3.63, 0.00, -0.00, -3.61, 333.0, 11.4)">(</text><text xml:space="preserve" font-family="Helvetica" font-size="10.0" fill="#000000" transform="matrix(3.63, 0.00, -0.00, -3.61, 347.1, 11.4)">B</text><text xml:space="preserve" font-family="Helvetica" font-size="7.0" fill="#000000" transform="matrix(3.63, 0.00, -0.00, -3.61, 374.5, 6.0)">1</text><text xml:space="preserve" font-family="Helvetica" font-size="10.0" fill="#000000" transform="matrix(3.63, 0.00, -0.00, -3.61, 398.8, 11.4)">⌦</text><text xml:space="preserve" font-family="Helvetica" font-size="10.0" fill="#000000" transform="matrix(3.63, 0.00, -0.00, -3.61, 434.9, 11.4)">B</text><text xml:space="preserve" font-family="Helvetica" font-size="7.0" fill="#000000" transform="matrix(3.63, 0.00, -0.00, -3.61, 462.3, 6.0)">3</text><text xml:space="preserve" font-family="Helvetica" font-size="10.0" fill="#000000" transform="matrix(3.63, 0.00, -0.00, -3.61, 478.6, 11.4)">)</text><text xml:space="preserve" font-family="Helvetica" font-size="10.0" fill="#000000" transform="matrix(3.63, 0.00, -0.00, -3.61, 500.7, 11.4)">B</text><text xml:space="preserve" font-family="Helvetica" font-size="10.0" fill="#000000" transform="matrix(3.63, 0.00, -0.00, -3.61, 536.8, 11.4)">(</text><text xml:space="preserve" font-family="Helvetica" font-size="10.0" fill="#000000" transform="matrix(3.63, 0.00, -0.00, -3.61, 550.9, 11.4)">B</text><text xml:space="preserve" font-family="Helvetica" font-size="7.0" fill="#000000" transform="matrix(3.63, 0.00, -0.00, -3.61, 578.3, 6.0)">2</text><text xml:space="preserve" font-family="Helvetica" font-size="10.0" fill="#000000" transform="matrix(3.63, 0.00, -0.00, -3.61, 602.6, 11.4)">⌦</text><text xml:space="preserve" font-family="Helvetica" font-size="10.0" fill="#000000" transform="matrix(3.63, 0.00, -0.00, -3.61, 638.7, 11.4)">B</text><text xml:space="preserve" font-family="Helvetica" font-size="7.0" fill="#000000" transform="matrix(3.63, 0.00, -0.00, -3.61, 666.1, 6.0)">3</text><text xml:space="preserve" font-family="Helvetica" font-size="10.0" fill="#000000" transform="matrix(3.63, 0.00, -0.00, -3.61, 682.4, 11.4)">)</text></g></g></g></svg>