<?xml version="1.0" encoding="UTF-8" standalone="no"?><svg xmlns="http://www.w3.org/2000/svg" xmlns:xlink="http://www.w3.org/1999/xlink" clip-rule="evenodd" stroke-miterlimit="4.00" viewBox="0 0 249 53"><desc>SVG generated by Keynote</desc><defs></defs><g transform="matrix(1.00, 0.00, -0.00, -1.00, 0.0, 53.0)"><g><clipPath id="clip-14"><path d="M 81.9 7.6 L 0.0 7.6 L 0.0 37.4 L 81.9 37.4 Z M 81.9 7.6 "></path></clipPath><g clip-path="url(#clip-14)"><path d="M 67.5 24.0 C 67.8 23.8 68.5 24.1 68.7 23.9 M 67.5 24.0 C 68.2 25.1 69.5 25.2 71.3 25.4 C 73.2 25.4 71.2 24.4 71.5 23.9 C 73.9 23.5 73.9 24.3 73.6 25.5 C 74.5 24.7 77.4 26.1 76.8 24.6 C 72.8 24.6 79.6 24.2 76.3 23.4 C 75.9 23.2 76.9 22.8 77.2 22.8 C 76.1 22.1 78.0 21.4 76.2 21.0 C 76.0 20.0 76.3 20.5 75.2 19.7 C 74.7 19.6 74.9 19.9 74.9 20.2 C 74.8 21.3 73.6 19.6 72.6 20.2 C 71.8 18.8 70.9 20.5 71.6 21.1 C 70.8 20.9 69.8 19.4 68.9 20.5 C 68.5 19.8 66.2 20.2 67.5 21.1 C 68.5 21.7 67.4 22.1 67.3 22.5 C 67.6 22.8 69.0 22.3 69.2 22.6 C 68.8 22.8 67.0 23.3 68.9 23.3 C 68.3 23.8 69.2 24.1 67.5 24.0 C 67.5 24.0 67.5 24.0 67.5 24.0 Z M 74.3 24.8 C 74.3 25.2 73.6 24.8 74.3 24.8 C 74.3 24.8 74.3 24.8 74.3 24.8 Z M 69.7 19.7 C 69.7 20.1 69.0 19.7 69.7 19.7 C 69.7 19.7 69.7 19.7 69.7 19.7 Z M 74.6 20.1 C 74.6 20.5 74.0 20.1 74.6 20.1 C 74.6 20.1 74.6 20.1 74.6 20.1 Z M 72.5 24.6 C 71.5 24.3 73.4 24.0 73.6 24.4 C 73.3 24.4 72.8 24.9 72.5 24.6 C 72.5 24.6 72.5 24.6 72.5 24.6 Z M 72.4 22.4 C 72.3 22.5 71.8 22.6 71.9 22.2 C 72.2 22.1 72.5 22.2 72.4 22.4 C 72.4 22.4 72.4 22.4 72.4 22.4 Z M 77.7 23.9 C 77.6 24.1 77.1 24.1 77.2 23.7 C 77.5 23.6 77.7 23.8 77.7 23.9 C 77.7 23.9 77.7 23.9 77.7 23.9 Z M 71.3 23.6 C 71.0 23.5 70.9 23.2 71.3 23.1 C 71.4 23.3 72.2 23.3 71.3 23.6 C 71.3 23.6 71.3 23.6 71.3 23.6 Z M 69.6 24.8 C 68.7 24.6 70.5 24.1 70.5 24.3 C 70.8 24.5 70.1 25.1 69.6 24.8 C 69.6 24.8 69.6 24.8 69.6 24.8 Z M 70.8 23.1 C 70.1 22.9 71.1 22.8 70.8 23.1 C 70.8 23.1 70.8 23.1 70.8 23.1 Z M 76.9 21.1 C 76.2 20.9 77.3 20.8 76.9 21.1 C 76.9 21.1 76.9 21.1 76.9 21.1 Z M 73.0 19.9 C 72.3 19.8 73.3 19.7 73.0 19.9 C 73.0 19.9 73.0 19.9 73.0 19.9 Z M 74.5 23.8 C 75.8 23.8 74.7 24.8 74.5 23.8 C 74.5 23.8 74.5 23.8 74.5 23.8 Z M 67.6 24.9 C 68.9 25.0 67.7 25.9 67.6 24.9 C 67.6 24.9 67.6 24.9 67.6 24.9 Z M 23.6 24.6 C 22.4 24.8 27.0 26.0 25.2 24.6 C 24.7 23.3 27.9 23.4 27.0 24.6 C 28.0 24.7 28.0 24.8 28.5 24.2 C 28.6 25.1 30.8 25.6 31.6 25.1 C 32.1 24.3 30.1 25.0 31.4 24.2 C 34.1 23.9 31.2 23.3 32.2 22.3 C 32.3 22.3 32.4 22.8 32.6 22.5 C 32.7 21.5 31.2 20.9 31.9 20.2 C 31.5 20.3 29.5 19.3 30.3 20.1 C 30.6 21.0 28.2 19.0 28.4 20.5 C 27.7 19.8 27.0 20.8 26.4 19.9 C 25.9 19.8 25.9 20.5 26.0 20.7 C 26.0 21.4 25.4 19.2 24.6 20.4 C 24.6 20.1 22.4 20.2 24.0 20.7 C 23.6 20.6 21.0 20.3 22.4 21.6 C 24.1 22.2 20.5 23.0 22.6 23.1 C 24.2 23.2 24.5 22.9 23.3 23.6 C 23.0 23.5 21.1 23.7 22.7 24.3 C 23.0 24.1 23.8 24.2 23.6 24.6 C 23.6 24.6 23.6 24.6 23.6 24.6 Z M 23.2 22.6 C 24.1 22.6 23.3 23.1 23.2 22.6 C 23.2 22.6 23.2 22.6 23.2 22.6 Z M 26.5 19.6 C 27.4 19.6 26.6 20.2 26.5 19.6 C 26.5 19.6 26.5 19.6 26.5 19.6 Z M 26.4 24.9 C 26.9 24.5 27.0 25.9 26.4 24.9 C 26.4 24.9 26.4 24.9 26.4 24.9 Z M 25.0 20.7 C 25.1 20.7 24.9 20.9 24.7 21.0 C 24.7 20.9 24.9 20.8 25.0 20.7 C 25.0 20.7 25.0 20.7 25.0 20.7 Z M 28.0 24.9 C 29.3 24.3 28.2 26.0 28.0 24.9 C 28.0 24.9 28.0 24.9 28.0 24.9 Z M 30.7 23.6 C 30.9 22.2 32.1 23.9 30.7 23.6 C 30.7 23.6 30.7 23.6 30.7 23.6 Z M 28.8 20.6 C 28.6 20.9 28.6 20.4 28.8 20.6 C 28.8 20.6 28.8 20.6 28.8 20.6 Z M 22.9 20.4 C 22.6 20.7 22.6 20.2 22.9 20.4 C 22.9 20.4 22.9 20.4 22.9 20.4 Z M 30.5 20.7 C 30.4 21.2 30.0 20.5 30.5 20.7 C 30.5 20.7 30.5 20.7 30.5 20.7 Z M 26.7 24.4 C 25.4 25.5 25.2 22.8 26.7 24.4 C 26.7 24.4 26.7 24.4 26.7 24.4 Z M 24.4 24.5 C 23.6 24.7 24.6 23.8 25.0 24.0 C 24.9 24.1 24.6 24.4 24.4 24.5 C 24.4 24.5 24.4 24.5 24.4 24.5 Z M 28.0 24.2 C 27.1 24.8 27.2 24.0 28.0 24.2 C 28.0 24.2 28.0 24.2 28.0 24.2 Z M 25.8 24.8 C 25.4 24.7 26.2 24.7 25.8 24.8 C 25.8 24.8 25.8 24.8 25.8 24.8 Z M 29.7 25.4 C 29.3 25.3 30.0 25.2 29.7 25.4 C 29.7 25.4 29.7 25.4 29.7 25.4 Z M 23.4 25.0 C 23.0 24.9 23.7 24.9 23.4 25.0 C 23.4 25.0 23.4 25.0 23.4 25.0 Z M 29.3 24.7 C 29.4 24.2 28.2 23.1 30.4 24.0 C 30.8 24.4 29.9 25.1 29.3 24.7 C 29.3 24.7 29.3 24.7 29.3 24.7 Z M 64.1 24.0 C 69.0 25.5 67.8 22.8 68.1 22.3 C 68.7 21.6 68.1 21.1 67.1 20.6 C 66.1 18.9 65.6 22.4 64.8 20.7 C 63.5 18.4 63.3 22.7 62.8 20.3 C 63.0 19.6 61.1 20.1 61.2 20.3 C 60.3 19.2 58.9 21.2 58.9 21.4 C 58.2 21.1 58.2 19.0 56.2 20.6 C 54.7 21.1 54.0 19.0 54.4 20.5 C 53.3 18.8 53.6 20.9 52.5 20.4 C 51.7 19.5 52.5 21.8 51.1 20.1 C 50.5 21.4 51.8 19.1 48.0 20.1 C 49.8 20.2 46.2 21.2 46.9 20.3 C 48.2 19.3 45.1 20.7 43.4 20.1 C 42.9 20.6 40.9 21.8 41.2 20.5 C 39.4 18.9 39.4 21.4 38.7 20.1 C 38.1 19.6 37.8 20.7 37.4 20.7 C 36.8 19.7 36.2 20.3 34.0 20.1 C 29.2 19.6 33.3 22.6 31.5 22.9 C 31.2 23.3 33.8 26.6 32.8 24.1 C 33.1 24.8 37.1 22.3 35.1 25.0 C 36.6 23.9 34.8 26.1 37.8 24.8 C 33.7 22.9 42.5 24.0 38.5 24.9 C 39.2 25.5 40.9 25.4 39.7 24.9 C 39.2 23.2 42.5 25.7 40.9 23.6 C 43.4 24.2 42.8 22.4 43.5 23.7 C 44.1 25.9 43.3 23.1 44.6 23.7 C 47.6 23.8 45.3 26.3 47.1 24.6 C 50.1 25.7 47.8 23.6 48.8 23.4 C 49.1 21.8 51.8 24.5 49.6 24.7 C 50.7 23.9 49.8 25.5 51.1 24.5 C 50.1 23.1 52.9 26.0 52.4 24.9 C 53.7 24.5 53.0 23.7 53.4 23.6 C 55.2 23.6 54.6 25.0 55.0 24.0 C 55.4 23.4 56.3 25.2 56.5 24.8 C 54.6 24.7 58.0 23.3 58.2 24.0 C 57.1 24.2 58.8 25.9 59.5 24.8 C 58.6 21.7 61.1 25.6 61.9 24.5 C 61.2 22.8 66.0 24.3 64.2 25.1 C 64.3 24.9 64.1 24.0 64.1 24.0 M 57.0 24.5 C 55.5 24.4 58.7 24.2 57.0 24.5 M 57.1 25.0 C 56.4 24.4 58.5 25.4 57.0 25.2 C 57.0 25.2 57.2 25.0 57.1 25.0 M 50.8 25.1 C 51.0 24.6 51.7 25.3 50.8 25.1 M 49.6 24.0 C 48.6 23.5 51.0 23.9 49.6 24.0 M 35.7 24.3 C 37.1 21.8 37.2 25.8 35.7 24.3 M 44.9 24.9 C 46.6 24.5 44.3 25.9 44.9 24.9 M 45.4 24.2 C 46.2 23.8 45.6 24.8 45.4 24.2 M 38.4 24.3 C 38.3 24.3 38.3 24.3 38.4 24.3 C 38.4 24.3 38.4 24.3 38.4 24.3 Z M 34.3 24.3 C 34.2 24.3 34.2 24.3 34.3 24.3 C 34.3 24.3 34.3 24.3 34.3 24.3 Z M 42.4 24.1 C 43.6 24.7 40.3 24.3 42.4 24.1 C 42.4 24.1 42.4 24.1 42.4 24.1 Z M 36.2 20.4 C 36.3 20.3 36.3 20.3 36.2 20.4 C 36.2 20.4 36.2 20.4 36.2 20.4 Z M 58.2 23.4 C 58.3 23.3 58.3 23.3 58.2 23.4 C 58.2 23.4 58.2 23.4 58.2 23.4 Z M 62.9 24.3 C 62.8 24.0 63.8 24.6 62.9 24.3 C 62.9 24.3 62.9 24.3 62.9 24.3 Z M 66.7 21.4 C 66.8 21.4 66.8 21.4 66.7 21.4 C 66.7 21.4 66.7 21.4 66.7 21.4 Z M 59.8 22.0 C 59.9 22.0 59.9 22.0 59.8 22.0 C 59.8 22.0 59.8 22.0 59.8 22.0 Z M 59.1 23.9 C 59.9 25.3 57.4 23.5 59.1 23.9 C 59.1 23.9 59.1 23.9 59.1 23.9 Z M 43.9 20.5 C 43.9 21.1 42.9 20.3 43.9 20.5 C 43.9 20.5 43.9 20.5 43.9 20.5 Z M 49.4 23.4 C 49.2 23.7 48.8 23.3 49.4 23.4 C 49.4 23.4 49.4 23.4 49.4 23.4 Z M 52.0 25.3 C 51.8 25.7 51.3 25.2 52.0 25.3 C 52.0 25.3 52.0 25.3 52.0 25.3 Z M 62.8 24.7 C 62.7 24.8 62.7 24.8 62.8 24.7 C 62.8 24.7 62.8 24.7 62.8 24.7 Z M 61.2 23.7 C 62.3 25.0 59.4 22.9 61.2 23.7 C 61.2 23.7 61.2 23.7 61.2 23.7 Z M 63.1 23.3 C 62.5 22.8 64.7 23.5 63.1 23.3 M 62.0 21.2 C 60.6 21.8 63.3 18.9 62.0 21.2 C 62.0 21.2 62.0 21.2 62.0 21.2 Z M 54.8 20.7 C 54.7 20.7 54.7 20.7 54.8 20.7 C 54.8 20.7 54.8 20.7 54.8 20.7 Z M 55.6 24.6 C 54.3 24.5 56.4 24.3 55.6 24.6 C 55.6 24.6 55.6 24.6 55.6 24.6 Z M 66.4 24.9 C 65.2 24.8 67.2 24.6 66.4 24.9 C 66.4 24.9 66.4 24.9 66.4 24.9 Z M 50.6 22.0 C 48.6 22.2 51.9 21.3 50.6 22.0 C 50.6 22.0 50.6 22.0 50.6 22.0 Z M 43.1 23.5 C 43.0 23.5 43.0 23.5 43.1 23.5 C 43.1 23.5 43.1 23.5 43.1 23.5 Z M 41.7 24.1 C 41.6 24.1 41.6 24.1 41.7 24.1 C 41.7 24.1 41.7 24.1 41.7 24.1 Z M 35.9 22.7 C 35.8 22.7 35.8 22.7 35.9 22.7 C 35.9 22.7 35.9 22.7 35.9 22.7 Z M 40.4 24.7 C 40.4 24.7 40.4 24.7 40.4 24.7 C 40.4 24.7 40.4 24.7 40.4 24.7 Z M 36.4 24.4 C 36.3 24.3 36.3 24.3 36.4 24.4 C 36.4 24.4 36.4 24.4 36.4 24.4 Z M 36.9 25.5 C 36.9 25.5 36.9 25.5 36.9 25.5 C 36.9 25.5 36.9 25.5 36.9 25.5 Z M 45.9 19.7 C 45.8 19.7 45.8 19.7 45.9 19.7 C 45.9 19.7 45.9 19.7 45.9 19.7 Z M 60.6 25.2 C 60.5 25.0 60.5 25.0 60.6 25.2 C 60.6 25.2 60.6 25.2 60.6 25.2 Z M 36.7 23.9 C 36.7 23.8 36.7 23.8 36.7 23.9 C 36.7 23.9 36.7 23.9 36.7 23.9 Z M 46.6 22.8 C 46.5 21.7 47.4 24.3 46.3 22.9 C 46.4 22.8 46.6 23.0 46.6 22.8 M 45.2 20.9 C 45.3 20.9 45.3 20.9 45.2 20.9 C 45.2 20.9 45.2 20.9 45.2 20.9 Z M 49.7 20.2 C 49.8 20.2 49.8 20.2 49.7 20.2 C 49.7 20.2 49.7 20.2 49.7 20.2 Z M 41.1 24.9 C 41.3 25.6 40.0 24.5 41.3 24.9 M 35.8 20.7 C 36.0 21.4 34.7 20.3 36.0 20.7 M 67.8 24.5 C 68.0 24.0 68.7 24.7 67.8 24.5 M 50.7 19.6 C 50.9 19.2 51.5 19.9 50.7 19.6 M 48.6 21.1 C 48.8 21.7 47.5 20.6 48.8 21.1 M 38.9 20.8 C 38.8 20.8 38.8 20.8 38.9 20.8 C 38.9 20.8 38.9 20.8 38.9 20.8 Z M 53.6 24.5 C 53.6 24.4 53.6 24.4 53.6 24.5 C 53.6 24.5 53.6 24.5 53.6 24.5 Z M 48.2 23.1 C 48.9 24.0 47.2 22.6 48.2 23.1 M 55.2 22.9 C 56.3 24.0 53.5 22.6 55.2 22.9 M 33.5 20.5 C 34.7 21.8 32.6 19.8 33.5 20.5 M 39.5 23.7 C 40.7 25.0 38.6 23.0 39.5 23.7 M 52.5 23.9 C 52.6 24.6 51.3 23.5 52.5 23.9 M 65.0 24.6 C 66.1 24.7 63.5 25.1 65.0 24.6 M 41.8 20.7 C 41.8 20.7 41.8 20.7 41.8 20.7 C 41.8 20.7 41.8 20.7 41.8 20.7 Z M 61.2 19.6 C 61.2 19.6 61.2 19.6 61.2 19.6 C 61.2 19.6 61.2 19.6 61.2 19.6 Z M 31.9 24.7 C 31.9 24.7 31.9 24.7 31.9 24.7 C 31.9 24.7 31.9 24.7 31.9 24.7 Z M 40.2 23.1 C 40.2 23.0 40.2 23.0 40.2 23.1 C 40.2 23.1 40.2 23.1 40.2 23.1 Z M 34.3 24.9 C 34.2 24.8 34.2 24.8 34.3 24.9 C 34.3 24.9 34.3 24.9 34.3 24.9 Z M 44.0 22.1 C 44.0 22.1 44.0 22.1 44.0 22.1 C 44.0 22.1 44.0 22.1 44.0 22.1 Z M 44.8 25.4 C 44.7 25.4 44.7 25.4 44.8 25.4 C 44.8 25.4 44.8 25.4 44.8 25.4 Z M 48.9 24.0 C 48.9 24.0 48.9 24.0 48.9 24.0 C 48.9 24.0 48.9 24.0 48.9 24.0 Z M 42.9 25.2 C 40.4 25.4 44.1 24.1 42.9 25.2 C 42.9 25.2 42.9 25.2 42.9 25.2 Z M 47.1 21.9 C 47.1 21.8 47.1 21.8 47.1 21.9 C 47.1 21.9 47.1 21.9 47.1 21.9 Z M 47.5 24.2 C 45.9 25.1 46.7 22.6 47.5 24.2 M 54.4 25.0 C 53.9 25.5 54.1 24.2 54.4 25.0 M 57.1 20.7 C 57.1 20.6 57.1 20.6 57.1 20.7 C 57.1 20.7 57.1 20.7 57.1 20.7 Z M 56.4 21.0 C 56.3 20.9 56.3 20.9 56.4 21.0 C 56.4 21.0 56.4 21.0 56.4 21.0 Z M 56.0 25.2 C 56.0 25.2 56.0 25.2 56.0 25.2 C 56.0 25.2 56.0 25.2 56.0 25.2 Z M 56.3 19.7 C 56.2 19.7 56.2 19.7 56.3 19.7 C 56.3 19.7 56.3 19.7 56.3 19.7 Z M 45.7 25.3 C 45.7 25.3 45.7 25.3 45.7 25.3 C 45.7 25.3 45.7 25.3 45.7 25.3 Z M 33.1 25.4 C 33.0 25.4 33.0 25.4 33.1 25.4 C 33.1 25.4 33.1 25.4 33.1 25.4 Z M 64.6 21.1 C 64.6 21.1 64.6 21.1 64.6 21.1 C 64.6 21.1 64.6 21.1 64.6 21.1 Z M 44.4 24.0 C 44.4 24.0 44.4 24.0 44.4 24.0 C 44.4 24.0 44.4 24.0 44.4 24.0 Z M 58.9 20.8 C 58.9 20.8 58.9 20.8 58.9 20.8 C 58.9 20.8 58.9 20.8 58.9 20.8 Z M 45.2 24.3 C 45.2 24.3 45.2 24.3 45.2 24.3 C 45.2 24.3 45.2 24.3 45.2 24.3 Z M 42.2 20.5 C 42.2 20.5 42.2 20.5 42.2 20.5 C 42.2 20.5 42.2 20.5 42.2 20.5 Z M 39.5 19.7 C 39.5 19.7 39.5 19.7 39.5 19.7 C 39.5 19.7 39.5 19.7 39.5 19.7 Z M 42.4 22.8 C 42.4 22.7 42.4 22.7 42.4 22.8 C 42.4 22.8 42.4 22.8 42.4 22.8 Z M 59.8 22.3 C 64.8 23.4 55.8 22.8 59.8 22.3 M 41.6 22.5 C 45.1 22.8 38.8 23.8 41.6 22.5 C 41.2 22.8 41.5 22.5 41.6 22.5 " fill="#EB5C56"></path><path d="M 23.2 9.3 C 23.3 8.7 24.8 8.2 23.8 9.2 C 23.7 9.3 23.1 9.5 23.2 9.3 Z M 20.8 10.7 C 20.9 10.5 21.1 10.5 21.3 10.5 C 21.8 10.8 20.1 11.0 20.8 10.7 Z M 24.6 9.1 C 24.6 9.0 25.4 8.5 25.3 8.7 C 25.2 9.0 24.5 9.1 24.6 9.1 Z M 19.2 12.9 C 19.1 12.7 19.9 12.2 20.1 12.2 C 20.6 12.3 19.4 13.3 19.2 12.9 Z M 25.7 16.9 C 25.7 17.0 25.7 17.1 25.8 17.1 C 25.7 17.1 25.7 17.0 25.7 16.9 Z M 7.7 19.0 C 7.8 18.9 8.3 18.9 8.3 19.1 C 8.3 19.4 7.3 19.4 7.7 19.0 Z M 26.2 32.7 C 26.2 32.7 26.4 32.4 26.5 32.5 C 26.6 32.7 26.4 32.8 26.2 32.7 Z M 26.5 32.7 C 26.7 32.6 26.8 33.0 26.6 32.9 C 26.4 32.9 26.3 32.8 26.5 32.7 Z M 13.7 29.4 C 13.6 29.3 13.5 29.3 13.6 29.3 C 13.7 29.2 13.9 29.4 13.7 29.4 Z M 14.2 29.3 C 14.4 29.2 14.5 29.6 14.3 29.6 C 14.0 29.5 13.9 29.4 14.2 29.3 Z M 15.9 31.8 C 15.8 31.8 15.7 31.8 15.9 31.7 C 16.0 31.7 16.1 31.9 15.9 31.8 Z M 26.9 26.2 C 26.9 26.3 26.8 26.8 26.6 26.8 C 26.4 26.7 26.7 26.0 26.9 26.2 Z M 27.0 26.9 C 27.2 26.8 27.2 27.2 27.0 27.1 C 26.9 27.0 26.8 26.9 27.0 26.9 Z M 26.6 24.9 C 26.3 24.9 26.3 24.3 26.4 24.2 C 26.5 24.0 26.5 23.8 26.6 23.6 C 26.7 23.6 26.9 24.9 26.6 24.9 Z M 26.3 20.6 C 26.4 20.6 26.5 20.7 26.4 20.9 C 26.3 21.1 26.2 20.6 26.3 20.6 Z M 26.5 23.0 C 26.6 23.0 26.7 23.1 26.6 23.3 C 26.5 23.5 26.4 23.0 26.5 23.0 Z M 14.4 15.1 C 14.2 15.0 14.9 14.7 15.0 14.7 C 15.0 14.7 14.8 14.9 15.0 14.9 C 15.2 14.8 15.1 15.5 14.4 15.1 Z M 19.5 11.5 C 19.6 11.5 19.7 11.5 19.7 11.7 C 19.7 11.7 19.2 11.8 19.5 11.5 Z M 15.6 15.3 C 15.5 15.2 15.7 15.2 15.7 15.2 C 15.8 15.3 15.6 15.4 15.6 15.3 Z M 15.2 15.7 C 15.4 15.6 15.8 15.6 15.8 15.8 C 15.8 16.1 14.8 16.0 15.2 15.7 Z M 13.5 15.3 C 13.7 15.2 13.7 15.2 13.6 15.3 C 13.6 15.4 13.5 15.3 13.5 15.3 Z M 16.4 13.2 C 16.6 13.1 16.6 13.1 16.5 13.2 C 16.5 13.3 16.4 13.2 16.4 13.2 Z M 12.3 16.5 C 12.3 16.5 12.5 16.0 12.9 16.3 C 13.3 16.7 12.3 16.5 12.3 16.5 Z M 10.4 18.3 C 10.6 18.2 10.6 18.4 10.4 18.4 C 10.2 18.4 10.3 18.3 10.4 18.3 Z M 10.1 19.4 C 9.7 19.5 9.5 19.4 9.9 19.3 C 10.3 19.1 10.4 19.4 10.1 19.4 Z M 10.4 19.0 C 10.4 19.1 10.3 19.2 10.2 19.1 C 10.2 19.0 10.3 19.0 10.4 19.0 Z M 11.9 17.4 C 12.0 17.2 12.3 17.3 12.1 17.5 C 11.8 17.8 11.8 17.7 11.9 17.4 Z M 26.8 14.7 C 26.8 14.6 27.0 14.6 27.1 14.7 C 27.2 14.8 26.9 14.9 26.8 14.7 Z M 25.9 23.9 C 26.0 23.7 26.0 23.8 26.0 24.1 C 25.9 24.3 25.7 24.0 25.9 23.9 Z M 25.4 29.6 C 25.5 29.5 25.6 29.6 25.5 29.9 C 25.4 30.1 25.3 29.8 25.4 29.6 Z M 25.9 21.5 C 26.0 21.5 26.4 22.1 26.0 22.4 C 25.6 22.8 25.5 21.7 25.9 21.5 Z M 21.3 15.9 C 21.2 15.7 21.4 15.8 21.4 15.8 C 21.3 16.0 21.3 16.0 21.3 15.9 Z M 25.2 22.8 C 25.1 22.7 25.4 22.7 25.5 22.8 C 25.6 22.9 25.3 23.0 25.2 22.8 Z M 25.7 28.6 C 25.9 28.4 26.2 28.5 26.3 28.7 C 26.7 29.1 26.3 29.5 26.0 29.8 C 25.8 30.1 25.7 28.7 25.7 28.6 Z M 25.9 13.4 C 25.9 13.5 25.8 13.6 25.8 13.7 C 25.9 13.8 25.9 13.9 25.8 14.0 C 25.9 14.6 26.4 14.9 26.5 15.3 C 26.9 16.1 25.8 16.4 25.7 16.9 C 25.7 16.8 25.7 16.7 25.6 16.6 C 25.3 16.4 25.4 18.4 25.5 18.5 C 25.7 20.3 26.0 18.2 26.6 18.2 C 26.9 18.2 26.2 19.3 26.2 19.4 C 25.9 20.0 26.5 20.1 26.2 20.5 C 26.1 20.7 24.8 21.4 25.0 21.6 C 25.2 21.8 25.0 22.3 25.0 22.5 C 25.0 22.8 25.1 23.4 25.5 23.1 C 25.9 22.8 26.2 22.8 25.9 23.2 C 25.7 23.5 24.9 25.5 25.8 25.4 C 25.9 25.4 26.2 25.0 26.2 25.0 C 26.4 25.5 26.1 27.2 26.5 27.6 C 27.4 28.5 26.0 27.4 25.7 27.8 C 25.3 28.6 25.0 29.0 25.1 30.0 C 25.2 30.2 25.2 31.2 25.7 30.7 C 26.1 30.4 26.3 30.6 26.4 30.1 C 26.9 30.7 26.0 31.1 26.2 31.3 C 26.4 31.5 26.6 31.1 26.6 31.5 C 26.5 32.1 26.6 31.9 26.1 32.0 C 26.0 32.0 25.9 32.5 25.9 32.5 C 25.8 32.5 25.8 32.5 25.7 32.5 C 25.8 33.0 26.7 33.7 26.5 33.8 C 26.3 34.0 25.7 33.7 25.5 33.7 C 25.5 33.7 25.5 33.8 25.5 33.8 C 25.5 34.0 25.9 34.5 25.8 34.6 C 25.7 34.6 24.9 34.3 25.1 34.5 C 25.4 34.7 25.1 35.8 24.8 35.8 C 24.6 35.9 23.4 36.1 23.3 36.3 C 23.3 36.5 22.7 36.1 22.5 36.1 C 22.4 36.0 22.2 35.5 22.2 35.4 C 22.1 35.3 21.7 35.2 21.7 35.2 C 21.7 35.2 21.4 35.2 21.1 35.0 C 20.8 34.8 20.6 34.4 20.3 34.1 C 19.9 33.7 19.6 33.8 19.2 33.7 C 18.8 33.5 18.8 32.6 18.5 32.4 C 18.2 32.1 17.9 32.6 17.5 32.4 C 17.0 32.1 16.9 31.9 17.0 31.9 C 17.2 31.9 17.2 31.7 17.0 31.6 C 16.9 31.5 16.5 31.1 16.3 31.0 C 16.0 31.0 17.1 32.2 15.5 31.2 C 14.7 30.7 14.5 29.8 14.7 29.9 C 15.3 30.3 14.5 28.7 14.4 29.0 C 14.2 29.2 12.9 28.4 12.9 29.0 C 13.0 29.2 11.5 28.5 11.3 28.3 C 11.2 28.1 10.5 27.9 10.6 27.3 C 10.6 27.1 9.5 27.2 9.3 27.1 C 9.1 27.0 8.1 26.2 8.0 26.0 C 7.8 25.8 8.3 26.0 8.6 26.2 C 8.8 26.4 9.0 26.8 9.2 26.8 C 9.5 26.9 9.2 26.5 8.9 26.3 C 8.7 26.1 8.7 25.8 8.5 25.6 C 8.4 25.6 8.2 25.5 8.0 25.3 C 7.9 25.3 7.8 25.2 7.8 25.3 C 7.7 25.5 7.8 25.6 7.7 25.7 C 7.6 25.7 7.4 25.7 7.1 25.5 C 6.7 25.3 6.5 25.1 6.1 24.7 C 5.7 24.3 5.6 24.4 5.2 24.3 C 4.9 24.1 4.7 23.9 4.7 23.8 C 4.7 23.7 5.2 23.9 5.3 23.8 C 5.3 23.7 5.1 23.2 4.9 23.1 C 4.1 22.6 5.2 22.2 4.4 21.7 C 4.0 21.3 4.7 21.4 5.1 21.3 C 5.0 21.2 5.0 21.1 5.4 20.8 C 5.3 20.7 5.9 20.5 6.1 20.3 C 6.3 20.2 7.2 19.4 6.7 20.0 C 6.7 20.1 6.7 20.1 6.6 20.2 C 6.6 20.2 6.6 20.2 6.7 20.2 C 6.7 20.2 6.6 20.8 6.6 20.8 C 6.6 20.8 6.7 20.2 6.7 20.2 C 6.9 20.3 7.1 20.4 7.2 20.4 C 7.3 20.4 7.3 20.3 7.3 20.2 C 7.3 20.2 7.3 20.2 7.3 20.2 C 7.3 20.2 7.3 20.2 7.3 20.1 C 7.2 20.0 7.3 20.0 7.4 19.9 C 7.7 19.5 8.7 19.3 9.1 19.2 C 8.7 20.7 10.3 19.7 10.8 19.2 C 11.2 18.8 10.6 17.7 10.3 17.9 C 10.7 17.6 10.9 17.8 11.2 18.0 C 11.1 18.0 12.0 18.4 11.9 18.4 C 13.0 18.2 12.3 17.4 12.5 17.2 C 12.6 16.9 12.9 16.7 13.2 16.5 C 13.4 16.3 13.0 16.2 13.1 16.0 C 13.1 15.4 14.3 15.9 14.5 15.8 C 14.4 16.0 14.1 16.2 14.0 16.5 C 14.2 16.0 14.7 16.5 14.9 16.4 C 15.2 16.4 15.5 16.1 15.8 15.9 C 16.3 15.6 16.8 15.2 17.2 14.8 C 17.0 14.8 15.9 14.7 15.8 14.7 C 16.0 14.6 16.6 14.4 16.2 14.2 C 15.5 13.7 17.0 13.3 17.2 13.2 C 17.9 12.8 18.2 11.7 19.3 12.1 C 19.3 12.1 18.4 12.9 18.5 12.9 C 19.1 13.4 19.5 13.5 20.2 13.0 C 20.3 12.9 21.0 11.8 20.9 11.8 C 21.0 11.9 19.2 11.1 20.3 11.0 C 20.5 11.0 20.3 11.5 20.6 11.4 C 21.0 11.4 21.3 11.0 21.7 10.9 C 21.7 10.9 22.4 10.7 22.4 10.7 C 22.4 10.4 22.3 10.1 22.4 9.9 C 22.5 9.7 22.9 9.7 23.0 9.9 C 23.0 9.9 23.0 10.0 23.0 10.0 C 23.1 10.0 23.2 10.0 23.2 10.1 C 23.3 10.1 23.4 10.0 23.6 10.0 C 23.7 10.1 23.5 10.2 23.3 10.2 C 23.3 10.3 23.3 10.4 23.4 10.5 C 23.6 10.3 23.9 10.1 23.9 10.0 C 24.2 9.4 24.0 9.3 25.0 9.4 C 25.8 9.5 26.3 11.4 26.1 12.5 C 26.1 12.7 26.1 13.0 25.9 13.4 Z M 7.7 24.7 C 7.7 24.7 7.7 24.7 7.7 24.7 C 7.8 24.6 7.9 24.5 7.9 24.4 C 7.7 24.2 7.9 24.7 7.6 24.5 C 7.4 24.3 7.4 24.4 7.7 24.7 Z M 7.9 22.1 C 7.6 22.0 7.7 22.1 7.8 22.3 C 7.8 22.2 7.8 22.1 7.9 22.1 Z M 7.3 21.0 C 7.1 21.3 7.8 21.4 8.3 21.0 C 7.8 20.9 7.5 20.9 7.3 21.0 Z M 7.8 20.1 C 7.9 20.1 7.9 20.2 7.9 20.3 C 7.9 20.4 8.2 20.1 8.2 20.2 C 8.2 20.4 8.0 20.7 8.2 20.7 C 8.3 20.6 8.4 20.6 8.5 20.6 C 8.5 20.6 8.5 20.5 8.5 20.5 C 8.6 20.2 8.1 20.0 7.8 20.1 Z M 9.6 24.8 C 9.4 24.8 9.5 24.9 9.6 24.9 C 9.8 25.0 9.8 24.8 9.6 24.8 Z M 10.9 26.9 C 10.8 26.7 10.6 26.6 10.7 26.8 C 10.7 27.1 11.0 27.1 10.9 26.9 Z M 13.7 23.9 C 13.6 23.9 13.7 23.9 13.8 24.0 C 14.0 24.0 13.9 23.8 13.7 23.9 Z M 13.9 21.7 C 14.0 21.6 13.8 21.4 13.7 21.5 C 13.7 21.7 13.8 21.9 13.9 21.7 Z M 13.6 26.6 C 13.8 26.6 13.8 26.5 13.6 26.5 C 13.4 26.5 13.5 26.6 13.6 26.6 Z M 13.2 23.7 C 13.3 23.9 13.4 23.9 13.5 23.8 C 13.5 23.8 13.5 23.6 13.3 23.5 C 13.1 23.4 13.0 23.5 13.2 23.7 Z M 13.0 21.9 C 13.5 21.6 13.4 21.4 12.8 21.9 C 12.3 22.3 12.7 22.1 13.0 21.9 Z M 12.0 28.3 C 12.0 28.2 11.6 28.1 11.6 28.1 C 11.6 28.1 12.3 28.7 12.0 28.3 Z M 13.2 17.1 C 13.0 17.2 13.0 17.4 13.3 17.3 C 13.6 17.2 13.4 17.0 13.2 17.1 Z M 14.2 17.9 C 13.8 17.6 13.4 17.7 13.4 17.7 C 13.5 17.8 13.5 18.1 13.5 18.3 C 13.2 18.6 12.6 18.4 12.4 18.9 C 12.2 19.4 13.0 19.0 13.1 18.9 C 13.0 19.0 13.0 19.1 13.0 19.2 C 13.2 19.3 13.3 19.2 13.4 19.1 C 13.4 18.9 14.7 18.3 14.2 17.9 Z M 14.2 23.1 C 14.0 22.9 13.8 23.1 13.9 23.3 C 14.1 23.5 14.3 23.7 14.4 23.6 C 14.4 23.6 14.4 23.1 14.2 23.1 Z M 14.4 24.6 C 14.2 24.7 14.2 24.8 14.4 24.8 C 14.8 25.0 14.6 24.6 14.4 24.6 Z M 17.3 31.4 C 17.5 31.4 17.2 31.2 17.2 31.3 C 17.1 31.4 17.2 31.4 17.3 31.4 Z M 17.2 28.7 C 17.7 28.8 17.3 28.4 17.2 28.4 C 17.1 28.4 17.0 28.7 17.2 28.7 Z M 15.7 27.2 C 15.9 27.2 15.7 27.0 15.6 27.0 C 15.4 27.0 15.6 27.1 15.7 27.2 Z M 15.5 26.1 C 15.7 26.2 15.6 25.9 15.4 25.9 C 15.3 25.9 15.3 26.1 15.5 26.1 Z M 16.3 17.5 C 16.3 17.5 16.4 17.9 16.6 17.6 C 16.7 17.2 16.8 17.2 16.3 17.5 Z M 15.6 20.6 C 15.3 20.8 15.1 21.0 15.4 21.9 C 15.6 22.7 15.8 22.4 16.0 21.9 C 16.1 21.3 16.5 22.8 16.7 21.8 C 16.8 21.3 15.8 20.4 15.6 20.6 Z M 17.1 26.1 C 16.8 25.5 16.0 25.7 16.4 26.0 C 16.9 26.4 17.3 26.5 17.1 26.1 Z M 17.1 26.4 C 17.0 26.4 17.0 26.5 17.2 26.6 C 17.3 26.6 17.3 26.4 17.1 26.4 Z M 16.7 13.7 C 15.9 14.5 17.2 14.5 17.2 14.5 C 18.3 14.1 17.5 13.0 16.7 13.7 Z M 25.3 32.0 C 25.3 32.0 25.3 32.0 25.3 31.9 C 25.3 31.9 25.3 31.9 25.3 31.9 C 25.2 31.7 25.0 32.1 25.0 32.1 C 25.1 32.2 25.2 32.1 25.3 32.0 Z M 25.6 26.5 C 25.5 26.8 25.6 26.9 25.7 27.1 C 26.2 27.0 26.2 25.3 25.3 26.0 C 25.2 26.1 24.5 27.1 24.9 27.2 C 25.1 27.3 25.6 26.0 25.6 26.5 Z M 24.9 28.3 C 24.9 27.6 24.2 28.8 24.5 28.7 C 24.7 28.6 24.8 28.5 24.9 28.3 Z M 23.3 33.1 C 23.7 34.0 25.0 33.9 24.3 32.5 C 23.6 31.1 23.1 31.0 23.3 31.7 C 23.5 32.4 22.8 31.9 23.3 33.1 Z M 23.4 26.0 C 24.3 26.2 24.0 25.7 23.3 25.5 C 23.2 25.4 22.8 25.9 23.4 26.0 Z M 23.2 24.0 C 23.3 23.7 23.3 23.8 23.1 23.9 C 22.9 24.1 23.1 24.3 23.2 24.0 Z M 22.0 34.6 C 22.2 34.9 22.5 35.1 22.3 35.1 C 22.1 35.2 22.2 35.2 22.4 35.4 C 22.6 35.7 22.6 35.2 22.5 35.0 C 22.5 34.8 21.9 34.2 22.0 34.6 Z M 18.9 26.9 C 19.0 27.0 18.9 26.8 18.8 26.8 C 18.7 26.7 18.7 26.8 18.9 26.9 Z M 17.8 19.3 C 17.8 19.3 17.9 19.6 18.0 19.4 C 18.1 19.2 18.1 19.2 17.8 19.3 Z M 18.2 13.3 C 18.0 13.4 18.4 13.5 18.4 13.8 C 18.4 13.9 18.2 13.7 18.1 13.7 C 18.2 13.7 18.3 14.5 18.6 14.0 C 18.7 13.8 18.6 12.9 18.2 13.3 Z M 19.1 24.8 C 18.8 24.5 18.6 25.8 18.3 25.6 C 18.1 25.3 18.0 25.5 18.3 25.8 C 18.6 26.0 19.4 25.2 19.1 24.8 Z M 19.3 28.0 C 19.3 27.8 18.6 27.3 18.8 27.6 C 18.9 28.0 19.3 28.2 19.1 28.2 C 18.9 28.2 19.0 28.3 19.1 28.5 C 19.3 28.7 19.3 28.2 19.3 28.0 Z M 19.5 33.4 C 19.5 33.3 19.1 33.1 19.2 33.4 C 19.3 33.5 19.6 33.5 19.5 33.4 Z M 19.9 18.5 C 19.8 18.7 19.8 18.8 20.1 18.5 C 20.3 18.3 20.0 18.2 19.9 18.5 Z M 20.4 32.9 C 20.1 32.6 20.3 33.1 20.1 32.9 C 19.9 32.7 19.8 32.8 20.1 33.1 C 20.4 33.4 20.7 33.3 20.4 32.9 Z M 20.7 13.6 C 20.7 13.7 20.8 13.9 20.9 13.8 C 21.0 13.6 20.7 13.4 20.7 13.6 Z M 21.5 15.6 C 21.4 15.6 21.3 15.6 21.2 15.7 C 19.9 16.6 22.3 15.9 21.5 15.6 Z M 21.3 18.7 C 21.2 18.3 21.0 18.8 21.0 18.8 C 21.1 18.8 21.2 18.8 21.3 18.7 Z M 21.3 22.1 C 21.5 22.2 21.4 21.8 21.3 21.9 C 21.1 21.9 21.2 22.0 21.3 22.1 Z M 21.9 11.1 C 21.7 11.1 21.8 11.3 21.9 11.2 C 22.0 11.2 22.1 11.0 21.9 11.1 Z M 22.0 19.6 C 22.0 19.5 21.9 19.5 22.0 19.7 C 22.0 19.8 22.1 19.6 22.0 19.6 Z M 22.1 29.9 C 22.0 29.8 21.9 29.7 21.8 29.6 C 21.6 29.7 21.6 30.4 21.4 30.4 C 21.3 30.4 21.3 30.4 21.3 30.4 C 21.3 30.4 21.3 30.4 21.3 30.4 C 21.2 30.4 21.1 30.3 21.2 30.2 C 21.1 30.2 21.1 30.0 21.1 29.9 C 20.9 30.1 20.7 30.4 20.9 30.5 C 21.1 30.7 21.5 30.8 21.9 30.7 C 22.0 30.6 22.0 30.5 22.1 30.3 C 22.0 30.3 22.0 30.3 22.0 30.3 C 21.8 30.2 21.7 30.0 21.8 30.0 C 22.0 30.0 22.1 30.1 22.1 30.1 C 22.1 30.0 22.1 30.0 22.1 29.9 Z M 22.5 20.9 C 22.4 20.6 22.3 20.8 22.2 21.1 C 22.1 21.4 22.6 21.1 22.5 20.9 Z M 22.2 11.5 C 22.3 11.6 22.3 11.7 22.4 11.7 C 22.4 11.7 22.4 11.6 22.4 11.6 C 22.5 11.4 22.5 11.2 22.5 11.0 C 22.3 11.0 22.2 11.2 22.2 11.5 Z M 23.2 14.4 C 23.2 14.4 23.2 13.1 23.0 13.3 C 22.5 13.7 22.1 13.2 22.3 14.1 C 22.4 14.5 23.0 14.8 23.1 15.3 C 23.6 17.5 23.7 14.7 23.8 14.1 C 23.8 14.0 23.3 14.6 23.2 14.4 Z M 23.9 17.3 C 24.1 17.4 24.3 17.1 24.3 16.9 C 24.2 16.4 23.6 17.2 23.9 17.3 Z M 24.2 11.2 C 24.2 11.2 24.1 11.2 24.1 11.2 C 24.1 11.3 24.2 11.3 24.2 11.3 C 24.2 11.3 24.2 11.2 24.2 11.2 Z M 24.4 9.7 C 23.8 10.2 25.0 10.2 25.2 10.1 C 25.7 9.9 24.8 9.4 24.4 9.7 Z M 24.9 15.7 C 24.9 16.1 26.1 16.6 26.1 15.8 C 26.0 15.1 25.0 14.7 24.9 15.7 Z M 26.5 20.2 C 26.4 20.1 26.6 19.6 26.8 19.9 C 26.9 20.0 26.6 20.3 26.5 20.2 Z M 27.2 13.5 C 27.2 13.6 27.1 13.4 27.1 13.4 C 27.3 13.3 27.3 13.3 27.2 13.5 Z M 26.3 14.1 C 26.4 13.9 26.4 13.6 26.5 13.4 C 26.6 13.3 26.7 13.7 26.7 13.8 C 26.6 14.0 26.3 14.0 26.3 14.1 Z M 26.2 17.7 C 26.3 17.5 26.3 17.8 26.3 18.0 C 26.3 18.1 26.1 17.9 26.2 17.7 Z M 26.5 16.9 C 26.4 17.0 26.3 16.9 26.3 16.7 C 26.3 16.5 26.5 16.7 26.5 16.9 Z M 25.8 18.4 C 25.6 18.0 25.6 17.4 25.9 17.5 C 26.1 17.5 26.0 19.1 25.8 18.4 Z M 25.8 18.4 " fill="#EB5C56"></path></g></g><g><clipPath id="clip-15"><path d="M 73.5 -4.0 L 252.5 -4.0 L 252.5 57.0 L 73.5 57.0 Z M 73.5 -4.0 "></path></clipPath><g clip-path="url(#clip-15)"><text xml:space="preserve" font-family="Helvetica-Light" font-size="36.0" fill="#000000" transform="matrix(1.00, 0.00, -0.00, -1.00, 83.0, 13.0)">s</text><text xml:space="preserve" font-family="Helvetica-Light" font-size="36.0" fill="#000000" transform="matrix(1.00, 0.00, -0.00, -1.00, 101.0, 13.0)">e</text><text xml:space="preserve" font-family="Helvetica-Light" font-size="36.0" fill="#000000" transform="matrix(1.00, 0.00, -0.00, -1.00, 121.0, 13.0)">q</text><text xml:space="preserve" font-family="Helvetica-Light" font-size="36.0" fill="#000000" transform="matrix(1.00, 0.00, -0.00, -1.00, 143.0, 13.0)">u</text><text xml:space="preserve" font-family="Helvetica-Light" font-size="36.0" fill="#000000" transform="matrix(1.00, 0.00, -0.00, -1.00, 163.0, 13.0)">e</text><text xml:space="preserve" font-family="Helvetica-Light" font-size="36.0" fill="#000000" transform="matrix(1.00, 0.00, -0.00, -1.00, 183.0, 13.0)">n</text><text xml:space="preserve" font-family="Helvetica-Light" font-size="36.0" fill="#000000" transform="matrix(1.00, 0.00, -0.00, -1.00, 203.1, 13.0)">c</text><text xml:space="preserve" font-family="Helvetica-Light" font-size="36.0" fill="#000000" transform="matrix(1.00, 0.00, -0.00, -1.00, 223.1, 13.0)">e</text></g></g></g></svg>