<?xml version="1.0" encoding="UTF-8" standalone="no"?><svg xmlns="http://www.w3.org/2000/svg" xmlns:xlink="http://www.w3.org/1999/xlink" clip-rule="evenodd" stroke-miterlimit="4.00" viewBox="0 0 310 58"><desc>SVG generated by Keynote</desc><defs></defs><g transform="matrix(1.00, 0.00, -0.00, -1.00, 0.0, 58.0)"><image xlink:href="FBCF0C1EE331FD51B1519AB990DDE7E7.png" width="307.00" height="54.00" transform="matrix(1.00, 0.00, -0.00, -1.00, 1.0, 56.0)"></image><text xml:space="preserve" font-family="Helvetica-Light" font-size="51.0" fill="#000000" transform="matrix(1.00, 0.00, -0.00, -1.00, 1.0, 18.0)">P</text><text xml:space="preserve" font-family="Helvetica-Light" font-size="51.0" fill="#000000" transform="matrix(1.00, 0.00, -0.00, -1.00, 32.2, 18.0)">r</text><text xml:space="preserve" font-family="Helvetica-Light" font-size="51.0" fill="#000000" transform="matrix(1.00, 0.00, -0.00, -1.00, 48.2, 18.0)">o</text><text xml:space="preserve" font-family="Helvetica-Light" font-size="51.0" fill="#000000" transform="matrix(1.00, 0.00, -0.00, -1.00, 76.6, 18.0)">g</text><text xml:space="preserve" font-family="Helvetica-Light" font-size="51.0" fill="#000000" transform="matrix(1.00, 0.00, -0.00, -1.00, 107.7, 18.0)">r</text><text xml:space="preserve" font-family="Helvetica-Light" font-size="51.0" fill="#000000" transform="matrix(1.00, 0.00, -0.00, -1.00, 124.7, 18.0)">a</text><text xml:space="preserve" font-family="Helvetica-Light" font-size="51.0" fill="#000000" transform="matrix(1.00, 0.00, -0.00, -1.00, 153.1, 18.0)">m</text><text xml:space="preserve" font-family="Helvetica-Light" font-size="51.0" fill="#000000" transform="matrix(1.00, 0.00, -0.00, -1.00, 195.6, 18.0)">m</text><text xml:space="preserve" font-family="Helvetica-Light" font-size="51.0" fill="#000000" transform="matrix(1.00, 0.00, -0.00, -1.00, 238.0, 18.0)">i</text><text xml:space="preserve" font-family="Helvetica-Light" font-size="51.0" fill="#000000" transform="matrix(1.00, 0.00, -0.00, -1.00, 249.4, 18.0)">n</text><text xml:space="preserve" font-family="Helvetica-Light" font-size="51.0" fill="#000000" transform="matrix(1.00, 0.00, -0.00, -1.00, 277.7, 18.0)">g</text></g></svg>