<?xml version="1.0" encoding="UTF-8" standalone="no"?><svg xmlns="http://www.w3.org/2000/svg" xmlns:xlink="http://www.w3.org/1999/xlink" clip-rule="evenodd" stroke-miterlimit="4.00" viewBox="0 0 356 63"><desc>SVG generated by Keynote</desc><defs></defs><g transform="matrix(1.00, 0.00, -0.00, -1.00, 0.0, 63.0)"><text xml:space="preserve" font-family="Helvetica-Light" font-size="63.0" fill="#000000" transform="matrix(1.00, 0.00, -0.00, -1.00, -2.0, 14.0)">C</text><text xml:space="preserve" font-family="Helvetica-Light" font-size="63.0" fill="#000000" transform="matrix(1.00, 0.00, -0.00, -1.00, 43.5, 14.0)">o</text><text xml:space="preserve" font-family="Helvetica-Light" font-size="63.0" fill="#000000" transform="matrix(1.00, 0.00, -0.00, -1.00, 78.5, 14.0)">m</text><text xml:space="preserve" font-family="Helvetica-Light" font-size="63.0" fill="#000000" transform="matrix(1.00, 0.00, -0.00, -1.00, 131.0, 14.0)">p</text><text xml:space="preserve" font-family="Helvetica-Light" font-size="63.0" fill="#000000" transform="matrix(1.00, 0.00, -0.00, -1.00, 169.5, 14.0)">u</text><text xml:space="preserve" font-family="Helvetica-Light" font-size="63.0" fill="#000000" transform="matrix(1.00, 0.00, -0.00, -1.00, 204.5, 14.0)">t</text><text xml:space="preserve" font-family="Helvetica-Light" font-size="63.0" fill="#000000" transform="matrix(1.00, 0.00, -0.00, -1.00, 222.0, 14.0)">a</text><text xml:space="preserve" font-family="Helvetica-Light" font-size="63.0" fill="#000000" transform="matrix(1.00, 0.00, -0.00, -1.00, 257.1, 14.0)">t</text><text xml:space="preserve" font-family="Helvetica-Light" font-size="63.0" fill="#000000" transform="matrix(1.00, 0.00, -0.00, -1.00, 274.6, 14.0)">i</text><text xml:space="preserve" font-family="Helvetica-Light" font-size="63.0" fill="#000000" transform="matrix(1.00, 0.00, -0.00, -1.00, 288.6, 14.0)">o</text><text xml:space="preserve" font-family="Helvetica-Light" font-size="63.0" fill="#000000" transform="matrix(1.00, 0.00, -0.00, -1.00, 323.6, 14.0)">n</text></g></svg>