<?xml version="1.0" encoding="UTF-8" standalone="no"?><svg xmlns="http://www.w3.org/2000/svg" xmlns:xlink="http://www.w3.org/1999/xlink" clip-rule="evenodd" stroke-miterlimit="4.00" viewBox="0 0 202 39"><desc>SVG generated by Keynote</desc><defs></defs><g transform="matrix(1.00, 0.00, -0.00, -1.00, 0.0, 39.0)"><path d="M 19.5 17.5 C 19.2 17.7 18.2 17.4 17.9 17.6 M 19.5 17.5 C 18.6 16.0 16.8 15.9 14.5 15.6 C 11.9 15.6 14.6 17.0 14.2 17.6 C 10.9 18.2 10.9 17.1 11.4 15.6 C 10.1 16.6 6.3 14.7 7.1 16.7 C 12.5 16.7 3.4 17.2 7.8 18.3 C 8.3 18.6 7.0 19.1 6.5 19.2 C 8.0 20.0 5.5 20.9 7.9 21.5 C 8.2 22.8 7.8 22.2 9.3 23.2 C 9.9 23.3 9.7 22.9 9.6 22.6 C 9.8 21.2 11.4 23.4 12.7 22.5 C 13.8 24.4 15.0 22.2 14.0 21.4 C 15.1 21.6 16.4 23.6 17.6 22.2 C 18.2 23.2 21.3 22.5 19.5 21.3 C 18.1 20.6 19.6 20.0 19.8 19.6 C 19.4 19.1 17.5 19.8 17.2 19.4 C 17.8 19.1 20.2 18.4 17.6 18.4 C 18.4 17.8 17.2 17.4 19.5 17.5 C 19.5 17.5 19.5 17.5 19.5 17.5 Z M 10.5 16.4 C 10.5 15.9 11.3 16.4 10.5 16.4 C 10.5 16.4 10.5 16.4 10.5 16.4 Z M 16.6 23.2 C 16.6 22.7 17.5 23.2 16.6 23.2 C 16.6 23.2 16.6 23.2 16.6 23.2 Z M 10.0 22.7 C 10.0 22.1 10.9 22.7 10.0 22.7 C 10.0 22.7 10.0 22.7 10.0 22.7 Z M 12.8 16.7 C 14.3 17.2 11.6 17.4 11.4 17.0 C 11.7 17.0 12.5 16.3 12.8 16.7 C 12.8 16.7 12.8 16.7 12.8 16.7 Z M 13.0 19.7 C 13.1 19.5 13.7 19.4 13.7 19.9 C 13.3 20.1 12.9 19.8 13.0 19.7 C 13.0 19.7 13.0 19.7 13.0 19.7 Z M 6.0 17.6 C 6.1 17.4 6.7 17.3 6.6 17.8 C 6.2 18.0 5.9 17.8 6.0 17.6 C 6.0 17.6 6.0 17.6 6.0 17.6 Z M 14.4 18.1 C 14.8 18.2 14.9 18.6 14.5 18.7 C 14.3 18.5 13.3 18.4 14.4 18.1 C 14.4 18.1 14.4 18.1 14.4 18.1 Z M 16.7 16.4 C 17.9 16.6 15.5 17.4 15.5 17.2 C 15.1 16.8 16.0 16.0 16.7 16.4 C 16.7 16.4 16.7 16.4 16.7 16.4 Z M 15.1 18.8 C 16.1 19.0 14.7 19.1 15.1 18.8 C 15.1 18.8 15.1 18.8 15.1 18.8 Z M 6.9 21.3 C 7.9 21.6 6.5 21.7 6.9 21.3 C 6.9 21.3 6.9 21.3 6.9 21.3 Z M 12.1 22.9 C 13.1 23.2 11.7 23.3 12.1 22.9 C 12.1 22.9 12.1 22.9 12.1 22.9 Z M 10.2 17.7 C 8.5 17.7 10.0 16.4 10.2 17.7 C 10.2 17.7 10.2 17.7 10.2 17.7 Z M 19.4 16.3 C 17.7 16.2 19.2 15.0 19.4 16.3 C 19.4 16.3 19.4 16.3 19.4 16.3 Z M 170.7 16.7 C 172.2 16.4 166.1 14.8 168.4 16.8 C 169.1 18.4 164.9 18.3 166.0 16.7 C 164.8 16.6 164.8 16.5 164.1 17.2 C 163.9 16.0 161.0 15.4 160.0 16.1 C 159.3 17.1 161.9 16.2 160.3 17.3 C 156.6 17.6 160.5 18.4 159.1 19.8 C 159.0 19.8 158.9 19.1 158.6 19.5 C 158.4 20.8 160.5 21.6 159.6 22.6 C 160.1 22.4 162.7 23.8 161.6 22.7 C 161.3 21.5 164.5 24.1 164.3 22.1 C 165.1 23.1 166.0 21.8 166.9 22.9 C 167.5 23.1 167.5 22.1 167.4 21.8 C 167.3 20.9 168.2 23.9 169.2 22.3 C 169.3 22.8 172.2 22.6 170.1 21.9 C 170.7 22.0 174.0 22.4 172.3 20.7 C 169.9 19.9 174.7 18.8 171.9 18.8 C 169.8 18.6 169.4 18.9 171.0 18.0 C 171.5 18.1 173.9 17.9 171.8 17.1 C 171.4 17.4 170.4 17.2 170.7 16.7 C 170.7 16.7 170.7 16.7 170.7 16.7 Z M 171.1 19.3 C 169.9 19.4 171.0 18.6 171.1 19.3 C 171.1 19.3 171.1 19.3 171.1 19.3 Z M 166.7 23.3 C 165.5 23.4 166.6 22.6 166.7 23.3 C 166.7 23.3 166.7 23.3 166.7 23.3 Z M 166.9 16.3 C 166.2 16.8 166.1 15.0 166.9 16.3 C 166.9 16.3 166.9 16.3 166.9 16.3 Z M 168.7 21.8 C 168.6 21.8 168.9 21.6 169.2 21.5 C 169.1 21.6 168.8 21.8 168.7 21.8 C 168.7 21.8 168.7 21.8 168.7 21.8 Z M 164.8 16.3 C 163.0 17.2 164.4 14.8 164.8 16.3 C 164.8 16.3 164.8 16.3 164.8 16.3 Z M 161.1 18.0 C 160.9 19.8 159.2 17.6 161.1 18.0 C 161.1 18.0 161.1 18.0 161.1 18.0 Z M 163.7 22.0 C 164.0 21.6 164.0 22.3 163.7 22.0 C 163.7 22.0 163.7 22.0 163.7 22.0 Z M 171.6 22.3 C 171.9 21.9 171.9 22.5 171.6 22.3 C 171.6 22.3 171.6 22.3 171.6 22.3 Z M 161.4 21.9 C 161.6 21.2 162.1 22.2 161.4 21.9 C 161.4 21.9 161.4 21.9 161.4 21.9 Z M 166.5 17.0 C 168.2 15.5 168.5 19.1 166.5 17.0 C 166.5 17.0 166.5 17.0 166.5 17.0 Z M 169.5 16.9 C 170.6 16.6 169.3 17.8 168.8 17.5 C 168.8 17.4 169.3 16.9 169.5 16.9 C 169.5 16.9 169.5 16.9 169.5 16.9 Z M 164.8 17.2 C 165.9 16.4 165.8 17.6 164.8 17.2 C 164.8 17.2 164.8 17.2 164.8 17.2 Z M 167.7 16.4 C 168.2 16.5 167.2 16.6 167.7 16.4 C 167.7 16.4 167.7 16.4 167.7 16.4 Z M 162.5 15.7 C 163.1 15.8 162.0 15.8 162.5 15.7 C 162.5 15.7 162.5 15.7 162.5 15.7 Z M 170.9 16.1 C 171.5 16.3 170.4 16.3 170.9 16.1 C 170.9 16.1 170.9 16.1 170.9 16.1 Z M 163.0 16.6 C 162.8 17.3 164.4 18.7 161.5 17.5 C 161.0 17.0 162.2 16.1 163.0 16.6 C 163.0 16.6 163.0 16.6 163.0 16.6 Z M 23.9 17.5 C 17.5 15.5 19.1 19.1 18.8 19.7 C 17.9 20.7 18.8 21.3 20.0 22.0 C 21.3 24.3 22.0 19.7 23.0 21.9 C 24.7 25.0 24.9 19.3 25.7 22.5 C 25.4 23.3 27.8 22.6 27.6 22.4 C 28.9 24.0 30.6 21.2 30.7 21.0 C 31.5 21.4 31.6 24.2 34.2 22.1 C 36.1 21.3 37.0 24.2 36.5 22.2 C 37.9 24.4 37.5 21.6 38.9 22.3 C 39.9 23.5 39.0 20.5 40.8 22.8 C 41.6 20.9 39.9 24.0 44.9 22.7 C 42.5 22.5 47.2 21.2 46.2 22.4 C 44.5 23.8 48.5 21.9 50.8 22.7 C 51.4 22.1 54.0 20.4 53.6 22.2 C 55.9 24.3 55.9 20.9 56.9 22.7 C 57.7 23.4 58.0 21.8 58.5 22.0 C 59.3 23.3 60.1 22.4 62.9 22.8 C 69.2 23.4 63.9 19.4 66.3 19.0 C 66.6 18.4 63.2 14.1 64.6 17.3 C 64.1 16.4 59.0 19.7 61.5 16.2 C 59.6 17.6 61.9 14.8 58.0 16.4 C 63.4 18.9 51.9 17.4 57.1 16.2 C 56.2 15.5 54.1 15.7 55.6 16.3 C 56.2 18.5 51.9 15.2 54.1 18.0 C 50.8 17.2 51.6 19.7 50.7 17.9 C 49.9 15.0 50.9 18.7 49.2 17.9 C 45.3 17.8 48.3 14.4 45.9 16.7 C 42.1 15.2 45.1 18.0 43.8 18.4 C 43.4 20.4 39.9 16.8 42.8 16.5 C 41.2 17.6 42.5 15.5 40.8 16.8 C 42.0 18.7 38.5 14.8 39.0 16.3 C 37.5 16.8 38.3 17.9 37.8 18.0 C 35.5 18.0 36.2 16.1 35.7 17.5 C 35.2 18.3 34.1 15.8 33.8 16.4 C 36.2 16.6 31.8 18.5 31.5 17.4 C 33.0 17.3 30.8 14.9 29.9 16.4 C 31.0 20.6 27.8 15.4 26.7 16.8 C 27.7 19.1 21.5 17.1 23.8 16.0 C 23.7 16.2 23.9 17.6 23.9 17.5 M 33.1 16.8 C 35.0 17.0 31.0 17.2 33.1 16.8 M 33.0 16.2 C 33.9 17.0 31.1 15.6 33.1 15.9 C 33.1 15.9 32.9 16.1 33.0 16.2 M 41.1 16.1 C 40.9 16.7 40.0 15.7 41.1 16.1 M 42.7 17.5 C 44.0 18.1 40.9 17.6 42.7 17.5 M 60.7 17.1 C 58.9 20.5 58.8 15.1 60.7 17.1 M 48.8 16.4 C 46.6 16.8 49.6 14.9 48.8 16.4 M 48.1 17.2 C 47.1 17.8 47.9 16.5 48.1 17.2 M 57.3 17.1 C 57.4 17.1 57.4 17.1 57.3 17.1 C 57.3 17.1 57.3 17.1 57.3 17.1 Z M 62.6 17.2 C 62.6 17.1 62.6 17.1 62.6 17.2 C 62.6 17.2 62.6 17.2 62.6 17.2 Z M 52.1 17.4 C 50.4 16.6 54.8 17.1 52.1 17.4 C 52.1 17.4 52.1 17.4 52.1 17.4 Z M 60.1 22.4 C 60.0 22.4 60.0 22.4 60.1 22.4 C 60.1 22.4 60.1 22.4 60.1 22.4 Z M 31.5 18.3 C 31.5 18.4 31.5 18.4 31.5 18.3 C 31.5 18.3 31.5 18.3 31.5 18.3 Z M 25.5 17.1 C 25.5 17.5 24.4 16.7 25.5 17.1 C 25.5 17.1 25.5 17.1 25.5 17.1 Z M 20.5 21.0 C 20.5 21.0 20.5 21.0 20.5 21.0 C 20.5 21.0 20.5 21.0 20.5 21.0 Z M 29.5 20.2 C 29.4 20.2 29.4 20.2 29.5 20.2 C 29.5 20.2 29.5 20.2 29.5 20.2 Z M 30.4 17.6 C 29.4 15.7 32.7 18.1 30.4 17.6 C 30.4 17.6 30.4 17.6 30.4 17.6 Z M 50.1 22.2 C 50.1 21.3 51.5 22.4 50.1 22.2 C 50.1 22.2 50.1 22.2 50.1 22.2 Z M 42.9 18.3 C 43.2 17.9 43.8 18.5 42.9 18.3 C 42.9 18.3 42.9 18.3 42.9 18.3 Z M 39.6 15.7 C 39.9 15.3 40.5 15.9 39.6 15.7 C 39.6 15.7 39.6 15.7 39.6 15.7 Z M 25.6 16.5 C 25.7 16.4 25.7 16.4 25.6 16.5 C 25.6 16.5 25.6 16.5 25.6 16.5 Z M 27.7 18.0 C 26.2 16.2 30.1 18.9 27.7 18.0 C 27.7 18.0 27.7 18.0 27.7 18.0 Z M 25.2 18.5 C 26.0 19.2 23.2 18.2 25.2 18.5 M 26.6 21.2 C 28.5 20.4 25.0 24.3 26.6 21.2 C 26.6 21.2 26.6 21.2 26.6 21.2 Z M 36.0 21.9 C 36.1 22.0 36.1 22.0 36.0 21.9 C 36.0 21.9 36.0 21.9 36.0 21.9 Z M 35.0 16.7 C 36.6 16.8 34.0 17.1 35.0 16.7 C 35.0 16.7 35.0 16.7 35.0 16.7 Z M 20.9 16.3 C 22.5 16.4 19.9 16.7 20.9 16.3 C 20.9 16.3 20.9 16.3 20.9 16.3 Z M 41.4 20.2 C 44.1 19.9 39.8 21.1 41.4 20.2 C 41.4 20.2 41.4 20.2 41.4 20.2 Z M 51.2 18.1 C 51.3 18.2 51.3 18.2 51.2 18.1 C 51.2 18.1 51.2 18.1 51.2 18.1 Z M 53.0 17.4 C 53.0 17.4 53.0 17.4 53.0 17.4 C 53.0 17.4 53.0 17.4 53.0 17.4 Z M 60.5 19.2 C 60.7 19.3 60.7 19.3 60.5 19.2 C 60.5 19.2 60.5 19.2 60.5 19.2 Z M 54.6 16.5 C 54.7 16.6 54.7 16.6 54.6 16.5 C 54.6 16.5 54.6 16.5 54.6 16.5 Z M 59.9 17.0 C 60.0 17.1 60.0 17.1 59.9 17.0 C 59.9 17.0 59.9 17.0 59.9 17.0 Z M 59.1 15.5 C 59.3 15.5 59.3 15.5 59.1 15.5 C 59.1 15.5 59.1 15.5 59.1 15.5 Z M 47.5 23.2 C 47.6 23.2 47.6 23.2 47.5 23.2 C 47.5 23.2 47.5 23.2 47.5 23.2 Z M 28.4 15.9 C 28.6 16.1 28.6 16.1 28.4 15.9 C 28.4 15.9 28.4 15.9 28.4 15.9 Z M 59.5 17.7 C 59.5 17.7 59.5 17.7 59.5 17.7 C 59.5 17.7 59.5 17.7 59.5 17.7 Z M 46.7 19.1 C 46.7 20.6 45.6 17.1 47.0 19.0 C 46.9 19.1 46.6 18.8 46.7 19.1 M 48.4 21.6 C 48.3 21.6 48.3 21.6 48.4 21.6 C 48.4 21.6 48.4 21.6 48.4 21.6 Z M 42.6 22.5 C 42.5 22.6 42.5 22.6 42.6 22.5 C 42.6 22.5 42.6 22.5 42.6 22.5 Z M 53.7 16.2 C 53.5 15.4 55.2 16.9 53.5 16.3 M 60.6 21.8 C 60.4 21.0 62.0 22.5 60.4 21.9 M 19.1 16.9 C 18.8 17.6 18.0 16.5 19.1 16.9 M 41.3 23.3 C 41.1 24.0 40.2 22.9 41.3 23.3 M 44.0 21.4 C 43.8 20.5 45.4 22.0 43.8 21.4 M 56.6 21.8 C 56.7 21.8 56.7 21.8 56.6 21.8 C 56.6 21.8 56.6 21.8 56.6 21.8 Z M 37.5 16.9 C 37.5 16.9 37.5 16.9 37.5 16.9 C 37.5 16.9 37.5 16.9 37.5 16.9 Z M 44.6 18.7 C 43.6 17.5 45.8 19.4 44.6 18.7 M 35.4 18.9 C 34.0 17.5 37.7 19.4 35.4 18.9 M 63.6 22.2 C 62.1 20.5 64.8 23.1 63.6 22.2 M 55.8 17.9 C 54.3 16.1 57.0 18.8 55.8 17.9 M 38.9 17.6 C 38.8 16.7 40.5 18.2 38.9 17.6 M 22.7 16.7 C 21.3 16.6 24.7 16.1 22.7 16.7 M 52.8 21.8 C 52.9 21.9 52.9 21.9 52.8 21.8 C 52.8 21.8 52.8 21.8 52.8 21.8 Z M 27.6 23.4 C 27.7 23.4 27.7 23.4 27.6 23.4 C 27.6 23.4 27.6 23.4 27.6 23.4 Z M 65.6 16.5 C 65.7 16.6 65.7 16.6 65.6 16.5 C 65.6 16.5 65.6 16.5 65.6 16.5 Z M 54.9 18.7 C 54.9 18.8 54.9 18.8 54.9 18.7 C 54.9 18.7 54.9 18.7 54.9 18.7 Z M 62.6 16.3 C 62.7 16.4 62.7 16.4 62.6 16.3 C 62.6 16.3 62.6 16.3 62.6 16.3 Z M 50.0 20.0 C 50.0 20.0 50.0 20.0 50.0 20.0 C 50.0 20.0 50.0 20.0 50.0 20.0 Z M 49.0 15.6 C 49.0 15.6 49.0 15.6 49.0 15.6 C 49.0 15.6 49.0 15.6 49.0 15.6 Z M 43.6 17.5 C 43.7 17.5 43.7 17.5 43.6 17.5 C 43.6 17.5 43.6 17.5 43.6 17.5 Z M 51.4 15.9 C 54.6 15.7 49.8 17.4 51.4 15.9 C 51.4 15.9 51.4 15.9 51.4 15.9 Z M 45.9 20.3 C 45.9 20.4 45.9 20.4 45.9 20.3 C 45.9 20.3 45.9 20.3 45.9 20.3 Z M 45.5 17.2 C 47.5 16.0 46.5 19.4 45.5 17.2 M 36.5 16.2 C 37.2 15.5 36.8 17.2 36.5 16.2 M 33.0 22.0 C 33.0 22.1 33.0 22.1 33.0 22.0 C 33.0 22.0 33.0 22.0 33.0 22.0 Z M 33.9 21.5 C 34.0 21.6 34.0 21.6 33.9 21.5 C 33.9 21.5 33.9 21.5 33.9 21.5 Z M 34.4 15.9 C 34.4 16.0 34.4 16.0 34.4 15.9 C 34.4 15.9 34.4 15.9 34.4 15.9 Z M 34.1 23.2 C 34.2 23.2 34.2 23.2 34.1 23.2 C 34.1 23.2 34.1 23.2 34.1 23.2 Z M 47.8 15.7 C 47.8 15.7 47.8 15.7 47.8 15.7 C 47.8 15.7 47.8 15.7 47.8 15.7 Z M 64.2 15.7 C 64.2 15.7 64.2 15.7 64.2 15.7 C 64.2 15.7 64.2 15.7 64.2 15.7 Z M 23.2 21.4 C 23.3 21.4 23.3 21.4 23.2 21.4 C 23.2 21.4 23.2 21.4 23.2 21.4 Z M 49.5 17.5 C 49.5 17.5 49.5 17.5 49.5 17.5 C 49.5 17.5 49.5 17.5 49.5 17.5 Z M 30.7 21.7 C 30.7 21.8 30.7 21.8 30.7 21.7 C 30.7 21.7 30.7 21.7 30.7 21.7 Z M 48.4 17.1 C 48.5 17.1 48.5 17.1 48.4 17.1 C 48.4 17.1 48.4 17.1 48.4 17.1 Z M 52.3 22.2 C 52.3 22.2 52.3 22.2 52.3 22.2 C 52.3 22.2 52.3 22.2 52.3 22.2 Z M 55.8 23.2 C 55.8 23.2 55.8 23.2 55.8 23.2 C 55.8 23.2 55.8 23.2 55.8 23.2 Z M 52.0 19.1 C 52.1 19.2 52.1 19.2 52.0 19.1 C 52.0 19.1 52.0 19.1 52.0 19.1 Z M 29.5 19.8 C 23.1 18.3 34.6 19.1 29.5 19.8 M 53.1 19.5 C 48.6 19.1 56.7 17.8 53.1 19.5 C 53.6 19.0 53.2 19.4 53.1 19.5 M 67.2 15.8 C 65.4 17.4 65.4 19.0 66.2 20.7 C 67.1 21.5 67.1 18.2 67.1 21.0 C 65.0 21.5 68.0 25.1 68.0 21.6 C 70.8 21.1 68.4 23.8 70.1 22.4 C 73.1 22.1 71.5 23.1 73.8 22.9 C 75.2 21.0 75.2 23.8 75.8 22.0 C 74.6 24.0 78.2 21.5 78.3 22.4 C 76.2 23.6 86.2 22.4 80.8 21.8 C 83.0 20.9 82.6 22.5 83.3 22.8 C 84.3 21.6 87.0 23.7 88.3 22.5 C 88.1 22.3 87.4 22.2 87.2 21.8 C 86.8 21.1 88.7 22.0 88.5 21.9 C 89.4 21.5 93.0 20.3 89.2 22.4 C 89.0 23.3 92.3 21.9 92.2 22.8 C 95.6 22.8 93.0 20.9 94.5 22.3 C 96.9 22.4 98.6 22.4 98.6 22.1 C 100.0 22.3 100.3 23.4 101.6 22.4 C 104.5 24.5 103.7 18.3 104.8 22.4 C 105.6 21.5 106.4 24.2 106.3 21.6 C 105.3 22.8 111.3 23.6 108.7 21.7 C 109.4 21.1 113.1 24.4 112.6 21.8 C 113.9 19.9 113.7 18.0 110.8 16.2 C 111.1 17.7 107.7 14.7 109.9 17.2 C 112.4 18.1 105.3 18.1 106.8 17.2 C 107.1 14.2 103.3 19.1 101.8 16.9 C 103.0 18.1 97.3 18.7 98.9 16.5 C 97.9 16.3 97.6 17.3 96.4 16.0 C 99.9 16.2 95.1 18.4 95.3 17.0 C 95.9 16.2 90.7 15.5 91.3 16.8 C 93.1 19.9 89.9 16.1 89.0 17.3 C 86.2 18.0 89.5 14.7 87.4 17.0 C 86.8 16.6 83.0 16.6 85.4 15.9 C 86.3 16.2 83.2 19.3 82.8 16.7 C 86.8 15.2 78.1 15.9 79.5 16.7 C 85.7 18.1 72.9 18.3 77.7 16.9 C 75.0 15.4 78.6 16.3 75.1 16.9 C 75.6 17.8 72.9 18.6 73.5 16.9 C 73.0 14.4 72.6 20.3 70.5 16.8 C 70.2 15.3 66.3 17.9 67.8 16.3 C 67.9 16.1 67.3 15.8 67.2 15.8 M 68.5 16.1 C 68.0 16.7 67.7 15.4 68.5 16.1 M 68.0 16.6 C 67.9 16.6 67.9 16.6 68.0 16.6 C 68.0 16.6 68.0 16.6 68.0 16.6 Z M 74.6 17.0 C 74.6 17.0 74.6 17.0 74.6 17.0 C 74.6 17.0 74.6 17.0 74.6 17.0 Z M 79.9 23.4 C 79.8 23.3 79.8 23.3 79.9 23.4 C 79.9 23.4 79.9 23.4 79.9 23.4 Z M 79.1 17.2 C 79.0 17.2 79.0 17.2 79.1 17.2 C 79.1 17.2 79.1 17.2 79.1 17.2 Z M 72.2 17.4 C 72.2 17.4 72.2 17.4 72.2 17.4 C 72.2 17.4 72.2 17.4 72.2 17.4 Z M 78.6 16.3 C 79.0 17.2 77.1 15.6 78.7 16.1 C 78.8 16.2 78.5 16.2 78.6 16.3 M 84.4 15.9 C 84.5 16.0 84.5 16.0 84.4 15.9 M 97.2 23.3 C 97.2 23.4 97.2 23.4 97.2 23.3 M 98.2 15.8 C 98.4 15.9 98.4 15.9 98.2 15.8 M 90.2 16.8 C 92.0 16.7 90.6 17.3 90.2 16.8 M 102.9 16.3 C 100.7 15.7 105.3 15.8 102.9 16.3 M 105.1 15.8 C 105.3 15.9 105.3 15.9 105.1 15.8 M 95.0 16.2 C 95.0 16.2 95.0 16.2 95.0 16.2 C 95.0 16.2 95.0 16.2 95.0 16.2 Z M 89.5 16.4 C 87.1 15.9 91.8 15.6 89.5 16.4 M 75.4 16.1 C 76.7 15.7 75.4 17.3 75.4 16.1 M 72.8 16.7 C 72.8 16.7 72.8 16.7 72.8 16.7 C 72.8 16.7 72.8 16.7 72.8 16.7 Z M 99.3 16.3 C 99.3 16.3 99.3 16.3 99.3 16.3 C 99.3 16.3 99.3 16.3 99.3 16.3 Z M 101.9 16.1 C 101.8 16.1 101.8 16.1 101.9 16.1 C 101.9 16.1 101.9 16.1 101.9 16.1 Z M 106.2 23.1 C 106.1 23.1 106.1 23.1 106.2 23.1 C 106.2 23.1 106.2 23.1 106.2 23.1 Z M 74.7 19.6 C 73.0 19.1 76.5 17.3 76.1 19.0 C 76.3 19.7 74.9 19.4 74.7 19.6 M 87.8 18.6 C 88.2 20.9 86.1 15.3 87.8 18.6 M 105.4 17.3 C 107.1 20.2 103.2 15.4 105.4 17.3 M 108.9 16.9 C 109.9 17.4 102.4 17.2 107.7 16.4 C 108.2 16.0 108.5 16.5 108.9 16.9 M 84.5 17.0 C 85.0 18.3 81.8 16.5 84.5 17.0 M 95.2 21.0 C 96.0 20.1 98.2 19.4 97.2 20.8 C 97.2 22.6 94.1 21.7 95.2 21.0 M 69.0 17.4 C 70.4 15.3 68.9 19.2 69.0 17.4 M 75.7 17.6 C 75.8 17.5 75.8 17.5 75.7 17.6 C 75.7 17.6 75.7 17.6 75.7 17.6 Z M 78.4 17.3 C 78.5 17.4 78.5 17.4 78.4 17.3 M 70.1 15.6 C 70.2 15.8 70.2 15.8 70.1 15.6 M 95.1 18.8 C 95.2 18.9 95.2 18.9 95.1 18.8 M 89.7 17.4 C 92.3 19.5 88.3 17.8 89.7 17.4 M 83.3 21.4 C 84.1 22.4 81.7 21.5 83.3 21.4 M 93.9 16.6 C 95.8 18.6 91.4 18.5 93.9 16.6 M 88.4 17.2 C 88.5 17.2 88.5 17.2 88.4 17.2 C 88.4 17.2 88.4 17.2 88.4 17.2 Z M 95.8 21.2 C 95.8 21.2 95.8 21.2 95.8 21.2 C 95.8 21.2 95.8 21.2 95.8 21.2 Z M 96.6 21.1 C 96.6 21.1 96.6 21.1 96.6 21.1 C 96.6 21.1 96.6 21.1 96.6 21.1 Z M 96.2 16.4 C 96.1 16.4 96.1 16.4 96.2 16.4 C 96.2 16.4 96.2 16.4 96.2 16.4 Z M 72.6 22.1 C 74.4 22.2 71.2 22.4 72.6 22.1 C 72.6 22.1 72.6 22.1 72.6 22.1 Z M 80.7 16.3 C 83.8 17.8 78.6 17.8 80.7 16.3 C 80.7 16.3 80.7 16.3 80.7 16.3 Z M 84.2 18.8 C 84.2 19.0 84.2 19.0 84.2 18.8 C 84.2 18.8 84.2 18.8 84.2 18.8 Z M 92.8 15.4 C 92.8 15.5 92.8 15.5 92.8 15.4 C 92.8 15.4 92.8 15.4 92.8 15.4 Z M 73.5 22.3 C 73.5 22.5 73.5 22.5 73.5 22.3 C 73.5 22.3 73.5 22.3 73.5 22.3 Z M 101.4 17.4 C 101.4 17.5 101.4 17.5 101.4 17.4 C 101.4 17.4 101.4 17.4 101.4 17.4 Z M 90.9 21.5 C 91.5 20.7 91.0 22.1 90.9 21.5 C 90.9 21.5 90.9 21.5 90.9 21.5 Z M 93.6 21.5 C 93.7 21.5 93.7 21.5 93.6 21.5 C 93.6 21.5 93.6 21.5 93.6 21.5 Z M 105.8 15.6 C 105.8 15.6 105.8 15.6 105.8 15.6 C 105.8 15.6 105.8 15.6 105.8 15.6 Z M 100.6 23.4 C 100.7 23.3 100.7 23.3 100.6 23.4 C 100.6 23.4 100.6 23.4 100.6 23.4 Z M 102.9 21.0 C 102.9 21.1 102.9 21.1 102.9 21.0 C 102.9 21.0 102.9 21.0 102.9 21.0 Z M 95.7 16.9 C 98.5 16.5 95.1 17.7 95.7 16.9 C 95.7 16.9 95.7 16.9 95.7 16.9 Z M 109.7 20.4 C 109.8 20.5 109.8 20.5 109.7 20.4 C 109.7 20.4 109.7 20.4 109.7 20.4 Z M 111.1 17.7 C 111.2 17.8 111.2 17.8 111.1 17.7 C 111.1 17.7 111.1 17.7 111.1 17.7 Z M 111.8 16.3 C 111.9 16.4 111.9 16.4 111.8 16.3 C 111.8 16.3 111.8 16.3 111.8 16.3 Z M 78.3 20.2 C 78.3 20.1 78.3 20.1 78.3 20.2 C 78.3 20.2 78.3 20.2 78.3 20.2 Z M 77.3 15.8 C 77.2 15.8 77.2 15.8 77.3 15.8 C 77.3 15.8 77.3 15.8 77.3 15.8 Z M 81.0 15.6 C 80.9 15.6 80.9 15.6 81.0 15.6 C 81.0 15.6 81.0 15.6 81.0 15.6 Z M 77.7 22.8 C 77.6 22.8 77.6 22.8 77.7 22.8 C 77.7 22.8 77.7 22.8 77.7 22.8 Z M 91.6 19.1 C 91.6 19.0 91.6 19.0 91.6 19.1 C 91.6 19.1 91.6 19.1 91.6 19.1 Z M 92.9 20.9 C 92.9 20.8 92.9 20.8 92.9 20.9 C 92.9 20.9 92.9 20.9 92.9 20.9 Z M 89.7 23.2 C 89.7 23.2 89.7 23.2 89.7 23.2 C 89.7 23.2 89.7 23.2 89.7 23.2 Z M 93.9 22.4 C 93.9 22.4 93.9 22.4 93.9 22.4 C 93.9 22.4 93.9 22.4 93.9 22.4 Z M 68.3 22.0 C 68.3 22.1 68.3 22.1 68.3 22.0 C 68.3 22.0 68.3 22.0 68.3 22.0 Z M 68.0 18.7 C 68.0 18.8 68.0 18.8 68.0 18.7 C 68.0 18.7 68.0 18.7 68.0 18.7 Z M 92.0 16.7 C 92.7 16.0 93.3 17.6 92.0 16.7 M 86.7 17.1 C 86.7 17.2 86.7 17.2 86.7 17.1 C 86.7 17.1 86.7 17.1 86.7 17.1 Z M 101.0 16.8 C 101.7 18.1 98.5 16.1 101.0 16.8 C 101.0 16.8 101.0 16.8 101.0 16.8 Z M 98.2 22.4 C 98.2 22.4 98.2 22.4 98.2 22.4 C 98.2 22.4 98.2 22.4 98.2 22.4 Z M 99.6 21.8 C 99.7 22.0 99.7 22.0 99.6 21.8 C 99.6 21.8 99.6 21.8 99.6 21.8 Z M 107.2 18.2 C 107.4 18.3 107.4 18.3 107.2 18.2 M 86.0 15.9 C 86.8 16.5 86.7 16.4 86.0 15.9 M 102.8 16.8 C 102.7 16.9 102.7 16.9 102.8 16.8 C 102.8 16.8 102.8 16.8 102.8 16.8 Z M 108.9 17.5 C 108.9 17.5 108.9 17.5 108.9 17.5 C 108.9 17.5 108.9 17.5 108.9 17.5 Z M 82.3 16.8 C 82.4 18.4 81.7 18.0 82.3 16.8 M 71.7 17.3 C 71.7 17.4 71.7 17.4 71.7 17.3 C 71.7 17.3 71.7 17.3 71.7 17.3 Z M 117.4 16.3 C 114.5 14.5 114.5 17.0 114.5 17.1 C 114.8 13.7 111.9 18.5 112.5 19.1 C 112.4 19.6 114.6 25.5 116.6 21.9 C 117.2 21.5 117.5 22.5 117.9 22.6 C 121.4 22.5 115.5 20.8 119.8 20.7 C 120.5 21.2 119.7 24.1 122.2 22.1 C 122.3 22.4 125.2 23.4 124.1 22.1 C 125.5 23.4 126.3 21.9 127.6 21.6 C 128.8 22.3 126.7 23.6 130.8 22.0 C 132.6 24.4 133.2 20.3 134.8 22.9 C 135.9 23.0 137.5 18.7 135.0 21.1 C 135.4 20.8 133.9 18.8 137.1 19.6 C 136.7 20.1 134.9 24.4 140.0 22.4 C 140.9 22.4 142.8 21.3 143.3 21.8 C 140.6 22.3 146.9 23.7 146.3 22.4 C 150.4 23.3 148.0 21.4 151.0 22.8 C 153.4 22.8 150.2 20.9 153.2 22.0 C 155.5 21.8 153.9 22.8 153.7 22.8 C 155.7 23.0 156.4 22.2 157.1 22.3 C 157.5 22.5 158.4 23.4 158.9 22.3 C 161.0 20.3 159.1 18.4 160.0 16.4 C 158.5 15.5 159.3 17.9 158.3 16.5 C 157.5 17.7 158.2 16.3 154.0 16.6 C 154.1 16.9 155.1 17.8 154.1 17.9 C 152.5 17.7 153.6 14.4 150.9 16.8 C 154.1 17.5 146.5 17.8 149.5 18.5 C 145.8 18.9 148.4 18.3 145.7 17.5 C 145.9 19.7 145.5 15.1 144.6 16.9 C 144.3 15.9 140.1 16.4 143.1 17.7 C 138.8 18.3 141.5 17.0 140.0 15.9 C 138.0 15.7 139.8 19.5 138.6 16.7 C 136.0 15.5 138.5 18.1 136.6 16.0 C 137.4 17.9 134.7 15.9 135.4 18.0 C 131.0 18.2 135.9 15.8 132.8 17.2 C 133.8 17.3 133.4 14.5 131.5 16.3 C 132.3 19.6 129.0 13.4 130.4 17.8 C 124.2 19.0 129.3 16.0 125.9 16.0 C 125.1 16.0 126.9 17.4 126.1 17.4 C 121.7 16.8 125.4 15.7 123.1 17.8 C 118.7 18.3 121.8 16.0 119.7 15.8 C 119.5 16.9 117.8 18.6 117.4 16.3 M 121.2 17.3 C 122.1 16.7 121.8 18.0 121.2 17.3 M 112.5 16.3 C 113.4 15.7 113.1 17.0 112.5 16.3 M 124.8 16.7 C 126.0 16.0 125.2 17.8 124.8 16.7 M 148.2 17.8 C 146.6 17.8 148.9 17.2 148.2 17.8 M 116.0 16.2 C 117.3 15.4 116.3 17.4 116.0 16.2 M 114.4 17.9 C 114.5 17.9 114.5 17.9 114.4 17.9 M 150.5 16.0 C 150.6 16.0 150.6 16.0 150.5 16.0 M 144.2 16.0 C 145.6 16.0 143.5 16.4 144.2 16.0 M 144.0 23.1 C 145.4 23.2 143.2 23.6 144.0 23.1 M 153.9 15.9 C 155.2 15.4 154.3 16.7 153.9 15.9 M 157.4 17.5 C 158.6 16.8 158.2 18.2 157.4 17.5 M 120.5 19.8 C 120.4 19.9 120.4 19.9 120.5 19.8 C 120.5 19.8 120.5 19.8 120.5 19.8 Z M 131.9 21.6 C 130.6 20.9 133.6 22.5 131.9 21.6 M 129.8 16.9 C 130.7 18.4 128.0 16.8 129.8 16.9 C 129.8 16.9 129.8 16.9 129.8 16.9 Z M 127.8 17.6 C 127.8 17.7 127.8 17.7 127.8 17.6 C 127.8 17.6 127.8 17.6 127.8 17.6 Z M 134.3 17.7 C 134.2 17.7 134.2 17.7 134.3 17.7 C 134.3 17.7 134.3 17.7 134.3 17.7 Z M 133.0 17.8 C 132.4 18.1 132.2 17.5 133.0 17.8 C 133.0 17.8 133.0 17.8 133.0 17.8 Z M 142.4 22.4 C 141.8 22.7 141.7 22.1 142.4 22.4 C 142.4 22.4 142.4 22.4 142.4 22.4 Z M 130.9 18.3 C 130.7 19.8 130.0 17.3 130.9 18.3 C 130.9 18.3 130.9 18.3 130.9 18.3 Z M 137.9 21.8 C 138.5 21.4 139.1 23.1 137.9 21.8 M 151.8 16.3 C 152.4 15.9 153.0 17.7 151.8 16.3 M 138.1 15.9 C 138.7 15.5 139.3 17.2 138.1 15.9 M 122.0 16.7 C 122.1 16.9 122.1 16.9 122.0 16.7 M 129.6 23.0 C 130.5 22.5 130.1 23.7 129.6 23.0 M 116.7 22.5 C 117.6 22.0 117.1 23.2 116.7 22.5 M 149.9 23.0 C 149.8 22.6 151.3 23.2 149.9 23.0 M 139.7 18.2 C 140.9 18.4 142.1 19.2 139.6 19.1 C 139.5 18.7 140.2 18.5 139.7 18.2 C 139.7 18.2 139.7 18.2 139.7 18.2 Z M 144.0 21.5 C 144.2 21.6 144.2 21.6 144.0 21.5 M 141.8 16.8 C 142.0 17.0 142.0 17.0 141.8 16.8 M 148.9 17.0 C 149.0 17.2 149.0 17.2 148.9 17.0 M 149.7 16.6 C 149.7 16.6 149.7 16.6 149.7 16.6 C 149.7 16.6 149.7 16.6 149.7 16.6 Z M 157.4 16.0 C 157.4 16.0 157.4 16.0 157.4 16.0 C 157.4 16.0 157.4 16.0 157.4 16.0 Z M 146.6 17.2 C 146.6 17.2 146.6 17.2 146.6 17.2 C 146.6 17.2 146.6 17.2 146.6 17.2 Z M 153.0 22.7 C 153.0 22.8 153.0 22.8 153.0 22.7 C 153.0 22.7 153.0 22.7 153.0 22.7 Z M 152.2 21.8 C 152.2 21.9 152.2 21.9 152.2 21.8 C 152.2 21.8 152.2 21.8 152.2 21.8 Z M 118.0 16.3 C 119.0 15.3 118.6 18.8 118.0 16.3 M 155.6 21.9 C 156.6 22.8 153.8 22.1 155.6 21.9 C 155.6 21.9 155.6 21.9 155.6 21.9 Z M 145.8 18.4 C 145.9 18.6 145.9 18.6 145.8 18.4 M 150.2 16.7 C 150.3 16.9 150.3 16.9 150.2 16.7 M 129.8 15.6 C 129.9 15.8 129.9 15.8 129.8 15.6 M 155.6 17.0 C 158.9 17.3 154.1 19.1 155.6 17.0 M 128.3 17.0 C 128.2 16.9 128.2 16.9 128.3 17.0 M 135.6 19.7 C 137.8 19.6 134.8 20.5 135.6 19.7 M 141.2 17.9 C 141.2 17.9 141.2 17.9 141.2 17.9 C 141.2 17.9 141.2 17.9 141.2 17.9 Z M 138.0 17.9 C 136.4 18.1 137.6 17.5 138.0 17.9 C 138.0 17.9 138.0 17.9 138.0 17.9 Z M 119.5 17.6 C 121.6 17.9 117.4 18.1 119.5 17.6 C 119.5 17.6 119.5 17.6 119.5 17.6 Z M 154.1 20.4 C 154.0 20.5 154.0 20.5 154.1 20.4 C 154.1 20.4 154.1 20.4 154.1 20.4 Z M 146.2 16.2 C 145.3 16.5 145.8 15.7 146.2 16.2 C 146.2 16.2 146.2 16.2 146.2 16.2 Z M 158.6 16.0 C 157.6 16.3 158.1 15.5 158.6 16.0 C 158.6 16.0 158.6 16.0 158.6 16.0 Z M 117.0 17.4 C 124.6 19.8 106.9 16.8 117.0 17.4 C 117.0 17.4 117.0 17.4 117.0 17.4 Z M 139.3 16.9 C 139.2 17.0 139.2 17.0 139.3 16.9 C 139.3 16.9 139.3 16.9 139.3 16.9 Z M 125.2 15.9 C 125.2 16.0 125.2 16.0 125.2 15.9 C 125.2 15.9 125.2 15.9 125.2 15.9 Z M 122.9 17.2 C 122.8 17.3 122.8 17.3 122.9 17.2 C 122.9 17.2 122.9 17.2 122.9 17.2 Z M 123.5 22.9 C 123.5 23.0 123.5 23.0 123.5 22.9 C 123.5 22.9 123.5 22.9 123.5 22.9 Z M 124.4 20.3 C 124.2 20.5 124.2 20.5 124.4 20.3 C 124.4 20.3 124.4 20.3 124.4 20.3 Z M 119.5 21.3 C 119.4 21.4 119.4 21.4 119.5 21.3 C 119.5 21.3 119.5 21.3 119.5 21.3 Z M 119.6 22.0 C 119.5 22.1 119.5 22.1 119.6 22.0 C 119.6 22.0 119.6 22.0 119.6 22.0 Z M 150.2 18.3 C 150.1 18.4 150.1 18.4 150.2 18.3 C 150.2 18.3 150.2 18.3 150.2 18.3 Z M 147.6 20.7 C 149.3 19.8 147.0 21.9 147.6 20.7 C 147.6 20.7 147.6 20.7 147.6 20.7 Z M 131.9 19.5 C 133.5 19.2 130.8 20.2 131.9 19.5 C 131.9 19.5 131.9 19.5 131.9 19.5 Z M 133.6 22.6 C 133.7 22.6 133.7 22.6 133.6 22.6 C 133.6 22.6 133.6 22.6 133.6 22.6 Z M 122.9 15.8 C 122.8 16.0 122.8 16.0 122.9 15.8 C 122.9 15.8 122.9 15.8 122.9 15.8 Z M 119.9 16.8 C 119.8 18.0 119.0 16.2 119.9 16.8 M 134.9 16.1 C 134.9 16.3 134.9 16.3 134.9 16.1 C 134.9 16.1 134.9 16.1 134.9 16.1 Z M 144.4 18.0 C 144.4 18.1 144.4 18.1 144.4 18.0 C 144.4 18.0 144.4 18.0 144.4 18.0 Z M 153.9 17.2 C 153.8 17.4 153.8 17.4 153.9 17.2 C 153.9 17.2 153.9 17.2 153.9 17.2 Z M 140.8 16.3 C 140.8 16.4 140.8 16.4 140.8 16.3 C 140.8 16.3 140.8 16.3 140.8 16.3 Z M 136.3 17.4 C 136.3 17.5 136.3 17.5 136.3 17.4 C 136.3 17.4 136.3 17.4 136.3 17.4 Z M 155.9 18.9 C 155.9 19.0 155.9 19.0 155.9 18.9 C 155.9 18.9 155.9 18.9 155.9 18.9 Z M 141.9 16.1 C 141.9 16.1 141.9 16.1 141.9 16.1 C 141.9 16.1 141.9 16.1 141.9 16.1 Z M 144.6 19.9 C 144.5 20.0 144.5 20.0 144.6 19.9 C 144.6 19.9 144.6 19.9 144.6 19.9 Z M 120.3 15.1 C 120.3 15.2 120.3 15.2 120.3 15.1 C 120.3 15.1 120.3 15.1 120.3 15.1 Z M 156.0 17.3 C 156.0 17.4 156.0 17.4 156.0 17.3 C 156.0 17.3 156.0 17.3 156.0 17.3 Z M 156.6 16.2 C 156.6 16.3 156.6 16.3 156.6 16.2 C 156.6 16.2 156.6 16.2 156.6 16.2 Z M 149.9 21.9 C 146.6 21.3 152.9 21.7 150.5 20.4 C 155.3 20.1 150.6 22.0 149.9 21.9 C 149.9 21.9 149.9 21.9 149.9 21.9 Z M 149.9 21.9 " fill="#A93F2C"></path><path d="M 171.2 36.7 C 171.1 37.4 169.1 38.1 170.4 36.8 C 170.5 36.7 171.3 36.4 171.2 36.7 Z M 174.3 34.9 C 174.1 35.0 173.9 35.1 173.7 35.0 C 173.0 34.7 175.2 34.4 174.3 34.9 Z M 169.4 37.0 C 169.4 37.1 168.4 37.7 168.5 37.4 C 168.5 37.1 169.4 36.9 169.4 37.0 Z M 176.4 32.0 C 176.6 32.3 175.5 32.9 175.3 32.9 C 174.5 32.8 176.2 31.4 176.4 32.0 Z M 167.9 26.7 C 167.9 26.6 167.9 26.5 167.9 26.5 C 167.9 26.6 167.9 26.6 167.9 26.7 Z M 191.3 24.0 C 191.2 24.2 190.6 24.1 190.6 23.9 C 190.6 23.5 191.9 23.6 191.3 24.0 Z M 167.3 6.2 C 167.3 6.2 167.1 6.7 166.9 6.5 C 166.7 6.3 167.1 6.1 167.3 6.2 Z M 166.9 6.2 C 166.7 6.3 166.5 5.9 166.8 5.9 C 167.1 6.0 167.2 6.1 166.9 6.2 Z M 183.6 10.6 C 183.7 10.6 183.8 10.6 183.6 10.7 C 183.5 10.7 183.3 10.5 183.6 10.6 Z M 182.9 10.6 C 182.6 10.8 182.6 10.3 182.8 10.3 C 183.1 10.4 183.2 10.5 182.9 10.6 Z M 180.6 7.4 C 180.8 7.5 180.9 7.5 180.7 7.5 C 180.6 7.6 180.4 7.3 180.6 7.4 Z M 166.4 14.6 C 166.3 14.5 166.5 13.9 166.7 13.9 C 167.1 14.0 166.6 14.9 166.4 14.6 Z M 166.3 13.8 C 166.0 13.9 166.0 13.4 166.2 13.5 C 166.4 13.6 166.5 13.7 166.3 13.8 Z M 166.8 16.4 C 167.1 16.4 167.1 17.1 167.1 17.3 C 167.0 17.5 166.9 17.8 166.7 18.0 C 166.7 18.1 166.3 16.4 166.8 16.4 Z M 167.1 21.9 C 167.0 21.9 166.9 21.8 167.0 21.6 C 167.2 21.4 167.2 21.9 167.1 21.9 Z M 166.9 18.8 C 166.8 18.8 166.7 18.7 166.8 18.5 C 166.9 18.3 167.0 18.8 166.9 18.8 Z M 182.7 29.2 C 182.9 29.3 182.0 29.6 181.9 29.6 C 181.8 29.6 182.1 29.4 181.9 29.4 C 181.6 29.5 181.8 28.6 182.7 29.2 Z M 176.0 33.8 C 175.9 33.8 175.7 33.8 175.7 33.6 C 175.7 33.5 176.4 33.4 176.0 33.8 Z M 181.1 28.8 C 181.1 28.9 180.9 29.0 180.9 28.9 C 180.8 28.9 181.0 28.8 181.1 28.8 Z M 181.5 28.4 C 181.4 28.5 180.8 28.5 180.8 28.2 C 180.8 27.9 182.1 27.9 181.5 28.4 Z M 183.8 28.9 C 183.5 29.0 183.5 29.0 183.6 28.8 C 183.7 28.7 183.8 28.9 183.8 28.9 Z M 180.0 31.6 C 179.8 31.8 179.8 31.8 179.9 31.6 C 179.9 31.4 180.0 31.6 180.0 31.6 Z M 185.4 27.3 C 185.4 27.3 185.0 27.9 184.6 27.5 C 184.1 27.0 185.3 27.3 185.4 27.3 Z M 187.8 25.0 C 187.6 25.1 187.6 24.9 187.8 24.8 C 188.0 24.8 188.0 24.9 187.8 25.0 Z M 188.3 23.5 C 188.7 23.4 189.0 23.5 188.5 23.7 C 188.0 24.0 187.9 23.5 188.3 23.5 Z M 187.9 24.0 C 187.8 23.9 188.0 23.8 188.1 23.9 C 188.2 24.0 187.9 24.1 187.9 24.0 Z M 185.9 26.1 C 185.8 26.4 185.3 26.3 185.6 26.0 C 186.0 25.7 186.1 25.8 185.9 26.1 Z M 166.5 29.6 C 166.6 29.8 166.2 29.7 166.1 29.6 C 166.0 29.5 166.4 29.4 166.5 29.6 Z M 167.7 17.7 C 167.5 17.9 167.5 17.7 167.6 17.4 C 167.7 17.1 167.9 17.6 167.7 17.7 Z M 168.3 10.2 C 168.1 10.4 168.1 10.2 168.2 9.9 C 168.3 9.6 168.5 10.1 168.3 10.2 Z M 167.7 20.8 C 167.6 20.8 167.0 20.0 167.6 19.6 C 168.1 19.2 168.2 20.5 167.7 20.8 Z M 173.7 28.1 C 173.8 28.3 173.6 28.2 173.6 28.2 C 173.6 28.0 173.6 28.0 173.7 28.1 Z M 168.6 19.1 C 168.7 19.2 168.4 19.2 168.2 19.1 C 168.1 18.9 168.5 18.8 168.6 19.1 Z M 167.9 11.6 C 167.7 11.9 167.3 11.7 167.1 11.5 C 166.6 10.9 167.2 10.4 167.5 10.0 C 167.8 9.7 168.0 11.4 167.9 11.6 Z M 167.6 31.4 C 167.7 31.2 167.7 31.0 167.8 30.9 C 167.6 30.8 167.7 30.7 167.8 30.6 C 167.7 29.8 167.0 29.4 166.8 28.9 C 166.4 27.8 167.8 27.4 167.9 26.7 C 167.9 26.9 167.9 27.1 168.1 27.2 C 168.5 27.5 168.3 24.8 168.3 24.7 C 167.9 22.4 167.5 25.1 166.8 25.1 C 166.4 25.1 167.3 23.6 167.4 23.5 C 167.7 22.8 166.9 22.7 167.2 22.1 C 167.4 21.8 169.1 20.9 168.8 20.7 C 168.6 20.5 168.8 19.8 168.8 19.5 C 168.8 19.1 168.8 18.4 168.1 18.8 C 167.7 19.1 167.3 19.2 167.7 18.6 C 168.0 18.2 169.0 15.6 167.8 15.7 C 167.7 15.7 167.3 16.3 167.3 16.3 C 167.0 15.6 167.4 13.3 166.9 12.8 C 165.8 11.6 167.6 13.2 167.9 12.6 C 168.5 11.6 168.9 11.0 168.7 9.7 C 168.6 9.4 168.6 8.2 167.9 8.8 C 167.5 9.2 167.1 8.9 167.0 9.7 C 166.4 8.8 167.6 8.3 167.3 8.1 C 167.0 7.9 166.8 8.3 166.8 7.7 C 166.9 7.0 166.7 7.3 167.4 7.2 C 167.6 7.1 167.7 6.5 167.7 6.5 C 167.8 6.5 167.8 6.5 167.9 6.5 C 167.8 5.9 166.6 4.9 166.9 4.7 C 167.1 4.6 167.9 5.0 168.2 4.9 C 168.2 4.9 168.2 4.8 168.2 4.8 C 168.1 4.5 167.7 3.9 167.8 3.8 C 167.9 3.7 169.0 4.2 168.7 3.9 C 168.3 3.6 168.7 2.3 169.1 2.2 C 169.4 2.1 170.9 1.8 171.0 1.5 C 171.1 1.3 171.8 1.8 172.1 1.9 C 172.3 1.9 172.5 2.6 172.5 2.7 C 172.6 2.8 173.1 3.0 173.1 3.0 C 173.1 3.0 173.5 3.0 173.9 3.3 C 174.3 3.5 174.5 4.0 175.0 4.5 C 175.4 5.0 175.9 4.8 176.4 5.0 C 176.9 5.2 176.9 6.3 177.3 6.7 C 177.7 7.1 178.0 6.4 178.6 6.7 C 179.2 7.0 179.4 7.3 179.2 7.3 C 179.0 7.3 179.0 7.6 179.2 7.7 C 179.3 7.8 179.9 8.4 180.2 8.4 C 180.5 8.4 179.1 6.9 181.2 8.2 C 182.2 8.8 182.5 10.0 182.3 9.8 C 181.5 9.4 182.5 11.4 182.7 11.1 C 182.9 10.7 184.6 11.9 184.5 11.1 C 184.5 10.8 186.4 11.7 186.6 11.9 C 186.8 12.2 187.7 12.5 187.6 13.2 C 187.6 13.6 189.0 13.4 189.2 13.6 C 189.5 13.7 190.8 14.6 191.0 15.0 C 191.2 15.3 190.5 14.9 190.2 14.7 C 189.9 14.5 189.6 13.9 189.3 13.9 C 189.0 13.8 189.5 14.4 189.8 14.6 C 190.1 14.9 190.0 15.2 190.3 15.5 C 190.4 15.5 190.6 15.6 190.9 15.9 C 191.1 15.9 191.2 15.9 191.2 15.8 C 191.3 15.6 191.2 15.4 191.3 15.4 C 191.4 15.3 191.8 15.3 192.2 15.6 C 192.6 15.8 192.9 16.1 193.4 16.6 C 193.9 17.1 194.1 17.0 194.5 17.2 C 195.0 17.4 195.3 17.7 195.2 17.8 C 195.2 17.9 194.6 17.7 194.5 17.8 C 194.4 17.9 194.8 18.5 195.0 18.7 C 196.0 19.4 194.6 19.9 195.6 20.6 C 196.1 21.0 195.3 21.0 194.7 21.1 C 194.8 21.2 194.8 21.3 194.4 21.7 C 194.5 21.9 193.7 22.1 193.4 22.3 C 193.2 22.5 192.0 23.5 192.6 22.7 C 192.6 22.6 192.7 22.6 192.7 22.5 C 192.7 22.5 192.7 22.5 192.7 22.5 C 192.7 22.5 192.8 21.7 192.8 21.7 C 192.7 21.7 192.7 22.5 192.7 22.5 C 192.4 22.4 192.1 22.3 192.0 22.2 C 191.9 22.3 191.9 22.4 191.9 22.5 C 191.8 22.5 191.8 22.5 191.8 22.5 C 191.8 22.6 191.8 22.6 191.8 22.6 C 192.0 22.8 191.9 22.8 191.7 22.8 C 191.3 23.4 190.0 23.6 189.5 23.7 C 190.0 21.9 188.0 23.2 187.4 23.8 C 186.7 24.3 187.6 25.7 188.0 25.5 C 187.5 25.8 187.2 25.7 186.8 25.3 C 186.9 25.4 185.8 24.9 185.9 24.9 C 184.4 25.1 185.4 26.1 185.2 26.4 C 184.9 26.7 184.5 27.0 184.2 27.3 C 183.9 27.6 184.4 27.6 184.4 27.9 C 184.3 28.7 182.8 28.1 182.4 28.3 C 182.7 28.0 183.0 27.7 183.1 27.4 C 182.9 27.9 182.2 27.3 182.0 27.4 C 181.6 27.5 181.1 27.8 180.8 28.1 C 180.1 28.5 179.6 29.0 179.0 29.5 C 179.2 29.5 180.7 29.7 180.7 29.6 C 180.5 29.8 179.8 30.0 180.3 30.3 C 181.3 30.9 179.3 31.5 179.0 31.6 C 178.1 32.1 177.7 33.5 176.2 33.0 C 176.2 33.0 177.4 32.0 177.3 31.9 C 176.5 31.4 176.0 31.2 175.2 31.9 C 175.0 32.0 174.1 33.4 174.1 33.4 C 174.1 33.3 176.4 34.3 175.0 34.4 C 174.7 34.4 175.0 33.8 174.6 33.9 C 174.1 33.9 173.6 34.4 173.2 34.6 C 173.1 34.6 172.3 34.8 172.3 34.9 C 172.2 35.2 172.4 35.6 172.2 35.8 C 172.1 36.1 171.6 36.1 171.5 35.9 C 171.4 35.8 171.4 35.8 171.4 35.7 C 171.3 35.8 171.2 35.7 171.1 35.6 C 171.1 35.7 170.9 35.8 170.6 35.7 C 170.5 35.7 170.8 35.4 171.1 35.4 C 171.0 35.3 171.0 35.2 171.0 35.1 C 170.6 35.4 170.3 35.7 170.3 35.7 C 169.9 36.5 170.1 36.7 168.8 36.5 C 167.8 36.4 167.1 34.0 167.5 32.5 C 167.4 32.2 167.4 31.8 167.6 31.4 Z M 191.4 16.7 C 191.3 16.6 191.3 16.6 191.3 16.6 C 191.2 16.7 191.1 16.8 191.1 17.0 C 191.3 17.3 191.1 16.7 191.4 16.9 C 191.7 17.2 191.8 17.1 191.4 16.7 Z M 191.1 20.0 C 191.4 20.1 191.4 20.0 191.3 19.8 C 191.2 19.9 191.1 20.0 191.1 20.0 Z M 191.8 21.5 C 192.2 21.1 191.2 21.0 190.6 21.5 C 191.2 21.6 191.6 21.5 191.8 21.5 Z M 191.2 22.7 C 191.1 22.6 191.1 22.5 191.1 22.4 C 191.1 22.2 190.7 22.6 190.7 22.5 C 190.7 22.3 191.0 21.8 190.6 21.9 C 190.5 21.9 190.4 21.9 190.3 21.9 C 190.3 22.0 190.3 22.1 190.3 22.1 C 190.2 22.4 190.8 22.8 191.2 22.7 Z M 188.9 16.5 C 189.1 16.5 189.0 16.4 188.9 16.3 C 188.7 16.3 188.6 16.5 188.9 16.5 Z M 187.2 13.8 C 187.3 14.1 187.5 14.2 187.5 13.9 C 187.4 13.6 187.0 13.6 187.2 13.8 Z M 183.5 17.7 C 183.6 17.7 183.5 17.7 183.4 17.6 C 183.2 17.5 183.3 17.8 183.5 17.7 Z M 183.3 20.5 C 183.2 20.7 183.5 20.9 183.5 20.8 C 183.6 20.6 183.4 20.3 183.3 20.5 Z M 183.7 14.2 C 183.4 14.1 183.5 14.4 183.7 14.3 C 183.9 14.3 183.9 14.2 183.7 14.2 Z M 184.2 17.9 C 184.0 17.6 184.0 17.7 183.9 17.8 C 183.7 17.9 183.8 18.1 184.1 18.2 C 184.4 18.3 184.4 18.2 184.2 17.9 Z M 184.4 20.3 C 183.8 20.6 183.9 20.9 184.7 20.3 C 185.4 19.8 184.9 20.0 184.4 20.3 Z M 185.7 11.9 C 185.8 12.1 186.2 12.2 186.2 12.2 C 186.2 12.2 185.4 11.5 185.7 11.9 Z M 184.2 26.5 C 184.5 26.4 184.5 26.1 184.1 26.3 C 183.7 26.4 184.0 26.7 184.2 26.5 Z M 182.8 25.4 C 183.4 25.8 183.9 25.7 183.9 25.7 C 183.8 25.6 183.7 25.2 183.9 25.0 C 184.2 24.6 185.0 24.8 185.3 24.2 C 185.5 23.6 184.5 24.1 184.3 24.2 C 184.4 24.1 184.5 24.0 184.4 23.8 C 184.2 23.7 184.1 23.7 184.0 23.9 C 183.9 24.2 182.2 24.9 182.8 25.4 Z M 182.9 18.8 C 183.2 18.9 183.4 18.7 183.2 18.4 C 183.0 18.1 182.8 18.0 182.7 18.1 C 182.6 18.1 182.6 18.7 182.9 18.8 Z M 182.6 16.7 C 182.9 16.6 182.8 16.5 182.6 16.5 C 182.2 16.3 182.4 16.8 182.6 16.7 Z M 178.8 7.9 C 178.6 8.0 179.0 8.3 179.1 8.1 C 179.1 8.0 179.0 7.9 178.8 7.9 Z M 178.9 11.4 C 178.4 11.3 178.8 11.8 178.9 11.8 C 179.1 11.8 179.3 11.5 178.9 11.4 Z M 181.0 13.4 C 180.7 13.3 181.0 13.7 181.1 13.7 C 181.3 13.6 181.1 13.5 181.0 13.4 Z M 181.2 14.8 C 181.0 14.7 181.0 15.1 181.4 15.0 C 181.5 15.0 181.4 14.9 181.2 14.8 Z M 180.2 26.0 C 180.2 26.0 180.0 25.5 179.8 25.9 C 179.6 26.4 179.6 26.4 180.2 26.0 Z M 181.1 22.0 C 181.5 21.7 181.7 21.4 181.4 20.3 C 181.0 19.2 180.8 19.6 180.6 20.3 C 180.4 21.0 179.9 19.2 179.7 20.5 C 179.5 21.0 180.8 22.3 181.1 22.0 Z M 179.2 14.9 C 179.6 15.6 180.5 15.4 180.0 15.0 C 179.4 14.5 178.8 14.3 179.2 14.9 Z M 179.1 14.4 C 179.3 14.4 179.2 14.3 179.0 14.2 C 178.8 14.1 178.9 14.4 179.1 14.4 Z M 179.7 30.9 C 180.7 29.9 179.0 29.9 179.0 29.9 C 177.5 30.4 178.6 31.9 179.7 30.9 Z M 168.5 7.1 C 168.5 7.1 168.4 7.2 168.4 7.2 C 168.4 7.3 168.4 7.3 168.5 7.3 C 168.6 7.5 168.9 7.0 168.9 7.0 C 168.7 6.9 168.5 7.0 168.5 7.1 Z M 168.1 14.2 C 168.2 14.0 168.1 13.7 167.9 13.5 C 167.3 13.7 167.3 15.8 168.4 15.0 C 168.6 14.9 169.5 13.5 169.0 13.4 C 168.7 13.3 168.1 15.0 168.1 14.2 Z M 169.0 12.0 C 169.0 12.9 169.9 11.3 169.4 11.5 C 169.2 11.6 169.1 11.7 169.0 12.0 Z M 171.0 5.7 C 170.5 4.5 168.8 4.7 169.7 6.5 C 170.6 8.3 171.4 8.4 171.1 7.5 C 170.9 6.6 171.7 7.3 171.0 5.7 Z M 171.0 15.0 C 169.8 14.8 170.1 15.3 171.0 15.6 C 171.2 15.7 171.7 15.1 171.0 15.0 Z M 171.2 17.6 C 171.1 17.9 171.1 17.9 171.3 17.7 C 171.6 17.4 171.3 17.2 171.2 17.6 Z M 172.7 3.8 C 172.5 3.4 172.0 3.1 172.3 3.1 C 172.6 3.0 172.5 3.0 172.3 2.7 C 172.0 2.4 172.0 3.0 172.0 3.3 C 172.1 3.5 172.9 4.2 172.7 3.8 Z M 176.8 13.8 C 176.6 13.7 176.8 13.9 177.0 14.0 C 177.1 14.0 177.1 13.9 176.8 13.8 Z M 178.2 23.6 C 178.2 23.6 178.1 23.3 177.9 23.6 C 177.8 23.8 177.8 23.8 178.2 23.6 Z M 177.7 31.5 C 177.9 31.3 177.4 31.2 177.5 30.8 C 177.5 30.7 177.7 30.9 177.8 31.0 C 177.7 30.9 177.6 29.9 177.2 30.6 C 177.0 30.8 177.2 32.0 177.7 31.5 Z M 176.5 16.5 C 176.9 16.9 177.2 15.2 177.5 15.5 C 177.9 15.8 177.9 15.6 177.5 15.3 C 177.2 14.9 176.2 16.1 176.5 16.5 Z M 176.3 12.3 C 176.3 12.6 177.1 13.3 176.9 12.8 C 176.7 12.4 176.3 12.1 176.6 12.1 C 176.8 12.1 176.7 12.0 176.5 11.8 C 176.2 11.4 176.2 12.0 176.3 12.3 Z M 176.0 5.3 C 176.0 5.5 176.6 5.7 176.4 5.4 C 176.3 5.2 175.9 5.2 176.0 5.3 Z M 175.5 24.8 C 175.7 24.5 175.6 24.3 175.3 24.6 C 174.9 24.9 175.4 25.1 175.5 24.8 Z M 174.8 5.9 C 175.2 6.4 174.9 5.7 175.2 6.0 C 175.5 6.2 175.6 6.1 175.2 5.7 C 174.8 5.4 174.4 5.5 174.8 5.9 Z M 174.5 31.1 C 174.5 30.9 174.3 30.7 174.2 30.8 C 174.1 31.0 174.4 31.3 174.5 31.1 Z M 173.5 28.5 C 173.6 28.5 173.7 28.4 173.8 28.4 C 175.5 27.2 172.4 28.1 173.5 28.5 Z M 173.7 24.5 C 173.8 25.0 174.1 24.4 174.1 24.3 C 173.9 24.3 173.8 24.3 173.7 24.5 Z M 173.7 20.1 C 173.4 20.0 173.5 20.4 173.7 20.3 C 173.9 20.3 173.8 20.1 173.7 20.1 Z M 172.9 34.3 C 173.1 34.3 173.1 34.1 172.9 34.1 C 172.7 34.2 172.6 34.4 172.9 34.3 Z M 172.7 23.3 C 172.8 23.4 172.9 23.4 172.8 23.1 C 172.7 23.0 172.6 23.2 172.7 23.3 Z M 172.6 9.9 C 172.7 10.0 172.9 10.1 173.0 10.2 C 173.2 10.1 173.3 9.2 173.6 9.2 C 173.6 9.2 173.6 9.3 173.6 9.3 C 173.6 9.3 173.7 9.2 173.7 9.2 C 173.8 9.3 174.0 9.4 173.8 9.4 C 173.9 9.5 173.9 9.7 174.0 9.9 C 174.2 9.6 174.4 9.3 174.2 9.1 C 174.0 8.8 173.4 8.7 172.9 8.8 C 172.8 9.0 172.7 9.1 172.7 9.3 C 172.7 9.3 172.7 9.3 172.7 9.3 C 173.0 9.5 173.2 9.7 173.0 9.7 C 172.8 9.7 172.7 9.7 172.6 9.6 C 172.6 9.7 172.6 9.8 172.6 9.9 Z M 172.1 21.6 C 172.2 22.0 172.4 21.7 172.5 21.3 C 172.6 21.0 171.9 21.3 172.1 21.6 Z M 172.4 33.8 C 172.4 33.7 172.4 33.6 172.3 33.5 C 172.2 33.6 172.2 33.6 172.2 33.7 C 172.2 33.9 172.1 34.2 172.0 34.4 C 172.3 34.4 172.6 34.2 172.4 33.8 Z M 171.2 30.0 C 171.2 30.1 171.1 31.7 171.5 31.4 C 172.1 31.0 172.7 31.6 172.4 30.5 C 172.3 29.9 171.5 29.5 171.3 28.9 C 170.7 26.1 170.6 29.6 170.4 30.4 C 170.4 30.5 171.1 29.8 171.2 30.0 Z M 170.3 26.2 C 170.1 26.1 169.7 26.5 169.8 26.7 C 169.9 27.4 170.6 26.4 170.3 26.2 Z M 169.9 34.2 C 169.9 34.2 170.0 34.2 170.1 34.2 C 170.0 34.1 169.9 34.1 169.9 34.1 C 169.9 34.1 169.9 34.1 169.9 34.2 Z M 169.6 36.2 C 170.4 35.5 168.9 35.5 168.5 35.7 C 168.0 35.9 169.2 36.5 169.6 36.2 Z M 169.0 28.4 C 169.0 27.8 167.4 27.1 167.4 28.1 C 167.5 29.1 168.9 29.6 169.0 28.4 Z M 166.9 22.4 C 167.1 22.6 166.8 23.3 166.5 22.9 C 166.4 22.7 166.8 22.3 166.9 22.4 Z M 166.0 31.3 C 166.1 31.1 166.1 31.3 166.1 31.3 C 165.9 31.4 165.9 31.4 166.0 31.3 Z M 167.2 30.4 C 167.1 30.7 167.0 31.0 166.9 31.3 C 166.8 31.5 166.7 30.9 166.7 30.8 C 166.7 30.6 167.2 30.5 167.2 30.4 Z M 167.3 25.7 C 167.1 26.0 167.1 25.6 167.1 25.4 C 167.2 25.2 167.4 25.5 167.3 25.7 Z M 166.9 26.8 C 167.0 26.7 167.2 26.8 167.1 27.0 C 167.1 27.3 166.9 27.0 166.9 26.8 Z M 167.9 24.9 C 168.0 25.4 168.1 26.1 167.7 26.0 C 167.5 26.0 167.6 23.9 167.9 24.9 Z M 167.9 24.9 " fill="#A93F2C"></path></g></svg>