<?xml version="1.0" encoding="UTF-8" standalone="no"?><svg xmlns="http://www.w3.org/2000/svg" xmlns:xlink="http://www.w3.org/1999/xlink" clip-rule="evenodd" stroke-miterlimit="4.00" viewBox="0 0 217 105"><desc>SVG generated by Keynote</desc><defs></defs><g transform="matrix(1.00, 0.00, -0.00, -1.00, 0.0, 105.0)"><path d="M 5.0 101.8 C 4.8 101.9 4.7 101.5 4.3 101.4 C 3.8 101.3 3.3 101.3 3.4 101.5 C 3.5 101.7 3.7 101.9 3.4 102.2 C 3.2 102.5 3.0 103.0 3.3 103.2 C 3.6 103.4 4.8 103.9 5.1 103.7 C 5.5 103.4 5.6 103.3 5.9 103.1 C 6.2 102.9 6.0 103.5 6.0 103.5 C 6.0 103.5 6.7 103.6 7.1 103.6 C 7.6 103.7 8.2 103.7 8.2 103.6 C 8.3 103.5 8.4 103.3 8.4 103.3 C 8.4 103.3 8.7 103.5 9.1 103.6 C 9.4 103.7 9.3 103.5 9.2 103.4 C 9.2 103.2 8.7 102.8 8.9 102.8 C 9.0 102.8 9.5 103.4 9.8 103.5 C 10.0 103.5 10.6 103.5 10.6 103.5 C 10.6 103.5 10.5 103.2 10.6 103.1 C 10.6 103.0 11.2 103.0 11.2 103.1 C 11.2 103.2 11.2 103.6 11.4 103.6 C 12.3 103.7 12.2 103.0 12.3 103.0 C 12.3 103.0 12.3 103.5 12.6 103.5 C 12.8 103.6 14.5 103.5 14.5 103.4 C 14.6 103.3 15.2 103.8 15.5 103.4 C 15.7 103.1 15.8 103.0 15.8 103.0 C 15.8 102.9 16.1 102.4 16.3 102.6 C 16.5 102.8 15.8 103.3 16.1 103.5 C 16.3 103.7 17.3 103.7 17.5 103.5 C 17.7 103.3 17.8 102.8 17.9 102.8 C 18.1 102.8 18.7 103.5 18.8 103.4 C 18.8 103.2 18.9 102.7 18.8 102.6 C 18.8 102.5 19.0 101.6 18.8 101.5 C 18.7 101.3 18.0 101.0 18.1 101.2 C 18.2 101.5 18.4 101.9 18.2 102.0 C 18.0 102.1 17.9 102.1 17.8 102.0 C 17.7 101.9 17.9 101.8 17.5 101.6 C 17.1 101.4 17.3 101.2 16.9 101.2 C 16.6 101.3 16.3 101.3 16.3 101.5 C 16.4 101.7 16.0 102.0 15.7 102.0 C 15.5 102.0 15.9 101.5 15.1 101.4 C 14.3 101.2 13.8 101.1 13.6 101.3 C 13.4 101.5 13.3 102.0 13.0 101.8 C 12.6 101.5 12.8 101.4 12.3 101.4 C 11.8 101.4 11.6 101.9 11.3 101.9 C 10.9 101.9 10.8 101.9 10.8 101.9 C 10.8 101.9 11.0 101.3 10.3 101.2 C 9.5 101.2 9.4 101.1 9.6 101.6 C 9.7 102.0 9.2 102.1 9.1 101.8 C 9.1 101.5 8.7 101.3 8.4 101.2 C 8.2 101.2 8.1 102.0 8.0 102.0 C 7.9 102.0 7.6 102.0 7.7 101.7 C 7.8 101.5 7.5 101.4 7.3 101.3 C 7.1 101.2 6.4 101.3 6.4 101.4 C 6.4 101.6 6.8 102.1 6.3 101.8 C 5.9 101.6 5.7 101.2 5.3 101.2 C 4.9 101.2 5.3 101.7 5.0 101.8 C 5.0 101.8 5.0 101.8 5.0 101.8 Z M 19.1 101.2 C 18.3 101.2 19.0 103.2 19.3 103.6 C 19.6 104.0 20.1 103.8 20.7 103.8 C 21.2 103.9 21.0 103.3 21.3 103.1 C 21.5 102.9 21.5 103.3 21.6 103.6 C 21.8 103.9 22.6 103.7 23.0 103.7 C 23.5 103.7 24.0 103.1 24.4 103.0 C 24.7 103.0 24.0 102.7 24.7 102.7 C 25.4 102.7 25.1 103.1 24.3 103.3 C 23.5 103.5 24.6 103.7 25.1 103.8 C 25.5 103.8 26.2 103.5 26.6 103.6 C 26.9 103.6 26.5 103.1 27.0 103.1 C 27.5 103.1 27.3 103.7 27.8 103.7 C 28.3 103.8 28.2 103.3 28.4 103.2 C 28.7 103.1 28.6 103.4 28.9 103.4 C 29.1 103.5 29.5 103.6 29.9 103.5 C 30.4 103.4 30.2 103.3 30.5 103.2 C 30.7 103.2 31.0 103.2 31.0 103.2 C 31.1 103.4 31.1 103.5 31.2 103.7 C 31.2 103.7 32.1 103.7 32.3 103.8 C 32.6 103.8 33.2 103.6 33.0 103.5 C 32.8 103.4 33.4 103.0 33.5 103.1 C 33.6 103.2 34.1 103.4 34.4 103.5 C 34.8 103.7 34.5 102.4 34.5 102.2 C 34.4 102.0 34.5 101.3 34.2 101.2 C 34.0 101.2 33.8 101.4 33.8 101.2 C 33.8 101.1 33.1 101.2 32.9 101.2 C 32.6 101.2 32.4 101.7 32.4 101.7 C 32.4 101.7 32.3 102.1 31.9 102.1 C 31.6 102.1 31.4 101.3 31.4 101.3 C 31.4 101.3 30.9 101.2 30.5 101.2 C 30.1 101.2 29.7 101.9 29.6 102.0 C 29.5 102.2 29.5 101.6 29.2 101.5 C 28.9 101.4 28.4 101.2 28.3 101.3 C 28.1 101.3 28.0 101.7 28.0 101.7 C 28.0 101.7 27.4 102.0 27.3 102.0 C 27.2 102.0 27.3 101.4 27.3 101.4 C 27.3 101.4 26.2 101.2 25.9 101.2 C 25.7 101.1 25.3 101.3 25.1 101.3 C 25.0 101.3 24.8 102.1 24.5 102.0 C 24.3 101.9 24.7 101.5 24.5 101.5 C 24.2 101.4 23.7 101.2 23.6 101.2 C 23.5 101.2 23.3 101.5 23.1 101.5 C 22.9 101.6 22.6 102.1 22.3 102.1 C 22.0 102.1 21.7 101.8 21.6 101.7 C 21.5 101.6 21.3 101.2 21.1 101.1 C 20.8 101.1 21.0 101.5 20.8 101.5 C 20.5 101.5 20.5 101.8 20.3 101.8 C 20.0 101.7 20.1 101.1 19.8 101.2 C 19.7 101.2 19.8 101.2 19.1 101.2 C 19.1 101.2 19.1 101.2 19.1 101.2 Z M 34.9 101.3 C 34.5 101.0 34.2 101.4 34.3 101.7 C 34.4 101.9 34.6 102.7 34.5 102.9 C 34.4 103.1 34.0 103.6 34.7 103.7 C 35.4 103.8 35.5 103.6 35.5 103.4 C 35.4 103.2 35.5 102.5 35.6 102.6 C 35.8 102.6 36.0 102.8 36.1 102.9 C 36.1 103.0 36.5 103.8 36.8 103.7 C 37.1 103.6 37.4 103.4 37.4 103.4 C 37.5 103.3 37.7 103.3 37.9 103.3 C 37.9 103.3 38.4 103.8 38.7 103.7 C 39.0 103.6 39.4 103.6 39.7 103.6 C 40.0 103.6 40.2 103.6 40.2 103.4 C 40.3 103.2 40.5 102.6 40.5 102.6 C 40.5 102.6 40.9 102.4 41.1 102.5 C 41.2 102.6 41.4 103.0 41.3 103.1 C 41.3 103.2 41.4 103.6 41.7 103.7 C 42.0 103.7 43.2 104.1 43.3 103.9 C 43.5 103.7 43.4 103.4 43.5 103.3 C 43.6 103.2 44.3 103.2 44.4 103.4 C 44.5 103.6 44.6 103.9 44.8 103.9 C 45.0 103.9 45.5 104.0 45.4 103.9 C 45.4 103.8 45.5 103.7 45.5 103.5 C 45.5 103.2 45.9 103.1 46.0 103.0 C 46.0 102.9 46.4 102.8 46.4 102.8 C 46.5 102.9 46.7 103.1 46.9 103.2 C 46.9 103.2 46.7 103.6 46.6 103.6 C 46.5 103.7 46.7 103.9 46.9 104.0 C 47.0 104.0 47.8 103.9 47.8 103.9 C 47.8 103.7 47.7 103.4 47.7 103.1 C 47.9 103.0 48.1 103.0 48.3 102.9 C 48.3 102.9 48.4 103.9 48.8 103.9 C 49.2 103.9 49.7 103.9 49.7 103.9 C 49.7 103.9 50.0 103.5 50.1 103.5 C 50.2 103.5 50.0 102.6 50.0 102.6 C 49.9 102.2 49.8 101.9 49.7 101.5 C 49.7 101.5 49.2 101.2 48.9 101.3 C 48.7 101.4 49.0 101.8 49.0 102.0 C 49.0 102.2 48.6 102.3 48.6 102.3 C 48.4 102.2 48.2 102.0 48.0 101.8 C 48.0 101.8 47.8 101.6 47.6 101.4 C 47.3 101.2 46.7 101.1 46.6 101.2 C 46.4 101.3 46.3 101.5 46.1 101.7 C 45.9 101.9 46.0 102.2 45.7 101.9 C 45.4 101.7 45.2 101.4 45.1 101.4 C 44.9 101.4 44.4 101.8 44.4 101.8 C 44.3 101.8 44.2 101.9 44.0 102.0 C 44.0 102.0 43.6 102.2 43.5 102.0 C 43.4 101.8 42.6 102.0 42.6 102.0 C 42.6 102.0 42.6 101.4 42.4 101.3 C 42.1 101.2 41.7 101.0 41.4 101.1 C 41.1 101.2 40.9 101.8 40.9 101.8 C 40.8 101.7 40.7 101.5 40.5 101.4 C 40.2 101.3 39.9 101.3 39.5 101.2 C 39.5 101.2 38.8 101.3 38.8 101.4 C 38.8 101.5 39.0 102.0 39.0 102.1 C 39.0 102.3 38.6 102.5 38.5 102.3 C 38.4 102.1 38.0 101.6 38.0 101.6 C 38.0 101.6 37.7 101.3 37.4 101.3 C 37.2 101.2 36.9 101.4 36.8 101.5 C 36.8 101.6 36.5 102.0 36.5 102.0 C 36.3 101.8 36.2 101.7 36.1 101.5 C 36.1 101.5 35.6 101.8 34.9 101.3 C 34.9 101.3 34.9 101.3 34.9 101.3 Z M 50.0 101.2 C 49.2 101.2 50.1 103.2 50.5 103.6 C 50.9 104.0 51.4 103.8 51.9 103.8 C 52.5 103.9 52.2 103.3 52.4 103.1 C 52.7 102.9 52.7 103.3 52.9 103.6 C 53.1 103.9 53.8 103.7 54.3 103.7 C 54.8 103.7 55.1 103.1 55.5 103.0 C 55.9 103.0 55.1 102.7 55.8 102.7 C 56.5 102.7 56.2 103.1 55.5 103.3 C 54.7 103.5 55.9 103.7 56.3 103.8 C 56.8 103.8 57.5 103.5 57.8 103.6 C 58.2 103.6 57.6 103.1 58.1 103.1 C 58.6 103.1 58.5 103.7 59.0 103.7 C 59.6 103.8 59.4 103.3 59.6 103.2 C 59.8 103.1 59.9 103.4 60.1 103.4 C 60.3 103.5 60.7 103.6 61.1 103.5 C 61.6 103.4 61.4 103.3 61.6 103.2 C 61.8 103.2 62.2 103.2 62.2 103.2 C 62.3 103.4 62.4 103.5 62.5 103.7 C 62.5 103.7 63.3 103.7 63.6 103.8 C 63.9 103.8 64.4 103.6 64.2 103.5 C 64.0 103.4 64.5 103.0 64.7 103.1 C 64.8 103.2 65.3 103.4 65.7 103.5 C 66.0 103.7 65.5 102.4 65.5 102.2 C 65.4 102.0 65.4 101.3 65.1 101.2 C 64.8 101.2 64.7 101.4 64.7 101.2 C 64.7 101.1 64.0 101.2 63.7 101.2 C 63.5 101.2 63.4 101.7 63.4 101.7 C 63.4 101.7 63.3 102.1 63.0 102.1 C 62.6 102.1 62.3 101.3 62.3 101.3 C 62.3 101.3 61.8 101.2 61.4 101.2 C 61.0 101.2 60.7 101.9 60.6 102.0 C 60.6 102.2 60.4 101.6 60.1 101.5 C 59.8 101.4 59.3 101.2 59.2 101.3 C 59.0 101.3 58.9 101.7 58.9 101.7 C 58.9 101.7 58.4 102.0 58.3 102.0 C 58.2 102.0 58.2 101.4 58.2 101.4 C 58.2 101.4 57.0 101.2 56.8 101.2 C 56.5 101.1 56.2 101.3 56.0 101.3 C 55.9 101.3 55.8 102.1 55.5 102.0 C 55.2 101.9 55.7 101.5 55.4 101.5 C 55.1 101.4 54.6 101.2 54.5 101.2 C 54.3 101.2 54.2 101.5 54.0 101.5 C 53.8 101.6 53.7 102.1 53.3 102.1 C 53.0 102.1 52.7 101.8 52.6 101.7 C 52.4 101.6 52.2 101.2 52.0 101.1 C 51.7 101.1 51.9 101.5 51.7 101.5 C 51.4 101.5 51.5 101.8 51.2 101.8 C 51.0 101.7 51.0 101.1 50.7 101.2 C 50.6 101.2 50.7 101.2 50.0 101.2 C 50.0 101.2 50.0 101.2 50.0 101.2 Z M 65.8 101.3 C 65.3 101.0 65.1 101.4 65.2 101.7 C 65.4 101.9 65.7 102.7 65.6 102.9 C 65.6 103.1 65.3 103.6 66.0 103.7 C 66.7 103.8 66.7 103.6 66.7 103.4 C 66.6 103.2 66.5 102.5 66.7 102.6 C 66.9 102.6 67.1 102.8 67.2 102.9 C 67.3 103.0 67.8 103.8 68.1 103.7 C 68.4 103.6 68.6 103.4 68.6 103.4 C 68.7 103.3 68.9 103.3 69.1 103.3 C 69.1 103.3 69.6 103.8 70.0 103.7 C 70.3 103.6 70.7 103.6 70.9 103.6 C 71.2 103.6 71.5 103.6 71.4 103.4 C 71.4 103.2 71.6 102.6 71.6 102.6 C 71.6 102.6 71.9 102.4 72.1 102.5 C 72.3 102.6 72.5 103.0 72.5 103.1 C 72.5 103.2 72.7 103.6 72.9 103.7 C 73.2 103.7 74.5 104.1 74.6 103.9 C 74.7 103.7 74.6 103.4 74.7 103.3 C 74.8 103.2 75.5 103.2 75.6 103.4 C 75.8 103.6 75.9 103.9 76.1 103.9 C 76.3 103.9 76.7 104.0 76.7 103.9 C 76.7 103.8 76.8 103.7 76.7 103.5 C 76.7 103.2 77.0 103.1 77.1 103.0 C 77.2 102.9 77.5 102.8 77.5 102.8 C 77.7 102.9 77.9 103.1 78.0 103.2 C 78.0 103.2 77.9 103.6 77.8 103.6 C 77.7 103.7 78.0 103.9 78.2 104.0 C 78.3 104.0 79.1 103.9 79.1 103.9 C 79.0 103.7 78.9 103.4 78.8 103.1 C 79.0 103.0 79.2 103.0 79.4 102.9 C 79.4 102.9 79.7 103.9 80.1 103.9 C 80.5 103.9 81.0 103.9 81.0 103.9 C 81.0 103.9 81.2 103.5 81.3 103.5 C 81.4 103.5 81.1 102.6 81.1 102.6 C 81.0 102.2 80.8 101.9 80.6 101.5 C 80.6 101.5 80.0 101.2 79.8 101.3 C 79.6 101.4 80.0 101.8 80.0 102.0 C 80.0 102.2 79.7 102.3 79.7 102.3 C 79.4 102.2 79.2 102.0 78.9 101.8 C 78.9 101.8 78.7 101.6 78.5 101.4 C 78.2 101.2 77.6 101.1 77.4 101.2 C 77.3 101.3 77.2 101.5 77.0 101.7 C 76.9 101.9 77.0 102.2 76.7 101.9 C 76.3 101.7 76.1 101.4 76.0 101.4 C 75.9 101.4 75.4 101.8 75.4 101.8 C 75.3 101.8 75.2 101.9 75.0 102.0 C 75.0 102.0 74.7 102.2 74.5 102.0 C 74.4 101.8 73.6 102.0 73.6 102.0 C 73.6 102.0 73.5 101.4 73.2 101.3 C 73.0 101.2 72.6 101.0 72.3 101.1 C 72.0 101.2 71.9 101.8 71.9 101.8 C 71.7 101.7 71.6 101.5 71.4 101.4 C 71.1 101.3 70.8 101.3 70.4 101.2 C 70.4 101.2 69.7 101.3 69.7 101.4 C 69.7 101.5 70.0 102.0 70.0 102.1 C 70.0 102.3 69.7 102.5 69.6 102.3 C 69.5 102.1 69.0 101.6 69.0 101.6 C 69.0 101.6 68.6 101.3 68.3 101.3 C 68.1 101.2 67.8 101.4 67.7 101.5 C 67.7 101.6 67.5 102.0 67.5 102.0 C 67.3 101.8 67.2 101.7 67.0 101.5 C 67.0 101.5 66.5 101.8 65.8 101.3 C 65.8 101.3 65.8 101.3 65.8 101.3 Z M 80.8 101.2 C 80.1 101.2 81.3 103.2 81.8 103.6 C 82.2 104.0 82.7 103.8 83.2 103.8 C 83.8 103.9 83.4 103.3 83.6 103.1 C 83.8 102.9 83.9 103.3 84.1 103.6 C 84.3 103.9 85.0 103.7 85.5 103.7 C 86.0 103.7 86.3 103.1 86.7 103.0 C 87.0 103.0 86.2 102.7 86.9 102.7 C 87.6 102.7 87.4 103.1 86.7 103.3 C 86.0 103.5 87.1 103.7 87.6 103.8 C 88.1 103.8 88.7 103.5 89.1 103.6 C 89.4 103.6 88.8 103.1 89.3 103.1 C 89.8 103.1 89.7 103.7 90.3 103.7 C 90.8 103.8 90.6 103.3 90.8 103.2 C 91.0 103.1 91.1 103.4 91.3 103.4 C 91.5 103.5 91.9 103.6 92.4 103.5 C 92.8 103.4 92.6 103.3 92.8 103.2 C 93.0 103.2 93.4 103.2 93.4 103.2 C 93.5 103.4 93.6 103.5 93.7 103.7 C 93.7 103.7 94.6 103.7 94.9 103.8 C 95.1 103.8 95.6 103.6 95.4 103.5 C 95.2 103.4 95.7 103.0 95.8 103.1 C 96.0 103.2 96.5 103.4 96.9 103.5 C 97.2 103.7 96.6 102.4 96.5 102.2 C 96.4 102.0 96.3 101.3 96.0 101.2 C 95.7 101.2 95.6 101.4 95.6 101.2 C 95.5 101.1 94.8 101.2 94.6 101.2 C 94.4 101.2 94.4 101.7 94.4 101.7 C 94.4 101.7 94.3 102.1 94.0 102.1 C 93.6 102.1 93.2 101.3 93.2 101.3 C 93.2 101.3 92.7 101.2 92.3 101.2 C 91.8 101.2 91.6 101.9 91.6 102.0 C 91.6 102.2 91.4 101.6 91.0 101.5 C 90.7 101.4 90.2 101.2 90.1 101.3 C 89.9 101.3 89.9 101.7 89.9 101.7 C 89.9 101.7 89.4 102.0 89.3 102.0 C 89.2 102.0 89.2 101.4 89.2 101.4 C 89.2 101.4 87.9 101.2 87.7 101.2 C 87.4 101.1 87.1 101.3 86.9 101.3 C 86.8 101.3 86.8 102.1 86.5 102.0 C 86.2 101.9 86.6 101.5 86.3 101.5 C 86.0 101.4 85.5 101.2 85.4 101.2 C 85.2 101.2 85.2 101.5 85.0 101.5 C 84.8 101.6 84.7 102.1 84.3 102.1 C 84.0 102.1 83.7 101.8 83.5 101.7 C 83.4 101.6 83.1 101.2 82.8 101.1 C 82.5 101.1 82.9 101.5 82.6 101.5 C 82.4 101.5 82.5 101.8 82.2 101.8 C 81.9 101.7 81.9 101.1 81.6 101.2 C 81.5 101.2 81.6 101.2 80.8 101.2 C 80.8 101.2 80.8 101.2 80.8 101.2 Z M 97.9 101.8 C 97.8 101.9 97.5 101.5 97.0 101.4 C 96.5 101.3 96.0 101.3 96.2 101.5 C 96.4 101.7 96.6 101.9 96.5 102.2 C 96.4 102.5 96.4 103.0 96.8 103.2 C 97.2 103.4 98.6 103.9 98.9 103.7 C 99.1 103.4 99.2 103.3 99.4 103.1 C 99.6 102.9 99.7 103.5 99.7 103.5 C 99.7 103.5 100.4 103.6 100.9 103.6 C 101.4 103.7 101.9 103.7 101.9 103.6 C 101.9 103.5 102.0 103.3 102.0 103.3 C 102.0 103.3 102.4 103.5 102.8 103.6 C 103.1 103.7 102.9 103.5 102.8 103.4 C 102.7 103.2 102.1 102.8 102.3 102.8 C 102.4 102.8 103.1 103.4 103.4 103.5 C 103.7 103.5 104.2 103.5 104.2 103.5 C 104.2 103.5 104.0 103.2 104.0 103.1 C 104.0 103.0 104.6 103.0 104.7 103.1 C 104.7 103.2 104.9 103.6 105.2 103.6 C 106.1 103.7 105.6 103.0 105.7 103.0 C 105.8 103.0 106.0 103.5 106.2 103.5 C 106.5 103.6 108.2 103.5 108.2 103.4 C 108.2 103.3 109.0 103.8 109.1 103.4 C 109.2 103.1 109.2 103.0 109.2 103.0 C 109.2 102.9 109.3 102.4 109.6 102.6 C 109.8 102.8 109.4 103.3 109.7 103.5 C 110.0 103.7 111.1 103.7 111.2 103.5 C 111.3 103.3 111.1 102.8 111.3 102.8 C 111.4 102.8 112.4 103.5 112.4 103.4 C 112.4 103.2 112.2 102.7 112.1 102.6 C 112.1 102.5 111.8 101.6 111.6 101.5 C 111.4 101.3 110.6 101.0 110.8 101.2 C 111.0 101.5 111.3 101.9 111.2 102.0 C 111.0 102.1 110.9 102.1 110.8 102.0 C 110.7 101.9 110.8 101.8 110.3 101.6 C 109.8 101.4 109.9 101.2 109.6 101.2 C 109.2 101.3 109.0 101.3 109.1 101.5 C 109.2 101.7 109.0 102.0 108.8 102.0 C 108.5 102.0 108.7 101.5 107.8 101.4 C 106.9 101.2 106.4 101.1 106.3 101.3 C 106.1 101.5 106.4 102.0 105.9 101.8 C 105.4 101.5 105.5 101.4 105.0 101.4 C 104.5 101.4 104.5 101.9 104.2 101.9 C 103.9 101.9 103.8 101.9 103.8 101.9 C 103.8 101.9 103.7 101.3 102.9 101.2 C 102.2 101.2 102.0 101.1 102.4 101.6 C 102.7 102.0 102.2 102.1 102.0 101.8 C 101.9 101.5 101.3 101.3 101.1 101.2 C 100.8 101.2 101.1 102.0 101.0 102.0 C 100.9 102.0 100.6 102.0 100.6 101.7 C 100.6 101.5 100.3 101.4 100.0 101.3 C 99.8 101.2 99.1 101.3 99.2 101.4 C 99.3 101.6 99.8 102.1 99.3 101.8 C 98.7 101.6 98.4 101.2 98.0 101.2 C 97.6 101.2 98.1 101.7 97.9 101.8 C 97.9 101.8 97.9 101.8 97.9 101.8 Z M 112.1 101.3 C 111.6 101.0 111.5 101.4 111.6 101.7 C 111.8 101.9 112.3 102.7 112.3 102.9 C 112.3 103.1 112.1 103.6 112.8 103.7 C 113.5 103.8 113.6 103.6 113.5 103.4 C 113.4 103.2 113.1 102.5 113.3 102.6 C 113.5 102.6 113.8 102.8 113.9 102.9 C 114.0 103.0 114.7 103.8 114.9 103.7 C 115.2 103.6 115.4 103.4 115.4 103.4 C 115.5 103.3 115.7 103.3 115.8 103.3 C 115.8 103.3 116.5 103.8 116.8 103.7 C 117.1 103.6 117.5 103.6 117.8 103.6 C 118.1 103.6 118.3 103.6 118.3 103.4 C 118.2 103.2 118.2 102.6 118.2 102.6 C 118.2 102.6 118.5 102.4 118.7 102.5 C 119.0 102.6 119.2 103.0 119.2 103.1 C 119.3 103.2 119.5 103.6 119.8 103.7 C 120.1 103.7 121.5 104.1 121.5 103.9 C 121.6 103.7 121.4 103.4 121.5 103.3 C 121.6 103.2 122.3 103.2 122.5 103.4 C 122.6 103.6 122.8 103.9 123.0 103.9 C 123.2 103.9 123.7 104.0 123.6 103.9 C 123.6 103.8 123.7 103.7 123.5 103.5 C 123.4 103.2 123.8 103.1 123.8 103.0 C 123.8 102.9 124.2 102.8 124.2 102.8 C 124.4 102.9 124.6 103.1 124.8 103.2 C 124.8 103.2 124.8 103.6 124.7 103.6 C 124.6 103.7 124.9 103.9 125.1 104.0 C 125.2 104.0 126.0 103.9 126.0 103.9 C 125.9 103.7 125.7 103.4 125.6 103.1 C 125.8 103.0 125.9 103.0 126.1 102.9 C 126.1 102.9 126.6 103.9 127.0 103.9 C 127.4 103.9 127.9 103.9 127.9 103.9 C 127.9 103.9 128.1 103.5 128.1 103.5 C 128.2 103.5 127.7 102.6 127.7 102.6 C 127.5 102.2 127.3 101.9 127.0 101.5 C 127.0 101.5 126.3 101.2 126.2 101.3 C 126.0 101.4 126.4 101.8 126.5 102.0 C 126.5 102.2 126.3 102.3 126.3 102.3 C 126.0 102.2 125.7 102.0 125.4 101.8 C 125.4 101.8 125.1 101.6 124.8 101.4 C 124.6 101.2 123.9 101.1 123.8 101.2 C 123.6 101.3 123.6 101.5 123.5 101.7 C 123.4 101.9 123.6 102.2 123.2 101.9 C 122.8 101.7 122.5 101.4 122.4 101.4 C 122.2 101.4 121.9 101.8 121.9 101.8 C 121.7 101.8 121.6 101.9 121.5 102.0 C 121.5 102.0 121.2 102.2 121.0 102.0 C 120.8 101.8 120.1 102.0 120.1 102.0 C 120.1 102.0 119.9 101.4 119.6 101.3 C 119.3 101.2 118.9 101.0 118.6 101.1 C 118.3 101.2 118.4 101.8 118.4 101.8 C 118.2 101.7 118.0 101.5 117.8 101.4 C 117.4 101.3 117.1 101.3 116.7 101.2 C 116.7 101.2 116.0 101.3 116.1 101.4 C 116.1 101.5 116.5 102.0 116.5 102.1 C 116.6 102.3 116.3 102.5 116.1 102.3 C 116.0 102.1 115.4 101.6 115.4 101.6 C 115.4 101.6 114.9 101.3 114.7 101.3 C 114.4 101.2 114.2 101.4 114.1 101.5 C 114.1 101.6 114.0 102.0 114.0 102.0 C 113.8 101.8 113.6 101.7 113.4 101.5 C 113.4 101.5 113.0 101.8 112.1 101.3 C 112.1 101.3 112.1 101.3 112.1 101.3 Z M 127.2 101.2 C 126.4 101.2 128.1 103.2 128.6 103.6 C 129.2 104.0 129.6 103.8 130.1 103.8 C 130.7 103.9 130.1 103.3 130.3 103.1 C 130.5 102.9 130.7 103.3 131.0 103.6 C 131.3 103.9 131.9 103.7 132.4 103.7 C 132.9 103.7 133.0 103.1 133.4 103.0 C 133.7 103.0 132.8 102.7 133.5 102.7 C 134.3 102.7 134.1 103.1 133.5 103.3 C 132.8 103.5 134.0 103.7 134.5 103.8 C 135.0 103.8 135.5 103.5 135.9 103.6 C 136.3 103.6 135.5 103.1 136.0 103.1 C 136.5 103.1 136.6 103.7 137.2 103.7 C 137.7 103.8 137.4 103.3 137.6 103.2 C 137.7 103.1 137.9 103.4 138.1 103.4 C 138.4 103.5 138.8 103.6 139.2 103.5 C 139.6 103.4 139.4 103.3 139.6 103.2 C 139.8 103.2 140.2 103.2 140.2 103.2 C 140.3 103.4 140.4 103.5 140.6 103.7 C 140.6 103.7 141.5 103.7 141.8 103.8 C 142.0 103.8 142.5 103.6 142.3 103.5 C 142.0 103.4 142.4 103.0 142.6 103.1 C 142.8 103.2 143.4 103.4 143.7 103.5 C 144.1 103.7 143.2 102.4 143.1 102.2 C 142.9 102.0 142.6 101.3 142.3 101.2 C 142.0 101.2 142.0 101.4 141.9 101.2 C 141.8 101.1 141.2 101.2 141.0 101.2 C 140.7 101.2 140.8 101.7 140.8 101.7 C 140.8 101.7 140.8 102.1 140.5 102.1 C 140.2 102.1 139.5 101.3 139.5 101.3 C 139.5 101.3 139.0 101.2 138.6 101.2 C 138.2 101.2 138.1 101.9 138.1 102.0 C 138.1 102.2 137.8 101.6 137.4 101.5 C 137.1 101.4 136.5 101.2 136.4 101.3 C 136.3 101.3 136.3 101.7 136.3 101.7 C 136.3 101.7 135.9 102.0 135.8 102.0 C 135.7 102.0 135.5 101.4 135.5 101.4 C 135.5 101.4 134.2 101.2 134.0 101.2 C 133.7 101.1 133.4 101.3 133.3 101.3 C 133.1 101.3 133.3 102.1 133.0 102.0 C 132.7 101.9 133.0 101.5 132.7 101.5 C 132.4 101.4 131.8 101.2 131.7 101.2 C 131.6 101.2 131.5 101.5 131.4 101.5 C 131.2 101.6 131.2 102.1 130.9 102.1 C 130.5 102.1 130.1 101.8 130.0 101.7 C 129.8 101.6 129.4 101.2 129.1 101.1 C 128.9 101.1 129.2 101.5 129.0 101.5 C 128.7 101.5 129.0 101.8 128.7 101.8 C 128.3 101.7 128.2 101.1 127.9 101.2 C 127.8 101.2 127.9 101.2 127.2 101.2 C 127.2 101.2 127.2 101.2 127.2 101.2 Z M 143.0 101.3 C 142.5 101.0 142.4 101.4 142.6 101.7 C 142.8 101.9 143.4 102.7 143.5 102.9 C 143.5 103.1 143.4 103.6 144.1 103.7 C 144.8 103.8 144.8 103.6 144.7 103.4 C 144.6 103.2 144.2 102.5 144.4 102.6 C 144.6 102.6 145.0 102.8 145.1 102.9 C 145.2 103.0 145.9 103.8 146.2 103.7 C 146.4 103.6 146.6 103.4 146.6 103.4 C 146.7 103.3 146.9 103.3 147.0 103.3 C 147.0 103.3 147.8 103.8 148.1 103.7 C 148.3 103.6 148.7 103.6 149.0 103.6 C 149.3 103.6 149.5 103.6 149.5 103.4 C 149.4 103.2 149.3 102.6 149.3 102.6 C 149.3 102.6 149.6 102.4 149.8 102.5 C 150.1 102.6 150.4 103.0 150.4 103.1 C 150.5 103.2 150.7 103.6 151.1 103.7 C 151.4 103.7 152.8 104.1 152.8 103.9 C 152.8 103.7 152.6 103.4 152.7 103.3 C 152.7 103.2 153.5 103.2 153.7 103.4 C 153.8 103.6 154.1 103.9 154.3 103.9 C 154.5 103.9 155.0 104.0 154.9 103.9 C 154.8 103.8 154.9 103.7 154.8 103.5 C 154.6 103.2 154.9 103.1 155.0 103.0 C 155.0 102.9 155.3 102.8 155.3 102.8 C 155.5 102.9 155.7 103.1 156.0 103.2 C 156.0 103.2 156.0 103.6 155.9 103.6 C 155.8 103.7 156.2 103.9 156.4 104.0 C 156.5 104.0 157.3 103.9 157.3 103.9 C 157.1 103.7 156.9 103.4 156.7 103.1 C 156.9 103.0 157.1 103.0 157.2 102.9 C 157.2 102.9 157.9 103.9 158.3 103.9 C 158.7 103.9 159.2 103.9 159.2 103.9 C 159.2 103.9 159.3 103.5 159.4 103.5 C 159.4 103.5 158.8 102.6 158.8 102.6 C 158.5 102.2 158.3 101.9 158.0 101.5 C 158.0 101.5 157.2 101.2 157.1 101.3 C 156.9 101.4 157.4 101.8 157.5 102.0 C 157.6 102.2 157.3 102.3 157.3 102.3 C 157.0 102.2 156.7 102.0 156.3 101.8 C 156.3 101.8 156.1 101.6 155.8 101.4 C 155.5 101.2 154.8 101.1 154.6 101.2 C 154.5 101.3 154.5 101.5 154.4 101.7 C 154.3 101.9 154.6 102.2 154.2 101.9 C 153.7 101.7 153.4 101.4 153.3 101.4 C 153.1 101.4 152.8 101.8 152.8 101.8 C 152.7 101.8 152.6 101.9 152.5 102.0 C 152.5 102.0 152.2 102.2 152.0 102.0 C 151.8 101.8 151.1 102.0 151.1 102.0 C 151.1 102.0 150.8 101.4 150.5 101.3 C 150.2 101.2 149.7 101.0 149.5 101.1 C 149.2 101.2 149.3 101.8 149.3 101.8 C 149.1 101.7 148.9 101.5 148.7 101.4 C 148.3 101.3 148.0 101.3 147.6 101.2 C 147.6 101.2 146.9 101.3 147.0 101.4 C 147.1 101.5 147.5 102.0 147.5 102.1 C 147.6 102.3 147.3 102.5 147.2 102.3 C 147.0 102.1 146.3 101.6 146.3 101.6 C 146.3 101.6 145.8 101.3 145.6 101.3 C 145.3 101.2 145.1 101.4 145.1 101.5 C 145.1 101.6 145.0 102.0 145.0 102.0 C 144.8 101.8 144.6 101.7 144.4 101.5 C 144.4 101.5 143.9 101.8 143.0 101.3 C 143.0 101.3 143.0 101.3 143.0 101.3 Z M 158.1 101.2 C 157.3 101.2 159.3 103.2 159.9 103.6 C 160.5 104.0 160.8 103.8 161.4 103.8 C 162.0 103.9 161.3 103.3 161.5 103.1 C 161.7 102.9 161.9 103.3 162.2 103.6 C 162.6 103.9 163.2 103.7 163.7 103.7 C 164.2 103.7 164.2 103.1 164.5 103.0 C 164.9 103.0 163.9 102.7 164.6 102.7 C 165.4 102.7 165.3 103.1 164.7 103.3 C 164.0 103.5 165.3 103.7 165.8 103.8 C 166.3 103.8 166.8 103.5 167.1 103.6 C 167.5 103.6 166.7 103.1 167.2 103.1 C 167.7 103.1 167.9 103.7 168.4 103.7 C 169.0 103.8 168.6 103.3 168.7 103.2 C 168.9 103.1 169.1 103.4 169.3 103.4 C 169.6 103.5 170.0 103.6 170.4 103.5 C 170.8 103.4 170.6 103.3 170.8 103.2 C 170.9 103.2 171.3 103.2 171.3 103.2 C 171.5 103.4 171.7 103.5 171.8 103.7 C 171.8 103.7 172.7 103.7 173.0 103.8 C 173.3 103.8 173.7 103.6 173.5 103.5 C 173.2 103.4 173.6 103.0 173.7 103.1 C 173.9 103.2 174.6 103.4 175.0 103.5 C 175.4 103.7 174.2 102.4 174.1 102.2 C 173.9 102.0 173.5 101.3 173.2 101.2 C 172.9 101.2 172.9 101.4 172.8 101.2 C 172.7 101.1 172.1 101.2 171.8 101.2 C 171.6 101.2 171.8 101.7 171.8 101.7 C 171.8 101.7 171.9 102.1 171.5 102.1 C 171.2 102.1 170.4 101.3 170.4 101.3 C 170.4 101.3 169.9 101.2 169.5 101.2 C 169.1 101.2 169.1 101.9 169.1 102.0 C 169.2 102.2 168.7 101.6 168.3 101.5 C 168.0 101.4 167.4 101.2 167.3 101.3 C 167.2 101.3 167.3 101.7 167.3 101.7 C 167.3 101.7 166.9 102.0 166.8 102.0 C 166.7 102.0 166.4 101.4 166.4 101.4 C 166.4 101.4 165.1 101.2 164.8 101.2 C 164.6 101.1 164.3 101.3 164.2 101.3 C 164.0 101.3 164.3 102.1 164.0 102.0 C 163.7 101.9 163.9 101.5 163.6 101.5 C 163.3 101.4 162.7 101.2 162.6 101.2 C 162.5 101.2 162.5 101.5 162.3 101.5 C 162.1 101.6 162.2 102.1 161.9 102.1 C 161.5 102.1 161.1 101.8 160.9 101.7 C 160.7 101.6 160.3 101.2 160.0 101.1 C 159.7 101.1 160.2 101.5 159.9 101.5 C 159.7 101.5 159.9 101.8 159.6 101.8 C 159.3 101.7 159.0 101.1 158.8 101.2 C 158.7 101.2 158.8 101.2 158.1 101.2 C 158.1 101.2 158.1 101.2 158.1 101.2 Z M 173.9 101.3 C 173.3 101.0 173.3 101.4 173.5 101.7 C 173.8 101.9 174.5 102.7 174.6 102.9 C 174.6 103.1 174.6 103.6 175.3 103.7 C 176.1 103.8 176.0 103.6 175.9 103.4 C 175.8 103.2 175.3 102.5 175.5 102.6 C 175.7 102.6 176.1 102.8 176.2 102.9 C 176.3 103.0 177.2 103.8 177.4 103.7 C 177.7 103.6 177.8 103.4 177.8 103.4 C 177.9 103.3 178.1 103.3 178.2 103.3 C 178.2 103.3 179.0 103.8 179.3 103.7 C 179.6 103.6 180.0 103.6 180.3 103.6 C 180.6 103.6 180.8 103.6 180.7 103.4 C 180.6 103.2 180.4 102.6 180.4 102.6 C 180.4 102.6 180.6 102.4 180.9 102.5 C 181.2 102.6 181.5 103.0 181.6 103.1 C 181.6 103.2 182.0 103.6 182.3 103.7 C 182.6 103.7 184.1 104.1 184.1 103.9 C 184.1 103.7 183.8 103.4 183.9 103.3 C 183.9 103.2 184.7 103.2 184.9 103.4 C 185.1 103.6 185.4 103.9 185.5 103.9 C 185.7 103.9 186.3 104.0 186.2 103.9 C 186.1 103.8 186.1 103.7 186.0 103.5 C 185.8 103.2 186.1 103.1 186.1 103.0 C 186.1 102.9 186.4 102.8 186.4 102.8 C 186.7 102.9 186.9 103.1 187.2 103.2 C 187.2 103.2 187.2 103.6 187.2 103.6 C 187.1 103.7 187.5 103.9 187.7 104.0 C 187.8 104.0 188.6 103.9 188.6 103.9 C 188.4 103.7 188.1 103.4 187.9 103.1 C 188.1 103.0 188.2 103.0 188.4 102.9 C 188.4 102.9 189.2 103.9 189.6 103.9 C 190.0 103.9 190.4 103.9 190.4 103.9 C 190.4 103.9 190.5 103.5 190.6 103.5 C 190.7 103.5 189.9 102.6 189.9 102.6 C 189.6 102.2 189.2 101.9 188.9 101.5 C 188.9 101.5 188.1 101.2 188.0 101.3 C 187.8 101.4 188.4 101.8 188.5 102.0 C 188.6 102.2 188.4 102.3 188.4 102.3 C 188.0 102.2 187.7 102.0 187.3 101.8 C 187.3 101.8 187.0 101.6 186.7 101.4 C 186.3 101.2 185.6 101.1 185.5 101.2 C 185.4 101.3 185.4 101.5 185.4 101.7 C 185.3 101.9 185.6 102.2 185.2 101.9 C 184.7 101.7 184.3 101.4 184.2 101.4 C 184.1 101.4 183.8 101.8 183.8 101.8 C 183.7 101.8 183.6 101.9 183.5 102.0 C 183.5 102.0 183.2 102.2 183.0 102.0 C 182.8 101.8 182.1 102.0 182.1 102.0 C 182.1 102.0 181.7 101.4 181.4 101.3 C 181.1 101.2 180.6 101.0 180.3 101.1 C 180.1 101.2 180.3 101.8 180.3 101.8 C 180.1 101.7 179.8 101.5 179.6 101.4 C 179.2 101.3 178.9 101.3 178.5 101.2 C 178.5 101.2 177.8 101.3 177.9 101.4 C 178.0 101.5 178.5 102.0 178.6 102.1 C 178.6 102.3 178.4 102.5 178.2 102.3 C 178.0 102.1 177.3 101.6 177.3 101.6 C 177.3 101.6 176.7 101.3 176.5 101.3 C 176.2 101.2 176.0 101.4 176.0 101.5 C 176.0 101.6 176.0 102.0 176.0 102.0 C 175.7 101.8 175.5 101.7 175.3 101.5 C 175.3 101.5 174.9 101.8 173.9 101.3 C 173.9 101.3 173.9 101.3 173.9 101.3 Z M 188.9 101.2 C 188.2 101.2 190.5 103.2 191.1 103.6 C 191.8 104.0 192.1 103.8 192.7 103.8 C 193.3 103.9 192.5 103.3 192.7 103.1 C 192.8 102.9 193.1 103.3 193.4 103.6 C 193.8 103.9 194.4 103.7 194.9 103.7 C 195.4 103.7 195.3 103.1 195.7 103.0 C 196.0 103.0 195.0 102.7 195.7 102.7 C 196.5 102.7 196.5 103.1 195.9 103.3 C 195.2 103.5 196.5 103.7 197.0 103.8 C 197.5 103.8 198.0 103.5 198.4 103.6 C 198.8 103.6 197.9 103.1 198.4 103.1 C 198.9 103.1 199.1 103.7 199.7 103.7 C 200.3 103.8 199.8 103.3 199.9 103.2 C 200.1 103.1 200.3 103.4 200.5 103.4 C 200.8 103.5 201.3 103.6 201.6 103.5 C 202.0 103.4 201.8 103.3 201.9 103.2 C 202.1 103.2 202.5 103.2 202.5 103.2 C 202.7 103.4 202.9 103.5 203.1 103.7 C 203.1 103.7 204.0 103.7 204.3 103.8 C 204.6 103.8 205.0 103.6 204.7 103.5 C 204.4 103.4 204.7 103.0 204.9 103.1 C 205.1 103.2 205.8 103.4 206.2 103.5 C 206.6 103.7 205.3 102.4 205.1 102.2 C 204.9 102.0 204.4 101.3 204.1 101.2 C 203.8 101.2 203.8 101.4 203.7 101.2 C 203.5 101.1 202.9 101.2 202.7 101.2 C 202.5 101.2 202.7 101.7 202.7 101.7 C 202.7 101.7 202.9 102.1 202.5 102.1 C 202.2 102.1 201.3 101.3 201.3 101.3 C 201.3 101.3 200.7 101.2 200.3 101.2 C 199.9 101.2 200.1 101.9 200.1 102.0 C 200.2 102.2 199.6 101.6 199.3 101.5 C 198.9 101.4 198.3 101.2 198.2 101.3 C 198.1 101.3 198.2 101.7 198.2 101.7 C 198.2 101.7 197.9 102.0 197.8 102.0 C 197.7 102.0 197.3 101.4 197.3 101.4 C 197.3 101.4 196.0 101.2 195.7 101.2 C 195.4 101.1 195.2 101.3 195.1 101.3 C 194.9 101.3 195.4 102.1 195.0 102.0 C 194.7 101.9 194.9 101.5 194.5 101.5 C 194.2 101.4 193.6 101.2 193.5 101.2 C 193.3 101.2 193.4 101.5 193.2 101.5 C 193.0 101.6 193.2 102.1 192.9 102.1 C 192.5 102.1 192.1 101.8 191.9 101.7 C 191.7 101.6 191.2 101.2 190.9 101.1 C 190.6 101.1 191.1 101.5 190.8 101.5 C 190.6 101.5 190.9 101.8 190.6 101.8 C 190.3 101.7 189.9 101.1 189.7 101.2 C 189.6 101.2 189.7 101.2 188.9 101.2 C 188.9 101.2 188.9 101.2 188.9 101.2 Z M 206.3 101.8 C 206.2 101.9 205.7 101.5 205.2 101.4 C 204.7 101.3 204.1 101.3 204.4 101.5 C 204.8 101.7 205.1 101.9 205.1 102.2 C 205.2 102.5 205.4 103.0 205.9 103.2 C 206.4 103.4 208.1 103.9 208.2 103.7 C 208.3 103.4 208.4 103.3 208.5 103.1 C 208.6 102.9 209.0 103.5 209.0 103.5 C 209.0 103.5 209.7 103.6 210.2 103.6 C 210.7 103.7 211.3 103.7 211.2 103.6 C 211.2 103.5 211.2 103.3 211.2 103.3 C 211.2 103.3 211.7 103.5 212.1 103.6 C 212.5 103.7 212.2 103.5 212.0 103.4 C 211.8 103.2 211.0 102.8 211.2 102.8 C 211.3 102.8 212.4 103.4 212.7 103.5 C 213.0 103.5 213.5 103.5 213.5 103.5 C 213.5 103.5 213.1 103.2 213.1 103.1 C 213.1 103.0 213.6 103.0 213.7 103.1 C 213.9 103.2 214.2 103.6 214.5 103.6 C 214.9 103.6 215.0 103.5 214.9 103.4 C 214.8 103.1 214.5 102.9 214.5 102.8 C 214.5 102.7 215.0 103.2 215.1 103.1 C 215.2 103.0 215.1 101.2 215.0 101.0 C 214.8 100.7 215.3 100.6 215.0 100.0 C 214.7 99.5 214.6 99.3 214.5 99.2 C 214.4 99.1 213.9 98.3 214.1 98.3 C 214.3 98.3 214.9 99.5 215.0 99.5 C 215.2 99.4 215.2 98.4 215.1 98.0 C 214.8 97.6 214.4 97.1 214.4 96.9 C 214.4 96.8 215.0 96.7 214.9 96.6 C 214.8 96.5 214.3 95.9 214.2 95.8 C 214.1 95.7 213.1 94.7 213.0 94.8 C 212.9 94.8 212.5 95.1 212.8 95.2 C 213.1 95.4 213.4 95.5 213.5 95.9 C 213.6 96.2 213.6 96.3 213.5 96.3 C 213.4 96.3 213.3 96.0 213.2 96.2 C 213.0 96.4 212.8 96.1 212.8 96.4 C 212.8 96.8 212.9 97.1 213.1 97.3 C 213.3 97.5 213.6 98.1 213.5 98.3 C 213.5 98.6 213.1 97.7 212.9 98.3 C 212.7 98.9 212.7 99.4 212.8 99.8 C 213.0 100.2 213.6 100.7 213.3 100.9 C 213.1 101.0 212.9 100.7 213.0 101.2 C 213.0 101.3 213.0 101.4 213.0 101.5 C 212.8 101.6 212.9 101.9 212.7 101.9 C 212.3 101.9 212.2 101.9 212.2 101.9 C 212.2 101.9 211.8 101.3 211.0 101.2 C 210.3 101.2 210.1 101.1 210.7 101.6 C 211.3 102.0 210.7 102.1 210.4 101.8 C 210.1 101.5 209.5 101.3 209.2 101.2 C 208.9 101.2 209.6 102.0 209.5 102.0 C 209.4 102.0 209.1 102.0 208.9 101.7 C 208.8 101.5 208.5 101.4 208.2 101.3 C 207.9 101.2 207.3 101.3 207.4 101.4 C 207.5 101.6 208.4 102.1 207.7 101.8 C 207.0 101.6 206.5 101.2 206.1 101.2 C 205.7 101.2 206.5 101.7 206.3 101.8 C 206.3 101.8 206.3 101.8 206.3 101.8 Z M 212.8 94.0 C 212.6 94.2 212.9 94.8 213.2 95.0 C 213.5 95.2 214.2 95.7 214.4 96.0 C 214.6 96.3 215.1 97.2 215.2 96.6 C 215.3 96.0 215.1 95.7 215.0 95.6 C 214.8 95.4 214.0 94.6 214.1 94.5 C 214.2 94.4 214.4 94.4 214.5 94.4 C 214.6 94.5 215.3 94.8 215.2 94.4 C 215.1 94.0 214.9 93.5 214.9 93.5 C 214.9 93.4 214.9 93.2 214.9 93.0 C 214.9 93.0 215.3 92.9 215.2 92.5 C 215.1 92.1 215.1 91.7 215.1 91.4 C 215.2 91.2 215.1 90.9 214.9 90.7 C 214.8 90.5 214.1 89.7 214.1 89.7 C 214.1 89.7 214.0 89.2 214.1 89.1 C 214.2 89.0 214.5 89.2 214.7 89.3 C 214.8 89.5 215.1 89.7 215.2 89.5 C 215.3 89.2 215.6 88.3 215.4 88.0 C 215.2 87.7 214.9 87.5 214.9 87.3 C 214.8 87.2 214.8 86.4 214.9 86.4 C 215.1 86.5 215.5 86.8 215.4 86.5 C 215.4 86.3 215.5 85.9 215.4 85.8 C 215.3 85.8 215.2 85.6 215.0 85.4 C 214.8 85.2 214.6 84.7 214.5 84.5 C 214.4 84.4 214.4 84.0 214.4 84.0 C 214.5 83.9 214.6 83.9 214.7 83.8 C 214.7 83.8 215.1 84.3 215.2 84.5 C 215.2 84.6 215.5 84.6 215.5 84.5 C 215.6 84.3 215.5 83.4 215.5 83.4 C 215.2 83.3 214.9 83.1 214.6 82.9 C 214.6 82.6 214.5 82.4 214.4 82.2 C 214.4 82.2 215.5 82.8 215.5 82.4 C 215.5 82.0 215.5 81.5 215.5 81.5 C 215.5 81.5 215.1 80.9 215.0 80.8 C 215.0 80.7 214.1 80.1 214.1 80.1 C 213.8 80.0 213.4 79.8 213.1 79.6 C 213.1 79.6 212.7 79.9 212.8 80.2 C 213.0 80.6 213.4 80.6 213.5 80.7 C 213.7 80.9 213.9 81.3 213.9 81.3 C 213.7 81.4 213.5 81.5 213.3 81.5 C 213.3 81.5 213.1 81.6 213.0 81.7 C 212.8 81.7 212.7 82.3 212.7 82.5 C 212.8 82.7 213.1 83.0 213.2 83.3 C 213.4 83.7 213.7 83.8 213.5 83.9 C 213.2 84.0 213.0 84.0 213.0 84.1 C 213.0 84.2 213.3 85.0 213.3 85.0 C 213.4 85.2 213.5 85.4 213.5 85.7 C 213.5 85.7 213.7 86.2 213.5 86.1 C 213.3 86.0 213.5 87.0 213.5 87.0 C 213.5 87.0 212.9 86.5 212.8 86.7 C 212.7 86.8 212.6 87.0 212.7 87.5 C 212.8 87.9 213.4 88.6 213.4 88.6 C 213.2 88.6 213.1 88.6 212.9 88.5 C 212.9 88.8 212.8 89.1 212.8 89.4 C 212.8 89.4 212.8 90.2 212.9 90.2 C 213.0 90.3 213.5 90.6 213.7 90.8 C 213.8 90.9 214.0 91.5 213.8 91.4 C 213.6 91.3 213.2 91.2 213.2 91.2 C 213.2 91.2 212.8 91.3 212.8 91.5 C 212.8 91.7 213.0 92.1 213.1 92.3 C 213.2 92.5 213.5 93.1 213.5 93.1 C 213.4 93.1 213.2 93.1 213.1 93.0 C 213.1 93.0 213.3 93.8 212.8 94.0 C 212.8 94.0 212.8 94.0 212.8 94.0 Z M 212.7 79.1 C 212.8 79.9 214.8 80.5 215.2 80.4 C 215.6 80.3 215.3 79.7 215.4 79.2 C 215.5 78.7 214.8 78.5 214.7 78.1 C 214.5 77.7 214.9 78.0 215.2 78.1 C 215.5 78.1 215.2 77.1 215.2 76.7 C 215.3 76.2 214.6 75.4 214.6 75.0 C 214.5 74.5 214.2 75.1 214.2 74.5 C 214.3 73.8 214.7 74.3 214.9 75.2 C 215.1 76.1 215.2 75.0 215.3 74.6 C 215.4 74.2 215.1 73.3 215.1 73.0 C 215.2 72.7 214.7 72.9 214.7 72.4 C 214.7 71.9 215.2 72.3 215.3 71.9 C 215.4 71.4 214.9 71.3 214.8 71.0 C 214.7 70.6 214.9 70.8 215.0 70.6 C 215.0 70.4 215.2 70.1 215.1 69.6 C 214.9 69.1 214.8 69.1 214.8 68.9 C 214.7 68.7 214.7 68.3 214.7 68.3 C 214.9 68.3 215.1 68.3 215.2 68.4 C 215.2 68.4 215.3 67.5 215.3 67.2 C 215.4 67.0 215.1 66.3 215.0 66.4 C 214.9 66.6 214.6 65.9 214.7 65.8 C 214.7 65.7 215.0 65.3 215.1 65.0 C 215.2 64.7 213.9 64.5 213.7 64.5 C 213.6 64.4 212.9 64.1 212.8 64.3 C 212.7 64.5 213.0 64.8 212.8 64.7 C 212.6 64.6 212.8 65.4 212.8 65.7 C 212.8 65.9 213.3 66.3 213.3 66.3 C 213.3 66.3 213.7 66.6 213.7 66.9 C 213.7 67.3 212.9 67.2 212.9 67.2 C 212.9 67.2 212.7 67.5 212.7 68.0 C 212.8 68.4 213.4 69.1 213.6 69.2 C 213.7 69.3 213.1 69.1 213.0 69.4 C 213.0 69.7 212.8 70.0 212.8 70.2 C 212.9 70.3 213.3 70.7 213.3 70.7 C 213.3 70.7 213.5 71.3 213.5 71.4 C 213.5 71.6 212.9 71.1 212.9 71.1 C 212.9 71.1 212.7 72.2 212.7 72.4 C 212.6 72.6 212.8 73.1 212.8 73.3 C 212.9 73.4 213.6 74.0 213.6 74.2 C 213.5 74.5 213.1 73.8 213.0 74.0 C 212.9 74.2 212.8 74.6 212.8 74.7 C 212.8 74.9 213.0 75.2 213.1 75.4 C 213.1 75.6 213.7 76.2 213.7 76.5 C 213.7 76.9 213.3 76.9 213.3 77.0 C 213.2 77.0 212.7 76.9 212.7 77.1 C 212.7 77.4 213.0 77.4 213.0 77.6 C 213.0 77.9 213.4 78.1 213.3 78.3 C 213.2 78.5 212.6 78.0 212.7 78.4 C 212.7 78.5 212.7 78.4 212.7 79.1 C 212.7 79.1 212.7 79.1 212.7 79.1 Z M 212.8 63.7 C 212.6 64.0 212.9 64.4 213.2 64.4 C 213.5 64.4 214.2 64.5 214.4 64.7 C 214.6 64.9 215.1 65.4 215.2 64.8 C 215.3 64.1 215.1 64.0 215.0 63.9 C 214.8 63.9 214.0 63.6 214.1 63.4 C 214.2 63.3 214.4 63.1 214.5 63.1 C 214.6 63.1 215.3 63.0 215.2 62.6 C 215.1 62.3 214.9 61.9 214.9 61.9 C 214.9 61.8 214.9 61.6 214.9 61.4 C 214.9 61.4 215.3 61.1 215.2 60.7 C 215.1 60.3 215.1 59.9 215.1 59.7 C 215.2 59.4 215.1 59.1 214.9 59.1 C 214.8 59.0 214.1 58.6 214.1 58.6 C 214.1 58.6 214.0 58.1 214.1 58.0 C 214.2 57.8 214.5 57.8 214.7 57.9 C 214.8 57.9 215.1 57.9 215.2 57.7 C 215.3 57.4 215.6 56.3 215.4 56.1 C 215.2 55.9 214.9 55.9 214.9 55.8 C 214.8 55.6 214.8 54.9 214.9 54.8 C 215.1 54.7 215.5 54.8 215.4 54.6 C 215.4 54.4 215.5 53.9 215.4 53.9 C 215.3 53.9 215.2 53.8 215.0 53.7 C 214.8 53.7 214.6 53.3 214.5 53.2 C 214.4 53.1 214.4 52.7 214.4 52.7 C 214.5 52.6 214.6 52.4 214.7 52.3 C 214.7 52.3 215.1 52.6 215.2 52.7 C 215.2 52.8 215.5 52.6 215.5 52.5 C 215.6 52.3 215.5 51.5 215.5 51.5 C 215.2 51.5 214.9 51.5 214.6 51.4 C 214.6 51.2 214.5 51.0 214.4 50.8 C 214.4 50.8 215.5 50.9 215.5 50.5 C 215.5 50.1 215.5 49.6 215.5 49.6 C 215.5 49.6 215.1 49.2 215.0 49.1 C 215.0 49.0 214.1 49.0 214.1 49.0 C 213.8 49.1 213.4 49.1 213.1 49.2 C 213.1 49.2 212.7 49.7 212.8 49.9 C 213.0 50.2 213.4 49.9 213.5 50.0 C 213.7 50.0 213.9 50.4 213.9 50.4 C 213.7 50.6 213.5 50.7 213.3 50.9 C 213.3 50.9 213.1 51.1 213.0 51.3 C 212.8 51.4 212.7 52.0 212.7 52.2 C 212.8 52.4 213.1 52.6 213.2 52.8 C 213.4 53.0 213.7 52.9 213.5 53.2 C 213.2 53.5 213.0 53.6 213.0 53.7 C 213.0 53.8 213.3 54.4 213.3 54.4 C 213.4 54.6 213.5 54.7 213.5 54.9 C 213.5 54.9 213.7 55.3 213.5 55.4 C 213.3 55.4 213.5 56.3 213.5 56.3 C 213.5 56.3 212.9 56.1 212.8 56.4 C 212.7 56.6 212.6 56.9 212.7 57.2 C 212.8 57.6 213.4 57.9 213.4 57.9 C 213.2 58.0 213.1 58.1 212.9 58.2 C 212.9 58.5 212.8 58.8 212.8 59.1 C 212.8 59.1 212.8 59.8 212.9 59.9 C 213.0 59.9 213.5 59.9 213.7 59.9 C 213.8 60.0 214.0 60.4 213.8 60.4 C 213.6 60.5 213.2 60.7 213.2 60.7 C 213.2 60.7 212.8 61.0 212.8 61.2 C 212.8 61.4 213.0 61.8 213.1 61.9 C 213.2 62.0 213.5 62.4 213.5 62.4 C 213.4 62.4 213.2 62.5 213.1 62.6 C 213.1 62.6 213.3 63.2 212.8 63.7 C 212.8 63.7 212.8 63.7 212.8 63.7 Z M 213.3 47.5 C 213.4 47.6 213.1 47.8 212.9 48.2 C 212.8 48.7 212.8 49.2 213.0 49.1 C 213.3 48.9 213.4 48.8 213.7 49.0 C 214.0 49.2 214.6 49.4 214.7 49.1 C 214.9 48.8 215.5 47.5 215.2 47.2 C 214.9 46.8 214.8 46.7 214.6 46.4 C 214.5 46.2 215.1 46.3 215.1 46.3 C 215.1 46.3 215.1 45.6 215.2 45.1 C 215.2 44.6 215.2 44.1 215.1 44.0 C 215.0 44.0 214.8 43.9 214.8 43.9 C 214.8 43.9 215.1 43.6 215.1 43.2 C 215.2 42.8 215.0 43.0 214.9 43.1 C 214.8 43.1 214.4 43.6 214.4 43.5 C 214.4 43.3 215.0 42.8 215.0 42.5 C 215.1 42.2 215.0 41.7 215.0 41.7 C 215.0 41.7 214.7 41.8 214.6 41.8 C 214.6 41.7 214.5 41.2 214.6 41.1 C 214.8 41.1 215.1 41.0 215.1 40.8 C 215.2 39.9 214.5 40.1 214.5 40.1 C 214.5 40.0 215.0 39.9 215.1 39.6 C 215.2 39.4 215.1 37.7 215.0 37.7 C 214.8 37.6 215.3 36.9 215.0 36.7 C 214.7 36.6 214.6 36.5 214.5 36.5 C 214.4 36.5 213.9 36.3 214.1 36.1 C 214.3 35.9 214.9 36.4 215.0 36.1 C 215.2 35.8 215.2 34.8 215.1 34.6 C 214.8 34.4 214.4 34.5 214.4 34.4 C 214.4 34.2 215.0 33.4 214.9 33.4 C 214.8 33.4 214.3 33.5 214.2 33.5 C 214.1 33.6 213.1 33.7 213.0 33.9 C 212.9 34.1 212.5 34.8 212.8 34.6 C 213.1 34.5 213.4 34.2 213.5 34.4 C 213.6 34.6 213.6 34.7 213.5 34.8 C 213.4 34.8 213.3 34.8 213.2 35.2 C 213.0 35.6 212.8 35.5 212.8 35.8 C 212.8 36.2 212.9 36.5 213.1 36.4 C 213.3 36.3 213.6 36.5 213.5 36.8 C 213.5 37.1 213.1 36.8 212.9 37.6 C 212.7 38.4 212.7 38.9 212.8 39.1 C 213.0 39.3 213.6 39.2 213.3 39.6 C 213.1 40.0 212.9 39.9 213.0 40.4 C 213.0 40.9 213.4 41.0 213.4 41.3 C 213.4 41.6 213.4 41.7 213.4 41.7 C 213.4 41.7 212.8 41.7 212.8 42.4 C 212.7 43.1 212.7 43.3 213.1 43.0 C 213.6 42.8 213.6 43.3 213.3 43.4 C 213.0 43.5 212.8 43.9 212.8 44.2 C 212.7 44.4 213.5 44.4 213.5 44.5 C 213.5 44.6 213.5 44.9 213.3 44.8 C 213.0 44.7 213.0 45.0 212.9 45.2 C 212.8 45.5 212.9 46.1 213.0 46.1 C 213.1 46.1 213.6 45.7 213.4 46.2 C 213.1 46.6 212.7 46.8 212.8 47.2 C 212.8 47.6 213.2 47.2 213.3 47.5 C 213.3 47.5 213.3 47.5 213.3 47.5 Z M 212.8 33.4 C 212.6 33.8 212.9 34.0 213.2 33.9 C 213.5 33.7 214.2 33.3 214.4 33.4 C 214.6 33.4 215.1 33.7 215.2 33.0 C 215.3 32.3 215.1 32.2 215.0 32.3 C 214.8 32.3 214.0 32.5 214.1 32.3 C 214.2 32.1 214.4 31.8 214.5 31.8 C 214.6 31.7 215.3 31.1 215.2 30.8 C 215.1 30.5 214.9 30.3 214.9 30.3 C 214.9 30.2 214.9 30.0 214.9 29.9 C 214.9 29.9 215.3 29.2 215.2 28.9 C 215.1 28.6 215.1 28.2 215.1 27.9 C 215.2 27.6 215.1 27.4 214.9 27.4 C 214.8 27.5 214.1 27.4 214.1 27.4 C 214.1 27.4 214.0 27.1 214.1 26.9 C 214.2 26.7 214.5 26.4 214.7 26.4 C 214.8 26.4 215.1 26.2 215.2 25.9 C 215.3 25.6 215.6 24.2 215.4 24.1 C 215.2 24.1 214.9 24.3 214.9 24.2 C 214.8 24.1 214.8 23.3 214.9 23.2 C 215.1 23.0 215.5 22.8 215.4 22.6 C 215.4 22.4 215.5 21.9 215.4 22.0 C 215.3 22.0 215.2 22.0 215.0 22.1 C 214.8 22.2 214.6 21.8 214.5 21.8 C 214.4 21.8 214.4 21.5 214.4 21.5 C 214.5 21.2 214.6 21.0 214.7 20.8 C 214.7 20.8 215.1 20.8 215.2 20.9 C 215.2 21.0 215.5 20.6 215.5 20.5 C 215.6 20.3 215.5 19.5 215.5 19.5 C 215.2 19.7 214.9 19.8 214.6 20.0 C 214.6 19.8 214.5 19.7 214.4 19.5 C 214.4 19.5 215.5 18.9 215.5 18.5 C 215.5 18.1 215.5 17.6 215.5 17.6 C 215.5 17.6 215.1 17.5 215.0 17.4 C 215.0 17.3 214.1 17.9 214.1 17.9 C 213.8 18.2 213.4 18.4 213.1 18.7 C 213.1 18.7 212.7 19.4 212.8 19.6 C 213.0 19.7 213.4 19.3 213.5 19.2 C 213.7 19.1 213.9 19.4 213.9 19.4 C 213.7 19.7 213.5 20.0 213.3 20.3 C 213.3 20.3 213.1 20.6 213.0 20.9 C 212.8 21.2 212.7 21.8 212.7 21.9 C 212.8 22.1 213.1 22.1 213.2 22.2 C 213.4 22.3 213.7 22.1 213.5 22.5 C 213.2 22.9 213.0 23.2 213.0 23.3 C 213.0 23.4 213.3 23.8 213.3 23.8 C 213.4 23.9 213.5 24.0 213.5 24.1 C 213.5 24.1 213.7 24.4 213.5 24.6 C 213.3 24.8 213.5 25.5 213.5 25.5 C 213.5 25.5 212.9 25.8 212.8 26.0 C 212.7 26.3 212.6 26.7 212.7 27.0 C 212.8 27.3 213.4 27.3 213.4 27.3 C 213.2 27.4 213.1 27.6 212.9 27.8 C 212.9 28.1 212.8 28.5 212.8 28.8 C 212.8 28.8 212.8 29.5 212.9 29.5 C 213.0 29.4 213.5 29.1 213.7 29.1 C 213.8 29.1 214.0 29.4 213.8 29.5 C 213.6 29.6 213.2 30.2 213.2 30.2 C 213.2 30.2 212.8 30.6 212.8 30.9 C 212.8 31.1 213.0 31.4 213.1 31.4 C 213.2 31.4 213.5 31.6 213.5 31.6 C 213.4 31.8 213.2 31.9 213.1 32.1 C 213.1 32.1 213.3 32.6 212.8 33.4 C 212.8 33.4 212.8 33.4 212.8 33.4 Z M 213.3 16.8 C 213.4 16.9 213.1 17.3 212.9 17.8 C 212.8 18.4 212.8 18.9 213.0 18.6 C 213.3 18.4 213.4 18.1 213.7 18.1 C 214.0 18.1 214.6 18.0 214.7 17.6 C 214.9 17.1 215.5 15.6 215.2 15.4 C 214.9 15.2 214.8 15.1 214.6 15.0 C 214.5 14.8 215.1 14.6 215.1 14.6 C 215.1 14.6 215.1 13.9 215.2 13.4 C 215.2 12.9 215.2 12.3 215.1 12.3 C 215.0 12.3 214.8 12.3 214.8 12.3 C 214.8 12.3 215.1 11.8 215.1 11.4 C 215.2 11.0 215.0 11.3 214.9 11.5 C 214.8 11.6 214.4 12.4 214.4 12.2 C 214.4 12.1 215.0 11.1 215.0 10.8 C 215.1 10.5 215.0 10.0 215.0 10.0 C 215.0 10.0 214.7 10.3 214.6 10.3 C 214.6 10.3 214.5 9.8 214.6 9.7 C 214.8 9.6 215.1 9.3 215.1 9.0 C 215.2 8.1 214.5 8.8 214.5 8.7 C 214.5 8.6 215.0 8.2 215.1 7.9 C 215.2 7.6 215.1 6.0 215.0 6.0 C 214.8 6.0 215.3 5.0 215.0 5.1 C 214.7 5.1 214.6 5.1 214.5 5.1 C 214.4 5.2 213.9 5.3 214.1 5.0 C 214.3 4.6 214.9 4.8 215.0 4.4 C 215.2 4.1 215.2 2.9 215.1 2.9 C 214.8 2.9 214.4 3.3 214.4 3.1 C 214.4 3.0 215.0 1.7 214.9 1.8 C 214.8 1.8 214.3 2.3 214.2 2.4 C 214.2 2.4 214.1 2.4 214.1 2.4 C 213.8 2.7 212.9 3.4 212.9 3.5 C 212.9 3.6 212.9 3.6 212.9 3.6 C 212.8 3.9 212.6 4.7 212.8 4.4 C 213.1 4.0 213.4 3.5 213.5 3.6 C 213.6 3.7 213.6 3.8 213.5 4.0 C 213.4 4.1 213.3 4.1 213.2 4.7 C 213.0 5.2 212.8 5.2 212.8 5.6 C 212.8 5.9 212.9 6.1 213.1 5.9 C 213.3 5.7 213.6 5.8 213.5 6.0 C 213.5 6.3 213.1 6.3 212.9 7.2 C 212.7 8.2 212.7 8.7 212.8 8.8 C 213.0 8.8 213.6 8.4 213.3 9.0 C 213.1 9.6 212.9 9.5 213.0 10.0 C 213.0 10.5 213.4 10.3 213.4 10.6 C 213.4 10.9 213.4 11.0 213.4 11.0 C 213.4 11.0 212.8 11.4 212.8 12.1 C 212.7 12.8 212.7 13.0 213.1 12.5 C 213.6 12.0 213.6 12.5 213.3 12.8 C 213.0 13.0 212.8 13.6 212.8 13.9 C 212.7 14.2 213.5 13.6 213.5 13.7 C 213.5 13.8 213.5 14.1 213.3 14.2 C 213.0 14.3 213.0 14.6 212.9 14.9 C 212.8 15.2 212.9 15.8 213.0 15.7 C 213.1 15.6 213.6 14.9 213.4 15.5 C 213.1 16.1 212.7 16.5 212.8 16.9 C 212.8 17.4 213.2 16.7 213.3 16.8 C 213.3 16.8 213.3 16.8 213.3 16.8 Z M 212.2 3.7 C 212.3 4.0 212.9 3.6 213.2 3.4 C 213.4 3.1 214.0 2.3 214.3 2.1 C 214.4 2.1 214.4 2.1 214.5 2.0 C 214.9 1.8 215.4 1.5 215.2 1.3 C 215.2 1.3 215.1 1.3 215.1 1.3 C 214.5 1.2 214.2 1.4 214.0 1.6 C 213.8 1.8 213.0 2.5 212.9 2.4 C 212.7 2.4 212.8 2.2 212.8 2.1 C 212.9 2.0 213.4 1.2 212.9 1.3 C 212.5 1.4 212.0 1.7 212.0 1.7 C 211.8 1.7 211.7 1.7 211.5 1.7 C 211.5 1.7 211.5 1.2 211.0 1.3 C 210.6 1.4 210.2 1.4 209.9 1.4 C 209.7 1.4 209.4 1.4 209.2 1.6 C 209.0 1.8 208.0 2.4 208.0 2.4 C 208.0 2.4 207.5 2.6 207.4 2.5 C 207.3 2.4 207.6 2.0 207.8 1.9 C 207.9 1.8 208.2 1.4 208.0 1.3 C 207.8 1.3 207.0 0.9 206.6 1.1 C 206.3 1.3 206.0 1.6 205.8 1.7 C 205.7 1.8 204.9 1.8 205.0 1.6 C 205.1 1.4 205.4 1.1 205.2 1.1 C 204.9 1.1 204.6 1.0 204.5 1.1 C 204.4 1.2 204.2 1.3 204.0 1.5 C 203.8 1.8 203.2 1.9 203.0 2.0 C 202.8 2.1 202.4 2.2 202.4 2.2 C 202.4 2.1 202.3 1.9 202.3 1.8 C 202.3 1.8 202.9 1.4 203.1 1.4 C 203.3 1.3 203.3 1.1 203.2 1.0 C 203.1 1.0 202.2 1.1 202.2 1.1 C 201.9 1.3 201.6 1.6 201.4 1.9 C 201.1 2.0 200.9 2.0 200.6 2.1 C 200.6 2.1 201.6 1.1 201.2 1.1 C 200.8 1.1 200.3 1.1 200.3 1.1 C 200.3 1.1 199.5 1.5 199.4 1.5 C 199.3 1.5 198.5 2.4 198.5 2.4 C 198.2 2.8 197.9 3.1 197.7 3.5 C 197.7 3.5 197.8 3.8 198.2 3.7 C 198.6 3.6 198.7 3.2 198.9 3.0 C 199.1 2.8 199.6 2.7 199.6 2.7 C 199.6 2.8 199.6 3.0 199.7 3.2 C 199.7 3.2 199.7 3.4 199.7 3.6 C 199.7 3.8 200.2 3.9 200.5 3.8 C 200.7 3.7 201.1 3.5 201.4 3.3 C 201.8 3.1 202.1 2.8 202.1 3.1 C 202.1 3.3 202.0 3.6 202.2 3.6 C 202.3 3.6 203.2 3.2 203.2 3.2 C 203.4 3.2 203.6 3.1 203.9 3.0 C 203.9 3.0 204.4 2.8 204.3 3.0 C 204.2 3.2 205.3 3.0 205.3 3.0 C 205.3 3.0 204.6 3.6 204.7 3.7 C 204.8 3.8 205.0 4.0 205.5 3.9 C 205.9 3.8 206.7 3.2 206.7 3.2 C 206.7 3.3 206.7 3.5 206.6 3.6 C 206.9 3.7 207.2 3.7 207.5 3.8 C 207.5 3.8 208.3 3.7 208.4 3.6 C 208.5 3.5 208.9 3.0 209.0 2.9 C 209.2 2.7 209.8 2.6 209.7 2.7 C 209.5 2.9 209.4 3.4 209.4 3.4 C 209.4 3.4 209.4 3.7 209.6 3.7 C 209.8 3.8 210.3 3.6 210.5 3.5 C 210.7 3.4 211.4 3.0 211.4 3.0 C 211.3 3.2 211.3 3.3 211.2 3.5 C 211.2 3.5 212.0 3.2 212.2 3.7 C 212.2 3.7 212.2 3.7 212.2 3.7 Z M 196.2 3.2 C 196.5 3.1 196.3 3.5 196.6 3.6 C 196.9 3.7 197.4 3.7 197.5 3.5 C 197.6 3.3 197.6 3.1 198.1 2.8 C 198.6 2.5 199.3 2.0 199.1 1.8 C 199.0 1.6 198.3 1.1 197.6 1.3 C 197.0 1.6 196.8 1.7 196.4 1.9 C 196.0 2.1 196.7 1.5 196.7 1.5 C 196.7 1.5 196.1 1.4 195.6 1.4 C 195.2 1.3 194.6 1.3 194.5 1.4 C 194.4 1.5 194.0 1.7 194.0 1.7 C 194.0 1.7 194.0 1.5 193.7 1.4 C 193.4 1.3 193.4 1.5 193.3 1.6 C 193.2 1.8 193.4 2.2 193.2 2.2 C 193.1 2.2 193.1 1.6 192.9 1.5 C 192.7 1.5 192.1 1.5 192.1 1.5 C 192.1 1.5 191.9 1.8 191.7 1.9 C 191.6 2.0 191.0 2.0 191.1 1.9 C 191.2 1.8 191.5 1.4 191.3 1.4 C 190.4 1.3 190.0 2.0 189.9 2.0 C 189.9 2.0 190.2 1.5 190.1 1.5 C 190.0 1.4 188.2 1.4 188.0 1.6 C 187.8 1.7 187.6 1.2 187.1 1.6 C 186.6 1.9 186.5 2.0 186.4 2.0 C 186.3 2.1 185.6 2.6 185.5 2.4 C 185.5 2.2 186.6 1.7 186.5 1.5 C 186.5 1.4 185.4 1.3 185.1 1.5 C 184.7 1.7 184.3 2.2 184.1 2.2 C 184.0 2.2 183.8 1.6 183.7 1.7 C 183.6 1.8 183.1 2.3 183.1 2.4 C 183.0 2.5 182.1 3.4 182.2 3.5 C 182.2 3.7 182.6 4.0 182.7 3.8 C 182.8 3.5 182.9 3.1 183.2 3.0 C 183.5 2.9 183.6 2.9 183.6 3.0 C 183.6 3.1 183.4 3.2 183.6 3.4 C 183.9 3.6 183.5 3.8 183.9 3.8 C 184.3 3.7 184.6 3.7 184.7 3.5 C 184.8 3.3 185.4 3.0 185.7 3.0 C 185.9 3.0 185.2 3.5 185.8 3.6 C 186.4 3.8 186.9 3.9 187.3 3.7 C 187.6 3.5 188.1 3.0 188.3 3.2 C 188.5 3.5 188.2 3.6 188.7 3.6 C 189.2 3.6 189.7 3.1 190.1 3.1 C 190.4 3.1 190.5 3.1 190.5 3.1 C 190.5 3.1 189.8 3.7 190.5 3.8 C 191.2 3.8 191.3 3.9 191.5 3.4 C 191.7 3.0 192.3 2.9 192.1 3.2 C 191.9 3.5 192.1 3.7 192.4 3.8 C 192.6 3.8 193.3 3.0 193.4 3.0 C 193.5 3.0 193.7 3.1 193.4 3.3 C 193.1 3.5 193.4 3.6 193.5 3.7 C 193.7 3.8 194.4 3.7 194.5 3.6 C 194.6 3.4 194.7 2.9 194.9 3.2 C 195.2 3.4 195.0 3.8 195.4 3.8 C 195.8 3.8 195.9 3.3 196.2 3.2 C 196.2 3.2 196.2 3.2 196.2 3.2 Z M 181.7 3.8 C 182.5 3.8 183.4 1.8 183.4 1.4 C 183.4 1.0 182.7 1.2 182.2 1.2 C 181.7 1.1 181.5 1.7 181.0 1.9 C 180.6 2.1 181.0 1.7 181.0 1.4 C 181.1 1.1 180.1 1.3 179.7 1.3 C 179.2 1.3 178.3 1.9 177.8 2.0 C 177.4 2.0 178.0 2.3 177.3 2.3 C 176.6 2.3 177.2 1.9 178.1 1.7 C 179.1 1.5 178.1 1.3 177.7 1.2 C 177.3 1.2 176.4 1.5 176.0 1.4 C 175.7 1.4 175.8 1.9 175.3 1.9 C 174.8 1.9 175.4 1.3 174.9 1.3 C 174.5 1.2 174.2 1.7 173.9 1.8 C 173.6 1.9 173.8 1.6 173.6 1.6 C 173.4 1.5 173.2 1.4 172.6 1.5 C 172.1 1.6 172.1 1.7 171.9 1.8 C 171.6 1.8 171.3 1.8 171.3 1.8 C 171.3 1.6 171.4 1.5 171.5 1.3 C 171.5 1.3 170.6 1.3 170.4 1.2 C 170.1 1.2 169.4 1.4 169.5 1.5 C 169.6 1.6 168.8 2.0 168.7 1.9 C 168.7 1.8 168.4 1.6 168.1 1.5 C 167.9 1.3 167.2 2.6 167.1 2.8 C 167.0 3.0 166.5 3.7 166.7 3.8 C 166.9 3.8 167.3 3.6 167.1 3.8 C 167.0 3.9 167.9 3.8 168.1 3.8 C 168.3 3.8 168.8 3.3 168.8 3.3 C 168.8 3.3 169.2 2.9 169.6 2.9 C 169.9 2.9 169.6 3.7 169.6 3.7 C 169.6 3.7 169.9 3.8 170.4 3.8 C 170.8 3.8 171.7 3.1 171.9 3.0 C 172.1 2.8 171.7 3.4 171.9 3.5 C 172.2 3.6 172.5 3.8 172.7 3.7 C 172.8 3.7 173.3 3.3 173.3 3.3 C 173.3 3.3 174.0 3.0 174.1 3.0 C 174.2 3.0 173.6 3.6 173.6 3.6 C 173.6 3.6 174.7 3.8 174.9 3.8 C 175.1 3.9 175.6 3.7 175.8 3.7 C 176.0 3.7 176.7 2.9 176.9 3.0 C 177.1 3.1 176.4 3.5 176.6 3.5 C 176.8 3.6 177.1 3.8 177.3 3.8 C 177.4 3.8 177.7 3.5 178.0 3.5 C 178.2 3.4 178.9 2.9 179.2 2.9 C 179.6 2.9 179.5 3.2 179.6 3.3 C 179.7 3.4 179.4 3.8 179.7 3.9 C 179.9 3.9 180.0 3.5 180.2 3.5 C 180.5 3.5 180.7 3.2 181.0 3.2 C 181.2 3.3 180.6 3.9 180.9 3.8 C 181.1 3.8 180.9 3.8 181.7 3.8 C 181.7 3.8 181.7 3.8 181.7 3.8 Z M 166.1 3.7 C 166.3 4.0 166.8 3.6 166.9 3.4 C 167.0 3.1 167.3 2.3 167.6 2.1 C 167.8 1.9 168.6 1.4 167.9 1.3 C 167.3 1.2 167.1 1.4 167.0 1.6 C 166.9 1.8 166.4 2.5 166.2 2.4 C 166.1 2.4 166.0 2.2 166.0 2.1 C 166.0 2.0 166.2 1.2 165.8 1.3 C 165.4 1.4 165.0 1.7 165.0 1.7 C 164.9 1.7 164.7 1.7 164.5 1.7 C 164.5 1.7 164.3 1.2 163.9 1.3 C 163.5 1.4 163.1 1.4 162.8 1.4 C 162.6 1.4 162.3 1.4 162.2 1.6 C 162.0 1.8 161.4 2.4 161.4 2.4 C 161.4 2.4 160.9 2.6 160.8 2.5 C 160.7 2.4 160.8 2.0 160.9 1.9 C 161.0 1.8 161.1 1.4 160.9 1.3 C 160.7 1.3 159.7 0.9 159.4 1.1 C 159.1 1.3 159.0 1.6 158.9 1.7 C 158.7 1.8 157.9 1.8 158.0 1.6 C 158.0 1.4 158.2 1.1 158.0 1.1 C 157.7 1.1 157.3 1.0 157.3 1.1 C 157.2 1.2 157.0 1.3 156.9 1.5 C 156.8 1.8 156.3 1.9 156.2 2.0 C 156.0 2.1 155.7 2.2 155.7 2.2 C 155.6 2.1 155.5 1.9 155.4 1.8 C 155.4 1.8 155.8 1.4 156.0 1.4 C 156.1 1.3 156.0 1.1 155.9 1.0 C 155.8 1.0 154.9 1.1 154.9 1.1 C 154.8 1.3 154.6 1.6 154.5 1.9 C 154.3 2.0 154.0 2.0 153.8 2.1 C 153.8 2.1 154.3 1.1 153.9 1.1 C 153.5 1.1 153.0 1.1 153.0 1.1 C 153.0 1.1 152.5 1.5 152.4 1.5 C 152.2 1.5 151.8 2.4 151.8 2.4 C 151.7 2.8 151.6 3.1 151.5 3.5 C 151.5 3.5 151.8 3.8 152.1 3.7 C 152.4 3.6 152.4 3.2 152.5 3.0 C 152.6 2.8 153.1 2.7 153.1 2.7 C 153.2 2.8 153.3 3.0 153.4 3.2 C 153.4 3.2 153.5 3.4 153.6 3.6 C 153.7 3.8 154.2 3.9 154.4 3.8 C 154.6 3.7 154.9 3.5 155.2 3.3 C 155.5 3.1 155.6 2.8 155.7 3.1 C 155.9 3.3 155.9 3.6 156.0 3.6 C 156.2 3.6 156.9 3.2 156.9 3.2 C 157.1 3.2 157.3 3.1 157.5 3.0 C 157.5 3.0 158.0 2.8 157.9 3.0 C 157.9 3.2 158.9 3.0 158.9 3.0 C 158.9 3.0 158.5 3.6 158.6 3.7 C 158.8 3.8 159.1 4.0 159.5 3.9 C 159.9 3.8 160.4 3.2 160.4 3.2 C 160.5 3.3 160.5 3.5 160.5 3.6 C 160.8 3.7 161.1 3.7 161.4 3.8 C 161.4 3.8 162.2 3.7 162.2 3.6 C 162.3 3.5 162.5 3.0 162.6 2.9 C 162.7 2.7 163.2 2.6 163.1 2.7 C 163.1 2.9 163.2 3.4 163.2 3.4 C 163.2 3.4 163.3 3.7 163.5 3.7 C 163.7 3.8 164.2 3.6 164.3 3.5 C 164.4 3.4 165.0 3.0 165.0 3.0 C 165.0 3.2 165.0 3.3 165.0 3.5 C 165.0 3.5 165.7 3.2 166.1 3.7 C 166.1 3.7 166.1 3.7 166.1 3.7 Z M 149.9 3.2 C 150.1 3.1 150.1 3.5 150.5 3.6 C 150.9 3.7 151.4 3.7 151.4 3.5 C 151.4 3.3 151.3 3.1 151.6 2.8 C 152.0 2.5 152.4 2.0 152.2 1.8 C 152.0 1.6 151.0 1.1 150.5 1.3 C 150.0 1.6 149.9 1.7 149.5 1.9 C 149.2 2.1 149.6 1.5 149.6 1.5 C 149.6 1.5 149.0 1.4 148.5 1.4 C 148.0 1.3 147.5 1.3 147.4 1.4 C 147.3 1.5 147.1 1.7 147.1 1.7 C 147.1 1.7 146.9 1.5 146.6 1.4 C 146.2 1.3 146.3 1.5 146.3 1.6 C 146.3 1.8 146.6 2.2 146.4 2.2 C 146.3 2.2 146.1 1.6 145.8 1.5 C 145.6 1.5 145.0 1.5 145.0 1.5 C 145.0 1.5 145.0 1.8 144.9 1.9 C 144.8 2.0 144.2 2.0 144.2 1.9 C 144.3 1.8 144.4 1.4 144.2 1.4 C 143.3 1.3 143.2 2.0 143.1 2.0 C 143.0 2.0 143.2 1.5 143.0 1.5 C 142.9 1.4 141.1 1.4 141.0 1.6 C 140.9 1.7 140.4 1.2 140.1 1.6 C 139.7 1.9 139.6 2.0 139.6 2.0 C 139.5 2.1 139.0 2.6 138.9 2.4 C 138.8 2.2 139.7 1.7 139.5 1.5 C 139.3 1.4 138.3 1.3 138.1 1.5 C 137.7 1.7 137.5 2.2 137.4 2.2 C 137.2 2.2 136.8 1.6 136.7 1.7 C 136.6 1.8 136.4 2.3 136.4 2.4 C 136.4 2.5 135.9 3.4 136.0 3.5 C 136.1 3.7 136.6 4.0 136.6 3.8 C 136.6 3.5 136.6 3.1 136.8 3.0 C 137.1 2.9 137.2 2.9 137.2 3.0 C 137.3 3.1 137.1 3.2 137.4 3.4 C 137.7 3.6 137.5 3.8 137.8 3.8 C 138.2 3.7 138.5 3.7 138.6 3.5 C 138.6 3.3 139.0 3.0 139.3 3.0 C 139.5 3.0 139.0 3.5 139.7 3.6 C 140.4 3.8 140.9 3.9 141.2 3.7 C 141.5 3.5 141.7 3.0 142.0 3.2 C 142.3 3.5 142.0 3.6 142.5 3.6 C 143.0 3.6 143.4 3.1 143.7 3.1 C 144.0 3.1 144.1 3.1 144.1 3.1 C 144.1 3.1 143.7 3.7 144.5 3.8 C 145.2 3.8 145.3 3.9 145.3 3.4 C 145.3 3.0 145.9 2.9 145.8 3.2 C 145.7 3.5 146.1 3.7 146.3 3.8 C 146.5 3.8 146.9 3.0 147.0 3.0 C 147.1 3.0 147.4 3.1 147.2 3.3 C 147.0 3.5 147.2 3.6 147.4 3.7 C 147.6 3.8 148.3 3.7 148.3 3.6 C 148.4 3.4 148.3 2.9 148.6 3.2 C 149.0 3.4 148.9 3.8 149.4 3.8 C 149.8 3.8 149.6 3.3 149.9 3.2 C 149.9 3.2 149.9 3.2 149.9 3.2 Z M 135.7 3.8 C 136.5 3.8 136.5 1.8 136.3 1.4 C 136.1 1.0 135.5 1.2 135.0 1.2 C 134.5 1.1 134.5 1.7 134.1 1.9 C 133.8 2.1 134.0 1.7 133.9 1.4 C 133.9 1.1 133.0 1.3 132.5 1.3 C 132.1 1.3 131.4 1.9 131.0 2.0 C 130.6 2.0 131.3 2.3 130.6 2.3 C 129.9 2.3 130.3 1.9 131.2 1.7 C 132.0 1.5 130.9 1.3 130.5 1.2 C 130.1 1.2 129.3 1.5 128.9 1.4 C 128.6 1.4 128.9 1.9 128.4 1.9 C 127.9 1.9 128.3 1.3 127.8 1.3 C 127.3 1.2 127.3 1.7 127.0 1.8 C 126.7 1.9 126.8 1.6 126.6 1.6 C 126.4 1.5 126.1 1.4 125.6 1.5 C 125.1 1.6 125.2 1.7 125.0 1.8 C 124.7 1.8 124.3 1.8 124.3 1.8 C 124.3 1.6 124.3 1.5 124.3 1.3 C 124.3 1.3 123.5 1.3 123.2 1.2 C 123.0 1.2 122.3 1.4 122.5 1.5 C 122.6 1.6 122.0 2.0 121.9 1.9 C 121.7 1.8 121.3 1.6 121.0 1.5 C 120.8 1.3 120.7 2.6 120.7 2.8 C 120.6 3.0 120.4 3.7 120.6 3.8 C 120.9 3.8 121.1 3.6 121.1 3.8 C 121.0 3.9 121.8 3.8 122.0 3.8 C 122.2 3.8 122.5 3.3 122.5 3.3 C 122.5 3.3 122.8 2.9 123.2 2.9 C 123.5 2.9 123.5 3.7 123.5 3.7 C 123.5 3.7 123.9 3.8 124.4 3.8 C 124.8 3.8 125.4 3.1 125.5 3.0 C 125.6 2.8 125.5 3.4 125.7 3.5 C 126.0 3.6 126.4 3.8 126.6 3.7 C 126.7 3.7 127.0 3.3 127.0 3.3 C 127.0 3.3 127.6 3.0 127.7 3.0 C 127.9 3.0 127.5 3.6 127.5 3.6 C 127.5 3.6 128.7 3.8 128.9 3.8 C 129.1 3.9 129.5 3.7 129.7 3.7 C 129.9 3.7 130.3 2.9 130.5 3.0 C 130.8 3.1 130.2 3.5 130.4 3.5 C 130.7 3.6 131.1 3.8 131.2 3.8 C 131.3 3.8 131.6 3.5 131.8 3.5 C 132.0 3.4 132.4 2.9 132.8 2.9 C 133.1 2.9 133.2 3.2 133.3 3.3 C 133.4 3.4 133.4 3.8 133.7 3.9 C 133.9 3.9 133.8 3.5 134.1 3.5 C 134.3 3.5 134.4 3.2 134.7 3.2 C 134.9 3.3 134.6 3.9 134.9 3.8 C 135.1 3.8 134.9 3.8 135.7 3.8 C 135.7 3.8 135.7 3.8 135.7 3.8 Z M 119.1 3.2 C 119.2 3.1 119.3 3.5 119.7 3.6 C 120.1 3.7 120.7 3.7 120.6 3.5 C 120.5 3.3 120.4 3.1 120.6 2.8 C 120.9 2.5 121.2 2.0 120.9 1.8 C 120.7 1.6 119.5 1.1 119.1 1.3 C 118.7 1.6 118.6 1.7 118.3 1.9 C 118.0 2.1 118.2 1.5 118.2 1.5 C 118.2 1.5 117.6 1.4 117.1 1.4 C 116.6 1.3 116.1 1.3 116.0 1.4 C 116.0 1.5 115.8 1.7 115.8 1.7 C 115.8 1.7 115.5 1.5 115.2 1.4 C 114.8 1.3 114.9 1.5 115.0 1.6 C 115.0 1.8 115.4 2.2 115.3 2.2 C 115.1 2.2 114.7 1.6 114.5 1.5 C 114.2 1.5 113.6 1.5 113.6 1.5 C 113.6 1.5 113.7 1.8 113.6 1.9 C 113.6 2.0 113.0 2.0 113.0 1.9 C 113.0 1.8 113.0 1.4 112.8 1.4 C 111.9 1.3 112.0 2.0 111.9 2.0 C 111.8 2.0 111.9 1.5 111.6 1.5 C 111.4 1.4 109.7 1.4 109.6 1.6 C 109.6 1.7 109.0 1.2 108.7 1.6 C 108.5 1.9 108.4 2.0 108.4 2.0 C 108.3 2.1 108.0 2.6 107.8 2.4 C 107.7 2.2 108.3 1.7 108.1 1.5 C 107.9 1.4 106.9 1.3 106.7 1.5 C 106.4 1.7 106.4 2.2 106.2 2.2 C 106.1 2.2 105.4 1.6 105.4 1.7 C 105.3 1.8 105.3 2.3 105.3 2.4 C 105.3 2.5 105.1 3.4 105.3 3.5 C 105.4 3.7 106.0 4.0 105.9 3.8 C 105.8 3.5 105.7 3.1 105.9 3.0 C 106.1 2.9 106.3 2.9 106.3 3.0 C 106.4 3.1 106.2 3.2 106.6 3.4 C 107.0 3.6 106.8 3.8 107.1 3.8 C 107.5 3.7 107.8 3.7 107.8 3.5 C 107.7 3.3 108.1 3.0 108.4 3.0 C 108.6 3.0 108.2 3.5 109.0 3.6 C 109.7 3.8 110.2 3.9 110.5 3.7 C 110.7 3.5 110.8 3.0 111.1 3.2 C 111.5 3.5 111.3 3.6 111.8 3.6 C 112.3 3.6 112.5 3.1 112.8 3.1 C 113.1 3.1 113.2 3.1 113.2 3.1 C 113.2 3.1 113.0 3.7 113.8 3.8 C 114.5 3.8 114.6 3.9 114.5 3.4 C 114.4 3.0 114.9 2.9 114.9 3.2 C 114.9 3.5 115.4 3.7 115.6 3.8 C 115.8 3.8 116.0 3.0 116.1 3.0 C 116.2 3.0 116.5 3.1 116.3 3.3 C 116.2 3.5 116.5 3.6 116.7 3.7 C 116.9 3.8 117.6 3.7 117.6 3.6 C 117.6 3.4 117.3 2.9 117.7 3.2 C 118.2 3.4 118.2 3.8 118.7 3.8 C 119.1 3.8 118.8 3.3 119.1 3.2 C 119.1 3.2 119.1 3.2 119.1 3.2 Z M 104.7 3.7 C 105.0 4.0 105.3 3.6 105.3 3.4 C 105.2 3.1 105.1 2.3 105.2 2.1 C 105.3 1.9 105.8 1.4 105.1 1.3 C 104.4 1.2 104.3 1.4 104.3 1.6 C 104.3 1.8 104.2 2.5 104.0 2.4 C 103.9 2.4 103.7 2.2 103.6 2.1 C 103.6 2.0 103.3 1.2 103.0 1.3 C 102.7 1.4 102.4 1.7 102.4 1.7 C 102.2 1.7 102.1 1.7 101.9 1.7 C 101.9 1.7 101.4 1.2 101.1 1.3 C 100.7 1.4 100.3 1.4 100.1 1.4 C 99.8 1.4 99.5 1.4 99.5 1.6 C 99.5 1.8 99.2 2.4 99.2 2.4 C 99.2 2.4 98.8 2.6 98.6 2.5 C 98.4 2.4 98.4 2.0 98.4 1.9 C 98.4 1.8 98.3 1.4 98.1 1.3 C 97.8 1.3 96.6 0.9 96.4 1.1 C 96.3 1.3 96.4 1.6 96.2 1.7 C 96.1 1.8 95.4 1.8 95.3 1.6 C 95.2 1.4 95.2 1.1 95.0 1.1 C 94.8 1.1 94.3 1.0 94.3 1.1 C 94.3 1.2 94.2 1.3 94.2 1.5 C 94.2 1.8 93.8 1.9 93.7 2.0 C 93.7 2.1 93.3 2.2 93.3 2.2 C 93.2 2.1 93.0 1.9 92.8 1.8 C 92.8 1.8 93.0 1.4 93.2 1.4 C 93.3 1.3 93.0 1.1 92.9 1.0 C 92.7 1.0 91.9 1.1 91.9 1.1 C 91.9 1.3 92.0 1.6 92.0 1.9 C 91.8 2.0 91.6 2.0 91.4 2.1 C 91.4 2.1 91.3 1.1 90.9 1.1 C 90.5 1.1 90.1 1.1 90.1 1.1 C 90.1 1.1 89.7 1.5 89.6 1.5 C 89.5 1.5 89.6 2.4 89.6 2.4 C 89.7 2.8 89.8 3.1 89.9 3.5 C 89.9 3.5 90.5 3.8 90.7 3.7 C 90.9 3.6 90.6 3.2 90.7 3.0 C 90.7 2.8 91.0 2.7 91.0 2.7 C 91.2 2.8 91.5 3.0 91.7 3.2 C 91.7 3.2 91.9 3.4 92.1 3.6 C 92.3 3.8 92.9 3.9 93.0 3.8 C 93.2 3.7 93.3 3.5 93.5 3.3 C 93.7 3.1 93.6 2.8 93.9 3.1 C 94.2 3.3 94.4 3.6 94.5 3.6 C 94.7 3.6 95.2 3.2 95.2 3.2 C 95.3 3.2 95.5 3.1 95.6 3.0 C 95.6 3.0 96.0 2.8 96.1 3.0 C 96.2 3.2 97.0 3.0 97.0 3.0 C 97.0 3.0 97.0 3.6 97.2 3.7 C 97.4 3.8 97.8 4.0 98.1 3.9 C 98.5 3.8 98.7 3.2 98.7 3.2 C 98.8 3.3 98.9 3.5 99.1 3.6 C 99.4 3.7 99.7 3.7 100.0 3.8 C 100.0 3.8 100.8 3.7 100.8 3.6 C 100.8 3.5 100.6 3.0 100.7 2.9 C 100.7 2.7 101.1 2.6 101.1 2.7 C 101.2 2.9 101.6 3.4 101.6 3.4 C 101.6 3.4 101.9 3.7 102.1 3.7 C 102.3 3.8 102.7 3.6 102.7 3.5 C 102.8 3.4 103.2 3.0 103.2 3.0 C 103.3 3.2 103.3 3.3 103.5 3.5 C 103.5 3.5 104.0 3.2 104.7 3.7 C 104.7 3.7 104.7 3.7 104.7 3.7 Z M 89.7 3.8 C 90.4 3.8 89.5 1.8 89.2 1.4 C 88.8 1.0 88.3 1.2 87.8 1.2 C 87.2 1.1 87.5 1.7 87.3 1.9 C 87.0 2.1 87.0 1.7 86.8 1.4 C 86.6 1.1 85.9 1.3 85.4 1.3 C 84.9 1.3 84.6 1.9 84.2 2.0 C 83.8 2.0 84.6 2.3 83.9 2.3 C 83.2 2.3 83.4 1.9 84.2 1.7 C 84.9 1.5 83.8 1.3 83.3 1.2 C 82.9 1.2 82.2 1.5 81.9 1.4 C 81.5 1.4 82.1 1.9 81.5 1.9 C 81.0 1.9 81.2 1.3 80.6 1.3 C 80.1 1.2 80.3 1.7 80.1 1.8 C 79.8 1.9 79.8 1.6 79.6 1.6 C 79.4 1.5 79.0 1.4 78.5 1.5 C 78.1 1.6 78.2 1.7 78.0 1.8 C 77.8 1.8 77.4 1.8 77.4 1.8 C 77.4 1.6 77.3 1.5 77.2 1.3 C 77.2 1.3 76.3 1.3 76.0 1.2 C 75.8 1.2 75.2 1.4 75.4 1.5 C 75.6 1.6 75.1 2.0 75.0 1.9 C 74.8 1.8 74.3 1.6 74.0 1.5 C 73.6 1.3 74.1 2.6 74.2 2.8 C 74.3 3.0 74.3 3.7 74.6 3.8 C 74.9 3.8 75.0 3.6 75.0 3.8 C 75.0 3.9 75.7 3.8 76.0 3.8 C 76.2 3.8 76.3 3.3 76.3 3.3 C 76.3 3.3 76.4 2.9 76.7 2.9 C 77.1 2.9 77.4 3.7 77.4 3.7 C 77.4 3.7 77.9 3.8 78.3 3.8 C 78.7 3.8 79.0 3.1 79.1 3.0 C 79.1 2.8 79.3 3.4 79.6 3.5 C 79.9 3.6 80.4 3.8 80.5 3.7 C 80.6 3.7 80.7 3.3 80.7 3.3 C 80.7 3.3 81.2 3.0 81.4 3.0 C 81.5 3.0 81.4 3.6 81.4 3.6 C 81.4 3.6 82.6 3.8 82.9 3.8 C 83.1 3.9 83.5 3.7 83.6 3.7 C 83.8 3.7 83.9 2.9 84.1 3.0 C 84.4 3.1 84.0 3.5 84.3 3.5 C 84.5 3.6 85.0 3.8 85.2 3.8 C 85.3 3.8 85.4 3.5 85.6 3.5 C 85.8 3.4 86.0 2.9 86.3 2.9 C 86.7 2.9 86.9 3.2 87.1 3.3 C 87.2 3.4 87.4 3.8 87.7 3.9 C 87.9 3.9 87.7 3.5 87.9 3.5 C 88.2 3.5 88.1 3.2 88.4 3.2 C 88.7 3.3 88.6 3.9 88.9 3.8 C 89.0 3.8 88.9 3.8 89.7 3.8 C 89.7 3.8 89.7 3.8 89.7 3.8 Z M 73.9 3.7 C 74.4 4.0 74.6 3.6 74.5 3.4 C 74.3 3.1 74.0 2.3 74.0 2.1 C 74.1 1.9 74.4 1.4 73.7 1.3 C 73.0 1.2 72.9 1.4 73.0 1.6 C 73.0 1.8 73.1 2.5 72.9 2.4 C 72.8 2.4 72.5 2.2 72.4 2.1 C 72.3 2.0 71.8 1.2 71.6 1.3 C 71.3 1.4 71.0 1.7 71.0 1.7 C 70.9 1.7 70.7 1.7 70.6 1.7 C 70.6 1.7 70.0 1.2 69.7 1.3 C 69.3 1.4 68.9 1.4 68.7 1.4 C 68.4 1.4 68.1 1.4 68.2 1.6 C 68.2 1.8 68.1 2.4 68.1 2.4 C 68.1 2.4 67.8 2.6 67.5 2.5 C 67.3 2.4 67.1 2.0 67.1 1.9 C 67.1 1.8 66.9 1.4 66.6 1.3 C 66.4 1.3 65.1 0.9 65.0 1.1 C 64.9 1.3 65.0 1.6 64.9 1.7 C 64.8 1.8 64.1 1.8 63.9 1.6 C 63.8 1.4 63.7 1.1 63.5 1.1 C 63.3 1.1 62.8 1.0 62.8 1.1 C 62.9 1.2 62.8 1.3 62.9 1.5 C 62.9 1.8 62.6 1.9 62.5 2.0 C 62.5 2.1 62.1 2.2 62.1 2.2 C 62.0 2.1 61.8 1.9 61.6 1.8 C 61.6 1.8 61.7 1.4 61.8 1.4 C 61.9 1.3 61.5 1.1 61.4 1.0 C 61.2 1.0 60.4 1.1 60.4 1.1 C 60.5 1.3 60.6 1.6 60.8 1.9 C 60.6 2.0 60.4 2.0 60.2 2.1 C 60.2 2.1 59.9 1.1 59.5 1.1 C 59.1 1.1 58.6 1.1 58.6 1.1 C 58.6 1.1 58.3 1.5 58.2 1.5 C 58.2 1.5 58.5 2.4 58.5 2.4 C 58.7 2.8 58.9 3.1 59.1 3.5 C 59.1 3.5 59.8 3.8 60.0 3.7 C 60.2 3.6 59.8 3.2 59.7 3.0 C 59.7 2.8 60.0 2.7 60.0 2.7 C 60.3 2.8 60.5 3.0 60.8 3.2 C 60.8 3.2 61.1 3.4 61.3 3.6 C 61.6 3.8 62.2 3.9 62.3 3.8 C 62.5 3.7 62.6 3.5 62.7 3.3 C 62.8 3.1 62.7 2.8 63.0 3.1 C 63.4 3.3 63.6 3.6 63.8 3.6 C 63.9 3.6 64.3 3.2 64.3 3.2 C 64.4 3.2 64.6 3.1 64.7 3.0 C 64.7 3.0 65.0 2.8 65.2 3.0 C 65.3 3.2 66.1 3.0 66.1 3.0 C 66.1 3.0 66.3 3.6 66.5 3.7 C 66.8 3.8 67.2 4.0 67.5 3.9 C 67.8 3.8 67.8 3.2 67.8 3.2 C 68.0 3.3 68.1 3.5 68.3 3.6 C 68.7 3.7 69.0 3.7 69.3 3.8 C 69.3 3.8 70.1 3.7 70.0 3.6 C 70.0 3.5 69.7 3.0 69.7 2.9 C 69.7 2.7 70.0 2.6 70.1 2.7 C 70.2 2.9 70.7 3.4 70.7 3.4 C 70.7 3.4 71.2 3.7 71.4 3.7 C 71.6 3.8 71.9 3.6 72.0 3.5 C 72.0 3.4 72.2 3.0 72.2 3.0 C 72.4 3.2 72.5 3.3 72.7 3.5 C 72.7 3.5 73.2 3.2 73.9 3.7 C 73.9 3.7 73.9 3.7 73.9 3.7 Z M 59.0 3.8 C 59.7 3.8 58.3 1.8 57.8 1.4 C 57.3 1.0 56.9 1.2 56.3 1.2 C 55.7 1.1 56.2 1.7 56.0 1.9 C 55.8 2.1 55.7 1.7 55.4 1.4 C 55.1 1.1 54.5 1.3 54.0 1.3 C 53.5 1.3 53.3 1.9 52.9 2.0 C 52.6 2.0 53.5 2.3 52.8 2.3 C 52.0 2.3 52.2 1.9 52.9 1.7 C 53.6 1.5 52.4 1.3 51.9 1.2 C 51.4 1.2 50.8 1.5 50.5 1.4 C 50.1 1.4 50.8 1.9 50.3 1.9 C 49.8 1.9 49.8 1.3 49.2 1.3 C 48.6 1.2 49.0 1.7 48.8 1.8 C 48.6 1.9 48.5 1.6 48.2 1.6 C 48.0 1.5 47.6 1.4 47.1 1.5 C 46.7 1.6 46.9 1.7 46.7 1.8 C 46.5 1.8 46.2 1.8 46.2 1.8 C 46.0 1.6 45.9 1.5 45.8 1.3 C 45.8 1.3 44.9 1.3 44.6 1.2 C 44.3 1.2 43.8 1.4 44.1 1.5 C 44.3 1.6 43.9 2.0 43.7 1.9 C 43.6 1.8 43.0 1.6 42.6 1.5 C 42.2 1.3 43.1 2.6 43.2 2.8 C 43.3 3.0 43.6 3.7 43.9 3.8 C 44.2 3.8 44.2 3.6 44.3 3.8 C 44.4 3.9 45.0 3.8 45.3 3.8 C 45.5 3.8 45.4 3.3 45.4 3.3 C 45.4 3.3 45.4 2.9 45.8 2.9 C 46.1 2.9 46.7 3.7 46.7 3.7 C 46.7 3.7 47.2 3.8 47.6 3.8 C 48.0 3.8 48.1 3.1 48.1 3.0 C 48.1 2.8 48.5 3.4 48.8 3.5 C 49.1 3.6 49.7 3.8 49.8 3.7 C 49.9 3.7 49.9 3.3 49.9 3.3 C 49.9 3.3 50.3 3.0 50.4 3.0 C 50.6 3.0 50.7 3.6 50.7 3.6 C 50.7 3.6 51.9 3.8 52.2 3.8 C 52.5 3.9 52.8 3.7 52.9 3.7 C 53.1 3.7 52.9 2.9 53.2 3.0 C 53.5 3.1 53.2 3.5 53.5 3.5 C 53.8 3.6 54.3 3.8 54.5 3.8 C 54.6 3.8 54.6 3.5 54.8 3.5 C 55.0 3.4 55.0 2.9 55.4 2.9 C 55.7 2.9 56.1 3.2 56.2 3.3 C 56.4 3.4 56.7 3.8 57.0 3.9 C 57.3 3.9 56.9 3.5 57.2 3.5 C 57.4 3.5 57.3 3.2 57.5 3.2 C 57.8 3.3 58.0 3.9 58.2 3.8 C 58.3 3.8 58.2 3.8 59.0 3.8 C 59.0 3.8 59.0 3.8 59.0 3.8 Z M 41.9 3.2 C 42.0 3.1 42.4 3.5 42.9 3.6 C 43.4 3.7 43.9 3.7 43.6 3.5 C 43.4 3.3 43.2 3.1 43.2 2.8 C 43.2 2.5 43.2 2.0 42.7 1.8 C 42.3 1.6 40.8 1.1 40.6 1.3 C 40.4 1.6 40.3 1.7 40.2 1.9 C 40.0 2.1 39.8 1.5 39.8 1.5 C 39.8 1.5 39.1 1.4 38.6 1.4 C 38.1 1.3 37.5 1.3 37.5 1.4 C 37.5 1.5 37.5 1.7 37.5 1.7 C 37.5 1.7 37.1 1.5 36.7 1.4 C 36.3 1.3 36.5 1.5 36.7 1.6 C 36.8 1.8 37.5 2.2 37.3 2.2 C 37.2 2.2 36.3 1.6 36.0 1.5 C 35.8 1.5 35.2 1.5 35.2 1.5 C 35.2 1.5 35.5 1.8 35.5 1.9 C 35.5 2.0 35.0 2.0 34.9 1.9 C 34.8 1.8 34.6 1.4 34.3 1.4 C 33.4 1.3 33.9 2.0 33.9 2.0 C 33.8 2.0 33.5 1.5 33.2 1.5 C 32.9 1.4 31.3 1.4 31.3 1.6 C 31.3 1.7 30.4 1.2 30.3 1.6 C 30.3 1.9 30.3 2.0 30.3 2.0 C 30.3 2.1 30.4 2.6 30.1 2.4 C 29.8 2.2 30.0 1.7 29.7 1.5 C 29.4 1.4 28.3 1.3 28.2 1.5 C 28.2 1.7 28.4 2.2 28.3 2.2 C 28.1 2.2 27.1 1.6 27.1 1.7 C 27.1 1.8 27.4 2.3 27.5 2.4 C 27.6 2.5 28.1 3.4 28.3 3.5 C 28.6 3.7 29.5 4.0 29.2 3.8 C 28.9 3.5 28.5 3.1 28.6 3.0 C 28.7 2.9 28.9 2.9 29.0 3.0 C 29.1 3.1 29.1 3.2 29.6 3.4 C 30.1 3.6 30.1 3.8 30.4 3.8 C 30.7 3.7 31.0 3.7 30.8 3.5 C 30.6 3.3 30.8 3.0 31.0 3.0 C 31.3 3.0 31.2 3.5 32.1 3.6 C 33.0 3.8 33.6 3.9 33.7 3.7 C 33.8 3.5 33.4 3.0 34.0 3.2 C 34.5 3.5 34.4 3.6 34.9 3.6 C 35.4 3.6 35.3 3.1 35.6 3.1 C 35.9 3.1 36.0 3.1 36.0 3.1 C 36.0 3.1 36.3 3.7 37.0 3.8 C 37.8 3.8 37.9 3.9 37.5 3.4 C 37.0 3.0 37.6 2.9 37.8 3.2 C 38.0 3.5 38.6 3.7 38.8 3.8 C 39.1 3.8 38.7 3.0 38.8 3.0 C 38.9 3.0 39.2 3.1 39.2 3.3 C 39.3 3.5 39.6 3.6 39.9 3.7 C 40.2 3.8 40.8 3.7 40.7 3.6 C 40.6 3.4 39.9 2.9 40.5 3.2 C 41.2 3.4 41.5 3.8 41.9 3.8 C 42.3 3.8 41.7 3.3 41.9 3.2 C 41.9 3.2 41.9 3.2 41.9 3.2 Z M 27.9 3.7 C 28.4 4.0 28.5 3.6 28.2 3.4 C 28.0 3.1 27.3 2.3 27.3 2.1 C 27.2 1.9 27.3 1.4 26.5 1.3 C 25.8 1.2 25.8 1.4 25.9 1.6 C 26.1 1.8 26.5 2.5 26.3 2.4 C 26.1 2.4 25.7 2.2 25.6 2.1 C 25.5 2.0 24.7 1.2 24.4 1.3 C 24.2 1.4 24.1 1.7 24.1 1.7 C 23.9 1.7 23.8 1.7 23.6 1.7 C 23.6 1.7 22.8 1.2 22.5 1.3 C 22.3 1.4 21.9 1.4 21.6 1.4 C 21.3 1.4 21.1 1.4 21.2 1.6 C 21.3 1.8 21.4 2.4 21.4 2.4 C 21.4 2.4 21.2 2.6 20.9 2.5 C 20.7 2.4 20.3 2.0 20.2 1.9 C 20.2 1.8 19.8 1.4 19.5 1.3 C 19.2 1.3 17.7 0.9 17.8 1.1 C 17.7 1.3 18.0 1.6 18.0 1.7 C 17.9 1.8 17.2 1.8 16.9 1.6 C 16.7 1.4 16.4 1.1 16.3 1.1 C 16.1 1.1 15.5 1.0 15.6 1.1 C 15.7 1.2 15.7 1.3 15.8 1.5 C 16.0 1.8 15.7 1.9 15.7 2.0 C 15.7 2.1 15.4 2.2 15.4 2.2 C 15.1 2.1 14.9 1.9 14.6 1.8 C 14.6 1.8 14.6 1.4 14.6 1.4 C 14.7 1.3 14.3 1.1 14.1 1.0 C 13.9 1.0 13.2 1.1 13.2 1.1 C 13.4 1.3 13.6 1.6 13.9 1.9 C 13.7 2.0 13.6 2.0 13.4 2.1 C 13.4 2.1 12.6 1.1 12.2 1.1 C 11.8 1.1 11.3 1.1 11.3 1.1 C 11.3 1.1 11.3 1.5 11.2 1.5 C 11.1 1.5 11.9 2.4 11.9 2.4 C 12.3 2.8 12.6 3.1 13.0 3.5 C 13.0 3.5 13.8 3.8 13.9 3.7 C 14.0 3.6 13.5 3.2 13.3 3.0 C 13.2 2.8 13.5 2.7 13.5 2.7 C 13.8 2.8 14.2 3.0 14.5 3.2 C 14.5 3.2 14.8 3.4 15.2 3.6 C 15.5 3.8 16.2 3.9 16.3 3.8 C 16.4 3.7 16.4 3.5 16.4 3.3 C 16.5 3.1 16.2 2.8 16.7 3.1 C 17.1 3.3 17.5 3.6 17.6 3.6 C 17.8 3.6 18.0 3.2 18.0 3.2 C 18.1 3.2 18.2 3.1 18.3 3.0 C 18.3 3.0 18.6 2.8 18.8 3.0 C 19.0 3.2 19.7 3.0 19.7 3.0 C 19.7 3.0 20.1 3.6 20.4 3.7 C 20.7 3.8 21.2 4.0 21.5 3.9 C 21.7 3.8 21.5 3.2 21.5 3.2 C 21.7 3.3 22.0 3.5 22.2 3.6 C 22.6 3.7 22.9 3.7 23.3 3.8 C 23.3 3.8 24.0 3.7 23.9 3.6 C 23.8 3.5 23.3 3.0 23.2 2.9 C 23.2 2.7 23.4 2.6 23.6 2.7 C 23.8 2.9 24.5 3.4 24.5 3.4 C 24.5 3.4 25.1 3.7 25.3 3.7 C 25.6 3.8 25.8 3.6 25.8 3.5 C 25.8 3.4 25.8 3.0 25.8 3.0 C 26.1 3.2 26.3 3.3 26.5 3.5 C 26.5 3.5 26.9 3.2 27.9 3.7 C 27.9 3.7 27.9 3.7 27.9 3.7 Z M 12.9 3.8 C 13.7 3.8 11.3 1.8 10.7 1.4 C 10.0 1.0 9.7 1.2 9.1 1.2 C 8.5 1.1 9.3 1.7 9.1 1.9 C 9.0 2.1 8.7 1.7 8.3 1.4 C 7.9 1.1 7.4 1.3 6.8 1.3 C 6.3 1.3 6.5 1.9 6.1 2.0 C 5.8 2.0 6.8 2.3 6.1 2.3 C 5.3 2.3 5.3 1.9 5.9 1.7 C 6.5 1.5 5.2 1.3 4.7 1.2 C 4.2 1.2 3.7 1.5 3.4 1.4 C 3.0 1.4 3.9 1.9 3.4 1.9 C 2.9 1.9 2.6 1.4 2.1 1.3 C 2.1 1.3 2.1 1.3 2.1 1.3 C 2.0 1.7 2.5 2.2 2.6 2.5 C 2.7 2.9 2.4 2.5 2.4 2.7 C 2.3 2.9 2.2 3.1 2.3 3.7 C 2.4 4.3 2.6 4.3 2.6 4.6 C 2.6 4.8 2.6 5.2 2.6 5.2 C 2.5 5.1 2.3 4.9 2.1 4.8 C 2.1 4.8 2.1 5.6 2.0 5.9 C 2.0 6.1 2.2 6.9 2.3 6.8 C 2.4 6.8 2.8 7.7 2.7 7.7 C 2.6 7.8 2.4 8.0 2.3 8.2 C 2.1 8.4 3.4 9.5 3.6 9.7 C 3.8 9.9 4.5 10.7 4.6 10.5 C 4.6 10.3 4.4 9.8 4.6 10.1 C 4.8 10.3 4.6 9.3 4.6 9.1 C 4.6 8.9 4.1 8.2 4.1 8.2 C 4.1 8.2 3.7 7.6 3.7 7.3 C 3.7 6.9 4.5 7.6 4.5 7.6 C 4.5 7.6 4.6 7.3 4.6 6.8 C 4.6 6.4 3.9 5.2 3.8 5.0 C 3.6 4.8 4.2 5.4 4.3 5.2 C 4.4 4.9 4.6 4.7 4.5 4.5 C 4.5 4.4 4.1 3.7 4.1 3.7 C 4.1 3.7 4.0 3.4 3.9 3.1 C 4.0 3.1 4.0 3.0 4.1 3.0 C 4.2 3.0 4.6 3.6 4.6 3.6 C 4.6 3.6 5.9 3.8 6.2 3.8 C 6.5 3.9 6.7 3.7 6.8 3.7 C 7.0 3.7 6.5 2.9 6.8 3.0 C 7.1 3.1 7.0 3.5 7.3 3.5 C 7.7 3.6 8.3 3.8 8.4 3.8 C 8.5 3.8 8.5 3.5 8.6 3.5 C 8.8 3.4 8.6 2.9 8.9 2.9 C 9.3 2.9 9.8 3.2 10.0 3.3 C 10.2 3.4 10.7 3.8 11.0 3.9 C 11.3 3.9 10.8 3.5 11.0 3.5 C 11.3 3.5 10.9 3.2 11.3 3.2 C 11.6 3.3 12.0 3.9 12.2 3.8 C 12.3 3.8 12.2 3.8 12.9 3.8 C 12.9 3.8 12.9 3.8 12.9 3.8 Z M 4.5 11.1 C 4.8 11.0 4.4 10.3 4.2 10.1 C 3.9 9.9 3.2 9.3 2.9 9.0 C 2.7 8.7 2.2 7.7 2.1 8.3 C 2.0 8.9 2.2 9.2 2.4 9.4 C 2.6 9.5 3.3 10.4 3.3 10.5 C 3.2 10.6 3.0 10.6 2.9 10.5 C 2.8 10.5 2.0 10.1 2.1 10.5 C 2.2 10.9 2.5 11.4 2.5 11.4 C 2.5 11.5 2.5 11.7 2.5 11.9 C 2.5 11.9 2.0 11.9 2.1 12.4 C 2.2 12.8 2.2 13.2 2.2 13.5 C 2.2 13.7 2.2 14.0 2.4 14.2 C 2.6 14.4 3.2 15.3 3.2 15.3 C 3.2 15.3 3.4 15.8 3.3 15.9 C 3.2 16.0 2.8 15.8 2.7 15.6 C 2.6 15.4 2.2 15.2 2.1 15.4 C 2.1 15.6 1.7 16.4 1.9 16.8 C 2.1 17.2 2.4 17.3 2.5 17.5 C 2.6 17.7 2.6 18.5 2.4 18.4 C 2.2 18.3 1.9 18.0 1.9 18.2 C 1.9 18.5 1.8 18.8 1.9 18.9 C 2.0 19.0 2.1 19.2 2.4 19.4 C 2.6 19.6 2.7 20.2 2.8 20.4 C 2.9 20.5 3.0 20.9 3.0 20.9 C 2.9 21.0 2.7 21.0 2.6 21.1 C 2.6 21.1 2.2 20.5 2.2 20.3 C 2.1 20.1 1.9 20.2 1.8 20.3 C 1.8 20.4 1.9 21.3 1.9 21.3 C 2.1 21.5 2.4 21.8 2.7 22.0 C 2.8 22.3 2.8 22.5 2.9 22.8 C 2.9 22.8 1.9 21.9 1.9 22.3 C 1.9 22.7 1.9 23.2 1.9 23.2 C 1.9 23.2 2.3 23.9 2.3 24.0 C 2.4 24.1 3.3 24.9 3.3 24.9 C 3.6 25.1 3.9 25.3 4.3 25.6 C 4.3 25.6 4.6 25.4 4.5 25.0 C 4.4 24.7 4.0 24.6 3.8 24.4 C 3.6 24.2 3.5 23.7 3.5 23.7 C 3.7 23.7 3.9 23.6 4.1 23.6 C 4.1 23.6 4.2 23.6 4.4 23.6 C 4.6 23.5 4.7 23.0 4.6 22.8 C 4.5 22.5 4.3 22.2 4.1 21.8 C 3.9 21.5 3.6 21.2 3.9 21.2 C 4.1 21.1 4.4 21.2 4.4 21.1 C 4.4 21.0 4.1 20.1 4.1 20.1 C 4.0 19.9 3.9 19.7 3.8 19.4 C 3.8 19.4 3.6 18.9 3.8 19.0 C 4.1 19.1 3.8 18.0 3.8 18.0 C 3.8 18.0 4.4 18.7 4.5 18.5 C 4.6 18.4 4.8 18.2 4.7 17.7 C 4.6 17.3 4.0 16.5 4.0 16.5 C 4.1 16.6 4.3 16.6 4.4 16.6 C 4.5 16.3 4.5 16.0 4.6 15.7 C 4.6 15.7 4.5 15.0 4.4 14.9 C 4.3 14.8 3.8 14.4 3.7 14.3 C 3.5 14.1 3.4 13.5 3.5 13.7 C 3.7 13.8 4.2 13.9 4.2 13.9 C 4.2 13.9 4.5 13.8 4.5 13.6 C 4.6 13.5 4.4 13.0 4.3 12.8 C 4.2 12.6 3.8 11.9 3.8 11.9 C 4.0 12.0 4.1 12.0 4.3 12.1 C 4.3 12.1 4.1 11.3 4.5 11.1 C 4.5 11.1 4.5 11.1 4.5 11.1 Z M 4.6 26.2 C 4.6 25.4 2.6 24.3 2.2 24.3 C 1.8 24.3 2.0 25.0 2.0 25.5 C 1.9 26.0 2.5 26.3 2.7 26.7 C 2.9 27.2 2.5 26.8 2.2 26.7 C 1.9 26.6 2.1 27.6 2.1 28.0 C 2.1 28.5 2.8 29.5 2.8 29.9 C 2.8 30.3 3.1 29.8 3.1 30.5 C 3.1 31.1 2.7 30.5 2.5 29.6 C 2.3 28.6 2.1 29.6 2.0 30.0 C 2.0 30.4 2.3 31.4 2.2 31.7 C 2.2 32.0 2.7 31.9 2.7 32.4 C 2.7 32.9 2.2 32.3 2.1 32.8 C 2.0 33.2 2.5 33.5 2.6 33.8 C 2.7 34.2 2.4 33.9 2.4 34.1 C 2.3 34.3 2.2 34.5 2.3 35.1 C 2.4 35.6 2.6 35.6 2.6 35.9 C 2.6 36.1 2.6 36.5 2.6 36.5 C 2.5 36.4 2.3 36.3 2.1 36.2 C 2.1 36.2 2.1 37.1 2.0 37.3 C 2.0 37.6 2.2 38.3 2.3 38.2 C 2.4 38.1 2.8 38.9 2.7 39.0 C 2.6 39.1 2.4 39.4 2.3 39.6 C 2.1 39.8 3.4 40.5 3.6 40.7 C 3.8 40.8 4.5 41.4 4.6 41.2 C 4.6 41.0 4.4 40.6 4.6 40.7 C 4.8 40.9 4.6 40.0 4.6 39.8 C 4.6 39.6 4.1 39.0 4.1 39.0 C 4.1 39.0 3.7 38.6 3.7 38.2 C 3.7 37.9 4.5 38.3 4.5 38.3 C 4.5 38.3 4.6 37.9 4.6 37.5 C 4.6 37.0 3.9 36.1 3.8 35.9 C 3.6 35.8 4.2 36.2 4.3 35.9 C 4.4 35.7 4.6 35.4 4.5 35.2 C 4.5 35.1 4.1 34.6 4.1 34.6 C 4.1 34.6 3.8 33.8 3.8 33.7 C 3.8 33.6 4.4 34.2 4.4 34.2 C 4.4 34.2 4.6 33.2 4.7 33.0 C 4.7 32.8 4.5 32.3 4.5 32.1 C 4.5 31.9 3.7 31.1 3.8 30.9 C 3.9 30.7 4.3 31.5 4.3 31.3 C 4.4 31.1 4.6 30.7 4.6 30.6 C 4.6 30.5 4.3 30.1 4.3 29.9 C 4.2 29.6 3.7 28.9 3.7 28.6 C 3.7 28.2 4.0 28.3 4.1 28.2 C 4.2 28.2 4.6 28.4 4.7 28.2 C 4.7 27.9 4.3 27.9 4.3 27.6 C 4.3 27.4 4.0 27.1 4.1 26.9 C 4.1 26.7 4.7 27.3 4.6 26.9 C 4.6 26.8 4.6 26.9 4.6 26.2 C 4.6 26.2 4.6 26.2 4.6 26.2 Z M 4.0 42.5 C 3.9 42.3 4.3 42.4 4.4 42.0 C 4.5 41.7 4.6 41.1 4.3 41.1 C 4.1 41.0 3.9 41.1 3.6 40.7 C 3.3 40.3 2.8 39.7 2.6 39.9 C 2.4 40.1 1.9 40.9 2.1 41.5 C 2.4 42.0 2.5 42.2 2.7 42.6 C 2.9 43.0 2.3 42.4 2.3 42.4 C 2.3 42.4 2.2 43.0 2.2 43.5 C 2.1 44.0 2.1 44.5 2.2 44.6 C 2.3 44.7 2.5 45.0 2.5 45.0 C 2.5 45.0 2.3 45.1 2.2 45.4 C 2.1 45.8 2.3 45.7 2.4 45.8 C 2.6 45.8 3.0 45.6 3.0 45.7 C 3.0 45.9 2.4 46.0 2.3 46.2 C 2.3 46.4 2.3 47.0 2.3 47.0 C 2.3 47.0 2.6 47.2 2.7 47.3 C 2.8 47.3 2.8 47.9 2.7 47.9 C 2.6 47.8 2.2 47.6 2.2 47.9 C 2.2 48.7 2.8 48.9 2.8 49.0 C 2.9 49.1 2.3 48.8 2.3 49.0 C 2.2 49.2 2.3 50.9 2.4 51.1 C 2.5 51.2 2.0 51.6 2.4 52.0 C 2.7 52.4 2.8 52.5 2.9 52.6 C 2.9 52.7 3.4 53.3 3.3 53.3 C 3.1 53.4 2.5 52.4 2.3 52.6 C 2.2 52.7 2.1 53.7 2.3 54.0 C 2.5 54.4 3.0 54.7 3.0 54.8 C 3.0 55.0 2.4 55.3 2.5 55.4 C 2.6 55.5 3.1 55.8 3.2 55.8 C 3.3 55.9 4.2 56.5 4.4 56.4 C 4.5 56.4 4.8 55.9 4.6 55.9 C 4.3 55.8 4.0 55.8 3.8 55.5 C 3.7 55.3 3.7 55.1 3.8 55.1 C 3.9 55.1 4.0 55.3 4.2 55.0 C 4.4 54.7 4.6 55.0 4.6 54.7 C 4.6 54.3 4.5 54.0 4.3 53.9 C 4.1 53.8 3.8 53.3 3.8 53.1 C 3.8 52.8 4.3 53.5 4.5 52.8 C 4.6 52.1 4.7 51.6 4.5 51.3 C 4.3 51.0 3.8 50.7 4.0 50.4 C 4.3 50.2 4.4 50.4 4.4 49.9 C 4.4 49.4 3.9 49.0 3.9 48.7 C 3.9 48.3 3.9 48.2 3.9 48.2 C 3.9 48.2 4.6 48.8 4.6 48.1 C 4.6 47.4 4.7 47.2 4.2 47.1 C 3.8 47.0 3.7 46.5 4.0 46.6 C 4.3 46.7 4.5 46.4 4.6 46.2 C 4.6 46.0 3.8 45.5 3.8 45.4 C 3.8 45.2 3.9 45.0 4.1 45.2 C 4.3 45.5 4.4 45.2 4.5 45.1 C 4.6 44.9 4.5 44.2 4.4 44.1 C 4.2 44.1 3.7 44.1 4.0 43.8 C 4.2 43.5 4.6 43.6 4.6 43.2 C 4.6 42.7 4.1 42.8 4.0 42.5 C 4.0 42.5 4.0 42.5 4.0 42.5 Z M 4.5 57.1 C 4.8 56.9 4.4 56.4 4.2 56.3 C 3.9 56.2 3.2 56.0 2.9 55.8 C 2.7 55.6 2.2 54.9 2.1 55.5 C 2.0 56.1 2.2 56.3 2.4 56.4 C 2.6 56.5 3.3 57.0 3.3 57.1 C 3.2 57.3 3.0 57.3 2.9 57.3 C 2.8 57.3 2.0 57.3 2.1 57.6 C 2.2 58.0 2.5 58.4 2.5 58.4 C 2.5 58.5 2.5 58.7 2.5 58.9 C 2.5 58.9 2.0 59.1 2.1 59.5 C 2.2 59.9 2.2 60.3 2.2 60.6 C 2.2 60.8 2.2 61.1 2.4 61.2 C 2.6 61.4 3.2 62.0 3.2 62.0 C 3.2 62.0 3.4 62.4 3.3 62.6 C 3.2 62.7 2.8 62.6 2.7 62.5 C 2.6 62.4 2.2 62.3 2.1 62.5 C 2.1 62.8 1.7 63.8 1.9 64.1 C 2.1 64.3 2.4 64.4 2.5 64.5 C 2.6 64.7 2.6 65.5 2.4 65.5 C 2.2 65.5 1.9 65.3 1.9 65.5 C 1.9 65.7 1.8 66.1 1.9 66.2 C 2.0 66.2 2.1 66.4 2.4 66.5 C 2.6 66.6 2.7 67.1 2.8 67.2 C 2.9 67.3 3.0 67.7 3.0 67.7 C 2.9 67.8 2.7 67.9 2.6 68.0 C 2.6 68.0 2.2 67.6 2.2 67.5 C 2.1 67.3 1.9 67.4 1.8 67.6 C 1.8 67.7 1.9 68.5 1.9 68.5 C 2.1 68.7 2.4 68.8 2.7 68.9 C 2.8 69.1 2.8 69.3 2.9 69.6 C 2.9 69.6 1.9 69.1 1.9 69.5 C 1.9 69.9 1.9 70.4 1.9 70.4 C 1.9 70.4 2.3 71.0 2.3 71.1 C 2.4 71.2 3.3 71.5 3.3 71.5 C 3.6 71.6 3.9 71.7 4.3 71.7 C 4.3 71.7 4.6 71.4 4.5 71.1 C 4.4 70.8 4.0 70.9 3.8 70.8 C 3.6 70.7 3.5 70.2 3.5 70.2 C 3.7 70.1 3.9 70.0 4.1 69.9 C 4.1 69.9 4.2 69.8 4.4 69.7 C 4.6 69.5 4.7 69.0 4.6 68.8 C 4.5 68.6 4.3 68.3 4.1 68.0 C 3.9 67.8 3.6 67.7 3.9 67.5 C 4.1 67.3 4.4 67.3 4.4 67.2 C 4.4 67.1 4.1 66.4 4.1 66.4 C 4.0 66.2 3.9 66.0 3.8 65.8 C 3.8 65.8 3.6 65.3 3.8 65.3 C 4.1 65.4 3.8 64.4 3.8 64.4 C 3.8 64.4 4.4 64.7 4.5 64.6 C 4.6 64.4 4.8 64.1 4.7 63.7 C 4.6 63.3 4.0 62.8 4.0 62.8 C 4.1 62.8 4.3 62.7 4.4 62.7 C 4.5 62.4 4.5 62.1 4.6 61.8 C 4.6 61.8 4.5 61.0 4.4 61.0 C 4.3 60.9 3.8 60.8 3.7 60.7 C 3.5 60.6 3.4 60.1 3.5 60.2 C 3.7 60.2 4.2 60.1 4.2 60.1 C 4.2 60.1 4.5 59.9 4.5 59.7 C 4.6 59.5 4.4 59.1 4.3 58.9 C 4.2 58.8 3.8 58.3 3.8 58.3 C 4.0 58.3 4.1 58.2 4.3 58.2 C 4.3 58.2 4.1 57.5 4.5 57.1 C 4.5 57.1 4.5 57.1 4.5 57.1 Z M 4.0 73.3 C 3.9 73.1 4.3 73.1 4.4 72.7 C 4.5 72.3 4.6 71.8 4.3 71.9 C 4.1 71.9 3.9 72.0 3.6 71.7 C 3.3 71.4 2.8 70.9 2.6 71.2 C 2.4 71.4 1.9 72.4 2.1 72.9 C 2.4 73.4 2.5 73.5 2.7 73.9 C 2.9 74.2 2.3 73.8 2.3 73.8 C 2.3 73.8 2.2 74.5 2.2 74.9 C 2.1 75.4 2.1 76.0 2.2 76.0 C 2.3 76.1 2.5 76.3 2.5 76.3 C 2.5 76.3 2.3 76.5 2.2 76.9 C 2.1 77.2 2.3 77.1 2.4 77.1 C 2.6 77.1 3.0 76.8 3.0 76.9 C 3.0 77.1 2.4 77.4 2.3 77.6 C 2.3 77.8 2.3 78.4 2.3 78.4 C 2.3 78.4 2.6 78.4 2.7 78.5 C 2.8 78.6 2.8 79.1 2.7 79.1 C 2.6 79.1 2.2 79.0 2.2 79.3 C 2.2 80.1 2.8 80.2 2.8 80.3 C 2.9 80.3 2.3 80.2 2.3 80.4 C 2.2 80.6 2.3 82.3 2.4 82.4 C 2.5 82.5 2.0 83.0 2.4 83.3 C 2.7 83.7 2.8 83.7 2.9 83.8 C 2.9 83.9 3.4 84.3 3.3 84.4 C 3.1 84.5 2.5 83.8 2.3 83.9 C 2.2 84.1 2.1 85.2 2.3 85.4 C 2.5 85.7 3.0 85.8 3.0 86.0 C 3.0 86.1 2.4 86.6 2.5 86.7 C 2.6 86.8 3.1 86.9 3.2 86.9 C 3.3 87.0 4.2 87.3 4.4 87.2 C 4.5 87.1 4.8 86.5 4.6 86.6 C 4.3 86.6 4.0 86.7 3.8 86.4 C 3.7 86.2 3.7 86.1 3.8 86.0 C 3.9 86.0 4.0 86.1 4.2 85.8 C 4.4 85.5 4.6 85.7 4.6 85.3 C 4.6 85.0 4.5 84.7 4.3 84.7 C 4.1 84.7 3.8 84.2 3.8 84.0 C 3.8 83.7 4.3 84.2 4.5 83.5 C 4.6 82.8 4.7 82.3 4.5 82.0 C 4.3 81.7 3.8 81.6 4.0 81.3 C 4.3 80.9 4.4 81.2 4.4 80.7 C 4.4 80.2 3.9 79.9 3.9 79.5 C 3.9 79.2 3.9 79.1 3.9 79.1 C 3.9 79.1 4.6 79.5 4.6 78.7 C 4.6 78.0 4.7 77.9 4.2 77.9 C 3.8 78.0 3.7 77.4 4.0 77.5 C 4.3 77.5 4.5 77.1 4.6 76.9 C 4.6 76.7 3.8 76.4 3.8 76.3 C 3.8 76.2 3.9 75.9 4.1 76.1 C 4.3 76.2 4.4 76.0 4.5 75.8 C 4.6 75.6 4.5 74.9 4.4 74.9 C 4.2 74.8 3.7 75.0 4.0 74.6 C 4.2 74.3 4.6 74.3 4.6 73.8 C 4.6 73.4 4.1 73.6 4.0 73.3 C 4.0 73.3 4.0 73.3 4.0 73.3 Z M 4.6 87.5 C 4.6 86.7 2.6 86.9 2.2 87.2 C 1.8 87.4 2.0 88.0 2.0 88.5 C 1.9 89.0 2.5 88.9 2.7 89.2 C 2.9 89.6 2.5 89.4 2.2 89.5 C 1.9 89.6 2.1 90.4 2.1 90.9 C 2.1 91.4 2.8 92.0 2.8 92.4 C 2.8 92.8 3.1 92.1 3.1 92.8 C 3.1 93.4 2.7 93.1 2.5 92.2 C 2.3 91.4 2.1 92.5 2.0 93.0 C 2.0 93.4 2.3 94.2 2.2 94.5 C 2.2 94.9 2.7 94.5 2.7 95.0 C 2.7 95.5 2.2 95.2 2.1 95.7 C 2.0 96.2 2.5 96.1 2.6 96.4 C 2.7 96.7 2.4 96.6 2.4 96.8 C 2.3 97.0 2.2 97.4 2.3 97.9 C 2.4 98.4 2.6 98.2 2.6 98.5 C 2.6 98.7 2.6 99.1 2.6 99.1 C 2.5 99.1 2.3 99.1 2.1 99.1 C 2.1 99.1 2.1 100.0 2.0 100.3 C 2.0 100.5 2.2 101.1 2.3 101.0 C 2.4 100.8 2.8 101.4 2.7 101.5 C 2.6 101.7 2.4 102.1 2.3 102.4 C 2.1 102.7 3.4 102.6 3.6 102.6 C 3.8 102.6 4.5 102.8 4.6 102.5 C 4.6 102.3 4.4 102.1 4.6 102.1 C 4.8 102.1 4.6 101.4 4.6 101.2 C 4.6 101.0 4.1 100.7 4.1 100.7 C 4.1 100.7 3.7 100.5 3.7 100.1 C 3.7 99.8 4.5 99.7 4.5 99.7 C 4.5 99.7 4.6 99.3 4.6 98.8 C 4.6 98.4 3.9 97.9 3.8 97.8 C 3.6 97.7 4.2 97.8 4.3 97.5 C 4.4 97.2 4.6 96.7 4.5 96.6 C 4.5 96.5 4.1 96.2 4.1 96.2 C 4.1 96.2 3.8 95.7 3.8 95.5 C 3.8 95.4 4.4 95.7 4.4 95.7 C 4.4 95.7 4.6 94.5 4.7 94.3 C 4.7 94.0 4.5 93.7 4.5 93.5 C 4.5 93.3 3.7 93.0 3.8 92.7 C 3.9 92.5 4.3 93.0 4.3 92.8 C 4.4 92.5 4.6 92.1 4.6 92.0 C 4.6 91.8 4.3 91.6 4.3 91.4 C 4.2 91.2 3.7 90.8 3.7 90.5 C 3.7 90.2 4.0 90.0 4.1 89.9 C 4.2 89.8 4.6 89.8 4.7 89.5 C 4.7 89.2 4.3 89.4 4.3 89.1 C 4.3 88.9 4.0 88.8 4.1 88.6 C 4.1 88.3 4.7 88.6 4.6 88.3 C 4.6 88.1 4.6 88.3 4.6 87.5 C 4.6 87.5 4.6 87.5 4.6 87.5 Z M 4.6 87.5 " fill="#A93F2C"></path><g><clipPath id="clip-82"><path d="M -3.4 4.5 L 220.8 4.5 L 220.8 100.5 L -3.4 100.5 Z M -3.4 4.5 "></path></clipPath><g clip-path="url(#clip-82)"><text xml:space="preserve" font-family="Helvetica-Light" font-size="51.0" fill="#000000" transform="matrix(1.00, 0.00, -0.00, -1.00, 45.0, 33.0)">L</text><text xml:space="preserve" font-family="Helvetica-Light" font-size="51.0" fill="#000000" transform="matrix(1.00, 0.00, -0.00, -1.00, 73.4, 33.0)">o</text><text xml:space="preserve" font-family="Helvetica-Light" font-size="51.0" fill="#000000" transform="matrix(1.00, 0.00, -0.00, -1.00, 101.7, 33.0)">g</text><text xml:space="preserve" font-family="Helvetica-Light" font-size="51.0" fill="#000000" transform="matrix(1.00, 0.00, -0.00, -1.00, 132.9, 33.0)">i</text><text xml:space="preserve" font-family="Helvetica-Light" font-size="51.0" fill="#000000" transform="matrix(1.00, 0.00, -0.00, -1.00, 144.2, 33.0)">c</text></g></g></g></svg>