<?xml version="1.0" encoding="UTF-8" standalone="no"?><svg xmlns="http://www.w3.org/2000/svg" xmlns:xlink="http://www.w3.org/1999/xlink" clip-rule="evenodd" stroke-miterlimit="4.00" viewBox="0 0 1024 768"><desc>SVG generated by Keynote</desc><defs><pattern id="B6C2A1E3-5C4A-42D6-88C3-8E2D6247F27B" patternUnits="userSpaceOnUse" width="528" height="528" viewBox="0 0 528 528" patternTransform="matrix(0.568182, 0.000000, 0.000000, -0.568182, 37.357670, 578.279400)"><image xlink:href="A58BC6F17F256D158BE0D80A5189B7AC.jpeg" width="528.00" height="528.00"></image></pattern></defs><g transform="matrix(1.00, 0.00, -0.00, -1.00, 0.0, 768.0)"><path d="M 0.0 768.0 L 1024.0 768.0 L 1024.0 0.0 L 0.0 0.0 Z M 0.0 768.0 " fill="#FEFFFF"></path><image xlink:href="D0CB6D013A4163FD8EE1ED9424FD98D6.png" width="933.00" height="533.00" transform="matrix(1.00, 0.00, -0.00, -1.00, 34.4, 579.3)" opacity="0.50"></image><g><clipPath id="clip-0"><path d="M 37.4 578.3 L 964.6 578.3 L 964.6 51.7 L 37.4 51.7 Z M 37.4 578.3 "></path></clipPath><g clip-path="url(#clip-0)"><path d="M 37.4 51.7 L 964.6 51.7 L 964.6 578.3 L 37.4 578.3 Z M 37.4 51.7 " fill="url(#B6C2A1E3-5C4A-42D6-88C3-8E2D6247F27B)"></path><path d="M 37.4 578.3 L 964.6 578.3 L 964.6 51.7 L 37.4 51.7 Z M 37.4 578.3 " fill="#000000" fill-opacity="0.50"></path></g></g><text xml:space="preserve" font-family="Helvetica-Light" font-size="80.0" fill="#000000" transform="matrix(1.00, 0.00, -0.00, -1.00, 74.0, 664.0)">P</text><text xml:space="preserve" font-family="Helvetica-Light" font-size="80.0" fill="#000000" transform="matrix(1.00, 0.00, -0.00, -1.00, 122.9, 664.0)">r</text><text xml:space="preserve" font-family="Helvetica-Light" font-size="80.0" fill="#000000" transform="matrix(1.00, 0.00, -0.00, -1.00, 148.1, 664.0)">o</text><text xml:space="preserve" font-family="Helvetica-Light" font-size="80.0" fill="#000000" transform="matrix(1.00, 0.00, -0.00, -1.00, 192.6, 664.0)">o</text><text xml:space="preserve" font-family="Helvetica-Light" font-size="80.0" fill="#000000" transform="matrix(1.00, 0.00, -0.00, -1.00, 237.0, 664.0)">f</text><text xml:space="preserve" font-family="Helvetica-Light" font-size="80.0" fill="#000000" transform="matrix(1.00, 0.00, -0.00, -1.00, 259.3, 664.0)">s</text><text xml:space="preserve" font-family="Helvetica-Light" font-size="80.0" fill="#000000" transform="matrix(1.00, 0.00, -0.00, -1.00, 299.3, 664.0)"> </text><text xml:space="preserve" font-family="Helvetica-Light" font-size="80.0" fill="#000000" transform="matrix(1.00, 0.00, -0.00, -1.00, 321.5, 664.0)">a</text><text xml:space="preserve" font-family="Helvetica-Light" font-size="80.0" fill="#000000" transform="matrix(1.00, 0.00, -0.00, -1.00, 366.0, 664.0)">r</text><text xml:space="preserve" font-family="Helvetica-Light" font-size="80.0" fill="#000000" transform="matrix(1.00, 0.00, -0.00, -1.00, 391.2, 664.0)">e</text><text xml:space="preserve" font-family="Helvetica-Light" font-size="80.0" fill="#000000" transform="matrix(1.00, 0.00, -0.00, -1.00, 435.7, 664.0)"> </text><text xml:space="preserve" font-family="Helvetica-Light" font-size="80.0" fill="#000000" transform="matrix(1.00, 0.00, -0.00, -1.00, 457.9, 664.0)">H</text><text xml:space="preserve" font-family="Helvetica-Light" font-size="80.0" fill="#000000" transform="matrix(1.00, 0.00, -0.00, -1.00, 515.7, 664.0)">a</text><text xml:space="preserve" font-family="Helvetica-Light" font-size="80.0" fill="#000000" transform="matrix(1.00, 0.00, -0.00, -1.00, 560.2, 664.0)">r</text><text xml:space="preserve" font-family="Helvetica-Light" font-size="80.0" fill="#000000" transform="matrix(1.00, 0.00, -0.00, -1.00, 585.4, 664.0)">d</text><text xml:space="preserve" font-family="Helvetica-Light" font-size="80.0" fill="#000000" transform="matrix(1.00, 0.00, -0.00, -1.00, 634.2, 664.0)">!</text><path d="M 83.0 619.1 C 82.8 619.2 82.6 618.7 82.0 618.5 C 81.5 618.4 80.8 618.3 80.9 618.7 C 81.0 619.0 81.3 619.2 80.9 619.6 C 80.7 620.0 80.3 620.7 80.7 620.9 C 81.1 621.2 82.7 621.9 83.2 621.5 C 83.7 621.2 83.8 621.0 84.2 620.8 C 84.6 620.5 84.3 621.3 84.3 621.3 C 84.3 621.3 85.2 621.4 85.8 621.5 C 86.4 621.5 87.2 621.6 87.2 621.4 C 87.3 621.3 87.5 621.0 87.5 621.0 C 87.5 621.0 87.9 621.4 88.3 621.5 C 88.8 621.5 88.6 621.3 88.6 621.1 C 88.5 621.0 87.9 620.4 88.1 620.4 C 88.3 620.4 88.9 621.2 89.3 621.3 C 89.6 621.4 90.3 621.3 90.3 621.3 C 90.3 621.3 90.3 620.9 90.3 620.8 C 90.4 620.7 91.1 620.6 91.2 620.8 C 91.2 620.9 91.1 621.4 91.5 621.5 C 92.7 621.5 92.5 620.7 92.6 620.6 C 92.7 620.6 92.7 621.3 93.0 621.4 C 93.2 621.5 95.5 621.4 95.6 621.2 C 95.7 621.1 96.5 621.7 96.8 621.3 C 97.1 620.8 97.2 620.7 97.3 620.6 C 97.4 620.5 97.8 619.8 98.0 620.1 C 98.2 620.3 97.3 621.1 97.6 621.3 C 97.9 621.5 99.3 621.6 99.5 621.4 C 99.8 621.1 99.9 620.4 100.1 620.4 C 100.3 620.4 101.1 621.3 101.2 621.1 C 101.3 621.0 101.4 620.3 101.4 620.2 C 101.4 620.0 101.6 618.8 101.5 618.6 C 101.3 618.4 100.4 618.0 100.6 618.3 C 100.7 618.7 100.9 619.1 100.6 619.3 C 100.3 619.5 100.1 619.5 100.0 619.3 C 100.0 619.2 100.1 619.1 99.6 618.8 C 99.1 618.6 99.4 618.3 98.9 618.3 C 98.5 618.3 98.0 618.4 98.1 618.7 C 98.1 619.0 97.6 619.4 97.3 619.3 C 97.0 619.3 97.5 618.7 96.5 618.5 C 95.4 618.2 94.8 618.2 94.5 618.4 C 94.2 618.6 94.1 619.4 93.6 619.1 C 93.1 618.7 93.4 618.5 92.7 618.6 C 92.0 618.6 91.8 619.2 91.3 619.2 C 90.9 619.2 90.8 619.2 90.8 619.2 C 90.8 619.2 91.0 618.3 90.0 618.3 C 89.1 618.3 88.9 618.2 89.1 618.8 C 89.3 619.4 88.5 619.4 88.5 619.0 C 88.5 618.6 87.9 618.4 87.6 618.3 C 87.2 618.3 87.1 619.3 87.0 619.3 C 86.9 619.3 86.5 619.3 86.6 618.9 C 86.8 618.6 86.4 618.6 86.1 618.4 C 85.8 618.3 84.9 618.4 84.9 618.6 C 84.9 618.8 85.4 619.4 84.8 619.1 C 84.2 618.8 84.0 618.3 83.4 618.3 C 82.9 618.3 83.4 618.9 83.0 619.1 C 83.0 619.1 83.0 619.1 83.0 619.1 Z M 101.8 618.3 C 100.8 618.3 101.5 621.0 101.9 621.5 C 102.3 622.0 103.0 621.7 103.6 621.8 C 104.3 621.9 104.1 621.1 104.5 620.8 C 104.9 620.6 104.8 621.1 104.9 621.5 C 105.1 621.9 106.2 621.5 106.8 621.6 C 107.4 621.6 108.1 620.7 108.6 620.7 C 109.1 620.6 108.2 620.2 109.1 620.3 C 110.0 620.3 109.5 620.8 108.5 621.1 C 107.4 621.4 108.9 621.6 109.5 621.7 C 110.1 621.8 111.0 621.4 111.5 621.4 C 111.9 621.5 111.4 620.8 112.0 620.8 C 112.7 620.9 112.4 621.5 113.0 621.6 C 113.7 621.7 113.6 621.1 114.0 621.0 C 114.3 620.8 114.2 621.2 114.5 621.2 C 114.8 621.3 115.3 621.5 115.9 621.4 C 116.5 621.2 116.4 621.0 116.6 621.0 C 116.9 620.9 117.4 620.9 117.4 620.9 C 117.5 621.1 117.5 621.4 117.6 621.6 C 117.6 621.6 118.7 621.6 119.0 621.7 C 119.4 621.7 120.2 621.4 120.0 621.3 C 119.8 621.2 120.5 620.7 120.7 620.8 C 120.9 620.9 121.5 621.2 121.9 621.4 C 122.2 621.5 122.1 619.8 122.1 619.6 C 122.1 619.3 122.4 618.4 122.0 618.3 C 121.7 618.2 121.4 618.6 121.5 618.3 C 121.5 618.1 120.5 618.3 120.2 618.3 C 119.9 618.3 119.6 619.0 119.6 619.0 C 119.6 619.0 119.3 619.5 118.8 619.5 C 118.4 619.5 118.2 618.4 118.2 618.4 C 118.2 618.4 117.6 618.2 117.0 618.3 C 116.5 618.3 115.8 619.2 115.7 619.4 C 115.6 619.6 115.6 618.8 115.2 618.7 C 114.8 618.6 114.2 618.3 114.1 618.4 C 113.9 618.4 113.6 619.0 113.6 619.0 C 113.6 619.0 112.9 619.3 112.7 619.3 C 112.5 619.3 112.8 618.5 112.8 618.5 C 112.8 618.5 111.3 618.3 110.9 618.2 C 110.6 618.1 110.1 618.4 109.9 618.4 C 109.6 618.5 109.3 619.4 109.0 619.3 C 108.6 619.2 109.3 618.7 109.0 618.6 C 108.6 618.5 108.0 618.3 107.8 618.3 C 107.7 618.3 107.4 618.7 107.1 618.7 C 106.8 618.8 106.4 619.5 106.0 619.5 C 105.5 619.5 105.3 619.0 105.1 619.0 C 105.0 618.9 104.8 618.2 104.5 618.2 C 104.1 618.2 104.4 618.6 104.0 618.6 C 103.7 618.6 103.7 619.1 103.4 619.0 C 103.0 618.9 103.2 618.1 102.8 618.2 C 102.7 618.3 102.8 618.2 101.8 618.3 C 101.8 618.3 101.8 618.3 101.8 618.3 Z M 122.9 618.4 C 122.4 618.0 121.9 618.5 122.0 618.9 C 122.1 619.2 122.2 620.2 122.1 620.5 C 121.9 620.8 121.3 621.5 122.2 621.6 C 123.0 621.7 123.2 621.5 123.2 621.2 C 123.2 621.0 123.4 620.0 123.6 620.1 C 123.9 620.2 124.1 620.4 124.2 620.6 C 124.2 620.7 124.5 621.7 125.0 621.6 C 125.4 621.4 125.8 621.1 125.8 621.1 C 126.0 621.1 126.2 621.1 126.4 621.1 C 126.4 621.1 127.0 621.7 127.5 621.6 C 127.9 621.4 128.4 621.4 128.8 621.5 C 129.1 621.5 129.5 621.4 129.6 621.2 C 129.6 621.0 130.1 620.1 130.1 620.1 C 130.1 620.1 130.6 619.9 130.8 620.0 C 131.1 620.2 131.1 620.6 131.1 620.8 C 131.0 621.0 131.1 621.5 131.4 621.6 C 131.8 621.6 133.3 622.1 133.5 621.8 C 133.7 621.6 133.7 621.2 133.8 621.1 C 134.0 621.0 135.0 620.9 135.1 621.2 C 135.2 621.4 135.1 621.9 135.4 621.9 C 135.7 621.8 136.3 622.0 136.3 621.8 C 136.3 621.7 136.5 621.6 136.5 621.3 C 136.5 621.0 137.1 620.8 137.2 620.6 C 137.3 620.5 137.8 620.4 137.8 620.4 C 138.0 620.6 138.2 620.7 138.4 620.9 C 138.4 620.9 138.0 621.4 137.8 621.5 C 137.7 621.6 138.0 621.9 138.1 622.0 C 138.3 622.0 139.4 621.9 139.4 621.9 C 139.4 621.5 139.5 621.2 139.5 620.8 C 139.7 620.7 140.0 620.6 140.3 620.5 C 140.3 620.5 140.2 621.9 140.7 621.9 C 141.2 621.9 141.9 621.9 141.9 621.9 C 141.9 621.9 142.4 621.4 142.5 621.3 C 142.7 621.3 142.7 620.1 142.7 620.1 C 142.7 619.6 142.6 619.2 142.6 618.7 C 142.6 618.7 142.0 618.2 141.6 618.4 C 141.3 618.6 141.6 619.1 141.5 619.3 C 141.4 619.6 140.9 619.8 140.9 619.8 C 140.7 619.5 140.4 619.3 140.2 619.0 C 140.2 619.0 140.0 618.8 139.8 618.5 C 139.5 618.3 138.7 618.2 138.5 618.3 C 138.3 618.4 138.0 618.7 137.7 618.9 C 137.4 619.1 137.5 619.6 137.2 619.2 C 136.8 618.9 136.6 618.5 136.5 618.5 C 136.3 618.5 135.5 619.0 135.5 619.0 C 135.3 619.1 135.1 619.2 134.9 619.3 C 134.9 619.3 134.3 619.6 134.2 619.3 C 134.2 619.0 133.0 619.3 133.0 619.3 C 133.0 619.3 133.2 618.5 132.9 618.4 C 132.6 618.2 132.1 618.0 131.6 618.2 C 131.2 618.3 130.8 619.1 130.8 619.1 C 130.7 618.9 130.5 618.7 130.4 618.5 C 130.0 618.4 129.5 618.4 129.1 618.3 C 129.1 618.3 128.1 618.4 128.1 618.5 C 128.1 618.6 128.2 619.3 128.2 619.5 C 128.1 619.7 127.6 619.9 127.5 619.7 C 127.5 619.5 127.0 618.8 127.0 618.8 C 127.0 618.8 126.6 618.4 126.3 618.4 C 126.0 618.3 125.5 618.5 125.4 618.7 C 125.3 618.8 124.8 619.3 124.8 619.3 C 124.7 619.1 124.6 618.9 124.5 618.7 C 124.5 618.7 123.7 619.0 122.9 618.4 C 122.9 618.4 122.9 618.4 122.9 618.4 Z M 143.0 618.3 C 142.0 618.3 142.7 621.0 143.1 621.5 C 143.5 622.0 144.2 621.7 144.9 621.8 C 145.6 621.9 145.3 621.1 145.7 620.8 C 146.1 620.6 146.0 621.1 146.2 621.5 C 146.3 621.9 147.4 621.5 148.0 621.6 C 148.7 621.6 149.3 620.7 149.8 620.7 C 150.3 620.6 149.4 620.2 150.3 620.3 C 151.2 620.3 150.8 620.8 149.7 621.1 C 148.7 621.4 150.1 621.6 150.7 621.7 C 151.3 621.8 152.3 621.4 152.7 621.4 C 153.2 621.5 152.6 620.8 153.3 620.8 C 153.9 620.9 153.6 621.5 154.3 621.6 C 154.9 621.7 154.8 621.1 155.2 621.0 C 155.5 620.8 155.5 621.2 155.7 621.2 C 156.0 621.3 156.5 621.5 157.1 621.4 C 157.7 621.2 157.6 621.0 157.9 621.0 C 158.2 620.9 158.7 620.9 158.7 620.9 C 158.7 621.1 158.7 621.4 158.8 621.6 C 158.8 621.6 159.9 621.6 160.3 621.7 C 160.6 621.7 161.4 621.4 161.2 621.3 C 161.0 621.2 161.8 620.7 161.9 620.8 C 162.1 620.9 162.7 621.2 163.1 621.4 C 163.5 621.5 163.4 619.8 163.4 619.6 C 163.4 619.3 163.6 618.4 163.2 618.3 C 162.9 618.2 162.6 618.6 162.7 618.3 C 162.7 618.1 161.7 618.3 161.4 618.3 C 161.1 618.3 160.8 619.0 160.8 619.0 C 160.8 619.0 160.5 619.5 160.0 619.5 C 159.6 619.5 159.4 618.4 159.4 618.4 C 159.4 618.4 158.8 618.2 158.3 618.3 C 157.7 618.3 157.1 619.2 156.9 619.4 C 156.8 619.6 156.9 618.8 156.5 618.7 C 156.0 618.6 155.5 618.3 155.3 618.4 C 155.1 618.4 154.8 619.0 154.8 619.0 C 154.8 619.0 154.1 619.3 153.9 619.3 C 153.7 619.3 154.0 618.5 154.0 618.5 C 154.0 618.5 152.5 618.3 152.2 618.2 C 151.8 618.1 151.3 618.4 151.1 618.4 C 150.9 618.5 150.5 619.4 150.2 619.3 C 149.8 619.2 150.5 618.7 150.2 618.6 C 149.8 618.5 149.2 618.3 149.0 618.3 C 148.9 618.3 148.6 618.7 148.4 618.7 C 148.1 618.8 147.7 619.5 147.2 619.5 C 146.8 619.5 146.5 619.0 146.4 619.0 C 146.2 618.9 146.1 618.2 145.7 618.2 C 145.3 618.2 145.6 618.6 145.3 618.6 C 144.9 618.6 144.9 619.1 144.6 619.0 C 144.2 618.9 144.4 618.1 144.1 618.2 C 143.9 618.3 144.1 618.2 143.0 618.3 C 143.0 618.3 143.0 618.3 143.0 618.3 Z M 164.1 618.4 C 163.6 618.0 163.2 618.5 163.2 618.9 C 163.3 619.2 163.5 620.2 163.3 620.5 C 163.1 620.8 162.5 621.5 163.4 621.6 C 164.3 621.7 164.5 621.5 164.5 621.2 C 164.5 621.0 164.6 620.0 164.9 620.1 C 165.1 620.2 165.3 620.4 165.4 620.6 C 165.4 620.7 165.8 621.7 166.2 621.6 C 166.6 621.4 167.0 621.1 167.0 621.1 C 167.2 621.1 167.4 621.1 167.6 621.1 C 167.6 621.1 168.2 621.7 168.7 621.6 C 169.1 621.4 169.7 621.4 170.0 621.5 C 170.4 621.5 170.7 621.4 170.8 621.2 C 170.8 621.0 171.3 620.1 171.3 620.1 C 171.3 620.1 171.8 619.9 172.0 620.0 C 172.3 620.2 172.3 620.6 172.3 620.8 C 172.2 621.0 172.3 621.5 172.6 621.6 C 173.0 621.6 174.5 622.1 174.7 621.8 C 175.0 621.6 174.9 621.2 175.1 621.1 C 175.2 621.0 176.2 620.9 176.3 621.2 C 176.4 621.4 176.3 621.9 176.6 621.9 C 176.9 621.8 177.5 622.0 177.5 621.8 C 177.5 621.7 177.7 621.6 177.7 621.3 C 177.7 621.0 178.3 620.8 178.4 620.6 C 178.6 620.5 179.0 620.4 179.0 620.4 C 179.2 620.6 179.4 620.7 179.6 620.9 C 179.6 620.9 179.2 621.4 179.1 621.5 C 178.9 621.6 179.2 621.9 179.4 622.0 C 179.5 622.0 180.6 621.9 180.6 621.9 C 180.7 621.5 180.7 621.2 180.7 620.8 C 181.0 620.7 181.2 620.6 181.5 620.5 C 181.5 620.5 181.4 621.9 181.9 621.9 C 182.4 621.9 183.1 621.9 183.1 621.9 C 183.1 621.9 183.6 621.4 183.8 621.3 C 183.9 621.3 183.9 620.1 183.9 620.1 C 183.9 619.6 183.9 619.2 183.8 618.7 C 183.8 618.7 183.2 618.2 182.8 618.4 C 182.5 618.6 182.8 619.1 182.7 619.3 C 182.7 619.6 182.1 619.8 182.1 619.8 C 181.9 619.5 181.7 619.3 181.4 619.0 C 181.4 619.0 181.2 618.8 181.0 618.5 C 180.8 618.3 179.9 618.2 179.7 618.3 C 179.5 618.4 179.2 618.7 179.0 618.9 C 178.7 619.1 178.7 619.6 178.4 619.2 C 178.0 618.9 177.9 618.5 177.7 618.5 C 177.5 618.5 176.8 619.0 176.8 619.0 C 176.5 619.1 176.3 619.2 176.1 619.3 C 176.1 619.3 175.6 619.6 175.5 619.3 C 175.4 619.0 174.3 619.3 174.3 619.3 C 174.3 619.3 174.4 618.5 174.1 618.4 C 173.8 618.2 173.3 618.0 172.9 618.2 C 172.4 618.3 172.0 619.1 172.0 619.1 C 171.9 618.9 171.8 618.7 171.6 618.5 C 171.2 618.4 170.8 618.4 170.3 618.3 C 170.3 618.3 169.3 618.4 169.3 618.5 C 169.3 618.6 169.4 619.3 169.4 619.5 C 169.3 619.7 168.8 619.9 168.7 619.7 C 168.7 619.5 168.2 618.8 168.2 618.8 C 168.2 618.8 167.8 618.4 167.5 618.4 C 167.2 618.3 166.8 618.5 166.6 618.7 C 166.5 618.8 166.1 619.3 166.1 619.3 C 165.9 619.1 165.8 618.9 165.7 618.7 C 165.7 618.7 164.9 619.0 164.1 618.4 C 164.1 618.4 164.1 618.4 164.1 618.4 Z M 184.3 618.3 C 183.2 618.3 183.9 621.0 184.3 621.5 C 184.7 622.0 185.4 621.7 186.1 621.8 C 186.8 621.9 186.5 621.1 186.9 620.8 C 187.3 620.6 187.2 621.1 187.4 621.5 C 187.5 621.9 188.6 621.5 189.2 621.6 C 189.9 621.6 190.5 620.7 191.1 620.7 C 191.6 620.6 190.6 620.2 191.5 620.3 C 192.4 620.3 192.0 620.8 190.9 621.1 C 189.9 621.4 191.4 621.6 191.9 621.7 C 192.5 621.8 193.5 621.4 193.9 621.4 C 194.4 621.5 193.8 620.8 194.5 620.8 C 195.1 620.9 194.8 621.5 195.5 621.6 C 196.1 621.7 196.1 621.1 196.4 621.0 C 196.8 620.8 196.7 621.2 197.0 621.2 C 197.2 621.3 197.7 621.5 198.3 621.4 C 199.0 621.2 198.8 621.0 199.1 621.0 C 199.4 620.9 199.9 620.9 199.9 620.9 C 199.9 621.1 200.0 621.4 200.0 621.6 C 200.0 621.6 201.1 621.6 201.5 621.7 C 201.8 621.7 202.6 621.4 202.4 621.3 C 202.2 621.2 203.0 620.7 203.1 620.8 C 203.3 620.9 203.9 621.2 204.3 621.4 C 204.7 621.5 204.6 619.8 204.6 619.6 C 204.6 619.3 204.8 618.4 204.5 618.3 C 204.1 618.2 203.8 618.6 203.9 618.3 C 203.9 618.1 202.9 618.3 202.6 618.3 C 202.3 618.3 202.0 619.0 202.0 619.0 C 202.0 619.0 201.7 619.5 201.3 619.5 C 200.8 619.5 200.6 618.4 200.6 618.4 C 200.6 618.4 200.1 618.2 199.5 618.3 C 198.9 618.3 198.3 619.2 198.2 619.4 C 198.1 619.6 198.1 618.8 197.7 618.7 C 197.3 618.6 196.7 618.3 196.5 618.4 C 196.3 618.4 196.0 619.0 196.0 619.0 C 196.0 619.0 195.3 619.3 195.1 619.3 C 195.0 619.3 195.3 618.5 195.3 618.5 C 195.3 618.5 193.7 618.3 193.4 618.2 C 193.1 618.1 192.5 618.4 192.3 618.4 C 192.1 618.5 191.8 619.4 191.4 619.3 C 191.1 619.2 191.8 618.7 191.4 618.6 C 191.1 618.5 190.4 618.3 190.3 618.3 C 190.1 618.3 189.9 618.7 189.6 618.7 C 189.3 618.8 188.9 619.5 188.4 619.5 C 188.0 619.5 187.7 619.0 187.6 619.0 C 187.4 618.9 187.3 618.2 186.9 618.2 C 186.6 618.2 186.8 618.6 186.5 618.6 C 186.1 618.6 186.1 619.1 185.8 619.0 C 185.5 618.9 185.7 618.1 185.3 618.2 C 185.1 618.3 185.3 618.2 184.3 618.3 C 184.3 618.3 184.3 618.3 184.3 618.3 Z M 206.7 619.1 C 206.5 619.2 206.3 618.7 205.7 618.5 C 205.1 618.4 204.4 618.3 204.6 618.7 C 204.7 619.0 204.9 619.2 204.6 619.6 C 204.3 620.0 204.0 620.7 204.4 620.9 C 204.8 621.2 206.3 621.9 206.8 621.5 C 207.3 621.2 207.5 621.0 207.9 620.8 C 208.2 620.5 208.0 621.3 208.0 621.3 C 208.0 621.3 208.8 621.4 209.5 621.5 C 210.1 621.5 210.8 621.6 210.9 621.4 C 211.0 621.3 211.2 621.0 211.2 621.0 C 211.2 621.0 211.5 621.4 212.0 621.5 C 212.5 621.5 212.3 621.3 212.2 621.1 C 212.2 621.0 211.6 620.4 211.8 620.4 C 212.0 620.4 212.6 621.2 212.9 621.3 C 213.3 621.4 214.0 621.3 214.0 621.3 C 214.0 621.3 213.9 620.9 214.0 620.8 C 214.1 620.7 214.8 620.6 214.8 620.8 C 214.9 620.9 214.8 621.4 215.2 621.5 C 216.3 621.5 216.2 620.7 216.3 620.6 C 216.4 620.6 216.4 621.3 216.6 621.4 C 216.9 621.5 219.2 621.4 219.3 621.2 C 219.4 621.1 220.1 621.7 220.5 621.3 C 220.8 620.8 220.9 620.7 221.0 620.6 C 221.0 620.5 221.5 619.8 221.7 620.1 C 221.9 620.3 221.0 621.1 221.3 621.3 C 221.5 621.5 222.9 621.6 223.2 621.4 C 223.5 621.1 223.6 620.4 223.8 620.4 C 224.0 620.4 224.8 621.3 224.9 621.1 C 224.9 621.0 225.0 620.3 225.0 620.2 C 225.0 620.0 225.3 618.8 225.1 618.6 C 225.0 618.4 224.1 618.0 224.2 618.3 C 224.3 618.7 224.5 619.1 224.2 619.3 C 223.9 619.5 223.8 619.5 223.7 619.3 C 223.6 619.2 223.8 619.1 223.3 618.8 C 222.8 618.6 223.1 618.3 222.6 618.3 C 222.1 618.3 221.7 618.4 221.8 618.7 C 221.8 619.0 221.3 619.4 221.0 619.3 C 220.6 619.3 221.2 618.7 220.1 618.5 C 219.1 618.2 218.4 618.2 218.1 618.4 C 217.8 618.6 217.8 619.4 217.3 619.1 C 216.8 618.7 217.0 618.5 216.4 618.6 C 215.7 618.6 215.4 619.2 215.0 619.2 C 214.6 619.2 214.4 619.2 214.4 619.2 C 214.4 619.2 214.7 618.3 213.7 618.3 C 212.7 618.3 212.5 618.2 212.7 618.8 C 212.9 619.4 212.2 619.4 212.2 619.0 C 212.1 618.6 211.6 618.4 211.2 618.3 C 210.9 618.3 210.8 619.3 210.7 619.3 C 210.5 619.3 210.2 619.3 210.3 618.9 C 210.5 618.6 210.1 618.6 209.8 618.4 C 209.5 618.3 208.6 618.4 208.6 618.6 C 208.6 618.8 209.0 619.4 208.4 619.1 C 207.9 618.8 207.7 618.3 207.1 618.3 C 206.5 618.3 207.0 618.9 206.7 619.1 C 206.7 619.1 206.7 619.1 206.7 619.1 Z M 225.9 618.4 C 225.4 618.0 225.0 618.5 225.1 618.9 C 225.1 619.2 225.3 620.2 225.1 620.5 C 224.9 620.8 224.4 621.5 225.2 621.6 C 226.1 621.7 226.3 621.5 226.3 621.2 C 226.3 621.0 226.5 620.0 226.7 620.1 C 226.9 620.2 227.1 620.4 227.2 620.6 C 227.3 620.7 227.6 621.7 228.0 621.6 C 228.4 621.4 228.8 621.1 228.8 621.1 C 229.0 621.1 229.3 621.1 229.5 621.1 C 229.5 621.1 230.1 621.7 230.5 621.6 C 231.0 621.4 231.5 621.4 231.9 621.5 C 232.2 621.5 232.5 621.4 232.6 621.2 C 232.7 621.0 233.1 620.1 233.1 620.1 C 233.1 620.1 233.6 619.9 233.9 620.0 C 234.1 620.2 234.2 620.6 234.1 620.8 C 234.1 621.0 234.1 621.5 234.5 621.6 C 234.8 621.6 236.3 622.1 236.6 621.8 C 236.8 621.6 236.7 621.2 236.9 621.1 C 237.1 621.0 238.1 620.9 238.2 621.2 C 238.2 621.4 238.2 621.9 238.5 621.9 C 238.8 621.8 239.3 622.0 239.3 621.8 C 239.3 621.7 239.5 621.6 239.5 621.3 C 239.6 621.0 240.2 620.8 240.3 620.6 C 240.4 620.5 240.8 620.4 240.8 620.4 C 241.0 620.6 241.2 620.7 241.4 620.9 C 241.4 620.9 241.1 621.4 240.9 621.5 C 240.7 621.6 241.0 621.9 241.2 622.0 C 241.4 622.0 242.5 621.9 242.5 621.9 C 242.5 621.5 242.5 621.2 242.5 620.8 C 242.8 620.7 243.1 620.6 243.3 620.5 C 243.3 620.5 243.2 621.9 243.7 621.9 C 244.3 621.9 244.9 621.9 244.9 621.9 C 244.9 621.9 245.4 621.4 245.6 621.3 C 245.7 621.3 245.8 620.1 245.8 620.1 C 245.7 619.6 245.7 619.2 245.7 618.7 C 245.7 618.7 245.0 618.2 244.7 618.4 C 244.3 618.6 244.6 619.1 244.6 619.3 C 244.5 619.6 244.0 619.8 244.0 619.8 C 243.7 619.5 243.5 619.3 243.3 619.0 C 243.3 619.0 243.0 618.8 242.8 618.5 C 242.6 618.3 241.8 618.2 241.5 618.3 C 241.3 618.4 241.1 618.7 240.8 618.9 C 240.5 619.1 240.6 619.6 240.2 619.2 C 239.9 618.9 239.7 618.5 239.5 618.5 C 239.3 618.5 238.6 619.0 238.6 619.0 C 238.4 619.1 238.2 619.2 237.9 619.3 C 237.9 619.3 237.4 619.6 237.3 619.3 C 237.2 619.0 236.1 619.3 236.1 619.3 C 236.1 619.3 236.2 618.5 235.9 618.4 C 235.6 618.2 235.2 618.0 234.7 618.2 C 234.2 618.3 233.9 619.1 233.9 619.1 C 233.7 618.9 233.6 618.7 233.4 618.5 C 233.0 618.4 232.6 618.4 232.1 618.3 C 232.1 618.3 231.2 618.4 231.2 618.5 C 231.2 618.6 231.3 619.3 231.2 619.5 C 231.2 619.7 230.6 619.9 230.6 619.7 C 230.5 619.5 230.1 618.8 230.1 618.8 C 230.1 618.8 229.6 618.4 229.4 618.4 C 229.1 618.3 228.6 618.5 228.5 618.7 C 228.4 618.8 227.9 619.3 227.9 619.3 C 227.8 619.1 227.7 618.9 227.5 618.7 C 227.5 618.7 226.7 619.0 225.9 618.4 C 225.9 618.4 225.9 618.4 225.9 618.4 Z M 246.1 618.3 C 245.1 618.3 245.7 621.0 246.1 621.5 C 246.5 622.0 247.2 621.7 247.9 621.8 C 248.6 621.9 248.4 621.1 248.8 620.8 C 249.2 620.6 249.0 621.1 249.2 621.5 C 249.4 621.9 250.4 621.5 251.1 621.6 C 251.7 621.6 252.4 620.7 252.9 620.7 C 253.4 620.6 252.4 620.2 253.4 620.3 C 254.3 620.3 253.8 620.8 252.8 621.1 C 251.7 621.4 253.2 621.6 253.8 621.7 C 254.3 621.8 255.3 621.4 255.8 621.4 C 256.2 621.5 255.7 620.8 256.3 620.8 C 257.0 620.9 256.6 621.5 257.3 621.6 C 258.0 621.7 257.9 621.1 258.2 621.0 C 258.6 620.8 258.5 621.2 258.8 621.2 C 259.1 621.3 259.5 621.5 260.2 621.4 C 260.8 621.2 260.6 621.0 260.9 621.0 C 261.2 620.9 261.7 620.9 261.7 620.9 C 261.8 621.1 261.8 621.4 261.8 621.6 C 261.8 621.6 263.0 621.6 263.3 621.7 C 263.7 621.7 264.4 621.4 264.2 621.3 C 264.0 621.2 264.8 620.7 265.0 620.8 C 265.1 620.9 265.7 621.2 266.1 621.4 C 266.5 621.5 266.4 619.8 266.4 619.6 C 266.4 619.3 266.6 618.4 266.3 618.3 C 266.0 618.2 265.7 618.6 265.7 618.3 C 265.8 618.1 264.7 618.3 264.5 618.3 C 264.2 618.3 263.8 619.0 263.8 619.0 C 263.8 619.0 263.6 619.5 263.1 619.5 C 262.6 619.5 262.5 618.4 262.5 618.4 C 262.5 618.4 261.9 618.2 261.3 618.3 C 260.7 618.3 260.1 619.2 260.0 619.4 C 259.9 619.6 259.9 618.8 259.5 618.7 C 259.1 618.6 258.5 618.3 258.3 618.4 C 258.2 618.4 257.9 619.0 257.9 619.0 C 257.9 619.0 257.1 619.3 257.0 619.3 C 256.8 619.3 257.1 618.5 257.1 618.5 C 257.1 618.5 255.5 618.3 255.2 618.2 C 254.9 618.1 254.4 618.4 254.2 618.4 C 253.9 618.5 253.6 619.4 253.2 619.3 C 252.9 619.2 253.6 618.7 253.2 618.6 C 252.9 618.5 252.3 618.3 252.1 618.3 C 251.9 618.3 251.7 618.7 251.4 618.7 C 251.1 618.8 250.7 619.5 250.3 619.5 C 249.8 619.5 249.6 619.0 249.4 619.0 C 249.2 618.9 249.1 618.2 248.8 618.2 C 248.4 618.2 248.7 618.6 248.3 618.6 C 248.0 618.6 248.0 619.1 247.6 619.0 C 247.3 618.9 247.5 618.1 247.1 618.2 C 246.9 618.3 247.1 618.2 246.1 618.3 C 246.1 618.3 246.1 618.3 246.1 618.3 Z M 267.2 618.4 C 266.7 618.0 266.2 618.5 266.3 618.9 C 266.3 619.2 266.5 620.2 266.3 620.5 C 266.2 620.8 265.6 621.5 266.5 621.6 C 267.3 621.7 267.5 621.5 267.5 621.2 C 267.5 621.0 267.7 620.0 267.9 620.1 C 268.1 620.2 268.4 620.4 268.4 620.6 C 268.5 620.7 268.8 621.7 269.2 621.6 C 269.7 621.4 270.1 621.1 270.1 621.1 C 270.3 621.1 270.5 621.1 270.7 621.1 C 270.7 621.1 271.3 621.7 271.7 621.6 C 272.2 621.4 272.7 621.4 273.1 621.5 C 273.4 621.5 273.8 621.4 273.8 621.2 C 273.9 621.0 274.3 620.1 274.3 620.1 C 274.3 620.1 274.9 619.9 275.1 620.0 C 275.3 620.2 275.4 620.6 275.3 620.8 C 275.3 621.0 275.3 621.5 275.7 621.6 C 276.0 621.6 277.5 622.1 277.8 621.8 C 278.0 621.6 277.9 621.2 278.1 621.1 C 278.3 621.0 279.3 620.9 279.4 621.2 C 279.5 621.4 279.4 621.9 279.7 621.9 C 280.0 621.8 280.6 622.0 280.6 621.8 C 280.6 621.7 280.7 621.6 280.8 621.3 C 280.8 621.0 281.4 620.8 281.5 620.6 C 281.6 620.5 282.1 620.4 282.1 620.4 C 282.3 620.6 282.4 620.7 282.6 620.9 C 282.6 620.9 282.3 621.4 282.1 621.5 C 282.0 621.6 282.2 621.9 282.4 622.0 C 282.6 622.0 283.7 621.9 283.7 621.9 C 283.7 621.5 283.7 621.2 283.8 620.8 C 284.0 620.7 284.3 620.6 284.6 620.5 C 284.6 620.5 284.4 621.9 285.0 621.9 C 285.5 621.9 286.1 621.9 286.1 621.9 C 286.1 621.9 286.7 621.4 286.8 621.3 C 286.9 621.3 287.0 620.1 287.0 620.1 C 287.0 619.6 286.9 619.2 286.9 618.7 C 286.9 618.7 286.2 618.2 285.9 618.4 C 285.6 618.6 285.8 619.1 285.8 619.3 C 285.7 619.6 285.2 619.8 285.2 619.8 C 285.0 619.5 284.7 619.3 284.5 619.0 C 284.5 619.0 284.3 618.8 284.0 618.5 C 283.8 618.3 283.0 618.2 282.8 618.3 C 282.5 618.4 282.3 618.7 282.0 618.9 C 281.7 619.1 281.8 619.6 281.4 619.2 C 281.1 618.9 280.9 618.5 280.7 618.5 C 280.6 618.5 279.8 619.0 279.8 619.0 C 279.6 619.1 279.4 619.2 279.2 619.3 C 279.2 619.3 278.6 619.6 278.5 619.3 C 278.5 619.0 277.3 619.3 277.3 619.3 C 277.3 619.3 277.4 618.5 277.1 618.4 C 276.8 618.2 276.4 618.0 275.9 618.2 C 275.5 618.3 275.1 619.1 275.1 619.1 C 275.0 618.9 274.8 618.7 274.7 618.5 C 274.2 618.4 273.8 618.4 273.4 618.3 C 273.4 618.3 272.4 618.4 272.4 618.5 C 272.4 618.6 272.5 619.3 272.4 619.5 C 272.4 619.7 271.9 619.9 271.8 619.7 C 271.7 619.5 271.3 618.8 271.3 618.8 C 271.3 618.8 270.9 618.4 270.6 618.4 C 270.3 618.3 269.8 618.5 269.7 618.7 C 269.6 618.8 269.1 619.3 269.1 619.3 C 269.0 619.1 268.9 618.9 268.8 618.7 C 268.8 618.7 268.0 619.0 267.2 618.4 C 267.2 618.4 267.2 618.4 267.2 618.4 Z M 287.3 618.3 C 286.3 618.3 287.0 621.0 287.4 621.5 C 287.8 622.0 288.5 621.7 289.1 621.8 C 289.8 621.9 289.6 621.1 290.0 620.8 C 290.4 620.6 290.3 621.1 290.4 621.5 C 290.6 621.9 291.7 621.5 292.3 621.6 C 292.9 621.6 293.6 620.7 294.1 620.7 C 294.6 620.6 293.7 620.2 294.6 620.3 C 295.5 620.3 295.0 620.8 294.0 621.1 C 292.9 621.4 294.4 621.6 295.0 621.7 C 295.6 621.8 296.5 621.4 297.0 621.4 C 297.4 621.5 296.9 620.8 297.5 620.8 C 298.2 620.9 297.9 621.5 298.5 621.6 C 299.2 621.7 299.1 621.1 299.5 621.0 C 299.8 620.8 299.7 621.2 300.0 621.2 C 300.3 621.3 300.8 621.5 301.4 621.4 C 302.0 621.2 301.9 621.0 302.1 621.0 C 302.4 620.9 302.9 620.9 302.9 620.9 C 303.0 621.1 303.0 621.4 303.1 621.6 C 303.1 621.6 304.2 621.6 304.5 621.7 C 304.9 621.7 305.7 621.4 305.5 621.3 C 305.3 621.2 306.0 620.7 306.2 620.8 C 306.4 620.9 307.0 621.2 307.4 621.4 C 307.7 621.5 307.6 619.8 307.6 619.6 C 307.6 619.3 307.9 618.4 307.5 618.3 C 307.2 618.2 306.9 618.6 307.0 618.3 C 307.0 618.1 306.0 618.3 305.7 618.3 C 305.4 618.3 305.1 619.0 305.1 619.0 C 305.1 619.0 304.8 619.5 304.3 619.5 C 303.9 619.5 303.7 618.4 303.7 618.4 C 303.7 618.4 303.1 618.2 302.5 618.3 C 302.0 618.3 301.3 619.2 301.2 619.4 C 301.1 619.6 301.1 618.8 300.7 618.7 C 300.3 618.6 299.7 618.3 299.6 618.4 C 299.4 618.4 299.1 619.0 299.1 619.0 C 299.1 619.0 298.4 619.3 298.2 619.3 C 298.0 619.3 298.3 618.5 298.3 618.5 C 298.3 618.5 296.8 618.3 296.4 618.2 C 296.1 618.1 295.6 618.4 295.4 618.4 C 295.1 618.5 294.8 619.4 294.5 619.3 C 294.1 619.2 294.8 618.7 294.5 618.6 C 294.1 618.5 293.5 618.3 293.3 618.3 C 293.2 618.3 292.9 618.7 292.6 618.7 C 292.3 618.8 291.9 619.5 291.5 619.5 C 291.0 619.5 290.8 619.0 290.6 619.0 C 290.5 618.9 290.3 618.2 290.0 618.2 C 289.6 618.2 289.9 618.6 289.5 618.6 C 289.2 618.6 289.2 619.1 288.9 619.0 C 288.5 618.9 288.7 618.1 288.3 618.2 C 288.2 618.3 288.3 618.2 287.3 618.3 C 287.3 618.3 287.3 618.3 287.3 618.3 Z M 308.4 618.4 C 307.9 618.0 307.4 618.5 307.5 618.9 C 307.6 619.2 307.7 620.2 307.6 620.5 C 307.4 620.8 306.8 621.5 307.7 621.6 C 308.5 621.7 308.7 621.5 308.7 621.2 C 308.7 621.0 308.9 620.0 309.1 620.1 C 309.4 620.2 309.6 620.4 309.7 620.6 C 309.7 620.7 310.0 621.7 310.5 621.6 C 310.9 621.4 311.3 621.1 311.3 621.1 C 311.5 621.1 311.7 621.1 311.9 621.1 C 311.9 621.1 312.5 621.7 313.0 621.6 C 313.4 621.4 313.9 621.4 314.3 621.5 C 314.6 621.5 315.0 621.4 315.1 621.2 C 315.1 621.0 315.6 620.1 315.6 620.1 C 315.6 620.1 316.1 619.9 316.3 620.0 C 316.6 620.2 316.6 620.6 316.6 620.8 C 316.5 621.0 316.6 621.5 316.9 621.6 C 317.3 621.6 318.8 622.1 319.0 621.8 C 319.2 621.6 319.2 621.2 319.3 621.1 C 319.5 621.0 320.5 620.9 320.6 621.2 C 320.7 621.4 320.6 621.9 320.9 621.9 C 321.2 621.8 321.8 622.0 321.8 621.8 C 321.8 621.7 322.0 621.6 322.0 621.3 C 322.0 621.0 322.6 620.8 322.7 620.6 C 322.8 620.5 323.3 620.4 323.3 620.4 C 323.5 620.6 323.7 620.7 323.9 620.9 C 323.9 620.9 323.5 621.4 323.3 621.5 C 323.2 621.6 323.5 621.9 323.6 622.0 C 323.8 622.0 324.9 621.9 324.9 621.9 C 324.9 621.5 325.0 621.2 325.0 620.8 C 325.2 620.7 325.5 620.6 325.8 620.5 C 325.8 620.5 325.7 621.9 326.2 621.9 C 326.7 621.9 327.4 621.9 327.4 621.9 C 327.4 621.9 327.9 621.4 328.0 621.3 C 328.2 621.3 328.2 620.1 328.2 620.1 C 328.2 619.6 328.1 619.2 328.1 618.7 C 328.1 618.7 327.5 618.2 327.1 618.4 C 326.8 618.6 327.1 619.1 327.0 619.3 C 326.9 619.6 326.4 619.8 326.4 619.8 C 326.2 619.5 325.9 619.3 325.7 619.0 C 325.7 619.0 325.5 618.8 325.3 618.5 C 325.0 618.3 324.2 618.2 324.0 618.3 C 323.8 618.4 323.5 618.7 323.2 618.9 C 322.9 619.1 323.0 619.6 322.7 619.2 C 322.3 618.9 322.1 618.5 322.0 618.5 C 321.8 618.5 321.0 619.0 321.0 619.0 C 320.8 619.1 320.6 619.2 320.4 619.3 C 320.4 619.3 319.8 619.6 319.7 619.3 C 319.7 619.0 318.5 619.3 318.5 619.3 C 318.5 619.3 318.6 618.5 318.4 618.4 C 318.1 618.2 317.6 618.0 317.1 618.2 C 316.7 618.3 316.3 619.1 316.3 619.1 C 316.2 618.9 316.0 618.7 315.9 618.5 C 315.5 618.4 315.0 618.4 314.6 618.3 C 314.6 618.3 313.6 618.4 313.6 618.5 C 313.6 618.6 313.7 619.3 313.7 619.5 C 313.6 619.7 313.1 619.9 313.0 619.7 C 313.0 619.5 312.5 618.8 312.5 618.8 C 312.5 618.8 312.1 618.4 311.8 618.4 C 311.5 618.3 311.0 618.5 310.9 618.7 C 310.8 618.8 310.3 619.3 310.3 619.3 C 310.2 619.1 310.1 618.9 310.0 618.7 C 310.0 618.7 309.2 619.0 308.4 618.4 C 308.4 618.4 308.4 618.4 308.4 618.4 Z M 328.5 618.3 C 327.5 618.3 328.2 621.0 328.6 621.5 C 329.0 622.0 329.7 621.7 330.4 621.8 C 331.1 621.9 330.8 621.1 331.2 620.8 C 331.6 620.6 331.5 621.1 331.7 621.5 C 331.8 621.9 332.9 621.5 333.5 621.6 C 334.2 621.6 334.8 620.7 335.3 620.7 C 335.8 620.6 334.9 620.2 335.8 620.3 C 336.7 620.3 336.3 620.8 335.2 621.1 C 334.2 621.4 335.6 621.6 336.2 621.7 C 336.8 621.8 337.8 621.4 338.2 621.4 C 338.7 621.5 338.1 620.8 338.8 620.8 C 339.4 620.9 339.1 621.5 339.8 621.6 C 340.4 621.7 340.3 621.1 340.7 621.0 C 341.0 620.8 341.0 621.2 341.2 621.2 C 341.5 621.3 342.0 621.5 342.6 621.4 C 343.2 621.2 343.1 621.0 343.4 621.0 C 343.7 620.9 344.2 620.9 344.2 620.9 C 344.2 621.1 344.2 621.4 344.3 621.6 C 344.3 621.6 345.4 621.6 345.8 621.7 C 346.1 621.7 346.9 621.4 346.7 621.3 C 346.5 621.2 347.3 620.7 347.4 620.8 C 347.6 620.9 348.2 621.2 348.6 621.4 C 349.0 621.5 348.9 619.8 348.9 619.6 C 348.9 619.3 349.1 618.4 348.7 618.3 C 348.4 618.2 348.1 618.6 348.2 618.3 C 348.2 618.1 347.2 618.3 346.9 618.3 C 346.6 618.3 346.3 619.0 346.3 619.0 C 346.3 619.0 346.0 619.5 345.5 619.5 C 345.1 619.5 344.9 618.4 344.9 618.4 C 344.9 618.4 344.3 618.2 343.8 618.3 C 343.2 618.3 342.6 619.2 342.4 619.4 C 342.3 619.6 342.4 618.8 341.9 618.7 C 341.5 618.6 341.0 618.3 340.8 618.4 C 340.6 618.4 340.3 619.0 340.3 619.0 C 340.3 619.0 339.6 619.3 339.4 619.3 C 339.2 619.3 339.5 618.5 339.5 618.5 C 339.5 618.5 338.0 618.3 337.7 618.2 C 337.3 618.1 336.8 618.4 336.6 618.4 C 336.4 618.5 336.0 619.4 335.7 619.3 C 335.3 619.2 336.0 618.7 335.7 618.6 C 335.3 618.5 334.7 618.3 334.5 618.3 C 334.4 618.3 334.1 618.7 333.9 618.7 C 333.6 618.8 333.2 619.5 332.7 619.5 C 332.3 619.5 332.0 619.0 331.9 619.0 C 331.7 618.9 331.6 618.2 331.2 618.2 C 330.8 618.2 331.1 618.6 330.8 618.6 C 330.4 618.6 330.4 619.1 330.1 619.0 C 329.7 618.9 329.9 618.1 329.6 618.2 C 329.4 618.3 329.6 618.2 328.5 618.3 C 328.5 618.3 328.5 618.3 328.5 618.3 Z M 351.0 619.1 C 350.7 619.2 350.6 618.7 350.0 618.5 C 349.4 618.4 348.7 618.3 348.9 618.7 C 349.0 619.0 349.2 619.2 348.9 619.6 C 348.6 620.0 348.3 620.7 348.7 620.9 C 349.1 621.2 350.6 621.9 351.1 621.5 C 351.6 621.2 351.8 621.0 352.2 620.8 C 352.5 620.5 352.3 621.3 352.3 621.3 C 352.3 621.3 353.1 621.4 353.8 621.5 C 354.4 621.5 355.1 621.6 355.2 621.4 C 355.3 621.3 355.5 621.0 355.5 621.0 C 355.5 621.0 355.8 621.4 356.3 621.5 C 356.7 621.5 356.6 621.3 356.5 621.1 C 356.4 621.0 355.9 620.4 356.1 620.4 C 356.3 620.4 356.9 621.2 357.2 621.3 C 357.5 621.4 358.3 621.3 358.3 621.3 C 358.3 621.3 358.2 620.9 358.3 620.8 C 358.4 620.7 359.1 620.6 359.1 620.8 C 359.2 620.9 359.1 621.4 359.4 621.5 C 360.6 621.5 360.4 620.7 360.5 620.6 C 360.6 620.6 360.6 621.3 360.9 621.4 C 361.2 621.5 363.4 621.4 363.5 621.2 C 363.7 621.1 364.4 621.7 364.7 621.3 C 365.1 620.8 365.2 620.7 365.2 620.6 C 365.3 620.5 365.7 619.8 365.9 620.1 C 366.1 620.3 365.3 621.1 365.5 621.3 C 365.8 621.5 367.2 621.6 367.4 621.4 C 367.8 621.1 367.9 620.4 368.1 620.4 C 368.3 620.4 369.1 621.3 369.1 621.1 C 369.2 621.0 369.3 620.3 369.3 620.2 C 369.3 620.0 369.6 618.8 369.4 618.6 C 369.2 618.4 368.4 618.0 368.5 618.3 C 368.6 618.7 368.8 619.1 368.5 619.3 C 368.2 619.5 368.0 619.5 368.0 619.3 C 367.9 619.2 368.1 619.1 367.6 618.8 C 367.1 618.6 367.3 618.3 366.9 618.3 C 366.4 618.3 366.0 618.4 366.0 618.7 C 366.1 619.0 365.6 619.4 365.2 619.3 C 364.9 619.3 365.5 618.7 364.4 618.5 C 363.4 618.2 362.7 618.2 362.4 618.4 C 362.1 618.6 362.0 619.4 361.5 619.1 C 361.1 618.7 361.3 618.5 360.6 618.6 C 360.0 618.6 359.7 619.2 359.3 619.2 C 358.9 619.2 358.7 619.2 358.7 619.2 C 358.7 619.2 359.0 618.3 358.0 618.3 C 357.0 618.3 356.8 618.2 357.0 618.8 C 357.2 619.4 356.5 619.4 356.5 619.0 C 356.4 618.6 355.9 618.4 355.5 618.3 C 355.2 618.3 355.1 619.3 355.0 619.3 C 354.8 619.3 354.4 619.3 354.6 618.9 C 354.7 618.6 354.4 618.6 354.1 618.4 C 353.8 618.3 352.9 618.4 352.9 618.6 C 352.9 618.8 353.3 619.4 352.7 619.1 C 352.1 618.8 352.0 618.3 351.4 618.3 C 350.8 618.3 351.3 618.9 351.0 619.1 C 351.0 619.1 351.0 619.1 351.0 619.1 Z M 370.2 618.4 C 369.7 618.0 369.3 618.5 369.3 618.9 C 369.4 619.2 369.6 620.2 369.4 620.5 C 369.2 620.8 368.6 621.5 369.5 621.6 C 370.4 621.7 370.6 621.5 370.6 621.2 C 370.6 621.0 370.7 620.0 371.0 620.1 C 371.2 620.2 371.4 620.4 371.5 620.6 C 371.5 620.7 371.9 621.7 372.3 621.6 C 372.7 621.4 373.1 621.1 373.1 621.1 C 373.3 621.1 373.5 621.1 373.8 621.1 C 373.8 621.1 374.3 621.7 374.8 621.6 C 375.3 621.4 375.8 621.4 376.1 621.5 C 376.5 621.5 376.8 621.4 376.9 621.2 C 376.9 621.0 377.4 620.1 377.4 620.1 C 377.4 620.1 377.9 619.9 378.2 620.0 C 378.4 620.2 378.5 620.6 378.4 620.8 C 378.3 621.0 378.4 621.5 378.7 621.6 C 379.1 621.6 380.6 622.1 380.8 621.8 C 381.1 621.6 381.0 621.2 381.2 621.1 C 381.3 621.0 382.3 620.9 382.4 621.2 C 382.5 621.4 382.5 621.9 382.7 621.9 C 383.0 621.8 383.6 622.0 383.6 621.8 C 383.6 621.7 383.8 621.6 383.8 621.3 C 383.8 621.0 384.4 620.8 384.5 620.6 C 384.7 620.5 385.1 620.4 385.1 620.4 C 385.3 620.6 385.5 620.7 385.7 620.9 C 385.7 620.9 385.4 621.4 385.2 621.5 C 385.0 621.6 385.3 621.9 385.5 622.0 C 385.6 622.0 386.7 621.9 386.7 621.9 C 386.8 621.5 386.8 621.2 386.8 620.8 C 387.1 620.7 387.3 620.6 387.6 620.5 C 387.6 620.5 387.5 621.9 388.0 621.9 C 388.5 621.9 389.2 621.9 389.2 621.9 C 389.2 621.9 389.7 621.4 389.9 621.3 C 390.0 621.3 390.1 620.1 390.1 620.1 C 390.0 619.6 390.0 619.2 389.9 618.7 C 389.9 618.7 389.3 618.2 389.0 618.4 C 388.6 618.6 388.9 619.1 388.8 619.3 C 388.8 619.6 388.3 619.8 388.3 619.8 C 388.0 619.5 387.8 619.3 387.5 619.0 C 387.5 619.0 387.3 618.8 387.1 618.5 C 386.9 618.3 386.1 618.2 385.8 618.3 C 385.6 618.4 385.4 618.7 385.1 618.9 C 384.8 619.1 384.8 619.6 384.5 619.2 C 384.1 618.9 384.0 618.5 383.8 618.5 C 383.6 618.5 382.9 619.0 382.9 619.0 C 382.7 619.1 382.4 619.2 382.2 619.3 C 382.2 619.3 381.7 619.6 381.6 619.3 C 381.5 619.0 380.4 619.3 380.4 619.3 C 380.4 619.3 380.5 618.5 380.2 618.4 C 379.9 618.2 379.4 618.0 379.0 618.2 C 378.5 618.3 378.2 619.1 378.2 619.1 C 378.0 618.9 377.9 618.7 377.7 618.5 C 377.3 618.4 376.9 618.4 376.4 618.3 C 376.4 618.3 375.4 618.4 375.4 618.5 C 375.4 618.6 375.5 619.3 375.5 619.5 C 375.4 619.7 374.9 619.9 374.9 619.7 C 374.8 619.5 374.3 618.8 374.3 618.8 C 374.3 618.8 373.9 618.4 373.6 618.4 C 373.3 618.3 372.9 618.5 372.8 618.7 C 372.6 618.8 372.2 619.3 372.2 619.3 C 372.1 619.1 371.9 618.9 371.8 618.7 C 371.8 618.7 371.0 619.0 370.2 618.4 C 370.2 618.4 370.2 618.4 370.2 618.4 Z M 390.4 618.3 C 389.3 618.3 390.0 621.0 390.4 621.5 C 390.8 622.0 391.5 621.7 392.2 621.8 C 392.9 621.9 392.7 621.1 393.1 620.8 C 393.5 620.6 393.3 621.1 393.5 621.5 C 393.7 621.9 394.7 621.5 395.4 621.6 C 396.0 621.6 396.7 620.7 397.2 620.7 C 397.7 620.6 396.7 620.2 397.6 620.3 C 398.6 620.3 398.1 620.8 397.0 621.1 C 396.0 621.4 397.5 621.6 398.0 621.7 C 398.6 621.8 399.6 621.4 400.0 621.4 C 400.5 621.5 399.9 620.8 400.6 620.8 C 401.2 620.9 400.9 621.5 401.6 621.6 C 402.3 621.7 402.2 621.1 402.5 621.0 C 402.9 620.8 402.8 621.2 403.1 621.2 C 403.4 621.3 403.8 621.5 404.5 621.4 C 405.1 621.2 404.9 621.0 405.2 621.0 C 405.5 620.9 406.0 620.9 406.0 620.9 C 406.0 621.1 406.1 621.4 406.1 621.6 C 406.1 621.6 407.3 621.6 407.6 621.7 C 407.9 621.7 408.7 621.4 408.5 621.3 C 408.3 621.2 409.1 620.7 409.3 620.8 C 409.4 620.9 410.0 621.2 410.4 621.4 C 410.8 621.5 410.7 619.8 410.7 619.6 C 410.7 619.3 410.9 618.4 410.6 618.3 C 410.2 618.2 409.9 618.6 410.0 618.3 C 410.1 618.1 409.0 618.3 408.7 618.3 C 408.5 618.3 408.1 619.0 408.1 619.0 C 408.1 619.0 407.8 619.5 407.4 619.5 C 406.9 619.5 406.7 618.4 406.7 618.4 C 406.7 618.4 406.2 618.2 405.6 618.3 C 405.0 618.3 404.4 619.2 404.3 619.4 C 404.2 619.6 404.2 618.8 403.8 618.7 C 403.4 618.6 402.8 618.3 402.6 618.4 C 402.4 618.4 402.2 619.0 402.2 619.0 C 402.2 619.0 401.4 619.3 401.2 619.3 C 401.1 619.3 401.4 618.5 401.4 618.5 C 401.4 618.5 399.8 618.3 399.5 618.2 C 399.2 618.1 398.7 618.4 398.4 618.4 C 398.2 618.5 397.9 619.4 397.5 619.3 C 397.2 619.2 397.9 618.7 397.5 618.6 C 397.2 618.5 396.5 618.3 396.4 618.3 C 396.2 618.3 396.0 618.7 395.7 618.7 C 395.4 618.8 395.0 619.5 394.5 619.5 C 394.1 619.5 393.9 619.0 393.7 619.0 C 393.5 618.9 393.4 618.2 393.0 618.2 C 392.7 618.2 392.9 618.6 392.6 618.6 C 392.3 618.6 392.3 619.1 391.9 619.0 C 391.6 618.9 391.8 618.1 391.4 618.2 C 391.2 618.3 391.4 618.2 390.4 618.3 C 390.4 618.3 390.4 618.3 390.4 618.3 Z M 411.4 618.4 C 410.9 618.0 410.5 618.5 410.6 618.9 C 410.6 619.2 410.8 620.2 410.6 620.5 C 410.4 620.8 409.9 621.5 410.7 621.6 C 411.6 621.7 411.8 621.5 411.8 621.2 C 411.8 621.0 412.0 620.0 412.2 620.1 C 412.4 620.2 412.6 620.4 412.7 620.6 C 412.8 620.7 413.1 621.7 413.5 621.6 C 413.9 621.4 414.3 621.1 414.3 621.1 C 414.5 621.1 414.8 621.1 415.0 621.1 C 415.0 621.1 415.6 621.7 416.0 621.6 C 416.5 621.4 417.0 621.4 417.4 621.5 C 417.7 621.5 418.0 621.4 418.1 621.2 C 418.2 621.0 418.6 620.1 418.6 620.1 C 418.6 620.1 419.1 619.9 419.4 620.0 C 419.6 620.2 419.7 620.6 419.6 620.8 C 419.6 621.0 419.6 621.5 420.0 621.6 C 420.3 621.6 421.8 622.1 422.1 621.8 C 422.3 621.6 422.2 621.2 422.4 621.1 C 422.6 621.0 423.6 620.9 423.7 621.2 C 423.7 621.4 423.7 621.9 424.0 621.9 C 424.3 621.8 424.8 622.0 424.8 621.8 C 424.8 621.7 425.0 621.6 425.0 621.3 C 425.1 621.0 425.6 620.8 425.8 620.6 C 425.9 620.5 426.3 620.4 426.3 620.4 C 426.5 620.6 426.7 620.7 426.9 620.9 C 426.9 620.9 426.6 621.4 426.4 621.5 C 426.2 621.6 426.5 621.9 426.7 622.0 C 426.9 622.0 428.0 621.9 428.0 621.9 C 428.0 621.5 428.0 621.2 428.0 620.8 C 428.3 620.7 428.6 620.6 428.8 620.5 C 428.8 620.5 428.7 621.9 429.2 621.9 C 429.8 621.9 430.4 621.9 430.4 621.9 C 430.4 621.9 430.9 621.4 431.1 621.3 C 431.2 621.3 431.3 620.1 431.3 620.1 C 431.2 619.6 431.2 619.2 431.2 618.7 C 431.2 618.7 430.5 618.2 430.2 618.4 C 429.8 618.6 430.1 619.1 430.1 619.3 C 430.0 619.6 429.5 619.8 429.5 619.8 C 429.2 619.5 429.0 619.3 428.8 619.0 C 428.8 619.0 428.5 618.8 428.3 618.5 C 428.1 618.3 427.3 618.2 427.0 618.3 C 426.8 618.4 426.6 618.7 426.3 618.9 C 426.0 619.1 426.1 619.6 425.7 619.2 C 425.4 618.9 425.2 618.5 425.0 618.5 C 424.8 618.5 424.1 619.0 424.1 619.0 C 423.9 619.1 423.7 619.2 423.4 619.3 C 423.4 619.3 422.9 619.6 422.8 619.3 C 422.7 619.0 421.6 619.3 421.6 619.3 C 421.6 619.3 421.7 618.5 421.4 618.4 C 421.1 618.2 420.7 618.0 420.2 618.2 C 419.7 618.3 419.4 619.1 419.4 619.1 C 419.2 618.9 419.1 618.7 418.9 618.5 C 418.5 618.4 418.1 618.4 417.6 618.3 C 417.6 618.3 416.7 618.4 416.7 618.5 C 416.7 618.6 416.8 619.3 416.7 619.5 C 416.7 619.7 416.1 619.9 416.1 619.7 C 416.0 619.5 415.6 618.8 415.6 618.8 C 415.6 618.8 415.1 618.4 414.9 618.4 C 414.6 618.3 414.1 618.5 414.0 618.7 C 413.9 618.8 413.4 619.3 413.4 619.3 C 413.3 619.1 413.2 618.9 413.0 618.7 C 413.0 618.7 412.2 619.0 411.4 618.4 C 411.4 618.4 411.4 618.4 411.4 618.4 Z M 433.4 619.1 C 433.2 619.2 433.0 618.7 432.4 618.5 C 431.9 618.4 431.2 618.3 431.3 618.7 C 431.4 619.0 431.6 619.2 431.3 619.6 C 431.0 620.0 430.7 620.7 431.1 620.9 C 431.5 621.2 433.1 621.9 433.6 621.5 C 434.1 621.2 434.2 621.0 434.6 620.8 C 435.0 620.5 434.7 621.3 434.7 621.3 C 434.7 621.3 435.6 621.4 436.2 621.5 C 436.8 621.5 437.6 621.6 437.6 621.4 C 437.7 621.3 437.9 621.0 437.9 621.0 C 437.9 621.0 438.3 621.4 438.7 621.5 C 439.2 621.5 439.0 621.3 439.0 621.1 C 438.9 621.0 438.3 620.4 438.5 620.4 C 438.7 620.4 439.3 621.2 439.7 621.3 C 440.0 621.4 440.7 621.3 440.7 621.3 C 440.7 621.3 440.7 620.9 440.7 620.8 C 440.8 620.7 441.5 620.6 441.6 620.8 C 441.6 620.9 441.5 621.4 441.9 621.5 C 443.0 621.5 442.9 620.7 443.0 620.6 C 443.1 620.6 443.1 621.3 443.4 621.4 C 443.6 621.5 445.9 621.4 446.0 621.2 C 446.1 621.1 446.9 621.7 447.2 621.3 C 447.5 620.8 447.6 620.7 447.7 620.6 C 447.8 620.5 448.2 619.8 448.4 620.1 C 448.6 620.3 447.7 621.1 448.0 621.3 C 448.2 621.5 449.7 621.6 449.9 621.4 C 450.2 621.1 450.3 620.4 450.5 620.4 C 450.7 620.4 451.5 621.3 451.6 621.1 C 451.6 621.0 451.7 620.3 451.7 620.2 C 451.7 620.0 452.0 618.8 451.8 618.6 C 451.7 618.4 450.8 618.0 450.9 618.3 C 451.0 618.7 451.2 619.1 451.0 619.3 C 450.7 619.5 450.5 619.5 450.4 619.3 C 450.3 619.2 450.5 619.1 450.0 618.8 C 449.5 618.6 449.8 618.3 449.3 618.3 C 448.9 618.3 448.4 618.4 448.5 618.7 C 448.5 619.0 448.0 619.4 447.7 619.3 C 447.4 619.3 447.9 618.7 446.9 618.5 C 445.8 618.2 445.2 618.2 444.9 618.4 C 444.6 618.6 444.5 619.4 444.0 619.1 C 443.5 618.7 443.8 618.5 443.1 618.6 C 442.4 618.6 442.2 619.2 441.7 619.2 C 441.3 619.2 441.2 619.2 441.2 619.2 C 441.2 619.2 441.4 618.3 440.4 618.3 C 439.5 618.3 439.3 618.2 439.5 618.8 C 439.7 619.4 438.9 619.4 438.9 619.0 C 438.9 618.6 438.3 618.4 438.0 618.3 C 437.6 618.3 437.5 619.3 437.4 619.3 C 437.3 619.3 436.9 619.3 437.0 618.9 C 437.2 618.6 436.8 618.6 436.5 618.4 C 436.2 618.3 435.3 618.4 435.3 618.6 C 435.3 618.8 435.8 619.4 435.2 619.1 C 434.6 618.8 434.4 618.3 433.8 618.3 C 433.3 618.3 433.8 618.9 433.4 619.1 C 433.4 619.1 433.4 619.1 433.4 619.1 Z M 452.7 618.4 C 452.2 618.0 451.7 618.5 451.8 618.9 C 451.8 619.2 452.0 620.2 451.8 620.5 C 451.7 620.8 451.1 621.5 452.0 621.6 C 452.8 621.7 453.0 621.5 453.0 621.2 C 453.0 621.0 453.2 620.0 453.4 620.1 C 453.6 620.2 453.9 620.4 453.9 620.6 C 454.0 620.7 454.3 621.7 454.7 621.6 C 455.2 621.4 455.6 621.1 455.6 621.1 C 455.8 621.1 456.0 621.1 456.2 621.1 C 456.2 621.1 456.8 621.7 457.2 621.6 C 457.7 621.4 458.2 621.4 458.6 621.5 C 458.9 621.5 459.3 621.4 459.3 621.2 C 459.4 621.0 459.8 620.1 459.8 620.1 C 459.8 620.1 460.4 619.9 460.6 620.0 C 460.8 620.2 460.9 620.6 460.8 620.8 C 460.8 621.0 460.8 621.5 461.2 621.6 C 461.5 621.6 463.0 622.1 463.3 621.8 C 463.5 621.6 463.4 621.2 463.6 621.1 C 463.8 621.0 464.8 620.9 464.9 621.2 C 465.0 621.4 464.9 621.9 465.2 621.9 C 465.5 621.8 466.1 622.0 466.1 621.8 C 466.1 621.7 466.2 621.6 466.3 621.3 C 466.3 621.0 466.9 620.8 467.0 620.6 C 467.1 620.5 467.6 620.4 467.6 620.4 C 467.8 620.6 467.9 620.7 468.1 620.9 C 468.1 620.9 467.8 621.4 467.6 621.5 C 467.5 621.6 467.7 621.9 467.9 622.0 C 468.1 622.0 469.2 621.9 469.2 621.9 C 469.2 621.5 469.2 621.2 469.3 620.8 C 469.5 620.7 469.8 620.6 470.1 620.5 C 470.1 620.5 469.9 621.9 470.5 621.9 C 471.0 621.9 471.6 621.9 471.6 621.9 C 471.6 621.9 472.2 621.4 472.3 621.3 C 472.4 621.3 472.5 620.1 472.5 620.1 C 472.5 619.6 472.4 619.2 472.4 618.7 C 472.4 618.7 471.7 618.2 471.4 618.4 C 471.0 618.6 471.3 619.1 471.3 619.3 C 471.2 619.6 470.7 619.8 470.7 619.8 C 470.5 619.5 470.2 619.3 470.0 619.0 C 470.0 619.0 469.8 618.8 469.5 618.5 C 469.3 618.3 468.5 618.2 468.3 618.3 C 468.0 618.4 467.8 618.7 467.5 618.9 C 467.2 619.1 467.3 619.6 466.9 619.2 C 466.6 618.9 466.4 618.5 466.2 618.5 C 466.1 618.5 465.3 619.0 465.3 619.0 C 465.1 619.1 464.9 619.2 464.7 619.3 C 464.7 619.3 464.1 619.6 464.0 619.3 C 464.0 619.0 462.8 619.3 462.8 619.3 C 462.8 619.3 462.9 618.5 462.6 618.4 C 462.3 618.2 461.9 618.0 461.4 618.2 C 461.0 618.3 460.6 619.1 460.6 619.1 C 460.5 618.9 460.3 618.7 460.2 618.5 C 459.7 618.4 459.3 618.4 458.9 618.3 C 458.9 618.3 457.9 618.4 457.9 618.5 C 457.9 618.6 458.0 619.3 457.9 619.5 C 457.9 619.7 457.4 619.9 457.3 619.7 C 457.2 619.5 456.8 618.8 456.8 618.8 C 456.8 618.8 456.4 618.4 456.1 618.4 C 455.8 618.3 455.3 618.5 455.2 618.7 C 455.1 618.8 454.6 619.3 454.6 619.3 C 454.5 619.1 454.4 618.9 454.3 618.7 C 454.3 618.7 453.5 619.0 452.7 618.4 C 452.7 618.4 452.7 618.4 452.7 618.4 Z M 474.6 619.1 C 474.4 619.2 474.2 618.7 473.7 618.5 C 473.1 618.4 472.4 618.3 472.5 618.7 C 472.7 619.0 472.9 619.2 472.6 619.6 C 472.3 620.0 471.9 620.7 472.3 620.9 C 472.7 621.2 474.3 621.9 474.8 621.5 C 475.3 621.2 475.5 621.0 475.8 620.8 C 476.2 620.5 475.9 621.3 475.9 621.3 C 475.9 621.3 476.8 621.4 477.4 621.5 C 478.1 621.5 478.8 621.6 478.8 621.4 C 478.9 621.3 479.2 621.0 479.2 621.0 C 479.2 621.0 479.5 621.4 480.0 621.5 C 480.4 621.5 480.3 621.3 480.2 621.1 C 480.1 621.0 479.5 620.4 479.8 620.4 C 480.0 620.4 480.6 621.2 480.9 621.3 C 481.2 621.4 482.0 621.3 482.0 621.3 C 482.0 621.3 481.9 620.9 482.0 620.8 C 482.0 620.7 482.7 620.6 482.8 620.8 C 482.8 620.9 482.7 621.4 483.1 621.5 C 484.3 621.5 484.1 620.7 484.2 620.6 C 484.3 620.6 484.3 621.3 484.6 621.4 C 484.8 621.5 487.1 621.4 487.2 621.2 C 487.3 621.1 488.1 621.7 488.4 621.3 C 488.7 620.8 488.8 620.7 488.9 620.6 C 489.0 620.5 489.4 619.8 489.6 620.1 C 489.8 620.3 488.9 621.1 489.2 621.3 C 489.5 621.5 490.9 621.6 491.1 621.4 C 491.4 621.1 491.5 620.4 491.7 620.4 C 491.9 620.4 492.7 621.3 492.8 621.1 C 492.9 621.0 493.0 620.3 493.0 620.2 C 493.0 620.0 493.2 618.8 493.1 618.6 C 492.9 618.4 492.1 618.0 492.2 618.3 C 492.3 618.7 492.5 619.1 492.2 619.3 C 491.9 619.5 491.7 619.5 491.6 619.3 C 491.6 619.2 491.7 619.1 491.2 618.8 C 490.7 618.6 491.0 618.3 490.5 618.3 C 490.1 618.3 489.6 618.4 489.7 618.7 C 489.7 619.0 489.2 619.4 488.9 619.3 C 488.6 619.3 489.1 618.7 488.1 618.5 C 487.0 618.2 486.4 618.2 486.1 618.4 C 485.8 618.6 485.7 619.4 485.2 619.1 C 484.7 618.7 485.0 618.5 484.3 618.6 C 483.6 618.6 483.4 619.2 482.9 619.2 C 482.5 619.2 482.4 619.2 482.4 619.2 C 482.4 619.2 482.6 618.3 481.7 618.3 C 480.7 618.3 480.5 618.2 480.7 618.8 C 480.9 619.4 480.2 619.4 480.1 619.0 C 480.1 618.6 479.5 618.4 479.2 618.3 C 478.8 618.3 478.8 619.3 478.6 619.3 C 478.5 619.3 478.1 619.3 478.2 618.9 C 478.4 618.6 478.0 618.6 477.7 618.4 C 477.4 618.3 476.5 618.4 476.5 618.6 C 476.6 618.8 477.0 619.4 476.4 619.1 C 475.8 618.8 475.6 618.3 475.1 618.3 C 474.5 618.3 475.0 618.9 474.6 619.1 C 474.6 619.1 474.6 619.1 474.6 619.1 Z M 493.9 618.4 C 493.4 618.0 492.9 618.5 493.0 618.9 C 493.1 619.2 493.2 620.2 493.1 620.5 C 492.9 620.8 492.3 621.5 493.2 621.6 C 494.0 621.7 494.2 621.5 494.2 621.2 C 494.2 621.0 494.4 620.0 494.6 620.1 C 494.9 620.2 495.1 620.4 495.2 620.6 C 495.2 620.7 495.5 621.7 496.0 621.6 C 496.4 621.4 496.8 621.1 496.8 621.1 C 497.0 621.1 497.2 621.1 497.4 621.1 C 497.4 621.1 498.0 621.7 498.5 621.6 C 498.9 621.4 499.4 621.4 499.8 621.5 C 500.1 621.5 500.5 621.4 500.6 621.2 C 500.6 621.0 501.1 620.1 501.1 620.1 C 501.1 620.1 501.6 619.9 501.8 620.0 C 502.1 620.2 502.1 620.6 502.1 620.8 C 502.0 621.0 502.1 621.5 502.4 621.6 C 502.8 621.6 504.3 622.1 504.5 621.8 C 504.7 621.6 504.7 621.2 504.8 621.1 C 505.0 621.0 506.0 620.9 506.1 621.2 C 506.2 621.4 506.1 621.9 506.4 621.9 C 506.7 621.8 507.3 622.0 507.3 621.8 C 507.3 621.7 507.5 621.6 507.5 621.3 C 507.5 621.0 508.1 620.8 508.2 620.6 C 508.3 620.5 508.8 620.4 508.8 620.4 C 509.0 620.6 509.2 620.7 509.4 620.9 C 509.4 620.9 509.0 621.4 508.8 621.5 C 508.7 621.6 509.0 621.9 509.1 622.0 C 509.3 622.0 510.4 621.9 510.4 621.9 C 510.4 621.5 510.5 621.2 510.5 620.8 C 510.7 620.7 511.0 620.6 511.3 620.5 C 511.3 620.5 511.2 621.9 511.7 621.9 C 512.2 621.9 512.9 621.9 512.9 621.9 C 512.9 621.9 513.4 621.4 513.5 621.3 C 513.7 621.3 513.7 620.1 513.7 620.1 C 513.7 619.6 513.6 619.2 513.6 618.7 C 513.6 618.7 513.0 618.2 512.6 618.4 C 512.3 618.6 512.6 619.1 512.5 619.3 C 512.4 619.6 511.9 619.8 511.9 619.8 C 511.7 619.5 511.4 619.3 511.2 619.0 C 511.2 619.0 511.0 618.8 510.8 618.5 C 510.5 618.3 509.7 618.2 509.5 618.3 C 509.3 618.4 509.0 618.7 508.7 618.9 C 508.4 619.1 508.5 619.6 508.2 619.2 C 507.8 618.9 507.6 618.5 507.5 618.5 C 507.3 618.5 506.5 619.0 506.5 619.0 C 506.3 619.1 506.1 619.2 505.9 619.3 C 505.9 619.3 505.3 619.6 505.2 619.3 C 505.2 619.0 504.0 619.3 504.0 619.3 C 504.0 619.3 504.1 618.5 503.9 618.4 C 503.6 618.2 503.1 618.0 502.6 618.2 C 502.2 618.3 501.8 619.1 501.8 619.1 C 501.7 618.9 501.5 618.7 501.4 618.5 C 501.0 618.4 500.5 618.4 500.1 618.3 C 500.1 618.3 499.1 618.4 499.1 618.5 C 499.1 618.6 499.2 619.3 499.2 619.5 C 499.1 619.7 498.6 619.9 498.5 619.7 C 498.5 619.5 498.0 618.8 498.0 618.8 C 498.0 618.8 497.6 618.4 497.3 618.4 C 497.0 618.3 496.5 618.5 496.4 618.7 C 496.3 618.8 495.8 619.3 495.8 619.3 C 495.7 619.1 495.6 618.9 495.5 618.7 C 495.5 618.7 494.7 619.0 493.9 618.4 C 493.9 618.4 493.9 618.4 493.9 618.4 Z M 515.8 619.1 C 515.6 619.2 515.4 618.7 514.9 618.5 C 514.3 618.4 513.6 618.3 513.7 618.7 C 513.9 619.0 514.1 619.2 513.8 619.6 C 513.5 620.0 513.1 620.7 513.5 620.9 C 513.9 621.2 515.5 621.9 516.0 621.5 C 516.5 621.2 516.7 621.0 517.0 620.8 C 517.4 620.5 517.2 621.3 517.2 621.3 C 517.2 621.3 518.0 621.4 518.6 621.5 C 519.3 621.5 520.0 621.6 520.1 621.4 C 520.1 621.3 520.4 621.0 520.4 621.0 C 520.4 621.0 520.7 621.4 521.2 621.5 C 521.6 621.5 521.5 621.3 521.4 621.1 C 521.3 621.0 520.8 620.4 521.0 620.4 C 521.2 620.4 521.8 621.2 522.1 621.3 C 522.4 621.4 523.2 621.3 523.2 621.3 C 523.2 621.3 523.1 620.9 523.2 620.8 C 523.2 620.7 524.0 620.6 524.0 620.8 C 524.0 620.9 524.0 621.4 524.3 621.5 C 525.5 621.5 525.3 620.7 525.4 620.6 C 525.5 620.6 525.5 621.3 525.8 621.4 C 526.1 621.5 528.3 621.4 528.4 621.2 C 528.5 621.1 529.3 621.7 529.6 621.3 C 530.0 620.8 530.1 620.7 530.1 620.6 C 530.2 620.5 530.6 619.8 530.8 620.1 C 531.0 620.3 530.2 621.1 530.4 621.3 C 530.7 621.5 532.1 621.6 532.3 621.4 C 532.7 621.1 532.8 620.4 533.0 620.4 C 533.2 620.4 534.0 621.3 534.0 621.1 C 534.1 621.0 534.2 620.3 534.2 620.2 C 534.2 620.0 534.5 618.8 534.3 618.6 C 534.1 618.4 533.3 618.0 533.4 618.3 C 533.5 618.7 533.7 619.1 533.4 619.3 C 533.1 619.5 532.9 619.5 532.9 619.3 C 532.8 619.2 533.0 619.1 532.5 618.8 C 532.0 618.6 532.2 618.3 531.8 618.3 C 531.3 618.3 530.9 618.4 530.9 618.7 C 531.0 619.0 530.5 619.4 530.1 619.3 C 529.8 619.3 530.4 618.7 529.3 618.5 C 528.3 618.2 527.6 618.2 527.3 618.4 C 527.0 618.6 526.9 619.4 526.4 619.1 C 525.9 618.7 526.2 618.5 525.5 618.6 C 524.9 618.6 524.6 619.2 524.2 619.2 C 523.7 619.2 523.6 619.2 523.6 619.2 C 523.6 619.2 523.8 618.3 522.9 618.3 C 521.9 618.3 521.7 618.2 521.9 618.8 C 522.1 619.4 521.4 619.4 521.3 619.0 C 521.3 618.6 520.7 618.4 520.4 618.3 C 520.1 618.3 520.0 619.3 519.8 619.3 C 519.7 619.3 519.3 619.3 519.5 618.9 C 519.6 618.6 519.2 618.6 518.9 618.4 C 518.6 618.3 517.8 618.4 517.8 618.6 C 517.8 618.8 518.2 619.4 517.6 619.1 C 517.0 618.8 516.8 618.3 516.3 618.3 C 515.7 618.3 516.2 618.9 515.8 619.1 C 515.8 619.1 515.8 619.1 515.8 619.1 Z M 534.6 618.3 C 533.6 618.3 534.3 621.0 534.7 621.5 C 535.1 622.0 535.8 621.7 536.5 621.8 C 537.2 621.9 536.9 621.1 537.3 620.8 C 537.7 620.6 537.6 621.1 537.8 621.5 C 537.9 621.9 539.0 621.5 539.6 621.6 C 540.3 621.6 540.9 620.7 541.4 620.7 C 542.0 620.6 541.0 620.2 541.9 620.3 C 542.8 620.3 542.4 620.8 541.3 621.1 C 540.3 621.4 541.7 621.6 542.3 621.7 C 542.9 621.8 543.9 621.4 544.3 621.4 C 544.8 621.5 544.2 620.8 544.9 620.8 C 545.5 620.9 545.2 621.5 545.9 621.6 C 546.5 621.7 546.5 621.1 546.8 621.0 C 547.1 620.8 547.1 621.2 547.4 621.2 C 547.6 621.3 548.1 621.5 548.7 621.4 C 549.4 621.2 549.2 621.0 549.5 621.0 C 549.8 620.9 550.3 620.9 550.3 620.9 C 550.3 621.1 550.3 621.4 550.4 621.6 C 550.4 621.6 551.5 621.6 551.9 621.7 C 552.2 621.7 553.0 621.4 552.8 621.3 C 552.6 621.2 553.4 620.7 553.5 620.8 C 553.7 620.9 554.3 621.2 554.7 621.4 C 555.1 621.5 555.0 619.8 555.0 619.6 C 555.0 619.3 555.2 618.4 554.9 618.3 C 554.5 618.2 554.2 618.6 554.3 618.3 C 554.3 618.1 553.3 618.3 553.0 618.3 C 552.7 618.3 552.4 619.0 552.4 619.0 C 552.4 619.0 552.1 619.5 551.6 619.5 C 551.2 619.5 551.0 618.4 551.0 618.4 C 551.0 618.4 550.4 618.2 549.9 618.3 C 549.3 618.3 548.7 619.2 548.6 619.4 C 548.4 619.6 548.5 618.8 548.1 618.7 C 547.7 618.6 547.1 618.3 546.9 618.4 C 546.7 618.4 546.4 619.0 546.4 619.0 C 546.4 619.0 545.7 619.3 545.5 619.3 C 545.3 619.3 545.6 618.5 545.6 618.5 C 545.6 618.5 544.1 618.3 543.8 618.2 C 543.4 618.1 542.9 618.4 542.7 618.4 C 542.5 618.5 542.1 619.4 541.8 619.3 C 541.5 619.2 542.1 618.7 541.8 618.6 C 541.5 618.5 540.8 618.3 540.7 618.3 C 540.5 618.3 540.3 618.7 540.0 618.7 C 539.7 618.8 539.3 619.5 538.8 619.5 C 538.4 619.5 538.1 619.0 538.0 619.0 C 537.8 618.9 537.7 618.2 537.3 618.2 C 537.0 618.2 537.2 618.6 536.9 618.6 C 536.5 618.6 536.5 619.1 536.2 619.0 C 535.8 618.9 536.1 618.1 535.7 618.2 C 535.5 618.3 535.7 618.2 534.6 618.3 C 534.6 618.3 534.6 618.3 534.6 618.3 Z M 555.7 618.4 C 555.2 618.0 554.8 618.5 554.8 618.9 C 554.9 619.2 555.1 620.2 554.9 620.5 C 554.7 620.8 554.1 621.5 555.0 621.6 C 555.9 621.7 556.1 621.5 556.1 621.2 C 556.1 621.0 556.2 620.0 556.5 620.1 C 556.7 620.2 556.9 620.4 557.0 620.6 C 557.0 620.7 557.4 621.7 557.8 621.6 C 558.2 621.4 558.6 621.1 558.6 621.1 C 558.8 621.1 559.0 621.1 559.3 621.1 C 559.3 621.1 559.8 621.7 560.3 621.6 C 560.8 621.4 561.3 621.4 561.6 621.5 C 562.0 621.5 562.3 621.4 562.4 621.2 C 562.4 621.0 562.9 620.1 562.9 620.1 C 562.9 620.1 563.4 619.9 563.7 620.0 C 563.9 620.2 563.9 620.6 563.9 620.8 C 563.8 621.0 563.9 621.5 564.2 621.6 C 564.6 621.6 566.1 622.1 566.3 621.8 C 566.6 621.6 566.5 621.2 566.7 621.1 C 566.8 621.0 567.8 620.9 567.9 621.2 C 568.0 621.4 568.0 621.9 568.2 621.9 C 568.5 621.8 569.1 622.0 569.1 621.8 C 569.1 621.7 569.3 621.6 569.3 621.3 C 569.3 621.0 569.9 620.8 570.0 620.6 C 570.2 620.5 570.6 620.4 570.6 620.4 C 570.8 620.6 571.0 620.7 571.2 620.9 C 571.2 620.9 570.9 621.4 570.7 621.5 C 570.5 621.6 570.8 621.9 571.0 622.0 C 571.1 622.0 572.2 621.9 572.2 621.9 C 572.3 621.5 572.3 621.2 572.3 620.8 C 572.6 620.7 572.8 620.6 573.1 620.5 C 573.1 620.5 573.0 621.9 573.5 621.9 C 574.0 621.9 574.7 621.9 574.7 621.9 C 574.7 621.9 575.2 621.4 575.4 621.3 C 575.5 621.3 575.6 620.1 575.6 620.1 C 575.5 619.6 575.5 619.2 575.4 618.7 C 575.4 618.7 574.8 618.2 574.5 618.4 C 574.1 618.6 574.4 619.1 574.3 619.3 C 574.3 619.6 573.8 619.8 573.8 619.8 C 573.5 619.5 573.3 619.3 573.0 619.0 C 573.0 619.0 572.8 618.8 572.6 618.5 C 572.4 618.3 571.6 618.2 571.3 618.3 C 571.1 618.4 570.9 618.7 570.6 618.9 C 570.3 619.1 570.3 619.6 570.0 619.2 C 569.6 618.9 569.5 618.5 569.3 618.5 C 569.1 618.5 568.4 619.0 568.4 619.0 C 568.1 619.1 567.9 619.2 567.7 619.3 C 567.7 619.3 567.2 619.6 567.1 619.3 C 567.0 619.0 565.9 619.3 565.9 619.3 C 565.9 619.3 566.0 618.5 565.7 618.4 C 565.4 618.2 564.9 618.0 564.5 618.2 C 564.0 618.3 563.7 619.1 563.7 619.1 C 563.5 618.9 563.4 618.7 563.2 618.5 C 562.8 618.4 562.4 618.4 561.9 618.3 C 561.9 618.3 560.9 618.4 560.9 618.5 C 560.9 618.6 561.0 619.3 561.0 619.5 C 560.9 619.7 560.4 619.9 560.4 619.7 C 560.3 619.5 559.8 618.8 559.8 618.8 C 559.8 618.8 559.4 618.4 559.1 618.4 C 558.8 618.3 558.4 618.5 558.3 618.7 C 558.1 618.8 557.7 619.3 557.7 619.3 C 557.6 619.1 557.4 618.9 557.3 618.7 C 557.3 618.7 556.5 619.0 555.7 618.4 C 555.7 618.4 555.7 618.4 555.7 618.4 Z M 577.7 619.1 C 577.5 619.2 577.3 618.7 576.7 618.5 C 576.1 618.4 575.4 618.3 575.6 618.7 C 575.7 619.0 575.9 619.2 575.6 619.6 C 575.3 620.0 575.0 620.7 575.4 620.9 C 575.8 621.2 577.3 621.9 577.8 621.5 C 578.3 621.2 578.5 621.0 578.9 620.8 C 579.2 620.5 579.0 621.3 579.0 621.3 C 579.0 621.3 579.8 621.4 580.5 621.5 C 581.1 621.5 581.8 621.6 581.9 621.4 C 582.0 621.3 582.2 621.0 582.2 621.0 C 582.2 621.0 582.5 621.4 583.0 621.5 C 583.5 621.5 583.3 621.3 583.2 621.1 C 583.2 621.0 582.6 620.4 582.8 620.4 C 583.0 620.4 583.6 621.2 583.9 621.3 C 584.3 621.4 585.0 621.3 585.0 621.3 C 585.0 621.3 584.9 620.9 585.0 620.8 C 585.1 620.7 585.8 620.6 585.8 620.8 C 585.9 620.9 585.8 621.4 586.2 621.5 C 587.3 621.5 587.2 620.7 587.3 620.6 C 587.4 620.6 587.4 621.3 587.6 621.4 C 587.9 621.5 590.2 621.4 590.3 621.2 C 590.4 621.1 591.1 621.7 591.5 621.3 C 591.8 620.8 591.9 620.7 592.0 620.6 C 592.0 620.5 592.5 619.8 592.7 620.1 C 592.9 620.3 592.0 621.1 592.3 621.3 C 592.5 621.5 593.9 621.6 594.2 621.4 C 594.5 621.1 594.6 620.4 594.8 620.4 C 595.0 620.4 595.8 621.3 595.9 621.1 C 595.9 621.0 596.0 620.3 596.0 620.2 C 596.0 620.0 596.3 618.8 596.1 618.6 C 596.0 618.4 595.1 618.0 595.2 618.3 C 595.3 618.7 595.5 619.1 595.2 619.3 C 594.9 619.5 594.8 619.5 594.7 619.3 C 594.6 619.2 594.8 619.1 594.3 618.8 C 593.8 618.6 594.1 618.3 593.6 618.3 C 593.1 618.3 592.7 618.4 592.7 618.7 C 592.8 619.0 592.3 619.4 592.0 619.3 C 591.6 619.3 592.2 618.7 591.1 618.5 C 590.1 618.2 589.4 618.2 589.1 618.4 C 588.8 618.6 588.8 619.4 588.3 619.1 C 587.8 618.7 588.0 618.5 587.4 618.6 C 586.7 618.6 586.4 619.2 586.0 619.2 C 585.6 619.2 585.4 619.2 585.4 619.2 C 585.4 619.2 585.7 618.3 584.7 618.3 C 583.7 618.3 583.5 618.2 583.7 618.8 C 583.9 619.4 583.2 619.4 583.2 619.0 C 583.1 618.6 582.6 618.4 582.2 618.3 C 581.9 618.3 581.8 619.3 581.7 619.3 C 581.5 619.3 581.2 619.3 581.3 618.9 C 581.5 618.6 581.1 618.6 580.8 618.4 C 580.5 618.3 579.6 618.4 579.6 618.6 C 579.6 618.8 580.0 619.4 579.4 619.1 C 578.8 618.8 578.7 618.3 578.1 618.3 C 577.5 618.3 578.0 618.9 577.7 619.1 C 577.7 619.1 577.7 619.1 577.7 619.1 Z M 596.5 618.3 C 595.4 618.3 596.1 621.0 596.5 621.5 C 596.9 622.0 597.6 621.7 598.3 621.8 C 599.0 621.9 598.8 621.1 599.2 620.8 C 599.6 620.6 599.4 621.1 599.6 621.5 C 599.8 621.9 600.8 621.5 601.5 621.6 C 602.1 621.6 602.8 620.7 603.3 620.7 C 603.8 620.6 602.8 620.2 603.7 620.3 C 604.7 620.3 604.2 620.8 603.2 621.1 C 602.1 621.4 603.6 621.6 604.1 621.7 C 604.7 621.8 605.7 621.4 606.1 621.4 C 606.6 621.5 606.0 620.8 606.7 620.8 C 607.4 620.9 607.0 621.5 607.7 621.6 C 608.4 621.7 608.3 621.1 608.6 621.0 C 609.0 620.8 608.9 621.2 609.2 621.2 C 609.5 621.3 609.9 621.5 610.6 621.4 C 611.2 621.2 611.0 621.0 611.3 621.0 C 611.6 620.9 612.1 620.9 612.1 620.9 C 612.1 621.1 612.2 621.4 612.2 621.6 C 612.2 621.6 613.4 621.6 613.7 621.7 C 614.1 621.7 614.8 621.4 614.6 621.3 C 614.4 621.2 615.2 620.7 615.4 620.8 C 615.5 620.9 616.1 621.2 616.5 621.4 C 616.9 621.5 616.8 619.8 616.8 619.6 C 616.8 619.3 617.0 618.4 616.7 618.3 C 616.3 618.2 616.1 618.6 616.1 618.3 C 616.2 618.1 615.1 618.3 614.9 618.3 C 614.6 618.3 614.2 619.0 614.2 619.0 C 614.2 619.0 613.9 619.5 613.5 619.5 C 613.0 619.5 612.8 618.4 612.8 618.4 C 612.8 618.4 612.3 618.2 611.7 618.3 C 611.1 618.3 610.5 619.2 610.4 619.4 C 610.3 619.6 610.3 618.8 609.9 618.7 C 609.5 618.6 608.9 618.3 608.7 618.4 C 608.6 618.4 608.3 619.0 608.3 619.0 C 608.3 619.0 607.5 619.3 607.4 619.3 C 607.2 619.3 607.5 618.5 607.5 618.5 C 607.5 618.5 605.9 618.3 605.6 618.2 C 605.3 618.1 604.8 618.4 604.5 618.4 C 604.3 618.5 604.0 619.4 603.6 619.3 C 603.3 619.2 604.0 618.7 603.6 618.6 C 603.3 618.5 602.7 618.3 602.5 618.3 C 602.3 618.3 602.1 618.7 601.8 618.7 C 601.5 618.8 601.1 619.5 600.7 619.5 C 600.2 619.5 600.0 619.0 599.8 619.0 C 599.6 618.9 599.5 618.2 599.2 618.2 C 598.8 618.2 599.0 618.6 598.7 618.6 C 598.4 618.6 598.4 619.1 598.0 619.0 C 597.7 618.9 597.9 618.1 597.5 618.2 C 597.3 618.3 597.5 618.2 596.5 618.3 C 596.5 618.3 596.5 618.3 596.5 618.3 Z M 618.9 619.1 C 618.7 619.2 618.5 618.7 617.9 618.5 C 617.4 618.4 616.7 618.3 616.8 618.7 C 616.9 619.0 617.1 619.2 616.8 619.6 C 616.5 620.0 616.2 620.7 616.6 620.9 C 617.0 621.2 618.6 621.9 619.1 621.5 C 619.6 621.2 619.7 621.0 620.1 620.8 C 620.5 620.5 620.2 621.3 620.2 621.3 C 620.2 621.3 621.1 621.4 621.7 621.5 C 622.3 621.5 623.1 621.6 623.1 621.4 C 623.2 621.3 623.4 621.0 623.4 621.0 C 623.4 621.0 623.8 621.4 624.2 621.5 C 624.7 621.5 624.5 621.3 624.5 621.1 C 624.4 621.0 623.8 620.4 624.0 620.4 C 624.2 620.4 624.8 621.2 625.2 621.3 C 625.5 621.4 626.2 621.3 626.2 621.3 C 626.2 621.3 626.2 620.9 626.2 620.8 C 626.3 620.7 627.0 620.6 627.1 620.8 C 627.1 620.9 627.0 621.4 627.4 621.5 C 628.5 621.5 628.4 620.7 628.5 620.6 C 628.6 620.6 628.6 621.3 628.9 621.4 C 629.1 621.5 631.4 621.4 631.5 621.2 C 631.6 621.1 632.4 621.7 632.7 621.3 C 633.0 620.8 633.1 620.7 633.2 620.6 C 633.2 620.5 633.7 619.8 633.9 620.1 C 634.1 620.3 633.2 621.1 633.5 621.3 C 633.7 621.5 635.1 621.6 635.4 621.4 C 635.7 621.1 635.8 620.4 636.0 620.4 C 636.2 620.4 637.0 621.3 637.1 621.1 C 637.1 621.0 637.2 620.3 637.2 620.2 C 637.2 620.0 637.5 618.8 637.3 618.6 C 637.2 618.4 636.3 618.0 636.4 618.3 C 636.5 618.7 636.7 619.1 636.4 619.3 C 636.2 619.5 636.0 619.5 635.9 619.3 C 635.8 619.2 636.0 619.1 635.5 618.8 C 635.0 618.6 635.3 618.3 634.8 618.3 C 634.4 618.3 633.9 618.4 634.0 618.7 C 634.0 619.0 633.5 619.4 633.2 619.3 C 632.9 619.3 633.4 618.7 632.4 618.5 C 631.3 618.2 630.7 618.2 630.4 618.4 C 630.1 618.6 630.0 619.4 629.5 619.1 C 629.0 618.7 629.3 618.5 628.6 618.6 C 627.9 618.6 627.7 619.2 627.2 619.2 C 626.8 619.2 626.7 619.2 626.7 619.2 C 626.7 619.2 626.9 618.3 625.9 618.3 C 625.0 618.3 624.8 618.2 625.0 618.8 C 625.2 619.4 624.4 619.4 624.4 619.0 C 624.4 618.6 623.8 618.4 623.5 618.3 C 623.1 618.3 623.0 619.3 622.9 619.3 C 622.8 619.3 622.4 619.3 622.5 618.9 C 622.7 618.6 622.3 618.6 622.0 618.4 C 621.7 618.3 620.8 618.4 620.8 618.6 C 620.8 618.8 621.3 619.4 620.7 619.1 C 620.1 618.8 619.9 618.3 619.3 618.3 C 618.8 618.3 619.3 618.9 618.9 619.1 C 618.9 619.1 618.9 619.1 618.9 619.1 Z M 638.2 618.4 C 637.7 618.0 637.2 618.5 637.3 618.9 C 637.3 619.2 637.5 620.2 637.3 620.5 C 637.2 620.8 636.6 621.5 637.5 621.6 C 638.3 621.7 638.5 621.5 638.5 621.2 C 638.5 621.0 638.7 620.0 638.9 620.1 C 639.1 620.2 639.4 620.4 639.4 620.6 C 639.5 620.7 639.8 621.7 640.2 621.6 C 640.7 621.4 641.1 621.1 641.1 621.1 C 641.3 621.1 641.5 621.1 641.7 621.1 C 641.7 621.1 642.3 621.7 642.7 621.6 C 643.2 621.4 643.7 621.4 644.1 621.5 C 644.4 621.5 644.8 621.4 644.8 621.2 C 644.9 621.0 645.3 620.1 645.3 620.1 C 645.3 620.1 645.9 619.9 646.1 620.0 C 646.3 620.2 646.4 620.6 646.3 620.8 C 646.3 621.0 646.3 621.5 646.7 621.6 C 647.0 621.6 648.5 622.1 648.8 621.8 C 649.0 621.6 648.9 621.2 649.1 621.1 C 649.3 621.0 650.3 620.9 650.4 621.2 C 650.5 621.4 650.4 621.9 650.7 621.9 C 651.0 621.8 651.6 622.0 651.6 621.8 C 651.6 621.7 651.7 621.6 651.8 621.3 C 651.8 621.0 652.4 620.8 652.5 620.6 C 652.6 620.5 653.1 620.4 653.1 620.4 C 653.3 620.6 653.4 620.7 653.6 620.9 C 653.6 620.9 653.3 621.4 653.1 621.5 C 653.0 621.6 653.2 621.9 653.4 622.0 C 653.6 622.0 654.7 621.9 654.7 621.9 C 654.7 621.5 654.7 621.2 654.7 620.8 C 655.0 620.7 655.3 620.6 655.6 620.5 C 655.6 620.5 655.4 621.9 656.0 621.9 C 656.5 621.9 657.1 621.9 657.1 621.9 C 657.1 621.9 657.7 621.4 657.8 621.3 C 657.9 621.3 658.0 620.1 658.0 620.1 C 658.0 619.6 657.9 619.2 657.9 618.7 C 657.9 618.7 657.2 618.2 656.9 618.4 C 656.5 618.6 656.8 619.1 656.8 619.3 C 656.7 619.6 656.2 619.8 656.2 619.8 C 656.0 619.5 655.7 619.3 655.5 619.0 C 655.5 619.0 655.3 618.8 655.0 618.5 C 654.8 618.3 654.0 618.2 653.8 618.3 C 653.5 618.4 653.3 618.7 653.0 618.9 C 652.7 619.1 652.8 619.6 652.4 619.2 C 652.1 618.9 651.9 618.5 651.7 618.5 C 651.6 618.5 650.8 619.0 650.8 619.0 C 650.6 619.1 650.4 619.2 650.2 619.3 C 650.2 619.3 649.6 619.6 649.5 619.3 C 649.5 619.0 648.3 619.3 648.3 619.3 C 648.3 619.3 648.4 618.5 648.1 618.4 C 647.8 618.2 647.4 618.0 646.9 618.2 C 646.5 618.3 646.1 619.1 646.1 619.1 C 646.0 618.9 645.8 618.7 645.7 618.5 C 645.2 618.4 644.8 618.4 644.4 618.3 C 644.4 618.3 643.4 618.4 643.4 618.5 C 643.4 618.6 643.5 619.3 643.4 619.5 C 643.4 619.7 642.9 619.9 642.8 619.7 C 642.7 619.5 642.3 618.8 642.3 618.8 C 642.3 618.8 641.9 618.4 641.6 618.4 C 641.3 618.3 640.8 618.5 640.7 618.7 C 640.6 618.8 640.1 619.3 640.1 619.3 C 640.0 619.1 639.9 618.9 639.8 618.7 C 639.8 618.7 639.0 619.0 638.2 618.4 C 638.2 618.4 638.2 618.4 638.2 618.4 Z M 658.3 618.3 C 657.3 618.3 658.0 621.0 658.4 621.5 C 658.8 622.0 659.5 621.7 660.1 621.8 C 660.8 621.9 660.6 621.1 661.0 620.8 C 661.4 620.6 661.3 621.1 661.4 621.5 C 661.6 621.9 662.7 621.5 663.3 621.6 C 663.9 621.6 664.6 620.7 665.1 620.7 C 665.6 620.6 664.7 620.2 665.6 620.3 C 666.5 620.3 666.0 620.8 665.0 621.1 C 663.9 621.4 665.4 621.6 666.0 621.7 C 666.6 621.8 667.5 621.4 668.0 621.4 C 668.4 621.5 667.9 620.8 668.5 620.8 C 669.2 620.9 668.9 621.5 669.5 621.6 C 670.2 621.7 670.1 621.1 670.5 621.0 C 670.8 620.8 670.7 621.2 671.0 621.2 C 671.3 621.3 671.8 621.5 672.4 621.4 C 673.0 621.2 672.9 621.0 673.1 621.0 C 673.4 620.9 673.9 620.9 673.9 620.9 C 674.0 621.1 674.0 621.4 674.1 621.6 C 674.1 621.6 675.2 621.6 675.5 621.7 C 675.9 621.7 676.7 621.4 676.5 621.3 C 676.2 621.2 677.0 620.7 677.2 620.8 C 677.4 620.9 677.9 621.2 678.4 621.4 C 678.7 621.5 678.6 619.8 678.6 619.6 C 678.6 619.3 678.9 618.4 678.5 618.3 C 678.2 618.2 677.9 618.6 677.9 618.3 C 678.0 618.1 677.0 618.3 676.7 618.3 C 676.4 618.3 676.1 619.0 676.1 619.0 C 676.1 619.0 675.8 619.5 675.3 619.5 C 674.9 619.5 674.7 618.4 674.7 618.4 C 674.7 618.4 674.1 618.2 673.5 618.3 C 673.0 618.3 672.3 619.2 672.2 619.4 C 672.1 619.6 672.1 618.8 671.7 618.7 C 671.3 618.6 670.7 618.3 670.6 618.4 C 670.4 618.4 670.1 619.0 670.1 619.0 C 670.1 619.0 669.4 619.3 669.2 619.3 C 669.0 619.3 669.3 618.5 669.3 618.5 C 669.3 618.5 667.8 618.3 667.4 618.2 C 667.1 618.1 666.6 618.4 666.4 618.4 C 666.1 618.5 665.8 619.4 665.5 619.3 C 665.1 619.2 665.8 618.7 665.5 618.6 C 665.1 618.5 664.5 618.3 664.3 618.3 C 664.1 618.3 663.9 618.7 663.6 618.7 C 663.3 618.8 662.9 619.5 662.5 619.5 C 662.0 619.5 661.8 619.0 661.6 619.0 C 661.5 618.9 661.3 618.2 661.0 618.2 C 660.6 618.2 660.9 618.6 660.5 618.6 C 660.2 618.6 660.2 619.1 659.9 619.0 C 659.5 618.9 659.7 618.1 659.3 618.2 C 659.2 618.3 659.3 618.2 658.3 618.3 C 658.3 618.3 658.3 618.3 658.3 618.3 Z M 679.4 618.4 C 678.9 618.0 678.4 618.5 678.5 618.9 C 678.6 619.2 678.7 620.2 678.6 620.5 C 678.4 620.8 677.8 621.5 678.7 621.6 C 679.5 621.7 679.7 621.5 679.7 621.2 C 679.7 621.0 679.9 620.0 680.1 620.1 C 680.4 620.2 680.6 620.4 680.7 620.6 C 680.7 620.7 681.0 621.7 681.5 621.6 C 681.9 621.4 682.3 621.1 682.3 621.1 C 682.5 621.1 682.7 621.1 682.9 621.1 C 682.9 621.1 683.5 621.7 684.0 621.6 C 684.4 621.4 684.9 621.4 685.3 621.5 C 685.6 621.5 686.0 621.4 686.1 621.2 C 686.1 621.0 686.6 620.1 686.6 620.1 C 686.6 620.1 687.1 619.9 687.3 620.0 C 687.6 620.2 687.6 620.6 687.6 620.8 C 687.5 621.0 687.6 621.5 687.9 621.6 C 688.3 621.6 689.8 622.1 690.0 621.8 C 690.2 621.6 690.2 621.2 690.3 621.1 C 690.5 621.0 691.5 620.9 691.6 621.2 C 691.7 621.4 691.6 621.9 691.9 621.9 C 692.2 621.8 692.8 622.0 692.8 621.8 C 692.8 621.7 693.0 621.6 693.0 621.3 C 693.0 621.0 693.6 620.8 693.7 620.6 C 693.8 620.5 694.3 620.4 694.3 620.4 C 694.5 620.6 694.7 620.7 694.9 620.9 C 694.9 620.9 694.5 621.4 694.3 621.5 C 694.2 621.6 694.5 621.9 694.6 622.0 C 694.8 622.0 695.9 621.9 695.9 621.9 C 695.9 621.5 696.0 621.2 696.0 620.8 C 696.2 620.7 696.5 620.6 696.8 620.5 C 696.8 620.5 696.7 621.9 697.2 621.9 C 697.7 621.9 698.4 621.9 698.4 621.9 C 698.4 621.9 698.9 621.4 699.0 621.3 C 699.2 621.3 699.2 620.1 699.2 620.1 C 699.2 619.6 699.1 619.2 699.1 618.7 C 699.1 618.7 698.5 618.2 698.1 618.4 C 697.8 618.6 698.1 619.1 698.0 619.3 C 697.9 619.6 697.4 619.8 697.4 619.8 C 697.2 619.5 696.9 619.3 696.7 619.0 C 696.7 619.0 696.5 618.8 696.3 618.5 C 696.0 618.3 695.2 618.2 695.0 618.3 C 694.8 618.4 694.5 618.7 694.2 618.9 C 693.9 619.1 694.0 619.6 693.7 619.2 C 693.3 618.9 693.1 618.5 693.0 618.5 C 692.8 618.5 692.0 619.0 692.0 619.0 C 691.8 619.1 691.6 619.2 691.4 619.3 C 691.4 619.3 690.8 619.6 690.7 619.3 C 690.7 619.0 689.5 619.3 689.5 619.3 C 689.5 619.3 689.6 618.5 689.4 618.4 C 689.1 618.2 688.6 618.0 688.1 618.2 C 687.7 618.3 687.3 619.1 687.3 619.1 C 687.2 618.9 687.0 618.7 686.9 618.5 C 686.5 618.4 686.0 618.4 685.6 618.3 C 685.6 618.3 684.6 618.4 684.6 618.5 C 684.6 618.6 684.7 619.3 684.7 619.5 C 684.6 619.7 684.1 619.9 684.0 619.7 C 684.0 619.5 683.5 618.8 683.5 618.8 C 683.5 618.8 683.1 618.4 682.8 618.4 C 682.5 618.3 682.0 618.5 681.9 618.7 C 681.8 618.8 681.3 619.3 681.3 619.3 C 681.2 619.1 681.1 618.9 681.0 618.7 C 681.0 618.7 680.2 619.0 679.4 618.4 C 679.4 618.4 679.4 618.4 679.4 618.4 Z M 699.5 618.3 C 698.5 618.3 699.2 621.0 699.6 621.5 C 700.0 622.0 700.7 621.7 701.4 621.8 C 702.1 621.9 701.8 621.1 702.2 620.8 C 702.6 620.6 702.5 621.1 702.7 621.5 C 702.8 621.9 703.9 621.5 704.5 621.6 C 705.1 621.6 705.8 620.7 706.3 620.7 C 706.8 620.6 705.9 620.2 706.8 620.3 C 707.7 620.3 707.3 620.8 706.2 621.1 C 705.2 621.4 706.6 621.6 707.2 621.7 C 707.8 621.8 708.8 621.4 709.2 621.4 C 709.7 621.5 709.1 620.8 709.8 620.8 C 710.4 620.9 710.1 621.5 710.7 621.6 C 711.4 621.7 711.3 621.1 711.7 621.0 C 712.0 620.8 712.0 621.2 712.2 621.2 C 712.5 621.3 713.0 621.5 713.6 621.4 C 714.2 621.2 714.1 621.0 714.4 621.0 C 714.6 620.9 715.2 620.9 715.2 620.9 C 715.2 621.1 715.2 621.4 715.3 621.6 C 715.3 621.6 716.4 621.6 716.8 621.7 C 717.1 621.7 717.9 621.4 717.7 621.3 C 717.5 621.2 718.3 620.7 718.4 620.8 C 718.6 620.9 719.2 621.2 719.6 621.4 C 720.0 621.5 719.9 619.8 719.9 619.6 C 719.9 619.3 720.1 618.4 719.7 618.3 C 719.4 618.2 719.1 618.6 719.2 618.3 C 719.2 618.1 718.2 618.3 717.9 618.3 C 717.6 618.3 717.3 619.0 717.3 619.0 C 717.3 619.0 717.0 619.5 716.5 619.5 C 716.1 619.5 715.9 618.4 715.9 618.4 C 715.9 618.4 715.3 618.2 714.8 618.3 C 714.2 618.3 713.6 619.2 713.4 619.4 C 713.3 619.6 713.3 618.8 712.9 618.7 C 712.5 618.6 712.0 618.3 711.8 618.4 C 711.6 618.4 711.3 619.0 711.3 619.0 C 711.3 619.0 710.6 619.3 710.4 619.3 C 710.2 619.3 710.5 618.5 710.5 618.5 C 710.5 618.5 709.0 618.3 708.7 618.2 C 708.3 618.1 707.8 618.4 707.6 618.4 C 707.4 618.5 707.0 619.4 706.7 619.3 C 706.3 619.2 707.0 618.7 706.7 618.6 C 706.3 618.5 705.7 618.3 705.5 618.3 C 705.4 618.3 705.1 618.7 704.9 618.7 C 704.6 618.8 704.2 619.5 703.7 619.5 C 703.3 619.5 703.0 619.0 702.9 619.0 C 702.7 618.9 702.6 618.2 702.2 618.2 C 701.8 618.2 702.1 618.6 701.8 618.6 C 701.4 618.6 701.4 619.1 701.1 619.0 C 700.7 618.9 700.9 618.1 700.6 618.2 C 700.4 618.3 700.6 618.2 699.5 618.3 C 699.5 618.3 699.5 618.3 699.5 618.3 Z M 722.0 619.1 C 721.7 619.2 721.6 618.7 721.0 618.5 C 720.4 618.4 719.7 618.3 719.9 618.7 C 720.0 619.0 720.2 619.2 719.9 619.6 C 719.6 620.0 719.3 620.7 719.7 620.9 C 720.1 621.2 721.6 621.9 722.1 621.5 C 722.6 621.2 722.8 621.0 723.2 620.8 C 723.5 620.5 723.3 621.3 723.3 621.3 C 723.3 621.3 724.1 621.4 724.8 621.5 C 725.4 621.5 726.1 621.6 726.2 621.4 C 726.3 621.3 726.5 621.0 726.5 621.0 C 726.5 621.0 726.8 621.4 727.3 621.5 C 727.7 621.5 727.6 621.3 727.5 621.1 C 727.4 621.0 726.9 620.4 727.1 620.4 C 727.3 620.4 727.9 621.2 728.2 621.3 C 728.5 621.4 729.3 621.3 729.3 621.3 C 729.3 621.3 729.2 620.9 729.3 620.8 C 729.4 620.7 730.1 620.6 730.1 620.8 C 730.1 620.9 730.1 621.4 730.4 621.5 C 731.6 621.5 731.4 620.7 731.5 620.6 C 731.6 620.6 731.6 621.3 731.9 621.4 C 732.2 621.5 734.4 621.4 734.5 621.2 C 734.7 621.1 735.4 621.7 735.7 621.3 C 736.1 620.8 736.2 620.7 736.2 620.6 C 736.3 620.5 736.7 619.8 736.9 620.1 C 737.1 620.3 736.3 621.1 736.5 621.3 C 736.8 621.5 738.2 621.6 738.4 621.4 C 738.8 621.1 738.9 620.4 739.1 620.4 C 739.3 620.4 740.1 621.3 740.1 621.1 C 740.2 621.0 740.3 620.3 740.3 620.2 C 740.3 620.0 740.6 618.8 740.4 618.6 C 740.2 618.4 739.4 618.0 739.5 618.3 C 739.6 618.7 739.8 619.1 739.5 619.3 C 739.2 619.5 739.0 619.5 739.0 619.3 C 738.9 619.2 739.1 619.1 738.6 618.8 C 738.1 618.6 738.3 618.3 737.9 618.3 C 737.4 618.3 737.0 618.4 737.0 618.7 C 737.1 619.0 736.6 619.4 736.2 619.3 C 735.9 619.3 736.5 618.7 735.4 618.5 C 734.4 618.2 733.7 618.2 733.4 618.4 C 733.1 618.6 733.0 619.4 732.5 619.1 C 732.0 618.7 732.3 618.5 731.6 618.6 C 731.0 618.6 730.7 619.2 730.3 619.2 C 729.9 619.2 729.7 619.2 729.7 619.2 C 729.7 619.2 730.0 618.3 729.0 618.3 C 728.0 618.3 727.8 618.2 728.0 618.8 C 728.2 619.4 727.5 619.4 727.5 619.0 C 727.4 618.6 726.9 618.4 726.5 618.3 C 726.2 618.3 726.1 619.3 726.0 619.3 C 725.8 619.3 725.4 619.3 725.6 618.9 C 725.7 618.6 725.4 618.6 725.1 618.4 C 724.8 618.3 723.9 618.4 723.9 618.6 C 723.9 618.8 724.3 619.4 723.7 619.1 C 723.1 618.8 723.0 618.3 722.4 618.3 C 721.8 618.3 722.3 618.9 722.0 619.1 C 722.0 619.1 722.0 619.1 722.0 619.1 Z M 741.2 618.4 C 740.7 618.0 740.3 618.5 740.3 618.9 C 740.4 619.2 740.6 620.2 740.4 620.5 C 740.2 620.8 739.6 621.5 740.5 621.6 C 741.4 621.7 741.6 621.5 741.6 621.2 C 741.6 621.0 741.7 620.0 742.0 620.1 C 742.2 620.2 742.4 620.4 742.5 620.6 C 742.5 620.7 742.9 621.7 743.3 621.6 C 743.7 621.4 744.1 621.1 744.1 621.1 C 744.3 621.1 744.5 621.1 744.8 621.1 C 744.8 621.1 745.3 621.7 745.8 621.6 C 746.3 621.4 746.8 621.4 747.1 621.5 C 747.5 621.5 747.8 621.4 747.9 621.2 C 747.9 621.0 748.4 620.1 748.4 620.1 C 748.4 620.1 748.9 619.9 749.2 620.0 C 749.4 620.2 749.4 620.6 749.4 620.8 C 749.3 621.0 749.4 621.5 749.7 621.6 C 750.1 621.6 751.6 622.1 751.8 621.8 C 752.1 621.6 752.0 621.2 752.2 621.1 C 752.3 621.0 753.3 620.9 753.4 621.2 C 753.5 621.4 753.5 621.9 753.7 621.9 C 754.0 621.8 754.6 622.0 754.6 621.8 C 754.6 621.7 754.8 621.6 754.8 621.3 C 754.8 621.0 755.4 620.8 755.5 620.6 C 755.7 620.5 756.1 620.4 756.1 620.4 C 756.3 620.6 756.5 620.7 756.7 620.9 C 756.7 620.9 756.4 621.4 756.2 621.5 C 756.0 621.6 756.3 621.9 756.5 622.0 C 756.6 622.0 757.7 621.9 757.7 621.9 C 757.8 621.5 757.8 621.2 757.8 620.8 C 758.1 620.7 758.3 620.6 758.6 620.5 C 758.6 620.5 758.5 621.9 759.0 621.9 C 759.5 621.9 760.2 621.9 760.2 621.9 C 760.2 621.9 760.7 621.4 760.9 621.3 C 761.0 621.3 761.1 620.1 761.1 620.1 C 761.0 619.6 761.0 619.2 760.9 618.7 C 760.9 618.7 760.3 618.2 760.0 618.4 C 759.6 618.6 759.9 619.1 759.8 619.3 C 759.8 619.6 759.3 619.8 759.3 619.8 C 759.0 619.5 758.8 619.3 758.5 619.0 C 758.5 619.0 758.3 618.8 758.1 618.5 C 757.9 618.3 757.1 618.2 756.8 618.3 C 756.6 618.4 756.4 618.7 756.1 618.9 C 755.8 619.1 755.8 619.6 755.5 619.2 C 755.1 618.9 755.0 618.5 754.8 618.5 C 754.6 618.5 753.9 619.0 753.9 619.0 C 753.6 619.1 753.4 619.2 753.2 619.3 C 753.2 619.3 752.7 619.6 752.6 619.3 C 752.5 619.0 751.4 619.3 751.4 619.3 C 751.4 619.3 751.5 618.5 751.2 618.4 C 750.9 618.2 750.4 618.0 750.0 618.2 C 749.5 618.3 749.2 619.1 749.2 619.1 C 749.0 618.9 748.9 618.7 748.7 618.5 C 748.3 618.4 747.9 618.4 747.4 618.3 C 747.4 618.3 746.4 618.4 746.4 618.5 C 746.4 618.6 746.5 619.3 746.5 619.5 C 746.4 619.7 745.9 619.9 745.9 619.7 C 745.8 619.5 745.3 618.8 745.3 618.8 C 745.3 618.8 744.9 618.4 744.6 618.4 C 744.3 618.3 743.9 618.5 743.8 618.7 C 743.6 618.8 743.2 619.3 743.2 619.3 C 743.1 619.1 742.9 618.9 742.8 618.7 C 742.8 618.7 742.0 619.0 741.2 618.4 C 741.2 618.4 741.2 618.4 741.2 618.4 Z M 761.4 618.3 C 760.3 618.3 761.0 621.0 761.4 621.5 C 761.8 622.0 762.5 621.7 763.2 621.8 C 763.9 621.9 763.7 621.1 764.1 620.8 C 764.5 620.6 764.3 621.1 764.5 621.5 C 764.7 621.9 765.7 621.5 766.4 621.6 C 767.0 621.6 767.7 620.7 768.2 620.7 C 768.7 620.6 767.7 620.2 768.6 620.3 C 769.6 620.3 769.1 620.8 768.0 621.1 C 767.0 621.4 768.5 621.6 769.0 621.7 C 769.6 621.8 770.6 621.4 771.0 621.4 C 771.5 621.5 770.9 620.8 771.6 620.8 C 772.2 620.9 771.9 621.5 772.6 621.6 C 773.3 621.7 773.2 621.1 773.5 621.0 C 773.9 620.8 773.8 621.2 774.1 621.2 C 774.4 621.3 774.8 621.5 775.4 621.4 C 776.1 621.2 775.9 621.0 776.2 621.0 C 776.5 620.9 777.0 620.9 777.0 620.9 C 777.0 621.1 777.1 621.4 777.1 621.6 C 777.1 621.6 778.3 621.6 778.6 621.7 C 778.9 621.7 779.7 621.4 779.5 621.3 C 779.3 621.2 780.1 620.7 780.3 620.8 C 780.4 620.9 781.0 621.2 781.4 621.4 C 781.8 621.5 781.7 619.8 781.7 619.6 C 781.7 619.3 781.9 618.4 781.6 618.3 C 781.2 618.2 780.9 618.6 781.0 618.3 C 781.1 618.1 780.0 618.3 779.7 618.3 C 779.5 618.3 779.1 619.0 779.1 619.0 C 779.1 619.0 778.8 619.5 778.4 619.5 C 777.9 619.5 777.7 618.4 777.7 618.4 C 777.7 618.4 777.2 618.2 776.6 618.3 C 776.0 618.3 775.4 619.2 775.3 619.4 C 775.2 619.6 775.2 618.8 774.8 618.7 C 774.4 618.6 773.8 618.3 773.6 618.4 C 773.4 618.4 773.2 619.0 773.2 619.0 C 773.2 619.0 772.4 619.3 772.2 619.3 C 772.1 619.3 772.4 618.5 772.4 618.5 C 772.4 618.5 770.8 618.3 770.5 618.2 C 770.2 618.1 769.7 618.4 769.4 618.4 C 769.2 618.5 768.9 619.4 768.5 619.3 C 768.2 619.2 768.9 618.7 768.5 618.6 C 768.2 618.5 767.5 618.3 767.4 618.3 C 767.2 618.3 767.0 618.7 766.7 618.7 C 766.4 618.8 766.0 619.5 765.5 619.5 C 765.1 619.5 764.9 619.0 764.7 619.0 C 764.5 618.9 764.4 618.2 764.0 618.2 C 763.7 618.2 763.9 618.6 763.6 618.6 C 763.3 618.6 763.3 619.1 762.9 619.0 C 762.6 618.9 762.8 618.1 762.4 618.2 C 762.2 618.3 762.4 618.2 761.4 618.3 C 761.4 618.3 761.4 618.3 761.4 618.3 Z M 782.4 618.4 C 781.9 618.0 781.5 618.5 781.6 618.9 C 781.6 619.2 781.8 620.2 781.6 620.5 C 781.4 620.8 780.9 621.5 781.7 621.6 C 782.6 621.7 782.8 621.5 782.8 621.2 C 782.8 621.0 783.0 620.0 783.2 620.1 C 783.4 620.2 783.6 620.4 783.7 620.6 C 783.8 620.7 784.1 621.7 784.5 621.6 C 784.9 621.4 785.3 621.1 785.3 621.1 C 785.5 621.1 785.8 621.1 786.0 621.1 C 786.0 621.1 786.6 621.7 787.0 621.6 C 787.5 621.4 788.0 621.4 788.4 621.5 C 788.7 621.5 789.0 621.4 789.1 621.2 C 789.2 621.0 789.6 620.1 789.6 620.1 C 789.6 620.1 790.1 619.9 790.4 620.0 C 790.6 620.2 790.7 620.6 790.6 620.8 C 790.6 621.0 790.6 621.5 791.0 621.6 C 791.3 621.6 792.8 622.1 793.0 621.8 C 793.3 621.6 793.2 621.2 793.4 621.1 C 793.6 621.0 794.6 620.9 794.7 621.2 C 794.7 621.4 794.7 621.9 795.0 621.9 C 795.3 621.8 795.8 622.0 795.8 621.8 C 795.8 621.7 796.0 621.6 796.0 621.3 C 796.1 621.0 796.6 620.8 796.8 620.6 C 796.9 620.5 797.3 620.4 797.3 620.4 C 797.5 620.6 797.7 620.7 797.9 620.9 C 797.9 620.9 797.6 621.4 797.4 621.5 C 797.2 621.6 797.5 621.9 797.7 622.0 C 797.9 622.0 799.0 621.9 799.0 621.9 C 799.0 621.5 799.0 621.2 799.0 620.8 C 799.3 620.7 799.6 620.6 799.8 620.5 C 799.8 620.5 799.7 621.9 800.2 621.9 C 800.8 621.9 801.4 621.9 801.4 621.9 C 801.4 621.9 801.9 621.4 802.1 621.3 C 802.2 621.3 802.3 620.1 802.3 620.1 C 802.2 619.6 802.2 619.2 802.2 618.7 C 802.2 618.7 801.5 618.2 801.2 618.4 C 800.8 618.6 801.1 619.1 801.1 619.3 C 801.0 619.6 800.5 619.8 800.5 619.8 C 800.2 619.5 800.0 619.3 799.8 619.0 C 799.8 619.0 799.5 618.8 799.3 618.5 C 799.1 618.3 798.3 618.2 798.0 618.3 C 797.8 618.4 797.6 618.7 797.3 618.9 C 797.0 619.1 797.1 619.6 796.7 619.2 C 796.4 618.9 796.2 618.5 796.0 618.5 C 795.8 618.5 795.1 619.0 795.1 619.0 C 794.9 619.1 794.7 619.2 794.4 619.3 C 794.4 619.3 793.9 619.6 793.8 619.3 C 793.7 619.0 792.6 619.3 792.6 619.3 C 792.6 619.3 792.7 618.5 792.4 618.4 C 792.1 618.2 791.7 618.0 791.2 618.2 C 790.7 618.3 790.4 619.1 790.4 619.1 C 790.2 618.9 790.1 618.7 789.9 618.5 C 789.5 618.4 789.1 618.4 788.6 618.3 C 788.6 618.3 787.7 618.4 787.7 618.5 C 787.7 618.6 787.8 619.3 787.7 619.5 C 787.7 619.7 787.1 619.9 787.1 619.7 C 787.0 619.5 786.6 618.8 786.6 618.8 C 786.6 618.8 786.1 618.4 785.9 618.4 C 785.6 618.3 785.1 618.5 785.0 618.7 C 784.9 618.8 784.4 619.3 784.4 619.3 C 784.3 619.1 784.2 618.9 784.0 618.7 C 784.0 618.7 783.2 619.0 782.4 618.4 C 782.4 618.4 782.4 618.4 782.4 618.4 Z M 802.6 618.3 C 801.6 618.3 802.2 621.0 802.6 621.5 C 803.0 622.0 803.7 621.7 804.4 621.8 C 805.1 621.9 804.9 621.1 805.3 620.8 C 805.7 620.6 805.5 621.1 805.7 621.5 C 805.9 621.9 806.9 621.5 807.6 621.6 C 808.2 621.6 808.9 620.7 809.4 620.7 C 809.9 620.6 808.9 620.2 809.9 620.3 C 810.8 620.3 810.3 620.8 809.3 621.1 C 808.2 621.4 809.7 621.6 810.3 621.7 C 810.8 621.8 811.8 621.4 812.3 621.4 C 812.7 621.5 812.1 620.8 812.8 620.8 C 813.5 620.9 813.1 621.5 813.8 621.6 C 814.5 621.7 814.4 621.1 814.7 621.0 C 815.1 620.8 815.0 621.2 815.3 621.2 C 815.6 621.3 816.0 621.5 816.7 621.4 C 817.3 621.2 817.1 621.0 817.4 621.0 C 817.7 620.9 818.2 620.9 818.2 620.9 C 818.3 621.1 818.3 621.4 818.3 621.6 C 818.3 621.6 819.5 621.6 819.8 621.7 C 820.2 621.7 820.9 621.4 820.7 621.3 C 820.5 621.2 821.3 620.7 821.5 620.8 C 821.6 620.9 822.2 621.2 822.6 621.4 C 823.0 621.5 822.9 619.8 822.9 619.6 C 822.9 619.3 823.1 618.4 822.8 618.3 C 822.4 618.2 822.2 618.6 822.2 618.3 C 822.3 618.1 821.2 618.3 821.0 618.3 C 820.7 618.3 820.3 619.0 820.3 619.0 C 820.3 619.0 820.1 619.5 819.6 619.5 C 819.1 619.5 819.0 618.4 819.0 618.4 C 819.0 618.4 818.4 618.2 817.8 618.3 C 817.2 618.3 816.6 619.2 816.5 619.4 C 816.4 619.6 816.4 618.8 816.0 618.7 C 815.6 618.6 815.0 618.3 814.8 618.4 C 814.7 618.4 814.4 619.0 814.4 619.0 C 814.4 619.0 813.6 619.3 813.5 619.3 C 813.3 619.3 813.6 618.5 813.6 618.5 C 813.6 618.5 812.0 618.3 811.7 618.2 C 811.4 618.1 810.9 618.4 810.6 618.4 C 810.4 618.5 810.1 619.4 809.7 619.3 C 809.4 619.2 810.1 618.7 809.7 618.6 C 809.4 618.5 808.8 618.3 808.6 618.3 C 808.4 618.3 808.2 618.7 807.9 618.7 C 807.6 618.8 807.2 619.5 806.8 619.5 C 806.3 619.5 806.1 619.0 805.9 619.0 C 805.7 618.9 805.6 618.2 805.3 618.2 C 804.9 618.2 805.2 618.6 804.8 618.6 C 804.5 618.6 804.5 619.1 804.1 619.0 C 803.8 618.9 804.0 618.1 803.6 618.2 C 803.4 618.3 803.6 618.2 802.6 618.3 C 802.6 618.3 802.6 618.3 802.6 618.3 Z M 825.0 619.1 C 824.8 619.2 824.6 618.7 824.0 618.5 C 823.5 618.4 822.8 618.3 822.9 618.7 C 823.0 619.0 823.2 619.2 822.9 619.6 C 822.6 620.0 822.3 620.7 822.7 620.9 C 823.1 621.2 824.7 621.9 825.2 621.5 C 825.7 621.2 825.8 621.0 826.2 620.8 C 826.6 620.5 826.3 621.3 826.3 621.3 C 826.3 621.3 827.2 621.4 827.8 621.5 C 828.4 621.5 829.2 621.6 829.2 621.4 C 829.3 621.3 829.5 621.0 829.5 621.0 C 829.5 621.0 829.9 621.4 830.3 621.5 C 830.8 621.5 830.6 621.3 830.6 621.1 C 830.5 621.0 829.9 620.4 830.1 620.4 C 830.3 620.4 830.9 621.2 831.3 621.3 C 831.6 621.4 832.3 621.3 832.3 621.3 C 832.3 621.3 832.3 620.9 832.3 620.8 C 832.4 620.7 833.1 620.6 833.2 620.8 C 833.2 620.9 833.1 621.4 833.5 621.5 C 834.7 621.5 834.5 620.7 834.6 620.6 C 834.7 620.6 834.7 621.3 835.0 621.4 C 835.2 621.5 837.5 621.4 837.6 621.2 C 837.7 621.1 838.5 621.7 838.8 621.3 C 839.1 620.8 839.2 620.7 839.3 620.6 C 839.4 620.5 839.8 619.8 840.0 620.1 C 840.2 620.3 839.3 621.1 839.6 621.3 C 839.9 621.5 841.3 621.6 841.5 621.4 C 841.8 621.1 841.9 620.4 842.1 620.4 C 842.3 620.4 843.1 621.3 843.2 621.1 C 843.3 621.0 843.4 620.3 843.4 620.2 C 843.4 620.0 843.6 618.8 843.5 618.6 C 843.3 618.4 842.4 618.0 842.6 618.3 C 842.7 618.7 842.9 619.1 842.6 619.3 C 842.3 619.5 842.1 619.5 842.0 619.3 C 842.0 619.2 842.1 619.1 841.6 618.8 C 841.1 618.6 841.4 618.3 840.9 618.3 C 840.5 618.3 840.0 618.4 840.1 618.7 C 840.1 619.0 839.6 619.4 839.3 619.3 C 839.0 619.3 839.5 618.7 838.5 618.5 C 837.4 618.2 836.8 618.2 836.5 618.4 C 836.2 618.6 836.1 619.4 835.6 619.1 C 835.1 618.7 835.4 618.5 834.7 618.6 C 834.0 618.6 833.8 619.2 833.3 619.2 C 832.9 619.2 832.8 619.2 832.8 619.2 C 832.8 619.2 833.0 618.3 832.0 618.3 C 831.1 618.3 830.9 618.2 831.1 618.8 C 831.3 619.4 830.5 619.4 830.5 619.0 C 830.5 618.6 829.9 618.4 829.6 618.3 C 829.2 618.3 829.1 619.3 829.0 619.3 C 828.9 619.3 828.5 619.3 828.6 618.9 C 828.8 618.6 828.4 618.6 828.1 618.4 C 827.8 618.3 826.9 618.4 826.9 618.6 C 826.9 618.8 827.4 619.4 826.8 619.1 C 826.2 618.8 826.0 618.3 825.4 618.3 C 824.9 618.3 825.4 618.9 825.0 619.1 C 825.0 619.1 825.0 619.1 825.0 619.1 Z M 844.3 618.4 C 843.8 618.0 843.3 618.5 843.4 618.9 C 843.5 619.2 843.6 620.2 843.5 620.5 C 843.3 620.8 842.7 621.5 843.6 621.6 C 844.4 621.7 844.6 621.5 844.6 621.2 C 844.6 621.0 844.8 620.0 845.0 620.1 C 845.2 620.2 845.5 620.4 845.5 620.6 C 845.6 620.7 845.9 621.7 846.4 621.6 C 846.8 621.4 847.2 621.1 847.2 621.1 C 847.4 621.1 847.6 621.1 847.8 621.1 C 847.8 621.1 848.4 621.7 848.8 621.6 C 849.3 621.4 849.8 621.4 850.2 621.5 C 850.5 621.5 850.9 621.4 850.9 621.2 C 851.0 621.0 851.5 620.1 851.5 620.1 C 851.5 620.1 852.0 619.9 852.2 620.0 C 852.4 620.2 852.5 620.6 852.4 620.8 C 852.4 621.0 852.4 621.5 852.8 621.6 C 853.1 621.6 854.6 622.1 854.9 621.8 C 855.1 621.6 855.1 621.2 855.2 621.1 C 855.4 621.0 856.4 620.9 856.5 621.2 C 856.6 621.4 856.5 621.9 856.8 621.9 C 857.1 621.8 857.7 622.0 857.7 621.8 C 857.7 621.7 857.9 621.6 857.9 621.3 C 857.9 621.0 858.5 620.8 858.6 620.6 C 858.7 620.5 859.2 620.4 859.2 620.4 C 859.4 620.6 859.6 620.7 859.8 620.9 C 859.8 620.9 859.4 621.4 859.2 621.5 C 859.1 621.6 859.3 621.9 859.5 622.0 C 859.7 622.0 860.8 621.9 860.8 621.9 C 860.8 621.5 860.8 621.2 860.9 620.8 C 861.1 620.7 861.4 620.6 861.7 620.5 C 861.7 620.5 861.6 621.9 862.1 621.9 C 862.6 621.9 863.2 621.9 863.2 621.9 C 863.2 621.9 863.8 621.4 863.9 621.3 C 864.1 621.3 864.1 620.1 864.1 620.1 C 864.1 619.6 864.0 619.2 864.0 618.7 C 864.0 618.7 863.4 618.2 863.0 618.4 C 862.7 618.6 862.9 619.1 862.9 619.3 C 862.8 619.6 862.3 619.8 862.3 619.8 C 862.1 619.5 861.8 619.3 861.6 619.0 C 861.6 619.0 861.4 618.8 861.2 618.5 C 860.9 618.3 860.1 618.2 859.9 618.3 C 859.6 618.4 859.4 618.7 859.1 618.9 C 858.8 619.1 858.9 619.6 858.5 619.2 C 858.2 618.9 858.0 618.5 857.8 618.5 C 857.7 618.5 856.9 619.0 856.9 619.0 C 856.7 619.1 856.5 619.2 856.3 619.3 C 856.3 619.3 855.7 619.6 855.6 619.3 C 855.6 619.0 854.4 619.3 854.4 619.3 C 854.4 619.3 854.5 618.5 854.2 618.4 C 854.0 618.2 853.5 618.0 853.0 618.2 C 852.6 618.3 852.2 619.1 852.2 619.1 C 852.1 618.9 851.9 618.7 851.8 618.5 C 851.3 618.4 850.9 618.4 850.5 618.3 C 850.5 618.3 849.5 618.4 849.5 618.5 C 849.5 618.6 849.6 619.3 849.5 619.5 C 849.5 619.7 849.0 619.9 848.9 619.7 C 848.8 619.5 848.4 618.8 848.4 618.8 C 848.4 618.8 848.0 618.4 847.7 618.4 C 847.4 618.3 846.9 618.5 846.8 618.7 C 846.7 618.8 846.2 619.3 846.2 619.3 C 846.1 619.1 846.0 618.9 845.9 618.7 C 845.9 618.7 845.1 619.0 844.3 618.4 C 844.3 618.4 844.3 618.4 844.3 618.4 Z M 866.2 619.1 C 866.0 619.2 865.8 618.7 865.3 618.5 C 864.7 618.4 864.0 618.3 864.1 618.7 C 864.3 619.0 864.5 619.2 864.2 619.6 C 863.9 620.0 863.5 620.7 863.9 620.9 C 864.3 621.2 865.9 621.9 866.4 621.5 C 866.9 621.2 867.1 621.0 867.4 620.8 C 867.8 620.5 867.5 621.3 867.5 621.3 C 867.5 621.3 868.4 621.4 869.0 621.5 C 869.7 621.5 870.4 621.6 870.5 621.4 C 870.5 621.3 870.8 621.0 870.8 621.0 C 870.8 621.0 871.1 621.4 871.6 621.5 C 872.0 621.5 871.9 621.3 871.8 621.1 C 871.7 621.0 871.2 620.4 871.4 620.4 C 871.6 620.4 872.2 621.2 872.5 621.3 C 872.8 621.4 873.6 621.3 873.6 621.3 C 873.6 621.3 873.5 620.9 873.6 620.8 C 873.6 620.7 874.4 620.6 874.4 620.8 C 874.4 620.9 874.4 621.4 874.7 621.5 C 875.9 621.5 875.7 620.7 875.8 620.6 C 875.9 620.6 875.9 621.3 876.2 621.4 C 876.5 621.5 878.7 621.4 878.8 621.2 C 878.9 621.1 879.7 621.7 880.0 621.3 C 880.4 620.8 880.5 620.7 880.5 620.6 C 880.6 620.5 881.0 619.8 881.2 620.1 C 881.4 620.3 880.5 621.1 880.8 621.3 C 881.1 621.5 882.5 621.6 882.7 621.4 C 883.1 621.1 883.2 620.4 883.3 620.4 C 883.5 620.4 884.3 621.3 884.4 621.1 C 884.5 621.0 884.6 620.3 884.6 620.2 C 884.6 620.0 884.8 618.8 884.7 618.6 C 884.5 618.4 883.7 618.0 883.8 618.3 C 883.9 618.7 884.1 619.1 883.8 619.3 C 883.5 619.5 883.3 619.5 883.2 619.3 C 883.2 619.2 883.3 619.1 882.8 618.8 C 882.4 618.6 882.6 618.3 882.1 618.3 C 881.7 618.3 881.3 618.4 881.3 618.7 C 881.3 619.0 880.8 619.4 880.5 619.3 C 880.2 619.3 880.7 618.7 879.7 618.5 C 878.7 618.2 878.0 618.2 877.7 618.4 C 877.4 618.6 877.3 619.4 876.8 619.1 C 876.3 618.7 876.6 618.5 875.9 618.6 C 875.3 618.6 875.0 619.2 874.6 619.2 C 874.1 619.2 874.0 619.2 874.0 619.2 C 874.0 619.2 874.2 618.3 873.3 618.3 C 872.3 618.3 872.1 618.2 872.3 618.8 C 872.5 619.4 871.8 619.4 871.7 619.0 C 871.7 618.6 871.1 618.4 870.8 618.3 C 870.5 618.3 870.4 619.3 870.2 619.3 C 870.1 619.3 869.7 619.3 869.9 618.9 C 870.0 618.6 869.6 618.6 869.3 618.4 C 869.0 618.3 868.1 618.4 868.2 618.6 C 868.2 618.8 868.6 619.4 868.0 619.1 C 867.4 618.8 867.2 618.3 866.7 618.3 C 866.1 618.3 866.6 618.9 866.2 619.1 C 866.2 619.1 866.2 619.1 866.2 619.1 Z M 885.0 618.3 C 884.0 618.3 884.7 621.0 885.1 621.5 C 885.5 622.0 886.2 621.7 886.9 621.8 C 887.6 621.9 887.3 621.1 887.7 620.8 C 888.1 620.6 888.0 621.1 888.2 621.5 C 888.3 621.9 889.4 621.5 890.0 621.6 C 890.6 621.6 891.3 620.7 891.8 620.7 C 892.3 620.6 891.4 620.2 892.3 620.3 C 893.2 620.3 892.8 620.8 891.7 621.1 C 890.7 621.4 892.1 621.6 892.7 621.7 C 893.3 621.8 894.3 621.4 894.7 621.4 C 895.2 621.5 894.6 620.8 895.3 620.8 C 895.9 620.9 895.6 621.5 896.2 621.6 C 896.9 621.7 896.8 621.1 897.2 621.0 C 897.5 620.8 897.5 621.2 897.7 621.2 C 898.0 621.3 898.5 621.5 899.1 621.4 C 899.7 621.2 899.6 621.0 899.9 621.0 C 900.1 620.9 900.7 620.9 900.7 620.9 C 900.7 621.1 900.7 621.4 900.8 621.6 C 900.8 621.6 901.9 621.6 902.3 621.7 C 902.6 621.7 903.4 621.4 903.2 621.3 C 903.0 621.2 903.8 620.7 903.9 620.8 C 904.1 620.9 904.7 621.2 905.1 621.4 C 905.5 621.5 905.4 619.8 905.4 619.6 C 905.4 619.3 905.6 618.4 905.2 618.3 C 904.9 618.2 904.6 618.6 904.7 618.3 C 904.7 618.1 903.7 618.3 903.4 618.3 C 903.1 618.3 902.8 619.0 902.8 619.0 C 902.8 619.0 902.5 619.5 902.0 619.5 C 901.6 619.5 901.4 618.4 901.4 618.4 C 901.4 618.4 900.8 618.2 900.3 618.3 C 899.7 618.3 899.1 619.2 898.9 619.4 C 898.8 619.6 898.8 618.8 898.4 618.7 C 898.0 618.6 897.5 618.3 897.3 618.4 C 897.1 618.4 896.8 619.0 896.8 619.0 C 896.8 619.0 896.1 619.3 895.9 619.3 C 895.7 619.3 896.0 618.5 896.0 618.5 C 896.0 618.5 894.5 618.3 894.2 618.2 C 893.8 618.1 893.3 618.4 893.1 618.4 C 892.9 618.5 892.5 619.4 892.2 619.3 C 891.8 619.2 892.5 618.7 892.2 618.6 C 891.8 618.5 891.2 618.3 891.0 618.3 C 890.9 618.3 890.6 618.7 890.4 618.7 C 890.1 618.8 889.7 619.5 889.2 619.5 C 888.8 619.5 888.5 619.0 888.4 619.0 C 888.2 618.9 888.1 618.2 887.7 618.2 C 887.3 618.2 887.6 618.6 887.3 618.6 C 886.9 618.6 886.9 619.1 886.6 619.0 C 886.2 618.9 886.4 618.1 886.1 618.2 C 885.9 618.3 886.1 618.2 885.0 618.3 C 885.0 618.3 885.0 618.3 885.0 618.3 Z M 906.1 618.4 C 905.6 618.0 905.2 618.5 905.2 618.9 C 905.3 619.2 905.5 620.2 905.3 620.5 C 905.1 620.8 904.5 621.5 905.4 621.6 C 906.3 621.7 906.4 621.5 906.4 621.2 C 906.4 621.0 906.6 620.0 906.9 620.1 C 907.1 620.2 907.3 620.4 907.4 620.6 C 907.4 620.7 907.8 621.7 908.2 621.6 C 908.6 621.4 909.0 621.1 909.0 621.1 C 909.2 621.1 909.4 621.1 909.6 621.1 C 909.6 621.1 910.2 621.7 910.7 621.6 C 911.1 621.4 911.7 621.4 912.0 621.5 C 912.4 621.5 912.7 621.4 912.8 621.2 C 912.8 621.0 913.3 620.1 913.3 620.1 C 913.3 620.1 913.8 619.9 914.0 620.0 C 914.3 620.2 914.3 620.6 914.3 620.8 C 914.2 621.0 914.3 621.5 914.6 621.6 C 915.0 621.6 916.5 622.1 916.7 621.8 C 916.9 621.6 916.9 621.2 917.1 621.1 C 917.2 621.0 918.2 620.9 918.3 621.2 C 918.4 621.4 918.3 621.9 918.6 621.9 C 918.9 621.8 919.5 622.0 919.5 621.8 C 919.5 621.7 919.7 621.6 919.7 621.3 C 919.7 621.0 920.3 620.8 920.4 620.6 C 920.5 620.5 921.0 620.4 921.0 620.4 C 921.2 620.6 921.4 620.7 921.6 620.9 C 921.6 620.9 921.2 621.4 921.1 621.5 C 920.9 621.6 921.2 621.9 921.4 622.0 C 921.5 622.0 922.6 621.9 922.6 621.9 C 922.7 621.5 922.7 621.2 922.7 620.8 C 923.0 620.7 923.2 620.6 923.5 620.5 C 923.5 620.5 923.4 621.9 923.9 621.9 C 924.4 621.9 925.1 621.9 925.1 621.9 C 925.1 621.9 925.6 621.4 925.7 621.3 C 925.9 621.3 925.9 620.1 925.9 620.1 C 925.9 619.6 925.9 619.2 925.8 618.7 C 925.8 618.7 925.2 618.2 924.8 618.4 C 924.5 618.6 924.8 619.1 924.7 619.3 C 924.7 619.6 924.1 619.8 924.1 619.8 C 923.9 619.5 923.7 619.3 923.4 619.0 C 923.4 619.0 923.2 618.8 923.0 618.5 C 922.8 618.3 921.9 618.2 921.7 618.3 C 921.5 618.4 921.2 618.7 921.0 618.9 C 920.7 619.1 920.7 619.6 920.4 619.2 C 920.0 618.9 919.8 618.5 919.7 618.5 C 919.5 618.5 918.7 619.0 918.7 619.0 C 918.5 619.1 918.3 619.2 918.1 619.3 C 918.1 619.3 917.6 619.6 917.5 619.3 C 917.4 619.0 916.2 619.3 916.2 619.3 C 916.2 619.3 916.4 618.5 916.1 618.4 C 915.8 618.2 915.3 618.0 914.9 618.2 C 914.4 618.3 914.0 619.1 914.0 619.1 C 913.9 618.9 913.8 618.7 913.6 618.5 C 913.2 618.4 912.7 618.4 912.3 618.3 C 912.3 618.3 911.3 618.4 911.3 618.5 C 911.3 618.6 911.4 619.3 911.4 619.5 C 911.3 619.7 910.8 619.9 910.7 619.7 C 910.7 619.5 910.2 618.8 910.2 618.8 C 910.2 618.8 909.8 618.4 909.5 618.4 C 909.2 618.3 908.8 618.5 908.6 618.7 C 908.5 618.8 908.1 619.3 908.1 619.3 C 907.9 619.1 907.8 618.9 907.7 618.7 C 907.7 618.7 906.9 619.0 906.1 618.4 C 906.1 618.4 906.1 618.4 906.1 618.4 Z M 906.1 618.4 " fill="#000000"></path><image xlink:href="F184B90E3AA4BB237B9EF50AA422FA83.jpeg" width="900.00" height="506.00" transform="matrix(1.00, 0.00, -0.00, -1.00, 53.0, 568.0)"></image><path d="M -0.3 0.0 L 899.7 0.0 L 899.7 506.0 L -0.3 506.0 Z M -0.3 0.0 " fill="none" stroke="#FEFFFF" stroke-width="1.00" transform="matrix(1.00, 0.00, 0.00, -1.00, 53.3, 568.0)"></path></g></svg>