<?xml version="1.0" encoding="UTF-8" standalone="no"?><svg xmlns="http://www.w3.org/2000/svg" xmlns:xlink="http://www.w3.org/1999/xlink" clip-rule="evenodd" stroke-miterlimit="4.00" viewBox="0 0 82 31"><desc>SVG generated by Keynote</desc><defs></defs><g transform="matrix(1.00, 0.00, -0.00, -1.00, 0.0, 31.0)"><path d="M 67.5 17.0 C 67.8 16.8 68.5 17.1 68.7 16.9 M 67.5 17.0 C 68.2 18.1 69.5 18.2 71.3 18.4 C 73.2 18.4 71.2 17.4 71.5 16.9 C 73.9 16.5 73.9 17.3 73.6 18.5 C 74.5 17.7 77.4 19.1 76.8 17.6 C 72.8 17.6 79.6 17.2 76.3 16.4 C 75.9 16.2 76.9 15.8 77.2 15.8 C 76.1 15.1 78.0 14.4 76.2 14.0 C 76.0 13.0 76.3 13.5 75.2 12.7 C 74.7 12.6 74.9 12.9 74.9 13.2 C 74.8 14.3 73.6 12.6 72.6 13.2 C 71.8 11.8 70.9 13.5 71.6 14.1 C 70.8 13.9 69.8 12.4 68.9 13.5 C 68.5 12.8 66.2 13.2 67.5 14.1 C 68.5 14.7 67.4 15.1 67.3 15.5 C 67.6 15.8 69.0 15.3 69.2 15.6 C 68.8 15.8 67.0 16.3 68.9 16.3 C 68.3 16.8 69.2 17.1 67.5 17.0 C 67.5 17.0 67.5 17.0 67.5 17.0 Z M 74.3 17.8 C 74.3 18.2 73.6 17.8 74.3 17.8 C 74.3 17.8 74.3 17.8 74.3 17.8 Z M 69.7 12.7 C 69.7 13.1 69.0 12.7 69.7 12.7 C 69.7 12.7 69.7 12.7 69.7 12.7 Z M 74.6 13.1 C 74.6 13.5 74.0 13.1 74.6 13.1 C 74.6 13.1 74.6 13.1 74.6 13.1 Z M 72.5 17.6 C 71.5 17.3 73.4 17.0 73.6 17.4 C 73.3 17.4 72.8 17.9 72.5 17.6 C 72.5 17.6 72.5 17.6 72.5 17.6 Z M 72.4 15.4 C 72.3 15.5 71.8 15.6 71.9 15.2 C 72.2 15.1 72.5 15.2 72.4 15.4 C 72.4 15.4 72.4 15.4 72.4 15.4 Z M 77.7 16.9 C 77.6 17.1 77.1 17.1 77.2 16.7 C 77.5 16.6 77.7 16.8 77.7 16.9 C 77.7 16.9 77.7 16.9 77.7 16.9 Z M 71.3 16.6 C 71.0 16.5 70.9 16.2 71.3 16.1 C 71.4 16.3 72.2 16.3 71.3 16.6 C 71.3 16.6 71.3 16.6 71.3 16.6 Z M 69.6 17.8 C 68.7 17.6 70.5 17.1 70.5 17.3 C 70.8 17.5 70.1 18.1 69.6 17.8 C 69.6 17.8 69.6 17.8 69.6 17.8 Z M 70.8 16.1 C 70.1 15.9 71.1 15.8 70.8 16.1 C 70.8 16.1 70.8 16.1 70.8 16.1 Z M 76.9 14.1 C 76.2 13.9 77.3 13.8 76.9 14.1 C 76.9 14.1 76.9 14.1 76.9 14.1 Z M 73.0 12.9 C 72.3 12.8 73.3 12.7 73.0 12.9 C 73.0 12.9 73.0 12.9 73.0 12.9 Z M 74.5 16.8 C 75.8 16.8 74.7 17.8 74.5 16.8 C 74.5 16.8 74.5 16.8 74.5 16.8 Z M 67.6 17.9 C 68.9 18.0 67.7 18.9 67.6 17.9 C 67.6 17.9 67.6 17.9 67.6 17.9 Z M 23.6 17.6 C 22.4 17.8 27.0 19.0 25.2 17.6 C 24.7 16.3 27.9 16.4 27.0 17.6 C 28.0 17.7 28.0 17.8 28.5 17.2 C 28.6 18.1 30.8 18.6 31.6 18.1 C 32.1 17.3 30.1 18.0 31.4 17.2 C 34.1 16.9 31.2 16.3 32.2 15.3 C 32.3 15.3 32.4 15.8 32.6 15.5 C 32.7 14.5 31.2 13.9 31.9 13.2 C 31.5 13.3 29.5 12.3 30.3 13.1 C 30.6 14.0 28.2 12.0 28.4 13.5 C 27.7 12.8 27.0 13.8 26.4 12.9 C 25.9 12.8 25.9 13.5 26.0 13.7 C 26.0 14.4 25.4 12.2 24.6 13.4 C 24.6 13.1 22.4 13.2 24.0 13.7 C 23.6 13.6 21.0 13.3 22.4 14.6 C 24.1 15.2 20.5 16.0 22.6 16.1 C 24.2 16.2 24.5 15.9 23.3 16.6 C 23.0 16.5 21.1 16.7 22.7 17.3 C 23.0 17.1 23.8 17.2 23.6 17.6 C 23.6 17.6 23.6 17.6 23.6 17.6 Z M 23.2 15.6 C 24.1 15.6 23.3 16.1 23.2 15.6 C 23.2 15.6 23.2 15.6 23.2 15.6 Z M 26.5 12.6 C 27.4 12.6 26.6 13.2 26.5 12.6 C 26.5 12.6 26.5 12.6 26.5 12.6 Z M 26.4 17.9 C 26.9 17.5 27.0 18.9 26.4 17.9 C 26.4 17.9 26.4 17.9 26.4 17.9 Z M 25.0 13.7 C 25.1 13.7 24.9 13.9 24.7 14.0 C 24.7 13.9 24.9 13.8 25.0 13.7 C 25.0 13.7 25.0 13.7 25.0 13.7 Z M 28.0 17.9 C 29.3 17.3 28.2 19.0 28.0 17.9 C 28.0 17.9 28.0 17.9 28.0 17.9 Z M 30.7 16.6 C 30.9 15.2 32.1 16.9 30.7 16.6 C 30.7 16.6 30.7 16.6 30.7 16.6 Z M 28.8 13.6 C 28.6 13.9 28.6 13.4 28.8 13.6 C 28.8 13.6 28.8 13.6 28.8 13.6 Z M 22.9 13.4 C 22.6 13.7 22.6 13.2 22.9 13.4 C 22.9 13.4 22.9 13.4 22.9 13.4 Z M 30.5 13.7 C 30.4 14.2 30.0 13.5 30.5 13.7 C 30.5 13.7 30.5 13.7 30.5 13.7 Z M 26.7 17.4 C 25.4 18.5 25.2 15.8 26.7 17.4 C 26.7 17.4 26.7 17.4 26.7 17.4 Z M 24.4 17.5 C 23.6 17.7 24.6 16.8 25.0 17.0 C 24.9 17.1 24.6 17.4 24.4 17.5 C 24.4 17.5 24.4 17.5 24.4 17.5 Z M 28.0 17.2 C 27.1 17.8 27.2 17.0 28.0 17.2 C 28.0 17.2 28.0 17.2 28.0 17.2 Z M 25.8 17.8 C 25.4 17.7 26.2 17.7 25.8 17.8 C 25.8 17.8 25.8 17.8 25.8 17.8 Z M 29.7 18.4 C 29.3 18.3 30.0 18.2 29.7 18.4 C 29.7 18.4 29.7 18.4 29.7 18.4 Z M 23.4 18.0 C 23.0 17.9 23.7 17.9 23.4 18.0 C 23.4 18.0 23.4 18.0 23.4 18.0 Z M 29.3 17.7 C 29.4 17.2 28.2 16.1 30.4 17.0 C 30.8 17.4 29.9 18.1 29.3 17.7 C 29.3 17.7 29.3 17.7 29.3 17.7 Z M 64.1 17.0 C 69.0 18.5 67.8 15.8 68.1 15.3 C 68.7 14.6 68.1 14.1 67.1 13.6 C 66.1 11.9 65.6 15.4 64.8 13.7 C 63.5 11.4 63.3 15.7 62.8 13.3 C 63.0 12.6 61.1 13.1 61.2 13.3 C 60.3 12.2 58.9 14.2 58.9 14.4 C 58.2 14.1 58.2 12.0 56.2 13.6 C 54.7 14.1 54.0 12.0 54.4 13.5 C 53.3 11.8 53.6 13.9 52.5 13.4 C 51.7 12.5 52.5 14.8 51.1 13.1 C 50.5 14.4 51.8 12.1 48.0 13.1 C 49.8 13.2 46.2 14.2 46.9 13.3 C 48.2 12.3 45.1 13.7 43.4 13.1 C 42.9 13.6 40.9 14.8 41.2 13.5 C 39.4 11.9 39.4 14.4 38.7 13.1 C 38.1 12.6 37.8 13.7 37.4 13.7 C 36.8 12.7 36.2 13.3 34.0 13.1 C 29.2 12.6 33.3 15.6 31.5 15.9 C 31.2 16.3 33.8 19.6 32.8 17.1 C 33.1 17.8 37.1 15.3 35.1 18.0 C 36.6 16.9 34.8 19.1 37.8 17.8 C 33.7 15.9 42.5 17.0 38.5 17.9 C 39.2 18.5 40.9 18.4 39.7 17.9 C 39.2 16.2 42.5 18.7 40.9 16.6 C 43.4 17.2 42.8 15.4 43.5 16.7 C 44.1 18.9 43.3 16.1 44.6 16.7 C 47.6 16.8 45.3 19.3 47.1 17.6 C 50.1 18.7 47.8 16.6 48.8 16.4 C 49.1 14.8 51.8 17.5 49.6 17.7 C 50.7 16.9 49.8 18.5 51.1 17.5 C 50.1 16.1 52.9 19.0 52.4 17.9 C 53.7 17.5 53.0 16.7 53.4 16.6 C 55.2 16.6 54.6 18.0 55.0 17.0 C 55.4 16.4 56.3 18.2 56.5 17.8 C 54.6 17.7 58.0 16.3 58.2 17.0 C 57.1 17.2 58.8 18.9 59.5 17.8 C 58.6 14.7 61.1 18.6 61.9 17.5 C 61.2 15.8 66.0 17.3 64.2 18.1 C 64.3 17.9 64.1 17.0 64.1 17.0 M 57.0 17.5 C 55.5 17.4 58.7 17.2 57.0 17.5 M 57.1 18.0 C 56.4 17.4 58.5 18.4 57.0 18.2 C 57.0 18.2 57.2 18.0 57.1 18.0 M 50.8 18.1 C 51.0 17.6 51.7 18.3 50.8 18.1 M 49.6 17.0 C 48.6 16.5 51.0 16.9 49.6 17.0 M 35.7 17.3 C 37.1 14.8 37.2 18.8 35.7 17.3 M 44.9 17.9 C 46.6 17.5 44.3 18.9 44.9 17.9 M 45.4 17.2 C 46.2 16.8 45.6 17.8 45.4 17.2 M 38.4 17.3 C 38.3 17.3 38.3 17.3 38.4 17.3 C 38.4 17.3 38.4 17.3 38.4 17.3 Z M 34.3 17.3 C 34.2 17.3 34.2 17.3 34.3 17.3 C 34.3 17.3 34.3 17.3 34.3 17.3 Z M 42.4 17.1 C 43.6 17.7 40.3 17.3 42.4 17.1 C 42.4 17.1 42.4 17.1 42.4 17.1 Z M 36.2 13.4 C 36.3 13.3 36.3 13.3 36.2 13.4 C 36.2 13.4 36.2 13.4 36.2 13.4 Z M 58.2 16.4 C 58.3 16.3 58.3 16.3 58.2 16.4 C 58.2 16.4 58.2 16.4 58.2 16.4 Z M 62.9 17.3 C 62.8 17.0 63.8 17.6 62.9 17.3 C 62.9 17.3 62.9 17.3 62.9 17.3 Z M 66.7 14.4 C 66.8 14.4 66.8 14.4 66.7 14.4 C 66.7 14.4 66.7 14.4 66.7 14.4 Z M 59.8 15.0 C 59.9 15.0 59.9 15.0 59.8 15.0 C 59.8 15.0 59.8 15.0 59.8 15.0 Z M 59.1 16.9 C 59.9 18.3 57.4 16.5 59.1 16.9 C 59.1 16.9 59.1 16.9 59.1 16.9 Z M 43.9 13.5 C 43.9 14.1 42.9 13.3 43.9 13.5 C 43.9 13.5 43.9 13.5 43.9 13.5 Z M 49.4 16.4 C 49.2 16.7 48.8 16.3 49.4 16.4 C 49.4 16.4 49.4 16.4 49.4 16.4 Z M 52.0 18.3 C 51.8 18.7 51.3 18.2 52.0 18.3 C 52.0 18.3 52.0 18.3 52.0 18.3 Z M 62.8 17.7 C 62.7 17.8 62.7 17.8 62.8 17.7 C 62.8 17.7 62.8 17.7 62.8 17.7 Z M 61.2 16.7 C 62.3 18.0 59.4 15.9 61.2 16.7 C 61.2 16.7 61.2 16.7 61.2 16.7 Z M 63.1 16.3 C 62.5 15.8 64.7 16.5 63.1 16.3 M 62.0 14.2 C 60.6 14.8 63.3 11.9 62.0 14.2 C 62.0 14.2 62.0 14.2 62.0 14.2 Z M 54.8 13.7 C 54.7 13.7 54.7 13.7 54.8 13.7 C 54.8 13.7 54.8 13.7 54.8 13.7 Z M 55.6 17.6 C 54.3 17.5 56.4 17.3 55.6 17.6 C 55.6 17.6 55.6 17.6 55.6 17.6 Z M 66.4 17.9 C 65.2 17.8 67.2 17.6 66.4 17.9 C 66.4 17.9 66.4 17.9 66.4 17.9 Z M 50.6 15.0 C 48.6 15.2 51.9 14.3 50.6 15.0 C 50.6 15.0 50.6 15.0 50.6 15.0 Z M 43.1 16.5 C 43.0 16.5 43.0 16.5 43.1 16.5 C 43.1 16.5 43.1 16.5 43.1 16.5 Z M 41.7 17.1 C 41.6 17.1 41.6 17.1 41.7 17.1 C 41.7 17.1 41.7 17.1 41.7 17.1 Z M 35.9 15.7 C 35.8 15.7 35.8 15.7 35.9 15.7 C 35.9 15.7 35.9 15.7 35.9 15.7 Z M 40.4 17.7 C 40.4 17.7 40.4 17.7 40.4 17.7 C 40.4 17.7 40.4 17.7 40.4 17.7 Z M 36.4 17.4 C 36.3 17.3 36.3 17.3 36.4 17.4 C 36.4 17.4 36.4 17.4 36.4 17.4 Z M 36.9 18.5 C 36.9 18.5 36.9 18.5 36.9 18.5 C 36.9 18.5 36.9 18.5 36.9 18.5 Z M 45.9 12.7 C 45.8 12.7 45.8 12.7 45.9 12.7 C 45.9 12.7 45.9 12.7 45.9 12.7 Z M 60.6 18.2 C 60.5 18.0 60.5 18.0 60.6 18.2 C 60.6 18.2 60.6 18.2 60.6 18.2 Z M 36.7 16.9 C 36.7 16.8 36.7 16.8 36.7 16.9 C 36.7 16.9 36.7 16.9 36.7 16.9 Z M 46.6 15.8 C 46.5 14.7 47.4 17.3 46.3 15.9 C 46.4 15.8 46.6 16.0 46.6 15.8 M 45.2 13.9 C 45.3 13.9 45.3 13.9 45.2 13.9 C 45.2 13.9 45.2 13.9 45.2 13.9 Z M 49.7 13.2 C 49.8 13.2 49.8 13.2 49.7 13.2 C 49.7 13.2 49.7 13.2 49.7 13.2 Z M 41.1 17.9 C 41.3 18.6 40.0 17.5 41.3 17.9 M 35.8 13.7 C 36.0 14.4 34.7 13.3 36.0 13.7 M 67.8 17.5 C 68.0 17.0 68.7 17.7 67.8 17.5 M 50.7 12.6 C 50.9 12.2 51.5 12.9 50.7 12.6 M 48.6 14.1 C 48.8 14.7 47.5 13.6 48.8 14.1 M 38.9 13.8 C 38.8 13.8 38.8 13.8 38.9 13.8 C 38.9 13.8 38.9 13.8 38.9 13.8 Z M 53.6 17.5 C 53.6 17.4 53.6 17.4 53.6 17.5 C 53.6 17.5 53.6 17.5 53.6 17.5 Z M 48.2 16.1 C 48.9 17.0 47.2 15.6 48.2 16.1 M 55.2 15.9 C 56.3 17.0 53.5 15.6 55.2 15.9 M 33.5 13.5 C 34.7 14.8 32.6 12.8 33.5 13.5 M 39.5 16.7 C 40.7 18.0 38.6 16.0 39.5 16.7 M 52.5 16.9 C 52.6 17.6 51.3 16.5 52.5 16.9 M 65.0 17.6 C 66.1 17.7 63.5 18.1 65.0 17.6 M 41.8 13.7 C 41.8 13.7 41.8 13.7 41.8 13.7 C 41.8 13.7 41.8 13.7 41.8 13.7 Z M 61.2 12.6 C 61.2 12.6 61.2 12.6 61.2 12.6 C 61.2 12.6 61.2 12.6 61.2 12.6 Z M 31.9 17.7 C 31.9 17.7 31.9 17.7 31.9 17.7 C 31.9 17.7 31.9 17.7 31.9 17.7 Z M 40.2 16.1 C 40.2 16.0 40.2 16.0 40.2 16.1 C 40.2 16.1 40.2 16.1 40.2 16.1 Z M 34.3 17.9 C 34.2 17.8 34.2 17.8 34.3 17.9 C 34.3 17.9 34.3 17.9 34.3 17.9 Z M 44.0 15.1 C 44.0 15.1 44.0 15.1 44.0 15.1 C 44.0 15.1 44.0 15.1 44.0 15.1 Z M 44.8 18.4 C 44.7 18.4 44.7 18.4 44.8 18.4 C 44.8 18.4 44.8 18.4 44.8 18.4 Z M 48.9 17.0 C 48.9 17.0 48.9 17.0 48.9 17.0 C 48.9 17.0 48.9 17.0 48.9 17.0 Z M 42.9 18.2 C 40.4 18.4 44.1 17.1 42.9 18.2 C 42.9 18.2 42.9 18.2 42.9 18.2 Z M 47.1 14.9 C 47.1 14.8 47.1 14.8 47.1 14.9 C 47.1 14.9 47.1 14.9 47.1 14.9 Z M 47.5 17.2 C 45.9 18.1 46.7 15.6 47.5 17.2 M 54.4 18.0 C 53.9 18.5 54.1 17.2 54.4 18.0 M 57.1 13.7 C 57.1 13.6 57.1 13.6 57.1 13.7 C 57.1 13.7 57.1 13.7 57.1 13.7 Z M 56.4 14.0 C 56.3 13.9 56.3 13.9 56.4 14.0 C 56.4 14.0 56.4 14.0 56.4 14.0 Z M 56.0 18.2 C 56.0 18.2 56.0 18.2 56.0 18.2 C 56.0 18.2 56.0 18.2 56.0 18.2 Z M 56.3 12.7 C 56.2 12.7 56.2 12.7 56.3 12.7 C 56.3 12.7 56.3 12.7 56.3 12.7 Z M 45.7 18.3 C 45.7 18.3 45.7 18.3 45.7 18.3 C 45.7 18.3 45.7 18.3 45.7 18.3 Z M 33.1 18.4 C 33.0 18.4 33.0 18.4 33.1 18.4 C 33.1 18.4 33.1 18.4 33.1 18.4 Z M 64.6 14.1 C 64.6 14.1 64.6 14.1 64.6 14.1 C 64.6 14.1 64.6 14.1 64.6 14.1 Z M 44.4 17.0 C 44.4 17.0 44.4 17.0 44.4 17.0 C 44.4 17.0 44.4 17.0 44.4 17.0 Z M 58.9 13.8 C 58.9 13.8 58.9 13.8 58.9 13.8 C 58.9 13.8 58.9 13.8 58.9 13.8 Z M 45.2 17.3 C 45.2 17.3 45.2 17.3 45.2 17.3 C 45.2 17.3 45.2 17.3 45.2 17.3 Z M 42.2 13.5 C 42.2 13.5 42.2 13.5 42.2 13.5 C 42.2 13.5 42.2 13.5 42.2 13.5 Z M 39.5 12.7 C 39.5 12.7 39.5 12.7 39.5 12.7 C 39.5 12.7 39.5 12.7 39.5 12.7 Z M 42.4 15.8 C 42.4 15.7 42.4 15.7 42.4 15.8 C 42.4 15.8 42.4 15.8 42.4 15.8 Z M 59.8 15.3 C 64.8 16.4 55.8 15.8 59.8 15.3 M 41.6 15.5 C 45.1 15.8 38.8 16.8 41.6 15.5 C 41.2 15.8 41.5 15.5 41.6 15.5 " fill="#EB5C56"></path><path d="M 23.2 2.3 C 23.3 1.7 24.8 1.2 23.8 2.2 C 23.7 2.3 23.1 2.5 23.2 2.3 Z M 20.8 3.7 C 20.9 3.5 21.1 3.5 21.3 3.5 C 21.8 3.8 20.1 4.0 20.8 3.7 Z M 24.6 2.1 C 24.6 2.0 25.4 1.5 25.3 1.7 C 25.2 2.0 24.5 2.1 24.6 2.1 Z M 19.2 5.9 C 19.1 5.7 19.9 5.2 20.1 5.2 C 20.6 5.3 19.4 6.3 19.2 5.9 Z M 25.7 9.9 C 25.7 10.0 25.7 10.1 25.8 10.1 C 25.7 10.1 25.7 10.0 25.7 9.9 Z M 7.7 12.0 C 7.8 11.9 8.3 11.9 8.3 12.1 C 8.3 12.4 7.3 12.4 7.7 12.0 Z M 26.2 25.7 C 26.2 25.7 26.4 25.4 26.5 25.5 C 26.6 25.7 26.4 25.8 26.2 25.7 Z M 26.5 25.7 C 26.7 25.6 26.8 26.0 26.6 25.9 C 26.4 25.9 26.3 25.8 26.5 25.7 Z M 13.7 22.4 C 13.6 22.3 13.5 22.3 13.6 22.3 C 13.7 22.2 13.9 22.4 13.7 22.4 Z M 14.2 22.3 C 14.4 22.2 14.5 22.6 14.3 22.6 C 14.0 22.5 13.9 22.4 14.2 22.3 Z M 15.9 24.8 C 15.8 24.8 15.7 24.8 15.9 24.7 C 16.0 24.7 16.1 24.9 15.9 24.8 Z M 26.9 19.2 C 26.9 19.3 26.8 19.8 26.6 19.8 C 26.4 19.7 26.7 19.0 26.9 19.2 Z M 27.0 19.9 C 27.2 19.8 27.2 20.2 27.0 20.1 C 26.9 20.0 26.8 19.9 27.0 19.9 Z M 26.6 17.9 C 26.3 17.9 26.3 17.3 26.4 17.2 C 26.5 17.0 26.5 16.8 26.6 16.6 C 26.7 16.6 26.9 17.9 26.6 17.9 Z M 26.3 13.6 C 26.4 13.6 26.5 13.7 26.4 13.9 C 26.3 14.1 26.2 13.6 26.3 13.6 Z M 26.5 16.0 C 26.6 16.0 26.7 16.1 26.6 16.3 C 26.5 16.5 26.4 16.0 26.5 16.0 Z M 14.4 8.1 C 14.2 8.0 14.9 7.7 15.0 7.7 C 15.0 7.7 14.8 7.9 15.0 7.9 C 15.2 7.8 15.1 8.5 14.4 8.1 Z M 19.5 4.5 C 19.6 4.5 19.7 4.5 19.7 4.7 C 19.7 4.7 19.2 4.8 19.5 4.5 Z M 15.6 8.3 C 15.5 8.2 15.7 8.2 15.7 8.2 C 15.8 8.3 15.6 8.4 15.6 8.3 Z M 15.2 8.7 C 15.4 8.6 15.8 8.6 15.8 8.8 C 15.8 9.1 14.8 9.0 15.2 8.7 Z M 13.5 8.3 C 13.7 8.2 13.7 8.2 13.6 8.3 C 13.6 8.4 13.5 8.3 13.5 8.3 Z M 16.4 6.2 C 16.6 6.1 16.6 6.1 16.5 6.2 C 16.5 6.3 16.4 6.2 16.4 6.2 Z M 12.3 9.5 C 12.3 9.5 12.5 9.0 12.9 9.3 C 13.3 9.7 12.3 9.5 12.3 9.5 Z M 10.4 11.3 C 10.6 11.2 10.6 11.4 10.4 11.4 C 10.2 11.4 10.3 11.3 10.4 11.3 Z M 10.1 12.4 C 9.7 12.5 9.5 12.4 9.9 12.3 C 10.3 12.1 10.4 12.4 10.1 12.4 Z M 10.4 12.0 C 10.4 12.1 10.3 12.2 10.2 12.1 C 10.2 12.0 10.3 12.0 10.4 12.0 Z M 11.9 10.4 C 12.0 10.2 12.3 10.3 12.1 10.5 C 11.8 10.8 11.8 10.7 11.9 10.4 Z M 26.8 7.7 C 26.8 7.6 27.0 7.6 27.1 7.7 C 27.2 7.8 26.9 7.9 26.8 7.7 Z M 25.9 16.9 C 26.0 16.7 26.0 16.8 26.0 17.1 C 25.9 17.3 25.7 17.0 25.9 16.9 Z M 25.4 22.6 C 25.5 22.5 25.6 22.6 25.5 22.9 C 25.4 23.1 25.3 22.8 25.4 22.6 Z M 25.9 14.5 C 26.0 14.5 26.4 15.1 26.0 15.4 C 25.6 15.8 25.5 14.7 25.9 14.5 Z M 21.3 8.9 C 21.2 8.7 21.4 8.8 21.4 8.8 C 21.3 9.0 21.3 9.0 21.3 8.9 Z M 25.2 15.8 C 25.1 15.7 25.4 15.7 25.5 15.8 C 25.6 15.9 25.3 16.0 25.2 15.8 Z M 25.7 21.6 C 25.9 21.4 26.2 21.5 26.3 21.7 C 26.7 22.1 26.3 22.5 26.0 22.8 C 25.8 23.1 25.7 21.7 25.7 21.6 Z M 25.9 6.4 C 25.9 6.5 25.8 6.6 25.8 6.7 C 25.9 6.8 25.9 6.9 25.8 7.0 C 25.9 7.6 26.4 7.9 26.5 8.3 C 26.9 9.1 25.8 9.4 25.7 9.9 C 25.7 9.8 25.7 9.7 25.6 9.6 C 25.3 9.4 25.4 11.4 25.5 11.5 C 25.7 13.3 26.0 11.2 26.6 11.2 C 26.9 11.2 26.2 12.3 26.2 12.4 C 25.9 13.0 26.5 13.1 26.2 13.5 C 26.1 13.7 24.8 14.4 25.0 14.6 C 25.2 14.8 25.0 15.3 25.0 15.5 C 25.0 15.8 25.1 16.4 25.5 16.1 C 25.9 15.8 26.2 15.8 25.9 16.2 C 25.7 16.5 24.9 18.5 25.8 18.4 C 25.9 18.4 26.2 18.0 26.2 18.0 C 26.4 18.5 26.1 20.2 26.5 20.6 C 27.4 21.5 26.0 20.4 25.7 20.8 C 25.3 21.6 25.0 22.0 25.1 23.0 C 25.2 23.2 25.2 24.2 25.7 23.7 C 26.1 23.4 26.3 23.6 26.4 23.1 C 26.9 23.7 26.0 24.1 26.2 24.3 C 26.4 24.5 26.6 24.1 26.6 24.5 C 26.5 25.1 26.6 24.9 26.1 25.0 C 26.0 25.0 25.9 25.5 25.9 25.5 C 25.8 25.5 25.8 25.5 25.7 25.5 C 25.8 26.0 26.7 26.7 26.5 26.8 C 26.3 27.0 25.7 26.7 25.5 26.7 C 25.5 26.7 25.5 26.8 25.5 26.8 C 25.5 27.0 25.9 27.5 25.8 27.6 C 25.7 27.6 24.9 27.3 25.1 27.5 C 25.4 27.7 25.1 28.8 24.8 28.8 C 24.6 28.9 23.4 29.1 23.3 29.3 C 23.3 29.5 22.7 29.1 22.5 29.1 C 22.4 29.0 22.2 28.5 22.2 28.4 C 22.1 28.3 21.7 28.2 21.7 28.2 C 21.7 28.2 21.4 28.2 21.1 28.0 C 20.8 27.8 20.6 27.4 20.3 27.1 C 19.9 26.7 19.6 26.8 19.2 26.7 C 18.8 26.5 18.8 25.6 18.5 25.4 C 18.2 25.1 17.9 25.6 17.5 25.4 C 17.0 25.1 16.9 24.9 17.0 24.9 C 17.2 24.9 17.2 24.7 17.0 24.6 C 16.9 24.5 16.5 24.1 16.3 24.0 C 16.0 24.0 17.1 25.2 15.5 24.2 C 14.7 23.7 14.5 22.8 14.7 22.9 C 15.3 23.3 14.5 21.7 14.4 22.0 C 14.2 22.2 12.9 21.4 12.9 22.0 C 13.0 22.2 11.5 21.5 11.3 21.3 C 11.2 21.1 10.5 20.9 10.6 20.3 C 10.6 20.1 9.5 20.2 9.3 20.1 C 9.1 20.0 8.1 19.2 8.0 19.0 C 7.8 18.8 8.3 19.0 8.6 19.2 C 8.8 19.4 9.0 19.8 9.2 19.8 C 9.5 19.9 9.2 19.5 8.9 19.3 C 8.7 19.1 8.7 18.8 8.5 18.6 C 8.4 18.6 8.2 18.5 8.0 18.3 C 7.9 18.3 7.8 18.2 7.8 18.3 C 7.7 18.5 7.8 18.6 7.7 18.7 C 7.6 18.7 7.4 18.7 7.1 18.5 C 6.7 18.3 6.5 18.1 6.1 17.7 C 5.7 17.3 5.6 17.4 5.2 17.3 C 4.9 17.1 4.7 16.9 4.7 16.8 C 4.7 16.7 5.2 16.9 5.3 16.8 C 5.3 16.7 5.1 16.2 4.9 16.1 C 4.1 15.6 5.2 15.2 4.4 14.7 C 4.0 14.3 4.7 14.4 5.1 14.3 C 5.0 14.2 5.0 14.1 5.4 13.8 C 5.3 13.7 5.9 13.5 6.1 13.3 C 6.3 13.2 7.2 12.4 6.7 13.0 C 6.7 13.1 6.7 13.1 6.6 13.2 C 6.6 13.2 6.6 13.2 6.7 13.2 C 6.7 13.2 6.6 13.8 6.6 13.8 C 6.6 13.8 6.7 13.2 6.7 13.2 C 6.9 13.3 7.1 13.4 7.2 13.4 C 7.3 13.4 7.3 13.3 7.3 13.2 C 7.3 13.2 7.3 13.2 7.3 13.2 C 7.3 13.2 7.3 13.2 7.3 13.1 C 7.2 13.0 7.3 13.0 7.4 12.9 C 7.7 12.5 8.7 12.3 9.1 12.2 C 8.7 13.7 10.3 12.7 10.8 12.2 C 11.2 11.8 10.6 10.7 10.3 10.9 C 10.7 10.6 10.9 10.8 11.2 11.0 C 11.1 11.0 12.0 11.4 11.9 11.4 C 13.0 11.2 12.3 10.4 12.5 10.2 C 12.6 9.9 12.9 9.7 13.2 9.5 C 13.4 9.3 13.0 9.2 13.1 9.0 C 13.1 8.4 14.3 8.9 14.5 8.8 C 14.4 9.0 14.1 9.2 14.0 9.5 C 14.2 9.0 14.7 9.5 14.9 9.4 C 15.2 9.4 15.5 9.1 15.8 8.9 C 16.3 8.6 16.8 8.2 17.2 7.8 C 17.0 7.8 15.9 7.7 15.8 7.7 C 16.0 7.6 16.6 7.4 16.2 7.2 C 15.5 6.7 17.0 6.3 17.2 6.2 C 17.9 5.8 18.2 4.7 19.3 5.1 C 19.3 5.1 18.4 5.9 18.5 5.9 C 19.1 6.4 19.5 6.5 20.2 6.0 C 20.3 5.9 21.0 4.8 20.9 4.8 C 21.0 4.9 19.2 4.1 20.3 4.0 C 20.5 4.0 20.3 4.5 20.6 4.4 C 21.0 4.4 21.3 4.0 21.7 3.9 C 21.7 3.9 22.4 3.7 22.4 3.7 C 22.4 3.4 22.3 3.1 22.4 2.9 C 22.5 2.7 22.9 2.7 23.0 2.9 C 23.0 2.9 23.0 3.0 23.0 3.0 C 23.1 3.0 23.2 3.0 23.2 3.1 C 23.3 3.1 23.4 3.0 23.6 3.0 C 23.7 3.1 23.5 3.2 23.3 3.2 C 23.3 3.3 23.3 3.4 23.4 3.5 C 23.6 3.3 23.9 3.1 23.9 3.0 C 24.2 2.4 24.0 2.3 25.0 2.4 C 25.8 2.5 26.3 4.4 26.1 5.5 C 26.1 5.7 26.1 6.0 25.9 6.4 Z M 7.7 17.7 C 7.7 17.7 7.7 17.7 7.7 17.7 C 7.8 17.6 7.9 17.5 7.9 17.4 C 7.7 17.2 7.9 17.7 7.6 17.5 C 7.4 17.3 7.4 17.4 7.7 17.7 Z M 7.9 15.1 C 7.6 15.0 7.7 15.1 7.8 15.3 C 7.8 15.2 7.8 15.1 7.9 15.1 Z M 7.3 14.0 C 7.1 14.3 7.8 14.4 8.3 14.0 C 7.8 13.9 7.5 13.9 7.3 14.0 Z M 7.8 13.1 C 7.9 13.1 7.9 13.2 7.9 13.3 C 7.9 13.4 8.2 13.1 8.2 13.2 C 8.2 13.4 8.0 13.7 8.2 13.7 C 8.3 13.6 8.4 13.6 8.5 13.6 C 8.5 13.6 8.5 13.5 8.5 13.5 C 8.6 13.2 8.1 13.0 7.8 13.1 Z M 9.6 17.8 C 9.4 17.8 9.5 17.9 9.6 17.9 C 9.8 18.0 9.8 17.8 9.6 17.8 Z M 10.9 19.9 C 10.8 19.7 10.6 19.6 10.7 19.8 C 10.7 20.1 11.0 20.1 10.9 19.9 Z M 13.7 16.9 C 13.6 16.9 13.7 16.9 13.8 17.0 C 14.0 17.0 13.9 16.8 13.7 16.9 Z M 13.9 14.7 C 14.0 14.6 13.8 14.4 13.7 14.5 C 13.7 14.7 13.8 14.9 13.9 14.7 Z M 13.6 19.6 C 13.8 19.6 13.8 19.5 13.6 19.5 C 13.4 19.5 13.5 19.6 13.6 19.6 Z M 13.2 16.7 C 13.3 16.9 13.4 16.9 13.5 16.8 C 13.5 16.8 13.5 16.6 13.3 16.5 C 13.1 16.4 13.0 16.5 13.2 16.7 Z M 13.0 14.9 C 13.5 14.6 13.4 14.4 12.8 14.9 C 12.3 15.3 12.7 15.1 13.0 14.9 Z M 12.0 21.3 C 12.0 21.2 11.6 21.1 11.6 21.1 C 11.6 21.1 12.3 21.7 12.0 21.3 Z M 13.2 10.1 C 13.0 10.2 13.0 10.4 13.3 10.3 C 13.6 10.2 13.4 10.0 13.2 10.1 Z M 14.2 10.9 C 13.8 10.6 13.4 10.7 13.4 10.7 C 13.5 10.8 13.5 11.1 13.5 11.3 C 13.2 11.6 12.6 11.4 12.4 11.9 C 12.2 12.4 13.0 12.0 13.1 11.9 C 13.0 12.0 13.0 12.1 13.0 12.2 C 13.2 12.3 13.3 12.2 13.4 12.1 C 13.4 11.9 14.7 11.3 14.2 10.9 Z M 14.2 16.1 C 14.0 15.9 13.8 16.1 13.9 16.3 C 14.1 16.5 14.3 16.7 14.4 16.6 C 14.4 16.6 14.4 16.1 14.2 16.1 Z M 14.4 17.6 C 14.2 17.7 14.2 17.8 14.4 17.8 C 14.8 18.0 14.6 17.6 14.4 17.6 Z M 17.3 24.4 C 17.5 24.4 17.2 24.2 17.2 24.3 C 17.1 24.4 17.2 24.4 17.3 24.4 Z M 17.2 21.7 C 17.7 21.8 17.3 21.4 17.2 21.4 C 17.1 21.4 17.0 21.7 17.2 21.7 Z M 15.7 20.2 C 15.9 20.2 15.7 20.0 15.6 20.0 C 15.4 20.0 15.6 20.1 15.7 20.2 Z M 15.5 19.1 C 15.7 19.2 15.6 18.9 15.4 18.9 C 15.3 18.9 15.3 19.1 15.5 19.1 Z M 16.3 10.5 C 16.3 10.5 16.4 10.9 16.6 10.6 C 16.7 10.2 16.8 10.2 16.3 10.5 Z M 15.6 13.6 C 15.3 13.8 15.1 14.0 15.4 14.9 C 15.6 15.7 15.8 15.4 16.0 14.9 C 16.1 14.3 16.5 15.8 16.7 14.8 C 16.8 14.3 15.8 13.4 15.6 13.6 Z M 17.1 19.1 C 16.8 18.5 16.0 18.7 16.4 19.0 C 16.9 19.4 17.3 19.5 17.1 19.1 Z M 17.1 19.4 C 17.0 19.4 17.0 19.5 17.2 19.6 C 17.3 19.6 17.3 19.4 17.1 19.4 Z M 16.7 6.7 C 15.9 7.5 17.2 7.5 17.2 7.5 C 18.3 7.1 17.5 6.0 16.7 6.7 Z M 25.3 25.0 C 25.3 25.0 25.3 25.0 25.3 24.9 C 25.3 24.9 25.3 24.9 25.3 24.9 C 25.2 24.7 25.0 25.1 25.0 25.1 C 25.1 25.2 25.2 25.1 25.3 25.0 Z M 25.6 19.5 C 25.5 19.8 25.6 19.9 25.7 20.1 C 26.2 20.0 26.2 18.3 25.3 19.0 C 25.2 19.1 24.5 20.1 24.9 20.2 C 25.1 20.3 25.6 19.0 25.6 19.5 Z M 24.9 21.3 C 24.9 20.6 24.2 21.8 24.5 21.7 C 24.7 21.6 24.8 21.5 24.9 21.3 Z M 23.3 26.1 C 23.7 27.0 25.0 26.9 24.3 25.5 C 23.6 24.1 23.1 24.0 23.3 24.7 C 23.5 25.4 22.8 24.9 23.3 26.1 Z M 23.4 19.0 C 24.3 19.2 24.0 18.7 23.3 18.5 C 23.2 18.4 22.8 18.9 23.4 19.0 Z M 23.2 17.0 C 23.3 16.7 23.3 16.8 23.1 16.9 C 22.9 17.1 23.1 17.3 23.2 17.0 Z M 22.0 27.6 C 22.2 27.9 22.5 28.1 22.3 28.1 C 22.1 28.2 22.2 28.2 22.4 28.4 C 22.6 28.7 22.6 28.2 22.5 28.0 C 22.5 27.8 21.9 27.2 22.0 27.6 Z M 18.9 19.9 C 19.0 20.0 18.9 19.8 18.8 19.8 C 18.7 19.7 18.7 19.8 18.9 19.9 Z M 17.8 12.3 C 17.8 12.3 17.9 12.6 18.0 12.4 C 18.1 12.2 18.1 12.2 17.8 12.3 Z M 18.2 6.3 C 18.0 6.4 18.4 6.5 18.4 6.8 C 18.4 6.9 18.2 6.7 18.1 6.7 C 18.2 6.7 18.3 7.5 18.6 7.0 C 18.7 6.8 18.6 5.9 18.2 6.3 Z M 19.1 17.8 C 18.8 17.5 18.6 18.8 18.3 18.6 C 18.1 18.3 18.0 18.5 18.3 18.8 C 18.6 19.0 19.4 18.2 19.1 17.8 Z M 19.3 21.0 C 19.3 20.8 18.6 20.3 18.8 20.6 C 18.9 21.0 19.3 21.2 19.1 21.2 C 18.9 21.2 19.0 21.3 19.1 21.5 C 19.3 21.7 19.3 21.2 19.3 21.0 Z M 19.5 26.4 C 19.5 26.3 19.1 26.1 19.2 26.4 C 19.3 26.5 19.6 26.5 19.5 26.4 Z M 19.9 11.5 C 19.8 11.7 19.8 11.8 20.1 11.5 C 20.3 11.3 20.0 11.2 19.9 11.5 Z M 20.4 25.9 C 20.1 25.6 20.3 26.1 20.1 25.9 C 19.9 25.7 19.8 25.8 20.1 26.1 C 20.4 26.4 20.7 26.3 20.4 25.9 Z M 20.7 6.6 C 20.7 6.7 20.8 6.9 20.9 6.8 C 21.0 6.6 20.7 6.4 20.7 6.6 Z M 21.5 8.6 C 21.4 8.6 21.3 8.6 21.2 8.7 C 19.9 9.6 22.3 8.9 21.5 8.6 Z M 21.3 11.7 C 21.2 11.3 21.0 11.8 21.0 11.8 C 21.1 11.8 21.2 11.8 21.3 11.7 Z M 21.3 15.1 C 21.5 15.2 21.4 14.8 21.3 14.9 C 21.1 14.9 21.2 15.0 21.3 15.1 Z M 21.9 4.1 C 21.7 4.1 21.8 4.3 21.9 4.2 C 22.0 4.2 22.1 4.0 21.9 4.1 Z M 22.0 12.6 C 22.0 12.5 21.9 12.5 22.0 12.7 C 22.0 12.8 22.1 12.6 22.0 12.6 Z M 22.1 22.9 C 22.0 22.8 21.9 22.7 21.8 22.6 C 21.6 22.7 21.6 23.4 21.4 23.4 C 21.3 23.4 21.3 23.4 21.3 23.4 C 21.3 23.4 21.3 23.4 21.3 23.4 C 21.2 23.4 21.1 23.3 21.2 23.2 C 21.1 23.2 21.1 23.0 21.1 22.9 C 20.9 23.1 20.7 23.4 20.9 23.5 C 21.1 23.7 21.5 23.8 21.9 23.7 C 22.0 23.6 22.0 23.5 22.1 23.3 C 22.0 23.3 22.0 23.3 22.0 23.3 C 21.8 23.2 21.7 23.0 21.8 23.0 C 22.0 23.0 22.1 23.1 22.1 23.1 C 22.1 23.0 22.1 23.0 22.1 22.9 Z M 22.5 13.9 C 22.4 13.6 22.3 13.8 22.2 14.1 C 22.1 14.4 22.6 14.1 22.5 13.9 Z M 22.2 4.5 C 22.3 4.6 22.3 4.7 22.4 4.7 C 22.4 4.7 22.4 4.6 22.4 4.6 C 22.5 4.4 22.5 4.2 22.5 4.0 C 22.3 4.0 22.2 4.2 22.2 4.5 Z M 23.2 7.4 C 23.2 7.4 23.2 6.1 23.0 6.3 C 22.5 6.7 22.1 6.2 22.3 7.1 C 22.4 7.5 23.0 7.8 23.1 8.3 C 23.6 10.5 23.7 7.7 23.8 7.1 C 23.8 7.0 23.3 7.6 23.2 7.4 Z M 23.9 10.3 C 24.1 10.4 24.3 10.1 24.3 9.9 C 24.2 9.4 23.6 10.2 23.9 10.3 Z M 24.2 4.2 C 24.2 4.2 24.1 4.2 24.1 4.2 C 24.1 4.3 24.2 4.3 24.2 4.3 C 24.2 4.3 24.2 4.2 24.2 4.2 Z M 24.4 2.7 C 23.8 3.2 25.0 3.2 25.2 3.1 C 25.7 2.9 24.8 2.4 24.4 2.7 Z M 24.9 8.7 C 24.9 9.1 26.1 9.6 26.1 8.8 C 26.0 8.1 25.0 7.7 24.9 8.7 Z M 26.5 13.2 C 26.4 13.1 26.6 12.6 26.8 12.9 C 26.9 13.0 26.6 13.3 26.5 13.2 Z M 27.2 6.5 C 27.2 6.6 27.1 6.4 27.1 6.4 C 27.3 6.3 27.3 6.3 27.2 6.5 Z M 26.3 7.1 C 26.4 6.9 26.4 6.6 26.5 6.4 C 26.6 6.3 26.7 6.7 26.7 6.8 C 26.6 7.0 26.3 7.0 26.3 7.1 Z M 26.2 10.7 C 26.3 10.5 26.3 10.8 26.3 11.0 C 26.3 11.1 26.1 10.9 26.2 10.7 Z M 26.5 9.9 C 26.4 10.0 26.3 9.9 26.3 9.7 C 26.3 9.5 26.5 9.7 26.5 9.9 Z M 25.8 11.4 C 25.6 11.0 25.6 10.4 25.9 10.5 C 26.1 10.5 26.0 12.1 25.8 11.4 Z M 25.8 11.4 " fill="#EB5C56"></path></g></svg>