<?xml version="1.0" encoding="UTF-8" standalone="no"?><svg xmlns="http://www.w3.org/2000/svg" xmlns:xlink="http://www.w3.org/1999/xlink" clip-rule="evenodd" stroke-miterlimit="4.00" viewBox="0 0 458 109"><desc>SVG generated by Keynote</desc><defs></defs><g transform="matrix(1.00, 0.00, -0.00, -1.00, 0.0, 109.0)"><g><clipPath id="clip-43"><path d="M 12.2 38.4 L 400.0 38.4 L 400.0 108.7 L 12.2 108.7 Z M 12.2 38.4 "></path></clipPath><g clip-path="url(#clip-43)"><image xlink:href="F611D11E1DD20F18BBECB829EFC61DA6.png" width="388.00" height="70.00" transform="matrix(1.00, 0.00, -0.00, -1.01, 12.0, 109.0)"></image></g></g><g><clipPath id="clip-44"><path d="M 0.2 22.7 L 388.0 22.7 L 388.0 49.6 L 0.2 49.6 Z M 0.2 22.7 "></path></clipPath><g clip-path="url(#clip-44)"><image xlink:href="57B86512C731028303F127C5DB55FF61.png" width="388.00" height="27.00" transform="matrix(1.00, 0.00, -0.00, -1.00, 0.0, 50.0)"></image></g></g><g><clipPath id="clip-45"><path d="M 373.4 0.2 L 457.4 0.2 L 457.4 53.2 L 373.4 53.2 Z M 373.4 0.2 "></path></clipPath><g clip-path="url(#clip-45)"><image xlink:href="99B250B11589C1F78E2E829308AC122F.png" width="84.00" height="53.00" transform="matrix(1.00, 0.00, -0.00, -1.00, 373.0, 53.0)"></image></g></g></g></svg>