<?xml version="1.0" encoding="UTF-8" standalone="no"?><svg xmlns="http://www.w3.org/2000/svg" xmlns:xlink="http://www.w3.org/1999/xlink" clip-rule="evenodd" stroke-miterlimit="4.00" viewBox="0 0 1024 768"><desc>SVG generated by Keynote</desc><defs></defs><g transform="matrix(1.00, 0.00, -0.00, -1.00, 0.0, 768.0)"><path d="M 0.0 768.0 L 1024.0 768.0 L 1024.0 0.0 L 0.0 0.0 Z M 0.0 768.0 " fill="#FEFFFF"></path><text xml:space="preserve" font-family="Chalkduster" font-size="135.0" fill="#000000" transform="matrix(1.00, 0.00, -0.00, -1.00, 76.0, 337.0)">T</text><text xml:space="preserve" font-family="Chalkduster" font-size="135.0" fill="#000000" transform="matrix(1.00, 0.00, -0.00, -1.00, 179.7, 337.0)">h</text><text xml:space="preserve" font-family="Chalkduster" font-size="135.0" fill="#000000" transform="matrix(1.00, 0.00, -0.00, -1.00, 263.0, 337.0)">a</text><text xml:space="preserve" font-family="Chalkduster" font-size="135.0" fill="#000000" transform="matrix(1.00, 0.00, -0.00, -1.00, 356.0, 337.0)">n</text><text xml:space="preserve" font-family="Chalkduster" font-size="135.0" fill="#000000" transform="matrix(1.00, 0.00, -0.00, -1.00, 455.0, 337.0)">k</text><text xml:space="preserve" font-family="Chalkduster" font-size="135.0" fill="#000000" transform="matrix(1.00, 0.00, -0.00, -1.00, 560.1, 337.0)"> </text><text xml:space="preserve" font-family="Chalkduster" font-size="135.0" fill="#000000" transform="matrix(1.00, 0.00, -0.00, -1.00, 627.2, 337.0)">y</text><text xml:space="preserve" font-family="Chalkduster" font-size="135.0" fill="#000000" transform="matrix(1.00, 0.00, -0.00, -1.00, 705.6, 337.0)">o</text><text xml:space="preserve" font-family="Chalkduster" font-size="135.0" fill="#000000" transform="matrix(1.00, 0.00, -0.00, -1.00, 806.7, 337.0)">u</text><text xml:space="preserve" font-family="Chalkduster" font-size="135.0" fill="#000000" transform="matrix(1.00, 0.00, -0.00, -1.00, 899.5, 337.0)">!</text></g></svg>