<?xml version="1.0" encoding="UTF-8" standalone="no"?><svg xmlns="http://www.w3.org/2000/svg" xmlns:xlink="http://www.w3.org/1999/xlink" clip-rule="evenodd" stroke-miterlimit="4.00" viewBox="0 0 910 7"><desc>SVG generated by Keynote</desc><defs></defs><g transform="matrix(1.00, 0.00, -0.00, -1.00, 0.0, 7.0)"><path d="M 5.6 2.4 C 5.4 2.5 5.2 2.0 4.7 1.9 C 4.1 1.7 3.4 1.7 3.5 2.0 C 3.7 2.3 3.9 2.5 3.6 2.9 C 3.3 3.3 2.9 4.0 3.3 4.3 C 3.7 4.5 5.3 5.3 5.8 4.9 C 6.3 4.5 6.4 4.4 6.8 4.1 C 7.2 3.9 6.9 4.7 6.9 4.7 C 6.9 4.7 7.8 4.8 8.4 4.8 C 9.0 4.9 9.8 4.9 9.8 4.8 C 9.9 4.6 10.1 4.4 10.1 4.4 C 10.1 4.4 10.5 4.7 10.9 4.8 C 11.4 4.9 11.2 4.7 11.2 4.5 C 11.1 4.3 10.5 3.8 10.7 3.8 C 10.9 3.8 11.5 4.6 11.9 4.7 C 12.2 4.7 12.9 4.7 12.9 4.7 C 12.9 4.7 12.9 4.2 12.9 4.1 C 13.0 4.0 13.7 4.0 13.7 4.1 C 13.8 4.3 13.7 4.8 14.1 4.8 C 15.2 4.9 15.1 4.0 15.2 4.0 C 15.3 3.9 15.3 4.6 15.5 4.7 C 15.8 4.8 18.0 4.7 18.2 4.6 C 18.3 4.4 19.0 5.0 19.4 4.6 C 19.7 4.2 19.8 4.0 19.8 3.9 C 19.9 3.8 20.3 3.1 20.6 3.4 C 20.7 3.7 19.9 4.4 20.1 4.7 C 20.4 4.9 21.8 4.9 22.0 4.7 C 22.4 4.4 22.5 3.8 22.7 3.8 C 22.9 3.8 23.7 4.6 23.7 4.5 C 23.8 4.3 23.9 3.6 23.9 3.5 C 23.9 3.4 24.2 2.1 24.0 1.9 C 23.8 1.8 23.0 1.3 23.1 1.7 C 23.2 2.0 23.4 2.5 23.1 2.6 C 22.8 2.8 22.6 2.8 22.6 2.7 C 22.5 2.5 22.7 2.4 22.2 2.1 C 21.7 1.9 21.9 1.6 21.5 1.7 C 21.0 1.7 20.6 1.8 20.6 2.0 C 20.7 2.3 20.2 2.7 19.9 2.7 C 19.5 2.7 20.1 2.0 19.0 1.8 C 18.0 1.6 17.3 1.5 17.0 1.7 C 16.7 2.0 16.7 2.7 16.2 2.4 C 15.7 2.1 15.9 1.9 15.3 1.9 C 14.6 1.9 14.3 2.5 13.9 2.5 C 13.5 2.5 13.4 2.5 13.4 2.5 C 13.4 2.5 13.6 1.7 12.6 1.6 C 11.7 1.6 11.5 1.5 11.7 2.1 C 11.9 2.7 11.1 2.8 11.1 2.4 C 11.1 2.0 10.5 1.7 10.2 1.7 C 9.8 1.6 9.7 2.6 9.6 2.7 C 9.5 2.7 9.1 2.6 9.2 2.3 C 9.4 2.0 9.0 1.9 8.7 1.8 C 8.4 1.6 7.5 1.7 7.5 1.9 C 7.5 2.1 8.0 2.8 7.4 2.4 C 6.8 2.1 6.6 1.6 6.1 1.6 C 5.5 1.6 6.0 2.3 5.6 2.4 C 5.6 2.4 5.6 2.4 5.6 2.4 Z M 24.4 1.6 C 23.3 1.6 24.0 4.3 24.4 4.8 C 24.8 5.4 25.5 5.0 26.2 5.1 C 26.9 5.2 26.6 4.4 27.0 4.1 C 27.4 3.9 27.3 4.4 27.5 4.8 C 27.6 5.2 28.7 4.9 29.3 4.9 C 29.9 5.0 30.6 4.1 31.1 4.0 C 31.6 4.0 30.7 3.6 31.6 3.6 C 32.5 3.7 32.0 4.1 31.0 4.4 C 30.0 4.7 31.4 4.9 32.0 5.0 C 32.6 5.1 33.5 4.7 34.0 4.8 C 34.4 4.8 33.9 4.1 34.5 4.2 C 35.2 4.2 34.9 4.9 35.5 5.0 C 36.2 5.1 36.1 4.4 36.5 4.3 C 36.8 4.1 36.7 4.5 37.0 4.6 C 37.3 4.6 37.8 4.8 38.4 4.7 C 39.0 4.5 38.8 4.3 39.1 4.3 C 39.4 4.2 39.9 4.2 39.9 4.2 C 40.0 4.5 40.0 4.7 40.0 4.9 C 40.0 4.9 41.2 5.0 41.5 5.0 C 41.9 5.1 42.6 4.8 42.4 4.6 C 42.2 4.5 43.0 4.1 43.2 4.1 C 43.3 4.2 43.9 4.6 44.3 4.7 C 44.7 4.9 44.6 3.2 44.6 2.9 C 44.6 2.7 44.8 1.7 44.5 1.6 C 44.1 1.6 43.9 1.9 43.9 1.6 C 44.0 1.4 42.9 1.6 42.7 1.6 C 42.4 1.6 42.0 2.3 42.0 2.3 C 42.0 2.3 41.7 2.8 41.3 2.8 C 40.8 2.8 40.7 1.7 40.7 1.7 C 40.7 1.7 40.1 1.6 39.5 1.6 C 39.0 1.6 38.3 2.5 38.2 2.7 C 38.1 2.9 38.1 2.1 37.7 2.0 C 37.3 1.9 36.7 1.6 36.6 1.7 C 36.4 1.7 36.1 2.3 36.1 2.3 C 36.1 2.3 35.4 2.6 35.2 2.6 C 35.0 2.6 35.3 1.8 35.3 1.8 C 35.3 1.8 33.8 1.6 33.4 1.5 C 33.1 1.5 32.6 1.7 32.4 1.7 C 32.2 1.8 31.8 2.8 31.5 2.7 C 31.1 2.6 31.8 2.0 31.5 1.9 C 31.1 1.9 30.5 1.7 30.3 1.7 C 30.2 1.7 29.9 2.0 29.6 2.0 C 29.4 2.1 29.0 2.8 28.5 2.8 C 28.1 2.8 27.8 2.4 27.7 2.3 C 27.5 2.2 27.4 1.6 27.0 1.5 C 26.7 1.5 26.9 1.9 26.6 1.9 C 26.2 1.9 26.2 2.4 25.9 2.3 C 25.5 2.2 25.8 1.4 25.4 1.6 C 25.2 1.6 25.4 1.6 24.4 1.6 C 24.4 1.6 24.4 1.6 24.4 1.6 Z M 45.3 1.7 C 44.9 1.4 44.4 1.8 44.5 2.2 C 44.5 2.6 44.7 3.5 44.5 3.8 C 44.4 4.1 43.8 4.8 44.6 4.9 C 45.5 5.1 45.7 4.8 45.7 4.6 C 45.7 4.3 45.9 3.3 46.1 3.4 C 46.3 3.5 46.6 3.8 46.6 3.9 C 46.7 4.1 47.0 5.0 47.4 4.9 C 47.8 4.7 48.2 4.5 48.2 4.5 C 48.4 4.5 48.7 4.4 48.9 4.4 C 48.9 4.4 49.4 5.0 49.9 4.9 C 50.4 4.7 50.9 4.7 51.2 4.8 C 51.6 4.8 51.9 4.7 52.0 4.5 C 52.0 4.3 52.5 3.5 52.5 3.5 C 52.5 3.5 53.0 3.2 53.3 3.4 C 53.5 3.5 53.5 4.0 53.5 4.1 C 53.4 4.3 53.5 4.8 53.8 4.9 C 54.2 5.0 55.7 5.4 55.9 5.2 C 56.2 4.9 56.1 4.5 56.3 4.4 C 56.4 4.3 57.4 4.3 57.5 4.5 C 57.6 4.7 57.5 5.3 57.8 5.2 C 58.1 5.2 58.7 5.3 58.7 5.2 C 58.7 5.0 58.9 4.9 58.9 4.6 C 58.9 4.3 59.5 4.1 59.6 4.0 C 59.7 3.8 60.2 3.8 60.2 3.8 C 60.4 3.9 60.6 4.1 60.8 4.2 C 60.8 4.2 60.4 4.7 60.3 4.8 C 60.1 4.9 60.4 5.3 60.5 5.3 C 60.7 5.3 61.8 5.3 61.8 5.3 C 61.8 4.9 61.9 4.5 61.9 4.1 C 62.1 4.0 62.4 3.9 62.7 3.9 C 62.7 3.9 62.6 5.2 63.1 5.2 C 63.6 5.2 64.2 5.2 64.2 5.2 C 64.2 5.2 64.8 4.7 64.9 4.7 C 65.1 4.6 65.1 3.4 65.1 3.4 C 65.1 2.9 65.0 2.5 65.0 2.0 C 65.0 2.0 64.4 1.6 64.0 1.7 C 63.7 1.9 64.0 2.4 63.9 2.7 C 63.8 2.9 63.3 3.1 63.3 3.1 C 63.1 2.9 62.8 2.6 62.6 2.3 C 62.6 2.3 62.4 2.1 62.2 1.9 C 61.9 1.6 61.1 1.5 60.9 1.6 C 60.7 1.7 60.4 2.0 60.1 2.3 C 59.8 2.5 59.9 2.9 59.6 2.6 C 59.2 2.3 59.0 1.9 58.9 1.9 C 58.7 1.9 57.9 2.3 57.9 2.3 C 57.7 2.5 57.5 2.6 57.3 2.7 C 57.3 2.7 56.8 2.9 56.7 2.6 C 56.6 2.3 55.5 2.7 55.5 2.7 C 55.5 2.7 55.6 1.8 55.3 1.7 C 55.0 1.6 54.5 1.4 54.1 1.5 C 53.6 1.6 53.3 2.4 53.3 2.4 C 53.1 2.2 53.0 2.0 52.8 1.8 C 52.4 1.8 52.0 1.7 51.5 1.6 C 51.5 1.6 50.5 1.7 50.5 1.8 C 50.5 2.0 50.7 2.7 50.6 2.9 C 50.5 3.0 50.0 3.3 50.0 3.0 C 49.9 2.8 49.4 2.2 49.4 2.2 C 49.4 2.2 49.0 1.7 48.7 1.7 C 48.5 1.6 48.0 1.9 47.9 2.0 C 47.8 2.2 47.3 2.7 47.3 2.7 C 47.2 2.5 47.1 2.2 46.9 2.0 C 46.9 2.0 46.1 2.3 45.3 1.7 C 45.3 1.7 45.3 1.7 45.3 1.7 Z M 65.4 1.6 C 64.4 1.6 65.1 4.3 65.5 4.8 C 65.9 5.4 66.6 5.0 67.2 5.1 C 67.9 5.2 67.7 4.4 68.1 4.1 C 68.5 3.9 68.4 4.4 68.5 4.8 C 68.7 5.2 69.8 4.9 70.4 4.9 C 71.0 5.0 71.7 4.1 72.2 4.0 C 72.7 4.0 71.8 3.6 72.7 3.6 C 73.6 3.7 73.1 4.1 72.1 4.4 C 71.0 4.7 72.5 4.9 73.1 5.0 C 73.6 5.1 74.6 4.7 75.1 4.8 C 75.5 4.8 74.9 4.1 75.6 4.2 C 76.3 4.2 75.9 4.9 76.6 5.0 C 77.3 5.1 77.2 4.4 77.5 4.3 C 77.9 4.1 77.8 4.5 78.1 4.6 C 78.4 4.6 78.8 4.8 79.5 4.7 C 80.1 4.5 79.9 4.3 80.2 4.3 C 80.5 4.2 81.0 4.2 81.0 4.2 C 81.0 4.5 81.1 4.7 81.1 4.9 C 81.1 4.9 82.3 5.0 82.6 5.0 C 82.9 5.1 83.7 4.8 83.5 4.6 C 83.3 4.5 84.1 4.1 84.2 4.1 C 84.4 4.2 85.0 4.6 85.4 4.7 C 85.8 4.9 85.7 3.2 85.7 2.9 C 85.7 2.7 85.9 1.7 85.6 1.6 C 85.2 1.6 84.9 1.9 85.0 1.6 C 85.0 1.4 84.0 1.6 83.7 1.6 C 83.4 1.6 83.1 2.3 83.1 2.3 C 83.1 2.3 82.8 2.8 82.4 2.8 C 81.9 2.8 81.7 1.7 81.7 1.7 C 81.7 1.7 81.2 1.6 80.6 1.6 C 80.0 1.6 79.4 2.5 79.3 2.7 C 79.2 2.9 79.2 2.1 78.8 2.0 C 78.4 1.9 77.8 1.6 77.6 1.7 C 77.5 1.7 77.2 2.3 77.2 2.3 C 77.2 2.3 76.4 2.6 76.3 2.6 C 76.1 2.6 76.4 1.8 76.4 1.8 C 76.4 1.8 74.8 1.6 74.5 1.5 C 74.2 1.5 73.7 1.7 73.5 1.7 C 73.2 1.8 72.9 2.8 72.6 2.7 C 72.2 2.6 72.9 2.0 72.6 1.9 C 72.2 1.9 71.6 1.7 71.4 1.7 C 71.2 1.7 71.0 2.0 70.7 2.0 C 70.4 2.1 70.0 2.8 69.6 2.8 C 69.1 2.8 68.9 2.4 68.7 2.3 C 68.6 2.2 68.4 1.6 68.1 1.5 C 67.7 1.5 68.0 1.9 67.6 1.9 C 67.3 1.9 67.3 2.4 67.0 2.3 C 66.6 2.2 66.8 1.4 66.4 1.6 C 66.3 1.6 66.4 1.6 65.4 1.6 C 65.4 1.6 65.4 1.6 65.4 1.6 Z M 86.4 1.7 C 85.9 1.4 85.5 1.8 85.5 2.2 C 85.6 2.6 85.8 3.5 85.6 3.8 C 85.4 4.1 84.8 4.8 85.7 4.9 C 86.6 5.1 86.8 4.8 86.8 4.6 C 86.8 4.3 86.9 3.3 87.2 3.4 C 87.4 3.5 87.6 3.8 87.7 3.9 C 87.7 4.1 88.1 5.0 88.5 4.9 C 88.9 4.7 89.3 4.5 89.3 4.5 C 89.5 4.5 89.7 4.4 89.9 4.4 C 89.9 4.4 90.5 5.0 91.0 4.9 C 91.4 4.7 92.0 4.7 92.3 4.8 C 92.7 4.8 93.0 4.7 93.1 4.5 C 93.1 4.3 93.6 3.5 93.6 3.5 C 93.6 3.5 94.1 3.2 94.3 3.4 C 94.6 3.5 94.6 4.0 94.6 4.1 C 94.5 4.3 94.6 4.8 94.9 4.9 C 95.3 5.0 96.8 5.4 97.0 5.2 C 97.2 4.9 97.2 4.5 97.3 4.4 C 97.5 4.3 98.5 4.3 98.6 4.5 C 98.7 4.7 98.6 5.3 98.9 5.2 C 99.2 5.2 99.8 5.3 99.8 5.2 C 99.8 5.0 100.0 4.9 100.0 4.6 C 100.0 4.3 100.6 4.1 100.7 4.0 C 100.8 3.8 101.3 3.8 101.3 3.8 C 101.5 3.9 101.6 4.1 101.8 4.2 C 101.8 4.2 101.5 4.7 101.3 4.8 C 101.2 4.9 101.4 5.3 101.6 5.3 C 101.8 5.3 102.9 5.3 102.9 5.3 C 102.9 4.9 102.9 4.5 102.9 4.1 C 103.2 4.0 103.5 3.9 103.8 3.9 C 103.8 3.9 103.6 5.2 104.2 5.2 C 104.7 5.2 105.3 5.2 105.3 5.2 C 105.3 5.2 105.9 4.7 106.0 4.7 C 106.1 4.6 106.2 3.4 106.2 3.4 C 106.1 2.9 106.1 2.5 106.1 2.0 C 106.1 2.0 105.4 1.6 105.1 1.7 C 104.7 1.9 105.0 2.4 105.0 2.7 C 104.9 2.9 104.4 3.1 104.4 3.1 C 104.2 2.9 103.9 2.6 103.7 2.3 C 103.7 2.3 103.5 2.1 103.2 1.9 C 103.0 1.6 102.2 1.5 102.0 1.6 C 101.7 1.7 101.5 2.0 101.2 2.3 C 100.9 2.5 101.0 2.9 100.6 2.6 C 100.3 2.3 100.1 1.9 99.9 1.9 C 99.8 1.9 99.0 2.3 99.0 2.3 C 98.8 2.5 98.6 2.6 98.4 2.7 C 98.4 2.7 97.8 2.9 97.7 2.6 C 97.7 2.3 96.5 2.7 96.5 2.7 C 96.5 2.7 96.6 1.8 96.4 1.7 C 96.1 1.6 95.6 1.4 95.1 1.5 C 94.7 1.6 94.3 2.4 94.3 2.4 C 94.2 2.2 94.0 2.0 93.9 1.8 C 93.5 1.8 93.0 1.7 92.6 1.6 C 92.6 1.6 91.6 1.7 91.6 1.8 C 91.6 2.0 91.7 2.7 91.7 2.9 C 91.6 3.0 91.1 3.3 91.0 3.0 C 91.0 2.8 90.5 2.2 90.5 2.2 C 90.5 2.2 90.1 1.7 89.8 1.7 C 89.5 1.6 89.1 1.9 89.0 2.0 C 88.8 2.2 88.4 2.7 88.4 2.7 C 88.3 2.5 88.1 2.2 88.0 2.0 C 88.0 2.0 87.2 2.3 86.4 1.7 C 86.4 1.7 86.4 1.7 86.4 1.7 Z M 106.5 1.6 C 105.5 1.6 106.1 4.3 106.5 4.8 C 106.9 5.4 107.6 5.0 108.3 5.1 C 109.0 5.2 108.8 4.4 109.2 4.1 C 109.6 3.9 109.4 4.4 109.6 4.8 C 109.8 5.2 110.8 4.9 111.5 4.9 C 112.1 5.0 112.8 4.1 113.3 4.0 C 113.8 4.0 112.8 3.6 113.7 3.6 C 114.7 3.7 114.2 4.1 113.2 4.4 C 112.1 4.7 113.6 4.9 114.1 5.0 C 114.7 5.1 115.7 4.7 116.1 4.8 C 116.6 4.8 116.0 4.1 116.7 4.2 C 117.3 4.2 117.0 4.9 117.7 5.0 C 118.3 5.1 118.3 4.4 118.6 4.3 C 118.9 4.1 118.9 4.5 119.2 4.6 C 119.4 4.6 119.9 4.8 120.5 4.7 C 121.2 4.5 121.0 4.3 121.3 4.3 C 121.6 4.2 122.1 4.2 122.1 4.2 C 122.1 4.5 122.1 4.7 122.2 4.9 C 122.2 4.9 123.3 5.0 123.7 5.0 C 124.0 5.1 124.8 4.8 124.6 4.6 C 124.4 4.5 125.1 4.1 125.3 4.1 C 125.5 4.2 126.1 4.6 126.5 4.7 C 126.9 4.9 126.7 3.2 126.7 2.9 C 126.7 2.7 127.0 1.7 126.6 1.6 C 126.3 1.6 126.0 1.9 126.1 1.6 C 126.1 1.4 125.1 1.6 124.8 1.6 C 124.5 1.6 124.2 2.3 124.2 2.3 C 124.2 2.3 123.9 2.8 123.4 2.8 C 123.0 2.8 122.8 1.7 122.8 1.7 C 122.8 1.7 122.2 1.6 121.7 1.6 C 121.1 1.6 120.5 2.5 120.4 2.7 C 120.2 2.9 120.3 2.1 119.9 2.0 C 119.5 1.9 118.9 1.6 118.7 1.7 C 118.5 1.7 118.2 2.3 118.2 2.3 C 118.2 2.3 117.5 2.6 117.3 2.6 C 117.2 2.6 117.5 1.8 117.5 1.8 C 117.5 1.8 115.9 1.6 115.6 1.5 C 115.3 1.5 114.8 1.7 114.5 1.7 C 114.3 1.8 114.0 2.8 113.6 2.7 C 113.3 2.6 114.0 2.0 113.6 1.9 C 113.3 1.9 112.7 1.7 112.5 1.7 C 112.3 1.7 112.1 2.0 111.8 2.0 C 111.5 2.1 111.1 2.8 110.7 2.8 C 110.2 2.8 110.0 2.4 109.8 2.3 C 109.6 2.2 109.5 1.6 109.2 1.5 C 108.8 1.5 109.1 1.9 108.7 1.9 C 108.4 1.9 108.4 2.4 108.0 2.3 C 107.7 2.2 107.9 1.4 107.5 1.6 C 107.3 1.6 107.5 1.6 106.5 1.6 C 106.5 1.6 106.5 1.6 106.5 1.6 Z M 128.8 2.4 C 128.6 2.5 128.4 2.0 127.9 1.9 C 127.3 1.7 126.6 1.7 126.7 2.0 C 126.9 2.3 127.1 2.5 126.8 2.9 C 126.5 3.3 126.2 4.0 126.5 4.3 C 126.9 4.5 128.5 5.3 129.0 4.9 C 129.5 4.5 129.7 4.4 130.0 4.1 C 130.4 3.9 130.1 4.7 130.1 4.7 C 130.1 4.7 131.0 4.8 131.6 4.8 C 132.3 4.9 133.0 4.9 133.0 4.8 C 133.1 4.6 133.4 4.4 133.4 4.4 C 133.4 4.4 133.7 4.7 134.1 4.8 C 134.6 4.9 134.4 4.7 134.4 4.5 C 134.3 4.3 133.7 3.8 133.9 3.8 C 134.1 3.8 134.7 4.6 135.1 4.7 C 135.4 4.7 136.1 4.7 136.1 4.7 C 136.1 4.7 136.1 4.2 136.1 4.1 C 136.2 4.0 136.9 4.0 137.0 4.1 C 137.0 4.3 136.9 4.8 137.3 4.8 C 138.4 4.9 138.3 4.0 138.4 4.0 C 138.5 3.9 138.5 4.6 138.8 4.7 C 139.0 4.8 141.3 4.7 141.4 4.6 C 141.5 4.4 142.2 5.0 142.6 4.6 C 142.9 4.2 143.0 4.0 143.1 3.9 C 143.1 3.8 143.6 3.1 143.8 3.4 C 144.0 3.7 143.1 4.4 143.4 4.7 C 143.6 4.9 145.0 4.9 145.3 4.7 C 145.6 4.4 145.7 3.8 145.9 3.8 C 146.1 3.8 146.9 4.6 147.0 4.5 C 147.0 4.3 147.1 3.6 147.1 3.5 C 147.1 3.4 147.4 2.1 147.2 1.9 C 147.1 1.8 146.2 1.3 146.3 1.7 C 146.4 2.0 146.6 2.5 146.3 2.6 C 146.0 2.8 145.9 2.8 145.8 2.7 C 145.7 2.5 145.9 2.4 145.4 2.1 C 144.9 1.9 145.2 1.6 144.7 1.7 C 144.2 1.7 143.8 1.8 143.9 2.0 C 143.9 2.3 143.4 2.7 143.1 2.7 C 142.7 2.7 143.3 2.0 142.3 1.8 C 141.2 1.6 140.5 1.5 140.3 1.7 C 139.9 2.0 139.9 2.7 139.4 2.4 C 138.9 2.1 139.2 1.9 138.5 1.9 C 137.8 1.9 137.6 2.5 137.1 2.5 C 136.7 2.5 136.6 2.5 136.6 2.5 C 136.6 2.5 136.8 1.7 135.8 1.6 C 134.9 1.6 134.7 1.5 134.9 2.1 C 135.1 2.7 134.4 2.8 134.3 2.4 C 134.3 2.0 133.7 1.7 133.4 1.7 C 133.0 1.6 133.0 2.6 132.8 2.7 C 132.7 2.7 132.3 2.6 132.5 2.3 C 132.6 2.0 132.2 1.9 131.9 1.8 C 131.6 1.6 130.7 1.7 130.8 1.9 C 130.8 2.1 131.2 2.8 130.6 2.4 C 130.0 2.1 129.8 1.6 129.3 1.6 C 128.7 1.6 129.2 2.3 128.8 2.4 C 128.8 2.4 128.8 2.4 128.8 2.4 Z M 148.0 1.7 C 147.5 1.4 147.1 1.8 147.2 2.2 C 147.2 2.6 147.4 3.5 147.2 3.8 C 147.0 4.1 146.5 4.8 147.3 4.9 C 148.2 5.1 148.4 4.8 148.4 4.6 C 148.4 4.3 148.5 3.3 148.8 3.4 C 149.0 3.5 149.2 3.8 149.3 3.9 C 149.4 4.1 149.7 5.0 150.1 4.9 C 150.5 4.7 150.9 4.5 150.9 4.5 C 151.1 4.5 151.3 4.4 151.6 4.4 C 151.6 4.4 152.1 5.0 152.6 4.9 C 153.1 4.7 153.6 4.7 153.9 4.8 C 154.3 4.8 154.6 4.7 154.7 4.5 C 154.7 4.3 155.2 3.5 155.2 3.5 C 155.2 3.5 155.7 3.2 155.9 3.4 C 156.2 3.5 156.2 4.0 156.2 4.1 C 156.1 4.3 156.2 4.8 156.5 4.9 C 156.9 5.0 158.4 5.4 158.6 5.2 C 158.8 4.9 158.8 4.5 158.9 4.4 C 159.1 4.3 160.1 4.3 160.2 4.5 C 160.3 4.7 160.2 5.3 160.5 5.2 C 160.8 5.2 161.4 5.3 161.4 5.2 C 161.4 5.0 161.6 4.9 161.6 4.6 C 161.6 4.3 162.2 4.1 162.3 4.0 C 162.4 3.8 162.9 3.8 162.9 3.8 C 163.1 3.9 163.3 4.1 163.5 4.2 C 163.5 4.2 163.1 4.7 162.9 4.8 C 162.8 4.9 163.1 5.3 163.2 5.3 C 163.4 5.3 164.5 5.3 164.5 5.3 C 164.5 4.9 164.5 4.5 164.6 4.1 C 164.8 4.0 165.1 3.9 165.4 3.9 C 165.4 3.9 165.2 5.2 165.8 5.2 C 166.3 5.2 166.9 5.2 166.9 5.2 C 166.9 5.2 167.5 4.7 167.6 4.7 C 167.7 4.6 167.8 3.4 167.8 3.4 C 167.8 2.9 167.7 2.5 167.7 2.0 C 167.7 2.0 167.0 1.6 166.7 1.7 C 166.4 1.9 166.6 2.4 166.6 2.7 C 166.5 2.9 166.0 3.1 166.0 3.1 C 165.8 2.9 165.5 2.6 165.3 2.3 C 165.3 2.3 165.1 2.1 164.9 1.9 C 164.6 1.6 163.8 1.5 163.6 1.6 C 163.3 1.7 163.1 2.0 162.8 2.3 C 162.5 2.5 162.6 2.9 162.2 2.6 C 161.9 2.3 161.7 1.9 161.5 1.9 C 161.4 1.9 160.6 2.3 160.6 2.3 C 160.4 2.5 160.2 2.6 160.0 2.7 C 160.0 2.7 159.4 2.9 159.4 2.6 C 159.3 2.3 158.1 2.7 158.1 2.7 C 158.1 2.7 158.3 1.8 158.0 1.7 C 157.7 1.6 157.2 1.4 156.7 1.5 C 156.3 1.6 155.9 2.4 155.9 2.4 C 155.8 2.2 155.7 2.0 155.5 1.8 C 155.1 1.8 154.6 1.7 154.2 1.6 C 154.2 1.6 153.2 1.7 153.2 1.8 C 153.2 2.0 153.3 2.7 153.3 2.9 C 153.2 3.0 152.7 3.3 152.6 3.0 C 152.6 2.8 152.1 2.2 152.1 2.2 C 152.1 2.2 151.7 1.7 151.4 1.7 C 151.1 1.6 150.7 1.9 150.6 2.0 C 150.4 2.2 150.0 2.7 150.0 2.7 C 149.9 2.5 149.7 2.2 149.6 2.0 C 149.6 2.0 148.8 2.3 148.0 1.7 C 148.0 1.7 148.0 1.7 148.0 1.7 Z M 168.1 1.6 C 167.1 1.6 167.8 4.3 168.2 4.8 C 168.6 5.4 169.2 5.0 169.9 5.1 C 170.6 5.2 170.4 4.4 170.8 4.1 C 171.2 3.9 171.0 4.4 171.2 4.8 C 171.4 5.2 172.4 4.9 173.1 4.9 C 173.7 5.0 174.4 4.1 174.9 4.0 C 175.4 4.0 174.4 3.6 175.3 3.6 C 176.3 3.7 175.8 4.1 174.8 4.4 C 173.7 4.7 175.2 4.9 175.7 5.0 C 176.3 5.1 177.3 4.7 177.7 4.8 C 178.2 4.8 177.6 4.1 178.3 4.2 C 178.9 4.2 178.6 4.9 179.3 5.0 C 180.0 5.1 179.9 4.4 180.2 4.3 C 180.6 4.1 180.5 4.5 180.8 4.6 C 181.1 4.6 181.5 4.8 182.1 4.7 C 182.8 4.5 182.6 4.3 182.9 4.3 C 183.2 4.2 183.7 4.2 183.7 4.2 C 183.7 4.5 183.8 4.7 183.8 4.9 C 183.8 4.9 184.9 5.0 185.3 5.0 C 185.6 5.1 186.4 4.8 186.2 4.6 C 186.0 4.5 186.8 4.1 186.9 4.1 C 187.1 4.2 187.7 4.6 188.1 4.7 C 188.5 4.9 188.4 3.2 188.4 2.9 C 188.4 2.7 188.6 1.7 188.2 1.6 C 187.9 1.6 187.6 1.9 187.7 1.6 C 187.7 1.4 186.7 1.6 186.4 1.6 C 186.1 1.6 185.8 2.3 185.8 2.3 C 185.8 2.3 185.5 2.8 185.0 2.8 C 184.6 2.8 184.4 1.7 184.4 1.7 C 184.4 1.7 183.8 1.6 183.3 1.6 C 182.7 1.6 182.1 2.5 182.0 2.7 C 181.8 2.9 181.9 2.1 181.5 2.0 C 181.1 1.9 180.5 1.6 180.3 1.7 C 180.1 1.7 179.9 2.3 179.9 2.3 C 179.9 2.3 179.1 2.6 178.9 2.6 C 178.8 2.6 179.1 1.8 179.1 1.8 C 179.1 1.8 177.5 1.6 177.2 1.5 C 176.9 1.5 176.4 1.7 176.1 1.7 C 175.9 1.8 175.6 2.8 175.2 2.7 C 174.9 2.6 175.6 2.0 175.2 1.9 C 174.9 1.9 174.3 1.7 174.1 1.7 C 173.9 1.7 173.7 2.0 173.4 2.0 C 173.1 2.1 172.7 2.8 172.3 2.8 C 171.8 2.8 171.6 2.4 171.4 2.3 C 171.2 2.2 171.1 1.6 170.8 1.5 C 170.4 1.5 170.7 1.9 170.3 1.9 C 170.0 1.9 170.0 2.4 169.6 2.3 C 169.3 2.2 169.5 1.4 169.1 1.6 C 169.0 1.6 169.1 1.6 168.1 1.6 C 168.1 1.6 168.1 1.6 168.1 1.6 Z M 189.1 1.7 C 188.6 1.4 188.2 1.8 188.2 2.2 C 188.3 2.6 188.5 3.5 188.3 3.8 C 188.1 4.1 187.5 4.8 188.4 4.9 C 189.3 5.1 189.4 4.8 189.4 4.6 C 189.4 4.3 189.6 3.3 189.8 3.4 C 190.1 3.5 190.3 3.8 190.4 3.9 C 190.4 4.1 190.8 5.0 191.2 4.9 C 191.6 4.7 192.0 4.5 192.0 4.5 C 192.2 4.5 192.4 4.4 192.6 4.4 C 192.6 4.4 193.2 5.0 193.7 4.9 C 194.1 4.7 194.6 4.7 195.0 4.8 C 195.3 4.8 195.7 4.7 195.7 4.5 C 195.8 4.3 196.3 3.5 196.3 3.5 C 196.3 3.5 196.8 3.2 197.0 3.4 C 197.2 3.5 197.3 4.0 197.2 4.1 C 197.2 4.3 197.2 4.8 197.6 4.9 C 197.9 5.0 199.4 5.4 199.7 5.2 C 199.9 4.9 199.8 4.5 200.0 4.4 C 200.2 4.3 201.2 4.3 201.3 4.5 C 201.4 4.7 201.3 5.3 201.6 5.2 C 201.9 5.2 202.5 5.3 202.5 5.2 C 202.5 5.0 202.6 4.9 202.7 4.6 C 202.7 4.3 203.3 4.1 203.4 4.0 C 203.5 3.8 204.0 3.8 204.0 3.8 C 204.1 3.9 204.3 4.1 204.5 4.2 C 204.5 4.2 204.2 4.7 204.0 4.8 C 203.8 4.9 204.1 5.3 204.3 5.3 C 204.5 5.3 205.6 5.3 205.6 5.3 C 205.6 4.9 205.6 4.5 205.6 4.1 C 205.9 4.0 206.2 3.9 206.4 3.9 C 206.4 3.9 206.3 5.2 206.8 5.2 C 207.4 5.2 208.0 5.2 208.0 5.2 C 208.0 5.2 208.5 4.7 208.7 4.7 C 208.8 4.6 208.9 3.4 208.9 3.4 C 208.8 2.9 208.8 2.5 208.8 2.0 C 208.8 2.0 208.1 1.6 207.8 1.7 C 207.4 1.9 207.7 2.4 207.7 2.7 C 207.6 2.9 207.1 3.1 207.1 3.1 C 206.8 2.9 206.6 2.6 206.4 2.3 C 206.4 2.3 206.1 2.1 205.9 1.9 C 205.7 1.6 204.9 1.5 204.6 1.6 C 204.4 1.7 204.2 2.0 203.9 2.3 C 203.6 2.5 203.7 2.9 203.3 2.6 C 203.0 2.3 202.8 1.9 202.6 1.9 C 202.5 1.9 201.7 2.3 201.7 2.3 C 201.5 2.5 201.3 2.6 201.1 2.7 C 201.1 2.7 200.5 2.9 200.4 2.6 C 200.4 2.3 199.2 2.7 199.2 2.7 C 199.2 2.7 199.3 1.8 199.0 1.7 C 198.8 1.6 198.3 1.4 197.8 1.5 C 197.4 1.6 197.0 2.4 197.0 2.4 C 196.9 2.2 196.7 2.0 196.6 1.8 C 196.1 1.8 195.7 1.7 195.3 1.6 C 195.3 1.6 194.3 1.7 194.3 1.8 C 194.3 2.0 194.4 2.7 194.4 2.9 C 194.3 3.0 193.8 3.3 193.7 3.0 C 193.7 2.8 193.2 2.2 193.2 2.2 C 193.2 2.2 192.8 1.7 192.5 1.7 C 192.2 1.6 191.8 1.9 191.6 2.0 C 191.5 2.2 191.1 2.7 191.1 2.7 C 190.9 2.5 190.8 2.2 190.7 2.0 C 190.7 2.0 189.9 2.3 189.1 1.7 C 189.1 1.7 189.1 1.7 189.1 1.7 Z M 209.2 1.6 C 208.2 1.6 208.8 4.3 209.2 4.8 C 209.6 5.4 210.3 5.0 211.0 5.1 C 211.7 5.2 211.5 4.4 211.9 4.1 C 212.3 3.9 212.1 4.4 212.3 4.8 C 212.5 5.2 213.5 4.9 214.1 4.9 C 214.8 5.0 215.4 4.1 216.0 4.0 C 216.5 4.0 215.5 3.6 216.4 3.6 C 217.3 3.7 216.9 4.1 215.8 4.4 C 214.8 4.7 216.2 4.9 216.8 5.0 C 217.4 5.1 218.4 4.7 218.8 4.8 C 219.3 4.8 218.7 4.1 219.4 4.2 C 220.0 4.2 219.7 4.9 220.4 5.0 C 221.0 5.1 220.9 4.4 221.3 4.3 C 221.6 4.1 221.6 4.5 221.8 4.6 C 222.1 4.6 222.6 4.8 223.2 4.7 C 223.8 4.5 223.7 4.3 224.0 4.3 C 224.2 4.2 224.8 4.2 224.8 4.2 C 224.8 4.5 224.8 4.7 224.9 4.9 C 224.9 4.9 226.0 5.0 226.3 5.0 C 226.7 5.1 227.5 4.8 227.3 4.6 C 227.1 4.5 227.8 4.1 228.0 4.1 C 228.2 4.2 228.7 4.6 229.1 4.7 C 229.5 4.9 229.4 3.2 229.4 2.9 C 229.4 2.7 229.7 1.7 229.3 1.6 C 229.0 1.6 228.7 1.9 228.7 1.6 C 228.8 1.4 227.8 1.6 227.5 1.6 C 227.2 1.6 226.9 2.3 226.9 2.3 C 226.9 2.3 226.6 2.8 226.1 2.8 C 225.7 2.8 225.5 1.7 225.5 1.7 C 225.5 1.7 224.9 1.6 224.4 1.6 C 223.8 1.6 223.2 2.5 223.0 2.7 C 222.9 2.9 222.9 2.1 222.5 2.0 C 222.1 1.9 221.6 1.6 221.4 1.7 C 221.2 1.7 220.9 2.3 220.9 2.3 C 220.9 2.3 220.2 2.6 220.0 2.6 C 219.8 2.6 220.1 1.8 220.1 1.8 C 220.1 1.8 218.6 1.6 218.3 1.5 C 217.9 1.5 217.4 1.7 217.2 1.7 C 217.0 1.8 216.6 2.8 216.3 2.7 C 216.0 2.6 216.6 2.0 216.3 1.9 C 216.0 1.9 215.3 1.7 215.2 1.7 C 215.0 1.7 214.8 2.0 214.5 2.0 C 214.2 2.1 213.8 2.8 213.3 2.8 C 212.9 2.8 212.7 2.4 212.5 2.3 C 212.3 2.2 212.2 1.6 211.8 1.5 C 211.5 1.5 211.7 1.9 211.4 1.9 C 211.1 1.9 211.1 2.4 210.7 2.3 C 210.4 2.2 210.6 1.4 210.2 1.6 C 210.0 1.6 210.2 1.6 209.2 1.6 C 209.2 1.6 209.2 1.6 209.2 1.6 Z M 230.2 1.7 C 229.7 1.4 229.2 1.8 229.3 2.2 C 229.4 2.6 229.5 3.5 229.4 3.8 C 229.2 4.1 228.6 4.8 229.5 4.9 C 230.3 5.1 230.5 4.8 230.5 4.6 C 230.5 4.3 230.7 3.3 230.9 3.4 C 231.1 3.5 231.4 3.8 231.4 3.9 C 231.5 4.1 231.8 5.0 232.3 4.9 C 232.7 4.7 233.1 4.5 233.1 4.5 C 233.3 4.5 233.5 4.4 233.7 4.4 C 233.7 4.4 234.3 5.0 234.7 4.9 C 235.2 4.7 235.7 4.7 236.1 4.8 C 236.4 4.8 236.8 4.7 236.8 4.5 C 236.9 4.3 237.3 3.5 237.3 3.5 C 237.3 3.5 237.9 3.2 238.1 3.4 C 238.3 3.5 238.4 4.0 238.3 4.1 C 238.3 4.3 238.3 4.8 238.7 4.9 C 239.0 5.0 240.5 5.4 240.7 5.2 C 241.0 4.9 240.9 4.5 241.1 4.4 C 241.3 4.3 242.3 4.3 242.3 4.5 C 242.4 4.7 242.4 5.3 242.7 5.2 C 242.9 5.2 243.5 5.3 243.5 5.2 C 243.5 5.0 243.7 4.9 243.7 4.6 C 243.8 4.3 244.3 4.1 244.4 4.0 C 244.6 3.8 245.0 3.8 245.0 3.8 C 245.2 3.9 245.4 4.1 245.6 4.2 C 245.6 4.2 245.3 4.7 245.1 4.8 C 244.9 4.9 245.2 5.3 245.4 5.3 C 245.5 5.3 246.6 5.3 246.6 5.3 C 246.7 4.9 246.7 4.5 246.7 4.1 C 247.0 4.0 247.2 3.9 247.5 3.9 C 247.5 3.9 247.4 5.2 247.9 5.2 C 248.4 5.2 249.1 5.2 249.1 5.2 C 249.1 5.2 249.6 4.7 249.7 4.7 C 249.9 4.6 249.9 3.4 249.9 3.4 C 249.9 2.9 249.9 2.5 249.8 2.0 C 249.8 2.0 249.2 1.6 248.8 1.7 C 248.5 1.9 248.8 2.4 248.7 2.7 C 248.7 2.9 248.2 3.1 248.2 3.1 C 247.9 2.9 247.7 2.6 247.4 2.3 C 247.4 2.3 247.2 2.1 247.0 1.9 C 246.8 1.6 246.0 1.5 245.7 1.6 C 245.5 1.7 245.3 2.0 245.0 2.3 C 244.7 2.5 244.7 2.9 244.4 2.6 C 244.0 2.3 243.9 1.9 243.7 1.9 C 243.5 1.9 242.8 2.3 242.8 2.3 C 242.6 2.5 242.4 2.6 242.1 2.7 C 242.1 2.7 241.6 2.9 241.5 2.6 C 241.4 2.3 240.3 2.7 240.3 2.7 C 240.3 2.7 240.4 1.8 240.1 1.7 C 239.8 1.6 239.4 1.4 238.9 1.5 C 238.4 1.6 238.1 2.4 238.1 2.4 C 237.9 2.2 237.8 2.0 237.7 1.8 C 237.2 1.8 236.8 1.7 236.4 1.6 C 236.4 1.6 235.4 1.7 235.4 1.8 C 235.4 2.0 235.5 2.7 235.4 2.9 C 235.4 3.0 234.9 3.3 234.8 3.0 C 234.7 2.8 234.3 2.2 234.3 2.2 C 234.3 2.2 233.9 1.7 233.6 1.7 C 233.3 1.6 232.8 1.9 232.7 2.0 C 232.6 2.2 232.1 2.7 232.1 2.7 C 232.0 2.5 231.9 2.2 231.8 2.0 C 231.8 2.0 231.0 2.3 230.2 1.7 C 230.2 1.7 230.2 1.7 230.2 1.7 Z M 250.3 1.6 C 249.2 1.6 249.9 4.3 250.3 4.8 C 250.7 5.4 251.4 5.0 252.1 5.1 C 252.8 5.2 252.5 4.4 252.9 4.1 C 253.3 3.9 253.2 4.4 253.4 4.8 C 253.5 5.2 254.6 4.9 255.2 4.9 C 255.8 5.0 256.5 4.1 257.0 4.0 C 257.5 4.0 256.6 3.6 257.5 3.6 C 258.4 3.7 258.0 4.1 256.9 4.4 C 255.9 4.7 257.3 4.9 257.9 5.0 C 258.5 5.1 259.4 4.7 259.9 4.8 C 260.3 4.8 259.8 4.1 260.4 4.2 C 261.1 4.2 260.8 4.9 261.4 5.0 C 262.1 5.1 262.0 4.4 262.4 4.3 C 262.7 4.1 262.6 4.5 262.9 4.6 C 263.2 4.6 263.7 4.8 264.3 4.7 C 264.9 4.5 264.7 4.3 265.0 4.3 C 265.3 4.2 265.8 4.2 265.8 4.2 C 265.9 4.5 265.9 4.7 265.9 4.9 C 265.9 4.9 267.1 5.0 267.4 5.0 C 267.8 5.1 268.5 4.8 268.3 4.6 C 268.1 4.5 268.9 4.1 269.1 4.1 C 269.2 4.2 269.8 4.6 270.2 4.7 C 270.6 4.9 270.5 3.2 270.5 2.9 C 270.5 2.7 270.7 1.7 270.4 1.6 C 270.0 1.6 269.8 1.9 269.8 1.6 C 269.9 1.4 268.8 1.6 268.6 1.6 C 268.3 1.6 267.9 2.3 267.9 2.3 C 267.9 2.3 267.7 2.8 267.2 2.8 C 266.7 2.8 266.6 1.7 266.6 1.7 C 266.6 1.7 266.0 1.6 265.4 1.6 C 264.9 1.6 264.2 2.5 264.1 2.7 C 264.0 2.9 264.0 2.1 263.6 2.0 C 263.2 1.9 262.6 1.6 262.5 1.7 C 262.3 1.7 262.0 2.3 262.0 2.3 C 262.0 2.3 261.3 2.6 261.1 2.6 C 260.9 2.6 261.2 1.8 261.2 1.8 C 261.2 1.8 259.7 1.6 259.3 1.5 C 259.0 1.5 258.5 1.7 258.3 1.7 C 258.1 1.8 257.7 2.8 257.4 2.7 C 257.0 2.6 257.7 2.0 257.4 1.9 C 257.0 1.9 256.4 1.7 256.2 1.7 C 256.1 1.7 255.8 2.0 255.6 2.0 C 255.3 2.1 254.9 2.8 254.4 2.8 C 254.0 2.8 253.7 2.4 253.6 2.3 C 253.4 2.2 253.3 1.6 252.9 1.5 C 252.6 1.5 252.8 1.9 252.5 1.9 C 252.1 1.9 252.1 2.4 251.8 2.3 C 251.4 2.2 251.7 1.4 251.3 1.6 C 251.1 1.6 251.3 1.6 250.3 1.6 C 250.3 1.6 250.3 1.6 250.3 1.6 Z M 272.6 2.4 C 272.4 2.5 272.2 2.0 271.6 1.9 C 271.1 1.7 270.4 1.7 270.5 2.0 C 270.6 2.3 270.8 2.5 270.5 2.9 C 270.2 3.3 269.9 4.0 270.3 4.3 C 270.7 4.5 272.3 5.3 272.8 4.9 C 273.3 4.5 273.4 4.4 273.8 4.1 C 274.2 3.9 273.9 4.7 273.9 4.7 C 273.9 4.7 274.8 4.8 275.4 4.8 C 276.0 4.9 276.7 4.9 276.8 4.8 C 276.9 4.6 277.1 4.4 277.1 4.4 C 277.1 4.4 277.4 4.7 277.9 4.8 C 278.4 4.9 278.2 4.7 278.1 4.5 C 278.1 4.3 277.5 3.8 277.7 3.8 C 277.9 3.8 278.5 4.6 278.8 4.7 C 279.2 4.7 279.9 4.7 279.9 4.7 C 279.9 4.7 279.8 4.2 279.9 4.1 C 280.0 4.0 280.7 4.0 280.7 4.1 C 280.8 4.3 280.7 4.8 281.1 4.8 C 282.2 4.9 282.0 4.0 282.2 4.0 C 282.2 3.9 282.2 4.6 282.5 4.7 C 282.8 4.8 285.0 4.7 285.1 4.6 C 285.2 4.4 286.0 5.0 286.3 4.6 C 286.7 4.2 286.8 4.0 286.8 3.9 C 286.9 3.8 287.3 3.1 287.5 3.4 C 287.7 3.7 286.9 4.4 287.1 4.7 C 287.4 4.9 288.8 4.9 289.0 4.7 C 289.4 4.4 289.5 3.8 289.6 3.8 C 289.8 3.8 290.6 4.6 290.7 4.5 C 290.8 4.3 290.9 3.6 290.9 3.5 C 290.9 3.4 291.1 2.1 291.0 1.9 C 290.8 1.8 290.0 1.3 290.1 1.7 C 290.2 2.0 290.4 2.5 290.1 2.6 C 289.8 2.8 289.6 2.8 289.5 2.7 C 289.5 2.5 289.6 2.4 289.1 2.1 C 288.7 1.9 288.9 1.6 288.5 1.7 C 288.0 1.7 287.6 1.8 287.6 2.0 C 287.7 2.3 287.2 2.7 286.8 2.7 C 286.5 2.7 287.1 2.0 286.0 1.8 C 285.0 1.6 284.3 1.5 284.0 1.7 C 283.7 2.0 283.6 2.7 283.1 2.4 C 282.7 2.1 282.9 1.9 282.2 1.9 C 281.6 1.9 281.3 2.5 280.9 2.5 C 280.5 2.5 280.3 2.5 280.3 2.5 C 280.3 2.5 280.6 1.7 279.6 1.6 C 278.6 1.6 278.4 1.5 278.6 2.1 C 278.8 2.7 278.1 2.8 278.1 2.4 C 278.0 2.0 277.5 1.7 277.1 1.7 C 276.8 1.6 276.7 2.6 276.6 2.7 C 276.4 2.7 276.1 2.6 276.2 2.3 C 276.4 2.0 276.0 1.9 275.7 1.8 C 275.4 1.6 274.5 1.7 274.5 1.9 C 274.5 2.1 275.0 2.8 274.4 2.4 C 273.8 2.1 273.6 1.6 273.0 1.6 C 272.5 1.6 273.0 2.3 272.6 2.4 C 272.6 2.4 272.6 2.4 272.6 2.4 Z M 291.8 1.7 C 291.3 1.4 290.9 1.8 290.9 2.2 C 291.0 2.6 291.1 3.5 291.0 3.8 C 290.8 4.1 290.2 4.8 291.1 4.9 C 291.9 5.1 292.1 4.8 292.1 4.6 C 292.1 4.3 292.3 3.3 292.5 3.4 C 292.8 3.5 293.0 3.8 293.1 3.9 C 293.1 4.1 293.4 5.0 293.9 4.9 C 294.3 4.7 294.7 4.5 294.7 4.5 C 294.9 4.5 295.1 4.4 295.3 4.4 C 295.3 4.4 295.9 5.0 296.3 4.9 C 296.8 4.7 297.3 4.7 297.7 4.8 C 298.0 4.8 298.4 4.7 298.4 4.5 C 298.5 4.3 298.9 3.5 298.9 3.5 C 298.9 3.5 299.5 3.2 299.7 3.4 C 299.9 3.5 300.0 4.0 299.9 4.1 C 299.9 4.3 299.9 4.8 300.3 4.9 C 300.6 5.0 302.1 5.4 302.4 5.2 C 302.6 4.9 302.5 4.5 302.7 4.4 C 302.9 4.3 303.9 4.3 304.0 4.5 C 304.0 4.7 304.0 5.3 304.3 5.2 C 304.6 5.2 305.1 5.3 305.1 5.2 C 305.1 5.0 305.3 4.9 305.3 4.6 C 305.4 4.3 305.9 4.1 306.1 4.0 C 306.2 3.8 306.6 3.8 306.6 3.8 C 306.8 3.9 307.0 4.1 307.2 4.2 C 307.2 4.2 306.9 4.7 306.7 4.8 C 306.5 4.9 306.8 5.3 307.0 5.3 C 307.2 5.3 308.3 5.3 308.3 5.3 C 308.3 4.9 308.3 4.5 308.3 4.1 C 308.6 4.0 308.8 3.9 309.1 3.9 C 309.1 3.9 309.0 5.2 309.5 5.2 C 310.0 5.2 310.7 5.2 310.7 5.2 C 310.7 5.2 311.2 4.7 311.4 4.7 C 311.5 4.6 311.6 3.4 311.6 3.4 C 311.5 2.9 311.5 2.5 311.4 2.0 C 311.4 2.0 310.8 1.6 310.5 1.7 C 310.1 1.9 310.4 2.4 310.3 2.7 C 310.3 2.9 309.8 3.1 309.8 3.1 C 309.5 2.9 309.3 2.6 309.0 2.3 C 309.0 2.3 308.8 2.1 308.6 1.9 C 308.4 1.6 307.6 1.5 307.3 1.6 C 307.1 1.7 306.9 2.0 306.6 2.3 C 306.3 2.5 306.3 2.9 306.0 2.6 C 305.7 2.3 305.5 1.9 305.3 1.9 C 305.1 1.9 304.4 2.3 304.4 2.3 C 304.2 2.5 304.0 2.6 303.7 2.7 C 303.7 2.7 303.2 2.9 303.1 2.6 C 303.0 2.3 301.9 2.7 301.9 2.7 C 301.9 2.7 302.0 1.8 301.7 1.7 C 301.4 1.6 301.0 1.4 300.5 1.5 C 300.0 1.6 299.7 2.4 299.7 2.4 C 299.6 2.2 299.4 2.0 299.3 1.8 C 298.8 1.8 298.4 1.7 298.0 1.6 C 298.0 1.6 297.0 1.7 297.0 1.8 C 297.0 2.0 297.1 2.7 297.0 2.9 C 297.0 3.0 296.5 3.3 296.4 3.0 C 296.3 2.8 295.9 2.2 295.9 2.2 C 295.9 2.2 295.5 1.7 295.2 1.7 C 294.9 1.6 294.4 1.9 294.3 2.0 C 294.2 2.2 293.7 2.7 293.7 2.7 C 293.6 2.5 293.5 2.2 293.4 2.0 C 293.4 2.0 292.6 2.3 291.8 1.7 C 291.8 1.7 291.8 1.7 291.8 1.7 Z M 311.9 1.6 C 310.8 1.6 311.5 4.3 311.9 4.8 C 312.3 5.4 313.0 5.0 313.7 5.1 C 314.4 5.2 314.1 4.4 314.5 4.1 C 314.9 3.9 314.8 4.4 315.0 4.8 C 315.1 5.2 316.2 4.9 316.8 4.9 C 317.5 5.0 318.1 4.1 318.6 4.0 C 319.1 4.0 318.2 3.6 319.1 3.6 C 320.0 3.7 319.6 4.1 318.5 4.4 C 317.5 4.7 318.9 4.9 319.5 5.0 C 320.1 5.1 321.0 4.7 321.5 4.8 C 322.0 4.8 321.4 4.1 322.0 4.2 C 322.7 4.2 322.4 4.9 323.0 5.0 C 323.7 5.1 323.6 4.4 324.0 4.3 C 324.3 4.1 324.2 4.5 324.5 4.6 C 324.8 4.6 325.3 4.8 325.9 4.7 C 326.5 4.5 326.4 4.3 326.6 4.3 C 326.9 4.2 327.4 4.2 327.4 4.2 C 327.5 4.5 327.5 4.7 327.5 4.9 C 327.5 4.9 328.7 5.0 329.0 5.0 C 329.4 5.1 330.2 4.8 329.9 4.6 C 329.7 4.5 330.5 4.1 330.7 4.1 C 330.9 4.2 331.4 4.6 331.8 4.7 C 332.2 4.9 332.1 3.2 332.1 2.9 C 332.1 2.7 332.3 1.7 332.0 1.6 C 331.7 1.6 331.4 1.9 331.4 1.6 C 331.5 1.4 330.5 1.6 330.2 1.6 C 329.9 1.6 329.5 2.3 329.5 2.3 C 329.5 2.3 329.3 2.8 328.8 2.8 C 328.3 2.8 328.2 1.7 328.2 1.7 C 328.2 1.7 327.6 1.6 327.0 1.6 C 326.5 1.6 325.8 2.5 325.7 2.7 C 325.6 2.9 325.6 2.1 325.2 2.0 C 324.8 1.9 324.2 1.6 324.1 1.7 C 323.9 1.7 323.6 2.3 323.6 2.3 C 323.6 2.3 322.9 2.6 322.7 2.6 C 322.5 2.6 322.8 1.8 322.8 1.8 C 322.8 1.8 321.3 1.6 321.0 1.5 C 320.6 1.5 320.1 1.7 319.9 1.7 C 319.7 1.8 319.3 2.8 319.0 2.7 C 318.6 2.6 319.3 2.0 319.0 1.9 C 318.6 1.9 318.0 1.7 317.9 1.7 C 317.7 1.7 317.5 2.0 317.2 2.0 C 316.9 2.1 316.5 2.8 316.0 2.8 C 315.6 2.8 315.3 2.4 315.2 2.3 C 315.0 2.2 314.9 1.6 314.5 1.5 C 314.2 1.5 314.4 1.9 314.1 1.9 C 313.7 1.9 313.7 2.4 313.4 2.3 C 313.1 2.2 313.3 1.4 312.9 1.6 C 312.7 1.6 312.9 1.6 311.9 1.6 C 311.9 1.6 311.9 1.6 311.9 1.6 Z M 332.8 1.7 C 332.4 1.4 331.9 1.8 332.0 2.2 C 332.0 2.6 332.2 3.5 332.0 3.8 C 331.9 4.1 331.3 4.8 332.2 4.9 C 333.0 5.1 333.2 4.8 333.2 4.6 C 333.2 4.3 333.4 3.3 333.6 3.4 C 333.8 3.5 334.1 3.8 334.1 3.9 C 334.2 4.1 334.5 5.0 334.9 4.9 C 335.4 4.7 335.7 4.5 335.7 4.5 C 336.0 4.5 336.2 4.4 336.4 4.4 C 336.4 4.4 337.0 5.0 337.4 4.9 C 337.9 4.7 338.4 4.7 338.8 4.8 C 339.1 4.8 339.4 4.7 339.5 4.5 C 339.6 4.3 340.0 3.5 340.0 3.5 C 340.0 3.5 340.5 3.2 340.8 3.4 C 341.0 3.5 341.1 4.0 341.0 4.1 C 340.9 4.3 341.0 4.8 341.3 4.9 C 341.7 5.0 343.2 5.4 343.4 5.2 C 343.7 4.9 343.6 4.5 343.8 4.4 C 343.9 4.3 344.9 4.3 345.0 4.5 C 345.1 4.7 345.1 5.3 345.3 5.2 C 345.6 5.2 346.2 5.3 346.2 5.2 C 346.2 5.0 346.4 4.9 346.4 4.6 C 346.4 4.3 347.0 4.1 347.1 4.0 C 347.2 3.8 347.7 3.8 347.7 3.8 C 347.9 3.9 348.1 4.1 348.3 4.2 C 348.3 4.2 347.9 4.7 347.8 4.8 C 347.6 4.9 347.9 5.3 348.1 5.3 C 348.2 5.3 349.3 5.3 349.3 5.3 C 349.3 4.9 349.4 4.5 349.4 4.1 C 349.7 4.0 349.9 3.9 350.2 3.9 C 350.2 3.9 350.1 5.2 350.6 5.2 C 351.1 5.2 351.8 5.2 351.8 5.2 C 351.8 5.2 352.3 4.7 352.4 4.7 C 352.6 4.6 352.6 3.4 352.6 3.4 C 352.6 2.9 352.5 2.5 352.5 2.0 C 352.5 2.0 351.9 1.6 351.5 1.7 C 351.2 1.9 351.5 2.4 351.4 2.7 C 351.4 2.9 350.8 3.1 350.8 3.1 C 350.6 2.9 350.4 2.6 350.1 2.3 C 350.1 2.3 349.9 2.1 349.7 1.9 C 349.4 1.6 348.6 1.5 348.4 1.6 C 348.2 1.7 347.9 2.0 347.7 2.3 C 347.4 2.5 347.4 2.9 347.1 2.6 C 346.7 2.3 346.6 1.9 346.4 1.9 C 346.2 1.9 345.5 2.3 345.5 2.3 C 345.2 2.5 345.0 2.6 344.8 2.7 C 344.8 2.7 344.3 2.9 344.2 2.6 C 344.1 2.3 343.0 2.7 343.0 2.7 C 343.0 2.7 343.1 1.8 342.8 1.7 C 342.5 1.6 342.0 1.4 341.6 1.5 C 341.1 1.6 340.8 2.4 340.8 2.4 C 340.6 2.2 340.5 2.0 340.3 1.8 C 339.9 1.8 339.5 1.7 339.0 1.6 C 339.0 1.6 338.1 1.7 338.1 1.8 C 338.1 2.0 338.2 2.7 338.1 2.9 C 338.1 3.0 337.5 3.3 337.5 3.0 C 337.4 2.8 337.0 2.2 337.0 2.2 C 337.0 2.2 336.6 1.7 336.3 1.7 C 336.0 1.6 335.5 1.9 335.4 2.0 C 335.3 2.2 334.8 2.7 334.8 2.7 C 334.7 2.5 334.6 2.2 334.4 2.0 C 334.4 2.0 333.7 2.3 332.8 1.7 C 332.8 1.7 332.8 1.7 332.8 1.7 Z M 354.7 2.4 C 354.5 2.5 354.3 2.0 353.8 1.9 C 353.2 1.7 352.5 1.7 352.7 2.0 C 352.8 2.3 353.0 2.5 352.7 2.9 C 352.4 3.3 352.1 4.0 352.4 4.3 C 352.8 4.5 354.4 5.3 354.9 4.9 C 355.4 4.5 355.6 4.4 355.9 4.1 C 356.3 3.9 356.1 4.7 356.1 4.7 C 356.1 4.7 356.9 4.8 357.5 4.8 C 358.2 4.9 358.9 4.9 359.0 4.8 C 359.0 4.6 359.3 4.4 359.3 4.4 C 359.3 4.4 359.6 4.7 360.1 4.8 C 360.5 4.9 360.4 4.7 360.3 4.5 C 360.2 4.3 359.6 3.8 359.9 3.8 C 360.1 3.8 360.6 4.6 361.0 4.7 C 361.3 4.7 362.0 4.7 362.0 4.7 C 362.0 4.7 362.0 4.2 362.0 4.1 C 362.1 4.0 362.8 4.0 362.9 4.1 C 362.9 4.3 362.8 4.8 363.2 4.8 C 364.4 4.9 364.2 4.0 364.3 4.0 C 364.4 3.9 364.4 4.6 364.7 4.7 C 364.9 4.8 367.2 4.7 367.3 4.6 C 367.4 4.4 368.1 5.0 368.5 4.6 C 368.8 4.2 368.9 4.0 369.0 3.9 C 369.0 3.8 369.5 3.1 369.7 3.4 C 369.9 3.7 369.0 4.4 369.3 4.7 C 369.5 4.9 370.9 4.9 371.2 4.7 C 371.5 4.4 371.6 3.8 371.8 3.8 C 372.0 3.8 372.8 4.6 372.9 4.5 C 372.9 4.3 373.0 3.6 373.0 3.5 C 373.0 3.4 373.3 2.1 373.1 1.9 C 373.0 1.8 372.1 1.3 372.2 1.7 C 372.3 2.0 372.5 2.5 372.2 2.6 C 371.9 2.8 371.8 2.8 371.7 2.7 C 371.6 2.5 371.8 2.4 371.3 2.1 C 370.8 1.9 371.1 1.6 370.6 1.7 C 370.1 1.7 369.7 1.8 369.8 2.0 C 369.8 2.3 369.3 2.7 369.0 2.7 C 368.6 2.7 369.2 2.0 368.2 1.8 C 367.1 1.6 366.4 1.5 366.2 1.7 C 365.9 2.0 365.8 2.7 365.3 2.4 C 364.8 2.1 365.1 1.9 364.4 1.9 C 363.7 1.9 363.5 2.5 363.0 2.5 C 362.6 2.5 362.5 2.5 362.5 2.5 C 362.5 2.5 362.7 1.7 361.7 1.6 C 360.8 1.6 360.6 1.5 360.8 2.1 C 361.0 2.7 360.3 2.8 360.2 2.4 C 360.2 2.0 359.6 1.7 359.3 1.7 C 359.0 1.6 358.9 2.6 358.7 2.7 C 358.6 2.7 358.2 2.6 358.4 2.3 C 358.5 2.0 358.1 1.9 357.8 1.8 C 357.5 1.6 356.6 1.7 356.7 1.9 C 356.7 2.1 357.1 2.8 356.5 2.4 C 355.9 2.1 355.7 1.6 355.2 1.6 C 354.6 1.6 355.1 2.3 354.7 2.4 C 354.7 2.4 354.7 2.4 354.7 2.4 Z M 373.9 1.7 C 373.4 1.4 373.0 1.8 373.1 2.2 C 373.1 2.6 373.3 3.5 373.1 3.8 C 372.9 4.1 372.4 4.8 373.2 4.9 C 374.1 5.1 374.3 4.8 374.3 4.6 C 374.3 4.3 374.4 3.3 374.7 3.4 C 374.9 3.5 375.1 3.8 375.2 3.9 C 375.3 4.1 375.6 5.0 376.0 4.9 C 376.4 4.7 376.8 4.5 376.8 4.5 C 377.0 4.5 377.2 4.4 377.5 4.4 C 377.5 4.4 378.0 5.0 378.5 4.9 C 379.0 4.7 379.5 4.7 379.8 4.8 C 380.2 4.8 380.5 4.7 380.6 4.5 C 380.6 4.3 381.1 3.5 381.1 3.5 C 381.1 3.5 381.6 3.2 381.8 3.4 C 382.1 3.5 382.1 4.0 382.1 4.1 C 382.0 4.3 382.1 4.8 382.4 4.9 C 382.8 5.0 384.3 5.4 384.5 5.2 C 384.7 4.9 384.7 4.5 384.9 4.4 C 385.0 4.3 386.0 4.3 386.1 4.5 C 386.2 4.7 386.1 5.3 386.4 5.2 C 386.7 5.2 387.3 5.3 387.3 5.2 C 387.3 5.0 387.5 4.9 387.5 4.6 C 387.5 4.3 388.1 4.1 388.2 4.0 C 388.3 3.8 388.8 3.8 388.8 3.8 C 389.0 3.9 389.2 4.1 389.4 4.2 C 389.4 4.2 389.0 4.7 388.8 4.8 C 388.7 4.9 389.0 5.3 389.1 5.3 C 389.3 5.3 390.4 5.3 390.4 5.3 C 390.4 4.9 390.4 4.5 390.5 4.1 C 390.7 4.0 391.0 3.9 391.3 3.9 C 391.3 3.9 391.2 5.2 391.7 5.2 C 392.2 5.2 392.8 5.2 392.8 5.2 C 392.8 5.2 393.4 4.7 393.5 4.7 C 393.6 4.6 393.7 3.4 393.7 3.4 C 393.7 2.9 393.6 2.5 393.6 2.0 C 393.6 2.0 392.9 1.6 392.6 1.7 C 392.3 1.9 392.5 2.4 392.5 2.7 C 392.4 2.9 391.9 3.1 391.9 3.1 C 391.7 2.9 391.4 2.6 391.2 2.3 C 391.2 2.3 391.0 2.1 390.8 1.9 C 390.5 1.6 389.7 1.5 389.5 1.6 C 389.2 1.7 389.0 2.0 388.7 2.3 C 388.4 2.5 388.5 2.9 388.2 2.6 C 387.8 2.3 387.6 1.9 387.5 1.9 C 387.3 1.9 386.5 2.3 386.5 2.3 C 386.3 2.5 386.1 2.6 385.9 2.7 C 385.9 2.7 385.3 2.9 385.3 2.6 C 385.2 2.3 384.0 2.7 384.0 2.7 C 384.0 2.7 384.2 1.8 383.9 1.7 C 383.6 1.6 383.1 1.4 382.7 1.5 C 382.2 1.6 381.8 2.4 381.8 2.4 C 381.7 2.2 381.6 2.0 381.4 1.8 C 381.0 1.8 380.6 1.7 380.1 1.6 C 380.1 1.6 379.1 1.7 379.1 1.8 C 379.1 2.0 379.2 2.7 379.2 2.9 C 379.1 3.0 378.6 3.3 378.5 3.0 C 378.5 2.8 378.0 2.2 378.0 2.2 C 378.0 2.2 377.6 1.7 377.3 1.7 C 377.0 1.6 376.6 1.9 376.5 2.0 C 376.4 2.2 375.9 2.7 375.9 2.7 C 375.8 2.5 375.6 2.2 375.5 2.0 C 375.5 2.0 374.7 2.3 373.9 1.7 C 373.9 1.7 373.9 1.7 373.9 1.7 Z M 395.8 2.4 C 395.6 2.5 395.4 2.0 394.9 1.9 C 394.3 1.7 393.6 1.7 393.7 2.0 C 393.9 2.3 394.1 2.5 393.8 2.9 C 393.5 3.3 393.1 4.0 393.5 4.3 C 393.9 4.5 395.5 5.3 396.0 4.9 C 396.5 4.5 396.6 4.4 397.0 4.1 C 397.4 3.9 397.1 4.7 397.1 4.7 C 397.1 4.7 398.0 4.8 398.6 4.8 C 399.2 4.9 400.0 4.9 400.0 4.8 C 400.1 4.6 400.3 4.4 400.3 4.4 C 400.3 4.4 400.7 4.7 401.1 4.8 C 401.6 4.9 401.4 4.7 401.4 4.5 C 401.3 4.3 400.7 3.8 400.9 3.8 C 401.1 3.8 401.7 4.6 402.1 4.7 C 402.4 4.7 403.1 4.7 403.1 4.7 C 403.1 4.7 403.0 4.2 403.1 4.1 C 403.2 4.0 403.9 4.0 403.9 4.1 C 404.0 4.3 403.9 4.8 404.3 4.8 C 405.4 4.9 405.3 4.0 405.4 4.0 C 405.5 3.9 405.5 4.6 405.7 4.7 C 406.0 4.8 408.2 4.7 408.4 4.6 C 408.5 4.4 409.2 5.0 409.6 4.6 C 409.9 4.2 410.0 4.0 410.0 3.9 C 410.1 3.8 410.5 3.1 410.7 3.4 C 410.9 3.7 410.1 4.4 410.3 4.7 C 410.6 4.9 412.0 4.9 412.2 4.7 C 412.6 4.4 412.7 3.8 412.9 3.8 C 413.1 3.8 413.9 4.6 413.9 4.5 C 414.0 4.3 414.1 3.6 414.1 3.5 C 414.1 3.4 414.4 2.1 414.2 1.9 C 414.0 1.8 413.2 1.3 413.3 1.7 C 413.4 2.0 413.6 2.5 413.3 2.6 C 413.0 2.8 412.8 2.8 412.8 2.7 C 412.7 2.5 412.9 2.4 412.4 2.1 C 411.9 1.9 412.1 1.6 411.7 1.7 C 411.2 1.7 410.8 1.8 410.8 2.0 C 410.9 2.3 410.4 2.7 410.1 2.7 C 409.7 2.7 410.3 2.0 409.2 1.8 C 408.2 1.6 407.5 1.5 407.2 1.7 C 406.9 2.0 406.9 2.7 406.4 2.4 C 405.9 2.1 406.1 1.9 405.5 1.9 C 404.8 1.9 404.5 2.5 404.1 2.5 C 403.7 2.5 403.6 2.5 403.6 2.5 C 403.6 2.5 403.8 1.7 402.8 1.6 C 401.9 1.6 401.7 1.5 401.9 2.1 C 402.1 2.7 401.3 2.8 401.3 2.4 C 401.3 2.0 400.7 1.7 400.4 1.7 C 400.0 1.6 399.9 2.6 399.8 2.7 C 399.7 2.7 399.3 2.6 399.4 2.3 C 399.6 2.0 399.2 1.9 398.9 1.8 C 398.6 1.6 397.7 1.7 397.7 1.9 C 397.7 2.1 398.2 2.8 397.6 2.4 C 397.0 2.1 396.8 1.6 396.2 1.6 C 395.7 1.6 396.2 2.3 395.8 2.4 C 395.8 2.4 395.8 2.4 395.8 2.4 Z M 415.0 1.7 C 414.5 1.4 414.1 1.8 414.1 2.2 C 414.2 2.6 414.4 3.5 414.2 3.8 C 414.0 4.1 413.4 4.8 414.3 4.9 C 415.2 5.1 415.3 4.8 415.3 4.6 C 415.3 4.3 415.5 3.3 415.8 3.4 C 416.0 3.5 416.2 3.8 416.3 3.9 C 416.3 4.1 416.7 5.0 417.1 4.9 C 417.5 4.7 417.9 4.5 417.9 4.5 C 418.1 4.5 418.3 4.4 418.5 4.4 C 418.5 4.4 419.1 5.0 419.6 4.9 C 420.0 4.7 420.5 4.7 420.9 4.8 C 421.2 4.8 421.6 4.7 421.6 4.5 C 421.7 4.3 422.2 3.5 422.2 3.5 C 422.2 3.5 422.7 3.2 422.9 3.4 C 423.1 3.5 423.2 4.0 423.1 4.1 C 423.1 4.3 423.1 4.8 423.5 4.9 C 423.8 5.0 425.3 5.4 425.6 5.2 C 425.8 4.9 425.8 4.5 425.9 4.4 C 426.1 4.3 427.1 4.3 427.2 4.5 C 427.3 4.7 427.2 5.3 427.5 5.2 C 427.8 5.2 428.4 5.3 428.4 5.2 C 428.4 5.0 428.5 4.9 428.6 4.6 C 428.6 4.3 429.2 4.1 429.3 4.0 C 429.4 3.8 429.9 3.8 429.9 3.8 C 430.0 3.9 430.2 4.1 430.4 4.2 C 430.4 4.2 430.1 4.7 429.9 4.8 C 429.7 4.9 430.0 5.3 430.2 5.3 C 430.4 5.3 431.5 5.3 431.5 5.3 C 431.5 4.9 431.5 4.5 431.5 4.1 C 431.8 4.0 432.1 3.9 432.3 3.9 C 432.3 3.9 432.2 5.2 432.7 5.2 C 433.3 5.2 433.9 5.2 433.9 5.2 C 433.9 5.2 434.4 4.7 434.6 4.7 C 434.7 4.6 434.8 3.4 434.8 3.4 C 434.7 2.9 434.7 2.5 434.7 2.0 C 434.7 2.0 434.0 1.6 433.7 1.7 C 433.3 1.9 433.6 2.4 433.6 2.7 C 433.5 2.9 433.0 3.1 433.0 3.1 C 432.7 2.9 432.5 2.6 432.3 2.3 C 432.3 2.3 432.1 2.1 431.8 1.9 C 431.6 1.6 430.8 1.5 430.6 1.6 C 430.3 1.7 430.1 2.0 429.8 2.3 C 429.5 2.5 429.6 2.9 429.2 2.6 C 428.9 2.3 428.7 1.9 428.5 1.9 C 428.4 1.9 427.6 2.3 427.6 2.3 C 427.4 2.5 427.2 2.6 427.0 2.7 C 427.0 2.7 426.4 2.9 426.3 2.6 C 426.3 2.3 425.1 2.7 425.1 2.7 C 425.1 2.7 425.2 1.8 424.9 1.7 C 424.7 1.6 424.2 1.4 423.7 1.5 C 423.3 1.6 422.9 2.4 422.9 2.4 C 422.8 2.2 422.6 2.0 422.5 1.8 C 422.1 1.8 421.6 1.7 421.2 1.6 C 421.2 1.6 420.2 1.7 420.2 1.8 C 420.2 2.0 420.3 2.7 420.3 2.9 C 420.2 3.0 419.7 3.3 419.6 3.0 C 419.6 2.8 419.1 2.2 419.1 2.2 C 419.1 2.2 418.7 1.7 418.4 1.7 C 418.1 1.6 417.7 1.9 417.5 2.0 C 417.4 2.2 417.0 2.7 417.0 2.7 C 416.8 2.5 416.7 2.2 416.6 2.0 C 416.6 2.0 415.8 2.3 415.0 1.7 C 415.0 1.7 415.0 1.7 415.0 1.7 Z M 436.9 2.4 C 436.7 2.5 436.5 2.0 435.9 1.9 C 435.4 1.7 434.7 1.7 434.8 2.0 C 434.9 2.3 435.1 2.5 434.8 2.9 C 434.5 3.3 434.2 4.0 434.6 4.3 C 435.0 4.5 436.6 5.3 437.1 4.9 C 437.5 4.5 437.7 4.4 438.1 4.1 C 438.4 3.9 438.2 4.7 438.2 4.7 C 438.2 4.7 439.0 4.8 439.7 4.8 C 440.3 4.9 441.0 4.9 441.1 4.8 C 441.2 4.6 441.4 4.4 441.4 4.4 C 441.4 4.4 441.7 4.7 442.2 4.8 C 442.7 4.9 442.5 4.7 442.4 4.5 C 442.4 4.3 441.8 3.8 442.0 3.8 C 442.2 3.8 442.8 4.6 443.1 4.7 C 443.5 4.7 444.2 4.7 444.2 4.7 C 444.2 4.7 444.1 4.2 444.2 4.1 C 444.3 4.0 445.0 4.0 445.0 4.1 C 445.1 4.3 445.0 4.8 445.3 4.8 C 446.5 4.9 446.3 4.0 446.4 4.0 C 446.5 3.9 446.5 4.6 446.8 4.7 C 447.1 4.8 449.3 4.7 449.4 4.6 C 449.5 4.4 450.3 5.0 450.6 4.6 C 451.0 4.2 451.1 4.0 451.1 3.9 C 451.2 3.8 451.6 3.1 451.8 3.4 C 452.0 3.7 451.1 4.4 451.4 4.7 C 451.7 4.9 453.1 4.9 453.3 4.7 C 453.6 4.4 453.7 3.8 453.9 3.8 C 454.1 3.8 454.9 4.6 455.0 4.5 C 455.1 4.3 455.2 3.6 455.2 3.5 C 455.2 3.4 455.4 2.1 455.3 1.9 C 455.1 1.8 454.3 1.3 454.4 1.7 C 454.5 2.0 454.7 2.5 454.4 2.6 C 454.1 2.8 453.9 2.8 453.8 2.7 C 453.8 2.5 453.9 2.4 453.4 2.1 C 452.9 1.9 453.2 1.6 452.7 1.7 C 452.3 1.7 451.9 1.8 451.9 2.0 C 451.9 2.3 451.5 2.7 451.1 2.7 C 450.8 2.7 451.4 2.0 450.3 1.8 C 449.3 1.6 448.6 1.5 448.3 1.7 C 448.0 2.0 447.9 2.7 447.4 2.4 C 446.9 2.1 447.2 1.9 446.5 1.9 C 445.9 1.9 445.6 2.5 445.2 2.5 C 444.8 2.5 444.6 2.5 444.6 2.5 C 444.6 2.5 444.9 1.7 443.9 1.6 C 442.9 1.6 442.7 1.5 442.9 2.1 C 443.1 2.7 442.4 2.8 442.4 2.4 C 442.3 2.0 441.8 1.7 441.4 1.7 C 441.1 1.6 441.0 2.6 440.9 2.7 C 440.7 2.7 440.3 2.6 440.5 2.3 C 440.7 2.0 440.3 1.9 440.0 1.8 C 439.7 1.6 438.8 1.7 438.8 1.9 C 438.8 2.1 439.2 2.8 438.6 2.4 C 438.1 2.1 437.9 1.6 437.3 1.6 C 436.8 1.6 437.3 2.3 436.9 2.4 C 436.9 2.4 436.9 2.4 436.9 2.4 Z M 455.6 1.6 C 454.6 1.6 455.3 4.3 455.7 4.8 C 456.1 5.4 456.8 5.0 457.4 5.1 C 458.1 5.2 457.9 4.4 458.3 4.1 C 458.7 3.9 458.6 4.4 458.7 4.8 C 458.9 5.2 459.9 4.9 460.6 4.9 C 461.2 5.0 461.9 4.1 462.4 4.0 C 462.9 4.0 461.9 3.6 462.9 3.6 C 463.8 3.7 463.3 4.1 462.3 4.4 C 461.2 4.7 462.7 4.9 463.3 5.0 C 463.8 5.1 464.8 4.7 465.3 4.8 C 465.7 4.8 465.1 4.1 465.8 4.2 C 466.5 4.2 466.1 4.9 466.8 5.0 C 467.5 5.1 467.4 4.4 467.7 4.3 C 468.1 4.1 468.0 4.5 468.3 4.6 C 468.6 4.6 469.0 4.8 469.7 4.7 C 470.3 4.5 470.1 4.3 470.4 4.3 C 470.7 4.2 471.2 4.2 471.2 4.2 C 471.2 4.5 471.3 4.7 471.3 4.9 C 471.3 4.9 472.4 5.0 472.8 5.0 C 473.1 5.1 473.9 4.8 473.7 4.6 C 473.5 4.5 474.3 4.1 474.4 4.1 C 474.6 4.2 475.2 4.6 475.6 4.7 C 476.0 4.9 475.9 3.2 475.9 2.9 C 475.9 2.7 476.1 1.7 475.8 1.6 C 475.4 1.6 475.1 1.9 475.2 1.6 C 475.2 1.4 474.2 1.6 473.9 1.6 C 473.6 1.6 473.3 2.3 473.3 2.3 C 473.3 2.3 473.0 2.8 472.6 2.8 C 472.1 2.8 471.9 1.7 471.9 1.7 C 471.9 1.7 471.4 1.6 470.8 1.6 C 470.2 1.6 469.6 2.5 469.5 2.7 C 469.4 2.9 469.4 2.1 469.0 2.0 C 468.6 1.9 468.0 1.6 467.8 1.7 C 467.7 1.7 467.4 2.3 467.4 2.3 C 467.4 2.3 466.6 2.6 466.5 2.6 C 466.3 2.6 466.6 1.8 466.6 1.8 C 466.6 1.8 465.0 1.6 464.7 1.5 C 464.4 1.5 463.9 1.7 463.6 1.7 C 463.4 1.8 463.1 2.8 462.7 2.7 C 462.4 2.6 463.1 2.0 462.7 1.9 C 462.4 1.9 461.8 1.7 461.6 1.7 C 461.4 1.7 461.2 2.0 460.9 2.0 C 460.6 2.1 460.2 2.8 459.8 2.8 C 459.3 2.8 459.1 2.4 458.9 2.3 C 458.8 2.2 458.6 1.6 458.3 1.5 C 457.9 1.5 458.2 1.9 457.8 1.9 C 457.5 1.9 457.5 2.4 457.2 2.3 C 456.8 2.2 457.0 1.4 456.6 1.6 C 456.5 1.6 456.6 1.6 455.6 1.6 C 455.6 1.6 455.6 1.6 455.6 1.6 Z M 476.6 1.7 C 476.1 1.4 475.7 1.8 475.7 2.2 C 475.8 2.6 476.0 3.5 475.8 3.8 C 475.6 4.1 475.0 4.8 475.9 4.9 C 476.8 5.1 477.0 4.8 477.0 4.6 C 477.0 4.3 477.1 3.3 477.4 3.4 C 477.6 3.5 477.8 3.8 477.9 3.9 C 477.9 4.1 478.3 5.0 478.7 4.9 C 479.1 4.7 479.5 4.5 479.5 4.5 C 479.7 4.5 479.9 4.4 480.1 4.4 C 480.1 4.4 480.7 5.0 481.2 4.9 C 481.6 4.7 482.2 4.7 482.5 4.8 C 482.9 4.8 483.2 4.7 483.3 4.5 C 483.3 4.3 483.8 3.5 483.8 3.5 C 483.8 3.5 484.3 3.2 484.5 3.4 C 484.8 3.5 484.8 4.0 484.8 4.1 C 484.7 4.3 484.8 4.8 485.1 4.9 C 485.5 5.0 487.0 5.4 487.2 5.2 C 487.4 4.9 487.4 4.5 487.5 4.4 C 487.7 4.3 488.7 4.3 488.8 4.5 C 488.9 4.7 488.8 5.3 489.1 5.2 C 489.4 5.2 490.0 5.3 490.0 5.2 C 490.0 5.0 490.2 4.9 490.2 4.6 C 490.2 4.3 490.8 4.1 490.9 4.0 C 491.0 3.8 491.5 3.8 491.5 3.8 C 491.7 3.9 491.8 4.1 492.0 4.2 C 492.0 4.2 491.7 4.7 491.5 4.8 C 491.4 4.9 491.6 5.3 491.8 5.3 C 492.0 5.3 493.1 5.3 493.1 5.3 C 493.1 4.9 493.1 4.5 493.1 4.1 C 493.4 4.0 493.7 3.9 494.0 3.9 C 494.0 3.9 493.8 5.2 494.4 5.2 C 494.9 5.2 495.5 5.2 495.5 5.2 C 495.5 5.2 496.1 4.7 496.2 4.7 C 496.3 4.6 496.4 3.4 496.4 3.4 C 496.3 2.9 496.3 2.5 496.3 2.0 C 496.3 2.0 495.6 1.6 495.3 1.7 C 494.9 1.9 495.2 2.4 495.2 2.7 C 495.1 2.9 494.6 3.1 494.6 3.1 C 494.4 2.9 494.1 2.6 493.9 2.3 C 493.9 2.3 493.7 2.1 493.4 1.9 C 493.2 1.6 492.4 1.5 492.2 1.6 C 491.9 1.7 491.7 2.0 491.4 2.3 C 491.1 2.5 491.2 2.9 490.8 2.6 C 490.5 2.3 490.3 1.9 490.1 1.9 C 490.0 1.9 489.2 2.3 489.2 2.3 C 489.0 2.5 488.8 2.6 488.6 2.7 C 488.6 2.7 488.0 2.9 487.9 2.6 C 487.9 2.3 486.7 2.7 486.7 2.7 C 486.7 2.7 486.8 1.8 486.6 1.7 C 486.3 1.6 485.8 1.4 485.3 1.5 C 484.9 1.6 484.5 2.4 484.5 2.4 C 484.4 2.2 484.2 2.0 484.1 1.8 C 483.7 1.8 483.2 1.7 482.8 1.6 C 482.8 1.6 481.8 1.7 481.8 1.8 C 481.8 2.0 481.9 2.7 481.9 2.9 C 481.8 3.0 481.3 3.3 481.2 3.0 C 481.2 2.8 480.7 2.2 480.7 2.2 C 480.7 2.2 480.3 1.7 480.0 1.7 C 479.7 1.6 479.3 1.9 479.1 2.0 C 479.0 2.2 478.6 2.7 478.6 2.7 C 478.4 2.5 478.3 2.2 478.2 2.0 C 478.2 2.0 477.4 2.3 476.6 1.7 C 476.6 1.7 476.6 1.7 476.6 1.7 Z M 498.5 2.4 C 498.3 2.5 498.1 2.0 497.5 1.9 C 497.0 1.7 496.3 1.7 496.4 2.0 C 496.5 2.3 496.7 2.5 496.4 2.9 C 496.1 3.3 495.8 4.0 496.2 4.3 C 496.6 4.5 498.2 5.3 498.7 4.9 C 499.2 4.5 499.3 4.4 499.7 4.1 C 500.1 3.9 499.8 4.7 499.8 4.7 C 499.8 4.7 500.7 4.8 501.3 4.8 C 501.9 4.9 502.6 4.9 502.7 4.8 C 502.8 4.6 503.0 4.4 503.0 4.4 C 503.0 4.4 503.3 4.7 503.8 4.8 C 504.3 4.9 504.1 4.7 504.0 4.5 C 504.0 4.3 503.4 3.8 503.6 3.8 C 503.8 3.8 504.4 4.6 504.7 4.7 C 505.1 4.7 505.8 4.7 505.8 4.7 C 505.8 4.7 505.7 4.2 505.8 4.1 C 505.9 4.0 506.6 4.0 506.6 4.1 C 506.7 4.3 506.6 4.8 507.0 4.8 C 508.1 4.9 507.9 4.0 508.1 4.0 C 508.2 3.9 508.1 4.6 508.4 4.7 C 508.7 4.8 510.9 4.7 511.0 4.6 C 511.2 4.4 511.9 5.0 512.2 4.6 C 512.6 4.2 512.7 4.0 512.7 3.9 C 512.8 3.8 513.2 3.1 513.4 3.4 C 513.6 3.7 512.8 4.4 513.0 4.7 C 513.3 4.9 514.7 4.9 514.9 4.7 C 515.3 4.4 515.4 3.8 515.6 3.8 C 515.7 3.8 516.5 4.6 516.6 4.5 C 516.7 4.3 516.8 3.6 516.8 3.5 C 516.8 3.4 517.0 2.1 516.9 1.9 C 516.7 1.8 515.9 1.3 516.0 1.7 C 516.1 2.0 516.3 2.5 516.0 2.6 C 515.7 2.8 515.5 2.8 515.5 2.7 C 515.4 2.5 515.6 2.4 515.1 2.1 C 514.6 1.9 514.8 1.6 514.4 1.7 C 513.9 1.7 513.5 1.8 513.5 2.0 C 513.6 2.3 513.1 2.7 512.7 2.7 C 512.4 2.7 513.0 2.0 511.9 1.8 C 510.9 1.6 510.2 1.5 509.9 1.7 C 509.6 2.0 509.5 2.7 509.0 2.4 C 508.6 2.1 508.8 1.9 508.2 1.9 C 507.5 1.9 507.2 2.5 506.8 2.5 C 506.4 2.5 506.2 2.5 506.2 2.5 C 506.2 2.5 506.5 1.7 505.5 1.6 C 504.5 1.6 504.3 1.5 504.5 2.1 C 504.7 2.7 504.0 2.8 504.0 2.4 C 503.9 2.0 503.4 1.7 503.0 1.7 C 502.7 1.6 502.6 2.6 502.5 2.7 C 502.3 2.7 502.0 2.6 502.1 2.3 C 502.3 2.0 501.9 1.9 501.6 1.8 C 501.3 1.6 500.4 1.7 500.4 1.9 C 500.4 2.1 500.9 2.8 500.3 2.4 C 499.7 2.1 499.5 1.6 498.9 1.6 C 498.4 1.6 498.9 2.3 498.5 2.4 C 498.5 2.4 498.5 2.4 498.5 2.4 Z M 517.2 1.6 C 516.2 1.6 516.9 4.3 517.3 4.8 C 517.7 5.4 518.4 5.0 519.1 5.1 C 519.7 5.2 519.5 4.4 519.9 4.1 C 520.3 3.9 520.2 4.4 520.3 4.8 C 520.5 5.2 521.6 4.9 522.2 4.9 C 522.8 5.0 523.5 4.1 524.0 4.0 C 524.5 4.0 523.6 3.6 524.5 3.6 C 525.4 3.7 524.9 4.1 523.9 4.4 C 522.8 4.7 524.3 4.9 524.9 5.0 C 525.4 5.1 526.4 4.7 526.9 4.8 C 527.3 4.8 526.8 4.1 527.4 4.2 C 528.1 4.2 527.7 4.9 528.4 5.0 C 529.1 5.1 529.0 4.4 529.3 4.3 C 529.7 4.1 529.6 4.5 529.9 4.6 C 530.2 4.6 530.6 4.8 531.3 4.7 C 531.9 4.5 531.7 4.3 532.0 4.3 C 532.3 4.2 532.8 4.2 532.8 4.2 C 532.8 4.5 532.9 4.7 532.9 4.9 C 532.9 4.9 534.1 5.0 534.4 5.0 C 534.7 5.1 535.5 4.8 535.3 4.6 C 535.1 4.5 535.9 4.1 536.0 4.1 C 536.2 4.2 536.8 4.6 537.2 4.7 C 537.6 4.9 537.5 3.2 537.5 2.9 C 537.5 2.7 537.7 1.7 537.4 1.6 C 537.0 1.6 536.7 1.9 536.8 1.6 C 536.8 1.4 535.8 1.6 535.5 1.6 C 535.3 1.6 534.9 2.3 534.9 2.3 C 534.9 2.3 534.6 2.8 534.2 2.8 C 533.7 2.8 533.5 1.7 533.5 1.7 C 533.5 1.7 533.0 1.6 532.4 1.6 C 531.8 1.6 531.2 2.5 531.1 2.7 C 531.0 2.9 531.0 2.1 530.6 2.0 C 530.2 1.9 529.6 1.6 529.4 1.7 C 529.3 1.7 529.0 2.3 529.0 2.3 C 529.0 2.3 528.2 2.6 528.1 2.6 C 527.9 2.6 528.2 1.8 528.2 1.8 C 528.2 1.8 526.6 1.6 526.3 1.5 C 526.0 1.5 525.5 1.7 525.3 1.7 C 525.0 1.8 524.7 2.8 524.4 2.7 C 524.0 2.6 524.7 2.0 524.4 1.9 C 524.0 1.9 523.4 1.7 523.2 1.7 C 523.0 1.7 522.8 2.0 522.5 2.0 C 522.2 2.1 521.8 2.8 521.4 2.8 C 520.9 2.8 520.7 2.4 520.5 2.3 C 520.4 2.2 520.2 1.6 519.9 1.5 C 519.5 1.5 519.8 1.9 519.5 1.9 C 519.1 1.9 519.1 2.4 518.8 2.3 C 518.4 2.2 518.6 1.4 518.3 1.6 C 518.1 1.6 518.3 1.6 517.2 1.6 C 517.2 1.6 517.2 1.6 517.2 1.6 Z M 539.6 2.4 C 539.4 2.5 539.2 2.0 538.6 1.9 C 538.0 1.7 537.3 1.7 537.5 2.0 C 537.6 2.3 537.8 2.5 537.5 2.9 C 537.2 3.3 536.9 4.0 537.3 4.3 C 537.7 4.5 539.2 5.3 539.7 4.9 C 540.2 4.5 540.4 4.4 540.8 4.1 C 541.1 3.9 540.9 4.7 540.9 4.7 C 540.9 4.7 541.7 4.8 542.4 4.8 C 543.0 4.9 543.7 4.9 543.8 4.8 C 543.8 4.6 544.1 4.4 544.1 4.4 C 544.1 4.4 544.4 4.7 544.9 4.8 C 545.3 4.9 545.2 4.7 545.1 4.5 C 545.0 4.3 544.5 3.8 544.7 3.8 C 544.9 3.8 545.5 4.6 545.8 4.7 C 546.1 4.7 546.9 4.7 546.9 4.7 C 546.9 4.7 546.8 4.2 546.9 4.1 C 546.9 4.0 547.7 4.0 547.7 4.1 C 547.7 4.3 547.7 4.8 548.0 4.8 C 549.2 4.9 549.0 4.0 549.1 4.0 C 549.2 3.9 549.2 4.6 549.5 4.7 C 549.8 4.8 552.0 4.7 552.1 4.6 C 552.2 4.4 553.0 5.0 553.3 4.6 C 553.6 4.2 553.7 4.0 553.8 3.9 C 553.9 3.8 554.3 3.1 554.5 3.4 C 554.7 3.7 553.8 4.4 554.1 4.7 C 554.4 4.9 555.8 4.9 556.0 4.7 C 556.3 4.4 556.4 3.8 556.6 3.8 C 556.8 3.8 557.6 4.6 557.7 4.5 C 557.8 4.3 557.9 3.6 557.9 3.5 C 557.9 3.4 558.1 2.1 557.9 1.9 C 557.8 1.8 556.9 1.3 557.0 1.7 C 557.2 2.0 557.4 2.5 557.1 2.6 C 556.8 2.8 556.6 2.8 556.5 2.7 C 556.5 2.5 556.6 2.4 556.1 2.1 C 555.6 1.9 555.9 1.6 555.4 1.7 C 555.0 1.7 554.5 1.8 554.6 2.0 C 554.6 2.3 554.1 2.7 553.8 2.7 C 553.5 2.7 554.0 2.0 553.0 1.8 C 551.9 1.6 551.3 1.5 551.0 1.7 C 550.7 2.0 550.6 2.7 550.1 2.4 C 549.6 2.1 549.9 1.9 549.2 1.9 C 548.6 1.9 548.3 2.5 547.9 2.5 C 547.4 2.5 547.3 2.5 547.3 2.5 C 547.3 2.5 547.5 1.7 546.6 1.6 C 545.6 1.6 545.4 1.5 545.6 2.1 C 545.8 2.7 545.1 2.8 545.1 2.4 C 545.0 2.0 544.4 1.7 544.1 1.7 C 543.8 1.6 543.7 2.6 543.6 2.7 C 543.4 2.7 543.0 2.6 543.2 2.3 C 543.3 2.0 543.0 1.9 542.7 1.8 C 542.4 1.6 541.5 1.7 541.5 1.9 C 541.5 2.1 541.9 2.8 541.3 2.4 C 540.7 2.1 540.6 1.6 540.0 1.6 C 539.4 1.6 539.9 2.3 539.6 2.4 C 539.6 2.4 539.6 2.4 539.6 2.4 Z M 558.8 1.7 C 558.3 1.4 557.8 1.8 557.9 2.2 C 557.9 2.6 558.1 3.5 557.9 3.8 C 557.8 4.1 557.2 4.8 558.1 4.9 C 558.9 5.1 559.1 4.8 559.1 4.6 C 559.1 4.3 559.3 3.3 559.5 3.4 C 559.7 3.5 560.0 3.8 560.0 3.9 C 560.1 4.1 560.4 5.0 560.8 4.9 C 561.3 4.7 561.6 4.5 561.6 4.5 C 561.9 4.5 562.1 4.4 562.3 4.4 C 562.3 4.4 562.9 5.0 563.3 4.9 C 563.8 4.7 564.3 4.7 564.7 4.8 C 565.0 4.8 565.3 4.7 565.4 4.5 C 565.5 4.3 565.9 3.5 565.9 3.5 C 565.9 3.5 566.4 3.2 566.7 3.4 C 566.9 3.5 567.0 4.0 566.9 4.1 C 566.9 4.3 566.9 4.8 567.2 4.9 C 567.6 5.0 569.1 5.4 569.3 5.2 C 569.6 4.9 569.5 4.5 569.7 4.4 C 569.9 4.3 570.9 4.3 570.9 4.5 C 571.0 4.7 571.0 5.3 571.2 5.2 C 571.5 5.2 572.1 5.3 572.1 5.2 C 572.1 5.0 572.3 4.9 572.3 4.6 C 572.3 4.3 572.9 4.1 573.0 4.0 C 573.2 3.8 573.6 3.8 573.6 3.8 C 573.8 3.9 574.0 4.1 574.2 4.2 C 574.2 4.2 573.8 4.7 573.7 4.8 C 573.5 4.9 573.8 5.3 574.0 5.3 C 574.1 5.3 575.2 5.3 575.2 5.3 C 575.3 4.9 575.3 4.5 575.3 4.1 C 575.6 4.0 575.8 3.9 576.1 3.9 C 576.1 3.9 576.0 5.2 576.5 5.2 C 577.0 5.2 577.7 5.2 577.7 5.2 C 577.7 5.2 578.2 4.7 578.3 4.7 C 578.5 4.6 578.5 3.4 578.5 3.4 C 578.5 2.9 578.5 2.5 578.4 2.0 C 578.4 2.0 577.8 1.6 577.4 1.7 C 577.1 1.9 577.4 2.4 577.3 2.7 C 577.3 2.9 576.7 3.1 576.7 3.1 C 576.5 2.9 576.3 2.6 576.0 2.3 C 576.0 2.3 575.8 2.1 575.6 1.9 C 575.4 1.6 574.5 1.5 574.3 1.6 C 574.1 1.7 573.8 2.0 573.6 2.3 C 573.3 2.5 573.3 2.9 573.0 2.6 C 572.6 2.3 572.5 1.9 572.3 1.9 C 572.1 1.9 571.4 2.3 571.4 2.3 C 571.1 2.5 570.9 2.6 570.7 2.7 C 570.7 2.7 570.2 2.9 570.1 2.6 C 570.0 2.3 568.9 2.7 568.9 2.7 C 568.9 2.7 569.0 1.8 568.7 1.7 C 568.4 1.6 567.9 1.4 567.5 1.5 C 567.0 1.6 566.7 2.4 566.7 2.4 C 566.5 2.2 566.4 2.0 566.2 1.8 C 565.8 1.8 565.4 1.7 564.9 1.6 C 564.9 1.6 564.0 1.7 564.0 1.8 C 564.0 2.0 564.1 2.7 564.0 2.9 C 564.0 3.0 563.4 3.3 563.4 3.0 C 563.3 2.8 562.9 2.2 562.9 2.2 C 562.9 2.2 562.5 1.7 562.2 1.7 C 561.9 1.6 561.4 1.9 561.3 2.0 C 561.2 2.2 560.7 2.7 560.7 2.7 C 560.6 2.5 560.5 2.2 560.3 2.0 C 560.3 2.0 559.6 2.3 558.8 1.7 C 558.8 1.7 558.8 1.7 558.8 1.7 Z M 578.8 1.6 C 577.8 1.6 578.5 4.3 578.9 4.8 C 579.3 5.4 580.0 5.0 580.7 5.1 C 581.3 5.2 581.1 4.4 581.5 4.1 C 581.9 3.9 581.8 4.4 581.9 4.8 C 582.1 5.2 583.2 4.9 583.8 4.9 C 584.4 5.0 585.1 4.1 585.6 4.0 C 586.1 4.0 585.2 3.6 586.1 3.6 C 587.0 3.7 586.5 4.1 585.5 4.4 C 584.4 4.7 585.9 4.9 586.5 5.0 C 587.1 5.1 588.0 4.7 588.5 4.8 C 588.9 4.8 588.4 4.1 589.0 4.2 C 589.7 4.2 589.3 4.9 590.0 5.0 C 590.7 5.1 590.6 4.4 590.9 4.3 C 591.3 4.1 591.2 4.5 591.5 4.6 C 591.8 4.6 592.2 4.8 592.9 4.7 C 593.5 4.5 593.3 4.3 593.6 4.3 C 593.9 4.2 594.4 4.2 594.4 4.2 C 594.4 4.5 594.5 4.7 594.5 4.9 C 594.5 4.9 595.7 5.0 596.0 5.0 C 596.3 5.1 597.1 4.8 596.9 4.6 C 596.7 4.5 597.5 4.1 597.7 4.1 C 597.8 4.2 598.4 4.6 598.8 4.7 C 599.2 4.9 599.1 3.2 599.1 2.9 C 599.1 2.7 599.3 1.7 599.0 1.6 C 598.6 1.6 598.3 1.9 598.4 1.6 C 598.5 1.4 597.4 1.6 597.1 1.6 C 596.9 1.6 596.5 2.3 596.5 2.3 C 596.5 2.3 596.2 2.8 595.8 2.8 C 595.3 2.8 595.2 1.7 595.2 1.7 C 595.2 1.7 594.6 1.6 594.0 1.6 C 593.4 1.6 592.8 2.5 592.7 2.7 C 592.6 2.9 592.6 2.1 592.2 2.0 C 591.8 1.9 591.2 1.6 591.0 1.7 C 590.9 1.7 590.6 2.3 590.6 2.3 C 590.6 2.3 589.8 2.6 589.7 2.6 C 589.5 2.6 589.8 1.8 589.8 1.8 C 589.8 1.8 588.2 1.6 587.9 1.5 C 587.6 1.5 587.1 1.7 586.9 1.7 C 586.6 1.8 586.3 2.8 586.0 2.7 C 585.6 2.6 586.3 2.0 586.0 1.9 C 585.6 1.9 585.0 1.7 584.8 1.7 C 584.7 1.7 584.4 2.0 584.1 2.0 C 583.9 2.1 583.5 2.8 583.0 2.8 C 582.5 2.8 582.3 2.4 582.1 2.3 C 582.0 2.2 581.9 1.6 581.5 1.5 C 581.1 1.5 581.4 1.9 581.1 1.9 C 580.7 1.9 580.7 2.4 580.4 2.3 C 580.0 2.2 580.2 1.4 579.9 1.6 C 579.7 1.6 579.9 1.6 578.8 1.6 C 578.8 1.6 578.8 1.6 578.8 1.6 Z M 599.8 1.7 C 599.3 1.4 598.9 1.8 599.0 2.2 C 599.0 2.6 599.2 3.5 599.0 3.8 C 598.8 4.1 598.3 4.8 599.1 4.9 C 600.0 5.1 600.2 4.8 600.2 4.6 C 600.2 4.3 600.3 3.3 600.6 3.4 C 600.8 3.5 601.0 3.8 601.1 3.9 C 601.2 4.1 601.5 5.0 601.9 4.9 C 602.3 4.7 602.7 4.5 602.7 4.5 C 602.9 4.5 603.1 4.4 603.4 4.4 C 603.4 4.4 603.9 5.0 604.4 4.9 C 604.9 4.7 605.4 4.7 605.7 4.8 C 606.1 4.8 606.4 4.7 606.5 4.5 C 606.5 4.3 607.0 3.5 607.0 3.5 C 607.0 3.5 607.5 3.2 607.7 3.4 C 608.0 3.5 608.0 4.0 608.0 4.1 C 607.9 4.3 608.0 4.8 608.3 4.9 C 608.7 5.0 610.2 5.4 610.4 5.2 C 610.6 4.9 610.6 4.5 610.8 4.4 C 610.9 4.3 611.9 4.3 612.0 4.5 C 612.1 4.7 612.0 5.3 612.3 5.2 C 612.6 5.2 613.2 5.3 613.2 5.2 C 613.2 5.0 613.4 4.9 613.4 4.6 C 613.4 4.3 614.0 4.1 614.1 4.0 C 614.2 3.8 614.7 3.8 614.7 3.8 C 614.9 3.9 615.1 4.1 615.3 4.2 C 615.3 4.2 614.9 4.7 614.7 4.8 C 614.6 4.9 614.9 5.3 615.0 5.3 C 615.2 5.3 616.3 5.3 616.3 5.3 C 616.3 4.9 616.3 4.5 616.4 4.1 C 616.6 4.0 616.9 3.9 617.2 3.9 C 617.2 3.9 617.1 5.2 617.6 5.2 C 618.1 5.2 618.7 5.2 618.7 5.2 C 618.7 5.2 619.3 4.7 619.4 4.7 C 619.5 4.6 619.6 3.4 619.6 3.4 C 619.6 2.9 619.5 2.5 619.5 2.0 C 619.5 2.0 618.8 1.6 618.5 1.7 C 618.2 1.9 618.4 2.4 618.4 2.7 C 618.3 2.9 617.8 3.1 617.8 3.1 C 617.6 2.9 617.3 2.6 617.1 2.3 C 617.1 2.3 616.9 2.1 616.7 1.9 C 616.4 1.6 615.6 1.5 615.4 1.6 C 615.1 1.7 614.9 2.0 614.6 2.3 C 614.3 2.5 614.4 2.9 614.1 2.6 C 613.7 2.3 613.5 1.9 613.4 1.9 C 613.2 1.9 612.4 2.3 612.4 2.3 C 612.2 2.5 612.0 2.6 611.8 2.7 C 611.8 2.7 611.2 2.9 611.2 2.6 C 611.1 2.3 609.9 2.7 609.9 2.7 C 609.9 2.7 610.1 1.8 609.8 1.7 C 609.5 1.6 609.0 1.4 608.6 1.5 C 608.1 1.6 607.7 2.4 607.7 2.4 C 607.6 2.2 607.5 2.0 607.3 1.8 C 606.9 1.8 606.5 1.7 606.0 1.6 C 606.0 1.6 605.0 1.7 605.0 1.8 C 605.0 2.0 605.1 2.7 605.1 2.9 C 605.0 3.0 604.5 3.3 604.5 3.0 C 604.4 2.8 603.9 2.2 603.9 2.2 C 603.9 2.2 603.5 1.7 603.2 1.7 C 602.9 1.6 602.5 1.9 602.4 2.0 C 602.3 2.2 601.8 2.7 601.8 2.7 C 601.7 2.5 601.5 2.2 601.4 2.0 C 601.4 2.0 600.6 2.3 599.8 1.7 C 599.8 1.7 599.8 1.7 599.8 1.7 Z M 619.9 1.6 C 618.9 1.6 619.6 4.3 620.0 4.8 C 620.4 5.4 621.1 5.0 621.7 5.1 C 622.4 5.2 622.2 4.4 622.6 4.1 C 623.0 3.9 622.9 4.4 623.0 4.8 C 623.2 5.2 624.2 4.9 624.9 4.9 C 625.5 5.0 626.2 4.1 626.7 4.0 C 627.2 4.0 626.2 3.6 627.2 3.6 C 628.1 3.7 627.6 4.1 626.6 4.4 C 625.5 4.7 627.0 4.9 627.6 5.0 C 628.1 5.1 629.1 4.7 629.5 4.8 C 630.0 4.8 629.4 4.1 630.1 4.2 C 630.8 4.2 630.4 4.9 631.1 5.0 C 631.8 5.1 631.7 4.4 632.0 4.3 C 632.4 4.1 632.3 4.5 632.6 4.6 C 632.9 4.6 633.3 4.8 633.9 4.7 C 634.6 4.5 634.4 4.3 634.7 4.3 C 635.0 4.2 635.5 4.2 635.5 4.2 C 635.5 4.5 635.6 4.7 635.6 4.9 C 635.6 4.9 636.7 5.0 637.1 5.0 C 637.4 5.1 638.2 4.8 638.0 4.6 C 637.8 4.5 638.6 4.1 638.7 4.1 C 638.9 4.2 639.5 4.6 639.9 4.7 C 640.3 4.9 640.2 3.2 640.2 2.9 C 640.2 2.7 640.4 1.7 640.1 1.6 C 639.7 1.6 639.4 1.9 639.5 1.6 C 639.5 1.4 638.5 1.6 638.2 1.6 C 637.9 1.6 637.6 2.3 637.6 2.3 C 637.6 2.3 637.3 2.8 636.9 2.8 C 636.4 2.8 636.2 1.7 636.2 1.7 C 636.2 1.7 635.7 1.6 635.1 1.6 C 634.5 1.6 633.9 2.5 633.8 2.7 C 633.7 2.9 633.7 2.1 633.3 2.0 C 632.9 1.9 632.3 1.6 632.1 1.7 C 631.9 1.7 631.7 2.3 631.7 2.3 C 631.7 2.3 630.9 2.6 630.7 2.6 C 630.6 2.6 630.9 1.8 630.9 1.8 C 630.9 1.8 629.3 1.6 629.0 1.5 C 628.7 1.5 628.2 1.7 627.9 1.7 C 627.7 1.8 627.4 2.8 627.0 2.7 C 626.7 2.6 627.4 2.0 627.0 1.9 C 626.7 1.9 626.1 1.7 625.9 1.7 C 625.7 1.7 625.5 2.0 625.2 2.0 C 624.9 2.1 624.5 2.8 624.1 2.8 C 623.6 2.8 623.4 2.4 623.2 2.3 C 623.1 2.2 622.9 1.6 622.6 1.5 C 622.2 1.5 622.5 1.9 622.1 1.9 C 621.8 1.9 621.8 2.4 621.5 2.3 C 621.1 2.2 621.3 1.4 620.9 1.6 C 620.8 1.6 620.9 1.6 619.9 1.6 C 619.9 1.6 619.9 1.6 619.9 1.6 Z M 642.3 2.4 C 642.0 2.5 641.9 2.0 641.3 1.9 C 640.7 1.7 640.0 1.7 640.2 2.0 C 640.3 2.3 640.5 2.5 640.2 2.9 C 639.9 3.3 639.6 4.0 640.0 4.3 C 640.4 4.5 641.9 5.3 642.4 4.9 C 642.9 4.5 643.1 4.4 643.5 4.1 C 643.8 3.9 643.6 4.7 643.6 4.7 C 643.6 4.7 644.4 4.8 645.0 4.8 C 645.7 4.9 646.4 4.9 646.5 4.8 C 646.5 4.6 646.8 4.4 646.8 4.4 C 646.8 4.4 647.1 4.7 647.6 4.8 C 648.0 4.9 647.9 4.7 647.8 4.5 C 647.7 4.3 647.2 3.8 647.4 3.8 C 647.6 3.8 648.2 4.6 648.5 4.7 C 648.8 4.7 649.6 4.7 649.6 4.7 C 649.6 4.7 649.5 4.2 649.6 4.1 C 649.6 4.0 650.3 4.0 650.4 4.1 C 650.4 4.3 650.3 4.8 650.7 4.8 C 651.9 4.9 651.7 4.0 651.8 4.0 C 651.9 3.9 651.9 4.6 652.2 4.7 C 652.4 4.8 654.7 4.7 654.8 4.6 C 654.9 4.4 655.7 5.0 656.0 4.6 C 656.3 4.2 656.4 4.0 656.5 3.9 C 656.6 3.8 657.0 3.1 657.2 3.4 C 657.4 3.7 656.5 4.4 656.8 4.7 C 657.0 4.9 658.4 4.9 658.7 4.7 C 659.0 4.4 659.1 3.8 659.3 3.8 C 659.5 3.8 660.3 4.6 660.4 4.5 C 660.4 4.3 660.5 3.6 660.5 3.5 C 660.5 3.4 660.8 2.1 660.6 1.9 C 660.5 1.8 659.6 1.3 659.7 1.7 C 659.8 2.0 660.0 2.5 659.7 2.6 C 659.4 2.8 659.3 2.8 659.2 2.7 C 659.1 2.5 659.3 2.4 658.8 2.1 C 658.3 1.9 658.6 1.6 658.1 1.7 C 657.6 1.7 657.2 1.8 657.3 2.0 C 657.3 2.3 656.8 2.7 656.5 2.7 C 656.2 2.7 656.7 2.0 655.7 1.8 C 654.6 1.6 654.0 1.5 653.7 1.7 C 653.4 2.0 653.3 2.7 652.8 2.4 C 652.3 2.1 652.6 1.9 651.9 1.9 C 651.2 1.9 651.0 2.5 650.5 2.5 C 650.1 2.5 650.0 2.5 650.0 2.5 C 650.0 2.5 650.2 1.7 649.3 1.6 C 648.3 1.6 648.1 1.5 648.3 2.1 C 648.5 2.7 647.8 2.8 647.7 2.4 C 647.7 2.0 647.1 1.7 646.8 1.7 C 646.5 1.6 646.4 2.6 646.2 2.7 C 646.1 2.7 645.7 2.6 645.9 2.3 C 646.0 2.0 645.6 1.9 645.3 1.8 C 645.0 1.6 644.2 1.7 644.2 1.9 C 644.2 2.1 644.6 2.8 644.0 2.4 C 643.4 2.1 643.3 1.6 642.7 1.6 C 642.1 1.6 642.6 2.3 642.3 2.4 C 642.3 2.4 642.3 2.4 642.3 2.4 Z M 661.4 1.7 C 661.0 1.4 660.5 1.8 660.6 2.2 C 660.6 2.6 660.8 3.5 660.6 3.8 C 660.5 4.1 659.9 4.8 660.7 4.9 C 661.6 5.1 661.8 4.8 661.8 4.6 C 661.8 4.3 662.0 3.3 662.2 3.4 C 662.4 3.5 662.6 3.8 662.7 3.9 C 662.8 4.1 663.1 5.0 663.5 4.9 C 663.9 4.7 664.3 4.5 664.3 4.5 C 664.5 4.5 664.8 4.4 665.0 4.4 C 665.0 4.4 665.5 5.0 666.0 4.9 C 666.5 4.7 667.0 4.7 667.3 4.8 C 667.7 4.8 668.0 4.7 668.1 4.5 C 668.1 4.3 668.6 3.5 668.6 3.5 C 668.6 3.5 669.1 3.2 669.4 3.4 C 669.6 3.5 669.6 4.0 669.6 4.1 C 669.5 4.3 669.6 4.8 669.9 4.9 C 670.3 5.0 671.8 5.4 672.0 5.2 C 672.3 4.9 672.2 4.5 672.4 4.4 C 672.5 4.3 673.5 4.3 673.6 4.5 C 673.7 4.7 673.6 5.3 673.9 5.2 C 674.2 5.2 674.8 5.3 674.8 5.2 C 674.8 5.0 675.0 4.9 675.0 4.6 C 675.0 4.3 675.6 4.1 675.7 4.0 C 675.8 3.8 676.3 3.8 676.3 3.8 C 676.5 3.9 676.7 4.1 676.9 4.2 C 676.9 4.2 676.5 4.7 676.4 4.8 C 676.2 4.9 676.5 5.3 676.6 5.3 C 676.8 5.3 677.9 5.3 677.9 5.3 C 677.9 4.9 678.0 4.5 678.0 4.1 C 678.2 4.0 678.5 3.9 678.8 3.9 C 678.8 3.9 678.7 5.2 679.2 5.2 C 679.7 5.2 680.3 5.2 680.3 5.2 C 680.3 5.2 680.9 4.7 681.0 4.7 C 681.2 4.6 681.2 3.4 681.2 3.4 C 681.2 2.9 681.1 2.5 681.1 2.0 C 681.1 2.0 680.5 1.6 680.1 1.7 C 679.8 1.9 680.1 2.4 680.0 2.7 C 679.9 2.9 679.4 3.1 679.4 3.1 C 679.2 2.9 678.9 2.6 678.7 2.3 C 678.7 2.3 678.5 2.1 678.3 1.9 C 678.0 1.6 677.2 1.5 677.0 1.6 C 676.8 1.7 676.5 2.0 676.2 2.3 C 675.9 2.5 676.0 2.9 675.7 2.6 C 675.3 2.3 675.1 1.9 675.0 1.9 C 674.8 1.9 674.0 2.3 674.0 2.3 C 673.8 2.5 673.6 2.6 673.4 2.7 C 673.4 2.7 672.9 2.9 672.8 2.6 C 672.7 2.3 671.6 2.7 671.6 2.7 C 671.6 2.7 671.7 1.8 671.4 1.7 C 671.1 1.6 670.6 1.4 670.2 1.5 C 669.7 1.6 669.4 2.4 669.4 2.4 C 669.2 2.2 669.1 2.0 668.9 1.8 C 668.5 1.8 668.1 1.7 667.6 1.6 C 667.6 1.6 666.6 1.7 666.6 1.8 C 666.6 2.0 666.8 2.7 666.7 2.9 C 666.6 3.0 666.1 3.3 666.1 3.0 C 666.0 2.8 665.5 2.2 665.5 2.2 C 665.5 2.2 665.1 1.7 664.8 1.7 C 664.6 1.6 664.1 1.9 664.0 2.0 C 663.9 2.2 663.4 2.7 663.4 2.7 C 663.3 2.5 663.2 2.2 663.0 2.0 C 663.0 2.0 662.2 2.3 661.4 1.7 C 661.4 1.7 661.4 1.7 661.4 1.7 Z M 681.5 1.6 C 680.5 1.6 681.2 4.3 681.6 4.8 C 682.0 5.4 682.7 5.0 683.3 5.1 C 684.0 5.2 683.8 4.4 684.2 4.1 C 684.6 3.9 684.5 4.4 684.6 4.8 C 684.8 5.2 685.9 4.9 686.5 4.9 C 687.1 5.0 687.8 4.1 688.3 4.0 C 688.8 4.0 687.9 3.6 688.8 3.6 C 689.7 3.7 689.2 4.1 688.2 4.4 C 687.1 4.7 688.6 4.9 689.2 5.0 C 689.7 5.1 690.7 4.7 691.2 4.8 C 691.6 4.8 691.0 4.1 691.7 4.2 C 692.4 4.2 692.0 4.9 692.7 5.0 C 693.4 5.1 693.3 4.4 693.6 4.3 C 694.0 4.1 693.9 4.5 694.2 4.6 C 694.5 4.6 694.9 4.8 695.6 4.7 C 696.2 4.5 696.0 4.3 696.3 4.3 C 696.6 4.2 697.1 4.2 697.1 4.2 C 697.1 4.5 697.2 4.7 697.2 4.9 C 697.2 4.9 698.4 5.0 698.7 5.0 C 699.0 5.1 699.8 4.8 699.6 4.6 C 699.4 4.5 700.2 4.1 700.3 4.1 C 700.5 4.2 701.1 4.6 701.5 4.7 C 701.9 4.9 701.8 3.2 701.8 2.9 C 701.8 2.7 702.0 1.7 701.7 1.6 C 701.3 1.6 701.0 1.9 701.1 1.6 C 701.1 1.4 700.1 1.6 699.8 1.6 C 699.5 1.6 699.2 2.3 699.2 2.3 C 699.2 2.3 698.9 2.8 698.5 2.8 C 698.0 2.8 697.8 1.7 697.8 1.7 C 697.8 1.7 697.3 1.6 696.7 1.6 C 696.1 1.6 695.5 2.5 695.4 2.7 C 695.3 2.9 695.3 2.1 694.9 2.0 C 694.5 1.9 693.9 1.6 693.7 1.7 C 693.6 1.7 693.3 2.3 693.3 2.3 C 693.3 2.3 692.5 2.6 692.4 2.6 C 692.2 2.6 692.5 1.8 692.5 1.8 C 692.5 1.8 690.9 1.6 690.6 1.5 C 690.3 1.5 689.8 1.7 689.6 1.7 C 689.3 1.8 689.0 2.8 688.6 2.7 C 688.3 2.6 689.0 2.0 688.6 1.9 C 688.3 1.9 687.7 1.7 687.5 1.7 C 687.3 1.7 687.1 2.0 686.8 2.0 C 686.5 2.1 686.1 2.8 685.7 2.8 C 685.2 2.8 685.0 2.4 684.8 2.3 C 684.7 2.2 684.5 1.6 684.2 1.5 C 683.8 1.5 684.1 1.9 683.7 1.9 C 683.4 1.9 683.4 2.4 683.1 2.3 C 682.7 2.2 682.9 1.4 682.5 1.6 C 682.4 1.6 682.5 1.6 681.5 1.6 C 681.5 1.6 681.5 1.6 681.5 1.6 Z M 702.5 1.7 C 702.0 1.4 701.6 1.8 701.6 2.2 C 701.7 2.6 701.9 3.5 701.7 3.8 C 701.5 4.1 700.9 4.8 701.8 4.9 C 702.7 5.1 702.9 4.8 702.9 4.6 C 702.9 4.3 703.0 3.3 703.3 3.4 C 703.5 3.5 703.7 3.8 703.8 3.9 C 703.8 4.1 704.2 5.0 704.6 4.9 C 705.0 4.7 705.4 4.5 705.4 4.5 C 705.6 4.5 705.8 4.4 706.0 4.4 C 706.0 4.4 706.6 5.0 707.1 4.9 C 707.5 4.7 708.1 4.7 708.4 4.8 C 708.8 4.8 709.1 4.7 709.2 4.5 C 709.2 4.3 709.7 3.5 709.7 3.5 C 709.7 3.5 710.2 3.2 710.4 3.4 C 710.7 3.5 710.7 4.0 710.7 4.1 C 710.6 4.3 710.7 4.8 711.0 4.9 C 711.4 5.0 712.9 5.4 713.1 5.2 C 713.3 4.9 713.3 4.5 713.4 4.4 C 713.6 4.3 714.6 4.3 714.7 4.5 C 714.8 4.7 714.7 5.3 715.0 5.2 C 715.3 5.2 715.9 5.3 715.9 5.2 C 715.9 5.0 716.1 4.9 716.1 4.6 C 716.1 4.3 716.7 4.1 716.8 4.0 C 716.9 3.8 717.4 3.8 717.4 3.8 C 717.6 3.9 717.7 4.1 717.9 4.2 C 717.9 4.2 717.6 4.7 717.4 4.8 C 717.3 4.9 717.5 5.3 717.7 5.3 C 717.9 5.3 719.0 5.3 719.0 5.3 C 719.0 4.9 719.0 4.5 719.0 4.1 C 719.3 4.0 719.6 3.9 719.9 3.9 C 719.9 3.9 719.7 5.2 720.3 5.2 C 720.8 5.2 721.4 5.2 721.4 5.2 C 721.4 5.2 722.0 4.7 722.1 4.7 C 722.2 4.6 722.3 3.4 722.3 3.4 C 722.2 2.9 722.2 2.5 722.2 2.0 C 722.2 2.0 721.5 1.6 721.2 1.7 C 720.8 1.9 721.1 2.4 721.1 2.7 C 721.0 2.9 720.5 3.1 720.5 3.1 C 720.3 2.9 720.0 2.6 719.8 2.3 C 719.8 2.3 719.6 2.1 719.3 1.9 C 719.1 1.6 718.3 1.5 718.1 1.6 C 717.8 1.7 717.6 2.0 717.3 2.3 C 717.0 2.5 717.1 2.9 716.7 2.6 C 716.4 2.3 716.2 1.9 716.0 1.9 C 715.9 1.9 715.1 2.3 715.1 2.3 C 714.9 2.5 714.7 2.6 714.5 2.7 C 714.5 2.7 713.9 2.9 713.8 2.6 C 713.8 2.3 712.6 2.7 712.6 2.7 C 712.6 2.7 712.7 1.8 712.5 1.7 C 712.2 1.6 711.7 1.4 711.2 1.5 C 710.8 1.6 710.4 2.4 710.4 2.4 C 710.3 2.2 710.1 2.0 710.0 1.8 C 709.6 1.8 709.1 1.7 708.7 1.6 C 708.7 1.6 707.7 1.7 707.7 1.8 C 707.7 2.0 707.8 2.7 707.8 2.9 C 707.7 3.0 707.2 3.3 707.1 3.0 C 707.1 2.8 706.6 2.2 706.6 2.2 C 706.6 2.2 706.2 1.7 705.9 1.7 C 705.6 1.6 705.2 1.9 705.1 2.0 C 704.9 2.2 704.5 2.7 704.5 2.7 C 704.4 2.5 704.2 2.2 704.1 2.0 C 704.1 2.0 703.3 2.3 702.5 1.7 C 702.5 1.7 702.5 1.7 702.5 1.7 Z M 722.6 1.6 C 721.6 1.6 722.2 4.3 722.6 4.8 C 723.0 5.4 723.7 5.0 724.4 5.1 C 725.1 5.2 724.9 4.4 725.3 4.1 C 725.7 3.9 725.5 4.4 725.7 4.8 C 725.9 5.2 726.9 4.9 727.6 4.9 C 728.2 5.0 728.9 4.1 729.4 4.0 C 729.9 4.0 728.9 3.6 729.8 3.6 C 730.8 3.7 730.3 4.1 729.2 4.4 C 728.2 4.7 729.7 4.9 730.2 5.0 C 730.8 5.1 731.8 4.7 732.2 4.8 C 732.7 4.8 732.1 4.1 732.8 4.2 C 733.4 4.2 733.1 4.9 733.8 5.0 C 734.4 5.1 734.4 4.4 734.7 4.3 C 735.0 4.1 735.0 4.5 735.3 4.6 C 735.5 4.6 736.0 4.8 736.6 4.7 C 737.3 4.5 737.1 4.3 737.4 4.3 C 737.7 4.2 738.2 4.2 738.2 4.2 C 738.2 4.5 738.2 4.7 738.3 4.9 C 738.3 4.9 739.4 5.0 739.8 5.0 C 740.1 5.1 740.9 4.8 740.7 4.6 C 740.5 4.5 741.2 4.1 741.4 4.1 C 741.6 4.2 742.2 4.6 742.6 4.7 C 743.0 4.9 742.8 3.2 742.8 2.9 C 742.8 2.7 743.1 1.7 742.7 1.6 C 742.4 1.6 742.1 1.9 742.2 1.6 C 742.2 1.4 741.2 1.6 740.9 1.6 C 740.6 1.6 740.3 2.3 740.3 2.3 C 740.3 2.3 740.0 2.8 739.5 2.8 C 739.1 2.8 738.9 1.7 738.9 1.7 C 738.9 1.7 738.3 1.6 737.8 1.6 C 737.2 1.6 736.6 2.5 736.5 2.7 C 736.3 2.9 736.4 2.1 736.0 2.0 C 735.6 1.9 735.0 1.6 734.8 1.7 C 734.6 1.7 734.3 2.3 734.3 2.3 C 734.3 2.3 733.6 2.6 733.4 2.6 C 733.3 2.6 733.6 1.8 733.6 1.8 C 733.6 1.8 732.0 1.6 731.7 1.5 C 731.4 1.5 730.9 1.7 730.6 1.7 C 730.4 1.8 730.1 2.8 729.7 2.7 C 729.4 2.6 730.1 2.0 729.7 1.9 C 729.4 1.9 728.8 1.7 728.6 1.7 C 728.4 1.7 728.2 2.0 727.9 2.0 C 727.6 2.1 727.2 2.8 726.8 2.8 C 726.3 2.8 726.1 2.4 725.9 2.3 C 725.7 2.2 725.6 1.6 725.3 1.5 C 724.9 1.5 725.2 1.9 724.8 1.9 C 724.5 1.9 724.5 2.4 724.1 2.3 C 723.8 2.2 724.0 1.4 723.6 1.6 C 723.4 1.6 723.6 1.6 722.6 1.6 C 722.6 1.6 722.6 1.6 722.6 1.6 Z M 744.9 2.4 C 744.7 2.5 744.5 2.0 744.0 1.9 C 743.4 1.7 742.7 1.7 742.8 2.0 C 743.0 2.3 743.2 2.5 742.9 2.9 C 742.6 3.3 742.2 4.0 742.6 4.3 C 743.0 4.5 744.6 5.3 745.1 4.9 C 745.6 4.5 745.8 4.4 746.1 4.1 C 746.5 3.9 746.2 4.7 746.2 4.7 C 746.2 4.7 747.1 4.8 747.7 4.8 C 748.4 4.9 749.1 4.9 749.1 4.8 C 749.2 4.6 749.5 4.4 749.5 4.4 C 749.5 4.4 749.8 4.7 750.2 4.8 C 750.7 4.9 750.5 4.7 750.5 4.5 C 750.4 4.3 749.8 3.8 750.0 3.8 C 750.2 3.8 750.8 4.6 751.2 4.7 C 751.5 4.7 752.2 4.7 752.2 4.7 C 752.2 4.7 752.2 4.2 752.2 4.1 C 752.3 4.0 753.0 4.0 753.1 4.1 C 753.1 4.3 753.0 4.8 753.4 4.8 C 754.5 4.9 754.4 4.0 754.5 4.0 C 754.6 3.9 754.6 4.6 754.9 4.7 C 755.1 4.8 757.4 4.7 757.5 4.6 C 757.6 4.4 758.3 5.0 758.7 4.6 C 759.0 4.2 759.1 4.0 759.2 3.9 C 759.2 3.8 759.7 3.1 759.9 3.4 C 760.1 3.7 759.2 4.4 759.5 4.7 C 759.7 4.9 761.1 4.9 761.4 4.7 C 761.7 4.4 761.8 3.8 762.0 3.8 C 762.2 3.8 763.0 4.6 763.1 4.5 C 763.1 4.3 763.2 3.6 763.2 3.5 C 763.2 3.4 763.5 2.1 763.3 1.9 C 763.1 1.8 762.3 1.3 762.4 1.7 C 762.5 2.0 762.7 2.5 762.4 2.6 C 762.1 2.8 762.0 2.8 761.9 2.7 C 761.8 2.5 762.0 2.4 761.5 2.1 C 761.0 1.9 761.3 1.6 760.8 1.7 C 760.3 1.7 759.9 1.8 760.0 2.0 C 760.0 2.3 759.5 2.7 759.2 2.7 C 758.8 2.7 759.4 2.0 758.4 1.8 C 757.3 1.6 756.6 1.5 756.3 1.7 C 756.0 2.0 756.0 2.7 755.5 2.4 C 755.0 2.1 755.3 1.9 754.6 1.9 C 753.9 1.9 753.7 2.5 753.2 2.5 C 752.8 2.5 752.7 2.5 752.7 2.5 C 752.7 2.5 752.9 1.7 751.9 1.6 C 751.0 1.6 750.8 1.5 751.0 2.1 C 751.2 2.7 750.5 2.8 750.4 2.4 C 750.4 2.0 749.8 1.7 749.5 1.7 C 749.1 1.6 749.1 2.6 748.9 2.7 C 748.8 2.7 748.4 2.6 748.5 2.3 C 748.7 2.0 748.3 1.9 748.0 1.8 C 747.7 1.6 746.8 1.7 746.9 1.9 C 746.9 2.1 747.3 2.8 746.7 2.4 C 746.1 2.1 745.9 1.6 745.4 1.6 C 744.8 1.6 745.3 2.3 744.9 2.4 C 744.9 2.4 744.9 2.4 744.9 2.4 Z M 764.1 1.7 C 763.6 1.4 763.2 1.8 763.3 2.2 C 763.3 2.6 763.5 3.5 763.3 3.8 C 763.1 4.1 762.6 4.8 763.4 4.9 C 764.3 5.1 764.5 4.8 764.5 4.6 C 764.5 4.3 764.6 3.3 764.9 3.4 C 765.1 3.5 765.3 3.8 765.4 3.9 C 765.5 4.1 765.8 5.0 766.2 4.9 C 766.6 4.7 767.0 4.5 767.0 4.5 C 767.2 4.5 767.4 4.4 767.7 4.4 C 767.7 4.4 768.2 5.0 768.7 4.9 C 769.2 4.7 769.7 4.7 770.0 4.8 C 770.4 4.8 770.7 4.7 770.8 4.5 C 770.8 4.3 771.3 3.5 771.3 3.5 C 771.3 3.5 771.8 3.2 772.0 3.4 C 772.3 3.5 772.3 4.0 772.3 4.1 C 772.2 4.3 772.3 4.8 772.6 4.9 C 773.0 5.0 774.5 5.4 774.7 5.2 C 774.9 4.9 774.9 4.5 775.0 4.4 C 775.2 4.3 776.2 4.3 776.3 4.5 C 776.4 4.7 776.3 5.3 776.6 5.2 C 776.9 5.2 777.5 5.3 777.5 5.2 C 777.5 5.0 777.7 4.9 777.7 4.6 C 777.7 4.3 778.3 4.1 778.4 4.0 C 778.5 3.8 779.0 3.8 779.0 3.8 C 779.2 3.9 779.4 4.1 779.6 4.2 C 779.6 4.2 779.2 4.7 779.0 4.8 C 778.9 4.9 779.1 5.3 779.3 5.3 C 779.5 5.3 780.6 5.3 780.6 5.3 C 780.6 4.9 780.6 4.5 780.7 4.1 C 780.9 4.0 781.2 3.9 781.5 3.9 C 781.5 3.9 781.3 5.2 781.9 5.2 C 782.4 5.2 783.0 5.2 783.0 5.2 C 783.0 5.2 783.6 4.7 783.7 4.7 C 783.8 4.6 783.9 3.4 783.9 3.4 C 783.9 2.9 783.8 2.5 783.8 2.0 C 783.8 2.0 783.1 1.6 782.8 1.7 C 782.4 1.9 782.7 2.4 782.7 2.7 C 782.6 2.9 782.1 3.1 782.1 3.1 C 781.9 2.9 781.6 2.6 781.4 2.3 C 781.4 2.3 781.2 2.1 780.9 1.9 C 780.7 1.6 779.9 1.5 779.7 1.6 C 779.4 1.7 779.2 2.0 778.9 2.3 C 778.6 2.5 778.7 2.9 778.3 2.6 C 778.0 2.3 777.8 1.9 777.6 1.9 C 777.5 1.9 776.7 2.3 776.7 2.3 C 776.5 2.5 776.3 2.6 776.1 2.7 C 776.1 2.7 775.5 2.9 775.5 2.6 C 775.4 2.3 774.2 2.7 774.2 2.7 C 774.2 2.7 774.4 1.8 774.1 1.7 C 773.8 1.6 773.3 1.4 772.8 1.5 C 772.4 1.6 772.0 2.4 772.0 2.4 C 771.9 2.2 771.8 2.0 771.6 1.8 C 771.2 1.8 770.7 1.7 770.3 1.6 C 770.3 1.6 769.3 1.7 769.3 1.8 C 769.3 2.0 769.4 2.7 769.4 2.9 C 769.3 3.0 768.8 3.3 768.7 3.0 C 768.7 2.8 768.2 2.2 768.2 2.2 C 768.2 2.2 767.8 1.7 767.5 1.7 C 767.2 1.6 766.8 1.9 766.7 2.0 C 766.5 2.2 766.1 2.7 766.1 2.7 C 766.0 2.5 765.8 2.2 765.7 2.0 C 765.7 2.0 764.9 2.3 764.1 1.7 C 764.1 1.7 764.1 1.7 764.1 1.7 Z M 786.0 2.4 C 785.8 2.5 785.6 2.0 785.0 1.9 C 784.5 1.7 783.8 1.7 783.9 2.0 C 784.0 2.3 784.3 2.5 784.0 2.9 C 783.7 3.3 783.3 4.0 783.7 4.3 C 784.1 4.5 785.7 5.3 786.2 4.9 C 786.7 4.5 786.8 4.4 787.2 4.1 C 787.6 3.9 787.3 4.7 787.3 4.7 C 787.3 4.7 788.2 4.8 788.8 4.8 C 789.4 4.9 790.2 4.9 790.2 4.8 C 790.3 4.6 790.5 4.4 790.5 4.4 C 790.5 4.4 790.9 4.7 791.3 4.8 C 791.8 4.9 791.6 4.7 791.5 4.5 C 791.5 4.3 790.9 3.8 791.1 3.8 C 791.3 3.8 791.9 4.6 792.3 4.7 C 792.6 4.7 793.3 4.7 793.3 4.7 C 793.3 4.7 793.2 4.2 793.3 4.1 C 793.4 4.0 794.1 4.0 794.1 4.1 C 794.2 4.3 794.1 4.8 794.5 4.8 C 795.6 4.9 795.5 4.0 795.6 4.0 C 795.7 3.9 795.7 4.6 795.9 4.7 C 796.2 4.8 798.4 4.7 798.6 4.6 C 798.7 4.4 799.4 5.0 799.7 4.6 C 800.1 4.2 800.2 4.0 800.2 3.9 C 800.3 3.8 800.7 3.1 800.9 3.4 C 801.1 3.7 800.3 4.4 800.5 4.7 C 800.8 4.9 802.2 4.9 802.4 4.7 C 802.8 4.4 802.9 3.8 803.1 3.8 C 803.3 3.8 804.1 4.6 804.1 4.5 C 804.2 4.3 804.3 3.6 804.3 3.5 C 804.3 3.4 804.6 2.1 804.4 1.9 C 804.2 1.8 803.4 1.3 803.5 1.7 C 803.6 2.0 803.8 2.5 803.5 2.6 C 803.2 2.8 803.0 2.8 803.0 2.7 C 802.9 2.5 803.1 2.4 802.6 2.1 C 802.1 1.9 802.3 1.6 801.9 1.7 C 801.4 1.7 801.0 1.8 801.0 2.0 C 801.1 2.3 800.6 2.7 800.2 2.7 C 799.9 2.7 800.5 2.0 799.4 1.8 C 798.4 1.6 797.7 1.5 797.4 1.7 C 797.1 2.0 797.1 2.7 796.6 2.4 C 796.1 2.1 796.3 1.9 795.7 1.9 C 795.0 1.9 794.7 2.5 794.3 2.5 C 793.9 2.5 793.8 2.5 793.8 2.5 C 793.8 2.5 794.0 1.7 793.0 1.6 C 792.1 1.6 791.8 1.5 792.1 2.1 C 792.3 2.7 791.5 2.8 791.5 2.4 C 791.5 2.0 790.9 1.7 790.6 1.7 C 790.2 1.6 790.1 2.6 790.0 2.7 C 789.9 2.7 789.5 2.6 789.6 2.3 C 789.8 2.0 789.4 1.9 789.1 1.8 C 788.8 1.6 787.9 1.7 787.9 1.9 C 787.9 2.1 788.4 2.8 787.8 2.4 C 787.2 2.1 787.0 1.6 786.4 1.6 C 785.9 1.6 786.4 2.3 786.0 2.4 C 786.0 2.4 786.0 2.4 786.0 2.4 Z M 804.7 1.6 C 803.7 1.6 804.4 4.3 804.8 4.8 C 805.2 5.4 805.9 5.0 806.6 5.1 C 807.3 5.2 807.0 4.4 807.4 4.1 C 807.8 3.9 807.7 4.4 807.9 4.8 C 808.0 5.2 809.1 4.9 809.7 4.9 C 810.3 5.0 811.0 4.1 811.5 4.0 C 812.0 4.0 811.1 3.6 812.0 3.6 C 812.9 3.7 812.4 4.1 811.4 4.4 C 810.3 4.7 811.8 4.9 812.4 5.0 C 813.0 5.1 813.9 4.7 814.4 4.8 C 814.8 4.8 814.3 4.1 814.9 4.2 C 815.6 4.2 815.3 4.9 815.9 5.0 C 816.6 5.1 816.5 4.4 816.9 4.3 C 817.2 4.1 817.1 4.5 817.4 4.6 C 817.7 4.6 818.1 4.8 818.8 4.7 C 819.4 4.5 819.2 4.3 819.5 4.3 C 819.8 4.2 820.3 4.2 820.3 4.2 C 820.4 4.5 820.4 4.7 820.4 4.9 C 820.4 4.9 821.6 5.0 821.9 5.0 C 822.3 5.1 823.0 4.8 822.8 4.6 C 822.6 4.5 823.4 4.1 823.6 4.1 C 823.7 4.2 824.3 4.6 824.7 4.7 C 825.1 4.9 825.0 3.2 825.0 2.9 C 825.0 2.7 825.2 1.7 824.9 1.6 C 824.5 1.6 824.3 1.9 824.3 1.6 C 824.4 1.4 823.3 1.6 823.1 1.6 C 822.8 1.6 822.4 2.3 822.4 2.3 C 822.4 2.3 822.1 2.8 821.7 2.8 C 821.2 2.8 821.1 1.7 821.1 1.7 C 821.1 1.7 820.5 1.6 819.9 1.6 C 819.3 1.6 818.7 2.5 818.6 2.7 C 818.5 2.9 818.5 2.1 818.1 2.0 C 817.7 1.9 817.1 1.6 816.9 1.7 C 816.8 1.7 816.5 2.3 816.5 2.3 C 816.5 2.3 815.7 2.6 815.6 2.6 C 815.4 2.6 815.7 1.8 815.7 1.8 C 815.7 1.8 814.1 1.6 813.8 1.5 C 813.5 1.5 813.0 1.7 812.8 1.7 C 812.5 1.8 812.2 2.8 811.9 2.7 C 811.5 2.6 812.2 2.0 811.9 1.9 C 811.5 1.9 810.9 1.7 810.7 1.7 C 810.6 1.7 810.3 2.0 810.0 2.0 C 809.8 2.1 809.4 2.8 808.9 2.8 C 808.5 2.8 808.2 2.4 808.1 2.3 C 807.9 2.2 807.8 1.6 807.4 1.5 C 807.0 1.5 807.3 1.9 807.0 1.9 C 806.6 1.9 806.6 2.4 806.3 2.3 C 805.9 2.2 806.1 1.4 805.8 1.6 C 805.6 1.6 805.8 1.6 804.7 1.6 C 804.7 1.6 804.7 1.6 804.7 1.6 Z M 825.7 1.7 C 825.2 1.4 824.8 1.8 824.9 2.2 C 824.9 2.6 825.1 3.5 824.9 3.8 C 824.7 4.1 824.2 4.8 825.0 4.9 C 825.9 5.1 826.1 4.8 826.1 4.6 C 826.1 4.3 826.3 3.3 826.5 3.4 C 826.7 3.5 826.9 3.8 827.0 3.9 C 827.1 4.1 827.4 5.0 827.8 4.9 C 828.2 4.7 828.6 4.5 828.6 4.5 C 828.8 4.5 829.0 4.4 829.3 4.4 C 829.3 4.4 829.8 5.0 830.3 4.9 C 830.8 4.7 831.3 4.7 831.6 4.8 C 832.0 4.8 832.3 4.7 832.4 4.5 C 832.4 4.3 832.9 3.5 832.9 3.5 C 832.9 3.5 833.4 3.2 833.6 3.4 C 833.9 3.5 833.9 4.0 833.9 4.1 C 833.8 4.3 833.9 4.8 834.2 4.9 C 834.6 5.0 836.1 5.4 836.3 5.2 C 836.5 4.9 836.5 4.5 836.7 4.4 C 836.8 4.3 837.8 4.3 837.9 4.5 C 838.0 4.7 837.9 5.3 838.2 5.2 C 838.5 5.2 839.1 5.3 839.1 5.2 C 839.1 5.0 839.3 4.9 839.3 4.6 C 839.3 4.3 839.9 4.1 840.0 4.0 C 840.1 3.8 840.6 3.8 840.6 3.8 C 840.8 3.9 841.0 4.1 841.2 4.2 C 841.2 4.2 840.8 4.7 840.6 4.8 C 840.5 4.9 840.8 5.3 840.9 5.3 C 841.1 5.3 842.2 5.3 842.2 5.3 C 842.2 4.9 842.2 4.5 842.3 4.1 C 842.5 4.0 842.8 3.9 843.1 3.9 C 843.1 3.9 843.0 5.2 843.5 5.2 C 844.0 5.2 844.6 5.2 844.6 5.2 C 844.6 5.2 845.2 4.7 845.3 4.7 C 845.4 4.6 845.5 3.4 845.5 3.4 C 845.5 2.9 845.4 2.5 845.4 2.0 C 845.4 2.0 844.7 1.6 844.4 1.7 C 844.1 1.9 844.3 2.4 844.3 2.7 C 844.2 2.9 843.7 3.1 843.7 3.1 C 843.5 2.9 843.2 2.6 843.0 2.3 C 843.0 2.3 842.8 2.1 842.6 1.9 C 842.3 1.6 841.5 1.5 841.3 1.6 C 841.1 1.7 840.8 2.0 840.5 2.3 C 840.2 2.5 840.3 2.9 840.0 2.6 C 839.6 2.3 839.4 1.9 839.3 1.9 C 839.1 1.9 838.3 2.3 838.3 2.3 C 838.1 2.5 837.9 2.6 837.7 2.7 C 837.7 2.7 837.1 2.9 837.1 2.6 C 837.0 2.3 835.8 2.7 835.8 2.7 C 835.8 2.7 836.0 1.8 835.7 1.7 C 835.4 1.6 834.9 1.4 834.5 1.5 C 834.0 1.6 833.6 2.4 833.6 2.4 C 833.5 2.2 833.4 2.0 833.2 1.8 C 832.8 1.8 832.4 1.7 831.9 1.6 C 831.9 1.6 830.9 1.7 830.9 1.8 C 830.9 2.0 831.0 2.7 831.0 2.9 C 830.9 3.0 830.4 3.3 830.4 3.0 C 830.3 2.8 829.8 2.2 829.8 2.2 C 829.8 2.2 829.4 1.7 829.1 1.7 C 828.8 1.6 828.4 1.9 828.3 2.0 C 828.2 2.2 827.7 2.7 827.7 2.7 C 827.6 2.5 827.5 2.2 827.3 2.0 C 827.3 2.0 826.5 2.3 825.7 1.7 C 825.7 1.7 825.7 1.7 825.7 1.7 Z M 847.6 2.4 C 847.4 2.5 847.2 2.0 846.7 1.9 C 846.1 1.7 845.4 1.7 845.5 2.0 C 845.7 2.3 845.9 2.5 845.6 2.9 C 845.3 3.3 844.9 4.0 845.3 4.3 C 845.7 4.5 847.3 5.3 847.8 4.9 C 848.3 4.5 848.4 4.4 848.8 4.1 C 849.2 3.9 848.9 4.7 848.9 4.7 C 848.9 4.7 849.8 4.8 850.4 4.8 C 851.0 4.9 851.8 4.9 851.8 4.8 C 851.9 4.6 852.1 4.4 852.1 4.4 C 852.1 4.4 852.5 4.7 852.9 4.8 C 853.4 4.9 853.2 4.7 853.2 4.5 C 853.1 4.3 852.5 3.8 852.7 3.8 C 852.9 3.8 853.5 4.6 853.9 4.7 C 854.2 4.7 854.9 4.7 854.9 4.7 C 854.9 4.7 854.9 4.2 854.9 4.1 C 855.0 4.0 855.7 4.0 855.7 4.1 C 855.8 4.3 855.7 4.8 856.1 4.8 C 857.2 4.9 857.1 4.0 857.2 4.0 C 857.3 3.9 857.3 4.6 857.5 4.7 C 857.8 4.8 860.0 4.7 860.2 4.6 C 860.3 4.4 861.0 5.0 861.4 4.6 C 861.7 4.2 861.8 4.0 861.8 3.9 C 861.9 3.8 862.3 3.1 862.6 3.4 C 862.8 3.7 861.9 4.4 862.1 4.7 C 862.4 4.9 863.8 4.9 864.0 4.7 C 864.4 4.4 864.5 3.8 864.7 3.8 C 864.9 3.8 865.7 4.6 865.7 4.5 C 865.8 4.3 865.9 3.6 865.9 3.5 C 865.9 3.4 866.2 2.1 866.0 1.9 C 865.8 1.8 865.0 1.3 865.1 1.7 C 865.2 2.0 865.4 2.5 865.1 2.6 C 864.8 2.8 864.6 2.8 864.6 2.7 C 864.5 2.5 864.7 2.4 864.2 2.1 C 863.7 1.9 863.9 1.6 863.5 1.7 C 863.0 1.7 862.6 1.8 862.6 2.0 C 862.7 2.3 862.2 2.7 861.9 2.7 C 861.5 2.7 862.1 2.0 861.0 1.8 C 860.0 1.6 859.3 1.5 859.0 1.7 C 858.7 2.0 858.7 2.7 858.2 2.4 C 857.7 2.1 858.0 1.9 857.3 1.9 C 856.6 1.9 856.3 2.5 855.9 2.5 C 855.5 2.5 855.4 2.5 855.4 2.5 C 855.4 2.5 855.6 1.7 854.6 1.6 C 853.7 1.6 853.5 1.5 853.7 2.1 C 853.9 2.7 853.1 2.8 853.1 2.4 C 853.1 2.0 852.5 1.7 852.2 1.7 C 851.8 1.6 851.7 2.6 851.6 2.7 C 851.5 2.7 851.1 2.6 851.2 2.3 C 851.4 2.0 851.0 1.9 850.7 1.8 C 850.4 1.6 849.5 1.7 849.5 1.9 C 849.5 2.1 850.0 2.8 849.4 2.4 C 848.8 2.1 848.6 1.6 848.1 1.6 C 847.5 1.6 848.0 2.3 847.6 2.4 C 847.6 2.4 847.6 2.4 847.6 2.4 Z M 866.8 1.7 C 866.3 1.4 865.9 1.8 865.9 2.2 C 866.0 2.6 866.2 3.5 866.0 3.8 C 865.8 4.1 865.2 4.8 866.1 4.9 C 867.0 5.1 867.2 4.8 867.2 4.6 C 867.2 4.3 867.3 3.3 867.6 3.4 C 867.8 3.5 868.0 3.8 868.1 3.9 C 868.1 4.1 868.5 5.0 868.9 4.9 C 869.3 4.7 869.7 4.5 869.7 4.5 C 869.9 4.5 870.1 4.4 870.3 4.4 C 870.3 4.4 870.9 5.0 871.4 4.9 C 871.8 4.7 872.4 4.7 872.7 4.8 C 873.0 4.8 873.4 4.7 873.5 4.5 C 873.5 4.3 874.0 3.5 874.0 3.5 C 874.0 3.5 874.5 3.2 874.7 3.4 C 875.0 3.5 875.0 4.0 875.0 4.1 C 874.9 4.3 875.0 4.8 875.3 4.9 C 875.7 5.0 877.2 5.4 877.4 5.2 C 877.6 4.9 877.6 4.5 877.7 4.4 C 877.9 4.3 878.9 4.3 879.0 4.5 C 879.1 4.7 879.0 5.3 879.3 5.2 C 879.6 5.2 880.2 5.3 880.2 5.2 C 880.2 5.0 880.3 4.9 880.4 4.6 C 880.4 4.3 881.0 4.1 881.1 4.0 C 881.2 3.8 881.7 3.8 881.7 3.8 C 881.9 3.9 882.0 4.1 882.2 4.2 C 882.2 4.2 881.9 4.7 881.7 4.8 C 881.5 4.9 881.8 5.3 882.0 5.3 C 882.2 5.3 883.3 5.3 883.3 5.3 C 883.3 4.9 883.3 4.5 883.3 4.1 C 883.6 4.0 883.9 3.9 884.2 3.9 C 884.2 3.9 884.0 5.2 884.6 5.2 C 885.1 5.2 885.7 5.2 885.7 5.2 C 885.7 5.2 886.3 4.7 886.4 4.7 C 886.5 4.6 886.6 3.4 886.6 3.4 C 886.5 2.9 886.5 2.5 886.5 2.0 C 886.5 2.0 885.8 1.6 885.5 1.7 C 885.1 1.9 885.4 2.4 885.4 2.7 C 885.3 2.9 884.8 3.1 884.8 3.1 C 884.6 2.9 884.3 2.6 884.1 2.3 C 884.1 2.3 883.9 2.1 883.6 1.9 C 883.4 1.6 882.6 1.5 882.4 1.6 C 882.1 1.7 881.9 2.0 881.6 2.3 C 881.3 2.5 881.4 2.9 881.0 2.6 C 880.7 2.3 880.5 1.9 880.3 1.9 C 880.2 1.9 879.4 2.3 879.4 2.3 C 879.2 2.5 879.0 2.6 878.8 2.7 C 878.8 2.7 878.2 2.9 878.1 2.6 C 878.1 2.3 876.9 2.7 876.9 2.7 C 876.9 2.7 877.0 1.8 876.7 1.7 C 876.5 1.6 876.0 1.4 875.5 1.5 C 875.1 1.6 874.7 2.4 874.7 2.4 C 874.6 2.2 874.4 2.0 874.3 1.8 C 873.9 1.8 873.4 1.7 873.0 1.6 C 873.0 1.6 872.0 1.7 872.0 1.8 C 872.0 2.0 872.1 2.7 872.1 2.9 C 872.0 3.0 871.5 3.3 871.4 3.0 C 871.4 2.8 870.9 2.2 870.9 2.2 C 870.9 2.2 870.5 1.7 870.2 1.7 C 869.9 1.6 869.5 1.9 869.3 2.0 C 869.2 2.2 868.8 2.7 868.8 2.7 C 868.6 2.5 868.5 2.2 868.4 2.0 C 868.4 2.0 867.6 2.3 866.8 1.7 C 866.8 1.7 866.8 1.7 866.8 1.7 Z M 886.9 1.6 C 885.9 1.6 886.5 4.3 886.9 4.8 C 887.3 5.4 888.0 5.0 888.7 5.1 C 889.4 5.2 889.2 4.4 889.6 4.1 C 890.0 3.9 889.8 4.4 890.0 4.8 C 890.2 5.2 891.2 4.9 891.9 4.9 C 892.5 5.0 893.2 4.1 893.7 4.0 C 894.2 4.0 893.2 3.6 894.1 3.6 C 895.0 3.7 894.6 4.1 893.5 4.4 C 892.5 4.7 894.0 4.9 894.5 5.0 C 895.1 5.1 896.1 4.7 896.5 4.8 C 897.0 4.8 896.4 4.1 897.1 4.2 C 897.7 4.2 897.4 4.9 898.1 5.0 C 898.7 5.1 898.7 4.4 899.0 4.3 C 899.3 4.1 899.3 4.5 899.6 4.6 C 899.8 4.6 900.3 4.8 900.9 4.7 C 901.5 4.5 901.4 4.3 901.7 4.3 C 901.9 4.2 902.5 4.2 902.5 4.2 C 902.5 4.5 902.5 4.7 902.6 4.9 C 902.6 4.9 903.7 5.0 904.1 5.0 C 904.4 5.1 905.2 4.8 905.0 4.6 C 904.8 4.5 905.5 4.1 905.7 4.1 C 905.9 4.2 906.5 4.6 906.9 4.7 C 907.2 4.9 907.1 3.2 907.1 2.9 C 907.1 2.7 907.4 1.7 907.0 1.6 C 906.7 1.6 906.4 1.9 906.5 1.6 C 906.5 1.4 905.5 1.6 905.2 1.6 C 904.9 1.6 904.6 2.3 904.6 2.3 C 904.6 2.3 904.3 2.8 903.8 2.8 C 903.4 2.8 903.2 1.7 903.2 1.7 C 903.2 1.7 902.6 1.6 902.1 1.6 C 901.5 1.6 900.9 2.5 900.8 2.7 C 900.6 2.9 900.7 2.1 900.3 2.0 C 899.9 1.9 899.3 1.6 899.1 1.7 C 898.9 1.7 898.6 2.3 898.6 2.3 C 898.6 2.3 897.9 2.6 897.7 2.6 C 897.6 2.6 897.8 1.8 897.8 1.8 C 897.8 1.8 896.3 1.6 896.0 1.5 C 895.7 1.5 895.1 1.7 894.9 1.7 C 894.7 1.8 894.4 2.8 894.0 2.7 C 893.7 2.6 894.4 2.0 894.0 1.9 C 893.7 1.9 893.0 1.7 892.9 1.7 C 892.7 1.7 892.5 2.0 892.2 2.0 C 891.9 2.1 891.5 2.8 891.0 2.8 C 890.6 2.8 890.4 2.4 890.2 2.3 C 890.0 2.2 889.9 1.6 889.6 1.5 C 889.2 1.5 889.5 1.9 889.1 1.9 C 888.8 1.9 888.8 2.4 888.4 2.3 C 888.1 2.2 888.3 1.4 887.9 1.6 C 887.7 1.6 887.9 1.6 886.9 1.6 C 886.9 1.6 886.9 1.6 886.9 1.6 Z M 886.9 1.6 " fill="#000000"></path></g></svg>