<?xml version="1.0" encoding="UTF-8" standalone="no"?><svg xmlns="http://www.w3.org/2000/svg" xmlns:xlink="http://www.w3.org/1999/xlink" clip-rule="evenodd" stroke-miterlimit="4.00" viewBox="0 0 485 112"><desc>SVG generated by Keynote</desc><defs></defs><g transform="matrix(1.00, 0.00, -0.00, -1.00, 0.0, 112.0)"><g><clipPath id="clip-67"><path d="M 1.2 41.4 L 389.0 41.4 L 389.0 111.7 L 1.2 111.7 Z M 1.2 41.4 "></path></clipPath><g clip-path="url(#clip-67)"><image xlink:href="../../710423F4-3DAC-4B50-825F-B5E67D7919F2/assets/F611D11E1DD20F18BBECB829EFC61DA6.png" width="388.00" height="70.00" transform="matrix(1.00, 0.00, -0.00, -1.01, 1.0, 112.0)"></image></g></g><g><clipPath id="clip-68"><path d="M 0.5 26.1 L 484.5 26.1 L 484.5 48.1 L 0.5 48.1 Z M 0.5 26.1 "></path></clipPath><g clip-path="url(#clip-68)"><image xlink:href="12D40A62ADFD6E7C606ABB0BB06DD0A2.png" width="484.00" height="22.00" transform="matrix(1.00, 0.00, -0.00, -1.00, 1.0, 48.0)"></image></g></g><g><clipPath id="clip-69"><path d="M 388.9 0.6 L 477.9 0.6 L 477.9 59.6 L 388.9 59.6 Z M 388.9 0.6 "></path></clipPath><g clip-path="url(#clip-69)"><image xlink:href="23D7A78AD86417E4802A3EDACF51C952.png" width="89.00" height="59.00" transform="matrix(1.00, 0.00, -0.00, -1.00, 389.0, 60.0)"></image></g></g></g></svg>